<svg width="3200" height="1200" viewBox="0 0 3200 1200" fill="none" xmlns="http://www.w3.org/2000/svg">
<g clip-path="url(#clip0_360_107378)">
<path d="M1600 0H0V1200H1600V0Z" fill="#559DCC"/>
<path d="M25.6757 -39.0533C-11.7002 -39.0533 -42.6717 -11.4405 -47.9394 24.4804C-49.257 24.3632 -50.5829 24.2874 -51.929 24.2874C-77.6451 24.2874 -98.588 46.123 -99.161 73.2353C-103.457 70.8355 -108.393 69.4602 -113.661 69.4602C-130.122 69.4602 -143.497 82.8352 -143.497 99.2966C-143.497 115.758 -126.654 133.807 -110.193 133.807C29.3207 134.256 122.016 135.649 261.046 134.742C279.764 134.742 296.884 125.865 296.884 107.147C296.884 88.4292 281.69 73.2353 262.972 73.2353C258.092 73.2353 253.46 74.2725 249.266 76.1311C241.668 63.5487 227.876 55.1319 212.115 55.1319C205.91 55.1319 199.996 56.4491 194.656 58.7998C191.681 39.7018 175.159 25.0596 155.231 25.0596C139.499 25.0596 125.889 34.1744 119.389 47.41C113.577 43.9696 106.935 41.7625 99.8484 41.1682C99.9976 39.2449 100.084 37.3167 100.084 35.3554C100.084 -5.71396 66.745 -39.0533 25.6757 -39.0533Z" fill="white"/>
<path d="M116.859 174.814C78.0975 174.814 45.9775 203.45 40.5146 240.703C39.1481 240.581 37.7731 240.503 36.377 240.503C9.70738 240.503 -12.012 263.148 -12.6062 291.266C-17.0618 288.777 -22.1808 287.351 -27.6438 287.351C-44.7154 287.351 -58.5864 301.221 -58.5864 318.293C-58.5864 335.365 -41.1188 354.083 -24.0471 354.083C120.639 354.549 216.771 355.993 360.956 355.052C380.368 355.052 398.123 345.847 398.123 326.435C398.123 307.023 382.366 291.266 362.954 291.266C357.893 291.266 353.089 292.341 348.74 294.269C340.86 281.22 326.557 272.491 310.212 272.491C303.776 272.491 297.643 273.857 292.104 276.295C289.02 256.489 271.885 241.304 251.218 241.304C234.903 241.304 220.788 250.756 214.047 264.483C208.019 260.915 201.131 258.626 193.782 258.01C193.937 256.015 194.027 254.015 194.027 251.981C194.027 209.389 159.451 174.814 116.859 174.814Z" fill="white"/>
<path d="M305.927 361.564C272.734 361.564 245.229 386.087 240.551 417.987C239.381 417.883 238.203 417.816 237.008 417.816C214.17 417.816 195.571 437.208 195.062 461.286C191.246 459.155 186.863 457.933 182.185 457.933C167.566 457.933 155.688 469.811 155.688 484.43C155.688 499.05 170.646 515.079 185.265 515.079C309.165 515.477 391.485 516.714 514.956 515.908C531.579 515.908 546.783 508.026 546.783 491.402C546.783 474.779 533.29 461.286 516.667 461.286C512.333 461.286 508.219 462.207 504.494 463.857C497.746 452.683 485.499 445.208 471.502 445.208C465.99 445.208 460.738 446.378 455.996 448.466C453.354 431.505 438.681 418.502 420.983 418.502C407.012 418.502 394.925 426.596 389.153 438.351C383.991 435.295 378.092 433.335 371.799 432.808C371.931 431.1 372.009 429.387 372.009 427.645C372.009 391.172 342.4 361.564 305.927 361.564Z" fill="white"/>
<path d="M-0.16716 544.208C-31.0368 544.208 -56.617 567.014 -60.9677 596.682C-62.056 596.586 -63.1511 596.523 -64.2628 596.523C-85.5023 596.523 -102.8 614.557 -103.273 636.95C-106.821 634.968 -110.898 633.832 -115.249 633.832C-128.845 633.832 -139.891 644.879 -139.891 658.475C-139.891 672.071 -125.98 686.978 -112.384 686.978C2.84335 687.349 79.4025 688.499 194.231 687.75C209.691 687.75 223.831 680.419 223.831 664.959C223.831 649.499 211.282 636.95 195.822 636.95C191.792 636.95 187.966 637.807 184.502 639.342C178.226 628.95 166.836 621.998 153.818 621.998C148.693 621.998 143.808 623.086 139.398 625.028C136.941 609.254 123.295 597.161 106.836 597.161C93.8427 597.161 82.6011 604.689 77.2329 615.62C72.4325 612.779 66.9467 610.956 61.0939 610.465C61.2171 608.877 61.2887 607.284 61.2887 605.664C61.2887 571.744 33.7531 544.208 -0.16716 544.208Z" fill="white"/>
<path d="M356.744 800.447C335.093 800.447 317.153 816.442 314.101 837.25C313.338 837.182 312.57 837.138 311.79 837.138C296.894 837.138 284.763 849.787 284.431 865.492C281.942 864.102 279.083 863.305 276.031 863.305C266.496 863.305 258.748 871.053 258.748 880.588C258.748 890.123 268.505 900.578 278.04 900.578C358.855 900.839 412.55 901.645 493.084 901.12C503.927 901.12 513.844 895.978 513.844 885.135C513.844 874.293 505.043 865.492 494.201 865.492C491.374 865.492 488.69 866.092 486.261 867.169C481.859 859.881 473.871 855.005 464.741 855.005C461.146 855.005 457.721 855.768 454.627 857.13C452.904 846.067 443.334 837.585 431.79 837.585C422.677 837.585 414.793 842.865 411.028 850.532C407.661 848.539 403.814 847.261 399.709 846.916C399.795 845.802 399.846 844.685 399.846 843.549C399.846 819.759 380.534 800.447 356.744 800.447Z" fill="white"/>
<path d="M213.762 907.494C204.104 907.494 196.101 914.629 194.74 923.911C194.4 923.881 194.057 923.861 193.709 923.861C187.065 923.861 181.653 929.503 181.505 936.509C180.395 935.889 179.119 935.533 177.758 935.533C173.505 935.533 170.049 938.989 170.049 943.243C170.049 947.497 174.401 952.16 178.654 952.16C214.704 952.277 238.656 952.636 274.581 952.402C279.418 952.402 283.842 950.108 283.842 945.272C283.842 940.435 279.915 936.509 275.079 936.509C273.818 936.509 272.621 936.777 271.537 937.257C269.574 934.006 266.01 931.831 261.938 931.831C260.334 931.831 258.806 932.171 257.426 932.779C256.657 927.844 252.388 924.06 247.239 924.06C243.174 924.06 239.657 926.416 237.977 929.836C236.476 928.947 234.759 928.376 232.928 928.223C232.967 927.726 232.989 927.228 232.989 926.721C232.989 916.109 224.374 907.494 213.762 907.494Z" fill="white"/>
<path d="M68.1213 982.152C32.6287 982.152 3.21772 1008.37 -1.78448 1042.48C-3.03578 1042.37 -4.29488 1042.3 -5.57308 1042.3C-29.9935 1042.3 -49.8811 1063.04 -50.4252 1088.78C-54.505 1086.5 -59.1924 1085.2 -64.1946 1085.2C-79.8265 1085.2 -92.5276 1097.9 -92.5276 1113.53C-92.5276 1129.16 -76.5332 1146.3 -60.9013 1146.3C71.5825 1146.73 159.607 1148.05 291.632 1147.19C309.407 1147.19 325.665 1138.76 325.665 1120.99C325.665 1103.21 311.236 1088.78 293.462 1088.78C288.827 1088.78 284.429 1089.77 280.446 1091.53C273.23 1079.58 260.134 1071.59 245.167 1071.59C239.274 1071.59 233.658 1072.84 228.587 1075.07C225.762 1056.94 210.073 1043.03 191.149 1043.03C176.21 1043.03 163.285 1051.69 157.113 1064.26C151.593 1060.99 145.286 1058.9 138.557 1058.33C138.698 1056.5 138.781 1054.67 138.781 1052.81C138.781 1013.81 107.121 982.152 68.1213 982.152Z" fill="white"/>
<path d="M580.318 188.9C593.7 188.9 604.79 198.787 606.676 211.649C607.148 211.607 607.623 211.58 608.104 211.58C617.312 211.58 624.811 219.398 625.016 229.106C626.554 228.246 628.322 227.754 630.208 227.754C636.102 227.754 640.891 232.543 640.891 238.437C640.891 244.331 634.86 250.793 628.966 250.793C579.013 250.954 545.823 251.453 496.043 251.128C489.341 251.128 483.211 247.95 483.211 241.248C483.211 234.546 488.651 229.106 495.353 229.106C497.101 229.106 498.759 229.477 500.261 230.142C502.981 225.637 507.919 222.624 513.563 222.624C515.785 222.624 517.902 223.095 519.814 223.937C520.879 217.099 526.795 211.856 533.93 211.856C539.563 211.856 544.436 215.12 546.764 219.859C548.845 218.627 551.223 217.837 553.76 217.624C553.707 216.935 553.676 216.245 553.676 215.542C553.676 200.838 565.613 188.9 580.318 188.9Z" fill="white"/>
<path d="M486.213 522.376C498.906 522.376 509.424 531.753 511.213 543.952C511.66 543.913 512.111 543.887 512.568 543.887C521.301 543.887 528.414 551.302 528.608 560.51C530.067 559.695 531.744 559.228 533.532 559.228C539.123 559.228 543.665 563.77 543.665 569.361C543.665 574.951 537.945 581.081 532.355 581.081C484.975 581.233 453.494 581.706 406.279 581.398C399.922 581.398 394.107 578.384 394.107 572.027C394.107 565.67 399.268 560.51 405.624 560.51C407.282 560.51 408.855 560.862 410.279 561.493C412.86 557.22 417.543 554.362 422.896 554.362C425.003 554.362 427.012 554.809 428.825 555.607C429.835 549.122 435.446 544.149 442.214 544.149C447.557 544.149 452.179 547.244 454.387 551.739C456.361 550.571 458.616 549.821 461.023 549.62C460.972 548.966 460.943 548.312 460.943 547.646C460.943 533.698 472.265 522.376 486.213 522.376Z" fill="white"/>
<path d="M694.895 587.7C739.237 587.7 775.982 620.46 782.231 663.077C783.795 662.938 785.368 662.848 786.965 662.848C817.474 662.848 842.321 688.753 843.001 720.92C848.098 718.072 853.954 716.441 860.204 716.441C879.733 716.441 895.602 732.309 895.602 751.839C895.602 771.369 875.619 792.782 856.089 792.782C690.57 793.315 580.597 794.967 415.651 793.891C393.444 793.891 373.132 783.36 373.132 761.153C373.132 738.946 391.158 720.92 413.365 720.92C419.155 720.92 424.65 722.15 429.626 724.355C438.641 709.427 455.003 699.442 473.702 699.442C481.065 699.442 488.081 701.004 494.416 703.793C497.945 681.135 517.547 663.764 541.19 663.764C559.854 663.764 576.002 674.578 583.713 690.28C590.608 686.199 598.489 683.58 606.896 682.875C606.719 680.593 606.616 678.306 606.616 675.979C606.616 627.254 646.17 587.7 694.895 587.7Z" fill="white"/>
<path d="M697.678 907.494C739.574 907.494 774.292 938.447 780.197 978.712C781.674 978.581 783.16 978.496 784.669 978.496C813.495 978.496 836.971 1002.97 837.614 1033.36C842.43 1030.67 847.963 1029.13 853.867 1029.13C872.32 1029.13 887.312 1044.12 887.312 1062.58C887.312 1081.03 868.432 1101.26 849.98 1101.26C693.592 1101.77 589.686 1103.33 433.84 1102.31C412.858 1102.31 393.667 1092.36 393.667 1071.38C393.667 1050.4 410.698 1033.36 431.68 1033.36C437.15 1033.36 442.343 1034.53 447.044 1036.61C455.562 1022.51 471.021 1013.07 488.688 1013.07C495.645 1013.07 502.274 1014.55 508.26 1017.18C511.594 995.774 530.114 979.361 552.453 979.361C570.087 979.361 585.344 989.579 592.63 1004.42C599.145 1000.56 606.591 998.084 614.534 997.418C614.367 995.262 614.27 993.101 614.27 990.902C614.27 944.866 651.641 907.494 697.678 907.494Z" fill="white"/>
<path d="M425.452 1108.85C438.35 1108.85 449.037 1118.38 450.855 1130.77C451.31 1130.73 451.767 1130.7 452.232 1130.7C461.106 1130.7 468.333 1138.24 468.531 1147.59C470.013 1146.77 471.717 1146.29 473.534 1146.29C479.215 1146.29 483.83 1150.91 483.83 1156.59C483.83 1162.27 478.018 1168.5 472.337 1168.5C424.195 1168.65 392.208 1169.13 344.232 1168.82C337.772 1168.82 331.865 1165.76 331.865 1159.3C331.865 1152.84 337.108 1147.59 343.567 1147.59C345.251 1147.59 346.849 1147.95 348.296 1148.59C350.919 1144.25 355.678 1141.35 361.116 1141.35C363.258 1141.35 365.298 1141.8 367.141 1142.61C368.168 1136.02 373.869 1130.97 380.746 1130.97C386.174 1130.97 390.871 1134.12 393.114 1138.68C395.12 1137.5 397.412 1136.73 399.857 1136.53C399.806 1135.87 399.776 1135.2 399.776 1134.52C399.776 1120.35 411.28 1108.85 425.452 1108.85Z" fill="white"/>
<path d="M643.51 1175.12C679.759 1175.12 709.796 1201.9 714.905 1236.74C716.182 1236.63 717.468 1236.55 718.774 1236.55C743.714 1236.55 764.025 1257.73 764.581 1284.02C768.748 1281.7 773.535 1280.36 778.643 1280.36C794.608 1280.36 807.58 1293.33 807.58 1309.3C807.58 1325.26 791.245 1342.77 775.28 1342.77C639.975 1343.2 550.077 1344.55 415.241 1343.67C397.087 1343.67 380.483 1335.07 380.483 1316.91C380.483 1298.76 395.219 1284.02 413.372 1284.02C418.105 1284.02 422.597 1285.03 426.665 1286.83C434.034 1274.63 447.41 1266.47 462.695 1266.47C468.714 1266.47 474.449 1267.74 479.628 1270.02C482.513 1251.5 498.536 1237.3 517.863 1237.3C533.121 1237.3 546.321 1246.14 552.624 1258.98C558.261 1255.64 564.703 1253.5 571.575 1252.92C571.431 1251.06 571.346 1249.19 571.346 1247.29C571.346 1207.46 603.68 1175.12 643.51 1175.12Z" fill="white"/>
<path d="M729.797 -29.1179C692.744 -29.1179 662.04 -1.74341 656.818 33.8674C655.512 33.7512 654.197 33.676 652.863 33.676C627.369 33.676 606.607 55.3231 606.038 82.2014C601.779 79.8222 596.886 78.4589 591.664 78.4589C575.344 78.4589 562.085 91.7184 562.085 108.038C562.085 124.357 578.782 142.25 595.102 142.25C733.411 142.695 825.306 144.076 963.135 143.177C981.692 143.177 998.665 134.377 998.665 115.82C998.665 97.2641 983.602 82.2014 965.045 82.2014C960.207 82.2014 955.615 83.2296 951.458 85.0721C943.925 72.5984 930.252 64.2542 914.628 64.2542C908.475 64.2542 902.612 65.5601 897.318 67.8904C894.369 48.9574 877.99 34.4415 858.234 34.4415C842.638 34.4415 829.145 43.4777 822.702 56.599C816.94 53.1883 810.355 51.0003 803.33 50.4111C803.478 48.5044 803.564 46.5929 803.564 44.6484C803.564 3.93365 770.512 -29.1179 729.797 -29.1179Z" fill="white"/>
<path d="M748.271 328.026C722.982 328.026 702.026 346.71 698.461 371.015C697.57 370.935 696.673 370.884 695.762 370.884C678.362 370.884 664.191 385.658 663.803 404.003C660.897 402.38 657.557 401.449 653.993 401.449C642.854 401.449 633.805 410.499 633.805 421.637C633.805 432.775 645.201 444.987 656.339 444.987C750.737 445.291 813.457 446.234 907.528 445.62C920.193 445.62 931.777 439.614 931.777 426.949C931.777 414.284 921.496 404.003 908.831 404.003C905.529 404.003 902.395 404.705 899.558 405.963C894.416 397.449 885.085 391.754 874.42 391.754C870.221 391.754 866.22 392.645 862.607 394.236C860.594 381.314 849.415 371.406 835.931 371.406C825.287 371.406 816.077 377.574 811.679 386.529C807.747 384.201 803.253 382.708 798.458 382.306C798.559 381.005 798.617 379.7 798.617 378.373C798.617 350.584 776.059 328.026 748.271 328.026Z" fill="white"/>
<path d="M902.006 452.023C874.209 452.023 851.175 472.559 847.257 499.274C846.277 499.187 845.291 499.131 844.29 499.131C825.165 499.131 809.59 515.37 809.163 535.534C805.968 533.749 802.297 532.726 798.38 532.726C786.137 532.726 776.19 542.673 776.19 554.916C776.19 567.158 788.716 580.582 800.959 580.582C904.717 580.916 973.655 581.951 1077.05 581.277C1090.97 581.277 1103.71 574.675 1103.71 560.754C1103.71 546.834 1092.41 535.534 1078.49 535.534C1074.86 535.534 1071.41 536.305 1068.29 537.687C1062.64 528.33 1052.38 522.07 1040.66 522.07C1036.05 522.07 1031.65 523.05 1027.68 524.798C1025.47 510.594 1013.18 499.705 998.358 499.705C986.658 499.705 976.535 506.484 971.702 516.327C967.379 513.768 962.439 512.127 957.169 511.685C957.28 510.255 957.344 508.821 957.344 507.362C957.344 476.818 932.55 452.023 902.006 452.023Z" fill="white"/>
<path d="M1008.07 956.777C982.76 956.777 961.788 975.475 958.221 999.799C957.328 999.72 956.43 999.669 955.519 999.669C938.105 999.669 923.923 1014.46 923.535 1032.81C920.626 1031.19 917.283 1030.26 913.716 1030.26C902.569 1030.26 893.512 1039.32 893.512 1050.46C893.512 1061.61 904.918 1073.83 916.065 1073.83C1010.54 1074.14 1073.31 1075.08 1167.45 1074.46C1180.13 1074.46 1191.72 1068.45 1191.72 1055.78C1191.72 1043.1 1181.43 1032.81 1168.76 1032.81C1165.45 1032.81 1162.32 1033.52 1159.48 1034.78C1154.33 1026.26 1144.99 1020.56 1134.32 1020.56C1130.12 1020.56 1126.11 1021.45 1122.5 1023.04C1120.48 1010.11 1109.29 1000.19 1095.8 1000.19C1085.15 1000.19 1075.93 1006.36 1071.53 1015.33C1067.59 1013 1063.1 1011.5 1058.3 1011.1C1058.4 1009.8 1058.46 1008.49 1058.46 1007.16C1058.46 979.353 1035.88 956.777 1008.07 956.777Z" fill="white"/>
<path d="M909.009 1154.81C888.216 1154.81 870.986 1170.18 868.055 1190.16C867.322 1190.09 866.584 1190.05 865.835 1190.05C851.529 1190.05 839.878 1202.2 839.559 1217.28C837.169 1215.95 834.423 1215.18 831.493 1215.18C822.335 1215.18 814.894 1222.62 814.894 1231.78C814.894 1240.94 824.264 1250.98 833.422 1250.98C911.037 1251.23 962.605 1252 1039.95 1251.5C1050.36 1251.5 1059.89 1246.56 1059.89 1236.15C1059.89 1225.74 1051.44 1217.28 1041.02 1217.28C1038.31 1217.28 1035.73 1217.86 1033.4 1218.89C1029.17 1211.89 1021.5 1207.21 1012.73 1207.21C1009.28 1207.21 1005.99 1207.94 1003.02 1209.25C1001.36 1198.63 992.17 1190.48 981.083 1190.48C972.331 1190.48 964.759 1195.55 961.143 1202.92C957.91 1201 954.215 1199.77 950.273 1199.44C950.356 1198.37 950.404 1197.3 950.404 1196.21C950.404 1173.36 931.857 1154.81 909.009 1154.81Z" fill="white"/>
<path d="M1273.26 -71.5333C1310.25 -71.5333 1340.9 -44.2064 1346.12 -8.65756C1347.42 -8.77353 1348.73 -8.84861 1350.07 -8.84861C1375.52 -8.84861 1396.24 12.7609 1396.81 39.5924C1401.06 37.2174 1405.95 35.8564 1411.16 35.8564C1427.45 35.8564 1440.69 49.0929 1440.69 65.3838C1440.69 81.6747 1424.02 99.5367 1407.73 99.5367C1269.66 99.9813 1177.92 101.359 1040.33 100.462C1021.81 100.462 1004.86 91.6772 1004.86 73.1531C1004.86 54.6289 1019.9 39.5924 1038.43 39.5924C1043.25 39.5924 1047.84 40.6189 1051.99 42.4582C1059.51 30.0061 1073.16 21.6765 1088.76 21.6765C1094.9 21.6765 1100.75 22.9801 1106.03 25.3064C1108.98 6.40619 1125.33 -8.08442 1145.05 -8.08442C1160.62 -8.08442 1174.09 0.936045 1180.52 14.0346C1186.27 10.6298 1192.85 8.44556 1199.86 7.8574C1199.71 5.95404 1199.63 4.0458 1199.63 2.10475C1199.63 -38.5392 1232.62 -71.5333 1273.26 -71.5333Z" fill="white"/>
<path d="M1116.45 149.675C1153.41 149.675 1184.03 176.979 1189.24 212.499C1190.55 212.383 1191.86 212.308 1193.19 212.308C1218.62 212.308 1239.33 233.9 1239.89 260.709C1244.14 258.336 1249.02 256.977 1254.23 256.977C1270.51 256.977 1283.73 270.202 1283.73 286.48C1283.73 302.757 1267.08 320.605 1250.8 320.605C1112.85 321.049 1021.19 322.426 883.708 321.529C865.199 321.529 848.27 312.752 848.27 294.243C848.27 275.734 863.294 260.709 881.803 260.709C886.629 260.709 891.209 261.735 895.356 263.573C902.87 251.131 916.507 242.808 932.092 242.808C938.229 242.808 944.077 244.111 949.357 246.435C952.299 227.55 968.636 213.072 988.341 213.072C1003.9 213.072 1017.36 222.085 1023.78 235.173C1029.53 231.771 1036.1 229.588 1043.11 229C1042.96 227.099 1042.87 225.192 1042.87 223.252C1042.87 182.642 1075.84 149.675 1116.45 149.675Z" fill="white"/>
<path d="M1320.13 407.382C1349.1 407.382 1373.11 428.786 1377.19 456.629C1378.21 456.538 1379.24 456.479 1380.28 456.479C1400.22 456.479 1416.45 473.405 1416.9 494.421C1420.23 492.561 1424.05 491.495 1428.14 491.495C1440.89 491.495 1451.26 501.862 1451.26 514.622C1451.26 527.382 1438.21 541.372 1425.45 541.372C1317.3 541.72 1245.45 542.8 1137.69 542.096C1123.18 542.096 1109.91 535.216 1109.91 520.707C1109.91 506.198 1121.68 494.421 1136.19 494.421C1139.98 494.421 1143.57 495.225 1146.82 496.665C1152.71 486.912 1163.4 480.388 1175.61 480.388C1180.42 480.388 1185.01 481.409 1189.15 483.231C1191.45 468.428 1204.26 457.078 1219.71 457.078C1231.9 457.078 1242.45 464.143 1247.49 474.403C1251.99 471.736 1257.14 470.025 1262.64 469.564C1262.52 468.074 1262.45 466.579 1262.45 465.059C1262.45 433.224 1288.3 407.382 1320.13 407.382Z" fill="white"/>
<path d="M1228.2 724.144C1267.11 724.144 1299.35 752.887 1304.83 790.279C1306.2 790.157 1307.58 790.078 1308.98 790.078C1335.75 790.078 1357.55 812.807 1358.15 841.03C1362.62 838.532 1367.76 837.1 1373.24 837.1C1390.38 837.1 1404.3 851.023 1404.3 868.158C1404.3 885.293 1386.77 904.081 1369.63 904.081C1224.41 904.549 1127.92 905.998 983.196 905.054C963.712 905.054 945.89 895.814 945.89 876.33C945.89 856.845 961.706 841.03 981.19 841.03C986.27 841.03 991.092 842.109 995.458 844.044C1003.37 830.946 1017.72 822.185 1034.13 822.185C1040.59 822.185 1046.75 823.556 1052.3 826.003C1055.4 806.123 1072.6 790.882 1093.34 790.882C1109.72 790.882 1123.89 800.37 1130.65 814.147C1136.7 810.566 1143.62 808.268 1150.99 807.65C1150.84 805.648 1150.75 803.641 1150.75 801.599C1150.75 758.848 1185.45 724.144 1228.2 724.144Z" fill="white"/>
<path d="M1323.44 1015.6C1340.73 1015.6 1355.07 1028.38 1357.51 1045.01C1358.12 1044.95 1358.73 1044.92 1359.35 1044.92C1371.25 1044.92 1380.95 1055.02 1381.21 1067.57C1383.2 1066.46 1385.48 1065.82 1387.92 1065.82C1395.54 1065.82 1401.73 1072.01 1401.73 1079.63C1401.73 1087.25 1393.93 1095.6 1386.32 1095.6C1321.75 1095.81 1278.85 1096.45 1214.51 1096.03C1205.85 1096.03 1197.92 1091.93 1197.92 1083.26C1197.92 1074.6 1204.95 1067.57 1213.62 1067.57C1215.88 1067.57 1218.02 1068.05 1219.96 1068.91C1223.48 1063.09 1229.86 1059.19 1237.15 1059.19C1240.03 1059.19 1242.76 1059.8 1245.23 1060.89C1246.61 1052.05 1254.26 1045.27 1263.48 1045.27C1270.76 1045.27 1277.06 1049.49 1280.07 1055.62C1282.76 1054.03 1285.83 1053 1289.11 1052.73C1289.04 1051.84 1289 1050.95 1289 1050.04C1289 1031.03 1304.43 1015.6 1323.44 1015.6Z" fill="white"/>
<path d="M1441.09 143.648C1418.2 143.648 1399.23 160.559 1396 182.557C1395.2 182.486 1394.38 182.439 1393.56 182.439C1377.81 182.439 1364.99 195.812 1364.63 212.416C1362 210.946 1358.98 210.104 1355.75 210.104C1345.67 210.104 1337.48 218.295 1337.48 228.376C1337.48 238.457 1347.8 249.511 1357.88 249.511C1443.32 249.786 1500.09 250.639 1585.23 250.083C1596.69 250.083 1607.18 244.647 1607.18 233.184C1607.18 221.721 1597.87 212.416 1586.41 212.416C1583.42 212.416 1580.59 213.051 1578.02 214.189C1573.36 206.484 1564.92 201.329 1555.27 201.329C1551.46 201.329 1547.84 202.136 1544.57 203.575C1542.75 191.879 1532.63 182.912 1520.43 182.912C1510.79 182.912 1502.46 188.494 1498.48 196.6C1494.92 194.493 1490.85 193.141 1486.51 192.777C1486.6 191.599 1486.66 190.419 1486.66 189.217C1486.66 164.066 1466.24 143.648 1441.09 143.648Z" fill="white"/>
<path d="M1635.58 324.388C1596.23 324.388 1563.62 353.461 1558.07 391.281C1556.68 391.157 1555.29 391.077 1553.87 391.077C1526.8 391.077 1504.75 414.067 1504.14 442.613C1499.62 440.086 1494.42 438.638 1488.88 438.638C1471.54 438.638 1457.46 452.72 1457.46 470.052C1457.46 487.383 1475.2 506.386 1492.53 506.386C1639.42 506.859 1737.01 508.325 1883.39 507.37C1903.1 507.37 1921.12 498.025 1921.12 478.317C1921.12 458.61 1905.13 442.613 1885.42 442.613C1880.28 442.613 1875.4 443.705 1870.99 445.662C1862.99 432.414 1848.47 423.553 1831.87 423.553C1825.34 423.553 1819.11 424.939 1813.49 427.414C1810.36 407.307 1792.96 391.89 1771.98 391.89C1755.42 391.89 1741.09 401.487 1734.25 415.422C1728.13 411.8 1721.13 409.476 1713.67 408.851C1713.83 406.826 1713.92 404.796 1713.92 402.73C1713.92 359.49 1678.82 324.388 1635.58 324.388Z" fill="white"/>
<path d="M1395.7 598.374C1372.73 598.374 1353.7 615.34 1350.47 637.412C1349.66 637.34 1348.84 637.293 1348.02 637.293C1332.21 637.293 1319.35 650.71 1318.99 667.369C1316.35 665.894 1313.32 665.049 1310.09 665.049C1299.97 665.049 1291.75 673.267 1291.75 683.382C1291.75 693.496 1302.1 704.586 1312.22 704.586C1397.94 704.862 1454.89 705.718 1540.32 705.161C1551.82 705.161 1562.34 699.706 1562.34 688.205C1562.34 676.704 1553.01 667.369 1541.5 667.369C1538.51 667.369 1535.66 668.006 1533.08 669.148C1528.41 661.417 1519.94 656.245 1510.26 656.245C1506.44 656.245 1502.81 657.054 1499.53 658.499C1497.7 646.764 1487.55 637.768 1475.3 637.768C1465.64 637.768 1457.27 643.368 1453.28 651.5C1449.71 649.387 1445.63 648.03 1441.27 647.665C1441.37 646.483 1441.42 645.299 1441.42 644.094C1441.42 618.859 1420.93 598.374 1395.7 598.374Z" fill="white"/>
<path d="M1625.88 711.545C1578.29 711.545 1538.86 746.7 1532.16 792.432C1530.48 792.282 1528.79 792.186 1527.08 792.186C1494.34 792.186 1467.68 819.985 1466.95 854.502C1461.48 851.447 1455.19 849.696 1448.49 849.696C1427.53 849.696 1410.5 866.724 1410.5 887.682C1410.5 908.639 1431.94 931.617 1452.9 931.617C1630.52 932.189 1748.53 933.962 1925.53 932.807C1949.36 932.807 1971.16 921.507 1971.16 897.676C1971.16 873.846 1951.82 854.502 1927.99 854.502C1921.77 854.502 1915.88 855.823 1910.54 858.189C1900.86 842.17 1883.3 831.455 1863.24 831.455C1855.34 831.455 1847.81 833.132 1841.01 836.124C1837.22 811.81 1816.19 793.169 1790.82 793.169C1770.79 793.169 1753.46 804.773 1745.19 821.624C1737.79 817.244 1729.33 814.434 1720.31 813.677C1720.5 811.229 1720.61 808.774 1720.61 806.277C1720.61 753.99 1678.16 711.545 1625.88 711.545Z" fill="white"/>
<path d="M1485.4 1022.65C1468.97 1022.65 1455.36 1034.79 1453.04 1050.58C1452.47 1050.53 1451.88 1050.5 1451.29 1050.5C1439.99 1050.5 1430.78 1060.09 1430.53 1072.01C1428.64 1070.96 1426.47 1070.35 1424.16 1070.35C1416.92 1070.35 1411.04 1076.23 1411.04 1083.47C1411.04 1090.7 1418.45 1098.63 1425.68 1098.63C1487 1098.83 1527.75 1099.44 1588.86 1099.04C1597.08 1099.04 1604.61 1095.14 1604.61 1086.92C1604.61 1078.69 1597.93 1072.01 1589.7 1072.01C1587.56 1072.01 1585.52 1072.47 1583.68 1073.28C1580.34 1067.75 1574.28 1064.05 1567.35 1064.05C1564.62 1064.05 1562.02 1064.63 1559.68 1065.67C1558.37 1057.27 1551.11 1050.83 1542.35 1050.83C1535.43 1050.83 1529.45 1054.84 1526.59 1060.66C1524.04 1059.15 1521.12 1058.18 1518 1057.92C1518.07 1057.07 1518.11 1056.22 1518.11 1055.36C1518.11 1037.31 1503.45 1022.65 1485.4 1022.65Z" fill="white"/>
<path d="M1427.78 1148.76C1393.43 1148.76 1364.96 1174.14 1360.12 1207.16C1358.91 1207.05 1357.69 1206.98 1356.45 1206.98C1332.81 1206.98 1313.56 1227.05 1313.03 1251.97C1309.09 1249.77 1304.55 1248.5 1299.71 1248.5C1284.58 1248.5 1272.28 1260.8 1272.28 1275.93C1272.28 1291.06 1287.76 1307.65 1302.89 1307.65C1431.13 1308.06 1516.34 1309.34 1644.13 1308.51C1661.34 1308.51 1677.07 1300.35 1677.07 1283.14C1677.07 1265.94 1663.11 1251.97 1645.9 1251.97C1641.42 1251.97 1637.16 1252.93 1633.3 1254.63C1626.32 1243.07 1613.64 1235.33 1599.16 1235.33C1593.45 1235.33 1588.02 1236.54 1583.11 1238.7C1580.37 1221.15 1565.19 1207.69 1546.87 1207.69C1532.41 1207.69 1519.9 1216.07 1513.92 1228.23C1508.58 1225.07 1502.48 1223.04 1495.96 1222.5C1496.1 1220.73 1496.18 1218.96 1496.18 1217.15C1496.18 1179.4 1465.53 1148.76 1427.78 1148.76Z" fill="white"/>
</g>
<g clip-path="url(#clip1_360_107378)">
<path d="M1600 0H3200V1200H1600V0Z" fill="#559DCC"/>
<path d="M3174.32 -39.0533C3211.7 -39.0533 3242.67 -11.4405 3247.94 24.4804C3249.26 24.3632 3250.58 24.2874 3251.93 24.2874C3277.65 24.2874 3298.59 46.123 3299.16 73.2354C3303.46 70.8355 3308.39 69.4602 3313.66 69.4602C3330.12 69.4602 3343.5 82.8352 3343.5 99.2966C3343.5 115.758 3326.65 133.807 3310.19 133.807C3170.68 134.256 3077.98 135.649 2938.95 134.742C2920.24 134.742 2903.12 125.865 2903.12 107.147C2903.12 88.4292 2918.31 73.2354 2937.03 73.2354C2941.91 73.2354 2946.54 74.2725 2950.73 76.1311C2958.33 63.5487 2972.12 55.1319 2987.88 55.1319C2994.09 55.1319 3000 56.4491 3005.34 58.7998C3008.32 39.7018 3024.84 25.0596 3044.77 25.0596C3060.5 25.0596 3074.11 34.1744 3080.61 47.41C3086.42 43.9696 3093.07 41.7625 3100.15 41.1682C3100 39.2449 3099.92 37.3167 3099.92 35.3554C3099.92 -5.71396 3133.26 -39.0533 3174.32 -39.0533Z" fill="white"/>
<path d="M3083.14 174.814C3121.9 174.814 3154.02 203.45 3159.49 240.703C3160.85 240.581 3162.23 240.503 3163.62 240.503C3190.29 240.503 3212.01 263.148 3212.61 291.266C3217.06 288.777 3222.18 287.351 3227.64 287.351C3244.72 287.351 3258.59 301.221 3258.59 318.293C3258.59 335.365 3241.12 354.083 3224.05 354.083C3079.36 354.549 2983.23 355.993 2839.04 355.052C2819.63 355.052 2801.88 345.847 2801.88 326.435C2801.88 307.023 2817.63 291.266 2837.05 291.266C2842.11 291.266 2846.91 292.341 2851.26 294.269C2859.14 281.22 2873.44 272.491 2889.79 272.491C2896.22 272.491 2902.36 273.857 2907.9 276.295C2910.98 256.489 2928.12 241.304 2948.78 241.304C2965.1 241.304 2979.21 250.756 2985.95 264.483C2991.98 260.915 2998.87 258.626 3006.22 258.01C3006.06 256.015 3005.97 254.015 3005.97 251.981C3005.97 209.389 3040.55 174.814 3083.14 174.814Z" fill="white"/>
<path d="M2894.07 361.564C2927.27 361.564 2954.77 386.087 2959.45 417.987C2960.62 417.883 2961.8 417.816 2962.99 417.816C2985.83 417.816 3004.43 437.208 3004.94 461.286C3008.75 459.155 3013.14 457.933 3017.82 457.933C3032.43 457.933 3044.31 469.811 3044.31 484.431C3044.31 499.05 3029.35 515.079 3014.74 515.079C2890.84 515.478 2808.52 516.714 2685.04 515.909C2668.42 515.909 2653.22 508.026 2653.22 491.402C2653.22 474.779 2666.71 461.286 2683.33 461.286C2687.67 461.286 2691.78 462.207 2695.51 463.858C2702.25 452.683 2714.5 445.209 2728.5 445.208C2734.01 445.208 2739.26 446.378 2744 448.466C2746.65 431.505 2761.32 418.502 2779.02 418.502C2792.99 418.502 2805.08 426.596 2810.85 438.351C2816.01 435.295 2821.91 433.335 2828.2 432.808C2828.07 431.1 2827.99 429.387 2827.99 427.645C2827.99 391.172 2857.6 361.564 2894.07 361.564Z" fill="white"/>
<path d="M3200.17 544.208C3231.04 544.208 3256.62 567.014 3260.97 596.682C3262.06 596.586 3263.15 596.523 3264.26 596.523C3285.5 596.523 3302.8 614.557 3303.27 636.95C3306.82 634.968 3310.9 633.832 3315.25 633.832C3328.84 633.832 3339.89 644.879 3339.89 658.475C3339.89 672.071 3325.98 686.978 3312.38 686.978C3197.16 687.349 3120.6 688.499 3005.77 687.75C2990.31 687.75 2976.17 680.419 2976.17 664.959C2976.17 649.499 2988.72 636.95 3004.18 636.95C3008.21 636.95 3012.03 637.807 3015.5 639.342C3021.77 628.95 3033.16 621.998 3046.18 621.998C3051.31 621.998 3056.19 623.086 3060.6 625.028C3063.06 609.254 3076.71 597.161 3093.16 597.161C3106.16 597.161 3117.4 604.689 3122.77 615.62C3127.57 612.779 3133.05 610.956 3138.91 610.465C3138.78 608.877 3138.71 607.284 3138.71 605.664C3138.71 571.744 3166.25 544.208 3200.17 544.208Z" fill="white"/>
<path d="M2843.26 800.447C2864.91 800.447 2882.85 816.442 2885.9 837.25C2886.66 837.182 2887.43 837.138 2888.21 837.138C2903.11 837.138 2915.24 849.787 2915.57 865.492C2918.06 864.102 2920.92 863.305 2923.97 863.305C2933.5 863.305 2941.25 871.053 2941.25 880.588C2941.25 890.123 2931.5 900.578 2921.96 900.578C2841.15 900.839 2787.45 901.645 2706.92 901.12C2696.07 901.12 2686.16 895.978 2686.16 885.135C2686.16 874.293 2694.96 865.492 2705.8 865.492C2708.63 865.492 2711.31 866.092 2713.74 867.169C2718.14 859.881 2726.13 855.005 2735.26 855.005C2738.85 855.005 2742.28 855.768 2745.37 857.13C2747.1 846.067 2756.67 837.585 2768.21 837.585C2777.32 837.585 2785.21 842.865 2788.97 850.532C2792.34 848.539 2796.19 847.261 2800.29 846.916C2800.2 845.802 2800.15 844.685 2800.15 843.549C2800.15 819.759 2819.47 800.447 2843.26 800.447Z" fill="white"/>
<path d="M2986.24 907.494C2995.9 907.494 3003.9 914.629 3005.26 923.911C3005.6 923.881 3005.94 923.861 3006.29 923.861C3012.94 923.861 3018.35 929.503 3018.5 936.509C3019.61 935.889 3020.88 935.534 3022.24 935.534C3026.5 935.534 3029.95 938.99 3029.95 943.243C3029.95 947.497 3025.6 952.161 3021.35 952.161C2985.3 952.277 2961.34 952.636 2925.42 952.402C2920.58 952.402 2916.16 950.108 2916.16 945.272C2916.16 940.435 2920.08 936.509 2924.92 936.509C2926.18 936.509 2927.38 936.777 2928.46 937.257C2930.43 934.006 2933.99 931.831 2938.06 931.831C2939.67 931.831 2941.19 932.172 2942.57 932.779C2943.34 927.844 2947.61 924.061 2952.76 924.061C2956.83 924.061 2960.34 926.416 2962.02 929.836C2963.52 928.947 2965.24 928.377 2967.07 928.223C2967.03 927.726 2967.01 927.228 2967.01 926.721C2967.01 916.109 2975.63 907.494 2986.24 907.494Z" fill="white"/>
<path d="M3131.88 982.152C3167.37 982.152 3196.78 1008.37 3201.78 1042.48C3203.04 1042.37 3204.3 1042.3 3205.57 1042.3C3229.99 1042.3 3249.88 1063.04 3250.43 1088.78C3254.51 1086.5 3259.19 1085.2 3264.19 1085.2C3279.83 1085.2 3292.53 1097.9 3292.53 1113.53C3292.53 1129.16 3276.53 1146.3 3260.9 1146.3C3128.42 1146.73 3040.39 1148.05 2908.37 1147.19C2890.59 1147.19 2874.34 1138.76 2874.34 1120.99C2874.34 1103.21 2888.76 1088.78 2906.54 1088.78C2911.17 1088.78 2915.57 1089.77 2919.55 1091.53C2926.77 1079.58 2939.87 1071.59 2954.83 1071.59C2960.73 1071.59 2966.34 1072.84 2971.41 1075.07C2974.24 1056.94 2989.93 1043.03 3008.85 1043.03C3023.79 1043.03 3036.72 1051.69 3042.89 1064.26C3048.41 1060.99 3054.71 1058.9 3061.44 1058.33C3061.3 1056.5 3061.22 1054.67 3061.22 1052.81C3061.22 1013.81 3092.88 982.152 3131.88 982.152Z" fill="white"/>
<path d="M2619.68 188.9C2606.3 188.9 2595.21 198.787 2593.32 211.649C2592.85 211.607 2592.38 211.58 2591.9 211.58C2582.69 211.58 2575.19 219.398 2574.98 229.106C2573.45 228.246 2571.68 227.754 2569.79 227.754C2563.9 227.754 2559.11 232.543 2559.11 238.437C2559.11 244.331 2565.14 250.793 2571.03 250.793C2620.99 250.954 2654.18 251.453 2703.96 251.128C2710.66 251.128 2716.79 247.95 2716.79 241.248C2716.79 234.546 2711.35 229.106 2704.65 229.106C2702.9 229.106 2701.24 229.477 2699.74 230.142C2697.02 225.637 2692.08 222.624 2686.44 222.624C2684.22 222.624 2682.1 223.095 2680.19 223.937C2679.12 217.099 2673.21 211.856 2666.07 211.856C2660.44 211.856 2655.56 215.12 2653.24 219.859C2651.16 218.627 2648.78 217.837 2646.24 217.624C2646.29 216.935 2646.32 216.245 2646.32 215.542C2646.32 200.838 2634.39 188.9 2619.68 188.9Z" fill="white"/>
<path d="M2713.79 522.376C2701.09 522.376 2690.58 531.753 2688.79 543.952C2688.34 543.913 2687.89 543.887 2687.43 543.887C2678.7 543.887 2671.59 551.302 2671.39 560.51C2669.93 559.695 2668.26 559.228 2666.47 559.228C2660.88 559.228 2656.33 563.77 2656.33 569.361C2656.33 574.951 2662.05 581.081 2667.65 581.081C2715.03 581.233 2746.51 581.706 2793.72 581.398C2800.08 581.398 2805.89 578.384 2805.89 572.027C2805.89 565.67 2800.73 560.51 2794.38 560.51C2792.72 560.51 2791.15 560.862 2789.72 561.493C2787.14 557.22 2782.46 554.362 2777.1 554.362C2775 554.362 2772.99 554.809 2771.17 555.607C2770.16 549.122 2764.55 544.149 2757.79 544.149C2752.44 544.149 2747.82 547.245 2745.61 551.74C2743.64 550.571 2741.38 549.821 2738.98 549.62C2739.03 548.966 2739.06 548.312 2739.06 547.646C2739.06 533.698 2727.74 522.376 2713.79 522.376Z" fill="white"/>
<path d="M2505.11 587.7C2460.76 587.7 2424.02 620.46 2417.77 663.077C2416.21 662.938 2414.63 662.848 2413.04 662.848C2382.53 662.848 2357.68 688.753 2357 720.92C2351.9 718.072 2346.05 716.441 2339.8 716.441C2320.27 716.441 2304.4 732.309 2304.4 751.839C2304.4 771.369 2324.38 792.782 2343.91 792.782C2509.43 793.315 2619.4 794.967 2784.35 793.891C2806.56 793.891 2826.87 783.36 2826.87 761.153C2826.87 738.946 2808.84 720.92 2786.64 720.92C2780.85 720.92 2775.35 722.15 2770.37 724.355C2761.36 709.427 2745 699.442 2726.3 699.442C2718.94 699.442 2711.92 701.004 2705.58 703.793C2702.05 681.135 2682.45 663.764 2658.81 663.764C2640.15 663.764 2624 674.578 2616.29 690.28C2609.39 686.199 2601.51 683.58 2593.1 682.875C2593.28 680.593 2593.38 678.306 2593.38 675.979C2593.38 627.254 2553.83 587.7 2505.11 587.7Z" fill="white"/>
<path d="M2502.32 907.494C2460.43 907.494 2425.71 938.447 2419.8 978.712C2418.33 978.581 2416.84 978.496 2415.33 978.496C2386.51 978.496 2363.03 1002.97 2362.39 1033.36C2357.57 1030.67 2352.04 1029.13 2346.13 1029.13C2327.68 1029.13 2312.69 1044.13 2312.69 1062.58C2312.69 1081.03 2331.57 1101.26 2350.02 1101.26C2506.41 1101.77 2610.31 1103.33 2766.16 1102.31C2787.14 1102.31 2806.33 1092.36 2806.33 1071.38C2806.33 1050.4 2789.3 1033.36 2768.32 1033.36C2762.85 1033.36 2757.66 1034.53 2752.96 1036.61C2744.44 1022.51 2728.98 1013.07 2711.31 1013.07C2704.36 1013.07 2697.73 1014.55 2691.74 1017.18C2688.41 995.775 2669.89 979.361 2647.55 979.361C2629.91 979.361 2614.66 989.579 2607.37 1004.42C2600.86 1000.56 2593.41 998.085 2585.47 997.418C2585.63 995.263 2585.73 993.101 2585.73 990.902C2585.73 944.866 2548.36 907.494 2502.32 907.494Z" fill="white"/>
<path d="M2774.55 1108.85C2761.65 1108.85 2750.96 1118.38 2749.15 1130.77C2748.69 1130.73 2748.23 1130.7 2747.77 1130.7C2738.89 1130.7 2731.67 1138.24 2731.47 1147.59C2729.99 1146.77 2728.28 1146.29 2726.47 1146.29C2720.79 1146.29 2716.17 1150.91 2716.17 1156.59C2716.17 1162.27 2721.98 1168.5 2727.66 1168.5C2775.81 1168.65 2807.79 1169.13 2855.77 1168.82C2862.23 1168.82 2868.14 1165.76 2868.14 1159.3C2868.14 1152.84 2862.89 1147.59 2856.43 1147.59C2854.75 1147.59 2853.15 1147.95 2851.7 1148.59C2849.08 1144.25 2844.32 1141.35 2838.88 1141.35C2836.74 1141.35 2834.7 1141.8 2832.86 1142.61C2831.83 1136.02 2826.13 1130.97 2819.25 1130.97C2813.83 1130.97 2809.13 1134.12 2806.89 1138.68C2804.88 1137.5 2802.59 1136.73 2800.14 1136.53C2800.19 1135.87 2800.22 1135.2 2800.22 1134.52C2800.22 1120.35 2788.72 1108.85 2774.55 1108.85Z" fill="white"/>
<path d="M2556.49 1175.12C2520.24 1175.12 2490.2 1201.9 2485.1 1236.74C2483.82 1236.63 2482.53 1236.55 2481.23 1236.55C2456.29 1236.55 2435.98 1257.73 2435.42 1284.02C2431.25 1281.7 2426.47 1280.36 2421.36 1280.36C2405.39 1280.36 2392.42 1293.33 2392.42 1309.3C2392.42 1325.26 2408.76 1342.77 2424.72 1342.77C2560.03 1343.2 2649.92 1344.55 2784.76 1343.67C2802.91 1343.67 2819.52 1335.07 2819.52 1316.91C2819.52 1298.76 2804.78 1284.02 2786.63 1284.02C2781.9 1284.02 2777.4 1285.03 2773.34 1286.83C2765.97 1274.63 2752.59 1266.47 2737.31 1266.47C2731.29 1266.47 2725.55 1267.74 2720.37 1270.02C2717.49 1251.5 2701.46 1237.3 2682.14 1237.3C2666.88 1237.3 2653.68 1246.14 2647.38 1258.98C2641.74 1255.64 2635.3 1253.5 2628.43 1252.92C2628.57 1251.06 2628.65 1249.19 2628.65 1247.29C2628.65 1207.46 2596.32 1175.12 2556.49 1175.12Z" fill="white"/>
<path d="M2470.2 -29.1179C2507.26 -29.1179 2537.96 -1.74342 2543.18 33.8674C2544.49 33.7512 2545.8 33.676 2547.14 33.676C2572.63 33.676 2593.39 55.3231 2593.96 82.2014C2598.22 79.8222 2603.11 78.4588 2608.34 78.4588C2624.66 78.4588 2637.92 91.7184 2637.92 108.038C2637.92 124.357 2621.22 142.25 2604.9 142.25C2466.59 142.695 2374.69 144.076 2236.86 143.177C2218.31 143.177 2201.34 134.377 2201.34 115.82C2201.34 97.264 2216.4 82.2014 2234.95 82.2014C2239.79 82.2014 2244.38 83.2296 2248.54 85.0721C2256.08 72.5984 2269.75 64.2542 2285.37 64.2542C2291.52 64.2542 2297.39 65.5601 2302.68 67.8904C2305.63 48.9574 2322.01 34.4415 2341.77 34.4415C2357.36 34.4415 2370.85 43.4777 2377.3 56.599C2383.06 53.1883 2389.65 51.0003 2396.67 50.4111C2396.52 48.5044 2396.44 46.5929 2396.44 44.6484C2396.44 3.93364 2429.49 -29.1179 2470.2 -29.1179Z" fill="white"/>
<path d="M2451.73 328.026C2477.02 328.026 2497.97 346.71 2501.54 371.015C2502.43 370.935 2503.33 370.884 2504.24 370.884C2521.64 370.884 2535.81 385.658 2536.2 404.003C2539.1 402.38 2542.44 401.449 2546.01 401.449C2557.15 401.449 2566.2 410.499 2566.2 421.637C2566.2 432.775 2554.8 444.987 2543.66 444.987C2449.26 445.291 2386.54 446.234 2292.47 445.62C2279.81 445.62 2268.22 439.614 2268.22 426.949C2268.22 414.284 2278.5 404.003 2291.17 404.003C2294.47 404.003 2297.61 404.705 2300.44 405.963C2305.58 397.449 2314.92 391.754 2325.58 391.754C2329.78 391.754 2333.78 392.645 2337.39 394.236C2339.41 381.314 2350.59 371.406 2364.07 371.406C2374.71 371.406 2383.92 377.574 2388.32 386.529C2392.25 384.201 2396.75 382.708 2401.54 382.306C2401.44 381.005 2401.38 379.7 2401.38 378.373C2401.38 350.584 2423.94 328.026 2451.73 328.026Z" fill="white"/>
<path d="M2297.99 452.023C2325.79 452.023 2348.83 472.559 2352.74 499.274C2353.72 499.187 2354.71 499.131 2355.71 499.131C2374.84 499.131 2390.41 515.37 2390.84 535.534C2394.03 533.749 2397.7 532.726 2401.62 532.726C2413.86 532.726 2423.81 542.673 2423.81 554.916C2423.81 567.158 2411.28 580.582 2399.04 580.582C2295.28 580.916 2226.35 581.951 2122.95 581.277C2109.03 581.277 2096.29 574.675 2096.29 560.754C2096.29 546.834 2107.59 535.534 2121.51 535.534C2125.14 535.534 2128.59 536.305 2131.71 537.687C2137.36 528.33 2147.62 522.07 2159.34 522.07C2163.95 522.07 2168.35 523.05 2172.32 524.798C2174.53 510.594 2186.82 499.705 2201.64 499.705C2213.34 499.705 2223.47 506.484 2228.3 516.327C2232.62 513.768 2237.56 512.127 2242.83 511.685C2242.72 510.255 2242.66 508.821 2242.66 507.362C2242.66 476.818 2267.45 452.023 2297.99 452.023Z" fill="white"/>
<path d="M2191.93 956.777C2217.24 956.777 2238.21 975.475 2241.78 999.799C2242.67 999.72 2243.57 999.669 2244.48 999.669C2261.9 999.669 2276.08 1014.45 2276.46 1032.81C2279.37 1031.19 2282.72 1030.26 2286.28 1030.26C2297.43 1030.26 2306.49 1039.31 2306.49 1050.46C2306.49 1061.61 2295.08 1073.83 2283.94 1073.83C2189.46 1074.14 2126.69 1075.08 2032.55 1074.46C2019.87 1074.46 2008.28 1068.45 2008.28 1055.78C2008.28 1043.1 2018.57 1032.81 2031.24 1032.81C2034.55 1032.81 2037.68 1033.52 2040.52 1034.78C2045.67 1026.25 2055.01 1020.56 2065.68 1020.56C2069.88 1020.56 2073.89 1021.45 2077.5 1023.04C2079.52 1010.11 2090.71 1000.19 2104.2 1000.19C2114.85 1000.19 2124.07 1006.36 2128.47 1015.33C2132.41 1013 2136.9 1011.5 2141.7 1011.1C2141.6 1009.8 2141.54 1008.49 2141.54 1007.16C2141.54 979.353 2164.12 956.777 2191.93 956.777Z" fill="white"/>
<path d="M2290.99 1154.81C2311.78 1154.81 2329.01 1170.18 2331.94 1190.16C2332.68 1190.09 2333.42 1190.05 2334.16 1190.05C2348.47 1190.05 2360.12 1202.2 2360.44 1217.28C2362.83 1215.95 2365.58 1215.18 2368.51 1215.18C2377.67 1215.18 2385.11 1222.62 2385.11 1231.78C2385.11 1240.94 2375.74 1250.98 2366.58 1250.98C2288.96 1251.23 2237.4 1252 2160.05 1251.5C2149.64 1251.5 2140.11 1246.56 2140.11 1236.15C2140.11 1225.74 2148.56 1217.28 2158.98 1217.28C2161.69 1217.28 2164.27 1217.86 2166.6 1218.89C2170.83 1211.89 2178.5 1207.21 2187.27 1207.21C2190.72 1207.21 2194.01 1207.94 2196.98 1209.25C2198.64 1198.63 2207.83 1190.48 2218.92 1190.48C2227.67 1190.48 2235.24 1195.55 2238.86 1202.92C2242.09 1201 2245.79 1199.77 2249.73 1199.44C2249.64 1198.37 2249.6 1197.3 2249.6 1196.21C2249.6 1173.36 2268.14 1154.81 2290.99 1154.81Z" fill="white"/>
<path d="M1926.74 -71.5333C1889.75 -71.5333 1859.1 -44.2064 1853.88 -8.65755C1852.58 -8.77352 1851.27 -8.8486 1849.93 -8.8486C1824.49 -8.8486 1803.76 12.7609 1803.19 39.5925C1798.94 37.2174 1794.06 35.8564 1788.84 35.8564C1772.55 35.8564 1759.31 49.0929 1759.31 65.3838C1759.31 81.6747 1775.98 99.5367 1792.27 99.5368C1930.34 99.9813 2022.08 101.359 2159.67 100.462C2178.19 100.462 2195.14 91.6772 2195.14 73.1531C2195.14 54.6289 2180.1 39.5925 2161.58 39.5925C2156.75 39.5925 2152.16 40.6189 2148.01 42.4582C2140.49 30.0061 2126.84 21.6765 2111.24 21.6765C2105.1 21.6765 2099.25 22.9801 2093.97 25.3064C2091.02 6.4062 2074.67 -8.08441 2054.95 -8.08441C2039.38 -8.08441 2025.91 0.936049 2019.48 14.0346C2013.73 10.6298 2007.15 8.44557 2000.14 7.85741C2000.29 5.95405 2000.37 4.04581 2000.37 2.10476C2000.37 -38.5392 1967.38 -71.5333 1926.74 -71.5333Z" fill="white"/>
<path d="M2083.55 149.675C2046.59 149.675 2015.97 176.979 2010.76 212.499C2009.45 212.383 2008.14 212.308 2006.81 212.308C1981.38 212.308 1960.67 233.9 1960.11 260.71C1955.86 258.336 1950.98 256.977 1945.77 256.977C1929.49 256.977 1916.27 270.202 1916.27 286.48C1916.27 302.757 1932.92 320.605 1949.2 320.605C2087.15 321.049 2178.81 322.426 2316.29 321.529C2334.8 321.529 2351.73 312.752 2351.73 294.243C2351.73 275.734 2336.71 260.71 2318.2 260.71C2313.37 260.71 2308.79 261.735 2304.64 263.573C2297.13 251.131 2283.49 242.808 2267.91 242.808C2261.77 242.808 2255.92 244.111 2250.64 246.435C2247.7 227.55 2231.36 213.072 2211.66 213.072C2196.1 213.072 2182.64 222.085 2176.22 235.173C2170.47 231.771 2163.9 229.588 2156.89 229C2157.04 227.099 2157.13 225.192 2157.13 223.252C2157.13 182.642 2124.16 149.675 2083.55 149.675Z" fill="white"/>
<path d="M1879.87 407.382C1850.9 407.382 1826.89 428.786 1822.81 456.629C1821.79 456.538 1820.76 456.479 1819.72 456.479C1799.78 456.479 1783.55 473.405 1783.1 494.421C1779.77 492.561 1775.95 491.495 1771.87 491.495C1759.11 491.495 1748.74 501.862 1748.74 514.622C1748.74 527.382 1761.79 541.372 1774.55 541.372C1882.7 541.72 1954.55 542.8 2062.31 542.096C2076.82 542.096 2090.09 535.216 2090.09 520.707C2090.09 506.198 2078.32 494.421 2063.81 494.421C2060.02 494.421 2056.43 495.225 2053.18 496.665C2047.29 486.912 2036.6 480.388 2024.39 480.388C2019.58 480.388 2014.99 481.409 2010.85 483.231C2008.55 468.428 1995.74 457.078 1980.29 457.078C1968.1 457.078 1957.55 464.143 1952.51 474.403C1948.01 471.736 1942.86 470.025 1937.36 469.564C1937.48 468.074 1937.55 466.579 1937.55 465.059C1937.55 433.224 1911.7 407.382 1879.87 407.382Z" fill="white"/>
<path d="M1971.8 724.144C1932.89 724.144 1900.65 752.887 1895.17 790.279C1893.8 790.157 1892.42 790.078 1891.02 790.078C1864.25 790.078 1842.45 812.807 1841.85 841.03C1837.38 838.532 1832.24 837.1 1826.76 837.1C1809.62 837.1 1795.7 851.023 1795.7 868.158C1795.7 885.293 1813.23 904.081 1830.37 904.081C1975.59 904.549 2072.08 905.998 2216.8 905.054C2236.29 905.054 2254.11 895.814 2254.11 876.33C2254.11 856.845 2238.29 841.03 2218.81 841.03C2213.73 841.03 2208.91 842.109 2204.54 844.044C2196.63 830.946 2182.28 822.185 2165.87 822.185C2159.41 822.185 2153.26 823.556 2147.7 826.003C2144.6 806.123 2127.4 790.882 2106.66 790.882C2090.28 790.882 2076.11 800.37 2069.35 814.147C2063.3 810.566 2056.38 808.268 2049.01 807.65C2049.16 805.648 2049.25 803.641 2049.25 801.599C2049.25 758.848 2014.55 724.144 1971.8 724.144Z" fill="white"/>
<path d="M1876.56 1015.6C1859.27 1015.6 1844.93 1028.38 1842.49 1045.01C1841.89 1044.95 1841.27 1044.92 1840.65 1044.92C1828.75 1044.92 1819.05 1055.02 1818.79 1067.57C1816.8 1066.46 1814.52 1065.82 1812.08 1065.82C1804.46 1065.82 1798.27 1072.01 1798.27 1079.63C1798.27 1087.25 1806.07 1095.6 1813.68 1095.6C1878.25 1095.81 1921.15 1096.45 1985.49 1096.03C1994.15 1096.03 2002.08 1091.93 2002.08 1083.26C2002.08 1074.6 1995.05 1067.57 1986.38 1067.57C1984.12 1067.57 1981.98 1068.05 1980.04 1068.91C1976.52 1063.09 1970.14 1059.19 1962.85 1059.19C1959.97 1059.19 1957.24 1059.8 1954.77 1060.89C1953.39 1052.05 1945.74 1045.27 1936.52 1045.27C1929.24 1045.27 1922.94 1049.49 1919.93 1055.62C1917.24 1054.03 1914.17 1053 1910.89 1052.73C1910.96 1051.84 1911 1050.95 1911 1050.04C1911 1031.03 1895.57 1015.6 1876.56 1015.6Z" fill="white"/>
<path d="M1758.91 143.648C1781.8 143.648 1800.77 160.559 1804 182.557C1804.8 182.486 1805.62 182.439 1806.44 182.439C1822.19 182.439 1835.01 195.812 1835.37 212.416C1838 210.946 1841.02 210.104 1844.25 210.104C1854.33 210.104 1862.52 218.295 1862.52 228.376C1862.52 238.457 1852.2 249.511 1842.12 249.511C1756.68 249.786 1699.91 250.639 1614.77 250.083C1603.31 250.083 1592.82 244.647 1592.82 233.184C1592.82 221.721 1602.13 212.416 1613.59 212.416C1616.58 212.416 1619.41 213.051 1621.98 214.189C1626.64 206.483 1635.08 201.329 1644.73 201.329C1648.54 201.329 1652.16 202.136 1655.43 203.575C1657.25 191.879 1667.37 182.912 1679.57 182.912C1689.21 182.912 1697.54 188.494 1701.52 196.6C1705.08 194.493 1709.15 193.141 1713.49 192.777C1713.4 191.599 1713.34 190.419 1713.34 189.217C1713.34 164.066 1733.76 143.648 1758.91 143.648Z" fill="white"/>
<path d="M1564.42 324.388C1603.77 324.388 1636.38 353.461 1641.93 391.281C1643.32 391.157 1644.71 391.077 1646.13 391.077C1673.2 391.077 1695.25 414.067 1695.86 442.613C1700.38 440.086 1705.58 438.638 1711.12 438.638C1728.46 438.638 1742.54 452.72 1742.54 470.052C1742.54 487.383 1724.8 506.386 1707.47 506.386C1560.58 506.859 1462.99 508.325 1316.61 507.37C1296.9 507.37 1278.88 498.025 1278.88 478.317C1278.88 458.61 1294.87 442.613 1314.58 442.613C1319.72 442.613 1324.6 443.705 1329.01 445.662C1337.01 432.414 1351.53 423.552 1368.13 423.552C1374.66 423.552 1380.89 424.939 1386.51 427.414C1389.64 407.307 1407.04 391.89 1428.02 391.89C1444.58 391.89 1458.91 401.487 1465.75 415.422C1471.87 411.8 1478.87 409.476 1486.33 408.851C1486.17 406.826 1486.08 404.795 1486.08 402.73C1486.08 359.49 1521.18 324.388 1564.42 324.388Z" fill="white"/>
<path d="M1804.3 598.374C1827.27 598.374 1846.3 615.34 1849.53 637.412C1850.34 637.34 1851.16 637.293 1851.98 637.293C1867.79 637.293 1880.65 650.71 1881.01 667.369C1883.65 665.894 1886.68 665.049 1889.91 665.049C1900.03 665.049 1908.25 673.267 1908.25 683.382C1908.25 693.496 1897.9 704.586 1887.78 704.586C1802.06 704.862 1745.11 705.718 1659.68 705.161C1648.18 705.161 1637.66 699.706 1637.66 688.205C1637.66 676.704 1646.99 667.369 1658.5 667.369C1661.49 667.369 1664.34 668.006 1666.92 669.148C1671.59 661.417 1680.06 656.245 1689.74 656.245C1693.56 656.245 1697.19 657.054 1700.47 658.499C1702.3 646.764 1712.45 637.768 1724.7 637.768C1734.36 637.768 1742.73 643.368 1746.72 651.5C1750.29 649.387 1754.37 648.03 1758.73 647.665C1758.63 646.483 1758.58 645.299 1758.58 644.094C1758.58 618.859 1779.07 598.374 1804.3 598.374Z" fill="white"/>
<path d="M1574.12 711.545C1621.71 711.545 1661.14 746.7 1667.84 792.432C1669.52 792.282 1671.21 792.186 1672.92 792.186C1705.66 792.186 1732.32 819.985 1733.05 854.503C1738.52 851.447 1744.81 849.696 1751.51 849.696C1772.47 849.696 1789.5 866.724 1789.5 887.682C1789.5 908.639 1768.06 931.617 1747.1 931.617C1569.48 932.189 1451.47 933.962 1274.47 932.807C1250.64 932.807 1228.84 921.507 1228.84 897.676C1228.84 873.846 1248.18 854.503 1272.01 854.503C1278.23 854.503 1284.12 855.823 1289.46 858.189C1299.14 842.17 1316.7 831.455 1336.76 831.455C1344.66 831.455 1352.19 833.132 1358.99 836.124C1362.78 811.81 1383.81 793.169 1409.18 793.169C1429.21 793.169 1446.54 804.773 1454.81 821.624C1462.21 817.244 1470.67 814.434 1479.69 813.677C1479.5 811.229 1479.39 808.774 1479.39 806.277C1479.39 753.99 1521.84 711.545 1574.12 711.545Z" fill="white"/>
<path d="M1714.6 1022.65C1731.03 1022.65 1744.64 1034.79 1746.96 1050.58C1747.53 1050.53 1748.12 1050.5 1748.71 1050.5C1760.01 1050.5 1769.22 1060.09 1769.47 1072.01C1771.36 1070.96 1773.53 1070.35 1775.84 1070.35C1783.08 1070.35 1788.96 1076.23 1788.96 1083.46C1788.96 1090.7 1781.55 1098.63 1774.32 1098.63C1713 1098.83 1672.25 1099.44 1611.14 1099.04C1602.92 1099.04 1595.39 1095.14 1595.39 1086.92C1595.39 1078.69 1602.07 1072.01 1610.3 1072.01C1612.44 1072.01 1614.48 1072.47 1616.32 1073.28C1619.66 1067.75 1625.72 1064.05 1632.65 1064.05C1635.38 1064.05 1637.98 1064.63 1640.32 1065.67C1641.63 1057.27 1648.89 1050.83 1657.65 1050.83C1664.57 1050.83 1670.55 1054.84 1673.41 1060.66C1675.96 1059.15 1678.88 1058.18 1682 1057.92C1681.93 1057.07 1681.89 1056.22 1681.89 1055.36C1681.89 1037.31 1696.55 1022.65 1714.6 1022.65Z" fill="white"/>
<path d="M1772.22 1148.76C1806.57 1148.76 1835.04 1174.14 1839.88 1207.16C1841.09 1207.05 1842.31 1206.98 1843.55 1206.98C1867.19 1206.98 1886.44 1227.05 1886.97 1251.97C1890.91 1249.77 1895.45 1248.5 1900.29 1248.5C1915.43 1248.5 1927.72 1260.8 1927.72 1275.93C1927.72 1291.06 1912.24 1307.65 1897.11 1307.65C1768.87 1308.06 1683.66 1309.34 1555.87 1308.51C1538.66 1308.51 1522.93 1300.35 1522.93 1283.14C1522.93 1265.94 1536.89 1251.97 1554.1 1251.97C1558.58 1251.97 1562.84 1252.93 1566.7 1254.63C1573.68 1243.07 1586.36 1235.33 1600.84 1235.33C1606.55 1235.33 1611.98 1236.54 1616.89 1238.7C1619.63 1221.15 1634.81 1207.69 1653.13 1207.69C1667.59 1207.69 1680.1 1216.07 1686.08 1228.23C1691.42 1225.07 1697.52 1223.04 1704.04 1222.5C1703.9 1220.73 1703.82 1218.96 1703.82 1217.15C1703.82 1179.4 1734.47 1148.76 1772.22 1148.76Z" fill="white"/>
</g>
<defs>
<clipPath id="clip0_360_107378">
<rect width="1600" height="1200" fill="white"/>
</clipPath>
<clipPath id="clip1_360_107378">
<rect width="1600" height="1200" fill="white" transform="matrix(-1 0 0 1 3200 0)"/>
</clipPath>
</defs>
</svg>
