<svg width="75" height="75" fill="none" xmlns="http://www.w3.org/2000/svg"><path fill-rule="evenodd" clip-rule="evenodd" d="M12.918 7.544c16.865-2.863 33.494-2.939 49.965 0 5.28.904 8.669 4.22 9.693 9.268 3.232 15.898 3.232 31.872 0 47.77-.945 5.049-4.413 8.817-9.693 9.344-16.471 1.431-33.1 1.431-49.965 0-5.359-.452-9.141-4.22-9.772-9.343-1.813-15.899-2.207-31.873 0-47.771.71-5.049 4.492-8.44 9.772-9.268Z" fill="#000" fill-opacity=".102"/><path fill-rule="evenodd" clip-rule="evenodd" d="M11.263 3.928c16.865-2.863 33.494-2.938 49.965 0 5.28.904 8.748 4.22 9.693 9.268 3.232 15.899 3.232 31.872 0 47.77-.945 5.05-4.334 8.817-9.693 9.344-16.471 1.432-33.1 1.356-49.965 0-5.359-.452-9.142-4.22-9.693-9.343-1.892-15.899-2.286-31.872 0-47.77.71-5.05 4.413-8.44 9.693-9.269Z" fill="#E6E6E6"/><path fill-rule="evenodd" clip-rule="evenodd" d="M11.263 2.12c16.865-2.789 33.494-2.864 49.965 0 5.28.979 8.748 4.294 9.693 9.343 3.232 15.898 3.232 31.872 0 47.77-.945 5.049-4.334 8.816-9.693 9.268-16.471 1.507-33.1 1.432-49.965 0-5.359-.452-9.142-4.22-9.693-9.268-1.892-15.898-2.286-31.872 0-47.77.71-5.049 4.413-8.44 9.693-9.344Z" fill="#fff"/><path fill-rule="evenodd" clip-rule="evenodd" d="M14.968 6.791c15.131-2.562 30.026-2.637 44.842 0 4.729.829 7.802 3.843 8.748 8.364 2.837 14.24 2.837 28.557 0 42.798-.946 4.52-4.02 7.911-8.748 8.363-14.816 1.281-29.71 1.281-44.842 0-4.729-.452-8.196-3.767-8.67-8.363-1.733-14.241-2.048-28.557 0-42.798.631-4.596 3.941-7.535 8.67-8.364Z" fill="#E6E6E6"/><path fill-rule="evenodd" clip-rule="evenodd" d="M13.863 5.51c15.132-2.562 30.026-2.562 44.843 0 4.728.829 7.802 3.843 8.747 8.363 2.837 14.241 2.837 28.558 0 42.798-.945 4.521-4.019 7.987-8.747 8.364-14.817 1.28-29.711 1.28-44.843 0-4.728-.377-8.196-3.767-8.669-8.364-1.733-14.24-2.049-28.557 0-42.798.63-4.52 3.94-7.534 8.67-8.363Z" fill="#6DC300"/><path fill-rule="evenodd" clip-rule="evenodd" d="M13.863 2.647C28.995.085 43.89.009 58.706 2.647c4.728.828 7.802 3.842 8.747 8.363 2.837 14.241 2.837 28.557 0 42.798-.945 4.521-4.019 7.912-8.747 8.364-14.817 1.28-29.711 1.28-44.843 0-4.728-.452-8.196-3.768-8.669-8.364-1.733-14.316-2.049-28.557 0-42.798.63-4.596 3.94-7.61 8.67-8.363Z" fill="#C9FB06"/><path fill-rule="evenodd" clip-rule="evenodd" d="M14.18 3.023C29.073.462 43.81.462 58.39 3.023c4.65.83 7.724 3.768 8.591 8.213 2.916 14.09 2.837 28.18 0 42.27-.867 4.446-3.861 7.837-8.59 8.214-14.58 1.28-29.317 1.28-44.212 0-4.728-.377-8.038-3.692-8.59-8.213-1.655-14.09-1.97-28.18 0-42.27.63-4.446 3.94-7.46 8.59-8.214Z" fill="#C5F806"/><path fill-rule="evenodd" clip-rule="evenodd" d="M14.495 3.4C29.232.914 43.733.914 58.076 3.4c4.65.829 7.645 3.767 8.512 8.138 2.837 13.864 2.758 27.803 0 41.667-.867 4.446-3.862 7.761-8.512 8.138-14.343 1.28-28.844 1.28-43.581 0-4.65-.377-7.96-3.692-8.511-8.138-1.655-13.864-1.97-27.803 0-41.667.63-4.446 3.94-7.384 8.51-8.138Z" fill="#C0F605"/><path fill-rule="evenodd" clip-rule="evenodd" d="M14.81 3.777c14.501-2.411 28.844-2.486 43.03 0 4.492.829 7.487 3.692 8.354 8.062 2.758 13.714 2.758 27.352 0 41.065-.867 4.37-3.783 7.61-8.354 8.063-14.186 1.205-28.529 1.205-43.03 0-4.57-.377-7.88-3.617-8.432-8.063-1.576-13.713-1.892-27.351 0-41.065.63-4.37 3.861-7.308 8.432-8.062Z" fill="#BCF305"/><path fill-rule="evenodd" clip-rule="evenodd" d="M15.125 4.154c14.264-2.411 28.45-2.411 42.4 0 4.491.829 7.407 3.692 8.274 7.912 2.758 13.562 2.68 27.05 0 40.612-.867 4.22-3.783 7.46-8.275 7.837-13.949 1.28-28.135 1.28-42.399 0-4.57-.377-7.802-3.542-8.275-7.837-1.576-13.562-1.97-27.05 0-40.612.552-4.295 3.783-7.158 8.275-7.912Z" fill="#B7F004"/><path fill-rule="evenodd" clip-rule="evenodd" d="M15.362 4.53c14.106-2.336 28.056-2.41 41.847 0 4.413.829 7.33 3.617 8.196 7.836 2.68 13.337 2.6 26.674 0 40.01-.867 4.22-3.704 7.385-8.196 7.761-13.791 1.206-27.74 1.206-41.847 0-4.414-.376-7.645-3.541-8.118-7.76-1.576-13.337-1.891-26.674 0-40.01.63-4.22 3.704-7.083 8.118-7.837Z" fill="#B3EE04"/><path fill-rule="evenodd" clip-rule="evenodd" d="M15.677 4.982c13.95-2.411 27.662-2.411 41.296 0 4.334.754 7.171 3.542 8.038 7.686 2.601 13.11 2.601 26.221 0 39.407-.867 4.144-3.704 7.309-8.038 7.685-13.634 1.206-27.347 1.13-41.296 0-4.413-.376-7.487-3.466-8.038-7.685-1.498-13.186-1.813-26.297 0-39.407.63-4.22 3.704-7.008 8.038-7.686Z" fill="#AEEB03"/><path fill-rule="evenodd" clip-rule="evenodd" d="M15.992 5.359c13.713-2.336 27.268-2.336 40.665 0 4.256.753 7.093 3.466 7.881 7.535 2.68 12.96 2.6 25.92 0 38.88-.788 4.068-3.546 7.157-7.88 7.61-13.398 1.13-26.953 1.13-40.666 0-4.335-.377-7.408-3.466-7.88-7.61-1.577-12.96-1.892-25.92 0-38.88.55-4.145 3.624-6.857 7.88-7.535Z" fill="#AAE903"/><path fill-rule="evenodd" clip-rule="evenodd" d="M16.308 5.736c13.476-2.26 26.873-2.336 40.035 0 4.255.753 7.013 3.39 7.802 7.46 2.6 12.733 2.521 25.543 0 38.276-.788 4.07-3.547 7.083-7.802 7.46-13.162 1.205-26.559 1.13-40.035 0-4.256-.377-7.33-3.39-7.802-7.46-1.498-12.733-1.813-25.543 0-38.277.551-4.068 3.546-6.781 7.802-7.46Z" fill="#A5E602"/><path fill-rule="evenodd" clip-rule="evenodd" d="M16.622 6.113c13.319-2.26 26.401-2.26 39.483 0 4.098.753 6.857 3.39 7.645 7.384 2.522 12.583 2.522 25.091 0 37.674-.788 3.994-3.468 7.008-7.645 7.384-13.082 1.13-26.164 1.13-39.483 0-4.256-.376-7.25-3.315-7.723-7.384-1.498-12.583-1.734-25.09 0-37.674.552-4.069 3.546-6.706 7.723-7.384Z" fill="#A1E302"/><path fill-rule="evenodd" clip-rule="evenodd" d="M16.937 6.49c13.083-2.185 26.007-2.26 38.853 0 4.098.753 6.778 3.315 7.566 7.233 2.522 12.433 2.443 24.79 0 37.223-.788 3.842-3.468 6.856-7.566 7.233-12.846 1.13-25.77 1.055-38.853 0-4.176-.377-7.171-3.315-7.644-7.233-1.419-12.433-1.734-24.79 0-37.223.63-3.918 3.546-6.555 7.644-7.233Z" fill="#9CE101"/><path fill-rule="evenodd" clip-rule="evenodd" d="M17.174 6.867c12.925-2.185 25.692-2.185 38.301 0 4.02.753 6.699 3.315 7.487 7.158 2.443 12.206 2.443 24.413 0 36.62-.788 3.842-3.389 6.78-7.487 7.082-12.61 1.13-25.376 1.13-38.3 0-4.02-.301-6.936-3.24-7.409-7.083-1.418-12.206-1.734-24.413 0-36.619.552-3.918 3.389-6.48 7.408-7.158Z" fill="#98DE01"/><path fill-rule="evenodd" clip-rule="evenodd" d="M13.864 2.647C28.995.085 43.89.009 58.706 2.647c4.729.828 7.802 3.842 8.748 8.363a114.698 114.698 0 0 1 2.128 19.365C41.526 19.449 22.69 48.609 3.776 30.224c.08-6.405.473-12.81 1.419-19.214.63-4.596 3.94-7.61 8.669-8.363Z" fill="#fff" fill-opacity=".29"/><path fill-rule="evenodd" clip-rule="evenodd" d="M13.39 4.605c3.231 0 5.91 2.487 5.91 5.652 0 3.089-2.679 5.65-5.91 5.65-3.231 0-5.91-2.561-5.91-5.65 0-3.165 2.679-5.652 5.91-5.652ZM22.454 2.195c1.576 0 2.916 1.28 2.916 2.788 0 1.582-1.34 2.788-2.916 2.788-1.655 0-2.995-1.206-2.995-2.788 0-1.507 1.34-2.788 2.995-2.788ZM60.046 54.035c1.97 0 3.547 1.507 3.547 3.39 0 1.884-1.576 3.391-3.547 3.391-1.97 0-3.546-1.507-3.546-3.39 0-1.884 1.576-3.391 3.546-3.391Z" fill="#fff"/><path clip-rule="evenodd" d="M41.21 14.476c1.892.377 3.705 1.13 5.36 2.11l2.994-2.864c.552-.452 1.34-.452 1.813 0l3.783 3.542a1.33 1.33 0 0 1 0 1.808l-2.995 2.788a17.718 17.718 0 0 1 2.285 5.124h4.256c.71 0 1.261.602 1.261 1.28v5.049c0 .678-.551 1.206-1.26 1.206h-4.178c-.473 1.883-1.182 3.616-2.206 5.199l2.994 2.863c.473.452.473 1.28 0 1.733l-3.782 3.541a1.236 1.236 0 0 1-1.813 0l-2.916-2.788a18.972 18.972 0 0 1-5.438 2.185v3.994c0 .678-.551 1.28-1.26 1.28h-5.28c-.71 0-1.34-.602-1.34-1.28v-3.994c-1.892-.376-3.705-1.13-5.36-2.11l-2.994 2.864c-.552.527-1.34.527-1.813 0l-3.783-3.541c-.473-.528-.473-1.281 0-1.734l2.995-2.863a17.717 17.717 0 0 1-2.285-5.123h-4.256c-.71 0-1.261-.603-1.261-1.281v-5.049c0-.678.552-1.205 1.26-1.205h4.178c.473-1.884 1.182-3.617 2.206-5.2l-2.994-2.863c-.473-.452-.473-1.205 0-1.732l3.782-3.542a1.236 1.236 0 0 1 1.813 0l2.916 2.788a18.974 18.974 0 0 1 5.438-2.185v-3.994c0-.678.552-1.205 1.26-1.205h5.28c.71 0 1.34.527 1.34 1.205v3.994Zm-3.861 9.343c4.098 0 7.408 3.165 7.408 7.083 0 3.843-3.31 7.007-7.408 7.007-4.098 0-7.408-3.164-7.408-7.007 0-3.918 3.31-7.083 7.408-7.083Z" stroke="#6DC300" stroke-width=".507"/><path fill-rule="evenodd" clip-rule="evenodd" d="M41.21 14.476c1.892.377 3.705 1.13 5.36 2.11l2.994-2.864c.552-.452 1.34-.452 1.813 0l3.783 3.542a1.33 1.33 0 0 1 0 1.808l-2.995 2.788a17.718 17.718 0 0 1 2.285 5.124h4.256c.71 0 1.261.602 1.261 1.28v5.049c0 .678-.551 1.206-1.26 1.206h-4.178c-.473 1.883-1.182 3.616-2.206 5.199l2.994 2.863c.473.452.473 1.28 0 1.733l-3.782 3.541a1.236 1.236 0 0 1-1.813 0l-2.916-2.788a18.972 18.972 0 0 1-5.438 2.185v3.994c0 .678-.551 1.28-1.26 1.28h-5.28c-.71 0-1.34-.602-1.34-1.28v-3.994c-1.892-.376-3.705-1.13-5.36-2.11l-2.994 2.864c-.552.527-1.34.527-1.813 0l-3.783-3.541c-.473-.528-.473-1.281 0-1.734l2.995-2.863a17.717 17.717 0 0 1-2.285-5.123h-4.256c-.71 0-1.261-.603-1.261-1.281v-5.049c0-.678.552-1.205 1.26-1.205h4.178c.473-1.884 1.182-3.617 2.206-5.2l-2.994-2.863c-.473-.452-.473-1.205 0-1.732l3.782-3.542a1.236 1.236 0 0 1 1.813 0l2.916 2.788a18.974 18.974 0 0 1 5.438-2.185v-3.994c0-.678.552-1.205 1.26-1.205h5.28c.71 0 1.34.527 1.34 1.205v3.994Zm-3.861 9.343c4.098 0 7.408 3.165 7.408 7.083 0 3.843-3.31 7.007-7.408 7.007-4.098 0-7.408-3.164-7.408-7.007 0-3.918 3.31-7.083 7.408-7.083Z" fill="#fff"/><path fill-rule="evenodd" clip-rule="evenodd" d="M59.967 29.923v3.39c0 .679-.551 1.206-1.26 1.206h-4.178c-.236 1.055-.63 2.035-1.024 2.939.079-1.96.236-2.939 1.024-6.33h4.177c.71 0 1.261-.527 1.261-1.205Zm-5.517 11.83.867.828c.473.453.473 1.281 0 1.733l-3.782 3.542a1.236 1.236 0 0 1-1.813 0l-2.916-2.788a18.972 18.972 0 0 1-5.438 2.185v-3.39a18.969 18.969 0 0 0 5.438-2.186l2.916 2.864c.473.452 1.34.452 1.813 0l2.916-2.788ZM41.368 47.93v3.316c0 .678-.551 1.28-1.26 1.28h-5.28c-.71 0-1.34-.602-1.34-1.28V47.93c.078.678.63 1.206 1.34 1.206h5.28c.709 0 1.26-.528 1.26-1.206Zm-7.88-.678c-1.892-.377-3.705-1.13-5.36-2.11l-2.994 2.864c-.552.527-1.34.527-1.813 0l-3.783-3.542c-.473-.527-.473-1.28 0-1.733l.867-.829 2.916 2.713c.473.527 1.261.527 1.813 0l2.994-2.863c1.655.98 3.468 1.733 5.36 2.11v3.39Zm-12.216-9.57c-.473-.979-.788-1.958-1.024-2.938h-4.256c-.71 0-1.261-.602-1.261-1.28v-3.316c0 .678.552 1.206 1.26 1.206h4.257c.788 3.39.866 4.37 1.024 6.329ZM37.35 23.82c3.468 0 6.384 2.26 7.172 5.35.157-.528.236.527.236-1.658 0-2.26-3.625-5.35-7.723-5.35s-7.093 3.09-7.093 5.35c0 2.185.079 1.13.236 1.657.788-3.089 3.705-5.35 7.172-5.35Z" fill="#000" fill-opacity=".102"/></svg>