<svg width="199" height="87" viewBox="0 0 199 87" fill="none" xmlns="http://www.w3.org/2000/svg">
<path fill-rule="evenodd" clip-rule="evenodd" d="M18.7289 12.292H192.146C195.789 12.292 198.825 16.4195 198.825 21.556V76.1309C198.825 81.1757 195.789 85.3032 192.146 85.3032H18.7289C15.086 85.3032 12.0503 81.1757 12.0503 76.1309V21.556C12.0503 16.4195 15.086 12.292 18.7289 12.292Z" fill="black" fill-opacity="0.101961"/>
<path fill-rule="evenodd" clip-rule="evenodd" d="M16.9079 9.35645H190.325C193.968 9.35645 197.004 13.5757 197.004 18.6205V73.1957C197.004 78.2405 193.968 82.368 190.325 82.368H16.9079C13.265 82.368 10.2292 78.2405 10.2292 73.1957V18.6205C10.2292 13.5757 13.1891 9.35645 16.9079 9.35645Z" fill="#E6E6E6"/>
<path fill-rule="evenodd" clip-rule="evenodd" d="M16.9079 7.42969H190.325C193.968 7.42969 197.004 11.6489 197.004 16.6937V71.2689C197.004 76.3137 193.968 80.4412 190.325 80.4412H16.9079C13.265 80.4412 10.2292 76.3137 10.2292 71.2689V16.6937C10.2292 11.6489 13.1891 7.42969 16.9079 7.42969Z" fill="white"/>
<path fill-rule="evenodd" clip-rule="evenodd" d="M21.006 13.667H187.062C190.477 13.667 193.285 17.5194 193.285 22.289V66.3161C193.285 71.0857 190.477 75.0298 187.062 75.0298H21.006C17.5908 75.0298 14.7827 71.0857 14.7827 66.3161V22.289C14.7827 17.5194 17.5908 13.667 21.006 13.667Z" fill="#E6E6E6"/>
<path fill-rule="evenodd" clip-rule="evenodd" d="M19.64 12.4746H185.847C189.262 12.4746 191.995 16.4187 191.995 21.0966V63.9313C191.995 68.7009 189.262 72.645 185.847 72.645H19.64C16.2248 72.645 13.4167 68.7009 13.4167 63.9313V21.0966C13.4167 16.4187 16.1489 12.4746 19.64 12.4746Z" fill="#F1C383"/>
<path fill-rule="evenodd" clip-rule="evenodd" d="M19.4882 10.2734H184.481C187.896 10.2734 190.629 14.0341 190.629 18.7119V58.9782C190.629 63.656 187.896 67.5084 184.481 67.5084H19.4882C16.1489 67.5084 13.4167 63.656 13.4167 58.9782V18.7119C13.4167 14.0341 16.1489 10.2734 19.4882 10.2734Z" fill="#FAEECC"/>
<path fill-rule="evenodd" clip-rule="evenodd" d="M20.4746 11.374C74.8145 11.374 129.154 11.374 183.494 11.374C186.834 11.374 189.566 15.1347 189.566 19.8125C189.566 32.4703 189.566 45.2199 189.566 57.9694C189.566 62.5555 186.834 66.4079 183.494 66.4079C129.154 66.4079 74.8145 66.4079 20.4746 66.4079C17.2112 66.4079 14.479 62.5555 14.479 57.9694C14.479 45.2199 14.479 32.4703 14.479 19.8125C14.479 15.1347 17.1353 11.374 20.4746 11.374Z" fill="#FAEDC9"/>
<path fill-rule="evenodd" clip-rule="evenodd" d="M21.4612 12.4746C75.194 12.4746 128.851 12.4746 182.508 12.4746C185.847 12.4746 188.503 16.2353 188.503 20.8214C188.503 32.8372 188.503 44.8529 188.503 56.9604C188.503 61.4548 185.847 65.2154 182.508 65.2154C128.851 65.2154 75.194 65.2154 21.4612 65.2154C18.1978 65.2154 15.5415 61.4548 15.5415 56.9604C15.5415 44.8529 15.5415 32.8372 15.5415 20.8214C15.5415 16.2353 18.1978 12.4746 21.4612 12.4746Z" fill="#F9ECC6"/>
<path fill-rule="evenodd" clip-rule="evenodd" d="M22.4478 13.667C75.4976 13.667 128.547 13.667 181.521 13.667C184.785 13.667 187.441 17.3359 187.441 21.8304C187.441 33.204 187.441 44.5777 187.441 55.8597C187.441 60.4459 184.785 64.1148 181.521 64.1148C128.547 64.1148 75.4976 64.1148 22.4478 64.1148C19.2603 64.1148 16.604 60.4459 16.604 55.8597C16.604 44.5777 16.604 33.204 16.604 21.8304C16.604 17.3359 19.2603 13.667 22.4478 13.667Z" fill="#F9EBC2"/>
<path fill-rule="evenodd" clip-rule="evenodd" d="M23.4342 14.7676C75.8009 14.7676 128.168 14.7676 180.534 14.7676C183.722 14.7676 186.378 18.4365 186.378 22.8392C186.378 33.5708 186.378 44.2107 186.378 54.8505C186.378 59.345 183.722 62.9221 180.534 62.9221C128.168 62.9221 75.8009 62.9221 23.4342 62.9221C20.2466 62.9221 17.6663 59.345 17.6663 54.8505C17.6663 44.2107 17.6663 33.5708 17.6663 22.8392C17.6663 18.4365 20.2466 14.7676 23.4342 14.7676Z" fill="#F8EABF"/>
<path fill-rule="evenodd" clip-rule="evenodd" d="M24.4213 15.8691C76.1808 15.8691 127.864 15.8691 179.548 15.8691C182.736 15.8691 185.316 19.5381 185.316 23.849C185.316 33.8468 185.316 43.8446 185.316 53.8424C185.316 58.2451 182.736 61.8223 179.548 61.8223C127.864 61.8223 76.1808 61.8223 24.4213 61.8223C21.3096 61.8223 18.7292 58.2451 18.7292 53.8424C18.7292 43.8446 18.7292 33.8468 18.7292 23.849C18.7292 19.5381 21.3096 15.8691 24.4213 15.8691Z" fill="#F8E9BC"/>
<path fill-rule="evenodd" clip-rule="evenodd" d="M25.4076 17.0615C76.4842 17.0615 127.561 17.0615 178.561 17.0615C181.673 17.0615 184.253 20.547 184.253 24.9497C184.253 34.2137 184.253 43.4777 184.253 52.8335C184.253 57.1444 181.673 60.7216 178.561 60.7216C127.561 60.7216 76.4842 60.7216 25.4076 60.7216C22.296 60.7216 19.7915 57.1444 19.7915 52.8335C19.7915 43.4777 19.7915 34.2137 19.7915 24.9497C19.7915 20.547 22.296 17.0615 25.4076 17.0615Z" fill="#F7E8B9"/>
<path fill-rule="evenodd" clip-rule="evenodd" d="M26.4701 18.1621C76.7877 18.1621 127.181 18.1621 177.575 18.1621C180.686 18.1621 183.191 21.6476 183.191 25.9586C183.191 34.5805 183.191 43.2025 183.191 51.8244C183.191 56.0437 180.686 59.5292 177.575 59.5292C127.181 59.5292 76.7877 59.5292 26.4701 59.5292C23.3585 59.5292 20.854 56.0437 20.854 51.8244C20.854 43.2025 20.854 34.5805 20.854 25.9586C20.854 21.6476 23.3585 18.1621 26.4701 18.1621Z" fill="#F7E7B6"/>
<path fill-rule="evenodd" clip-rule="evenodd" d="M27.457 19.2617C77.1674 19.2617 126.878 19.2617 176.588 19.2617C179.624 19.2617 182.128 22.7472 182.128 26.9664C182.128 34.9463 182.128 42.8345 182.128 50.7226C182.128 54.9419 179.624 58.4274 176.588 58.4274C126.878 58.4274 77.1674 58.4274 27.457 58.4274C24.4212 58.4274 21.9167 54.9419 21.9167 50.7226C21.9167 42.8345 21.9167 34.9463 21.9167 26.9664C21.9167 22.7472 24.3453 19.2617 27.457 19.2617Z" fill="#F6E6B3"/>
<path fill-rule="evenodd" clip-rule="evenodd" d="M28.4434 20.4551C77.4707 20.4551 126.574 20.4551 175.601 20.4551C178.637 20.4551 181.066 23.8488 181.066 27.9764C181.066 35.2225 181.066 42.4686 181.066 49.7147C181.066 53.9339 178.637 57.3277 175.601 57.3277C126.574 57.3277 77.4707 57.3277 28.4434 57.3277C25.4076 57.3277 22.979 53.9339 22.979 49.7147C22.979 42.4686 22.979 35.2225 22.979 27.9764C22.979 23.8488 25.4076 20.4551 28.4434 20.4551Z" fill="#F6E5AF"/>
<path fill-rule="evenodd" clip-rule="evenodd" d="M29.43 21.5547C77.7743 21.5547 126.194 21.5547 174.615 21.5547C177.575 21.5547 180.003 24.9485 180.003 29.076C180.003 35.5884 180.003 42.1007 180.003 48.7048C180.003 52.8324 177.575 56.1344 174.615 56.1344C126.194 56.1344 77.7743 56.1344 29.43 56.1344C26.4701 56.1344 24.0415 52.8324 24.0415 48.7048C24.0415 42.1007 24.0415 35.5884 24.0415 29.076C24.0415 24.9485 26.4701 21.5547 29.43 21.5547Z" fill="#F5E4AC"/>
<path fill-rule="evenodd" clip-rule="evenodd" d="M30.4171 22.6562H173.629C176.512 22.6562 178.941 26.05 178.941 30.0858V47.6966C178.941 51.7324 176.512 55.0344 173.629 55.0344H30.4171C27.4572 55.0344 25.1045 51.7324 25.1045 47.6966V30.0858C25.1045 26.05 27.4572 22.6562 30.4171 22.6562Z" fill="#F5E3A9"/>
<path fill-rule="evenodd" clip-rule="evenodd" d="M186.151 56.4102C187.972 56.4102 189.49 58.5197 189.49 61.0879C189.49 63.6561 187.972 65.7657 186.151 65.7657C184.253 65.7657 182.736 63.6561 182.736 61.0879C182.736 58.5197 184.253 56.4102 186.151 56.4102Z" fill="white"/>
<path fill-rule="evenodd" clip-rule="evenodd" d="M180.99 61.1787C181.977 61.1787 182.736 62.2794 182.736 63.6552C182.736 65.1227 181.977 66.2234 180.99 66.2234C179.927 66.2234 179.168 65.1227 179.168 63.6552C179.168 62.2794 179.927 61.1787 180.99 61.1787Z" fill="white"/>
<path fill-rule="evenodd" clip-rule="evenodd" d="M27.9884 11.5576C29.5822 11.5576 30.8724 13.3003 30.8724 15.5016C30.8724 17.7029 29.5822 19.5374 27.9884 19.5374C26.3947 19.5374 25.1045 17.7029 25.1045 15.5016C25.1045 13.3003 26.3947 11.5576 27.9884 11.5576Z" fill="white"/>
<path fill-rule="evenodd" clip-rule="evenodd" d="M56.7517 17.4268H179.32C182.052 17.4268 184.253 19.6281 184.253 22.3798V55.767C184.253 58.5187 182.052 60.72 179.32 60.72H56.7517C54.0195 60.72 51.7427 58.5187 51.7427 55.767V22.3798C51.7427 19.6281 54.0195 17.4268 56.7517 17.4268Z" fill="#EFB469"/>
<path fill-rule="evenodd" clip-rule="evenodd" d="M58.5733 19.8115H177.423C180.079 19.8115 182.204 21.9212 182.204 24.4894V55.125C182.204 57.6933 180.079 59.8029 177.423 59.8029H58.5733C55.9929 59.8029 53.792 57.6933 53.792 55.125V24.4894C53.792 21.9212 55.917 19.8115 58.5733 19.8115Z" fill="#F1C383"/>
<path fill-rule="evenodd" clip-rule="evenodd" d="M58.8006 22.4707C98.2654 22.4707 137.73 22.4707 177.195 22.4707C179.851 22.4707 181.976 24.5803 181.976 27.1486C181.976 36.5043 181.976 45.7683 181.976 55.0323C181.976 57.6005 179.775 59.7101 177.195 59.7101C137.73 59.7101 98.2654 59.7101 58.8006 59.7101C56.2202 59.7101 54.0952 57.6005 54.0952 55.0323C54.0952 45.7683 54.0952 36.5043 54.0952 27.1486C54.0952 24.5803 56.2202 22.4707 58.8006 22.4707Z" fill="#F1C585"/>
<path fill-rule="evenodd" clip-rule="evenodd" d="M59.0282 25.2227C98.3412 25.2227 137.654 25.2227 176.967 25.2227C179.548 25.2227 181.673 27.3323 181.673 29.9005C181.673 38.2473 181.673 46.5941 181.673 55.0326C181.673 57.6009 179.548 59.6188 176.967 59.6188C137.654 59.6188 98.3412 59.6188 59.0282 59.6188C56.4478 59.6188 54.3228 57.6009 54.3228 55.0326C54.3228 46.5941 54.3228 38.2473 54.3228 29.9005C54.3228 27.3323 56.4478 25.2227 59.0282 25.2227Z" fill="#F1C786"/>
<path fill-rule="evenodd" clip-rule="evenodd" d="M59.2562 27.9746C98.4174 27.9746 137.578 27.9746 176.74 27.9746C179.32 27.9746 181.445 29.9925 181.445 32.5608C181.445 39.9903 181.445 47.5116 181.445 54.9412C181.445 57.5094 179.32 59.5273 176.74 59.5273C137.578 59.5273 98.4174 59.5273 59.2562 59.5273C56.6758 59.5273 54.6267 57.5094 54.6267 54.9412C54.6267 47.5116 54.6267 39.9903 54.6267 32.5608C54.6267 29.9925 56.6758 27.9746 59.2562 27.9746Z" fill="#F2CA88"/>
<path fill-rule="evenodd" clip-rule="evenodd" d="M59.4835 30.6338C98.4929 30.6338 137.502 30.6338 176.588 30.6338C179.092 30.6338 181.141 32.7434 181.141 35.2199C181.141 41.7323 181.141 48.3363 181.141 54.9404C181.141 57.4169 179.092 59.4348 176.588 59.4348C137.502 59.4348 98.4929 59.4348 59.4835 59.4348C56.979 59.4348 54.854 57.4169 54.854 54.9404C54.854 48.3363 54.854 41.7323 54.854 35.2199C54.854 32.7434 56.9031 30.6338 59.4835 30.6338Z" fill="#F2CC8A"/>
<path fill-rule="evenodd" clip-rule="evenodd" d="M59.7113 33.3857C98.5689 33.3857 137.427 33.3857 176.36 33.3857C178.865 33.3857 180.914 35.4036 180.914 37.8801C180.914 43.5669 180.914 49.2537 180.914 54.8488C180.914 57.3253 178.865 59.3432 176.36 59.3432C137.427 59.3432 98.5689 59.3432 59.7113 59.3432C57.2068 59.3432 55.1577 57.3253 55.1577 54.8488C55.1577 49.2537 55.1577 43.5669 55.1577 37.8801C55.1577 35.4036 57.2068 33.3857 59.7113 33.3857Z" fill="#F2CE8B"/>
<path fill-rule="evenodd" clip-rule="evenodd" d="M59.8632 36.1377C98.645 36.1377 137.351 36.1377 176.133 36.1377C178.561 36.1377 180.61 38.0639 180.61 40.5404C180.61 45.31 180.61 50.0796 180.61 54.8492C180.61 57.234 178.561 59.2519 176.133 59.2519C137.351 59.2519 98.645 59.2519 59.8632 59.2519C57.4346 59.2519 55.3855 57.234 55.3855 54.8492C55.3855 50.0796 55.3855 45.31 55.3855 40.5404C55.3855 38.0639 57.4346 36.1377 59.8632 36.1377Z" fill="#F2D08D"/>
<path fill-rule="evenodd" clip-rule="evenodd" d="M60.0908 38.7979C98.7207 38.7979 137.275 38.7979 175.905 38.7979C178.333 38.7979 180.306 40.8158 180.306 43.2006C180.306 47.053 180.306 50.9054 180.306 54.7578C180.306 57.2344 178.333 59.1606 175.905 59.1606C137.275 59.1606 98.7207 59.1606 60.0908 59.1606C57.6622 59.1606 55.689 57.2344 55.689 54.7578C55.689 50.9054 55.689 47.053 55.689 43.2006C55.689 40.8158 57.6622 38.7979 60.0908 38.7979Z" fill="#F2D28E"/>
<path fill-rule="evenodd" clip-rule="evenodd" d="M60.3186 41.5498C98.7968 41.5498 137.275 41.5498 175.677 41.5498C178.106 41.5498 180.079 43.476 180.079 45.8608C180.079 48.7959 180.079 51.8228 180.079 54.7579C180.079 57.1427 178.106 59.0689 175.677 59.0689C137.275 59.0689 98.7968 59.0689 60.3186 59.0689C57.9659 59.0689 55.9167 57.1427 55.9167 54.7579C55.9167 51.8228 55.9167 48.7959 55.9167 45.8608C55.9167 43.476 57.89 41.5498 60.3186 41.5498Z" fill="#F2D490"/>
<path fill-rule="evenodd" clip-rule="evenodd" d="M60.5462 44.3008C98.8725 44.3008 137.199 44.3008 175.449 44.3008C177.878 44.3008 179.775 46.227 179.775 48.5201C179.775 50.538 179.775 52.6477 179.775 54.7573C179.775 57.0504 177.878 58.9766 175.449 58.9766C137.199 58.9766 98.8725 58.9766 60.5462 58.9766C58.1935 58.9766 56.2202 57.0504 56.2202 54.7573C56.2202 52.6477 56.2202 50.538 56.2202 48.5201C56.2202 46.1353 58.1935 44.3008 60.5462 44.3008Z" fill="#F3D792"/>
<path fill-rule="evenodd" clip-rule="evenodd" d="M60.774 46.96C98.9485 46.96 137.123 46.96 175.222 46.96C177.574 46.96 179.548 48.8862 179.548 51.1793C179.548 52.3717 179.548 53.4724 179.548 54.6648C179.548 56.9579 177.574 58.8841 175.222 58.8841C137.123 58.8841 98.9485 58.8841 60.774 58.8841C58.4213 58.8841 56.5239 56.9579 56.5239 54.6648C56.5239 53.4724 56.5239 52.3717 56.5239 51.1793C56.5239 48.8862 58.4213 46.96 60.774 46.96Z" fill="#F3D993"/>
<path fill-rule="evenodd" clip-rule="evenodd" d="M61.0018 49.7139H175.07C177.347 49.7139 179.244 51.5484 179.244 53.8415V54.667C179.244 56.8684 177.347 58.7946 175.07 58.7946H61.0018C58.6491 58.7946 56.7517 56.8684 56.7517 54.667V53.8415C56.7517 51.5484 58.6491 49.7139 61.0018 49.7139Z" fill="#F3DB95"/>
<path d="M41.8764 33.0209L38.3094 33.7547C40.3585 34.9471 42.0281 36.1395 43.2424 37.4236L43.3183 37.5154C45.2916 39.625 46.7335 42.1015 47.7202 44.8532C48.7068 47.6049 49.238 50.54 49.238 53.7503C49.238 55.5848 49.0863 57.3275 48.7068 59.162C48.3273 60.9964 47.7961 62.6474 47.113 64.2067C46.43 65.766 45.671 67.1418 44.8362 68.426C43.9255 69.7101 42.9389 70.9025 41.8764 71.9114C40.8897 72.9204 39.8272 73.8376 38.6888 74.5714C37.6263 75.3052 36.412 75.8555 35.1977 76.4058C34.5147 76.681 33.7557 76.8645 32.9968 77.1396V77.4148C32.9968 79.7996 32.162 82.0009 30.8718 83.5602C29.5816 85.1195 27.7602 86.1285 25.711 86.1285H23.5101C21.5369 86.1285 19.7154 85.1195 18.4252 83.5602C17.1351 82.0009 16.3002 79.7996 16.3002 77.4148V76.9562C15.0859 76.5893 13.9475 76.2224 12.885 75.6721C11.5948 75.1217 10.3805 74.3879 9.31802 73.6542C8.25551 72.8287 7.193 71.9114 6.20638 70.8108C5.29566 69.8018 4.46083 68.7011 3.77779 67.6922C3.09474 66.5915 2.4117 65.3991 1.95634 64.115H1.88045C1.57687 63.4729 1.34919 62.7391 1.12151 61.9136C0.817937 60.9964 0.66615 60.4461 0.514363 59.9875V59.8957C-0.0168925 58.153 -0.244573 56.2268 0.362575 54.2089C1.04562 51.6407 2.56349 49.8062 5.52334 49.1642H5.82691L10.1528 48.5221C9.16623 47.7883 8.17961 46.9628 7.26889 45.9539C6.20638 44.8532 5.21976 43.4773 4.38493 41.9181C3.39832 40.1753 2.63938 38.3409 2.18402 36.323C1.72866 34.3968 1.50098 32.2872 1.50098 30.0858C1.50098 27.059 1.95634 24.1238 2.86706 21.5556C3.77779 18.8956 5.21976 16.4191 6.96532 14.4012C8.71087 12.3833 10.6841 10.9157 13.0368 9.72333C14.2511 9.173 15.5413 8.71438 16.9833 8.34749C17.3627 7.43026 17.8181 6.51303 18.4252 5.77925C19.7154 4.21996 21.5369 3.30273 23.5101 3.30273H25.711C27.7602 3.30273 29.5816 4.21996 30.8718 5.77925C31.4789 6.51303 31.9343 7.43026 32.3138 8.34749C33.4522 8.62266 34.5147 8.98955 35.4254 9.35644C37.5504 10.2737 39.4478 11.4661 40.9656 12.9336C42.3317 14.126 43.4701 15.5936 44.3808 17.1529C45.3675 18.7122 46.1264 20.3632 46.7335 22.1976C46.9612 22.748 47.113 23.39 47.1889 23.9404C47.4925 25.5914 47.3407 27.2424 46.8094 28.8017C46.1264 30.4527 45.0639 31.7368 43.4701 32.5623C43.0907 32.7458 42.6353 32.9292 42.104 33.0209H41.8764Z" fill="black" fill-opacity="0.101961"/>
<path d="M41.8764 29.81L38.3094 30.4521C40.3585 31.6445 42.0281 32.9286 43.2424 34.2127H43.3183C45.2916 36.4141 46.7335 38.7989 47.7202 41.5505C48.7068 44.3022 49.238 47.3291 49.238 50.4477C49.238 52.2821 49.0863 54.1166 48.7068 55.9511C48.3273 57.6938 47.7961 59.3448 47.113 60.9958C46.43 62.4634 45.671 63.8392 44.8362 65.1234C43.9255 66.4075 42.9389 67.5999 41.8764 68.6088C40.8897 69.7095 39.8272 70.535 38.6888 71.2688C37.6263 72.0026 36.412 72.6447 35.1977 73.1033C34.5147 73.3784 33.7557 73.6536 32.9968 73.8371V74.1122C32.9968 76.497 32.162 78.6984 30.8718 80.2577C29.5816 81.9087 27.7602 82.8259 25.711 82.8259H23.5101C21.5369 82.8259 19.7154 81.9087 18.4252 80.2577C17.1351 78.6984 16.3002 76.497 16.3002 74.1122V73.6536C15.0859 73.3784 13.9475 72.9198 12.885 72.4612C11.5948 71.8192 10.3805 71.1771 9.31802 70.3516C8.25551 69.6178 7.193 68.6088 6.20638 67.5999C5.29566 66.4992 4.46083 65.4903 3.77779 64.4813V64.3896C3.09474 63.2889 2.4117 62.0965 1.95634 60.9041H1.88045C1.57687 60.1703 1.34919 59.4365 1.12151 58.7028C0.817937 57.6938 0.66615 57.2352 0.514363 56.6848C-0.0168925 54.8504 -0.244573 52.9242 0.362575 50.9063C1.04562 48.4298 2.56349 46.5953 5.52334 45.9533L5.82691 45.8615L10.1528 45.2195C9.16623 44.5774 8.17961 43.7519 7.26889 42.7429C6.20638 41.5505 5.21976 40.1747 4.38493 38.6154C3.39832 36.9644 2.63938 35.1299 2.18402 33.112C1.72866 31.0941 1.50098 28.9845 1.50098 26.8749C1.50098 23.7563 1.95634 20.9129 2.86706 18.2529C3.77779 15.5929 5.21976 13.2081 6.96532 11.0985C8.71087 9.17231 10.6841 7.61301 13.0368 6.51234C14.2511 5.962 15.5413 5.50338 16.9833 5.13649C17.3627 4.12754 17.8181 3.30203 18.4252 2.56825C19.7154 1.00895 21.5369 0 23.5101 0H25.711C27.7602 0 29.5816 1.00895 30.8718 2.56825C31.4789 3.30203 31.9343 4.12754 32.3138 5.13649C33.4522 5.41166 34.5147 5.77855 35.4254 6.14544C37.5504 6.97095 39.4478 8.16335 40.9656 9.63092C42.3317 10.915 43.4701 12.2909 44.3808 13.8502C45.3675 15.4095 46.1264 17.1522 46.7335 18.9867C46.9612 19.537 47.113 20.0873 47.1889 20.6377V20.7294C47.4925 22.2887 47.3407 23.9397 46.8094 25.499C46.1264 27.15 45.0639 28.5259 43.4701 29.2597C43.0907 29.4431 42.6353 29.6265 42.104 29.7183L41.8764 29.81Z" fill="#E6E6E6"/>
<path d="M38.3094 30.452C44.8362 34.1209 48.8586 40.3581 49.238 49.2552C48.9345 55.951 46.2023 62.0047 41.8764 66.224C39.2201 68.8839 36.3362 70.5349 32.9968 71.4522V71.7273C32.9968 74.1121 32.162 76.3135 30.8718 77.8728C27.912 81.3583 21.3851 81.3583 18.4253 77.8728C17.1351 76.3135 16.3003 74.1121 16.3003 71.7273V71.2687C13.8717 70.6267 11.519 69.526 9.31809 67.9667C4.99216 64.7564 0.818017 58.4275 0.059082 52.1904C0.89391 45.8615 5.97877 45.8615 10.1529 45.2194C13.3404 45.036 8.0279 41.0919 7.26896 40.2664C4.91626 37.6981 3.09482 34.3961 2.1841 30.6355C1.80463 29.0762 1.57695 27.3334 1.57695 25.5907C1.65284 23.0225 2.10821 20.5459 2.86714 18.2529C3.77786 15.5929 5.21984 13.2081 6.96539 11.0985C8.71094 9.17229 10.6842 7.613 13.0369 6.51233C14.2512 5.96199 15.5413 5.50338 16.9833 5.13648C17.3628 4.12753 17.8182 3.30203 18.4253 2.56824C19.7155 1.00895 21.5369 0 23.5102 0H25.7111C27.7602 0 29.5816 1.00895 30.8718 2.56824C31.479 3.30203 31.9343 4.12753 32.3138 5.13648C33.4522 5.41165 34.5147 5.77855 35.4254 6.14544C37.5505 6.97094 39.4478 8.16334 40.9657 9.63091C42.3317 10.915 43.4701 12.2909 44.3809 13.8502C45.3675 15.4095 46.1264 17.1522 46.7336 18.9866C46.9612 19.537 47.113 20.0873 47.1889 20.6377V20.7294L47.2648 21.188C46.5059 26.8748 42.3317 27.3334 38.3094 28.0672C36.4879 28.4341 36.1085 28.9844 38.3094 30.452Z" fill="white"/>
<path d="M41.1935 23.2056L32.7693 24.7649C30.9479 25.1318 30.5684 23.6642 30.3407 23.1139C30.0371 22.2884 29.7336 21.738 29.43 21.2794C29.2023 20.9125 28.8228 20.5456 28.3675 20.087V30.9103C34.2113 32.9283 38.1578 35.0379 40.2828 37.2392C43.1668 40.4496 44.6088 44.4854 44.6088 49.3467C44.6088 52.1901 44.1534 54.8501 43.0909 57.2349C42.0284 59.6197 40.6623 61.6376 38.9926 63.1969C37.3988 64.8479 35.6533 65.9486 33.7559 66.6824C32.2381 67.3244 30.4925 67.6913 28.3675 67.8748V73.0113C28.3675 74.754 27.2291 76.1299 25.7112 76.1299H23.5103C22.0683 76.1299 20.9299 74.754 20.9299 73.0113V67.7831C18.3495 67.4162 16.2244 66.8658 14.4789 66.132C12.5056 65.2148 10.7601 63.9307 9.3181 62.3714C7.87611 60.8121 6.8136 59.0694 5.97876 57.2349C5.59929 56.2259 5.21982 55.0335 4.84035 53.7494C4.38499 52.0984 4.38499 50.6308 6.35823 50.2639L14.4789 49.0715C16.6798 48.5212 17.8182 49.0715 17.8182 51.0894C17.8182 52.0984 18.3495 53.1073 18.9566 54.2998C19.412 55.0335 20.095 55.7673 20.9299 56.4094V42.9261C17.2111 41.642 14.5548 40.5413 12.8851 39.624C11.0637 38.5234 9.46988 36.7806 8.10379 34.3958C6.8136 32.011 6.13055 29.0759 6.13055 25.6821C6.13055 21.0042 7.49664 17.0601 10.1529 13.9416C12.6574 11.0981 16.2244 9.3554 20.9299 8.89678V7.61265C20.9299 5.86991 22.0683 4.40234 23.5103 4.40234H25.7112C27.2291 4.40234 28.3675 5.86991 28.3675 7.61265V8.89678C32.6175 9.3554 35.881 10.7312 38.2337 12.9326C40.131 14.7671 41.573 17.0601 42.4837 19.9036C43.015 21.4629 42.7873 22.8387 41.1935 23.2056ZM28.3675 45.6778V57.2349C29.5059 56.7763 30.4166 56.1342 31.0997 55.217C31.9345 54.1163 32.3898 52.8322 32.3898 51.3646C32.3898 50.1722 32.0104 48.9798 31.2514 47.9709C30.7202 47.1453 29.7336 46.4116 28.3675 45.6778ZM20.9299 28.2504V19.5367C20.2468 19.9953 19.7156 20.4539 19.3361 20.9125C18.8048 21.738 18.5013 22.747 18.5013 23.8477C18.5013 24.9483 18.8048 25.9573 19.3361 26.8745C19.7156 27.3331 20.2468 27.8835 20.9299 28.2504Z" fill="#DCB000"/>
<path d="M28.3677 20.087V27.7917V30.9103C34.2115 32.9282 38.1579 35.0378 40.283 37.2392C42.8633 40.0826 44.3053 43.5681 44.6089 47.6956C44.4571 49.9887 43.9258 52.0983 43.091 54.0245C42.0285 56.4093 40.6624 58.4272 38.9928 59.9865C37.399 61.6375 35.6534 62.7382 33.7561 63.472C32.2382 64.114 30.4927 64.4809 28.3677 64.6644V67.8747V69.8008C28.3677 71.5436 27.2293 72.9194 25.7114 72.9194H23.5105C22.0685 72.9194 20.9301 71.5436 20.9301 69.8008V67.7829V64.5726C18.3497 64.2975 16.2247 63.6554 14.4791 62.9216C12.5059 62.0044 10.7603 60.812 9.31837 59.161C7.87639 57.6017 6.81388 55.859 5.97905 54.0245C5.59958 53.1073 5.29601 52.0983 4.99243 50.9976C5.22011 50.6307 5.67547 50.3556 6.35852 50.2638L14.4791 49.0714C16.68 48.5211 17.8185 49.0714 17.8185 51.0894C17.8185 52.0983 18.3497 53.1073 18.9569 54.2997C19.4122 55.0334 20.0953 55.7672 20.9301 56.4093V53.199V42.926V39.7157C17.2113 38.4316 14.555 37.3309 12.8854 36.4137C11.0639 35.313 9.47015 33.5703 8.10407 31.1855C7.04156 29.1676 6.35852 26.8745 6.13084 24.1228C6.43441 20.087 7.80049 16.785 10.1532 13.9415C12.6577 11.0981 16.2247 9.35539 20.9301 8.89677V7.61265C20.9301 5.86991 22.0685 4.40234 23.5105 4.40234H25.7114C27.2293 4.40234 28.3677 5.86991 28.3677 7.61265V8.89677C32.6177 9.35539 35.8811 10.7312 38.2338 12.9326C40.0553 14.5836 41.3455 16.785 42.3321 19.3532C42.1044 19.6284 41.7249 19.9035 41.1937 19.9953L32.7695 21.5545C30.948 22.0132 30.5686 20.4539 30.3409 19.9035C30.0373 19.078 29.7337 18.5277 29.4302 18.0691C29.2025 17.7022 28.823 17.3353 28.3677 16.8767V20.087ZM28.3677 42.4674V45.6777V54.0245V57.2348C29.5061 56.7762 30.4168 56.1341 31.0998 55.2169C31.9347 54.1162 32.39 52.8321 32.39 51.3645C32.39 50.9059 32.3141 50.3556 32.1623 49.8052C32.3141 49.3466 32.39 48.7963 32.39 48.2459C32.39 46.9618 32.0106 45.8611 31.2516 44.7605C30.7204 43.935 29.7337 43.2012 28.3677 42.4674ZM20.9301 19.5366V16.3263C20.247 16.785 19.7158 17.2436 19.3363 17.7022C18.8051 18.5277 18.5015 19.5366 18.5015 20.6373C18.5015 21.1877 18.5774 21.738 18.7292 22.2883C18.5774 22.7469 18.5015 23.2973 18.5015 23.8476C18.5015 24.9483 18.8051 25.9573 19.3363 26.8745C19.7158 27.3331 20.247 27.8834 20.9301 28.2503V25.04V19.5366Z" fill="#FEF500"/>
<path fill-rule="evenodd" clip-rule="evenodd" d="M28.3677 19.629V27.242V30.4523C34.2115 32.4702 38.1579 34.5798 40.283 36.6894C42.8633 39.5329 44.3053 43.0183 44.6089 47.2376C44.4571 49.4389 43.9258 51.5486 43.091 53.4748C42.0285 55.8596 40.6624 57.8775 38.9928 59.5285C37.399 61.0878 35.6534 62.2802 33.7561 63.014C32.2382 63.5643 30.4927 63.9312 28.3677 64.2064V67.3249V69.2511C28.3677 70.9939 27.2293 72.4614 25.7114 72.4614H23.5105C22.0685 72.4614 20.9301 70.9939 20.9301 69.2511V67.3249V64.1146C18.3497 63.7477 16.2247 63.1974 14.4791 62.3719C12.5059 61.5464 10.7603 60.2623 9.31837 58.6112C7.87639 57.052 6.81388 55.3092 5.97905 53.4748C5.59958 52.5575 5.29601 51.5486 4.99243 50.4479C5.22011 50.081 5.67547 49.8976 6.35852 49.7141L14.4791 48.6134C16.68 47.9714 17.8185 48.6134 17.8185 50.5396C17.8185 51.6403 18.3497 52.6493 18.9569 53.7499C19.4122 54.5754 20.0953 55.2175 20.9301 55.9513V52.741V42.468V39.2577C17.2113 37.9736 14.555 36.7812 12.8854 35.8639C11.0639 34.7633 9.47015 33.0205 8.10407 30.6357C7.04156 28.7095 6.35852 26.3248 6.13084 23.5731C6.43441 19.629 7.80049 16.2352 10.1532 13.4835C12.6577 10.5484 16.2247 8.89738 20.9301 8.34704V7.06292C20.9301 5.32018 22.0685 3.94434 23.5105 3.94434H25.7114C27.2293 3.94434 28.3677 5.32018 28.3677 7.06292V8.34704C32.6177 8.89738 35.8811 10.1815 38.2338 12.3829C40.0553 14.1256 41.3455 16.2352 42.3321 18.8035C42.1044 19.1704 41.7249 19.3538 41.1937 19.4455L32.7695 21.0965C30.948 21.4634 30.5686 19.9959 30.3409 19.4455C30.0373 18.62 29.7337 17.978 29.4302 17.5193C29.2025 17.1524 28.823 16.7856 28.3677 16.4187V19.629ZM28.3677 42.0094V45.2197V53.5665V56.7768C29.5061 56.2265 30.4168 55.5844 31.0998 54.7589C31.9347 53.5665 32.39 52.2824 32.39 50.9065C32.39 50.3562 32.3141 49.8058 32.1623 49.3472C32.3141 48.7969 32.39 48.2466 32.39 47.6962C32.39 46.4121 32.0106 45.3114 31.2516 44.2107C30.7204 43.477 29.7337 42.7432 28.3677 42.0094ZM20.9301 19.0786V15.8683C20.247 16.2352 19.7158 16.6938 19.3363 17.2442C18.8051 18.0697 18.5015 18.9869 18.5015 20.0876C18.5015 20.7296 18.5774 21.1883 18.7292 21.7386C18.5774 22.1972 18.5015 22.7476 18.5015 23.2979C18.5015 24.4903 18.8051 25.4992 19.3363 26.3248C19.7158 26.8751 20.247 27.3337 20.9301 27.7923V24.582V19.0786Z" fill="url(#paint0_linear_176_107133)"/>
<path d="M44.5328 46.4121C44.5328 46.6873 44.5328 46.9624 44.6087 47.2376C44.4569 49.439 43.9257 51.5486 43.0908 53.4748C42.0283 55.8595 40.6622 57.8774 38.9926 59.5284C37.3988 61.0877 35.6533 62.2801 33.7559 63.0139C32.238 63.5642 30.4925 63.9311 28.3674 64.2063V67.3249V69.251C28.3674 70.9938 27.229 72.4613 25.7112 72.4613H23.5102C22.0683 72.4613 20.9299 70.9938 20.9299 69.251V67.3249V64.1146C18.3495 63.7477 16.2244 63.1974 14.4789 62.3718C12.5056 61.5463 10.7601 60.2622 9.31809 58.6112C7.87611 57.0519 6.8136 55.3092 5.97877 53.4748C5.82698 53.0161 5.5993 52.5575 5.44751 52.0989C9.31809 52.3741 13.5681 52.3741 18.1218 52.0072C18.3495 52.5575 18.653 53.1996 18.9566 53.7499C19.412 54.5754 20.095 55.2175 20.9299 55.9513V52.741V51.732C22.4477 51.5486 23.9656 51.3651 25.4835 51.1817C26.4701 50.9982 27.4567 50.8148 28.3674 50.7231V53.5665V56.7768C29.5059 56.2264 30.4166 55.5844 31.0996 54.7589C31.9345 53.5665 32.3898 52.2824 32.3898 50.9065C32.3898 50.5396 32.3139 50.2645 32.3139 49.8976C36.6399 48.9803 40.7381 47.7879 44.5328 46.4121Z" fill="#F7C600"/>
<path d="M28.3673 19.6291V21.1884C27.4566 21.3718 26.4699 21.4635 25.4833 21.647C23.9654 21.8304 22.4476 22.1056 20.9297 22.3808V19.0787V15.8684C20.2466 16.2353 19.7154 16.6939 19.3359 17.2442C18.8047 18.0698 18.5011 18.987 18.5011 20.0877C18.5011 20.7297 18.577 21.1884 18.7288 21.7387C18.6529 22.1056 18.577 22.4725 18.577 22.9311C14.251 23.8483 10.2286 25.0407 6.50984 26.3249C6.35805 25.4994 6.20627 24.5821 6.13037 23.5732C6.43395 19.6291 7.80004 16.2353 10.1527 13.4836C12.6572 10.5484 16.2243 8.89741 20.9297 8.34707V7.06294C20.9297 5.32019 22.0681 3.94434 23.5101 3.94434H25.711C27.2289 3.94434 28.3673 5.32019 28.3673 7.06294V8.34707C32.6173 8.89741 35.8808 10.1815 38.2335 12.3829C40.0549 14.1256 41.3451 16.2353 42.3318 18.8035C42.1041 19.1704 41.7246 19.3539 41.1934 19.4456L35.2736 20.638C33.9834 20.638 32.6173 20.7297 31.3271 20.9132C30.72 20.5463 30.4923 19.8125 30.3405 19.4456C30.037 18.6201 29.7334 17.978 29.4298 17.5194C29.2021 17.1525 28.8226 16.7856 28.3673 16.4187V19.6291Z" fill="#FFF71F"/>
<defs>
<linearGradient id="paint0_linear_176_107133" x1="24.8015" y1="64.9236" x2="24.8015" y2="11.4803" gradientUnits="userSpaceOnUse">
<stop stop-color="#FFCC00"/>
<stop offset="1" stop-color="#FFF71F"/>
</linearGradient>
</defs>
</svg>
