<svg width="10" height="11" viewBox="0 0 10 11" fill="none" xmlns="http://www.w3.org/2000/svg">
<path fill-rule="evenodd" clip-rule="evenodd" d="M1.99087 1.07955C4.12086 0.699557 6.24084 0.699557 8.32082 1.07955C8.99081 1.19955 9.43081 1.64955 9.56081 2.30954C9.9708 4.42952 9.9608 6.5395 9.56081 8.64949C9.43081 9.31948 9.00081 9.82948 8.32082 9.88947C6.24084 10.0795 4.12086 10.0795 1.99087 9.88947C1.31088 9.82948 0.830885 9.32948 0.750885 8.64949C0.510887 6.5395 0.460888 4.42952 0.750885 2.30954C0.840884 1.63955 1.32088 1.19955 1.99087 1.07955Z" fill="black" fill-opacity="0.101961"/>
<path fill-rule="evenodd" clip-rule="evenodd" d="M1.78086 0.599573C3.91084 0.219576 6.03082 0.219576 8.1208 0.599573C8.78079 0.719572 9.22079 1.16957 9.35079 1.82956C9.76079 3.94954 9.75078 6.05952 9.35079 8.16951C9.22079 8.8395 8.79079 9.34949 8.1208 9.40949C6.03082 9.59949 3.91084 9.59949 1.78086 9.40949C1.10086 9.34949 0.620866 8.8495 0.540867 8.16951C0.300869 6.05952 0.260869 3.94954 0.540867 1.82956C0.630866 1.15957 1.11086 0.719572 1.78086 0.599573Z" fill="#E6E6E6"/>
<path fill-rule="evenodd" clip-rule="evenodd" d="M1.78086 0.36957C3.91084 -0.0104265 6.03082 -0.0204264 8.1208 0.36957C8.78079 0.489569 9.22079 0.939565 9.35079 1.59956C9.76079 3.71954 9.75078 5.82952 9.35079 7.9395C9.22079 8.6095 8.79079 9.11949 8.1208 9.17949C6.03082 9.36949 3.91084 9.36949 1.78086 9.17949C1.10086 9.11949 0.620866 8.6195 0.540867 7.9395C0.300869 5.82952 0.260869 3.71954 0.540867 1.59956C0.630866 0.929565 1.11086 0.489569 1.78086 0.36957Z" fill="white"/>
<path fill-rule="evenodd" clip-rule="evenodd" d="M2.25083 0.979546C4.17081 0.639549 6.0608 0.639549 7.93078 0.979546C8.53078 1.08955 8.93077 1.48954 9.04077 2.08954C9.41077 3.97952 9.40077 5.8795 9.04077 7.76949C8.93077 8.36948 8.54078 8.82948 7.93078 8.87948C6.0608 9.04947 4.17081 9.04947 2.25083 8.87948C1.64084 8.82948 1.21084 8.37948 1.14084 7.76949C0.930843 5.8795 0.890843 3.97952 1.14084 2.08954C1.22084 1.48954 1.65084 1.08955 2.25083 0.979546Z" fill="#E6E6E6"/>
<path fill-rule="evenodd" clip-rule="evenodd" d="M2.11088 0.819552C4.03086 0.479555 5.92084 0.469555 7.79083 0.819552C8.39082 0.929551 8.79082 1.31955 8.90082 1.91954C9.27081 3.81953 9.26081 5.70951 8.90082 7.60949C8.79082 8.20949 8.40082 8.65948 7.79083 8.71948C5.92084 8.88948 4.03086 8.88948 2.11088 8.71948C1.50088 8.65948 1.07089 8.20949 1.00089 7.60949C0.790889 5.70951 0.75089 3.81953 1.00089 1.91954C1.08089 1.31955 1.51088 0.919551 2.11088 0.819552Z" fill="#00B0DC"/>
<path fill-rule="evenodd" clip-rule="evenodd" d="M2.11088 0.429558C4.03086 0.0895613 5.92084 0.0895613 7.79083 0.429558C8.39082 0.539557 8.79082 0.939554 8.90082 1.53955C9.27081 3.42953 9.26081 5.32951 8.90082 7.2195C8.79082 7.81949 8.40082 8.26949 7.79083 8.32949C5.92084 8.49949 4.03086 8.49949 2.11088 8.32949C1.50088 8.27949 1.07089 7.82949 1.00089 7.2195C0.790889 5.32951 0.75089 3.42953 1.00089 1.53955C1.08089 0.929554 1.51088 0.539557 2.11088 0.429558Z" fill="#99FFFF"/>
<path fill-rule="evenodd" clip-rule="evenodd" d="M2.15083 0.479533C4.04081 0.149536 5.9108 0.139536 7.76078 0.479533C8.35077 0.589532 8.74077 0.979529 8.85077 1.57952C9.21077 3.43951 9.21077 5.30949 8.85077 7.17947C8.74077 7.76947 8.36077 8.21946 7.76078 8.27946C5.9108 8.44946 4.04081 8.43946 2.15083 8.27946C1.55083 8.21946 1.12084 7.77947 1.06084 7.17947C0.85084 5.30949 0.800841 3.43951 1.06084 1.57952C1.14084 0.979529 1.56083 0.589532 2.15083 0.479533Z" fill="#8BFAFF"/>
<path fill-rule="evenodd" clip-rule="evenodd" d="M2.1908 0.529541C4.05079 0.199544 5.90077 0.199544 7.72075 0.529541C8.30075 0.63954 8.69074 1.02954 8.80074 1.60953C9.16074 3.45952 9.15074 5.2995 8.80074 7.14948C8.69074 7.72948 8.31075 8.16947 7.72075 8.21947C5.90077 8.38947 4.05079 8.38947 2.1908 8.21947C1.60081 8.16947 1.18081 7.73948 1.11081 7.14948C0.900813 5.2995 0.860814 3.45952 1.11081 1.60953C1.19081 1.01954 1.60081 0.63954 2.1908 0.529541Z" fill="#7DF6FF"/>
<path fill-rule="evenodd" clip-rule="evenodd" d="M2.23083 0.589519C4.07082 0.259522 5.8808 0.249522 7.68079 0.589519C8.26078 0.689518 8.64078 1.06951 8.75078 1.64951C9.10077 3.46949 9.09077 5.28948 8.75078 7.10946C8.64078 7.67946 8.27078 8.11945 7.68079 8.16945C5.8808 8.33945 4.07082 8.32945 2.23083 8.16945C1.64084 8.11945 1.23084 7.68946 1.16084 7.10946C0.960845 5.28948 0.910846 3.46949 1.16084 1.64951C1.24084 1.06951 1.65084 0.689518 2.23083 0.589519Z" fill="#6FF1FF"/>
<path fill-rule="evenodd" clip-rule="evenodd" d="M2.2608 0.639527C4.08078 0.30953 5.87077 0.30953 7.65075 0.639527C8.21075 0.739526 8.59074 1.11952 8.70074 1.68952C9.04074 3.4795 9.04074 5.26949 8.70074 7.06947C8.59074 7.63946 8.22075 8.06946 7.65075 8.11946C5.87077 8.27946 4.08078 8.27946 2.2608 8.11946C1.6908 8.06946 1.28081 7.63946 1.21081 7.06947C1.01081 5.26949 0.970811 3.4795 1.21081 1.68952C1.29081 1.10952 1.7008 0.739526 2.2608 0.639527Z" fill="#61ECFF"/>
<path fill-rule="evenodd" clip-rule="evenodd" d="M2.3008 0.689522C4.09078 0.369525 5.86077 0.369525 7.61075 0.689522C8.17075 0.789521 8.54074 1.15952 8.64074 1.71951C8.99074 3.4895 8.98074 5.25948 8.64074 7.02947C8.54074 7.58946 8.18075 8.00946 7.61075 8.05946C5.86077 8.22945 4.09078 8.21946 2.3008 8.05946C1.7308 8.00946 1.33081 7.59946 1.27081 7.02947C1.07081 5.25948 1.03081 3.4895 1.27081 1.71951C1.34081 1.15952 1.7408 0.789521 2.3008 0.689522Z" fill="#53E8FF"/>
<path fill-rule="evenodd" clip-rule="evenodd" d="M2.34085 0.739559C4.10083 0.429561 5.85082 0.419562 7.5708 0.739559C8.1208 0.839558 8.49079 1.20955 8.59079 1.75955C8.93079 3.49953 8.92079 5.24952 8.59079 6.9895C8.49079 7.5395 8.1308 7.95949 7.5708 8.00949C5.85082 8.16949 4.10083 8.16949 2.34085 8.00949C1.78085 7.95949 1.38086 7.5495 1.32086 6.9895C1.12086 5.24952 1.08086 3.49953 1.32086 1.75955C1.40085 1.19955 1.79085 0.839558 2.34085 0.739559Z" fill="#46E3FF"/>
<path fill-rule="evenodd" clip-rule="evenodd" d="M2.38086 0.789505C4.12084 0.479508 5.84083 0.479508 7.54081 0.789505C8.08081 0.889504 8.4408 1.2495 8.5408 1.7995C8.8708 3.51948 8.8708 5.22947 8.5408 6.94945C8.4408 7.49945 8.09081 7.90944 7.54081 7.95944C5.84083 8.10944 4.12084 8.10944 2.38086 7.95944C1.83086 7.90944 1.44087 7.49945 1.37087 6.94945C1.18087 5.22947 1.14087 3.51948 1.37087 1.7995C1.45087 1.2495 1.83086 0.889504 2.38086 0.789505Z" fill="#38DFFF"/>
<path fill-rule="evenodd" clip-rule="evenodd" d="M2.42086 0.839542C4.13084 0.539545 5.82083 0.529545 7.50081 0.839542C8.03081 0.939541 8.3908 1.29954 8.4908 1.82953C8.8208 3.52952 8.8108 5.2195 8.4908 6.91949C8.3908 7.44948 8.04081 7.85948 7.50081 7.90948C5.82083 8.05948 4.13084 8.05948 2.42086 7.90948C1.87086 7.85948 1.49086 7.45948 1.43086 6.91949C1.24087 5.2195 1.20087 3.52952 1.43086 1.82953C1.50086 1.28954 1.88086 0.939541 2.42086 0.839542Z" fill="#2ADAFF"/>
<path fill-rule="evenodd" clip-rule="evenodd" d="M2.45084 0.889549C4.14083 0.589551 5.81081 0.589551 7.4608 0.889549C7.99079 0.989548 8.34079 1.33954 8.44079 1.86954C8.76079 3.53953 8.76079 5.20951 8.44079 6.8795C8.34079 7.39949 8.00079 7.79949 7.4608 7.84949C5.81081 7.99949 4.14083 7.99949 2.45084 7.84949C1.92085 7.79949 1.54085 7.40949 1.48085 6.8795C1.29085 5.20951 1.25085 3.53953 1.48085 1.86954C1.55085 1.33954 1.93085 0.989548 2.45084 0.889549Z" fill="#1CD5FF"/>
<path fill-rule="evenodd" clip-rule="evenodd" d="M2.4908 0.949546C4.16078 0.649549 5.80077 0.649549 7.43075 0.949546C7.94075 1.03955 8.29074 1.38954 8.39074 1.90954C8.70074 3.54952 8.70074 5.18951 8.39074 6.83949C8.29074 7.35949 7.95075 7.74949 7.43075 7.79949C5.80077 7.94948 4.16078 7.94948 2.4908 7.79949C1.9708 7.74949 1.5908 7.35949 1.5308 6.83949C1.35081 5.18951 1.31081 3.54952 1.5308 1.90954C1.6008 1.37954 1.9708 1.03955 2.4908 0.949546Z" fill="#0ED1FF"/>
<path fill-rule="evenodd" clip-rule="evenodd" d="M2.53084 0.999584C4.17083 0.709587 5.79081 0.699587 7.3908 0.999584C7.9008 1.08958 8.24079 1.42958 8.33079 1.93958C8.65079 3.55956 8.64079 5.17955 8.33079 6.79953C8.24079 7.30953 7.9108 7.69952 7.3908 7.74952C5.79081 7.88952 4.17083 7.88952 2.53084 7.74952C2.01085 7.69952 1.64085 7.31953 1.58085 6.79953C1.40085 5.17955 1.37085 3.55956 1.58085 1.93958C1.65085 1.42958 2.02085 1.08958 2.53084 0.999584Z" fill="#00CCFF"/>
<path fill-rule="evenodd" clip-rule="evenodd" d="M2.11086 0.429558C4.03084 0.0895613 5.92083 0.0895613 7.79081 0.429558C8.3908 0.539557 8.7908 0.939554 8.9008 1.53955C9.0708 2.39954 9.1608 3.24953 9.1708 4.10953C5.62083 2.65954 3.22085 6.5395 0.830872 4.09953C0.830872 3.23953 0.890871 2.38954 1.00087 1.53955C1.08087 0.929554 1.51087 0.539557 2.11086 0.429558Z" fill="white" fill-opacity="0.290196"/>
<path fill-rule="evenodd" clip-rule="evenodd" d="M2.05084 0.689575C2.46083 0.689575 2.80083 1.02957 2.80083 1.43957C2.80083 1.84956 2.46083 2.18956 2.05084 2.18956C1.63084 2.18956 1.30084 1.84956 1.30084 1.43957C1.30084 1.02957 1.63084 0.689575 2.05084 0.689575Z" fill="white"/>
<path fill-rule="evenodd" clip-rule="evenodd" d="M3.19086 0.369568C3.40086 0.369568 3.57086 0.539566 3.57086 0.739565C3.57086 0.949563 3.40086 1.11956 3.19086 1.11956C2.99086 1.11956 2.82086 0.949563 2.82086 0.739565C2.82086 0.539566 2.99086 0.369568 3.19086 0.369568Z" fill="white"/>
<path fill-rule="evenodd" clip-rule="evenodd" d="M7.97081 7.25952C8.22081 7.25952 8.4208 7.45952 8.4208 7.69952C8.4208 7.94952 8.22081 8.14951 7.97081 8.14951C7.72081 8.14951 7.52081 7.94952 7.52081 7.69952C7.52081 7.45952 7.72081 7.25952 7.97081 7.25952Z" fill="white"/>
<path d="M3.70086 6.73951C3.49086 6.82951 3.28086 6.87951 3.08086 6.80951C2.85087 6.71951 2.71087 6.51951 2.70087 6.10952V2.18955C2.70087 1.90955 2.79087 1.71955 2.97086 1.61955C3.13086 1.51956 3.34086 1.51956 3.57086 1.61955H3.58086L3.61086 1.63955L7.23083 3.72954L7.25083 3.73954L7.27083 3.75954C7.45082 3.90953 7.52082 4.06953 7.51082 4.23953V4.24953C7.50082 4.40953 7.41082 4.55953 7.26083 4.67953L7.24083 4.69953L7.21083 4.71953L3.74086 6.71951L3.72086 6.72951L3.70086 6.73951ZM3.30086 6.20951C3.31086 6.21951 3.37086 6.18951 3.45086 6.15951L6.81083 4.21953L3.33086 2.20955V6.10952C3.33086 6.18951 3.27086 6.20951 3.30086 6.20951ZM3.29086 2.15955C3.28086 2.16955 3.29086 2.16955 3.30086 2.16955C3.30086 2.15955 3.30086 2.15955 3.29086 2.15955Z" fill="#00B0DC"/>
<path fill-rule="evenodd" clip-rule="evenodd" d="M3.58087 6.4495C3.28087 6.5695 3.02087 6.6095 3.02087 6.1095V2.18954C3.02087 1.86954 3.17087 1.79954 3.45087 1.90954L7.07084 3.99952C7.25084 4.14952 7.22084 4.29952 7.06084 4.43952L3.58087 6.4495Z" fill="white"/>
<path fill-rule="evenodd" clip-rule="evenodd" d="M3.88087 5.86952C3.58087 5.98952 3.32087 6.02952 3.32087 5.52953V1.86956C3.27087 1.85956 3.23087 1.85956 3.20087 1.86956C3.14087 1.86956 3.10087 1.89956 3.07087 1.94956C3.04087 1.99956 3.02087 2.07956 3.02087 2.18956V6.10952C3.02087 6.27952 3.05087 6.38952 3.10087 6.44952C3.15087 6.49952 3.21087 6.52952 3.28087 6.51952C3.37087 6.51952 3.48087 6.48952 3.58087 6.44952L7.06084 4.43954C7.22084 4.30954 7.25084 4.15954 7.09084 4.01954L3.88087 5.86952Z" fill="black" fill-opacity="0.101961"/>
</svg>
