<svg width="293" height="104" viewBox="0 0 293 104" fill="none" xmlns="http://www.w3.org/2000/svg">
<path fill-rule="evenodd" clip-rule="evenodd" d="M7.87669 3.94897H286.828C290.239 3.94897 293 7.3717 293 11.5843V96.0115C293 100.224 290.239 103.647 286.828 103.647H7.87669C4.46593 103.647 1.70483 100.224 1.70483 96.0115V11.5843C1.70483 7.3717 4.46593 3.94897 7.87669 3.94897Z" fill="black" fill-opacity="0.101961"/>
<path fill-rule="evenodd" clip-rule="evenodd" d="M6.17185 1.57996H285.123C288.534 1.57996 291.295 5.00268 291.295 9.21526V93.6425C291.295 97.8551 288.534 101.278 285.123 101.278H6.17185C2.76109 101.278 0 97.8551 0 93.6425V9.21526C0 5.00268 2.76109 1.57996 6.17185 1.57996Z" fill="#E6E6E6"/>
<path fill-rule="evenodd" clip-rule="evenodd" d="M6.17185 0H285.123C288.534 0 291.295 3.42272 291.295 7.54755V92.0625C291.295 96.2751 288.534 99.6978 285.123 99.6978H6.17185C2.76109 99.6978 0 96.2751 0 92.0625V7.54755C0 3.42272 2.76109 0 6.17185 0Z" fill="white"/>
<path fill-rule="evenodd" clip-rule="evenodd" d="M9.98821 5.09033H282.118C285.285 5.09033 287.884 8.33753 287.884 12.2868V87.9378C287.884 91.8871 285.285 95.1343 282.118 95.1343H9.98821C6.82108 95.1343 4.22241 91.8871 4.22241 87.9378V12.2868C4.22241 8.33753 6.82108 5.09033 9.98821 5.09033Z" fill="#E6E6E6"/>
<path fill-rule="evenodd" clip-rule="evenodd" d="M8.68891 4.125H280.981C284.148 4.125 286.666 7.3722 286.666 11.2337V86.0071C286.666 89.9564 284.148 93.1159 280.981 93.1159H8.68891C5.52177 93.1159 2.9231 89.9564 2.9231 86.0071V11.2337C2.9231 7.3722 5.52177 4.125 8.68891 4.125Z" fill="#F1C383"/>
<path fill-rule="evenodd" clip-rule="evenodd" d="M8.6077 2.28186H279.763C282.849 2.28186 285.448 5.4413 285.448 9.30283V81.8821C285.448 85.7436 282.849 88.903 279.763 88.903H8.6077C5.44056 88.903 2.9231 85.7436 2.9231 81.8821V9.30283C2.9231 5.4413 5.44056 2.28186 8.6077 2.28186Z" fill="#FAEECC"/>
<path fill-rule="evenodd" clip-rule="evenodd" d="M9.50109 3.15942C99.2365 3.15942 189.053 3.15942 278.87 3.15942C281.956 3.15942 284.392 6.31886 284.392 10.0926C284.392 33.7884 284.392 57.3964 284.392 81.0922C284.392 84.8659 281.874 88.0254 278.87 88.0254C189.053 88.0254 99.2365 88.0254 9.50109 88.0254C6.41517 88.0254 3.89771 84.8659 3.89771 81.0922C3.89771 57.3964 3.89771 33.7884 3.89771 10.0926C3.89771 6.31886 6.41517 3.15942 9.50109 3.15942Z" fill="#FAEDC9"/>
<path fill-rule="evenodd" clip-rule="evenodd" d="M10.394 4.125C99.561 4.125 188.728 4.125 277.895 4.125C280.981 4.125 283.417 7.19667 283.417 10.9704C283.417 34.0518 283.417 57.1332 283.417 80.2146C283.417 83.9884 280.981 87.0601 277.895 87.0601C188.728 87.0601 99.561 87.0601 10.394 87.0601C7.38929 87.0601 4.87183 83.9884 4.87183 80.2146C4.87183 57.1332 4.87183 34.0518 4.87183 10.9704C4.87183 7.19667 7.38929 4.125 10.394 4.125Z" fill="#F9ECC6"/>
<path fill-rule="evenodd" clip-rule="evenodd" d="M11.2874 5.09033C99.886 5.09033 188.485 5.09033 277.002 5.09033C280.007 5.09033 282.443 8.07425 282.443 11.848C282.443 34.3152 282.443 56.87 282.443 79.3372C282.443 83.111 280.007 86.0949 277.002 86.0949C188.485 86.0949 99.886 86.0949 11.2874 86.0949C8.28269 86.0949 5.84644 83.111 5.84644 79.3372C5.84644 56.87 5.84644 34.3152 5.84644 11.848C5.84644 8.07425 8.28269 5.09033 11.2874 5.09033Z" fill="#F9EBC2"/>
<path fill-rule="evenodd" clip-rule="evenodd" d="M12.2623 5.96753C100.211 5.96753 188.16 5.96753 276.109 5.96753C279.032 5.96753 281.469 9.03921 281.469 12.7252C281.469 34.6658 281.469 56.6064 281.469 78.5469C281.469 82.1452 279.032 85.2169 276.109 85.2169C188.16 85.2169 100.211 85.2169 12.2623 85.2169C9.25755 85.2169 6.82129 82.1452 6.82129 78.5469C6.82129 56.6064 6.82129 34.6658 6.82129 12.7252C6.82129 9.03921 9.25755 5.96753 12.2623 5.96753Z" fill="#F8EABF"/>
<path fill-rule="evenodd" clip-rule="evenodd" d="M13.1554 6.93359C100.455 6.93359 187.835 6.93359 275.216 6.93359C278.139 6.93359 280.494 9.91751 280.494 13.5158C280.494 34.9297 280.494 56.2559 280.494 77.6699C280.494 81.2681 278.139 84.252 275.216 84.252C187.835 84.252 100.455 84.252 13.1554 84.252C10.2319 84.252 7.79565 81.2681 7.79565 77.6699C7.79565 56.2559 7.79565 34.9297 7.79565 13.5158C7.79565 9.91751 10.2319 6.93359 13.1554 6.93359Z" fill="#F8E9BC"/>
<path fill-rule="evenodd" clip-rule="evenodd" d="M14.0491 7.8988C100.78 7.8988 187.511 7.8988 274.241 7.8988C277.165 7.8988 279.52 10.795 279.52 14.3932C279.52 35.1928 279.52 55.9924 279.52 76.792C279.52 80.3902 277.165 83.2864 274.241 83.2864C187.511 83.2864 100.78 83.2864 14.0491 83.2864C11.2068 83.2864 8.77051 80.3902 8.77051 76.792C8.77051 55.9924 8.77051 35.1928 8.77051 14.3932C8.77051 10.795 11.1256 7.8988 14.0491 7.8988Z" fill="#F7E8B9"/>
<path fill-rule="evenodd" clip-rule="evenodd" d="M14.9421 8.77612C101.104 8.77612 187.267 8.77612 273.348 8.77612C276.19 8.77612 278.545 11.6723 278.545 15.2705C278.545 35.4558 278.545 55.7288 278.545 75.9141C278.545 79.5123 276.19 82.4085 273.348 82.4085C187.267 82.4085 101.104 82.4085 14.9421 82.4085C12.0998 82.4085 9.82593 79.5123 9.82593 75.9141C9.82593 55.7288 9.82593 35.4558 9.82593 15.2705C9.82593 11.6723 12.0998 8.77612 14.9421 8.77612Z" fill="#F7E7B6"/>
<path fill-rule="evenodd" clip-rule="evenodd" d="M15.9169 9.7417C101.43 9.7417 186.942 9.7417 272.455 9.7417C275.216 9.7417 277.571 12.6378 277.571 16.0606C277.571 35.7193 277.571 55.4658 277.571 75.1245C277.571 78.635 275.216 81.4433 272.455 81.4433C186.942 81.4433 101.43 81.4433 15.9169 81.4433C13.0746 81.4433 10.8008 78.635 10.8008 75.1245C10.8008 55.4658 10.8008 35.7193 10.8008 16.0606C10.8008 12.6378 13.0746 9.7417 15.9169 9.7417Z" fill="#F6E6B3"/>
<path fill-rule="evenodd" clip-rule="evenodd" d="M16.8101 10.7069C101.673 10.7069 186.617 10.7069 271.561 10.7069C274.322 10.7069 276.596 13.5153 276.596 16.938C276.596 36.0702 276.596 55.1147 276.596 74.2469C276.596 77.6696 274.322 80.478 271.561 80.478C186.617 80.478 101.673 80.478 16.8101 80.478C14.049 80.478 11.7751 77.6696 11.7751 74.2469C11.7751 55.1147 11.7751 36.0702 11.7751 16.938C11.7751 13.5153 14.049 10.7069 16.8101 10.7069Z" fill="#F6E5AF"/>
<path fill-rule="evenodd" clip-rule="evenodd" d="M17.703 11.5846C101.997 11.5846 186.292 11.5846 270.586 11.5846C273.347 11.5846 275.621 14.393 275.621 17.8157C275.621 36.3335 275.621 54.8514 275.621 73.3692C275.621 76.7919 273.347 79.6003 270.586 79.6003C186.292 79.6003 101.997 79.6003 17.703 79.6003C14.9419 79.6003 12.7493 76.7919 12.7493 73.3692C12.7493 54.8514 12.7493 36.3335 12.7493 17.8157C12.7493 14.393 14.9419 11.5846 17.703 11.5846Z" fill="#F5E4AC"/>
<path fill-rule="evenodd" clip-rule="evenodd" d="M18.5961 12.5498H269.693C272.373 12.5498 274.647 15.2704 274.647 18.6054V72.5792C274.647 75.9142 272.373 78.6348 269.693 78.6348H18.5961C15.9163 78.6348 13.7236 75.9142 13.7236 72.5792V18.6054C13.7236 15.2704 15.9163 12.5498 18.5961 12.5498Z" fill="#F5E3A9"/>
<path fill-rule="evenodd" clip-rule="evenodd" d="M9.01364 4.03711C11.6935 4.03711 13.8049 6.66995 13.8049 10.0049C13.8049 13.3398 11.6935 15.9727 9.01364 15.9727C6.3338 15.9727 4.22241 13.3398 4.22241 10.0049C4.22241 6.66995 6.3338 4.03711 9.01364 4.03711Z" fill="white"/>
<path fill-rule="evenodd" clip-rule="evenodd" d="M16.4035 3.33508C17.8652 3.33508 19.0834 4.82706 19.0834 6.58232C19.0834 8.42535 17.8652 9.91732 16.4035 9.91732C14.9418 9.91732 13.7236 8.42535 13.7236 6.58232C13.7236 4.82706 14.9418 3.33508 16.4035 3.33508Z" fill="white"/>
</svg>
