<svg width="500" height="164" viewBox="0 0 500 164" fill="none" xmlns="http://www.w3.org/2000/svg">
<path fill-rule="evenodd" clip-rule="evenodd" d="M13.442 6.23639H489.468C495.288 6.23639 500 11.6411 500 18.2929V151.608C500 158.26 495.288 163.664 489.468 163.664H13.442C7.62155 163.664 2.90979 158.26 2.90979 151.608V18.2929C2.90979 11.6411 7.62155 6.23639 13.442 6.23639Z" fill="black" fill-opacity="0.101961"/>
<path fill-rule="evenodd" clip-rule="evenodd" d="M10.5322 2.49438H486.558C492.379 2.49438 497.09 7.89905 497.09 14.5509V147.866C497.09 154.518 492.379 159.922 486.558 159.922H10.5322C4.71176 159.922 0 154.518 0 147.866V14.5509C0 7.89905 4.71176 2.49438 10.5322 2.49438Z" fill="#E6E6E6"/>
<path fill-rule="evenodd" clip-rule="evenodd" d="M10.5322 0H486.558C492.379 0 497.09 5.40466 497.09 12.0566V145.372C497.09 152.023 492.379 157.428 486.558 157.428H10.5322C4.71176 157.428 0 152.023 0 145.372V12.0566C0 5.40466 4.71176 0 10.5322 0Z" fill="white"/>
<path fill-rule="evenodd" clip-rule="evenodd" d="M17.0459 8.03802H481.431C486.836 8.03802 491.27 13.1655 491.27 19.4017V138.997C491.27 145.233 486.836 150.361 481.431 150.361H17.0459C11.6413 150.361 7.20667 145.233 7.20667 138.997V19.4017C7.20667 13.1655 11.6413 8.03802 17.0459 8.03802Z" fill="#E6E6E6"/>
<path fill-rule="evenodd" clip-rule="evenodd" d="M14.828 6.51294H479.49C484.895 6.51294 489.191 11.6404 489.191 17.8766V135.809C489.191 142.045 484.895 147.173 479.49 147.173H14.828C9.42336 147.173 4.98877 142.045 4.98877 135.809V17.8766C4.98877 11.6404 9.42336 6.51294 14.828 6.51294Z" fill="#F1C383"/>
<path fill-rule="evenodd" clip-rule="evenodd" d="M14.6894 3.60333H477.412C482.678 3.60333 487.112 8.59225 487.112 14.6898V129.435C487.112 135.533 482.678 140.521 477.412 140.521H14.6894C9.28478 140.521 4.98877 135.533 4.98877 129.435V14.6898C4.98877 8.59225 9.28478 3.60333 14.6894 3.60333Z" fill="#FAEECC"/>
<path fill-rule="evenodd" clip-rule="evenodd" d="M16.2137 5.12744C169.346 5.12744 322.616 5.12744 475.887 5.12744C481.153 5.12744 485.311 9.97778 485.311 16.0753C485.311 53.3537 485.311 90.632 485.311 128.049C485.311 134.008 481.015 138.997 475.887 138.997C322.616 138.997 169.346 138.997 16.2137 138.997C10.9476 138.997 6.65161 134.008 6.65161 128.049C6.65161 90.632 6.65161 53.3537 6.65161 16.0753C6.65161 9.97778 10.9476 5.12744 16.2137 5.12744Z" fill="#FAEDC9"/>
<path fill-rule="evenodd" clip-rule="evenodd" d="M17.7381 6.51294C169.9 6.51294 322.062 6.51294 474.224 6.51294C479.49 6.51294 483.648 11.3633 483.648 17.3223C483.648 53.7691 483.648 90.2159 483.648 126.663C483.648 132.622 479.49 137.472 474.224 137.472C322.062 137.472 169.9 137.472 17.7381 137.472C12.6106 137.472 8.31458 132.622 8.31458 126.663C8.31458 90.2159 8.31458 53.7691 8.31458 17.3223C8.31458 11.3633 12.6106 6.51294 17.7381 6.51294Z" fill="#F9ECC6"/>
<path fill-rule="evenodd" clip-rule="evenodd" d="M19.2623 8.03802C170.454 8.03802 321.646 8.03802 472.7 8.03802C477.827 8.03802 481.985 12.8884 481.985 18.7088C481.985 54.3241 481.985 89.8009 481.985 125.278C481.985 131.237 477.827 136.087 472.7 136.087C321.646 136.087 170.454 136.087 19.2623 136.087C14.1348 136.087 9.97742 131.237 9.97742 125.278C9.97742 89.8009 9.97742 54.3241 9.97742 18.7088C9.97742 12.8884 14.1348 8.03802 19.2623 8.03802Z" fill="#F9EBC2"/>
<path fill-rule="evenodd" clip-rule="evenodd" d="M20.9253 9.56219C171.009 9.56219 321.092 9.56219 471.175 9.56219C476.164 9.56219 480.322 14.274 480.322 20.0944C480.322 54.7396 480.322 89.3849 480.322 124.03C480.322 129.851 476.164 134.562 471.175 134.562C321.092 134.562 171.009 134.562 20.9253 134.562C15.7978 134.562 11.6404 129.851 11.6404 124.03C11.6404 89.3849 11.6404 54.7396 11.6404 20.0944C11.6404 14.274 15.7978 9.56219 20.9253 9.56219Z" fill="#F8EABF"/>
<path fill-rule="evenodd" clip-rule="evenodd" d="M22.4498 10.9477C171.424 10.9477 320.538 10.9477 469.651 10.9477C474.64 10.9477 478.659 15.6594 478.659 21.3413C478.659 55.1551 478.659 88.9688 478.659 122.644C478.659 128.326 474.64 133.038 469.651 133.038C320.538 133.038 171.424 133.038 22.4498 133.038C17.4609 133.038 13.3035 128.326 13.3035 122.644C13.3035 88.9688 13.3035 55.1551 13.3035 21.3413C13.3035 15.6594 17.4609 10.9477 22.4498 10.9477Z" fill="#F8E9BC"/>
<path fill-rule="evenodd" clip-rule="evenodd" d="M23.974 12.4728C171.979 12.4728 319.983 12.4728 467.988 12.4728C472.977 12.4728 476.995 17.046 476.995 22.7278C476.995 55.5715 476.995 88.4152 476.995 121.259C476.995 126.941 472.977 131.652 467.988 131.652C319.983 131.652 171.979 131.652 23.974 131.652C19.1236 131.652 14.9662 126.941 14.9662 121.259C14.9662 88.4152 14.9662 55.5715 14.9662 22.7278C14.9662 17.046 18.985 12.4728 23.974 12.4728Z" fill="#F7E8B9"/>
<path fill-rule="evenodd" clip-rule="evenodd" d="M25.4986 13.9969C172.533 13.9969 319.568 13.9969 466.464 13.9969C471.314 13.9969 475.333 18.5701 475.333 24.1133C475.333 55.987 475.333 87.9992 475.333 120.011C475.333 125.555 471.314 130.128 466.464 130.128C319.568 130.128 172.533 130.128 25.4986 130.128C20.6482 130.128 16.7679 125.555 16.7679 120.011C16.7679 87.9992 16.7679 55.987 16.7679 24.1133C16.7679 18.5701 20.6482 13.9969 25.4986 13.9969Z" fill="#F7E7B6"/>
<path fill-rule="evenodd" clip-rule="evenodd" d="M27.1614 15.3824C173.087 15.3824 319.013 15.3824 464.939 15.3824C469.651 15.3824 473.67 19.9556 473.67 25.4988C473.67 56.541 473.67 87.5831 473.67 118.625C473.67 124.169 469.651 128.603 464.939 128.603C319.013 128.603 173.087 128.603 27.1614 128.603C22.3111 128.603 18.4308 124.169 18.4308 118.625C18.4308 87.5831 18.4308 56.541 18.4308 25.4988C18.4308 19.9556 22.3111 15.3824 27.1614 15.3824Z" fill="#F6E6B3"/>
<path fill-rule="evenodd" clip-rule="evenodd" d="M28.6858 16.9067C173.503 16.9067 318.459 16.9067 463.415 16.9067C468.126 16.9067 472.007 21.3413 472.007 26.7459C472.007 56.9566 472.007 87.1673 472.007 117.239C472.007 122.783 468.126 127.217 463.415 127.217C318.459 127.217 173.503 127.217 28.6858 127.217C23.974 127.217 20.0938 122.783 20.0938 117.239C20.0938 87.1673 20.0938 56.9566 20.0938 26.7459C20.0938 21.3413 23.974 16.9067 28.6858 16.9067Z" fill="#F6E5AF"/>
<path fill-rule="evenodd" clip-rule="evenodd" d="M30.21 18.4308C174.057 18.4308 317.904 18.4308 461.751 18.4308C466.463 18.4308 470.343 22.7268 470.343 28.1315C470.343 57.3721 470.343 86.6127 470.343 115.992C470.343 121.258 466.463 125.693 461.751 125.693C317.904 125.693 174.057 125.693 30.21 125.693C25.4983 125.693 21.7566 121.258 21.7566 115.992C21.7566 86.6127 21.7566 57.3721 21.7566 28.1315C21.7566 22.7268 25.4983 18.4308 30.21 18.4308Z" fill="#F5E4AC"/>
<path fill-rule="evenodd" clip-rule="evenodd" d="M31.7344 19.8172H460.227C464.8 19.8172 468.681 24.1132 468.681 29.5179V114.607C468.681 119.873 464.8 124.169 460.227 124.169H31.7344C27.1612 124.169 23.4196 119.873 23.4196 114.607V29.5179C23.4196 24.1132 27.1612 19.8172 31.7344 19.8172Z" fill="#F5E3A9"/>
<path fill-rule="evenodd" clip-rule="evenodd" d="M477.273 122.09C480.183 122.09 482.539 124.862 482.539 128.188C482.539 131.652 480.183 134.285 477.273 134.285C474.363 134.285 472.007 131.652 472.007 128.188C472.007 124.862 474.363 122.09 477.273 122.09Z" fill="white"/>
<path fill-rule="evenodd" clip-rule="evenodd" d="M469.096 128.326C470.759 128.326 472.007 129.85 472.007 131.652C472.007 133.453 470.759 134.978 469.096 134.978C467.572 134.978 466.325 133.453 466.325 131.652C466.325 129.85 467.572 128.326 469.096 128.326Z" fill="white"/>
<path fill-rule="evenodd" clip-rule="evenodd" d="M15.3829 6.37512C19.9561 6.37512 23.5592 10.6711 23.5592 15.7986C23.5592 21.0647 19.9561 25.2221 15.3829 25.2221C10.8098 25.2221 7.20667 21.0647 7.20667 15.7986C7.20667 10.6711 10.8098 6.37512 15.3829 6.37512Z" fill="white"/>
<path fill-rule="evenodd" clip-rule="evenodd" d="M27.9927 5.26624C30.4872 5.26624 32.5659 7.62211 32.5659 10.5323C32.5659 13.3039 30.4872 15.6598 27.9927 15.6598C25.4983 15.6598 23.4196 13.3039 23.4196 10.5323C23.4196 7.62211 25.4983 5.26624 27.9927 5.26624Z" fill="white"/>
<path fill-rule="evenodd" clip-rule="evenodd" d="M30.7652 15.2438H121.259C127.633 15.2438 132.899 20.787 132.899 27.5775V116.824C132.899 123.614 127.633 129.296 121.259 129.296H30.7652C24.2519 129.296 19.1244 123.753 19.1244 116.824V27.5775C19.1244 20.787 24.2519 15.2438 30.7652 15.2438Z" fill="#EFB469"/>
<path fill-rule="evenodd" clip-rule="evenodd" d="M35.0608 21.064H116.824C123.06 21.064 128.049 26.4686 128.049 33.1205V115.161C128.049 121.674 123.06 127.078 116.824 127.078H35.0608C28.8246 127.078 23.8357 121.674 23.8357 115.161V33.1205C23.8357 26.4686 28.8246 21.064 35.0608 21.064Z" fill="#F1C383"/>
<path fill-rule="evenodd" clip-rule="evenodd" d="M35.6157 23.4196C62.5004 23.4196 89.3851 23.4196 116.408 23.4196C122.506 23.4196 127.495 28.6857 127.495 35.199C127.495 61.8066 127.495 88.4141 127.495 115.022C127.495 121.535 122.506 126.801 116.408 126.801C89.3851 126.801 62.5004 126.801 35.6157 126.801C29.5181 126.801 24.5292 121.535 24.5292 115.022C24.5292 88.4141 24.5292 61.8066 24.5292 35.199C24.5292 28.6857 29.5181 23.4196 35.6157 23.4196Z" fill="#F1C585"/>
<path fill-rule="evenodd" clip-rule="evenodd" d="M36.0321 25.6375C62.6397 25.6375 89.2473 25.6375 115.855 25.6375C121.952 25.6375 126.803 30.9035 126.803 37.4168C126.803 63.1929 126.803 89.1076 126.803 114.884C126.803 121.397 121.952 126.663 115.855 126.663C89.2473 126.663 62.6397 126.663 36.0321 126.663C30.0731 126.663 25.0842 121.397 25.0842 114.884C25.0842 89.1076 25.0842 63.1929 25.0842 37.4168C25.0842 30.9035 30.0731 25.6375 36.0321 25.6375Z" fill="#F1C786"/>
<path fill-rule="evenodd" clip-rule="evenodd" d="M36.5856 27.9931C62.7774 27.9931 89.1078 27.9931 115.3 27.9931C121.259 27.9931 126.248 33.2592 126.248 39.4953C126.248 64.5785 126.248 89.6617 126.248 114.745C126.248 121.12 121.259 126.386 115.3 126.386C89.1078 126.386 62.7774 126.386 36.5856 126.386C30.6266 126.386 25.7762 121.12 25.7762 114.745C25.7762 89.6617 25.7762 64.5785 25.7762 39.4953C25.7762 33.2592 30.6266 27.9931 36.5856 27.9931Z" fill="#F2CA88"/>
<path fill-rule="evenodd" clip-rule="evenodd" d="M37.1404 30.3488C63.055 30.3488 88.9697 30.3488 114.884 30.3488C120.705 30.3488 125.555 35.4763 125.555 41.7124C125.555 66.1027 125.555 90.3544 125.555 114.745C125.555 120.981 120.705 126.108 114.884 126.108C88.9697 126.108 63.055 126.108 37.1404 126.108C31.1814 126.108 26.3311 120.981 26.3311 114.745C26.3311 90.3544 26.3311 66.1027 26.3311 41.7124C26.3311 35.4763 31.1814 30.3488 37.1404 30.3488Z" fill="#F2CC8A"/>
<path fill-rule="evenodd" clip-rule="evenodd" d="M37.5551 32.5665C63.1926 32.5665 88.6915 32.5665 114.329 32.5665C120.149 32.5665 125 37.694 125 43.7915C125 67.4889 125 91.0477 125 114.606C125 120.843 120.149 125.832 114.329 125.832C88.6915 125.832 63.1926 125.832 37.5551 125.832C31.7347 125.832 27.0229 120.843 27.0229 114.606C27.0229 91.0477 27.0229 67.4889 27.0229 43.7915C27.0229 37.694 31.7347 32.5665 37.5551 32.5665Z" fill="#F2CE8B"/>
<path fill-rule="evenodd" clip-rule="evenodd" d="M38.1099 34.9222C63.3317 34.9222 88.5534 34.9222 113.775 34.9222C119.596 34.9222 124.307 39.9111 124.307 46.0087C124.307 68.8745 124.307 91.6018 124.307 114.468C124.307 120.565 119.596 125.693 113.775 125.693C88.5534 125.693 63.3317 125.693 38.1099 125.693C32.2895 125.693 27.5778 120.565 27.5778 114.468C27.5778 91.6018 27.5778 68.8745 27.5778 46.0087C27.5778 39.9111 32.2895 34.9222 38.1099 34.9222Z" fill="#F2D08D"/>
<path fill-rule="evenodd" clip-rule="evenodd" d="M38.6649 37.1391C63.471 37.1391 88.4155 37.1391 113.36 37.1391C119.042 37.1391 123.615 42.128 123.615 48.2256C123.615 70.26 123.615 92.2944 123.615 114.329C123.615 120.426 119.042 125.415 113.36 125.415C88.4155 125.415 63.471 125.415 38.6649 125.415C32.9831 125.415 28.2714 120.426 28.2714 114.329C28.2714 92.2944 28.2714 70.26 28.2714 48.2256C28.2714 42.128 32.9831 37.1391 38.6649 37.1391Z" fill="#F2D28E"/>
<path fill-rule="evenodd" clip-rule="evenodd" d="M39.0812 39.4948C63.7486 39.4948 88.2774 39.4948 112.806 39.4948C118.488 39.4948 123.061 44.3451 123.061 50.3041C123.061 71.6456 123.061 92.987 123.061 114.329C123.061 120.288 118.488 125.138 112.806 125.138C88.2774 125.138 63.7486 125.138 39.0812 125.138C33.5379 125.138 28.8262 120.288 28.8262 114.329C28.8262 92.987 28.8262 71.6456 28.8262 50.3041C28.8262 44.3451 33.5379 39.4948 39.0812 39.4948Z" fill="#F2D490"/>
<path fill-rule="evenodd" clip-rule="evenodd" d="M39.6345 41.7126C63.8862 41.7126 88.1379 41.7126 112.39 41.7126C117.933 41.7126 122.367 46.5629 122.367 52.5219C122.367 73.0319 122.367 93.5419 122.367 114.19C122.367 120.011 117.933 124.861 112.39 124.861C88.1379 124.861 63.8862 124.861 39.6345 124.861C34.0912 124.861 29.5181 120.011 29.5181 114.19C29.5181 93.5419 29.5181 73.0319 29.5181 52.5219C29.5181 46.5629 34.0912 41.7126 39.6345 41.7126Z" fill="#F3D792"/>
<path fill-rule="evenodd" clip-rule="evenodd" d="M40.1878 44.0682C64.0237 44.0682 87.8597 44.0682 111.834 44.0682C117.239 44.0682 121.812 48.78 121.812 54.6004C121.812 74.4175 121.812 94.2346 121.812 114.052C121.812 119.872 117.239 124.722 111.834 124.722C87.8597 124.722 64.0237 124.722 40.1878 124.722C34.6446 124.722 30.21 119.872 30.21 114.052C30.21 94.2346 30.21 74.4175 30.21 54.6004C30.21 48.78 34.6446 44.0682 40.1878 44.0682Z" fill="#F3D993"/>
<path fill-rule="evenodd" clip-rule="evenodd" d="M40.604 46.2861H111.28C116.685 46.2861 121.12 50.9978 121.12 56.8182V113.914C121.12 119.734 116.685 124.446 111.28 124.446H40.604C35.1994 124.446 30.7648 119.734 30.7648 113.914V56.8182C30.7648 50.9978 35.1994 46.2861 40.604 46.2861Z" fill="#F3DB95"/>
<path fill-rule="evenodd" clip-rule="evenodd" d="M154.796 55.8482H466.187C472.701 55.8482 477.828 61.3914 477.828 68.3205V116.824C477.828 123.614 472.562 129.296 466.187 129.296H154.796C148.421 129.296 143.155 123.753 143.155 116.824V68.3205C143.155 61.3914 148.421 55.8482 154.796 55.8482Z" fill="#EFB469"/>
<path fill-rule="evenodd" clip-rule="evenodd" d="M159.23 61.8072H461.891C468.127 61.8072 473.116 67.2119 473.116 73.7252V115.161C473.116 121.674 467.989 127.079 461.891 127.079H159.23C152.994 127.079 148.005 121.674 148.005 115.161V73.7252C148.005 67.2119 152.994 61.8072 159.23 61.8072Z" fill="#F1C383"/>
<path fill-rule="evenodd" clip-rule="evenodd" d="M159.646 64.1628C260.256 64.1628 360.866 64.1628 461.337 64.1628C467.435 64.1628 472.424 69.4289 472.424 75.9422C472.424 88.9689 472.424 101.995 472.424 115.022C472.424 121.535 467.435 126.801 461.337 126.801C360.866 126.801 260.256 126.801 159.646 126.801C153.549 126.801 148.56 121.535 148.56 115.022C148.56 101.995 148.56 88.9689 148.56 75.9422C148.56 69.4289 153.549 64.1628 159.646 64.1628Z" fill="#F1C585"/>
<path fill-rule="evenodd" clip-rule="evenodd" d="M160.201 66.3798C260.395 66.3798 360.59 66.3798 460.922 66.3798C466.881 66.3798 471.87 71.6458 471.87 78.0206C471.87 90.3543 471.87 102.688 471.87 114.883C471.87 121.396 466.881 126.663 460.922 126.663C360.59 126.663 260.395 126.663 160.201 126.663C154.104 126.663 149.253 121.396 149.253 114.883C149.253 102.688 149.253 90.3543 149.253 78.0206C149.253 71.6458 154.104 66.3798 160.201 66.3798Z" fill="#F1C786"/>
<path fill-rule="evenodd" clip-rule="evenodd" d="M160.755 68.7363C260.533 68.7363 360.45 68.7363 460.367 68.7363C466.326 68.7363 471.176 73.8638 471.176 80.2386C471.176 91.7408 471.176 103.243 471.176 114.745C471.176 121.12 466.326 126.386 460.367 126.386C360.45 126.386 260.533 126.386 160.755 126.386C154.796 126.386 149.807 121.12 149.807 114.745C149.807 103.243 149.807 91.7408 149.807 80.2386C149.807 73.8638 154.657 68.7363 160.755 68.7363Z" fill="#F2CA88"/>
<path fill-rule="evenodd" clip-rule="evenodd" d="M161.171 70.9532C260.811 70.9532 360.312 70.9532 459.813 70.9532C465.772 70.9532 470.623 76.0807 470.623 82.3169C470.623 93.1262 470.623 103.936 470.623 114.745C470.623 120.981 465.772 126.109 459.813 126.109C360.312 126.109 260.811 126.109 161.171 126.109C155.351 126.109 150.5 120.981 150.5 114.745C150.5 103.936 150.5 93.1262 150.5 82.3169C150.5 76.0807 155.351 70.9532 161.171 70.9532Z" fill="#F2CC8A"/>
<path fill-rule="evenodd" clip-rule="evenodd" d="M161.724 73.3089C260.948 73.3089 360.172 73.3089 459.396 73.3089C465.217 73.3089 469.928 78.2978 469.928 84.534C469.928 94.5118 469.928 104.628 469.928 114.606C469.928 120.842 465.217 125.831 459.396 125.831C360.172 125.831 260.948 125.831 161.724 125.831C155.904 125.831 151.053 120.842 151.053 114.606C151.053 104.628 151.053 94.5118 151.053 84.534C151.053 78.2978 155.904 73.3089 161.724 73.3089Z" fill="#F2CE8B"/>
<path fill-rule="evenodd" clip-rule="evenodd" d="M162.141 75.5267C261.087 75.5267 360.034 75.5267 458.843 75.5267C464.663 75.5267 469.375 80.5156 469.375 86.7517C469.375 95.8981 469.375 105.183 469.375 114.468C469.375 120.566 464.663 125.693 458.843 125.693C360.034 125.693 261.087 125.693 162.141 125.693C156.459 125.693 151.747 120.566 151.747 114.468C151.747 105.183 151.747 95.8981 151.747 86.7517C151.747 80.5156 156.459 75.5267 162.141 75.5267Z" fill="#F2D08D"/>
<path fill-rule="evenodd" clip-rule="evenodd" d="M162.695 77.8823C261.226 77.8823 359.758 77.8823 458.289 77.8823C463.971 77.8823 468.682 82.7327 468.682 88.8302C468.682 97.4223 468.682 105.876 468.682 114.329C468.682 120.427 463.971 125.416 458.289 125.416C359.758 125.416 261.226 125.416 162.695 125.416C157.014 125.416 152.302 120.427 152.302 114.329C152.302 105.876 152.302 97.4223 152.302 88.8302C152.302 82.7327 157.014 77.8823 162.695 77.8823Z" fill="#F2D28E"/>
<path fill-rule="evenodd" clip-rule="evenodd" d="M163.249 80.0992C261.364 80.0992 359.618 80.0992 457.872 80.0992C463.415 80.0992 468.127 85.0882 468.127 91.0471C468.127 98.8077 468.127 106.568 468.127 114.329C468.127 120.288 463.415 125.138 457.872 125.138C359.618 125.138 261.364 125.138 163.249 125.138C157.567 125.138 152.994 120.288 152.994 114.329C152.994 106.568 152.994 98.8077 152.994 91.0471C152.994 84.9496 157.567 80.0992 163.249 80.0992Z" fill="#F2D490"/>
<path fill-rule="evenodd" clip-rule="evenodd" d="M163.665 82.4558C261.642 82.4558 359.48 82.4558 457.318 82.4558C462.862 82.4558 467.435 87.3061 467.435 93.1266C467.435 100.194 467.435 107.123 467.435 114.191C467.435 120.011 462.862 124.862 457.318 124.862C359.48 124.862 261.642 124.862 163.665 124.862C158.122 124.862 153.687 120.011 153.687 114.191C153.687 107.123 153.687 100.194 153.687 93.1266C153.687 87.3061 158.122 82.4558 163.665 82.4558Z" fill="#F3D792"/>
<path fill-rule="evenodd" clip-rule="evenodd" d="M164.218 84.6727C261.779 84.6727 359.34 84.6727 456.763 84.6727C462.306 84.6727 466.741 89.5231 466.741 95.3435C466.741 101.58 466.741 107.816 466.741 114.052C466.741 119.872 462.306 124.723 456.763 124.723C359.34 124.723 261.779 124.723 164.218 124.723C158.814 124.723 154.24 119.872 154.24 114.052C154.24 107.816 154.24 101.58 154.24 95.3435C154.24 89.5231 158.814 84.6727 164.218 84.6727Z" fill="#F3D993"/>
<path fill-rule="evenodd" clip-rule="evenodd" d="M164.773 87.0293H456.348C461.752 87.0293 466.187 91.7411 466.187 97.4229V113.914C466.187 119.734 461.752 124.446 456.348 124.446H164.773C159.369 124.446 154.934 119.734 154.934 113.914V97.4229C154.934 91.7411 159.369 87.0293 164.773 87.0293Z" fill="#F3DB95"/>
<path fill-rule="evenodd" clip-rule="evenodd" d="M331.07 14.4131H469.235C473.116 14.4131 476.165 17.739 476.165 21.7579V41.8521C476.165 45.871 473.116 49.0584 469.235 49.0584H331.07C327.328 49.0584 324.28 45.871 324.28 41.8521V21.7579C324.28 17.739 327.328 14.4131 331.07 14.4131Z" fill="#EFB469"/>
<path fill-rule="evenodd" clip-rule="evenodd" d="M333.704 18.0164H466.742C470.345 18.0164 473.394 21.2037 473.394 24.9454V40.7437C473.394 44.6239 470.345 47.8113 466.742 47.8113H333.704C330.101 47.8113 327.052 44.6239 327.052 40.7437V24.9454C327.052 21.0651 330.101 18.0164 333.704 18.0164Z" fill="#F1C383"/>
<path fill-rule="evenodd" clip-rule="evenodd" d="M333.98 19.2631C378.187 19.2631 422.256 19.2631 466.463 19.2631C470.067 19.2631 472.977 22.4505 472.977 26.3308C472.977 31.0425 472.977 35.8929 472.977 40.7432C472.977 44.6235 470.067 47.6722 466.463 47.6722C422.256 47.6722 378.187 47.6722 333.98 47.6722C330.377 47.6722 327.467 44.6235 327.467 40.7432C327.467 35.8929 327.467 31.0425 327.467 26.3308C327.467 22.4505 330.377 19.2631 333.98 19.2631Z" fill="#F1C585"/>
<path fill-rule="evenodd" clip-rule="evenodd" d="M334.258 20.6486C378.188 20.6486 422.257 20.6486 466.187 20.6486C469.651 20.6486 472.561 23.6974 472.561 27.5777C472.561 31.8737 472.561 36.3083 472.561 40.7429C472.561 44.4846 469.651 47.5333 466.187 47.5333C422.257 47.5333 378.188 47.5333 334.258 47.5333C330.793 47.5333 327.883 44.4846 327.883 40.7429C327.883 36.3083 327.883 31.8737 327.883 27.5777C327.883 23.6974 330.793 20.6486 334.258 20.6486Z" fill="#F1C786"/>
<path fill-rule="evenodd" clip-rule="evenodd" d="M334.533 22.0349C378.325 22.0349 422.117 22.0349 465.908 22.0349C469.373 22.0349 472.283 25.0837 472.283 28.8254C472.283 32.7057 472.283 36.7245 472.283 40.6048C472.283 44.3465 469.373 47.3952 465.908 47.3952C422.117 47.3952 378.325 47.3952 334.533 47.3952C331.069 47.3952 328.159 44.3465 328.159 40.6048C328.159 36.7245 328.159 32.7057 328.159 28.8254C328.159 25.0837 331.069 22.0349 334.533 22.0349Z" fill="#F2CA88"/>
<path fill-rule="evenodd" clip-rule="evenodd" d="M334.949 23.2817C378.464 23.2817 421.978 23.2817 465.493 23.2817C468.957 23.2817 471.868 26.3305 471.868 30.0721C471.868 33.5367 471.868 37.0012 471.868 40.6043C471.868 44.2074 468.957 47.2562 465.493 47.2562C421.978 47.2562 378.464 47.2562 334.949 47.2562C331.485 47.2562 328.575 44.2074 328.575 40.6043C328.575 37.0012 328.575 33.5367 328.575 30.0721C328.575 26.3305 331.346 23.2817 334.949 23.2817Z" fill="#F2CC8A"/>
<path fill-rule="evenodd" clip-rule="evenodd" d="M335.227 24.6681C378.603 24.6681 421.84 24.6681 465.216 24.6681C468.681 24.6681 471.452 27.7169 471.452 31.32C471.452 34.3688 471.452 37.4175 471.452 40.4663C471.452 44.0694 468.681 47.1182 465.216 47.1182C421.84 47.1182 378.603 47.1182 335.227 47.1182C331.763 47.1182 328.991 44.208 328.991 40.4663C328.991 37.4175 328.991 34.3688 328.991 31.32C328.991 27.7169 331.763 24.6681 335.227 24.6681Z" fill="#F2CE8B"/>
<path fill-rule="evenodd" clip-rule="evenodd" d="M335.504 26.0536C378.603 26.0536 421.84 26.0536 464.939 26.0536C468.404 26.0536 471.175 28.9638 471.175 32.5669C471.175 35.1999 471.175 37.833 471.175 40.466C471.175 44.0691 468.404 46.9793 464.939 46.9793C421.84 46.9793 378.603 46.9793 335.504 46.9793C332.04 46.9793 329.268 44.0691 329.268 40.466C329.268 37.833 329.268 35.1999 329.268 32.5669C329.268 28.9638 332.04 26.0536 335.504 26.0536Z" fill="#F2D08D"/>
<path fill-rule="evenodd" clip-rule="evenodd" d="M335.782 27.439C378.742 27.439 421.702 27.439 464.663 27.439C467.988 27.439 470.76 30.3492 470.76 33.8137C470.76 36.031 470.76 38.2483 470.76 40.327C470.76 43.9301 467.988 46.8403 464.663 46.8403C421.702 46.8403 378.742 46.8403 335.782 46.8403C332.456 46.8403 329.685 43.9301 329.685 40.327C329.685 38.2483 329.685 36.031 329.685 33.8137C329.685 30.3492 332.456 27.439 335.782 27.439Z" fill="#F2D28E"/>
<path fill-rule="evenodd" clip-rule="evenodd" d="M336.06 28.6866C378.881 28.6866 421.564 28.6866 464.386 28.6866C467.712 28.6866 470.345 31.5968 470.345 35.2C470.345 36.8629 470.345 38.5259 470.345 40.3275C470.345 43.792 467.712 46.7022 464.386 46.7022C421.564 46.7022 378.881 46.7022 336.06 46.7022C332.734 46.7022 330.101 43.792 330.101 40.3275C330.101 38.5259 330.101 36.8629 330.101 35.2C330.101 31.5968 332.734 28.6866 336.06 28.6866Z" fill="#F2D490"/>
<path fill-rule="evenodd" clip-rule="evenodd" d="M336.335 30.0721C378.88 30.0721 421.563 30.0721 464.107 30.0721C467.294 30.0721 470.066 32.9823 470.066 36.4469C470.066 37.6941 470.066 38.9413 470.066 40.1886C470.066 43.6531 467.294 46.5633 464.107 46.5633C421.563 46.5633 378.88 46.5633 336.335 46.5633C333.148 46.5633 330.376 43.6531 330.376 40.1886C330.376 38.9413 330.376 37.6941 330.376 36.4469C330.376 32.9823 333.148 30.0721 336.335 30.0721Z" fill="#F3D792"/>
<path fill-rule="evenodd" clip-rule="evenodd" d="M336.613 31.4584C379.019 31.4584 421.424 31.4584 463.83 31.4584C467.018 31.4584 469.651 34.2301 469.651 37.6946C469.651 38.5261 469.651 39.3576 469.651 40.189C469.651 43.6536 467.018 46.4252 463.83 46.4252C421.424 46.4252 379.019 46.4252 336.613 46.4252C333.426 46.4252 330.792 43.6536 330.792 40.189C330.792 39.3576 330.792 38.5261 330.792 37.6946C330.792 34.2301 333.426 31.4584 336.613 31.4584Z" fill="#F3D993"/>
<path fill-rule="evenodd" clip-rule="evenodd" d="M337.029 32.8439H463.415C466.602 32.8439 469.235 35.6156 469.235 38.9415V40.0501C469.235 43.5147 466.602 46.2863 463.415 46.2863H337.029C333.842 46.2863 331.209 43.5147 331.209 40.0501V38.9415C331.209 35.6156 333.842 32.8439 337.029 32.8439Z" fill="#F3DB95"/>
<path fill-rule="evenodd" clip-rule="evenodd" d="M152.301 14.4131H310.699C315.133 14.4131 318.598 17.739 318.598 21.7579V41.8521C318.598 45.871 315.133 49.0584 310.699 49.0584H152.301C148.005 49.0584 144.402 45.871 144.402 41.8521V21.7579C144.402 17.739 148.005 14.4131 152.301 14.4131Z" fill="#EFB469"/>
<path fill-rule="evenodd" clip-rule="evenodd" d="M155.211 18.0164H307.789C311.946 18.0164 315.411 21.2037 315.411 24.9454V40.7437C315.411 44.6239 311.946 47.8113 307.789 47.8113H155.211C151.053 47.8113 147.728 44.6239 147.728 40.7437V24.9454C147.728 21.0651 151.053 18.0164 155.211 18.0164Z" fill="#F1C383"/>
<path fill-rule="evenodd" clip-rule="evenodd" d="M155.627 19.2631C206.209 19.2631 256.791 19.2631 307.512 19.2631C311.669 19.2631 314.995 22.4505 314.995 26.3308C314.995 31.0425 314.995 35.8929 314.995 40.7432C314.995 44.6235 311.669 47.6722 307.512 47.6722C256.791 47.6722 206.209 47.6722 155.627 47.6722C151.47 47.6722 148.144 44.6235 148.144 40.7432C148.144 35.8929 148.144 31.0425 148.144 26.3308C148.144 22.4505 151.47 19.2631 155.627 19.2631Z" fill="#F1C585"/>
<path fill-rule="evenodd" clip-rule="evenodd" d="M155.905 20.6486C206.348 20.6486 256.792 20.6486 307.097 20.6486C311.254 20.6486 314.58 23.6974 314.58 27.5777C314.58 31.8737 314.58 36.3083 314.58 40.7429C314.58 44.4846 311.254 47.5333 307.097 47.5333C256.792 47.5333 206.348 47.5333 155.905 47.5333C151.886 47.5333 148.56 44.4846 148.56 40.7429C148.56 36.3083 148.56 31.8737 148.56 27.5777C148.56 23.6974 151.886 20.6486 155.905 20.6486Z" fill="#F1C786"/>
<path fill-rule="evenodd" clip-rule="evenodd" d="M156.321 22.0349C206.487 22.0349 256.653 22.0349 306.82 22.0349C310.839 22.0349 314.165 25.0837 314.165 28.8254C314.165 32.7057 314.165 36.7245 314.165 40.6048C314.165 44.3465 310.839 47.3952 306.82 47.3952C256.653 47.3952 206.487 47.3952 156.321 47.3952C152.302 47.3952 148.976 44.3465 148.976 40.6048C148.976 36.7245 148.976 32.7057 148.976 28.8254C148.976 25.0837 152.302 22.0349 156.321 22.0349Z" fill="#F2CA88"/>
<path fill-rule="evenodd" clip-rule="evenodd" d="M156.598 23.2817C206.626 23.2817 256.515 23.2817 306.405 23.2817C310.423 23.2817 313.749 26.3305 313.749 30.0721C313.749 33.5367 313.749 37.0012 313.749 40.6043C313.749 44.2074 310.423 47.2562 306.405 47.2562C256.515 47.2562 206.626 47.2562 156.598 47.2562C152.58 47.2562 149.392 44.2074 149.392 40.6043C149.392 37.0012 149.392 33.5367 149.392 30.0721C149.392 26.3305 152.58 23.2817 156.598 23.2817Z" fill="#F2CC8A"/>
<path fill-rule="evenodd" clip-rule="evenodd" d="M157.013 24.6681C206.625 24.6681 256.375 24.6681 306.126 24.6681C310.006 24.6681 313.332 27.7169 313.332 31.32C313.332 34.3688 313.332 37.4175 313.332 40.4663C313.332 44.0694 310.006 47.1182 306.126 47.1182C256.375 47.1182 206.625 47.1182 157.013 47.1182C152.994 47.1182 149.807 44.208 149.807 40.4663C149.807 37.4175 149.807 34.3688 149.807 31.32C149.807 27.7169 152.994 24.6681 157.013 24.6681Z" fill="#F2CE8B"/>
<path fill-rule="evenodd" clip-rule="evenodd" d="M157.29 26.0536C206.764 26.0536 256.237 26.0536 305.849 26.0536C309.729 26.0536 312.917 28.9638 312.917 32.5669C312.917 35.1999 312.917 37.833 312.917 40.466C312.917 44.0691 309.729 46.9793 305.849 46.9793C256.237 46.9793 206.764 46.9793 157.29 46.9793C153.41 46.9793 150.223 44.0691 150.223 40.466C150.223 37.833 150.223 35.1999 150.223 32.5669C150.223 28.9638 153.41 26.0536 157.29 26.0536Z" fill="#F2D08D"/>
<path fill-rule="evenodd" clip-rule="evenodd" d="M157.568 27.439C206.903 27.439 256.238 27.439 305.434 27.439C309.314 27.439 312.363 30.3492 312.363 33.8137C312.363 36.031 312.363 38.2483 312.363 40.327C312.363 43.9301 309.314 46.8403 305.434 46.8403C256.238 46.8403 206.903 46.8403 157.568 46.8403C153.826 46.8403 150.639 43.9301 150.639 40.327C150.639 38.2483 150.639 36.031 150.639 33.8137C150.639 30.3492 153.826 27.439 157.568 27.439Z" fill="#F2D28E"/>
<path fill-rule="evenodd" clip-rule="evenodd" d="M157.982 28.6866C207.04 28.6866 256.098 28.6866 305.155 28.6866C308.897 28.6866 311.946 31.5968 311.946 35.2C311.946 36.8629 311.946 38.5259 311.946 40.3275C311.946 43.792 308.897 46.7022 305.155 46.7022C256.098 46.7022 207.04 46.7022 157.982 46.7022C154.241 46.7022 151.053 43.792 151.053 40.3275C151.053 38.5259 151.053 36.8629 151.053 35.2C151.053 31.5968 154.241 28.6866 157.982 28.6866Z" fill="#F2D490"/>
<path fill-rule="evenodd" clip-rule="evenodd" d="M158.26 30.0721C207.179 30.0721 255.96 30.0721 304.74 30.0721C308.482 30.0721 311.531 32.9823 311.531 36.4469C311.531 37.6941 311.531 38.9413 311.531 40.1886C311.531 43.6531 308.482 46.5633 304.74 46.5633C255.96 46.5633 207.179 46.5633 158.26 46.5633C154.518 46.5633 151.469 43.6531 151.469 40.1886C151.469 38.9413 151.469 37.6941 151.469 36.4469C151.469 32.9823 154.518 30.0721 158.26 30.0721Z" fill="#F3D792"/>
<path fill-rule="evenodd" clip-rule="evenodd" d="M158.676 31.4584C207.18 31.4584 255.822 31.4584 304.463 31.4584C308.067 31.4584 311.115 34.2301 311.115 37.6946C311.115 38.5261 311.115 39.3576 311.115 40.189C311.115 43.6536 308.067 46.4252 304.463 46.4252C255.822 46.4252 207.18 46.4252 158.676 46.4252C154.935 46.4252 151.886 43.6536 151.886 40.189C151.886 39.3576 151.886 38.5261 151.886 37.6946C151.886 34.2301 154.935 31.4584 158.676 31.4584Z" fill="#F3D993"/>
<path fill-rule="evenodd" clip-rule="evenodd" d="M158.954 32.8439H304.048C307.79 32.8439 310.7 35.6156 310.7 38.9415V40.0501C310.7 43.5147 307.79 46.2863 304.048 46.2863H158.954C155.351 46.2863 152.302 43.5147 152.302 40.0501V38.9415C152.302 35.6156 155.351 32.8439 158.954 32.8439Z" fill="#F3DB95"/>
<path d="M45.3295 46.6562C43.6451 62.713 44.5926 73.8226 49.5404 83.0227C54.3831 92.0492 63.4366 99.7738 77.9645 108.887C92.387 99.7738 101.441 92.0492 106.283 83.0227C111.231 73.8226 112.179 62.713 110.494 46.743C99.2298 44.8336 88.5971 43.8789 77.9645 43.8789C67.3318 43.8789 56.5938 44.7468 45.3295 46.6562ZM35.6443 88.0567C29.1173 75.8188 28.1698 61.6715 30.8017 40.9279L31.4333 36.5014L36.5917 35.5467C50.909 32.6825 64.3841 31.3806 77.9645 31.3806C91.4395 31.4674 104.915 32.8561 119.127 35.5467L124.496 36.5014L125.022 40.9279C127.654 61.6715 126.706 75.8188 120.179 88.0567C113.547 100.295 101.651 110.015 82.386 121.732L77.9645 124.423L73.4377 121.732C54.1725 110.015 42.2765 100.295 35.6443 88.0567Z" fill="black" fill-opacity="0.101961"/>
<path d="M45.3295 41.4493C43.6451 57.506 44.5926 68.6156 49.5404 77.8157C54.3831 86.8422 63.4366 94.48 77.9645 103.68C92.387 94.48 101.441 86.8422 106.283 77.8157C111.231 68.6156 112.179 57.506 110.494 41.4493C99.2298 39.6266 88.5971 38.6719 77.9645 38.6719C67.3318 38.5851 56.5938 39.5398 45.3295 41.4493ZM35.6443 82.8497C29.1173 70.6118 28.1698 56.3777 30.8017 35.7209L31.4333 31.2945L36.5917 30.2529C50.909 27.4755 64.3841 26.1736 77.9645 26.1736C91.4395 26.1736 104.915 27.5623 119.127 30.2529L124.496 31.2945L125.022 35.7209C127.654 56.3777 126.706 70.6118 120.179 82.8497C113.547 95.0876 101.651 104.722 82.386 116.439L77.9645 119.216L73.4377 116.439C54.1725 104.722 42.2765 95.0876 35.6443 82.8497Z" fill="white"/>
<path fill-rule="evenodd" clip-rule="evenodd" d="M38.38 34.3316C33.3268 73.4754 41.5382 87.2755 77.963 109.408C114.388 87.2755 122.494 73.4754 117.546 34.3316C89.9643 29.124 65.9618 28.9504 38.38 34.3316Z" fill="#E6E6E6"/>
<path fill-rule="evenodd" clip-rule="evenodd" d="M77.9644 109.408C114.389 87.2758 122.495 73.4756 117.547 34.3318C103.757 31.728 90.8078 30.4261 77.9644 30.3394V109.408Z" fill="#CCCCCC"/>
<path fill-rule="evenodd" clip-rule="evenodd" d="M77.9652 101.25C67.6484 95.0007 59.5423 89.3592 53.4364 83.7176C42.5931 73.6496 37.7505 63.2344 37.1189 48.3927C35.9609 77.2081 46.2777 90.1403 77.9652 109.408C109.653 90.1403 119.97 77.2081 118.706 48.3059C118.075 63.2344 113.232 73.6496 102.389 83.7176C96.2829 89.3592 88.2821 95.0007 77.9652 101.25Z" fill="white"/>
<path fill-rule="evenodd" clip-rule="evenodd" d="M37.014 53.079C37.1193 78.6831 48.0678 91.2681 77.9657 109.408C107.864 91.2681 118.707 78.6831 118.812 53.079C118.812 51.9507 118.812 50.7356 118.707 49.5205C118.075 64.3622 113.232 74.7774 102.389 84.8454C96.2834 90.487 88.2825 96.1285 77.9657 102.378C67.6488 96.1285 59.5427 90.487 53.4368 84.8454C42.5936 74.7774 37.751 64.3622 37.1193 49.5205C37.014 50.7356 37.014 51.9507 37.014 53.079Z" fill="#999999"/>
<path fill-rule="evenodd" clip-rule="evenodd" d="M76.7024 29.6458L79.7553 30.3402L77.9657 62.8877L76.7024 29.6458Z" fill="white"/>
<path fill-rule="evenodd" clip-rule="evenodd" d="M77.9644 114.443L73.4376 111.665C54.1724 100.035 42.2764 90.3143 35.6442 78.0764C31.6438 70.5254 29.7488 62.28 29.433 52.212C29.2225 64.5366 31.0121 74.1707 35.6442 82.85C42.2764 95.0879 54.1724 104.722 73.4376 116.439L77.9644 119.216L82.3859 116.439C101.651 104.722 113.547 95.0879 120.179 82.85C124.811 74.1707 126.706 64.5366 126.39 52.212C126.18 62.28 124.18 70.5254 120.179 78.0764C113.547 90.3143 101.651 100.035 82.3859 111.665L77.9644 114.443Z" fill="#E6E6E6"/>
<path d="M161.089 47.8974L153.25 51.9692C152.336 52.464 151.347 52.6162 150.433 52.464C149.748 52.3498 149.102 52.0834 148.569 51.7029C148.036 51.3223 147.579 50.8276 147.275 50.1807C146.818 49.3434 146.59 48.316 146.78 47.1743L148.226 38.5358L141.681 32.1426C140.996 31.4576 140.539 30.5823 140.349 29.707C140.235 29.0982 140.273 28.4512 140.425 27.8424V27.8043C140.615 27.1954 140.92 26.6246 141.414 26.0918C142.061 25.4449 142.937 24.9882 144.04 24.7599L144.154 24.7218L153.059 23.3899L153.25 22.9333C154.658 19.3561 157.017 13.4576 161.051 13.4956C165.047 13.5717 167.406 19.28 168.852 22.8952L169.08 23.3899L177.985 24.7218L178.099 24.7599C179.203 24.9882 180.078 25.4449 180.725 26.0918C181.22 26.5865 181.524 27.1954 181.715 27.8424C181.867 28.4512 181.905 29.0982 181.791 29.707C181.601 30.5823 181.144 31.4576 180.459 32.1426L173.951 38.5358L175.359 47.1743C175.55 48.316 175.359 49.3434 174.903 50.1807C174.56 50.8276 174.104 51.3223 173.571 51.7029C173.038 52.0834 172.391 52.3498 171.706 52.464C170.793 52.6162 169.803 52.464 168.89 51.9692L161.089 47.8974Z" fill="black" fill-opacity="0.101961"/>
<path d="M161.089 46.7178L153.25 50.7897C152.336 51.2845 151.347 51.3986 150.433 51.2845C149.748 51.1703 149.102 50.9039 148.569 50.5233C148.036 50.1428 147.579 49.61 147.275 49.0011C146.818 48.1639 146.59 47.0984 146.78 45.9948V45.9567L148.226 37.3183L141.681 30.925C140.996 30.24 140.539 29.4028 140.349 28.5275C140.235 27.9187 140.273 27.2717 140.425 26.6248C140.615 26.0159 140.92 25.407 141.414 24.9123C142.061 24.2654 142.937 23.7707 144.04 23.5804L144.154 23.5423L153.059 22.2104L153.25 21.7537C154.658 18.1766 157.017 12.24 161.051 12.3161C165.047 12.3541 167.406 18.1005 168.852 21.6776L169.08 22.2104L177.985 23.5423L178.099 23.5804C179.203 23.7707 180.078 24.2654 180.725 24.9123C181.22 25.407 181.524 26.0159 181.715 26.6248C181.867 27.2717 181.905 27.8806 181.791 28.5275C181.601 29.4028 181.144 30.24 180.459 30.925L173.951 37.3183L175.359 45.9567V45.9948C175.55 47.0984 175.359 48.1639 174.903 49.0011C174.56 49.61 174.104 50.1428 173.571 50.5233C173.038 50.9039 172.391 51.1703 171.706 51.2845C170.793 51.3986 169.803 51.2845 168.89 50.7897L161.089 46.7178Z" fill="white"/>
<path d="M161.088 43.9018L152.107 48.5826C150.585 49.3817 148.948 48.202 149.215 46.3754L150.889 36.443L143.43 29.1364C142.365 28.109 142.517 26.3965 144.534 26.0159L154.809 24.4557C155.76 22.5149 158.12 14.7516 161.05 14.7897C163.98 14.8277 166.301 22.3626 167.329 24.4557L177.642 26.0159C179.621 26.3965 179.811 28.109 178.707 29.1364L171.287 36.443L172.923 46.3754C173.189 48.202 171.553 49.3817 170.031 48.5826L161.088 43.9018Z" fill="#FFE00F"/>
<path fill-rule="evenodd" clip-rule="evenodd" d="M161.088 41.9612L152.107 46.642C150.965 47.2508 149.747 46.7181 149.329 45.6525L149.214 46.3756C148.948 48.2022 150.584 49.3819 152.107 48.5828L161.088 43.902L170.03 48.5828C171.553 49.3819 173.189 48.2022 172.923 46.3756L172.808 45.6525C172.39 46.7181 171.172 47.2508 170.03 46.642L161.088 41.9612Z" fill="#DCB000"/>
<path fill-rule="evenodd" clip-rule="evenodd" d="M170.983 34.7691L171.287 36.4436L178.708 29.137C179.431 28.452 179.583 27.5006 179.051 26.7776C178.975 26.9298 178.86 27.082 178.708 27.1962L170.983 34.7691Z" fill="#DCB000"/>
<path fill-rule="evenodd" clip-rule="evenodd" d="M151.156 34.7691L143.431 27.1962C143.279 27.082 143.165 26.9298 143.089 26.7776C142.556 27.5006 142.708 28.452 143.431 29.137L150.89 36.4436L151.156 34.7691Z" fill="#DCB000"/>
<path fill-rule="evenodd" clip-rule="evenodd" d="M153.25 49.6483C152.337 50.143 151.348 50.2952 150.434 50.143C149.749 50.0288 149.102 49.8005 148.57 49.4199C148.037 49.0394 147.58 48.5066 147.276 47.8977C147.009 47.403 146.819 46.8322 146.743 46.2233C146.629 47.2508 146.819 48.2022 147.276 49.0013C147.58 49.6102 148.037 50.143 148.57 50.5235C149.102 50.9041 149.749 51.1705 150.434 51.2846C151.348 51.3988 152.337 51.2846 153.25 50.7899L161.09 46.718L168.891 50.7899C169.804 51.2846 170.794 51.3988 171.707 51.2846C172.392 51.1705 173.039 50.9041 173.572 50.5235C174.105 50.143 174.561 49.6102 174.904 49.0013C175.322 48.2022 175.513 47.2508 175.398 46.2233C175.322 46.8322 175.17 47.403 174.904 47.8977C174.561 48.5066 174.105 49.0394 173.572 49.3819C173.039 49.8005 172.392 50.0288 171.707 50.143C170.794 50.2952 169.804 50.143 168.891 49.6863L161.09 45.6144L153.25 49.6483Z" fill="#E6E6E6"/>
<path fill-rule="evenodd" clip-rule="evenodd" d="M167.328 24.4557C166.301 22.3626 163.979 14.8277 161.049 14.7897C158.119 14.7516 155.76 22.5149 154.808 24.4557L144.533 26.0159C143.848 26.1301 143.354 26.4345 143.087 26.777L143.43 27.1956L147.502 31.1914C151.193 29.4409 155.798 27.7665 160.859 26.5106C163.865 25.7495 166.758 25.1787 169.497 24.7982L167.328 24.4557Z" fill="#FFF71F"/>
<path fill-rule="evenodd" clip-rule="evenodd" d="M171.592 38.4214C169.385 39.2205 166.949 39.9436 164.437 40.5905C159.11 41.9605 154.048 42.6836 149.824 42.8358L149.33 45.6518C149.748 46.7174 150.966 47.2502 152.108 46.6413L161.089 41.9605L170.032 46.6413C171.173 47.2502 172.391 46.7174 172.81 45.6518L171.592 38.4214Z" fill="#F7C600"/>
<ellipse cx="340.72" cy="33.1027" rx="20.2803" ry="19.8205" fill="#E6E6E6"/>
<ellipse cx="341.227" cy="33.5861" rx="20.7873" ry="20.3039" fill="black" fill-opacity="0.1"/>
<ellipse cx="341.227" cy="32.1359" rx="20.7873" ry="19.8205" fill="white"/>
<path d="M342.673 47.9996V46.7354C342.673 45.9499 342.008 45.3152 341.184 45.3152C340.36 45.3152 339.694 45.9499 339.694 46.7354V47.9996C334.906 47.5955 330.691 45.2622 327.911 41.8221C326.009 39.4683 324.78 36.5963 324.498 33.4695H325.783C326.605 33.4695 327.271 32.8335 327.271 32.0493C327.271 31.2638 326.605 30.6291 325.783 30.6291H324.506C325.239 22.9746 331.66 16.8662 339.694 16.1869V17.3632C339.694 18.1487 340.36 18.7834 341.184 18.7834C342.008 18.7834 342.673 18.1487 342.673 17.3632V16.1869C346.292 16.4928 349.584 17.9002 352.175 20.0541C355.338 22.6823 357.458 26.4222 357.861 30.6291H356.586C355.763 30.6291 355.097 31.2638 355.097 32.0493C355.097 32.8335 355.763 33.4695 356.586 33.4695H357.87C357.178 41.166 350.738 47.319 342.673 47.9996ZM341.184 13.2822C330.287 13.2822 321.454 21.7025 321.454 32.0939C321.454 42.4839 330.287 50.9056 341.184 50.9056C352.081 50.9056 360.913 42.4839 360.913 32.0939C360.913 21.7025 352.081 13.2822 341.184 13.2822Z" fill="#DCB000"/>
<path d="M342.673 47.9996V46.7354C342.673 45.9499 342.008 45.3152 341.184 45.3152C340.36 45.3152 339.694 45.9499 339.694 46.7354V47.9996C334.906 47.5955 330.691 45.2622 327.911 41.8221C326.009 39.4683 324.78 36.5963 324.498 33.4695H325.783C326.605 33.4695 327.271 32.8335 327.271 32.0493C327.271 31.2638 326.605 30.6291 325.783 30.6291H324.506C325.239 22.9746 331.66 16.8662 339.694 16.1869V17.3632C339.694 18.1487 340.36 18.7834 341.184 18.7834C342.008 18.7834 342.673 18.1487 342.673 17.3632V16.1869C346.292 16.4928 349.584 17.9002 352.175 20.0541C355.338 22.6823 357.458 26.4222 357.861 30.6291H356.586C355.763 30.6291 355.097 31.2638 355.097 32.0493C355.097 32.8335 355.763 33.4695 356.586 33.4695H357.87C357.178 41.166 350.738 47.319 342.673 47.9996Z" fill="#FFE00F"/>
<path d="M350.052 22.9289L341.234 31.7414L341.183 31.7388C341.073 31.7388 340.965 31.7493 340.861 31.7689L333.478 26.4513C332.99 26.1012 332.29 26.1903 331.917 26.6611C331.546 27.128 331.641 27.7981 332.136 28.1535L339.514 33.4698C339.586 34.2881 340.305 34.9333 341.183 34.9333C342.108 34.9333 342.858 34.2173 342.858 33.336C342.858 33.2941 342.855 33.2521 342.851 33.2115L351.67 24.399C352.095 23.9715 352.08 23.3001 351.633 22.8935C351.187 22.4857 350.48 22.5054 350.052 22.9289Z" fill="#DCB000"/>
</svg>
