<svg width="50" height="50" viewBox="0 0 50 50" fill="none" xmlns="http://www.w3.org/2000/svg">
<path fill-rule="evenodd" clip-rule="evenodd" d="M8.61192 4.99914C19.8553 3.14008 30.9411 3.08983 41.9218 4.99914C45.4419 5.65232 47.7011 7.8631 48.3841 11.2295C50.5382 21.8312 50.5382 32.4831 48.3841 43.0848C47.7536 46.4512 45.4419 48.9635 41.9218 49.2649C30.9411 50.2698 19.8553 50.2196 8.61192 49.2649C5.03925 48.9635 2.51737 46.4512 2.09706 43.0848C0.888657 32.4831 0.625962 21.8312 2.09706 11.2295C2.56991 7.8631 5.09179 5.60208 8.61192 4.99914Z" fill="black" fill-opacity="0.101961"/>
<path fill-rule="evenodd" clip-rule="evenodd" d="M7.50885 2.58801C18.7522 0.728943 29.838 0.678698 40.8187 2.58801C44.3388 3.24119 46.6505 5.45197 47.281 8.81838C49.4351 19.4201 49.4351 30.072 47.281 40.6737C46.6505 44.0401 44.3913 46.5523 40.8187 46.8538C29.838 47.8587 18.7522 47.8085 7.50885 46.8538C3.93618 46.5523 1.4143 44.0401 1.04653 40.6737C-0.214411 30.072 -0.477107 19.4201 1.04653 8.81838C1.51938 5.45197 3.98872 3.19095 7.50885 2.58801Z" fill="#E6E6E6"/>
<path fill-rule="evenodd" clip-rule="evenodd" d="M7.50885 1.43198C18.7522 -0.477328 29.838 -0.477328 40.8187 1.43198C44.3388 2.08517 46.6505 4.29595 47.281 7.66236C49.4351 18.2641 49.4351 28.8658 47.281 39.5177C46.6505 42.8339 44.3913 45.3964 40.8187 45.6978C29.838 46.6525 18.7522 46.6525 7.50885 45.6978C3.93618 45.3964 1.4143 42.8841 1.04653 39.5177C-0.214411 28.8658 -0.477107 18.2641 1.04653 7.66236C1.51938 4.2457 3.98872 2.03492 7.50885 1.43198Z" fill="white"/>
<path fill-rule="evenodd" clip-rule="evenodd" d="M9.97909 4.54723C20.0666 2.8389 29.9965 2.78865 39.8739 4.54723C43.0262 5.09992 45.0753 7.10972 45.7057 10.0742C47.5971 19.6207 47.5971 29.117 45.7057 38.6636C45.0753 41.6783 43.0262 43.9393 39.8739 44.2408C29.9965 45.0949 20.0666 45.0949 9.97909 44.2408C6.82674 43.9393 4.51502 41.6783 4.19978 38.6636C3.04392 29.117 2.83376 19.6207 4.19978 10.0742C4.6201 7.05948 6.82674 5.04968 9.97909 4.54723Z" fill="#E6E6E6"/>
<path fill-rule="evenodd" clip-rule="evenodd" d="M9.24227 3.69336C19.3298 1.98503 29.2597 1.98503 39.1371 3.69336C42.2894 4.24605 44.3384 6.25585 44.9689 9.27055C46.8603 18.7668 46.8603 28.3134 44.9689 37.8097C44.3384 40.8244 42.2894 43.0854 39.1371 43.3869C29.2597 44.241 19.3298 44.241 9.24227 43.3869C6.08992 43.1357 3.7782 40.8746 3.46297 37.8097C2.3071 28.3134 2.09695 18.7668 3.46297 9.27055C3.88328 6.2056 6.08992 4.24605 9.24227 3.69336Z" fill="#CC191C"/>
<path fill-rule="evenodd" clip-rule="evenodd" d="M9.24227 1.78355C19.3298 0.0752267 29.2597 0.0249817 39.1371 1.78355C42.2894 2.33625 44.3384 4.34605 44.9689 7.3105C46.8603 16.857 46.8603 26.3533 44.9689 35.8999C44.3384 38.9146 42.2894 41.1756 39.1371 41.477C29.2597 42.3312 19.3298 42.3312 9.24227 41.477C6.08992 41.1756 3.7782 38.9146 3.46297 35.8999C2.3071 26.3533 2.09695 16.857 3.46297 7.3105C3.88328 4.2958 6.08992 2.286 9.24227 1.78355Z" fill="#FF6595"/>
<path fill-rule="evenodd" clip-rule="evenodd" d="M9.45314 2.03466C19.383 0.326337 29.2079 0.326337 38.9276 2.03466C42.0274 2.58735 44.0765 4.5469 44.6544 7.51135C46.5983 16.9071 46.5458 26.3029 44.6544 35.6987C44.0765 38.6632 42.08 40.9242 38.9276 41.1754C29.2079 42.0296 19.383 42.0296 9.45314 41.1754C6.30079 40.9242 4.09414 38.7134 3.72637 35.6987C2.62304 26.3029 2.41289 16.9071 3.72637 7.51135C4.14668 4.49666 6.35333 2.53711 9.45314 2.03466Z" fill="#FD628E"/>
<path fill-rule="evenodd" clip-rule="evenodd" d="M9.66329 2.2864C19.4881 0.628317 29.1553 0.578072 38.7174 2.2864C41.8173 2.8391 43.8137 4.74841 44.3917 7.71287C46.2831 16.9579 46.2305 26.2533 44.3917 35.4984C43.8137 38.4126 41.8173 40.6736 38.7174 40.9248C29.1553 41.779 19.4881 41.7287 9.66329 40.9248C6.56348 40.6736 4.35684 38.4628 3.98906 35.4984C2.88574 26.2533 2.67558 16.9579 3.98906 7.71287C4.40938 4.74841 6.61602 2.78885 9.66329 2.2864Z" fill="#FA5E87"/>
<path fill-rule="evenodd" clip-rule="evenodd" d="M9.87367 2.53653C19.5409 0.878447 29.103 0.878447 38.5601 2.53653C41.5548 3.08923 43.5513 4.99854 44.1292 7.8625C45.9681 17.0071 45.9681 26.1517 44.1292 35.2963C43.5513 38.2105 41.6073 40.371 38.5601 40.6725C29.103 41.4764 19.5409 41.4764 9.87367 40.6725C6.8264 40.371 4.61975 38.2105 4.25198 35.2963C3.2012 26.1517 2.99104 17.0071 4.25198 7.8625C4.67229 4.94829 6.8264 3.03898 9.87367 2.53653Z" fill="#F85B80"/>
<path fill-rule="evenodd" clip-rule="evenodd" d="M10.0842 2.78889C19.5937 1.18105 29.0508 1.18105 38.3502 2.78889C41.345 3.34158 43.2889 5.20065 43.8668 8.06461C45.7057 17.1087 45.6532 26.1026 43.8668 35.0964C43.2889 37.9604 41.345 40.1209 38.3502 40.3721C29.0508 41.2263 19.5937 41.176 10.0842 40.3721C7.03688 40.1209 4.88278 38.0106 4.56754 35.0964C3.51676 26.1026 3.25406 17.1087 4.56754 8.06461C4.93532 5.20065 7.08942 3.29134 10.0842 2.78889Z" fill="#F65879"/>
<path fill-rule="evenodd" clip-rule="evenodd" d="M10.2416 3.03916C19.6462 1.48157 28.9456 1.43132 38.1399 3.03916C41.0821 3.59186 43.0261 5.45092 43.604 8.26464C45.3903 17.158 45.3378 26.0514 43.604 34.9447C43.0261 37.7082 41.1347 39.8687 38.1399 40.1199C28.9456 40.9239 19.6462 40.9239 10.2416 40.1199C7.29945 39.8687 5.14534 37.7584 4.83011 34.9447C3.77932 26.0514 3.56917 17.158 4.83011 8.26464C5.25042 5.40068 7.29945 3.54161 10.2416 3.03916Z" fill="#F35572"/>
<path fill-rule="evenodd" clip-rule="evenodd" d="M10.452 3.29076C19.7515 1.73316 28.8933 1.73316 37.9826 3.29076C40.8722 3.84345 42.7636 5.65228 43.3416 8.41576C45.0754 17.2086 45.0754 25.9513 43.3416 34.7442C42.7636 37.5077 40.8722 39.618 37.9826 39.8692C28.8933 40.6731 19.7515 40.6229 10.452 39.8692C7.50984 39.618 5.46081 37.5077 5.09303 34.7442C4.09479 25.9513 3.88463 17.2086 5.09303 8.41576C5.51335 5.65228 7.56237 3.79321 10.452 3.29076Z" fill="#F1516C"/>
<path fill-rule="evenodd" clip-rule="evenodd" d="M10.6617 3.59239C19.8035 2.03479 28.8402 1.98455 37.7719 3.59239C40.609 4.09484 42.5004 5.90365 43.0258 8.61688C44.8121 17.259 44.7596 25.9011 43.0258 34.5433C42.5004 37.2565 40.6615 39.3166 37.7719 39.5678C28.8402 40.3717 19.8035 40.3717 10.6617 39.5678C7.772 39.3166 5.72298 37.3068 5.40774 34.5433C4.35696 25.9011 4.1468 17.259 5.40774 8.61688C5.77552 5.85341 7.82454 4.04459 10.6617 3.59239Z" fill="#EE4E65"/>
<path fill-rule="evenodd" clip-rule="evenodd" d="M10.872 3.84349C19.8562 2.28589 28.7879 2.28589 37.5619 3.84349C40.3991 4.34594 42.2379 6.10451 42.7633 8.81774C44.4971 17.3091 44.4446 25.8508 42.7633 34.3422C42.2379 37.0554 40.3991 39.0652 37.5619 39.3164C28.7879 40.0701 19.8562 40.0701 10.872 39.3164C8.03493 39.0652 5.9859 37.0554 5.67067 34.3422C4.67242 25.8508 4.46227 17.3091 5.67067 8.81774C6.03844 6.10451 8.03493 4.29569 10.872 3.84349Z" fill="#EC4B5E"/>
<path fill-rule="evenodd" clip-rule="evenodd" d="M11.0812 4.09487C19.9604 2.58752 28.6819 2.58752 37.4034 4.09487C40.1354 4.59732 41.9743 6.35589 42.4997 8.96863C44.1809 17.3595 44.1809 25.7504 42.4997 34.1413C41.9743 36.8043 40.188 38.8141 37.4034 39.0654C28.6819 39.819 19.9604 39.819 11.0812 39.0654C8.24413 38.8141 6.24764 36.8546 5.9324 34.1413C4.93416 25.7504 4.77654 17.3595 5.9324 8.96863C6.30018 6.30564 8.29667 4.54707 11.0812 4.09487Z" fill="#EA4857"/>
<path fill-rule="evenodd" clip-rule="evenodd" d="M11.2921 4.34612C20.0136 2.88902 28.63 2.83878 37.1939 4.34612C39.926 4.84857 41.7123 6.5569 42.2377 9.16964C43.9189 17.46 43.8664 25.7002 42.2377 33.9404C41.7123 36.5531 39.926 38.5629 37.1939 38.7639C28.63 39.5176 20.0136 39.5176 11.2921 38.7639C8.50753 38.5629 6.51104 36.6034 6.19581 33.9404C5.2501 25.7002 5.03995 17.46 6.19581 9.16964C6.61612 6.5569 8.56007 4.79833 11.2921 4.34612Z" fill="#E74450"/>
<path fill-rule="evenodd" clip-rule="evenodd" d="M11.4499 4.59771C20.0663 3.14061 28.5777 3.14061 36.984 4.59771C39.6635 5.10016 41.4498 6.80849 41.9752 9.37098C43.6039 17.5107 43.6039 25.6504 41.9752 33.7398C41.4498 36.3525 39.716 38.2618 36.984 38.5131C28.5777 39.2667 20.0663 39.2667 11.4499 38.5131C8.77042 38.3121 6.82647 36.3525 6.51124 33.7398C5.56553 25.6504 5.35538 17.5107 6.51124 9.37098C6.87901 6.75825 8.77042 5.04992 11.4499 4.59771Z" fill="#E54149"/>
<path fill-rule="evenodd" clip-rule="evenodd" d="M9.24259 1.78356C19.3301 0.0752256 29.26 0.0249806 39.1374 1.78356C42.2897 2.33625 44.3388 4.34605 44.9692 7.31051C45.8099 11.6316 46.2827 15.9527 46.3878 20.2737C27.6838 12.938 15.127 32.433 2.51758 20.1732C2.57012 15.9024 2.83281 11.6316 3.46328 7.31051C3.8836 4.29581 6.09024 2.28601 9.24259 1.78356Z" fill="white" fill-opacity="0.290196"/>
<path fill-rule="evenodd" clip-rule="evenodd" d="M8.92677 3.08984C11.0809 3.08984 12.8672 4.74794 12.8672 6.808C12.8672 8.9183 11.0809 10.5764 8.92677 10.5764C6.77266 10.5764 4.98633 8.9183 4.98633 6.808C4.98633 4.74794 6.77266 3.08984 8.92677 3.08984Z" fill="white"/>
<path fill-rule="evenodd" clip-rule="evenodd" d="M14.9692 1.48193C16.0199 1.48193 16.9131 2.28585 16.9131 3.34099C16.9131 4.39613 16.0199 5.20004 14.9692 5.20004C13.8658 5.20004 12.9727 4.39613 12.9727 3.34099C12.9727 2.28585 13.8658 1.48193 14.9692 1.48193Z" fill="white"/>
<path fill-rule="evenodd" clip-rule="evenodd" d="M40.0313 36.0508C41.3447 36.0508 42.3955 37.0557 42.3955 38.3118C42.3955 39.5679 41.3447 40.5728 40.0313 40.5728C38.7178 40.5728 37.667 39.5679 37.667 38.3118C37.667 37.0557 38.7178 36.0508 40.0313 36.0508Z" fill="white"/>
<path fill-rule="evenodd" clip-rule="evenodd" d="M16.2829 20.2234C15.7575 20.3741 15.2321 20.4243 14.6542 20.4243C11.5544 20.4243 8.97998 17.7614 8.97998 15.0481C8.97998 12.3349 10.8714 10.4759 13.1831 9.82268C13.3407 8.91827 14.0237 8.21484 15.022 8.21484H32.8328C33.831 8.21484 34.4089 8.91827 34.5666 9.77243C36.9834 10.3754 39.0849 12.2847 39.0849 15.0481C39.0849 17.7614 36.563 20.4243 33.4107 20.4243C32.9378 20.4243 32.465 20.3741 31.9921 20.2736C31.4667 22.4844 27.9992 24.1425 25.8451 24.4439V30.4231C27.4212 30.4231 28.472 30.4231 28.8398 32.3826H31.3091C33.2005 32.4329 33.2005 35.1461 31.3091 35.1461V35.1963C26.3704 35.1963 21.4843 35.1963 16.5982 35.1963H16.388V35.1461C14.7593 34.9451 14.7593 32.6339 16.388 32.4329V32.3826H16.5982H19.015C19.4353 30.3728 20.381 30.4231 22.0622 30.4231V24.3434C19.9081 23.9415 16.9134 22.3337 16.2829 20.2234ZM13.761 11.6315C12.2374 12.0335 10.9765 13.2393 10.9765 15.0481C10.9765 16.8067 12.6577 18.515 14.6542 18.515C15.022 18.515 15.3898 18.4648 15.7575 18.3643C15.5999 17.7614 13.8136 11.6817 13.761 11.6315ZM32.465 18.4146C32.7802 18.4648 33.0955 18.515 33.4107 18.515C35.4597 18.515 37.0884 16.8067 37.0884 15.0481C37.0884 13.2393 35.775 11.933 34.1462 11.5813L32.465 18.4146Z" stroke="#CC191C" stroke-width="0.507196" stroke-linecap="round" stroke-linejoin="round"/>
<path fill-rule="evenodd" clip-rule="evenodd" d="M16.2829 20.2234C15.7575 20.3741 15.2321 20.4243 14.6542 20.4243C11.5544 20.4243 8.97998 17.7614 8.97998 15.0481C8.97998 12.3349 10.8714 10.4759 13.1831 9.82268C13.3407 8.91827 14.0237 8.21484 15.022 8.21484H32.8328C33.831 8.21484 34.4089 8.91827 34.5666 9.77243C36.9834 10.3754 39.0849 12.2847 39.0849 15.0481C39.0849 17.7614 36.563 20.4243 33.4107 20.4243C32.9378 20.4243 32.465 20.3741 31.9921 20.2736C31.4667 22.4844 27.9992 24.1425 25.8451 24.4439V30.4231C27.4212 30.4231 28.472 30.4231 28.8398 32.3826H31.3091C33.2005 32.4329 33.2005 35.1461 31.3091 35.1461V35.1963C26.3704 35.1963 21.4843 35.1963 16.5982 35.1963H16.388V35.1461C14.7593 34.9451 14.7593 32.6339 16.388 32.4329V32.3826H16.5982H19.015C19.4353 30.3728 20.381 30.4231 22.0622 30.4231V24.3434C19.9081 23.9415 16.9134 22.3337 16.2829 20.2234ZM13.761 11.6315C12.2374 12.0335 10.9765 13.2393 10.9765 15.0481C10.9765 16.8067 12.6577 18.515 14.6542 18.515C15.022 18.515 15.3898 18.4648 15.7575 18.3643C15.5999 17.7614 13.8136 11.6817 13.761 11.6315ZM32.465 18.4146C32.7802 18.4648 33.0955 18.515 33.4107 18.515C35.4597 18.515 37.0884 16.8067 37.0884 15.0481C37.0884 13.2393 35.775 11.933 34.1462 11.5813L32.465 18.4146Z" fill="white"/>
<path fill-rule="evenodd" clip-rule="evenodd" d="M16.2829 19.1181C15.7575 19.2688 15.2321 19.3693 14.6542 19.3693C11.712 19.3693 9.29522 17.0078 9.03252 14.4453C9.03252 14.6463 8.97998 14.8473 8.97998 15.0483C8.97998 17.7615 11.5544 20.4244 14.6542 20.4244C15.2321 20.4244 15.7575 20.3742 16.2829 20.2235C16.9134 22.3338 19.9081 23.9416 22.0622 24.3435V23.2884C19.9081 22.8864 16.9134 21.2284 16.2829 19.1181Z" fill="black" fill-opacity="0.101961"/>
<path fill-rule="evenodd" clip-rule="evenodd" d="M31.9918 19.1683C31.4664 21.3791 27.9988 23.0372 25.8447 23.3889V24.4441C27.9988 24.1426 31.4664 22.4845 31.9918 20.2737C32.4647 20.3742 32.9375 20.4245 33.4104 20.4245C36.5627 20.4245 39.0846 17.7615 39.0846 15.0483C39.0846 14.8473 39.0321 14.6463 39.0321 14.4453C38.7694 17.0078 36.3526 19.3693 33.4104 19.3693C32.9375 19.3693 32.4647 19.3191 31.9918 19.1683Z" fill="black" fill-opacity="0.101961"/>
<path fill-rule="evenodd" clip-rule="evenodd" d="M15.7576 17.3095C15.6 16.6563 13.8137 10.5767 13.7611 10.5767C12.2375 10.9786 10.9766 12.1845 10.9766 13.9431C10.9766 14.144 11.0291 14.2948 11.0291 14.4455C11.2918 12.9884 12.3951 11.9835 13.7611 11.6318C13.8137 11.682 14.917 15.4504 15.4949 17.3597C15.5475 17.3597 15.6526 17.3095 15.7576 17.3095Z" fill="black" fill-opacity="0.101961"/>
<path fill-rule="evenodd" clip-rule="evenodd" d="M34.8301 11.7825C35.986 12.2347 36.8266 13.1894 37.0367 14.4455C37.0893 14.2947 37.0893 14.144 37.0893 13.943C37.0893 12.6367 36.4063 11.5815 35.408 10.9786C35.0402 10.7776 34.6199 10.6269 34.1471 10.5264L33.6217 12.6869L32.4658 17.3094C32.5184 17.3597 32.6234 17.3597 32.7285 17.4099L33.9369 12.4859L34.1471 11.5815C34.4098 11.6318 34.6199 11.7322 34.8301 11.7825Z" fill="black" fill-opacity="0.101961"/>
<path fill-rule="evenodd" clip-rule="evenodd" d="M28.682 34.091H18.7521H16.598H16.3879C15.8099 33.9905 15.4422 33.689 15.232 33.2368C14.9693 33.9905 15.3371 34.9954 16.3879 35.1461V35.1964H16.598H31.309V35.1461C32.5174 35.1461 32.9377 34.0407 32.6225 33.2368C32.4648 33.689 31.992 34.091 31.309 34.091H28.682Z" fill="black" fill-opacity="0.101961"/>
</svg>
