<svg width="1000" height="200" viewBox="0 0 1000 200" fill="none" xmlns="http://www.w3.org/2000/svg">
<path fill-rule="evenodd" clip-rule="evenodd" d="M26.8839 7.62085H978.936C990.577 7.62085 1000 14.2254 1000 22.3541V185.267C1000 193.395 990.577 200 978.936 200H26.8839C15.2431 200 5.81958 193.395 5.81958 185.267V22.3541C5.81958 14.2254 15.2431 7.62085 26.8839 7.62085Z" fill="black" fill-opacity="0.101961"/>
<path fill-rule="evenodd" clip-rule="evenodd" d="M21.0643 3.04822H973.116C984.757 3.04822 994.181 9.65278 994.181 17.7815V180.694C994.181 188.823 984.757 195.427 973.116 195.427H21.0643C9.42351 195.427 0 188.823 0 180.694V17.7815C0 9.65278 9.42351 3.04822 21.0643 3.04822Z" fill="#E6E6E6"/>
<path fill-rule="evenodd" clip-rule="evenodd" d="M21.0643 0H973.116C984.757 0 994.181 6.60456 994.181 14.7333V177.646C994.181 185.775 984.757 192.379 973.116 192.379H21.0643C9.42351 192.379 0 185.775 0 177.646V14.7333C0 6.60456 9.42351 0 21.0643 0Z" fill="white"/>
<path fill-rule="evenodd" clip-rule="evenodd" d="M34.0918 9.82263H962.862C973.672 9.82263 982.541 16.0885 982.541 23.7091V169.856C982.541 177.477 973.672 183.743 962.862 183.743H34.0918C23.2825 183.743 14.4133 177.477 14.4133 169.856V23.7091C14.4133 16.0885 23.2825 9.82263 34.0918 9.82263Z" fill="#E6E6E6"/>
<path fill-rule="evenodd" clip-rule="evenodd" d="M29.6561 7.95886H958.981C969.79 7.95886 978.382 14.2247 978.382 21.8454V165.96C978.382 173.581 969.79 179.847 958.981 179.847H29.6561C18.8467 179.847 9.97754 173.581 9.97754 165.96V21.8454C9.97754 14.2247 18.8467 7.95886 29.6561 7.95886Z" fill="#F1C383"/>
<path fill-rule="evenodd" clip-rule="evenodd" d="M29.3789 4.4032H954.823C965.356 4.4032 974.225 10.4997 974.225 17.951V158.171C974.225 165.622 965.356 171.719 954.823 171.719H29.3789C18.5696 171.719 9.97754 165.622 9.97754 158.171V17.951C9.97754 10.4997 18.5696 4.4032 29.3789 4.4032Z" fill="#FAEECC"/>
<path fill-rule="evenodd" clip-rule="evenodd" d="M32.4274 6.26575C338.692 6.26575 645.233 6.26575 951.774 6.26575C962.306 6.26575 970.621 12.1929 970.621 19.6442C970.621 65.1988 970.621 110.753 970.621 156.477C970.621 163.759 962.029 169.856 951.774 169.856C645.233 169.856 338.692 169.856 32.4274 169.856C21.8952 169.856 13.3032 163.759 13.3032 156.477C13.3032 110.753 13.3032 65.1988 13.3032 19.6442C13.3032 12.1929 21.8952 6.26575 32.4274 6.26575Z" fill="#FAEDC9"/>
<path fill-rule="evenodd" clip-rule="evenodd" d="M35.4762 7.95886C339.8 7.95886 644.124 7.95886 948.448 7.95886C958.98 7.95886 967.295 13.886 967.295 21.168C967.295 65.7065 967.295 110.245 967.295 154.783C967.295 162.065 958.98 167.993 948.448 167.993C644.124 167.993 339.8 167.993 35.4762 167.993C25.2212 167.993 16.6292 162.065 16.6292 154.783C16.6292 110.245 16.6292 65.7065 16.6292 21.168C16.6292 13.886 25.2212 7.95886 35.4762 7.95886Z" fill="#F9ECC6"/>
<path fill-rule="evenodd" clip-rule="evenodd" d="M38.5247 9.82263C340.909 9.82263 643.292 9.82263 945.399 9.82263C955.654 9.82263 963.969 15.7498 963.969 22.8624C963.969 66.3848 963.969 109.738 963.969 153.091C963.969 160.373 955.654 166.3 945.399 166.3C643.292 166.3 340.909 166.3 38.5247 166.3C28.2697 166.3 19.9548 160.373 19.9548 153.091C19.9548 109.738 19.9548 66.3848 19.9548 22.8624C19.9548 15.7498 28.2697 9.82263 38.5247 9.82263Z" fill="#F9EBC2"/>
<path fill-rule="evenodd" clip-rule="evenodd" d="M41.8506 11.6851C342.017 11.6851 642.184 11.6851 942.35 11.6851C952.328 11.6851 960.643 17.4429 960.643 24.5555C960.643 66.8924 960.643 109.229 960.643 151.566C960.643 158.679 952.328 164.437 942.35 164.437C642.184 164.437 342.017 164.437 41.8506 164.437C31.5956 164.437 23.2808 158.679 23.2808 151.566C23.2808 109.229 23.2808 66.8924 23.2808 24.5555C23.2808 17.4429 31.5956 11.6851 41.8506 11.6851Z" fill="#F8EABF"/>
<path fill-rule="evenodd" clip-rule="evenodd" d="M44.8996 13.3782C342.849 13.3782 641.075 13.3782 939.302 13.3782C949.28 13.3782 957.317 19.136 957.317 26.0793C957.317 67.4001 957.317 108.721 957.317 149.872C957.317 156.816 949.28 162.574 939.302 162.574C641.075 162.574 342.849 162.574 44.8996 162.574C34.9218 162.574 26.6069 156.816 26.6069 149.872C26.6069 108.721 26.6069 67.4001 26.6069 26.0793C26.6069 19.136 34.9218 13.3782 44.8996 13.3782Z" fill="#F8E9BC"/>
<path fill-rule="evenodd" clip-rule="evenodd" d="M47.9479 15.2419C343.957 15.2419 639.966 15.2419 935.975 15.2419C945.953 15.2419 953.991 20.8304 953.991 27.7737C953.991 67.9091 953.991 108.045 953.991 148.18C953.991 155.123 945.953 160.881 935.975 160.881C639.966 160.881 343.957 160.881 47.9479 160.881C38.2472 160.881 29.9324 155.123 29.9324 148.18C29.9324 108.045 29.9324 67.9091 29.9324 27.7737C29.9324 20.8304 37.9701 15.2419 47.9479 15.2419Z" fill="#F7E8B9"/>
<path fill-rule="evenodd" clip-rule="evenodd" d="M50.9971 17.1045C345.066 17.1045 639.135 17.1045 932.927 17.1045C942.628 17.1045 950.665 22.693 950.665 29.4669C950.665 68.4169 950.665 107.536 950.665 146.656C950.665 153.429 942.628 159.018 932.927 159.018C639.135 159.018 345.066 159.018 50.9971 159.018C41.2964 159.018 33.5359 153.429 33.5359 146.656C33.5359 107.536 33.5359 68.4169 33.5359 29.4669C33.5359 22.693 41.2964 17.1045 50.9971 17.1045Z" fill="#F7E7B6"/>
<path fill-rule="evenodd" clip-rule="evenodd" d="M54.3228 18.7975C346.175 18.7975 638.026 18.7975 929.878 18.7975C939.301 18.7975 947.339 24.386 947.339 31.1599C947.339 69.0938 947.339 107.028 947.339 144.962C947.339 151.735 939.301 157.155 929.878 157.155C638.026 157.155 346.175 157.155 54.3228 157.155C44.6221 157.155 36.8616 151.735 36.8616 144.962C36.8616 107.028 36.8616 69.0938 36.8616 31.1599C36.8616 24.386 44.6221 18.7975 54.3228 18.7975Z" fill="#F6E6B3"/>
<path fill-rule="evenodd" clip-rule="evenodd" d="M57.3716 20.66C347.006 20.66 636.918 20.66 926.829 20.66C936.253 20.66 944.013 26.0792 944.013 32.6837C944.013 69.6015 944.013 106.519 944.013 143.268C944.013 150.042 936.253 155.461 926.829 155.461C636.918 155.461 347.006 155.461 57.3716 155.461C47.948 155.461 40.1875 150.042 40.1875 143.268C40.1875 106.519 40.1875 69.6015 40.1875 32.6837C40.1875 26.0792 47.948 20.66 57.3716 20.66Z" fill="#F6E5AF"/>
<path fill-rule="evenodd" clip-rule="evenodd" d="M60.4201 22.5227C348.114 22.5227 635.809 22.5227 923.503 22.5227C932.926 22.5227 940.687 27.7725 940.687 34.377C940.687 70.1094 940.687 105.842 940.687 141.744C940.687 148.179 932.926 153.598 923.503 153.598C635.809 153.598 348.114 153.598 60.4201 153.598C50.9966 153.598 43.5132 148.179 43.5132 141.744C43.5132 105.842 43.5132 70.1094 43.5132 34.377C43.5132 27.7725 50.9966 22.5227 60.4201 22.5227Z" fill="#F5E4AC"/>
<path fill-rule="evenodd" clip-rule="evenodd" d="M63.4688 24.2169H920.454C929.601 24.2169 937.361 29.4667 937.361 36.0713V140.051C937.361 146.486 929.601 151.736 920.454 151.736H63.4688C54.3225 151.736 46.8391 146.486 46.8391 140.051V36.0713C46.8391 29.4667 54.3225 24.2169 63.4688 24.2169Z" fill="#F5E3A9"/>
<path fill-rule="evenodd" clip-rule="evenodd" d="M954.546 149.196C960.367 149.196 965.078 152.583 965.078 156.647C965.078 160.881 960.367 164.098 954.546 164.098C948.726 164.098 944.014 160.881 944.014 156.647C944.014 152.583 948.726 149.196 954.546 149.196Z" fill="white"/>
<path fill-rule="evenodd" clip-rule="evenodd" d="M938.193 156.816C941.519 156.816 944.013 158.678 944.013 160.88C944.013 163.081 941.519 164.944 938.193 164.944C935.144 164.944 932.649 163.081 932.649 160.88C932.649 158.678 935.144 156.816 938.193 156.816Z" fill="white"/>
<path fill-rule="evenodd" clip-rule="evenodd" d="M30.7659 7.79053C39.9122 7.79053 47.1185 13.0403 47.1185 19.3062C47.1185 25.7414 39.9122 30.8218 30.7659 30.8218C21.6195 30.8218 14.4133 25.7414 14.4133 19.3062C14.4133 13.0403 21.6195 7.79053 30.7659 7.79053Z" fill="white"/>
<path fill-rule="evenodd" clip-rule="evenodd" d="M55.9855 6.43542C60.9744 6.43542 65.1318 9.31434 65.1318 12.8706C65.1318 16.2576 60.9744 19.1365 55.9855 19.1365C50.9965 19.1365 46.8391 16.2576 46.8391 12.8706C46.8391 9.31434 50.9965 6.43542 55.9855 6.43542Z" fill="white"/>
<path fill-rule="evenodd" clip-rule="evenodd" d="M61.5304 18.6281H242.517C255.267 18.6281 265.799 25.402 265.799 33.7V142.76C265.799 151.058 255.267 158.001 242.517 158.001H61.5304C48.5038 158.001 38.2488 151.227 38.2488 142.76V33.7C38.2488 25.402 48.5038 18.6281 61.5304 18.6281Z" fill="#EFB469"/>
<path fill-rule="evenodd" clip-rule="evenodd" d="M70.1215 25.7405H233.647C246.119 25.7405 256.097 32.345 256.097 40.4737V140.728C256.097 148.687 246.119 155.292 233.647 155.292H70.1215C57.6492 155.292 47.6714 148.687 47.6714 140.728V40.4737C47.6714 32.345 57.6492 25.7405 70.1215 25.7405Z" fill="#F1C383"/>
<path fill-rule="evenodd" clip-rule="evenodd" d="M71.2313 28.619C125.001 28.619 178.77 28.619 232.817 28.619C245.012 28.619 254.99 35.0542 254.99 43.0136C254.99 75.5283 254.99 108.043 254.99 140.558C254.99 148.517 245.012 154.952 232.817 154.952C178.77 154.952 125.001 154.952 71.2313 154.952C59.0362 154.952 49.0583 148.517 49.0583 140.558C49.0583 108.043 49.0583 75.5283 49.0583 43.0136C49.0583 35.0542 59.0362 28.619 71.2313 28.619Z" fill="#F1C585"/>
<path fill-rule="evenodd" clip-rule="evenodd" d="M72.0643 31.3291C125.279 31.3291 178.495 31.3291 231.71 31.3291C243.905 31.3291 253.605 37.7643 253.605 45.7237C253.605 77.2223 253.605 108.89 253.605 140.389C253.605 148.348 243.905 154.784 231.71 154.784C178.495 154.784 125.279 154.784 72.0643 154.784C60.1463 154.784 50.1685 148.348 50.1685 140.389C50.1685 108.89 50.1685 77.2223 50.1685 45.7237C50.1685 37.7643 60.1463 31.3291 72.0643 31.3291Z" fill="#F1C786"/>
<path fill-rule="evenodd" clip-rule="evenodd" d="M73.1711 34.2079C125.555 34.2079 178.216 34.2079 230.599 34.2079C242.517 34.2079 252.495 40.6431 252.495 48.2638C252.495 78.9157 252.495 109.568 252.495 140.22C252.495 148.01 242.517 154.445 230.599 154.445C178.216 154.445 125.555 154.445 73.1711 154.445C61.2532 154.445 51.5525 148.01 51.5525 140.22C51.5525 109.568 51.5525 78.9157 51.5525 48.2638C51.5525 40.6431 61.2532 34.2079 73.1711 34.2079Z" fill="#F2CA88"/>
<path fill-rule="evenodd" clip-rule="evenodd" d="M74.2808 37.0864C126.11 37.0864 177.939 37.0864 229.769 37.0864C241.41 37.0864 251.11 43.3523 251.11 50.9729C251.11 80.7782 251.11 110.414 251.11 140.219C251.11 147.84 241.41 154.106 229.769 154.106C177.939 154.106 126.11 154.106 74.2808 154.106C62.3628 154.106 52.6621 147.84 52.6621 140.219C52.6621 110.414 52.6621 80.7782 52.6621 50.9729C52.6621 43.3523 62.3628 37.0864 74.2808 37.0864Z" fill="#F2CC8A"/>
<path fill-rule="evenodd" clip-rule="evenodd" d="M75.1102 39.7965C126.385 39.7965 177.383 39.7965 228.658 39.7965C240.299 39.7965 250 46.0624 250 53.5137C250 82.4721 250 111.261 250 140.05C250 147.671 240.299 153.768 228.658 153.768C177.383 153.768 126.385 153.768 75.1102 153.768C63.4694 153.768 54.0459 147.671 54.0459 140.05C54.0459 111.261 54.0459 82.4721 54.0459 53.5137C54.0459 46.0624 63.4694 39.7965 75.1102 39.7965Z" fill="#F2CE8B"/>
<path fill-rule="evenodd" clip-rule="evenodd" d="M76.2198 42.6753C126.663 42.6753 177.107 42.6753 227.55 42.6753C239.191 42.6753 248.615 48.7718 248.615 56.2231C248.615 84.1655 248.615 111.939 248.615 139.881C248.615 147.332 239.191 153.598 227.55 153.598C177.107 153.598 126.663 153.598 76.2198 153.598C64.579 153.598 55.1555 147.332 55.1555 139.881C55.1555 111.939 55.1555 84.1655 55.1555 56.2231C55.1555 48.7718 64.579 42.6753 76.2198 42.6753Z" fill="#F2D08D"/>
<path fill-rule="evenodd" clip-rule="evenodd" d="M77.3299 45.3844C126.942 45.3844 176.831 45.3844 226.72 45.3844C238.084 45.3844 247.23 51.4809 247.23 58.9322C247.23 85.8585 247.23 112.785 247.23 139.711C247.23 147.162 238.084 153.259 226.72 153.259C176.831 153.259 126.942 153.259 77.3299 153.259C65.9662 153.259 56.5427 147.162 56.5427 139.711C56.5427 112.785 56.5427 85.8585 56.5427 58.9322C56.5427 51.4809 65.9662 45.3844 77.3299 45.3844Z" fill="#F2D28E"/>
<path fill-rule="evenodd" clip-rule="evenodd" d="M78.1623 48.2631C127.497 48.2631 176.555 48.2631 225.613 48.2631C236.976 48.2631 246.123 54.1902 246.123 61.4722C246.123 87.5517 246.123 113.631 246.123 139.711C246.123 146.993 236.976 152.92 225.613 152.92C176.555 152.92 127.497 152.92 78.1623 152.92C67.0759 152.92 57.6523 146.993 57.6523 139.711C57.6523 113.631 57.6523 87.5517 57.6523 61.4722C57.6523 54.1902 67.0759 48.2631 78.1623 48.2631Z" fill="#F2D490"/>
<path fill-rule="evenodd" clip-rule="evenodd" d="M79.269 50.9733C127.772 50.9733 176.276 50.9733 224.779 50.9733C235.866 50.9733 244.735 56.9004 244.735 64.1824C244.735 89.2459 244.735 114.309 244.735 139.542C244.735 146.655 235.866 152.582 224.779 152.582C176.276 152.582 127.772 152.582 79.269 152.582C68.1825 152.582 59.0361 146.655 59.0361 139.542C59.0361 114.309 59.0361 89.2459 59.0361 64.1824C59.0361 56.9004 68.1825 50.9733 79.269 50.9733Z" fill="#F3D792"/>
<path fill-rule="evenodd" clip-rule="evenodd" d="M80.3756 53.8518C128.047 53.8518 175.719 53.8518 223.668 53.8518C234.478 53.8518 243.624 59.6096 243.624 66.7222C243.624 90.939 243.624 115.156 243.624 139.372C243.624 146.485 234.478 152.412 223.668 152.412C175.719 152.412 128.047 152.412 80.3756 152.412C69.2891 152.412 60.4199 146.485 60.4199 139.372C60.4199 115.156 60.4199 90.939 60.4199 66.7222C60.4199 59.6096 69.2891 53.8518 80.3756 53.8518Z" fill="#F3D993"/>
<path fill-rule="evenodd" clip-rule="evenodd" d="M81.2081 56.562H222.561C233.37 56.562 242.239 62.3198 242.239 69.4324V139.204C242.239 146.316 233.37 152.074 222.561 152.074H81.2081C70.3987 152.074 61.5295 146.316 61.5295 139.204V69.4324C61.5295 62.3198 70.3987 56.562 81.2081 56.562Z" fill="#F3DB95"/>
<path fill-rule="evenodd" clip-rule="evenodd" d="M309.591 68.2473H932.375C945.401 68.2473 955.656 75.0212 955.656 83.4886V142.76C955.656 151.058 945.124 158.002 932.375 158.002H309.591C296.842 158.002 286.31 151.228 286.31 142.76V83.4886C286.31 75.0212 296.842 68.2473 309.591 68.2473Z" fill="#EFB469"/>
<path fill-rule="evenodd" clip-rule="evenodd" d="M318.46 75.5292H923.782C936.254 75.5292 946.232 82.1337 946.232 90.0931V140.728C946.232 148.687 935.977 155.292 923.782 155.292H318.46C305.988 155.292 296.01 148.687 296.01 140.728V90.0931C296.01 82.1337 305.988 75.5292 318.46 75.5292Z" fill="#F1C383"/>
<path fill-rule="evenodd" clip-rule="evenodd" d="M319.293 78.408C520.513 78.408 721.732 78.408 922.675 78.408C934.87 78.408 944.848 84.8432 944.848 92.8025C944.848 108.721 944.848 124.64 944.848 140.559C944.848 148.518 934.87 154.953 922.675 154.953C721.732 154.953 520.513 154.953 319.293 154.953C307.098 154.953 297.12 148.518 297.12 140.559C297.12 124.64 297.12 108.721 297.12 92.8025C297.12 84.8432 307.098 78.408 319.293 78.408Z" fill="#F1C585"/>
<path fill-rule="evenodd" clip-rule="evenodd" d="M320.403 81.1171C520.791 81.1171 721.179 81.1171 921.844 81.1171C933.762 81.1171 943.74 87.5523 943.74 95.3423C943.74 110.414 943.74 125.486 943.74 140.389C943.74 148.348 933.762 154.783 921.844 154.783C721.179 154.783 520.791 154.783 320.403 154.783C308.208 154.783 298.507 148.348 298.507 140.389C298.507 125.486 298.507 110.414 298.507 95.3423C298.507 87.5523 308.208 81.1171 320.403 81.1171Z" fill="#F1C786"/>
<path fill-rule="evenodd" clip-rule="evenodd" d="M321.509 83.9968C521.066 83.9968 720.9 83.9968 920.734 83.9968C932.652 83.9968 942.352 90.2627 942.352 98.0527C942.352 112.109 942.352 126.164 942.352 140.22C942.352 148.01 932.652 154.445 920.734 154.445C720.9 154.445 521.066 154.445 321.509 154.445C309.591 154.445 299.613 148.01 299.613 140.22C299.613 126.164 299.613 112.109 299.613 98.0527C299.613 90.2627 309.314 83.9968 321.509 83.9968Z" fill="#F2CA88"/>
<path fill-rule="evenodd" clip-rule="evenodd" d="M322.342 86.7059C521.622 86.7059 720.624 86.7059 919.626 86.7059C931.544 86.7059 941.245 92.9718 941.245 100.592C941.245 113.802 941.245 127.011 941.245 140.22C941.245 147.84 931.544 154.106 919.626 154.106C720.624 154.106 521.622 154.106 322.342 154.106C310.701 154.106 301 147.84 301 140.22C301 127.011 301 113.802 301 100.592C301 92.9718 310.701 86.7059 322.342 86.7059Z" fill="#F2CC8A"/>
<path fill-rule="evenodd" clip-rule="evenodd" d="M323.448 89.5845C521.896 89.5845 720.344 89.5845 918.793 89.5845C930.433 89.5845 939.857 95.681 939.857 103.302C939.857 115.495 939.857 127.857 939.857 140.05C939.857 147.671 930.433 153.767 918.793 153.767C720.344 153.767 521.896 153.767 323.448 153.767C311.807 153.767 302.107 147.671 302.107 140.05C302.107 127.857 302.107 115.495 302.107 103.302C302.107 95.681 311.807 89.5845 323.448 89.5845Z" fill="#F2CE8B"/>
<path fill-rule="evenodd" clip-rule="evenodd" d="M324.281 92.2948C522.175 92.2948 720.069 92.2948 917.685 92.2948C929.326 92.2948 938.75 98.3913 938.75 106.012C938.75 117.189 938.75 128.535 938.75 139.882C938.75 147.333 929.326 153.599 917.685 153.599C720.069 153.599 522.175 153.599 324.281 153.599C312.917 153.599 303.494 147.333 303.494 139.882C303.494 128.535 303.494 117.189 303.494 106.012C303.494 98.3913 312.917 92.2948 324.281 92.2948Z" fill="#F2D08D"/>
<path fill-rule="evenodd" clip-rule="evenodd" d="M325.391 95.1733C522.453 95.1733 719.515 95.1733 916.578 95.1733C927.941 95.1733 937.365 101.101 937.365 108.552C937.365 119.051 937.365 129.382 937.365 139.712C937.365 147.163 927.941 153.26 916.578 153.26C719.515 153.26 522.453 153.26 325.391 153.26C314.027 153.26 304.604 147.163 304.604 139.712C304.604 129.382 304.604 119.051 304.604 108.552C304.604 101.101 314.027 95.1733 325.391 95.1733Z" fill="#F2D28E"/>
<path fill-rule="evenodd" clip-rule="evenodd" d="M326.497 97.8824C522.728 97.8824 719.236 97.8824 915.744 97.8824C926.83 97.8824 936.254 103.979 936.254 111.261C936.254 120.744 936.254 130.228 936.254 139.711C936.254 146.993 926.83 152.92 915.744 152.92C719.236 152.92 522.728 152.92 326.497 152.92C315.134 152.92 305.987 146.993 305.987 139.711C305.987 130.228 305.987 120.744 305.987 111.261C305.987 103.81 315.134 97.8824 326.497 97.8824Z" fill="#F2D490"/>
<path fill-rule="evenodd" clip-rule="evenodd" d="M327.33 100.762C523.284 100.762 718.96 100.762 914.637 100.762C925.723 100.762 934.87 106.689 934.87 113.802C934.87 122.439 934.87 130.906 934.87 139.543C934.87 146.655 925.723 152.583 914.637 152.583C718.96 152.583 523.284 152.583 327.33 152.583C316.244 152.583 307.375 146.655 307.375 139.543C307.375 130.906 307.375 122.439 307.375 113.802C307.375 106.689 316.244 100.762 327.33 100.762Z" fill="#F3D792"/>
<path fill-rule="evenodd" clip-rule="evenodd" d="M328.437 103.471C523.559 103.471 718.681 103.471 913.526 103.471C924.612 103.471 933.482 109.398 933.482 116.511C933.482 124.132 933.482 131.752 933.482 139.373C933.482 146.486 924.612 152.413 913.526 152.413C718.681 152.413 523.559 152.413 328.437 152.413C317.627 152.413 308.481 146.486 308.481 139.373C308.481 131.752 308.481 124.132 308.481 116.511C308.481 109.398 317.627 103.471 328.437 103.471Z" fill="#F3D993"/>
<path fill-rule="evenodd" clip-rule="evenodd" d="M329.546 106.351H912.696C923.505 106.351 932.374 112.109 932.374 119.052V139.204C932.374 146.317 923.505 152.075 912.696 152.075H329.546C318.737 152.075 309.868 146.317 309.868 139.204V119.052C309.868 112.109 318.737 106.351 329.546 106.351Z" fill="#F3DB95"/>
<path fill-rule="evenodd" clip-rule="evenodd" d="M589.004 17.6129H934.978C944.695 17.6129 952.329 21.6773 952.329 26.5883V51.1438C952.329 56.0549 944.695 59.9499 934.978 59.9499H589.004C579.634 59.9499 572 56.0549 572 51.1438V26.5883C572 21.6773 579.634 17.6129 589.004 17.6129Z" fill="#EFB469"/>
<path fill-rule="evenodd" clip-rule="evenodd" d="M595.599 22.0162H928.734C937.757 22.0162 945.391 25.9112 945.391 30.4836V49.7893C945.391 54.531 937.757 58.426 928.734 58.426H595.599C586.577 58.426 578.943 54.531 578.943 49.7893V30.4836C578.943 25.7419 586.577 22.0162 595.599 22.0162Z" fill="#F1C383"/>
<path fill-rule="evenodd" clip-rule="evenodd" d="M596.29 23.5397C706.988 23.5397 817.339 23.5397 928.037 23.5397C937.059 23.5397 944.347 27.4347 944.347 32.1764C944.347 37.9342 944.347 43.8614 944.347 49.7886C944.347 54.5303 937.059 58.256 928.037 58.256C817.339 58.256 706.988 58.256 596.29 58.256C587.268 58.256 579.98 54.5303 579.98 49.7886C579.98 43.8614 579.98 37.9342 579.98 32.1764C579.98 27.4347 587.268 23.5397 596.29 23.5397Z" fill="#F1C585"/>
<path fill-rule="evenodd" clip-rule="evenodd" d="M596.985 25.2328C706.989 25.2328 817.34 25.2328 927.344 25.2328C936.019 25.2328 943.307 28.9584 943.307 33.7002C943.307 38.95 943.307 44.3691 943.307 49.7882C943.307 54.3606 936.019 58.0863 927.344 58.0863C817.34 58.0863 706.989 58.0863 596.985 58.0863C588.31 58.0863 581.022 54.3606 581.022 49.7882C581.022 44.3691 581.022 38.95 581.022 33.7002C581.022 28.9584 588.31 25.2328 596.985 25.2328Z" fill="#F1C786"/>
<path fill-rule="evenodd" clip-rule="evenodd" d="M597.676 26.9269C707.333 26.9269 816.99 26.9269 926.647 26.9269C935.322 26.9269 942.61 30.6525 942.61 35.2249C942.61 39.9667 942.61 44.8777 942.61 49.6195C942.61 54.1919 935.322 57.9175 926.647 57.9175C816.99 57.9175 707.333 57.9175 597.676 57.9175C589.001 57.9175 581.713 54.1919 581.713 49.6195C581.713 44.8777 581.713 39.9667 581.713 35.2249C581.713 30.6525 589.001 26.9269 597.676 26.9269Z" fill="#F2CA88"/>
<path fill-rule="evenodd" clip-rule="evenodd" d="M598.718 28.4504C707.681 28.4504 816.644 28.4504 925.606 28.4504C934.282 28.4504 941.569 32.1761 941.569 36.7485C941.569 40.9822 941.569 45.2159 941.569 49.6189C941.569 54.022 934.282 57.7476 925.606 57.7476C816.644 57.7476 707.681 57.7476 598.718 57.7476C590.042 57.7476 582.755 54.022 582.755 49.6189C582.755 45.2159 582.755 40.9822 582.755 36.7485C582.755 32.1761 589.695 28.4504 598.718 28.4504Z" fill="#F2CC8A"/>
<path fill-rule="evenodd" clip-rule="evenodd" d="M599.413 30.1445C708.029 30.1445 816.298 30.1445 924.914 30.1445C933.589 30.1445 940.529 33.8702 940.529 38.2732C940.529 41.9989 940.529 45.7245 940.529 49.4502C940.529 53.8532 933.589 57.5789 924.914 57.5789C816.298 57.5789 708.029 57.5789 599.413 57.5789C590.738 57.5789 583.797 54.0226 583.797 49.4502C583.797 45.7245 583.797 41.9989 583.797 38.2732C583.797 33.8702 590.738 30.1445 599.413 30.1445Z" fill="#F2CE8B"/>
<path fill-rule="evenodd" clip-rule="evenodd" d="M600.108 31.8378C708.029 31.8378 816.298 31.8378 924.22 31.8378C932.896 31.8378 939.836 35.3941 939.836 39.7971C939.836 43.0147 939.836 46.2323 939.836 49.4499C939.836 53.853 932.896 57.4093 924.22 57.4093C816.298 57.4093 708.029 57.4093 600.108 57.4093C591.432 57.4093 584.492 53.853 584.492 49.4499C584.492 46.2323 584.492 43.0147 584.492 39.7971C584.492 35.3941 591.432 31.8378 600.108 31.8378Z" fill="#F2D08D"/>
<path fill-rule="evenodd" clip-rule="evenodd" d="M600.803 33.5308C708.378 33.5308 815.952 33.5308 923.527 33.5308C931.856 33.5308 938.796 37.0871 938.796 41.3208C938.796 44.0303 938.796 46.7399 938.796 49.2801C938.796 53.6831 931.856 57.2395 923.527 57.2395C815.952 57.2395 708.378 57.2395 600.803 57.2395C592.474 57.2395 585.534 53.6831 585.534 49.2801C585.534 46.7399 585.534 44.0303 585.534 41.3208C585.534 37.0871 592.474 33.5308 600.803 33.5308Z" fill="#F2D28E"/>
<path fill-rule="evenodd" clip-rule="evenodd" d="M601.498 35.0554C708.725 35.0554 815.606 35.0554 922.834 35.0554C931.162 35.0554 937.756 38.6117 937.756 43.0148C937.756 45.0469 937.756 47.0791 937.756 49.2806C937.756 53.5143 931.162 57.0706 922.834 57.0706C815.606 57.0706 708.725 57.0706 601.498 57.0706C593.169 57.0706 586.576 53.5143 586.576 49.2806C586.576 47.0791 586.576 45.0469 586.576 43.0148C586.576 38.6117 593.169 35.0554 601.498 35.0554Z" fill="#F2D490"/>
<path fill-rule="evenodd" clip-rule="evenodd" d="M602.188 36.7485C708.722 36.7485 815.602 36.7485 922.136 36.7485C930.117 36.7485 937.058 40.3048 937.058 44.5385C937.058 46.0627 937.058 47.5868 937.058 49.1109C937.058 53.3446 930.117 56.9009 922.136 56.9009C815.602 56.9009 708.722 56.9009 602.188 56.9009C594.206 56.9009 587.266 53.3446 587.266 49.1109C587.266 47.5868 587.266 46.0627 587.266 44.5385C587.266 40.3048 594.206 36.7485 602.188 36.7485Z" fill="#F3D792"/>
<path fill-rule="evenodd" clip-rule="evenodd" d="M602.883 38.4425C709.07 38.4425 815.256 38.4425 921.443 38.4425C929.425 38.4425 936.018 41.8295 936.018 46.0632C936.018 47.0792 936.018 48.0953 936.018 49.1114C936.018 53.3451 929.425 56.7321 921.443 56.7321C815.256 56.7321 709.07 56.7321 602.883 56.7321C594.902 56.7321 588.308 53.3451 588.308 49.1114C588.308 48.0953 588.308 47.0792 588.308 46.0632C588.308 41.8295 594.902 38.4425 602.883 38.4425Z" fill="#F3D993"/>
<path fill-rule="evenodd" clip-rule="evenodd" d="M603.925 40.1357H920.403C928.385 40.1357 934.978 43.5227 934.978 47.587V48.9418C934.978 53.1755 928.385 56.5625 920.403 56.5625H603.925C595.944 56.5625 589.351 53.1755 589.351 48.9418V47.587C589.351 43.5227 595.944 40.1357 603.925 40.1357Z" fill="#F3DB95"/>
<path fill-rule="evenodd" clip-rule="evenodd" d="M300.92 17.6129H543.884C550.686 17.6129 556 21.6773 556 26.5883V51.1438C556 56.0549 550.686 59.9499 543.884 59.9499H300.92C294.33 59.9499 288.803 56.0549 288.803 51.1438V26.5883C288.803 21.6773 294.33 17.6129 300.92 17.6129Z" fill="#EFB469"/>
<path fill-rule="evenodd" clip-rule="evenodd" d="M305.383 22.0162H539.42C545.797 22.0162 551.111 25.9112 551.111 30.4836V49.7893C551.111 54.531 545.797 58.426 539.42 58.426H305.383C299.006 58.426 293.905 54.531 293.905 49.7893V30.4836C293.905 25.7419 299.006 22.0162 305.383 22.0162Z" fill="#F1C383"/>
<path fill-rule="evenodd" clip-rule="evenodd" d="M306.022 23.5397C383.609 23.5397 461.196 23.5397 538.995 23.5397C545.372 23.5397 550.474 27.4347 550.474 32.1764C550.474 37.9342 550.474 43.8614 550.474 49.7886C550.474 54.5303 545.372 58.256 538.995 58.256C461.196 58.256 383.609 58.256 306.022 58.256C299.645 58.256 294.543 54.5303 294.543 49.7886C294.543 43.8614 294.543 37.9342 294.543 32.1764C294.543 27.4347 299.645 23.5397 306.022 23.5397Z" fill="#F1C585"/>
<path fill-rule="evenodd" clip-rule="evenodd" d="M306.448 25.2328C383.822 25.2328 461.197 25.2328 538.358 25.2328C544.735 25.2328 549.837 28.9584 549.837 33.7002C549.837 38.95 549.837 44.3691 549.837 49.7882C549.837 54.3606 544.735 58.0863 538.358 58.0863C461.197 58.0863 383.822 58.0863 306.448 58.0863C300.283 58.0863 295.182 54.3606 295.182 49.7882C295.182 44.3691 295.182 38.95 295.182 33.7002C295.182 28.9584 300.283 25.2328 306.448 25.2328Z" fill="#F1C786"/>
<path fill-rule="evenodd" clip-rule="evenodd" d="M307.086 26.9269C384.035 26.9269 460.984 26.9269 537.934 26.9269C544.098 26.9269 549.2 30.6525 549.2 35.2249C549.2 39.9667 549.2 44.8777 549.2 49.6195C549.2 54.1919 544.098 57.9175 537.934 57.9175C460.984 57.9175 384.035 57.9175 307.086 57.9175C300.921 57.9175 295.82 54.1919 295.82 49.6195C295.82 44.8777 295.82 39.9667 295.82 35.2249C295.82 30.6525 300.921 26.9269 307.086 26.9269Z" fill="#F2CA88"/>
<path fill-rule="evenodd" clip-rule="evenodd" d="M307.512 28.4504C384.248 28.4504 460.773 28.4504 537.297 28.4504C543.461 28.4504 548.563 32.1761 548.563 36.7485C548.563 40.9822 548.563 45.2159 548.563 49.6189C548.563 54.022 543.461 57.7476 537.297 57.7476C460.773 57.7476 384.248 57.7476 307.512 57.7476C301.347 57.7476 296.458 54.022 296.458 49.6189C296.458 45.2159 296.458 40.9822 296.458 36.7485C296.458 32.1761 301.347 28.4504 307.512 28.4504Z" fill="#F2CC8A"/>
<path fill-rule="evenodd" clip-rule="evenodd" d="M308.147 30.1445C384.246 30.1445 460.558 30.1445 536.87 30.1445C542.822 30.1445 547.923 33.8702 547.923 38.2732C547.923 41.9989 547.923 45.7245 547.923 49.4502C547.923 53.8532 542.822 57.5789 536.87 57.5789C460.558 57.5789 384.246 57.5789 308.147 57.5789C301.983 57.5789 297.094 54.0226 297.094 49.4502C297.094 45.7245 297.094 41.9989 297.094 38.2732C297.094 33.8702 301.983 30.1445 308.147 30.1445Z" fill="#F2CE8B"/>
<path fill-rule="evenodd" clip-rule="evenodd" d="M308.573 31.8378C384.459 31.8378 460.346 31.8378 536.445 31.8378C542.397 31.8378 547.286 35.3941 547.286 39.7971C547.286 43.0147 547.286 46.2323 547.286 49.4499C547.286 53.853 542.397 57.4093 536.445 57.4093C460.346 57.4093 384.459 57.4093 308.573 57.4093C302.621 57.4093 297.732 53.853 297.732 49.4499C297.732 46.2323 297.732 43.0147 297.732 39.7971C297.732 35.3941 302.621 31.8378 308.573 31.8378Z" fill="#F2D08D"/>
<path fill-rule="evenodd" clip-rule="evenodd" d="M308.999 33.5308C384.673 33.5308 460.347 33.5308 535.808 33.5308C541.76 33.5308 546.436 37.0871 546.436 41.3208C546.436 44.0303 546.436 46.7399 546.436 49.2801C546.436 53.6831 541.76 57.2395 535.808 57.2395C460.347 57.2395 384.673 57.2395 308.999 57.2395C303.26 57.2395 298.371 53.6831 298.371 49.2801C298.371 46.7399 298.371 44.0303 298.371 41.3208C298.371 37.0871 303.26 33.5308 308.999 33.5308Z" fill="#F2D28E"/>
<path fill-rule="evenodd" clip-rule="evenodd" d="M309.634 35.0554C384.883 35.0554 460.132 35.0554 535.381 35.0554C541.12 35.0554 545.796 38.6117 545.796 43.0148C545.796 45.0469 545.796 47.0791 545.796 49.2806C545.796 53.5143 541.12 57.0706 535.381 57.0706C460.132 57.0706 384.883 57.0706 309.634 57.0706C303.895 57.0706 299.006 53.5143 299.006 49.2806C299.006 47.0791 299.006 45.0469 299.006 43.0148C299.006 38.6117 303.895 35.0554 309.634 35.0554Z" fill="#F2D490"/>
<path fill-rule="evenodd" clip-rule="evenodd" d="M310.06 36.7485C385.096 36.7485 459.92 36.7485 534.744 36.7485C540.483 36.7485 545.159 40.3048 545.159 44.5385C545.159 46.0627 545.159 47.5868 545.159 49.1109C545.159 53.3446 540.483 56.9009 534.744 56.9009C459.92 56.9009 385.096 56.9009 310.06 56.9009C304.321 56.9009 299.645 53.3446 299.645 49.1109C299.645 47.5868 299.645 46.0627 299.645 44.5385C299.645 40.3048 304.321 36.7485 310.06 36.7485Z" fill="#F3D792"/>
<path fill-rule="evenodd" clip-rule="evenodd" d="M310.699 38.4425C385.097 38.4425 459.708 38.4425 534.319 38.4425C539.846 38.4425 544.522 41.8295 544.522 46.0632C544.522 47.0792 544.522 48.0953 544.522 49.1114C544.522 53.3451 539.846 56.7321 534.319 56.7321C459.708 56.7321 385.097 56.7321 310.699 56.7321C304.959 56.7321 300.283 53.3451 300.283 49.1114C300.283 48.0953 300.283 47.0792 300.283 46.0632C300.283 41.8295 304.959 38.4425 310.699 38.4425Z" fill="#F3D993"/>
<path fill-rule="evenodd" clip-rule="evenodd" d="M311.124 40.1357H533.682C539.421 40.1357 543.885 43.5227 543.885 47.587V48.9418C543.885 53.1755 539.421 56.5625 533.682 56.5625H311.124C305.598 56.5625 300.921 53.1755 300.921 48.9418V47.587C300.921 43.5227 305.598 40.1357 311.124 40.1357Z" fill="#F3DB95"/>
<path d="M85.8259 58.0244C82.4572 77.646 84.3521 91.222 94.2479 102.465C103.933 113.495 122.04 122.935 151.096 134.071C179.941 122.935 198.048 113.495 207.733 102.465C217.629 91.222 219.524 77.646 216.155 58.1305C193.627 55.7971 172.361 54.6304 151.096 54.6304C129.831 54.6304 108.355 55.6911 85.8259 58.0244ZM66.4555 108.616C53.4015 93.6614 51.5066 76.3732 56.7703 51.0243L58.0336 45.6151L68.3504 44.4484C96.985 40.9484 123.935 39.3574 151.096 39.3574C178.046 39.4635 204.996 41.1605 233.42 44.4484L244.158 45.6151L245.211 51.0243C250.475 76.3732 248.58 93.6614 235.526 108.616C222.261 123.571 198.469 135.45 159.939 149.769L151.096 153.056L142.042 149.769C103.512 135.45 79.7201 123.571 66.4555 108.616Z" fill="black" fill-opacity="0.101961"/>
<path d="M85.8259 51.6614C82.4572 71.283 84.3521 84.859 94.2479 96.1016C103.933 107.132 122.04 116.466 151.096 127.708C179.941 116.466 198.048 107.132 207.733 96.1016C217.629 84.859 219.524 71.283 216.155 51.6614C193.627 49.4341 172.361 48.2674 151.096 48.2674C129.831 48.1613 108.355 49.328 85.8259 51.6614ZM66.4555 102.253C53.4015 87.2984 51.5066 69.9041 56.7703 44.6613L58.0336 39.2521L68.3504 37.9793C96.985 34.5853 123.935 32.9944 151.096 32.9944C178.046 32.9944 204.996 34.6914 233.42 37.9793L244.158 39.2521L245.211 44.6613C250.475 69.9041 248.58 87.2984 235.526 102.253C222.261 117.208 198.469 128.981 159.939 143.299L151.096 146.693L142.042 143.299C103.512 128.981 79.7201 117.208 66.4555 102.253Z" fill="white"/>
<path fill-rule="evenodd" clip-rule="evenodd" d="M71.9269 42.9634C61.8206 90.7976 78.2434 107.662 151.093 134.708C223.943 107.662 240.155 90.7976 230.259 42.9634C175.096 36.5997 127.091 36.3875 71.9269 42.9634Z" fill="#E6E6E6"/>
<path fill-rule="evenodd" clip-rule="evenodd" d="M151.096 134.708C223.945 107.662 240.158 90.798 230.262 42.9638C202.68 39.782 176.783 38.191 151.096 38.085V134.708Z" fill="#CCCCCC"/>
<path fill-rule="evenodd" clip-rule="evenodd" d="M151.097 124.738C130.464 117.102 114.252 110.208 102.04 103.314C80.3533 91.0104 70.6681 78.2829 69.4048 60.1462C67.0887 95.359 87.7225 111.162 151.097 134.708C214.472 111.162 235.106 95.359 232.58 60.0402C231.316 78.2829 221.631 91.0104 199.945 103.314C187.733 110.208 171.731 117.102 151.097 124.738Z" fill="white"/>
<path fill-rule="evenodd" clip-rule="evenodd" d="M69.1951 65.8731C69.4056 97.1615 91.3026 112.541 151.098 134.708C210.894 112.541 232.581 97.1615 232.791 65.8731C232.791 64.4943 232.791 63.0094 232.581 61.5245C231.317 79.6612 221.632 92.3887 199.946 104.692C187.734 111.586 171.732 118.48 151.098 126.117C130.465 118.48 114.252 111.586 102.041 104.692C80.3541 92.3887 70.6689 79.6612 69.4056 61.5245C69.1951 63.0094 69.1951 64.4943 69.1951 65.8731Z" fill="#999999"/>
<path fill-rule="evenodd" clip-rule="evenodd" d="M148.572 37.2373L154.678 38.0858L151.098 77.8593L148.572 37.2373Z" fill="white"/>
<path fill-rule="evenodd" clip-rule="evenodd" d="M151.096 140.86L142.042 137.466C103.512 123.254 79.7199 111.375 66.4553 96.4201C58.4545 87.1927 54.6646 77.1167 54.033 64.8135C53.6119 79.8744 57.1912 91.6473 66.4553 102.254C79.7199 117.208 103.512 128.981 142.042 143.3L151.096 146.694L159.939 143.3C198.469 128.981 222.261 117.208 235.526 102.254C244.79 91.6473 248.58 79.8744 247.948 64.8135C247.527 77.1167 243.526 87.1927 235.526 96.4201C222.261 111.375 198.469 123.254 159.939 137.466L151.096 140.86Z" fill="#E6E6E6"/>
<path d="M322.178 58.5313L306.499 63.5072C304.672 64.1117 302.694 64.2977 300.867 64.1117C299.497 63.9722 298.203 63.6467 297.137 63.1816C296.072 62.7166 295.159 62.1121 294.55 61.3215C293.636 60.2984 293.18 59.0428 293.56 57.6477L296.452 47.0914L283.362 39.2787C281.992 38.4417 281.078 37.3721 280.698 36.3025C280.469 35.5584 280.545 34.7679 280.85 34.0238V33.9773C281.23 33.2333 281.839 32.5357 282.829 31.8847C284.123 31.0941 285.873 30.536 288.08 30.257L288.309 30.2105L306.118 28.5829L306.499 28.0248C309.315 23.6535 314.034 16.4454 322.102 16.4919C330.093 16.5849 334.812 23.5605 337.704 27.9783L338.161 28.5829L355.971 30.2105L356.199 30.257C358.406 30.536 360.157 31.0941 361.45 31.8847C362.44 32.4892 363.049 33.2333 363.429 34.0238C363.734 34.7679 363.81 35.5584 363.582 36.3025C363.201 37.3721 362.288 38.4417 360.918 39.2787L347.903 47.0914L350.719 57.6477C351.1 59.0428 350.719 60.2984 349.806 61.3215C349.121 62.1121 348.207 62.7166 347.142 63.1816C346.076 63.6467 344.782 63.9722 343.412 64.1117C341.586 64.2977 339.607 64.1117 337.78 63.5072L322.178 58.5313Z" fill="black" fill-opacity="0.101961"/>
<path d="M322.178 57.0898L306.499 62.0657C304.672 62.6703 302.694 62.8098 300.867 62.6703C299.497 62.5307 298.203 62.2052 297.137 61.7402C296.072 61.2751 295.159 60.6241 294.55 59.88C293.636 58.8569 293.18 57.5548 293.56 56.2062V56.1597L296.452 45.6034L283.362 37.7908C281.992 36.9537 281.078 35.9306 280.698 34.861C280.469 34.117 280.545 33.3264 280.85 32.5358C281.23 31.7918 281.839 31.0477 282.829 30.4432C284.123 29.6526 285.873 29.0481 288.08 28.8155L288.309 28.769L306.118 27.1414L306.499 26.5834C309.315 22.212 314.034 14.9574 322.102 15.0504C330.093 15.0969 334.812 22.119 337.704 26.4904L338.161 27.1414L355.971 28.769L356.199 28.8155C358.406 29.0481 360.157 29.6526 361.45 30.4432C362.44 31.0477 363.049 31.7918 363.429 32.5358C363.734 33.3264 363.81 34.0705 363.582 34.861C363.201 35.9306 362.288 36.9537 360.918 37.7908L347.903 45.6034L350.719 56.1597V56.2062C351.1 57.5548 350.719 58.8569 349.806 59.88C349.121 60.6241 348.207 61.2751 347.142 61.7402C346.076 62.2052 344.782 62.5307 343.412 62.6703C341.586 62.8098 339.607 62.6703 337.78 62.0657L322.178 57.0898Z" fill="white"/>
<path d="M322.176 53.6485L304.214 59.3685C301.169 60.345 297.897 58.9034 298.429 56.6713L301.778 44.5338L286.861 35.6051C284.73 34.3495 285.034 32.2568 289.068 31.7918L309.618 29.8851C311.52 27.5134 316.239 18.0267 322.1 18.0732C327.96 18.1197 332.603 27.3274 334.658 29.8851L355.284 31.7918C359.241 32.2568 359.622 34.3495 357.415 35.6051L342.573 44.5338L345.846 56.6713C346.379 58.9034 343.106 60.345 340.062 59.3685L322.176 53.6485Z" fill="#FFE00F"/>
<path fill-rule="evenodd" clip-rule="evenodd" d="M322.175 51.2772L304.213 56.9972C301.93 57.7412 299.494 57.0902 298.657 55.7881L298.429 56.6717C297.896 58.9038 301.169 60.3454 304.213 59.3689L322.175 53.6489L340.061 59.3689C343.105 60.3454 346.378 58.9038 345.845 56.6717L345.617 55.7881C344.78 57.0902 342.344 57.7412 340.061 56.9972L322.175 51.2772Z" fill="#DCB000"/>
<path fill-rule="evenodd" clip-rule="evenodd" d="M341.966 42.4883L342.575 44.5345L357.416 35.6058C358.862 34.7687 359.167 33.6061 358.101 32.7225C357.949 32.9085 357.721 33.0946 357.416 33.2341L341.966 42.4883Z" fill="#DCB000"/>
<path fill-rule="evenodd" clip-rule="evenodd" d="M302.313 42.4883L286.862 33.2341C286.558 33.0946 286.33 32.9085 286.177 32.7225C285.112 33.6061 285.416 34.7687 286.862 35.6058L301.78 44.5345L302.313 42.4883Z" fill="#DCB000"/>
<path fill-rule="evenodd" clip-rule="evenodd" d="M306.501 60.6708C304.674 61.2754 302.695 61.4614 300.869 61.2754C299.499 61.1359 298.205 60.8569 297.139 60.3918C296.074 59.9268 295.161 59.2757 294.552 58.5317C294.019 57.9271 293.638 57.2296 293.486 56.4855C293.258 57.7411 293.638 58.9037 294.552 59.8803C295.161 60.6243 296.074 61.2754 297.139 61.7404C298.205 62.2055 299.499 62.531 300.869 62.6705C302.695 62.81 304.674 62.6705 306.501 62.066L322.18 57.0901L337.782 62.066C339.609 62.6705 341.588 62.81 343.414 62.6705C344.784 62.531 346.078 62.2055 347.144 61.7404C348.209 61.2754 349.123 60.6243 349.808 59.8803C350.645 58.9037 351.025 57.7411 350.797 56.4855C350.645 57.2296 350.34 57.9271 349.808 58.5317C349.123 59.2757 348.209 59.9268 347.144 60.3453C346.078 60.8569 344.784 61.1359 343.414 61.2754C341.588 61.4614 339.609 61.2754 337.782 60.7174L322.18 55.7415L306.501 60.6708Z" fill="#E6E6E6"/>
<path fill-rule="evenodd" clip-rule="evenodd" d="M334.657 29.8851C332.602 27.3274 327.959 18.1197 322.099 18.0732C316.238 18.0267 311.519 27.5134 309.616 29.8851L289.067 31.7918C287.697 31.9313 286.707 32.3033 286.175 32.7218L286.86 33.2334L295.003 38.1163C302.386 35.9771 311.595 33.9309 321.718 32.3963C327.731 31.4662 333.515 30.7687 338.995 30.3036L334.657 29.8851Z" fill="#FFF71F"/>
<path fill-rule="evenodd" clip-rule="evenodd" d="M343.184 46.9514C338.769 47.928 333.898 48.8116 328.875 49.6021C318.219 51.2763 308.097 52.1598 299.649 52.3458L298.659 55.7871C299.496 57.0892 301.932 57.7403 304.215 56.9962L322.177 51.2763L340.063 56.9962C342.346 57.7403 344.782 57.0892 345.619 55.7871L343.184 46.9514Z" fill="#F7C600"/>
<ellipse cx="610.561" cy="40.0665" rx="40.5607" ry="24.2209" fill="#E6E6E6"/>
<ellipse cx="611.575" cy="40.6572" rx="41.5747" ry="24.8116" fill="black" fill-opacity="0.1"/>
<ellipse cx="611.575" cy="38.8851" rx="41.5747" ry="24.2209" fill="white"/>
<path d="M614.468 58.2707V56.7259C614.468 55.766 613.137 54.9904 611.489 54.9904C609.841 54.9904 608.51 55.766 608.51 56.7259V58.2707C598.933 57.7769 590.503 54.9256 584.944 50.7217C581.14 47.8453 578.681 44.3357 578.118 40.5148H580.687C582.332 40.5148 583.663 39.7376 583.663 38.7793C583.663 37.8193 582.332 37.0437 580.687 37.0437H578.134C579.6 27.6898 592.44 20.2253 608.51 19.3952V20.8326C608.51 21.7925 609.841 22.5682 611.489 22.5682C613.137 22.5682 614.468 21.7925 614.468 20.8326V19.3952C621.706 19.769 628.289 21.4888 633.472 24.1209C639.797 27.3327 644.038 31.9029 644.844 37.0437H642.294C640.646 37.0437 639.315 37.8193 639.315 38.7793C639.315 39.7376 640.646 40.5148 642.294 40.5148H644.86C643.477 49.92 630.598 57.439 614.468 58.2707ZM611.489 15.8456C589.695 15.8456 572.03 26.1354 572.03 38.8337C572.03 51.5305 589.695 61.8219 611.489 61.8219C633.283 61.8219 650.948 51.5305 650.948 38.8337C650.948 26.1354 633.283 15.8456 611.489 15.8456Z" fill="#DCB000"/>
<path d="M614.468 58.2707V56.7259C614.468 55.766 613.137 54.9904 611.489 54.9904C609.841 54.9904 608.51 55.766 608.51 56.7259V58.2707C598.933 57.7769 590.503 54.9256 584.944 50.7217C581.14 47.8453 578.681 44.3357 578.118 40.5148H580.687C582.332 40.5148 583.663 39.7376 583.663 38.7793C583.663 37.8193 582.332 37.0437 580.687 37.0437H578.134C579.6 27.6898 592.44 20.2253 608.51 19.3952V20.8326C608.51 21.7925 609.841 22.5682 611.489 22.5682C613.137 22.5682 614.468 21.7925 614.468 20.8326V19.3952C621.706 19.769 628.289 21.4888 633.472 24.1209C639.797 27.3327 644.038 31.9029 644.844 37.0437H642.294C640.646 37.0437 639.315 37.8193 639.315 38.7793C639.315 39.7376 640.646 40.5148 642.294 40.5148H644.86C643.477 49.92 630.598 57.439 614.468 58.2707Z" fill="#FFE00F"/>
<path d="M629.226 27.634L611.588 38.4029L611.487 38.3997C611.267 38.3997 611.052 38.4126 610.843 38.4366L596.077 31.9384C595.101 31.5105 593.701 31.6195 592.955 32.1948C592.213 32.7653 592.402 33.5842 593.393 34.0184L608.15 40.5151C608.293 41.515 609.732 42.3035 611.487 42.3035C613.338 42.3035 614.837 41.4285 614.837 40.3516C614.837 40.3003 614.832 40.249 614.823 40.1994L632.461 29.4304C633.311 28.908 633.28 28.0875 632.386 27.5907C631.495 27.0924 630.081 27.1164 629.226 27.634Z" fill="#DCB000"/>
<path d="M196.387 119.494L176.261 116.697L167.045 127.902L138.308 90.4618L167.65 82.054L196.387 119.494Z" fill="#4F8AD0"/>
<path d="M107.612 119.494L127.738 116.697L136.955 127.902L165.692 90.4618L136.35 82.054L107.612 119.494Z" fill="#58ADE4"/>
<path d="M154.988 112.189L152.002 108.3L156.843 101.994C158.154 101.926 159.45 101.825 160.729 101.695L154.988 112.189Z" fill="#417FC7"/>
<path d="M202 71.895C202 88.5803 179.863 102.106 152.556 102.106C125.248 102.106 103.111 88.5803 103.111 71.895C103.111 55.21 125.248 41.6843 152.556 41.6843C179.863 41.6843 202 55.21 202 71.895Z" fill="#EC8A14"/>
<path d="M200.889 70.5378C200.889 87.2224 178.752 100.749 151.445 100.749C124.138 100.749 102 87.2224 102 70.5378C102 53.8528 124.138 40.3263 151.445 40.3263C178.752 40.3263 200.889 53.8528 200.889 70.5378Z" fill="#F2BE0B"/>
<path d="M188.945 70.5381C188.945 83.1922 172.156 93.4506 151.445 93.4506C130.734 93.4506 113.945 83.1922 113.945 70.5381C113.945 57.8836 130.734 47.6249 151.445 47.6249C172.156 47.6249 188.945 57.8836 188.945 70.5381Z" fill="#ECA110"/>
<path d="M154.136 94.6338L156.402 93.2521C173.124 91.9032 186.37 83.8227 188.61 73.6116L190.879 72.2278C190.448 84.4986 174.228 94.394 154.136 94.6338ZM148.006 94.4042C144.173 94.0677 140.528 93.3769 137.162 92.3878L137.932 91.918C141.584 92.7804 145.513 93.3034 149.615 93.4237L148.006 94.4042V94.4042ZM151.444 93.4505C151.016 93.4505 150.591 93.4463 150.168 93.4375C150.471 93.4437 150.776 93.4477 151.08 93.4495H151.081C151.101 93.4496 151.12 93.4496 151.139 93.4498C151.141 93.4498 151.141 93.4498 151.143 93.4498C151.161 93.4499 151.18 93.45 151.199 93.45C151.2 93.45 151.202 93.45 151.203 93.45C151.221 93.4501 151.241 93.4502 151.259 93.4503C151.26 93.4503 151.263 93.4503 151.264 93.4503C151.282 93.4503 151.299 93.4503 151.317 93.4503C151.32 93.4504 151.322 93.4504 151.324 93.4504C151.343 93.4504 151.362 93.4504 151.38 93.4505C151.382 93.4505 151.383 93.4505 151.384 93.4505C151.404 93.4505 151.424 93.4505 151.444 93.4505C151.445 93.4505 151.445 93.4505 151.445 93.4505C151.444 93.4505 151.444 93.4505 151.444 93.4505V93.4505ZM151.445 93.4505C151.463 93.4505 151.478 93.4505 151.496 93.4505C151.479 93.4505 151.463 93.4505 151.446 93.4505H151.445ZM151.514 93.4505C151.528 93.4504 151.541 93.4504 151.555 93.4504C151.541 93.4504 151.528 93.4504 151.514 93.4505ZM151.585 93.4503C151.593 93.4503 151.601 93.4503 151.61 93.4503C151.601 93.4503 151.593 93.4503 151.585 93.4503ZM151.64 93.4502H151.642C151.642 93.4502 151.641 93.4502 151.64 93.4502ZM136.268 91.4964C136.257 91.4936 136.247 91.4908 136.237 91.4879C136.247 91.4909 136.257 91.4935 136.268 91.4964ZM136.217 91.4826C134.179 90.9287 132.238 90.267 130.41 89.5095L130.113 89.6907C129.542 89.4145 128.985 89.1282 128.443 88.8326L128.625 88.7214C130.955 89.8143 133.501 90.7444 136.217 91.4826V91.4826ZM126.264 87.5166C126.153 87.4554 126.043 87.3936 125.933 87.3315C125.933 87.3312 125.933 87.3308 125.932 87.3306C126.042 87.393 126.153 87.4551 126.264 87.5166V87.5166ZM188.905 69.4671C188.716 66.9596 187.868 64.5575 186.464 62.3245L187.237 61.8527C188.849 63.912 189.972 66.1411 190.516 68.4842L188.905 69.4671V69.4671ZM182.538 57.7247C182.126 57.352 181.697 56.9879 181.251 56.631L181.436 56.5185C181.919 56.8511 182.387 57.1924 182.839 57.5415L182.538 57.7247Z" fill="#F4D808"/>
<path d="M151.445 93.4506C151.462 93.4506 151.48 93.4506 151.497 93.4506C151.497 93.4506 151.497 93.4506 151.496 93.4506C151.479 93.4506 151.463 93.4506 151.445 93.4506C151.446 93.4506 151.445 93.4506 151.445 93.4506H151.445ZM151.385 93.4506C151.383 93.4506 151.382 93.4506 151.381 93.4506C151.382 93.4506 151.384 93.4506 151.385 93.4506ZM151.512 93.4506C151.528 93.4505 151.546 93.4505 151.563 93.4505C151.56 93.4505 151.558 93.4505 151.555 93.4505C151.541 93.4505 151.528 93.4505 151.514 93.4506C151.514 93.4506 151.513 93.4506 151.512 93.4506ZM151.325 93.4505C151.322 93.4505 151.32 93.4505 151.318 93.4504C151.32 93.4505 151.322 93.4505 151.325 93.4505ZM151.576 93.4504C151.588 93.4504 151.602 93.4504 151.615 93.4503C151.614 93.4503 151.612 93.4503 151.61 93.4503C151.601 93.4504 151.594 93.4504 151.585 93.4504C151.582 93.4504 151.579 93.4504 151.576 93.4504ZM151.264 93.4503C151.263 93.4503 151.26 93.4503 151.259 93.4503C151.261 93.4503 151.262 93.4503 151.264 93.4503ZM151.635 93.4502C151.648 93.4502 151.66 93.4502 151.673 93.4502C151.663 93.4502 151.653 93.4502 151.643 93.4502H151.641C151.639 93.4502 151.637 93.4502 151.635 93.4502ZM151.204 93.4501C151.202 93.4501 151.2 93.4501 151.199 93.4501C151.201 93.4501 151.202 93.4501 151.204 93.4501ZM151.709 93.45C151.715 93.45 151.72 93.4499 151.727 93.4499C151.721 93.4499 151.715 93.45 151.709 93.45ZM151.143 93.4499C151.142 93.4499 151.141 93.4499 151.14 93.4499C151.141 93.4499 151.142 93.4499 151.143 93.4499ZM151.082 93.4495H151.081C151.081 93.4495 151.081 93.4495 151.082 93.4495ZM156.402 93.2522L156.403 93.2519C173.122 91.9024 186.368 83.8217 188.61 73.6117H188.611C186.371 83.8227 173.125 91.9032 156.402 93.2522V93.2522ZM136.698 91.6107C136.695 91.6102 136.693 91.6096 136.691 91.6089C136.693 91.6096 136.695 91.6101 136.698 91.6107ZM136.686 91.6076C136.546 91.571 136.407 91.534 136.268 91.4965C136.257 91.4936 136.248 91.491 136.237 91.488C136.23 91.4863 136.224 91.4845 136.217 91.4826C133.502 90.7445 130.955 89.8144 128.626 88.7214L128.626 88.721C131.09 89.877 133.794 90.8502 136.686 91.6076V91.6076ZM127.877 88.3597C127.326 88.0882 126.789 87.807 126.264 87.5167C126.153 87.4551 126.042 87.393 125.932 87.3307C125.928 87.3277 125.924 87.3248 125.919 87.3218C126.551 87.6812 127.205 88.0275 127.877 88.3597ZM188.942 70.7826C188.942 70.7818 188.942 70.7818 188.942 70.781C188.942 70.7818 188.942 70.7818 188.942 70.7826ZM188.943 70.7417C188.943 70.7378 188.943 70.7347 188.943 70.7307C188.943 70.7347 188.943 70.7386 188.943 70.7417ZM188.943 70.7142C188.943 70.7087 188.943 70.7024 188.943 70.6969C188.943 70.7024 188.943 70.7079 188.943 70.7142ZM188.944 70.678C188.944 70.6702 188.944 70.6631 188.944 70.6545C188.944 70.6623 188.944 70.6702 188.944 70.678ZM188.944 70.6434C188.944 70.6348 188.944 70.6238 188.944 70.6151C188.944 70.6246 188.944 70.634 188.944 70.6434ZM188.944 70.6112C188.944 70.6002 188.944 70.59 188.944 70.579C188.944 70.59 188.944 70.6002 188.944 70.6112ZM188.944 70.5703C188.944 70.5593 188.944 70.5483 188.944 70.5381C188.944 70.5491 188.944 70.5593 188.944 70.5703ZM188.944 70.5381C188.944 70.5271 188.944 70.5153 188.944 70.5043C188.944 70.5153 188.944 70.5263 188.944 70.5381ZM188.904 69.4672C188.715 66.9605 187.867 64.5584 186.463 62.3245H186.464C187.868 64.5576 188.716 66.9597 188.905 69.4672H188.904ZM186.194 61.9094C186.192 61.9062 186.191 61.9039 186.189 61.9007C186.19 61.9039 186.192 61.9062 186.194 61.9094ZM186.176 61.8826C184.45 59.2997 181.974 56.9526 178.913 54.9421C178.922 54.9468 178.931 54.9523 178.94 54.957C179.753 55.4925 180.525 56.0515 181.249 56.6318L181.251 56.631C181.697 56.988 182.126 57.3521 182.538 57.7248H182.538C183.973 59.0229 185.196 60.4147 186.176 61.8826" fill="#F3CF09"/>
<path d="M117.278 71.895C117.278 59.2413 134.067 48.9826 154.778 48.9826C161.754 48.9826 168.282 50.1479 173.877 52.175C167.621 49.3168 159.856 47.6247 151.445 47.6247C130.734 47.6247 113.945 57.8834 113.945 70.5379C113.945 78.93 121.33 86.2671 132.346 90.2583C123.199 86.08 117.278 79.4103 117.278 71.895Z" fill="#E26F19"/>
<path d="M107.608 84.5262C105.806 82.4232 104.398 80.1758 103.445 77.8178C104.399 80.1744 105.808 82.424 107.608 84.526L107.608 84.5262V84.5262ZM103.442 77.811C103.441 77.8078 103.44 77.8049 103.438 77.8017C103.44 77.8045 103.441 77.8082 103.442 77.811Z" fill="#F6ED36"/>
<path d="M107.608 84.5259C105.808 82.4239 104.399 80.1743 103.445 77.8177C103.444 77.8155 103.443 77.8131 103.442 77.8109C103.441 77.8081 103.44 77.8044 103.438 77.8016C103.272 77.3903 103.12 76.9755 102.982 76.5576L113.96 69.8633C113.949 70.0882 113.944 70.3115 113.944 70.5379C113.944 73.4393 114.824 76.2136 116.436 78.7673C116.493 78.8577 116.551 78.9478 116.61 79.0377L107.608 84.5259" fill="#F4D808"/>
<path d="M116.61 79.0376C116.551 78.9477 116.494 78.8576 116.437 78.7672C116.494 78.8575 116.552 78.9476 116.61 79.0374" fill="#F3CF09"/>
<path d="M174.426 43.7812C171.095 42.7111 167.542 41.8666 163.817 41.2801C167.543 41.8651 171.098 42.7103 174.428 43.7805L174.426 43.7812Z" fill="#F6ED36"/>
<path d="M165.426 49.2704C161.982 48.4243 158.284 47.881 154.423 47.6962C154.422 47.6962 154.422 47.6962 154.421 47.6962C154.341 47.6923 154.264 47.6884 154.183 47.6852C154.181 47.6852 154.18 47.6852 154.178 47.6844C154.163 47.6844 154.148 47.6837 154.133 47.6829C154.132 47.6829 154.13 47.6829 154.128 47.6829C154.066 47.6797 154.006 47.6774 153.944 47.675C153.941 47.675 153.938 47.675 153.934 47.6742C153.92 47.6742 153.907 47.6734 153.893 47.6726C153.89 47.6726 153.886 47.6726 153.883 47.6726C153.87 47.6719 153.855 47.6719 153.841 47.6711C153.841 47.6711 153.841 47.6711 153.84 47.6711C153.795 47.6687 153.749 47.6671 153.704 47.6656C153.7 47.6656 153.696 47.6656 153.691 47.6656C153.679 47.6648 153.667 47.664 153.654 47.664C153.649 47.664 153.643 47.6632 153.637 47.6632C153.625 47.6632 153.613 47.6624 153.601 47.6624C153.597 47.6616 153.593 47.6616 153.589 47.6616C153.549 47.6601 153.507 47.6585 153.467 47.6577C153.461 47.6577 153.454 47.6569 153.448 47.6569C153.437 47.6569 153.424 47.6561 153.414 47.6561C153.407 47.6553 153.401 47.6553 153.394 47.6553C153.384 47.6546 153.372 47.6546 153.362 47.6546C153.354 47.6538 153.347 47.6538 153.339 47.6538C153.329 47.653 153.317 47.653 153.307 47.6522C153.301 47.6522 153.295 47.6522 153.288 47.6522C153.268 47.6514 153.248 47.6506 153.228 47.6506C153.22 47.6498 153.213 47.6498 153.205 47.6498C153.195 47.6491 153.185 47.6491 153.175 47.6491C153.167 47.6483 153.158 47.6483 153.15 47.6483C153.14 47.6483 153.131 47.6475 153.121 47.6475C153.112 47.6467 153.104 47.6467 153.095 47.6467C153.086 47.6467 153.075 47.6459 153.067 47.6459C153.057 47.6459 153.048 47.6451 153.039 47.6451C153.023 47.6451 153.007 47.6443 152.99 47.6436C152.981 47.6436 152.971 47.6436 152.962 47.6436C152.953 47.6428 152.943 47.6428 152.935 47.6428C152.926 47.642 152.916 47.642 152.907 47.642C152.898 47.642 152.889 47.6412 152.88 47.6412C152.871 47.6412 152.861 47.6412 152.852 47.6404C152.843 47.6404 152.834 47.6404 152.825 47.6404C152.814 47.6396 152.804 47.6396 152.794 47.6396C152.786 47.6388 152.778 47.6388 152.77 47.6388C152.754 47.6388 152.736 47.638 152.719 47.638C152.712 47.6373 152.703 47.6373 152.695 47.6373C152.685 47.6373 152.674 47.6373 152.664 47.6365C152.655 47.6365 152.647 47.6365 152.638 47.6365C152.629 47.6365 152.619 47.6357 152.609 47.6357C152.6 47.6357 152.592 47.6357 152.583 47.6349C152.572 47.6349 152.562 47.6349 152.551 47.6349C152.543 47.6341 152.536 47.6341 152.528 47.6341C152.511 47.6341 152.494 47.6333 152.476 47.6333C152.469 47.6333 152.465 47.6333 152.459 47.6333C152.446 47.6325 152.433 47.6325 152.42 47.6325C152.412 47.6325 152.406 47.6325 152.399 47.6325C152.388 47.6318 152.375 47.6318 152.364 47.6318C152.357 47.6318 152.349 47.631 152.342 47.631C152.33 47.631 152.319 47.631 152.307 47.631C152.3 47.631 152.293 47.6302 152.286 47.6302C152.271 47.6302 152.258 47.6302 152.243 47.6302C152.236 47.6302 152.229 47.6294 152.223 47.6294C152.207 47.6294 152.192 47.6294 152.177 47.6294C152.171 47.6294 152.163 47.6286 152.157 47.6286C152.145 47.6286 152.133 47.6286 152.121 47.6286C152.114 47.6286 152.107 47.6286 152.1 47.6286C152.087 47.6278 152.076 47.6278 152.063 47.6278C152.057 47.6278 152.05 47.6278 152.044 47.6278C152.029 47.6278 152.015 47.627 152.001 47.627C151.997 47.627 151.992 47.627 151.988 47.627C151.97 47.627 151.951 47.627 151.933 47.627C151.928 47.627 151.923 47.627 151.918 47.6263C151.905 47.6263 151.891 47.6263 151.877 47.6263C151.871 47.6263 151.863 47.6263 151.857 47.6263C151.845 47.6263 151.833 47.6263 151.82 47.6263C151.814 47.6263 151.807 47.6263 151.801 47.6255C151.787 47.6255 151.774 47.6255 151.761 47.6255C151.756 47.6255 151.749 47.6255 151.744 47.6255C151.726 47.6255 151.708 47.6255 151.689 47.6255C151.687 47.6255 151.681 47.6255 151.678 47.6255C151.678 47.6255 151.678 47.6255 151.677 47.6255C151.675 47.6255 151.674 47.6255 151.672 47.6255C151.659 47.6255 151.647 47.6255 151.634 47.6255C151.629 47.6255 151.624 47.6255 151.619 47.6247C151.617 47.6247 151.614 47.6247 151.612 47.6247C151.6 47.6247 151.588 47.6247 151.577 47.6247C151.572 47.6247 151.566 47.6247 151.561 47.6247C151.559 47.6247 151.557 47.6247 151.555 47.6247C151.543 47.6247 151.531 47.6247 151.519 47.6247C151.513 47.6247 151.509 47.6247 151.503 47.6247C151.502 47.6247 151.5 47.6247 151.499 47.6247C151.481 47.6247 151.463 47.6247 151.445 47.6247C151.444 47.6247 151.444 47.6247 151.444 47.6247C151.429 47.6247 151.414 47.6247 151.399 47.6247C151.07 47.6255 150.743 47.6278 150.416 47.6333L161.394 40.9397C162.209 41.0411 163.017 41.1543 163.817 41.2801C167.542 41.8667 171.095 42.7112 174.426 43.7813L165.426 49.2704" fill="#F4D808"/>
<path d="M165.425 49.2704C162.608 48.5777 159.62 48.0886 156.512 47.8323C156.511 47.8323 156.509 47.8323 156.507 47.8315C156.49 47.8307 156.473 47.8291 156.456 47.8275C156.455 47.8275 156.454 47.8275 156.453 47.8275C156.379 47.8213 156.306 47.8157 156.232 47.8095C156.23 47.8095 156.229 47.8095 156.227 47.8095C156.211 47.8079 156.194 47.8071 156.178 47.8055C156.175 47.8055 156.173 47.8055 156.17 47.8047C156.155 47.804 156.139 47.8024 156.123 47.8016C156.121 47.8016 156.118 47.8008 156.116 47.8008C156.043 47.7953 155.969 47.7898 155.896 47.7843C155.894 47.7843 155.892 47.7843 155.89 47.7843C155.874 47.7827 155.858 47.7819 155.842 47.7804C155.839 47.7804 155.837 47.7804 155.835 47.7804C155.818 47.7788 155.801 47.778 155.784 47.7764C155.783 47.7764 155.782 47.7764 155.781 47.7764C155.707 47.7709 155.633 47.7662 155.558 47.7607C155.557 47.7607 155.556 47.7607 155.555 47.7607C155.538 47.7599 155.52 47.7584 155.503 47.7576C155.501 47.7576 155.5 47.7576 155.499 47.7576C155.142 47.734 154.783 47.7135 154.423 47.6962C158.284 47.881 161.982 48.4243 165.426 49.2704H165.425V49.2704ZM154.421 47.6962C154.342 47.6923 154.262 47.6884 154.183 47.6852C154.264 47.6884 154.341 47.6923 154.421 47.6962ZM154.178 47.6844C154.163 47.6844 154.148 47.6837 154.133 47.6829C154.148 47.6837 154.163 47.6844 154.178 47.6844ZM154.128 47.6829C154.067 47.6797 154.006 47.6774 153.944 47.675C154.006 47.6774 154.066 47.6797 154.128 47.6829ZM153.934 47.6742C153.921 47.6742 153.907 47.6734 153.893 47.6726C153.907 47.6734 153.92 47.6742 153.934 47.6742ZM153.883 47.6726C153.869 47.6719 153.856 47.6719 153.841 47.6711C153.855 47.6719 153.87 47.6719 153.883 47.6726ZM153.84 47.6711C153.795 47.6687 153.749 47.6671 153.704 47.6656C153.749 47.6671 153.795 47.6687 153.84 47.6711ZM153.691 47.6656C153.679 47.6648 153.667 47.664 153.654 47.664C153.667 47.664 153.679 47.6648 153.691 47.6656ZM153.637 47.6632C153.625 47.6632 153.613 47.6624 153.601 47.6624C153.613 47.6624 153.625 47.6632 153.637 47.6632ZM153.589 47.6616C153.548 47.6601 153.508 47.6593 153.467 47.6577C153.507 47.6585 153.549 47.6601 153.589 47.6616ZM153.448 47.6569C153.436 47.6569 153.425 47.6561 153.414 47.6561C153.424 47.6561 153.437 47.6569 153.448 47.6569ZM153.394 47.6553C153.383 47.6546 153.372 47.6546 153.362 47.6546C153.372 47.6546 153.384 47.6546 153.394 47.6553ZM153.339 47.6538C153.328 47.653 153.318 47.653 153.307 47.6522C153.317 47.653 153.329 47.653 153.339 47.6538ZM153.288 47.6522C153.269 47.6514 153.248 47.6506 153.228 47.6506C153.248 47.6506 153.269 47.6514 153.288 47.6522ZM153.205 47.6498C153.195 47.6491 153.185 47.6491 153.175 47.6491C153.185 47.6491 153.195 47.6491 153.205 47.6498ZM153.15 47.6483C153.14 47.6483 153.131 47.6475 153.121 47.6475C153.131 47.6475 153.14 47.6483 153.15 47.6483ZM153.095 47.6467C153.085 47.6467 153.076 47.6459 153.067 47.6459C153.075 47.6459 153.086 47.6467 153.095 47.6467ZM153.039 47.6451C153.023 47.6451 153.007 47.6443 152.99 47.6436C153.007 47.6443 153.023 47.6451 153.039 47.6451ZM152.962 47.6436C152.953 47.6428 152.944 47.6428 152.935 47.6428C152.943 47.6428 152.953 47.6428 152.962 47.6436ZM152.907 47.642C152.898 47.642 152.889 47.6412 152.88 47.6412C152.889 47.6412 152.898 47.642 152.907 47.642ZM152.852 47.6404C152.843 47.6404 152.834 47.6404 152.825 47.6404C152.834 47.6404 152.843 47.6404 152.852 47.6404ZM152.794 47.6396C152.786 47.6388 152.778 47.6388 152.77 47.6388C152.778 47.6388 152.786 47.6388 152.794 47.6396ZM152.719 47.638C152.711 47.6373 152.704 47.6373 152.695 47.6373C152.703 47.6373 152.712 47.6373 152.719 47.638ZM152.664 47.6365C152.655 47.6365 152.647 47.6365 152.638 47.6365C152.647 47.6365 152.655 47.6365 152.664 47.6365ZM152.609 47.6357C152.601 47.6357 152.592 47.6357 152.583 47.6349C152.592 47.6357 152.6 47.6357 152.609 47.6357ZM152.551 47.6349C152.543 47.6341 152.536 47.6341 152.528 47.6341C152.536 47.6341 152.543 47.6341 152.551 47.6349ZM152.476 47.6333C152.471 47.6333 152.464 47.6333 152.459 47.6333C152.465 47.6333 152.469 47.6333 152.476 47.6333ZM152.42 47.6325C152.413 47.6325 152.406 47.6325 152.399 47.6325C152.406 47.6325 152.412 47.6325 152.42 47.6325ZM152.364 47.6318C152.357 47.6318 152.35 47.631 152.342 47.631C152.349 47.631 152.357 47.6318 152.364 47.6318ZM152.307 47.631C152.301 47.631 152.293 47.6302 152.286 47.6302C152.293 47.6302 152.3 47.631 152.307 47.631ZM152.243 47.6302C152.236 47.6302 152.229 47.6294 152.223 47.6294C152.229 47.6294 152.236 47.6302 152.243 47.6302ZM152.177 47.6294C152.171 47.6294 152.163 47.6286 152.157 47.6286C152.163 47.6286 152.171 47.6294 152.177 47.6294ZM152.121 47.6286C152.114 47.6286 152.107 47.6286 152.1 47.6286C152.107 47.6286 152.114 47.6286 152.121 47.6286ZM152.063 47.6278C152.057 47.6278 152.05 47.6278 152.044 47.6278C152.05 47.6278 152.057 47.6278 152.063 47.6278ZM152.001 47.627C151.996 47.627 151.992 47.627 151.988 47.627C151.992 47.627 151.997 47.627 152.001 47.627ZM151.933 47.627C151.928 47.627 151.923 47.627 151.918 47.6263C151.923 47.627 151.928 47.627 151.933 47.627ZM151.877 47.6263C151.87 47.6263 151.864 47.6263 151.857 47.6263C151.863 47.6263 151.871 47.6263 151.877 47.6263ZM151.82 47.6263C151.814 47.6263 151.807 47.6263 151.801 47.6255C151.807 47.6263 151.814 47.6263 151.82 47.6263ZM151.761 47.6255C151.756 47.6255 151.749 47.6255 151.744 47.6255C151.749 47.6255 151.756 47.6255 151.761 47.6255ZM151.689 47.6255C151.685 47.6255 151.682 47.6255 151.678 47.6255C151.681 47.6255 151.687 47.6255 151.689 47.6255ZM151.634 47.6255C151.63 47.6255 151.627 47.6255 151.623 47.6255C151.622 47.6255 151.62 47.6247 151.619 47.6247C151.624 47.6255 151.629 47.6255 151.634 47.6255ZM151.577 47.6247C151.574 47.6247 151.571 47.6247 151.568 47.6247C151.565 47.6247 151.564 47.6247 151.561 47.6247C151.566 47.6247 151.572 47.6247 151.577 47.6247V47.6247ZM151.519 47.6247C151.516 47.6247 151.514 47.6247 151.512 47.6247C151.509 47.6247 151.506 47.6247 151.503 47.6247C151.509 47.6247 151.513 47.6247 151.519 47.6247Z" fill="#F3CF09"/>
<path d="M165.424 49.2714C162.607 48.5786 159.62 48.0888 156.512 47.8325C159.62 48.0888 162.608 48.5779 165.426 49.2706L165.424 49.2714V49.2714ZM156.507 47.8317C156.49 47.8309 156.473 47.8293 156.456 47.8277C156.473 47.8293 156.49 47.8309 156.507 47.8317ZM156.453 47.8277C156.379 47.8215 156.306 47.8159 156.232 47.8097C156.306 47.8159 156.379 47.8215 156.453 47.8277ZM156.227 47.8097C156.211 47.8081 156.195 47.8073 156.178 47.8057C156.195 47.8073 156.211 47.8081 156.227 47.8097ZM156.171 47.8049C156.155 47.8042 156.139 47.8026 156.123 47.8018C156.139 47.8026 156.155 47.8042 156.171 47.8049ZM156.116 47.801C156.043 47.7955 155.97 47.79 155.896 47.7845C155.97 47.79 156.043 47.7955 156.116 47.801ZM155.891 47.7845C155.874 47.7829 155.858 47.7821 155.842 47.7806C155.858 47.7821 155.874 47.7829 155.891 47.7845ZM155.835 47.7806C155.818 47.779 155.801 47.7782 155.784 47.7766C155.801 47.7782 155.818 47.779 155.835 47.7806ZM155.781 47.7766C155.707 47.7711 155.633 47.7664 155.558 47.7609C155.633 47.7664 155.707 47.7711 155.781 47.7766ZM155.555 47.7609C155.538 47.7601 155.52 47.7585 155.503 47.7578C155.52 47.7585 155.538 47.7601 155.555 47.7609ZM155.499 47.7578C154.243 47.6752 152.968 47.6304 151.677 47.6257C151.678 47.6257 151.678 47.6257 151.678 47.6257C151.682 47.6257 151.686 47.6257 151.689 47.6257C151.708 47.6257 151.726 47.6257 151.744 47.6257C151.749 47.6257 151.756 47.6257 151.761 47.6257C151.774 47.6257 151.787 47.6257 151.801 47.6257C151.807 47.6265 151.814 47.6264 151.821 47.6264C151.833 47.6264 151.845 47.6264 151.857 47.6264C151.864 47.6264 151.87 47.6264 151.877 47.6264C151.891 47.6264 151.905 47.6264 151.919 47.6264C151.923 47.6272 151.928 47.6272 151.933 47.6272C151.951 47.6272 151.97 47.6272 151.988 47.6272C151.992 47.6272 151.997 47.6272 152.001 47.6272C152.015 47.6272 152.029 47.628 152.044 47.628C152.05 47.628 152.057 47.628 152.064 47.628C152.076 47.628 152.087 47.628 152.1 47.6288C152.107 47.6288 152.114 47.6288 152.121 47.6288C152.133 47.6288 152.145 47.6288 152.157 47.6288C152.163 47.6288 152.171 47.6296 152.177 47.6296C152.192 47.6296 152.207 47.6296 152.223 47.6296C152.229 47.6296 152.236 47.6304 152.243 47.6304C152.258 47.6304 152.271 47.6304 152.286 47.6304C152.293 47.6304 152.301 47.6312 152.307 47.6312C152.319 47.6312 152.33 47.6312 152.342 47.6312C152.35 47.6312 152.357 47.632 152.364 47.632C152.376 47.632 152.388 47.632 152.399 47.6327C152.406 47.6327 152.413 47.6327 152.42 47.6327C152.433 47.6327 152.446 47.6327 152.459 47.6335C152.464 47.6335 152.471 47.6335 152.476 47.6335C152.494 47.6335 152.511 47.6343 152.529 47.6343C152.536 47.6343 152.544 47.6343 152.551 47.6351C152.562 47.6351 152.572 47.6351 152.583 47.6351C152.592 47.6359 152.601 47.6359 152.609 47.6359C152.619 47.6359 152.629 47.6367 152.638 47.6367C152.647 47.6367 152.655 47.6367 152.664 47.6367C152.674 47.6375 152.685 47.6375 152.696 47.6375C152.704 47.6375 152.711 47.6375 152.719 47.6382C152.736 47.6382 152.754 47.639 152.771 47.639C152.778 47.639 152.786 47.639 152.794 47.6398C152.804 47.6398 152.814 47.6398 152.825 47.6406C152.834 47.6406 152.843 47.6406 152.852 47.6406C152.861 47.6414 152.871 47.6414 152.88 47.6414C152.889 47.6414 152.898 47.6422 152.907 47.6422C152.916 47.6422 152.926 47.6422 152.935 47.643C152.944 47.643 152.953 47.643 152.962 47.6437C152.971 47.6437 152.981 47.6437 152.99 47.6437C153.007 47.6445 153.023 47.6453 153.039 47.6453C153.048 47.6453 153.058 47.6461 153.067 47.6461C153.076 47.6461 153.086 47.6469 153.095 47.6469C153.104 47.6469 153.113 47.6469 153.121 47.6477C153.131 47.6477 153.14 47.6485 153.15 47.6485C153.158 47.6485 153.167 47.6485 153.175 47.6493C153.185 47.6493 153.195 47.6493 153.205 47.65C153.213 47.65 153.22 47.65 153.228 47.6508C153.248 47.6508 153.269 47.6516 153.289 47.6524C153.295 47.6524 153.301 47.6524 153.307 47.6524C153.318 47.6532 153.328 47.6532 153.339 47.654C153.347 47.654 153.354 47.654 153.362 47.6548C153.372 47.6548 153.383 47.6548 153.394 47.6555C153.401 47.6555 153.407 47.6555 153.414 47.6563C153.425 47.6563 153.436 47.6571 153.448 47.6571C153.454 47.6571 153.461 47.6579 153.467 47.6579C153.508 47.6595 153.548 47.6603 153.589 47.6618C153.593 47.6618 153.597 47.6618 153.601 47.6626C153.613 47.6626 153.625 47.6634 153.638 47.6634C153.643 47.6634 153.649 47.6642 153.655 47.6642C153.667 47.6642 153.679 47.665 153.691 47.6658C153.696 47.6658 153.7 47.6658 153.704 47.6658C153.749 47.6673 153.795 47.6689 153.84 47.6713C153.841 47.6713 153.841 47.6713 153.842 47.6713C153.856 47.6721 153.869 47.6721 153.883 47.6728C153.886 47.6728 153.89 47.6728 153.893 47.6728C153.907 47.6736 153.921 47.6744 153.934 47.6744C153.938 47.6752 153.941 47.6752 153.944 47.6752C154.006 47.6776 154.067 47.6799 154.129 47.6831C154.13 47.6831 154.132 47.6831 154.134 47.6831C154.148 47.6838 154.163 47.6846 154.178 47.6846C154.18 47.6854 154.181 47.6854 154.183 47.6854C154.262 47.6886 154.343 47.6925 154.422 47.6964C154.422 47.6964 154.422 47.6964 154.423 47.6964C154.783 47.7137 155.142 47.7342 155.499 47.7578V47.7578ZM150.416 47.6335C150.743 47.628 151.07 47.6257 151.399 47.6249C151.069 47.6257 150.743 47.6288 150.416 47.6335ZM151.672 47.6257C151.656 47.6257 151.64 47.6257 151.623 47.6257C151.627 47.6257 151.63 47.6257 151.634 47.6257C151.647 47.6257 151.659 47.6257 151.672 47.6257ZM151.612 47.6249C151.597 47.6249 151.582 47.6249 151.568 47.6249C151.571 47.6249 151.574 47.6249 151.577 47.6249C151.588 47.6249 151.601 47.6249 151.612 47.6249ZM151.555 47.6249C151.541 47.6249 151.526 47.6249 151.512 47.6249C151.514 47.6249 151.517 47.6249 151.519 47.6249C151.531 47.6249 151.543 47.6249 151.555 47.6249ZM151.499 47.6249C151.481 47.6249 151.463 47.6249 151.444 47.6249C151.445 47.6249 151.445 47.6249 151.445 47.6249C151.463 47.6249 151.481 47.6249 151.499 47.6249" fill="#EEC00C"/>
<path d="M120.113 93.9103C119.301 93.5035 118.511 93.0811 117.744 92.6441C118.512 93.0811 119.302 93.5033 120.114 93.9103H120.113Z" fill="#F2C909"/>
<path d="M120.113 93.9103C119.301 93.5033 118.511 93.0811 117.744 92.6441C116.985 92.2117 116.25 91.765 115.538 91.305L123.994 86.1487C124.617 86.557 125.264 86.9516 125.933 87.3313C126.731 87.8552 127.568 88.3561 128.443 88.8324L120.113 93.9103Z" fill="#F4D808"/>
<path d="M128.626 88.7209C128.374 88.6024 128.124 88.4821 127.876 88.3597C128.124 88.4819 128.374 88.6021 128.627 88.7204L128.626 88.7209Z" fill="#F3CF09"/>
<path d="M128.443 88.8325C127.569 88.3562 126.731 87.8553 125.934 87.3314C126.043 87.3935 126.153 87.4553 126.264 87.5166C127.024 87.9374 127.811 88.3393 128.625 88.7213L128.443 88.8325Z" fill="#F4DF07"/>
<path d="M128.625 88.7212C127.811 88.3391 127.023 87.9373 126.264 87.5164C126.788 87.8067 127.326 88.0879 127.876 88.3595C128.123 88.4818 128.373 88.6022 128.626 88.7207L128.625 88.7212" fill="#F3DD07"/>
<path d="M181.436 56.5183C180.647 55.9758 179.818 55.4568 178.949 54.9622C178.339 54.5605 177.705 54.172 177.05 53.797L185.507 48.6397C187.018 49.5172 188.44 50.4537 189.76 51.442L181.436 56.5183Z" fill="#F4D808"/>
<path d="M178.949 54.9625C178.946 54.961 178.943 54.9594 178.939 54.957C178.332 54.5576 177.701 54.1707 177.049 53.798L177.05 53.7972C177.705 54.1723 178.339 54.5607 178.949 54.9625Z" fill="#F3CF09"/>
<path d="M181.251 56.6309C180.526 56.0522 179.759 55.4962 178.949 54.9624C179.818 55.4569 180.647 55.9759 181.436 56.5184L181.251 56.6309" fill="#F4DF07"/>
<path d="M181.249 56.6317C180.524 56.0514 179.753 55.4924 178.939 54.9569C178.943 54.9593 178.946 54.9609 178.949 54.9624C179.758 55.4963 180.526 56.0522 181.25 56.6309L181.249 56.6317" fill="#F3DD07"/>
<path d="M128.891 97.4304C126.411 96.6512 124.052 95.7501 121.838 94.7366L121.839 94.7358C124.054 95.7493 126.411 96.6512 128.892 97.4296L128.891 97.4304" fill="#F2C909"/>
<path d="M128.892 97.4298C126.411 96.6514 124.054 95.7495 121.839 94.736L130.113 89.6907C132.281 90.7409 134.644 91.6479 137.162 92.3878L128.892 97.4298ZM137.933 91.9179C137.837 91.8953 137.741 91.8723 137.645 91.8492C137.74 91.8723 137.837 91.8954 137.933 91.9179H137.933Z" fill="#F4D808"/>
<path d="M137.933 91.918C137.837 91.8954 137.741 91.8723 137.645 91.8492C137.327 91.7723 137.012 91.6928 136.698 91.6107C137.106 91.7174 137.518 91.8198 137.933 91.9178L137.933 91.918V91.918ZM136.691 91.6089C136.689 91.6085 136.687 91.6079 136.686 91.6075C136.687 91.608 136.689 91.6085 136.691 91.6089Z" fill="#F3CF09"/>
<path d="M137.162 92.3878C134.644 91.6479 132.281 90.7409 130.113 89.6907L130.41 89.5095C132.238 90.267 134.179 90.9287 136.217 91.4826C136.224 91.4844 136.23 91.4862 136.237 91.4879C136.247 91.4907 136.258 91.4936 136.268 91.4964C136.722 91.6193 137.182 91.7372 137.645 91.8492C137.741 91.8723 137.837 91.8953 137.933 91.9179L137.162 92.3878" fill="#F4DF07"/>
<path d="M137.645 91.849C137.182 91.737 136.722 91.6191 136.268 91.4962C136.406 91.5337 136.546 91.5707 136.685 91.6073C136.687 91.6077 136.689 91.6082 136.69 91.6086C136.693 91.6093 136.695 91.6099 136.697 91.6104C137.011 91.6925 137.327 91.772 137.645 91.849ZM136.236 91.4877C136.23 91.486 136.223 91.4842 136.217 91.4824C136.223 91.4842 136.23 91.486 136.236 91.4877Z" fill="#F3DD07"/>
<path d="M194.554 55.7322C193.517 54.607 192.366 53.5274 191.11 52.4982C192.368 53.5266 193.518 54.607 194.554 55.7322Z" fill="#F6ED36"/>
<path d="M187.237 61.8524C186.032 60.3121 184.552 58.8669 182.839 57.5412L191.111 52.498C192.367 53.5272 193.517 54.6068 194.554 55.732C194.881 56.0874 195.198 56.4475 195.501 56.8115L187.237 61.8524Z" fill="#F4D808"/>
<path d="M186.463 62.3245C186.375 62.1853 186.286 62.0469 186.194 61.9093C186.286 62.0469 186.376 62.1861 186.463 62.3245H186.463ZM186.188 61.9007C186.185 61.8952 186.18 61.8889 186.176 61.8826C186.18 61.8889 186.185 61.8952 186.188 61.9007Z" fill="#F3CF09"/>
<path d="M186.464 62.3245C185.438 60.6937 184.116 59.1518 182.538 57.7247L182.839 57.5415C184.552 58.8672 186.032 60.3124 187.237 61.8527L186.464 62.3245Z" fill="#F4DF07"/>
<path d="M186.463 62.3245C186.375 62.1861 186.285 62.0469 186.194 61.9093C186.192 61.9062 186.19 61.9038 186.188 61.9007C186.184 61.8952 186.18 61.8889 186.176 61.8826C185.196 60.4146 183.973 59.0228 182.538 57.7247H182.538C184.116 59.1518 185.438 60.6937 186.463 62.3245H186.463" fill="#F3DD07"/>
<path d="M144.583 100.46C142.735 100.304 140.922 100.085 139.146 99.8067C140.921 100.084 142.737 100.304 144.583 100.46Z" fill="#F2C909"/>
<path d="M144.583 100.46C142.737 100.304 140.921 100.084 139.146 99.8067L148.006 94.4041C149.764 94.559 151.56 94.6384 153.388 94.6384C153.638 94.6384 153.887 94.6368 154.136 94.6337L144.583 100.46V100.46ZM150.168 93.4374C149.983 93.4337 149.799 93.429 149.615 93.4236C149.783 93.4286 149.955 93.4329 150.125 93.4365C150.139 93.4368 150.154 93.4371 150.168 93.4374Z" fill="#F4D808"/>
<path d="M151.497 93.4506C151.502 93.4506 151.507 93.4506 151.512 93.4506C151.507 93.4506 151.502 93.4506 151.497 93.4506ZM151.563 93.4505C151.567 93.4505 151.571 93.4504 151.575 93.4504C151.57 93.4504 151.568 93.4505 151.563 93.4505ZM151.615 93.4503C151.622 93.4503 151.628 93.4503 151.635 93.4502C151.629 93.4503 151.621 93.4503 151.615 93.4503ZM151.673 93.4502C151.685 93.4501 151.697 93.4501 151.709 93.45C151.696 93.4501 151.686 93.4501 151.673 93.4502ZM151.727 93.4499C153.31 93.4428 154.871 93.3752 156.402 93.2519C154.871 93.3757 153.31 93.4428 151.727 93.4499ZM150.125 93.4366C149.956 93.433 149.783 93.4287 149.615 93.4237L149.616 93.4232C149.785 93.4285 149.955 93.4329 150.125 93.4366Z" fill="#F3CF09"/>
<path d="M153.388 94.6385C151.56 94.6385 149.764 94.5591 148.006 94.4042L149.615 93.4237C149.799 93.4292 149.983 93.4338 150.168 93.4376C150.592 93.4464 151.016 93.4506 151.444 93.4506C151.444 93.4506 151.444 93.4506 151.445 93.4506C151.445 93.4506 151.445 93.4506 151.445 93.4506C151.463 93.4506 151.48 93.4506 151.496 93.4506C151.501 93.4506 151.509 93.4506 151.514 93.4506C151.528 93.4505 151.541 93.4505 151.555 93.4505C151.565 93.4505 151.575 93.4504 151.585 93.4504C151.593 93.4504 151.602 93.4504 151.61 93.4503C151.62 93.4503 151.631 93.4503 151.641 93.4502C151.641 93.4502 151.642 93.4502 151.643 93.4502C153.255 93.4452 154.844 93.3778 156.402 93.2522L154.136 94.6338C153.887 94.637 153.638 94.6385 153.388 94.6385" fill="#F4DF07"/>
<path d="M151.445 93.4506C151.445 93.4506 151.446 93.4506 151.446 93.4506C151.445 93.4506 151.445 93.4506 151.445 93.4506ZM151.496 93.4506C151.497 93.4506 151.497 93.4506 151.497 93.4506C151.502 93.4506 151.507 93.4506 151.512 93.4506C151.513 93.4506 151.513 93.4506 151.514 93.4506C151.509 93.4506 151.501 93.4506 151.496 93.4506ZM151.555 93.4505C151.557 93.4505 151.56 93.4505 151.562 93.4505C151.567 93.4505 151.57 93.4504 151.575 93.4504C151.578 93.4504 151.581 93.4504 151.585 93.4504C151.574 93.4504 151.565 93.4505 151.555 93.4505V93.4505ZM151.61 93.4503C151.612 93.4503 151.613 93.4503 151.615 93.4503C151.621 93.4503 151.629 93.4503 151.635 93.4502C151.637 93.4502 151.639 93.4502 151.64 93.4502C151.63 93.4503 151.62 93.4503 151.61 93.4503ZM151.642 93.4502C151.653 93.4502 151.663 93.4502 151.673 93.4502C151.685 93.4501 151.696 93.4501 151.709 93.45C151.715 93.45 151.72 93.4499 151.726 93.4499C153.31 93.4428 154.871 93.3757 156.402 93.2521L156.402 93.2522C154.844 93.3778 153.255 93.4452 151.642 93.4502" fill="#F3DD07"/>
<path d="M190.879 72.2277C190.885 72.061 190.888 71.8935 190.888 71.726C190.888 70.6252 190.761 69.5433 190.516 68.4842L199.372 63.0831C199.821 64.1682 200.177 65.2761 200.428 66.4052V66.4068L190.879 72.2277" fill="#F4D808"/>
<path d="M188.607 73.6132C188.812 72.6869 188.925 71.7418 188.942 70.7825C188.925 71.741 188.813 72.6853 188.609 73.6116L188.607 73.6132ZM188.942 70.781C188.942 70.7676 188.942 70.755 188.943 70.7416C188.942 70.755 188.942 70.7676 188.942 70.781ZM188.943 70.7306C188.943 70.7251 188.943 70.7196 188.943 70.7141C188.943 70.7188 188.943 70.7251 188.943 70.7306ZM188.943 70.6968C188.943 70.6905 188.943 70.6842 188.943 70.678C188.943 70.6842 188.943 70.6905 188.943 70.6968ZM188.944 70.6544C188.944 70.6504 188.944 70.6465 188.944 70.6434C188.944 70.6473 188.944 70.6504 188.944 70.6544ZM188.944 70.615C188.944 70.6143 188.944 70.6119 188.944 70.6111C188.944 70.6119 188.944 70.6135 188.944 70.615ZM188.944 70.5789C188.944 70.5765 188.944 70.5734 188.944 70.5702C188.944 70.5734 188.944 70.5757 188.944 70.5789ZM188.944 70.5042C188.943 70.1574 188.929 69.8123 188.902 69.4686L188.904 69.4671C188.93 69.8115 188.943 70.1566 188.944 70.5042" fill="#F3CF09"/>
<path d="M188.61 73.6116C188.831 72.6059 188.945 71.5798 188.945 70.538C188.945 70.1786 188.931 69.8217 188.905 69.4671L190.516 68.4842C190.76 69.5433 190.888 70.6253 190.888 71.7261C190.888 71.8935 190.885 72.061 190.879 72.2277L188.61 73.6116" fill="#F4DF07"/>
<path d="M188.609 73.6116C188.813 72.6853 188.925 71.741 188.942 70.7825C188.942 70.7817 188.942 70.7817 188.942 70.7809C188.942 70.7676 188.942 70.755 188.943 70.7416C188.943 70.7385 188.943 70.7346 188.943 70.7306C188.943 70.7251 188.943 70.7188 188.943 70.7141C188.943 70.7078 188.943 70.7023 188.943 70.6968C188.943 70.6905 188.943 70.6842 188.943 70.6779C188.943 70.6701 188.943 70.6622 188.944 70.6544C188.944 70.6504 188.944 70.6473 188.944 70.6433C188.944 70.6339 188.944 70.6245 188.944 70.615C188.944 70.6135 188.944 70.6119 188.944 70.6111C188.944 70.6001 188.944 70.5899 188.944 70.5789C188.944 70.5757 188.944 70.5734 188.944 70.5702C188.944 70.5592 188.944 70.549 188.944 70.538C188.944 70.5262 188.944 70.5152 188.944 70.5042C188.943 70.1566 188.93 69.8115 188.904 69.4671H188.905C188.931 69.8217 188.945 70.1786 188.945 70.538C188.945 71.5798 188.831 72.6059 188.61 73.6116H188.609" fill="#F3DD07"/>
<path d="M152.178 58.7356H159.256V85.3422H150.277V65.5512L144.7 68.8842L140.256 64.746L152.178 58.7356Z" fill="#E77318"/>
<path d="M150.383 57.9133H157.461V84.5197H148.482V64.7288L142.905 68.0619L138.461 63.9237L150.383 57.9133Z" fill="#F2BE0B"/>
<path d="M140.24 63.0267L150.382 57.9127H151.254L151.251 57.9135H150.382L140.24 63.0267Z" fill="#F3CF09"/>
<path d="M139.626 65.0033L138.464 63.9229L140.24 63.0266L150.382 57.9133H151.252L139.626 65.0033" fill="#F4D808"/>
<path d="M148.485 76.6127V71.2165L157.46 65.7432V71.1395L148.485 76.6127" fill="#F4D808"/>
<path d="M150.064 84.5796H148.485V84.5789H150.066L150.064 84.5796Z" fill="#F3CF09"/>
<path d="M150.066 84.5197H148.485V78.488L157.46 73.0147V80.0098L150.066 84.5197Z" fill="#F4D808"/>
</svg>
