<svg width="170" height="37" viewBox="0 0 170 37" fill="none" xmlns="http://www.w3.org/2000/svg">
<path fill-rule="evenodd" clip-rule="evenodd" d="M7.6991 0H162.086C166.409 0 169.786 3.50332 169.786 7.73649V28.9024C169.786 32.9896 166.409 36.4929 162.086 36.4929H7.6991C3.51187 36.4929 0 32.9896 0 28.9024V7.73649C0 3.50332 3.51187 0 7.6991 0Z" fill="#EFB469"/>
<path fill-rule="evenodd" clip-rule="evenodd" d="M10.5361 3.64905H159.25C163.302 3.64905 166.679 7.00644 166.679 11.0937V27.7347C166.679 31.8219 163.302 35.1793 159.25 35.1793H10.5361C6.48391 35.1793 3.24219 31.8219 3.24219 27.7347V11.0937C3.24219 7.00644 6.48391 3.64905 10.5361 3.64905Z" fill="#F1C383"/>
<path fill-rule="evenodd" clip-rule="evenodd" d="M10.9416 5.10925C60.2426 5.10925 109.544 5.10925 158.98 5.10925C163.032 5.10925 166.274 8.4666 166.274 12.4078C166.274 17.5169 166.274 22.6259 166.274 27.7349C166.274 31.6761 163.032 35.0335 158.98 35.0335C109.544 35.0335 60.2426 35.0335 10.9416 35.0335C6.88942 35.0335 3.64771 31.6761 3.64771 27.7349C3.64771 22.6259 3.64771 17.5169 3.64771 12.4078C3.64771 8.4666 6.88942 5.10925 10.9416 5.10925Z" fill="#F1C585"/>
<path fill-rule="evenodd" clip-rule="evenodd" d="M11.2123 6.56885C60.3785 6.56885 109.545 6.56885 158.576 6.56885C162.628 6.56885 165.87 9.78025 165.87 13.7215C165.87 18.3926 165.87 23.0638 165.87 27.5889C165.87 31.6762 162.628 34.8876 158.576 34.8876C109.545 34.8876 60.3785 34.8876 11.2123 34.8876C7.2952 34.8876 4.05347 31.6762 4.05347 27.5889C4.05347 23.0638 4.05347 18.3926 4.05347 13.7215C4.05347 9.78025 7.2952 6.56885 11.2123 6.56885Z" fill="#F1C786"/>
<path fill-rule="evenodd" clip-rule="evenodd" d="M11.6164 7.88306C60.5125 7.88306 109.409 7.88306 158.305 7.88306C162.222 7.88306 165.464 11.2404 165.464 15.1817C165.464 19.2689 165.464 23.3562 165.464 27.5894C165.464 31.5307 162.222 34.7421 158.305 34.7421C109.409 34.7421 60.5125 34.7421 11.6164 34.7421C7.69925 34.7421 4.45752 31.5307 4.45752 27.5894C4.45752 23.3562 4.45752 19.2689 4.45752 15.1817C4.45752 11.2404 7.69925 7.88306 11.6164 7.88306Z" fill="#F2CA88"/>
<path fill-rule="evenodd" clip-rule="evenodd" d="M11.887 9.34241C60.6481 9.34241 109.274 9.34241 157.9 9.34241C161.817 9.34241 165.059 12.5538 165.059 16.495C165.059 20.1442 165.059 23.7935 165.059 27.4428C165.059 31.384 161.817 34.5953 157.9 34.5953C109.274 34.5953 60.6481 34.5953 11.887 34.5953C7.96994 34.5953 4.86328 31.384 4.86328 27.4428C4.86328 23.7935 4.86328 20.1442 4.86328 16.495C4.86328 12.5538 7.96994 9.34241 11.887 9.34241Z" fill="#F2CC8A"/>
<path fill-rule="evenodd" clip-rule="evenodd" d="M12.2923 10.8022C60.648 10.8022 109.139 10.8022 157.63 10.8022C161.412 10.8022 164.653 14.0136 164.653 17.8089C164.653 21.0203 164.653 24.2316 164.653 27.443C164.653 31.2383 161.412 34.4497 157.63 34.4497C109.139 34.4497 60.648 34.4497 12.2923 34.4497C8.37521 34.4497 5.26855 31.2383 5.26855 27.443C5.26855 24.2316 5.26855 21.0203 5.26855 17.8089C5.26855 13.8677 8.37521 10.8022 12.2923 10.8022Z" fill="#F2CE8B"/>
<path fill-rule="evenodd" clip-rule="evenodd" d="M12.5627 12.2618C60.7835 12.2618 109.004 12.2618 157.36 12.2618C161.142 12.2618 164.249 15.3273 164.249 19.1226C164.249 21.8961 164.249 24.6695 164.249 27.2971C164.249 31.0924 161.142 34.3038 157.36 34.3038C109.004 34.3038 60.7835 34.3038 12.5627 34.3038C8.78073 34.3038 5.67407 31.0924 5.67407 27.2971C5.67407 24.6695 5.67407 21.8961 5.67407 19.1226C5.67407 15.3273 8.78073 12.2618 12.5627 12.2618Z" fill="#F2D08D"/>
<path fill-rule="evenodd" clip-rule="evenodd" d="M12.8329 13.576C60.9184 13.576 109.004 13.576 156.954 13.576C160.736 13.576 163.708 16.6414 163.708 20.4367C163.708 22.7722 163.708 24.9618 163.708 27.2973C163.708 31.0926 160.736 34.158 156.954 34.158C109.004 34.158 60.9184 34.158 12.8329 34.158C9.18599 34.158 6.07935 31.0926 6.07935 27.2973C6.07935 24.9618 6.07935 22.7722 6.07935 20.4367C6.07935 16.6414 9.18599 13.576 12.8329 13.576Z" fill="#F2D28E"/>
<path fill-rule="evenodd" clip-rule="evenodd" d="M13.2387 15.0356C61.054 15.0356 108.869 15.0356 156.685 15.0356C160.332 15.0356 163.303 18.101 163.303 21.7503C163.303 23.6479 163.303 25.3995 163.303 27.1512C163.303 30.9464 160.332 34.0118 156.685 34.0118C108.869 34.0118 61.054 34.0118 13.2387 34.0118C9.59175 34.0118 6.48511 30.9464 6.48511 27.1512C6.48511 25.3995 6.48511 23.6479 6.48511 21.7503C6.48511 18.101 9.59175 15.0356 13.2387 15.0356Z" fill="#F2D490"/>
<path fill-rule="evenodd" clip-rule="evenodd" d="M13.5087 16.4952C61.189 16.4952 108.734 16.4952 156.279 16.4952C159.926 16.4952 162.898 19.4147 162.898 23.064C162.898 24.5237 162.898 25.8374 162.898 27.1512C162.898 30.8005 159.926 33.8659 156.279 33.8659C108.734 33.8659 61.189 33.8659 13.5087 33.8659C9.86172 33.8659 6.89014 30.8005 6.89014 27.1512C6.89014 25.8374 6.89014 24.5237 6.89014 23.064C6.89014 19.4147 9.86172 16.4952 13.5087 16.4952Z" fill="#F3D792"/>
<path fill-rule="evenodd" clip-rule="evenodd" d="M13.9132 17.955C61.1885 17.955 108.599 17.955 156.009 17.955C159.521 17.955 162.493 20.8744 162.493 24.5238C162.493 25.3996 162.493 26.2754 162.493 27.1513C162.493 30.6547 159.521 33.7201 156.009 33.7201C108.599 33.7201 61.1885 33.7201 13.9132 33.7201C10.2663 33.7201 7.29468 30.6547 7.29468 27.1513C7.29468 26.2754 7.29468 25.3996 7.29468 24.5238C7.29468 20.8744 10.2663 17.955 13.9132 17.955Z" fill="#F3D993"/>
<path fill-rule="evenodd" clip-rule="evenodd" d="M14.1832 19.2683H155.604C159.251 19.2683 162.087 22.1877 162.087 25.837V27.0048C162.087 30.654 159.251 33.5735 155.604 33.5735H14.1832C10.6713 33.5735 7.69971 30.654 7.69971 27.0048V25.837C7.69971 22.1877 10.6713 19.2683 14.1832 19.2683Z" fill="#F3DB95"/>
</svg>
