<svg width="75" height="75" viewBox="0 0 75 75" fill="none" xmlns="http://www.w3.org/2000/svg">
<path fill-rule="evenodd" clip-rule="evenodd" d="M12.918 7.49872C29.7831 4.71011 46.4119 4.63474 62.8831 7.49872C68.1633 8.47851 71.5521 11.7947 72.5766 16.8444C75.8078 32.747 75.8078 48.725 72.5766 64.6276C71.6309 69.6773 68.1633 73.4457 62.8831 73.8979C46.4119 75.4053 29.7831 75.3299 12.918 73.8979C7.55892 73.4457 3.77607 69.6773 3.1456 64.6276C1.33298 48.725 0.938938 32.747 3.1456 16.8444C3.85488 11.7947 7.63773 8.40314 12.918 7.49872Z" fill="black" fill-opacity="0.101961"/>
<path fill-rule="evenodd" clip-rule="evenodd" d="M11.2633 3.88202C28.1285 1.09341 44.7573 1.01804 61.2285 3.88202C66.5087 4.86181 69.9763 8.178 70.922 13.2277C74.1532 29.1303 74.1532 45.1083 70.922 61.0109C69.9763 66.0606 66.5875 69.829 61.2285 70.2812C44.7573 71.7886 28.1285 71.7132 11.2633 70.2812C5.90432 69.829 2.12147 66.0606 1.5698 61.0109C-0.321619 45.1083 -0.715665 29.1303 1.5698 13.2277C2.27909 8.178 5.98313 4.78644 11.2633 3.88202Z" fill="#E6E6E6"/>
<path fill-rule="evenodd" clip-rule="evenodd" d="M11.2633 2.14799C28.1285 -0.715996 44.7573 -0.715996 61.2285 2.14799C66.5087 3.12777 69.9763 6.44397 70.922 11.4936C74.1532 27.3963 74.1532 43.2989 70.922 59.277C69.9763 64.2512 66.5875 68.095 61.2285 68.5472C44.7573 69.9792 28.1285 69.9792 11.2633 68.5472C5.90432 68.095 2.12147 64.3266 1.5698 59.277C-0.321619 43.2989 -0.715665 27.3963 1.5698 11.4936C2.27909 6.3686 5.98313 3.0524 11.2633 2.14799Z" fill="white"/>
<path fill-rule="evenodd" clip-rule="evenodd" d="M14.9689 6.82037C30.1003 4.25785 44.9953 4.18249 59.8114 6.82037C64.54 7.64941 67.6136 10.6641 68.5593 15.1108C71.3964 29.4308 71.3964 43.6753 68.5593 57.9952C67.6136 62.5173 64.54 65.9089 59.8114 66.3611C44.9953 67.6423 30.1003 67.6423 14.9689 66.3611C10.2404 65.9089 6.77278 62.5173 6.29993 57.9952C4.56612 43.6753 4.25089 29.4308 6.29993 15.1108C6.9304 10.5888 10.2404 7.57405 14.9689 6.82037Z" fill="#E6E6E6"/>
<path fill-rule="evenodd" clip-rule="evenodd" d="M13.8635 5.54005C28.9949 2.97754 43.8898 2.97754 58.706 5.54005C63.4345 6.36909 66.5081 9.38381 67.4538 13.9059C70.2909 28.1504 70.2909 42.4703 67.4538 56.7149C66.5081 61.237 63.4345 64.6285 58.706 65.0807C43.8898 66.362 28.9949 66.362 13.8635 65.0807C9.13492 64.7039 5.66731 61.3123 5.19446 56.7149C3.46065 42.4703 3.14542 28.1504 5.19446 13.9059C5.82493 9.30845 9.13492 6.36909 13.8635 5.54005Z" fill="#CC191C"/>
<path fill-rule="evenodd" clip-rule="evenodd" d="M13.8635 2.67486C28.9949 0.112348 43.8898 0.0369797 58.706 2.67486C63.4345 3.5039 66.5081 6.51862 67.4538 10.9653C70.2909 25.2852 70.2909 39.5298 67.4538 53.8497C66.5081 58.3717 63.4345 61.7633 58.706 62.2155C43.8898 63.4967 28.9949 63.4967 13.8635 62.2155C9.13492 61.7633 5.66731 58.3717 5.19446 53.8497C3.46065 39.5298 3.14542 25.2852 5.19446 10.9653C5.82493 6.44325 9.13492 3.42854 13.8635 2.67486Z" fill="#FF6595"/>
<path fill-rule="evenodd" clip-rule="evenodd" d="M14.1798 3.05201C29.0747 0.489501 43.8121 0.489501 58.3918 3.05201C63.0415 3.88105 66.1151 6.82039 66.982 11.2671C69.898 25.3609 69.8191 39.4546 66.982 53.5484C66.1151 57.9951 63.1204 61.3867 58.3918 61.7635C43.8121 63.0448 29.0747 63.0448 14.1798 61.7635C9.45122 61.3867 6.14122 58.0705 5.58956 53.5484C3.93456 39.4546 3.61933 25.3609 5.58956 11.2671C6.22003 6.74503 9.53003 3.80568 14.1798 3.05201Z" fill="#FD628E"/>
<path fill-rule="evenodd" clip-rule="evenodd" d="M14.495 3.42937C29.2323 0.942227 43.7333 0.866859 58.0765 3.42937C62.7263 4.25842 65.721 7.12241 66.5879 11.5691C69.4251 25.4368 69.3463 39.3799 66.5879 53.2477C65.721 57.619 62.7263 61.0106 58.0765 61.3874C43.7333 62.6687 29.2323 62.5933 14.495 61.3874C9.84526 61.0106 6.53527 57.6944 5.9836 53.2477C4.32861 39.3799 4.01337 25.4368 5.9836 11.5691C6.61408 7.12241 9.92407 4.18305 14.495 3.42937Z" fill="#FA5E87"/>
<path fill-rule="evenodd" clip-rule="evenodd" d="M14.8108 3.8053C29.3117 1.31816 43.655 1.31816 57.8407 3.8053C62.3328 4.63435 65.3276 7.49833 66.1945 11.7943C68.9528 25.5113 68.9528 39.2283 66.1945 52.9453C65.3276 57.3166 62.4116 60.5574 57.8407 61.0096C43.655 62.2155 29.3117 62.2155 14.8108 61.0096C10.2399 60.5574 6.92989 57.3166 6.37822 52.9453C4.80204 39.2283 4.4868 25.5113 6.37822 11.7943C7.0087 7.42297 10.2399 4.55898 14.8108 3.8053Z" fill="#F85B80"/>
<path fill-rule="evenodd" clip-rule="evenodd" d="M15.1265 4.18285C29.391 1.77108 43.5767 1.77108 57.5259 4.18285C62.0181 5.0119 64.934 7.80052 65.8009 12.0965C68.5592 25.6627 68.4804 39.1536 65.8009 52.6445C64.934 56.9404 62.0181 60.1813 57.5259 60.5581C43.5767 61.8394 29.391 61.764 15.1265 60.5581C10.5556 60.1813 7.32442 57.0158 6.85156 52.6445C5.27538 39.1536 4.88133 25.6627 6.85156 12.0965C7.40323 7.80052 10.6344 4.93653 15.1265 4.18285Z" fill="#F65879"/>
<path fill-rule="evenodd" clip-rule="evenodd" d="M15.3628 4.559C29.4696 2.22259 43.4189 2.14723 57.2105 4.559C61.6238 5.38805 64.5398 8.17666 65.4067 12.3973C68.0862 25.7374 68.0074 39.0775 65.4067 52.4177C64.5398 56.5629 61.7026 59.8037 57.2105 60.1806C43.4189 61.3865 29.4696 61.3865 15.3628 60.1806C10.9494 59.8037 7.71827 56.6383 7.24541 52.4177C5.66923 39.0775 5.35399 25.7374 7.24541 12.3973C7.87589 8.1013 10.9494 5.31268 15.3628 4.559Z" fill="#F35572"/>
<path fill-rule="evenodd" clip-rule="evenodd" d="M15.6781 4.93615C29.6274 2.59973 43.3402 2.59973 56.9742 4.93615C61.3087 5.7652 64.1459 8.47845 65.0128 12.6237C67.6135 25.8131 67.6135 38.9272 65.0128 52.1166C64.1459 56.2619 61.3087 59.4273 56.9742 59.8042C43.3402 61.01 29.6274 60.9347 15.6781 59.8042C11.2648 59.4273 8.19122 56.2619 7.63956 52.1166C6.14218 38.9272 5.82694 25.8131 7.63956 12.6237C8.27003 8.47845 11.3436 5.68983 15.6781 4.93615Z" fill="#F1516C"/>
<path fill-rule="evenodd" clip-rule="evenodd" d="M15.9925 5.3881C29.7054 3.0517 43.2606 2.97633 56.6581 5.3881C60.9138 6.14178 63.751 8.85503 64.5391 12.9249C67.2186 25.8882 67.1398 38.8515 64.5391 51.8148C63.751 55.8846 60.9926 58.9747 56.6581 59.3516C43.2606 60.5575 29.7054 60.5575 15.9925 59.3516C11.658 58.9747 8.58448 55.96 8.11162 51.8148C6.53544 38.8515 6.2202 25.8882 8.11162 12.9249C8.66329 8.77966 11.7368 6.06641 15.9925 5.3881Z" fill="#EE4E65"/>
<path fill-rule="evenodd" clip-rule="evenodd" d="M16.3079 5.76525C29.7843 3.42884 43.1819 3.42884 56.343 5.76525C60.5987 6.51893 63.357 9.15681 64.1451 13.2267C66.7458 25.9639 66.667 38.7764 64.1451 51.5136C63.357 55.5835 60.5987 58.5982 56.343 58.975C43.1819 60.1056 29.7843 60.1056 16.3079 58.975C12.0522 58.5982 8.97862 55.5835 8.50577 51.5136C7.00839 38.7764 6.69315 25.9639 8.50577 13.2267C9.05743 9.15681 12.0522 6.44356 16.3079 5.76525Z" fill="#EC4B5E"/>
<path fill-rule="evenodd" clip-rule="evenodd" d="M16.6222 6.14207C29.941 3.88103 43.0233 3.88103 56.1057 6.14207C60.2037 6.89575 62.9621 9.53363 63.7502 13.4528C66.2721 26.0392 66.2721 38.6257 63.7502 51.2121C62.9621 55.2066 60.2825 58.2213 56.1057 58.5982C43.0233 59.7287 29.941 59.7287 16.6222 58.5982C12.3665 58.2213 9.37171 55.282 8.89886 51.2121C7.40148 38.6257 7.16505 26.0392 8.89886 13.4528C9.45052 9.45826 12.4453 6.82038 16.6222 6.14207Z" fill="#EA4857"/>
<path fill-rule="evenodd" clip-rule="evenodd" d="M16.938 6.5192C30.0203 4.33353 42.9451 4.25816 55.791 6.5192C59.8891 7.27288 62.5686 9.83538 63.3567 13.7545C65.8786 26.1902 65.7998 38.5506 63.3567 50.9109C62.5686 54.83 59.8891 57.8447 55.791 58.1462C42.9451 59.2767 30.0203 59.2767 16.938 58.1462C12.7611 57.8447 9.76633 54.9054 9.29348 50.9109C7.87491 38.5506 7.55967 26.1902 9.29348 13.7545C9.92395 9.83538 12.8399 7.19751 16.938 6.5192Z" fill="#E74450"/>
<path fill-rule="evenodd" clip-rule="evenodd" d="M17.1752 6.89609C30.0999 4.71042 42.867 4.71042 55.4765 6.89609C59.4958 7.64977 62.1753 10.2123 62.9634 14.056C65.4065 26.2657 65.4065 38.4753 62.9634 50.6095C62.1753 54.5287 59.5746 57.3926 55.4765 57.7695C42.867 58.9 30.0999 58.9 17.1752 57.7695C13.1559 57.468 10.24 54.5287 9.76711 50.6095C8.34854 38.4753 8.03331 26.2657 9.76711 14.056C10.3188 10.1369 13.1559 7.5744 17.1752 6.89609Z" fill="#E54149"/>
<path fill-rule="evenodd" clip-rule="evenodd" d="M13.864 2.67486C28.9953 0.112346 43.8903 0.0369779 58.7064 2.67486C63.435 3.50391 66.5086 6.51863 67.4543 10.9654C68.7152 17.447 69.4245 23.9287 69.5821 30.4103C41.526 19.4066 22.6906 48.6494 3.77637 30.2596C3.85518 23.8533 4.24922 17.447 5.19493 10.9654C5.82541 6.44327 9.1354 3.42854 13.864 2.67486Z" fill="white" fill-opacity="0.290196"/>
<path fill-rule="evenodd" clip-rule="evenodd" d="M13.3902 4.63428C16.6214 4.63428 19.3009 7.12144 19.3009 10.2115C19.3009 13.377 16.6214 15.8642 13.3902 15.8642C10.159 15.8642 7.47949 13.377 7.47949 10.2115C7.47949 7.12144 10.159 4.63428 13.3902 4.63428Z" fill="white"/>
<path fill-rule="evenodd" clip-rule="evenodd" d="M22.4538 2.22314C24.0299 2.22314 25.3697 3.42903 25.3697 5.01175C25.3697 6.59447 24.0299 7.80035 22.4538 7.80035C20.7987 7.80035 19.459 6.59447 19.459 5.01175C19.459 3.42903 20.7987 2.22314 22.4538 2.22314Z" fill="white"/>
<path fill-rule="evenodd" clip-rule="evenodd" d="M60.0474 54.0767C62.0176 54.0767 63.5938 55.584 63.5938 57.4682C63.5938 59.3524 62.0176 60.8598 60.0474 60.8598C58.0772 60.8598 56.501 59.3524 56.501 57.4682C56.501 55.584 58.0772 54.0767 60.0474 54.0767Z" fill="white"/>
<path fill-rule="evenodd" clip-rule="evenodd" d="M24.4252 30.3352C23.6371 30.5613 22.849 30.6367 21.9821 30.6367C17.3324 30.6367 13.4707 26.6422 13.4707 22.5723C13.4707 18.5024 16.3078 15.7138 19.7754 14.734C20.0119 13.3774 21.0364 12.3223 22.5338 12.3223H49.2501C50.7475 12.3223 51.6144 13.3774 51.8508 14.6587C55.4761 15.5631 58.6284 18.4271 58.6284 22.5723C58.6284 26.6422 54.8456 30.6367 50.117 30.6367C49.4077 30.6367 48.6985 30.5613 47.9892 30.4105C47.2011 33.7267 41.9997 36.2139 38.7685 36.6661V45.6349C41.1328 45.6349 42.7089 45.6349 43.2606 48.5742H46.9646C49.8018 48.6496 49.8018 52.7194 46.9646 52.7194V52.7948C39.5566 52.7948 32.2273 52.7948 24.898 52.7948H24.5828V52.7194C22.1397 52.418 22.1397 48.951 24.5828 48.6496V48.5742H24.898H28.5233C29.1538 45.5595 30.5723 45.6349 33.0942 45.6349V36.5153C29.863 35.9124 25.3709 33.5006 24.4252 30.3352ZM20.6423 17.4473C18.3569 18.0502 16.4655 19.859 16.4655 22.5723C16.4655 25.2102 18.9874 27.7727 21.9821 27.7727C22.5338 27.7727 23.0854 27.6973 23.6371 27.5466C23.4007 26.6422 20.7212 17.5226 20.6423 17.4473ZM48.6985 27.6219C49.1713 27.6973 49.6442 27.7727 50.117 27.7727C53.1906 27.7727 55.6337 25.2102 55.6337 22.5723C55.6337 19.859 53.6634 17.8995 51.2204 17.3719L48.6985 27.6219Z" stroke="#CC191C" stroke-width="0.507196" stroke-linecap="round" stroke-linejoin="round"/>
<path fill-rule="evenodd" clip-rule="evenodd" d="M24.4252 30.3352C23.6371 30.5613 22.849 30.6367 21.9821 30.6367C17.3324 30.6367 13.4707 26.6422 13.4707 22.5723C13.4707 18.5024 16.3078 15.7138 19.7754 14.734C20.0119 13.3774 21.0364 12.3223 22.5338 12.3223H49.2501C50.7475 12.3223 51.6144 13.3774 51.8508 14.6587C55.4761 15.5631 58.6284 18.4271 58.6284 22.5723C58.6284 26.6422 54.8456 30.6367 50.117 30.6367C49.4077 30.6367 48.6985 30.5613 47.9892 30.4105C47.2011 33.7267 41.9997 36.2139 38.7685 36.6661V45.6349C41.1328 45.6349 42.7089 45.6349 43.2606 48.5742H46.9646C49.8018 48.6496 49.8018 52.7194 46.9646 52.7194V52.7948C39.5566 52.7948 32.2273 52.7948 24.898 52.7948H24.5828V52.7194C22.1397 52.418 22.1397 48.951 24.5828 48.6496V48.5742H24.898H28.5233C29.1538 45.5595 30.5723 45.6349 33.0942 45.6349V36.5153C29.863 35.9124 25.3709 33.5006 24.4252 30.3352ZM20.6423 17.4473C18.3569 18.0502 16.4655 19.859 16.4655 22.5723C16.4655 25.2102 18.9874 27.7727 21.9821 27.7727C22.5338 27.7727 23.0854 27.6973 23.6371 27.5466C23.4007 26.6422 20.7212 17.5226 20.6423 17.4473ZM48.6985 27.6219C49.1713 27.6973 49.6442 27.7727 50.117 27.7727C53.1906 27.7727 55.6337 25.2102 55.6337 22.5723C55.6337 19.859 53.6634 17.8995 51.2204 17.3719L48.6985 27.6219Z" fill="white"/>
<path fill-rule="evenodd" clip-rule="evenodd" d="M24.4252 28.6777C23.6371 28.9038 22.849 29.0545 21.9821 29.0545C17.5688 29.0545 13.9436 25.5122 13.5495 21.6685C13.5495 21.9699 13.4707 22.2714 13.4707 22.5729C13.4707 26.6427 17.3324 30.6372 21.9821 30.6372C22.849 30.6372 23.6371 30.5619 24.4252 30.3357C25.3709 33.5012 29.863 35.913 33.0942 36.5159V34.9332C29.863 34.3302 25.3709 31.8431 24.4252 28.6777Z" fill="black" fill-opacity="0.101961"/>
<path fill-rule="evenodd" clip-rule="evenodd" d="M47.9883 28.753C47.2002 32.0692 41.9988 34.5564 38.7676 35.084V36.6667C41.9988 36.2145 47.2002 33.7273 47.9883 30.4111C48.6975 30.5619 49.4068 30.6372 50.1161 30.6372C54.8447 30.6372 58.6275 26.6427 58.6275 22.5729C58.6275 22.2714 58.5487 21.9699 58.5487 21.6685C58.1547 25.5122 54.5294 29.0545 50.1161 29.0545C49.4068 29.0545 48.6975 28.9792 47.9883 28.753Z" fill="black" fill-opacity="0.101961"/>
<path fill-rule="evenodd" clip-rule="evenodd" d="M23.6375 25.9645C23.401 24.9847 20.7215 15.8652 20.6427 15.8652C18.3572 16.4682 16.4658 18.277 16.4658 20.9149C16.4658 21.2163 16.5446 21.4424 16.5446 21.6686C16.9387 19.4829 18.5937 17.9755 20.6427 17.448C20.7215 17.5233 22.3765 23.1759 23.2434 26.0399C23.3222 26.0399 23.4799 25.9645 23.6375 25.9645Z" fill="black" fill-opacity="0.101961"/>
<path fill-rule="evenodd" clip-rule="evenodd" d="M52.2461 17.6742C53.9799 18.3526 55.2409 19.7845 55.5561 21.6688C55.6349 21.4426 55.6349 21.2165 55.6349 20.9151C55.6349 18.9555 54.6104 17.3728 53.113 16.4684C52.5614 16.1669 51.9309 15.9408 51.2216 15.79L50.4335 19.0309L48.6997 25.9647C48.7785 26.0401 48.9361 26.0401 49.0938 26.1155L50.9064 18.7294L51.2216 17.3728C51.6157 17.4481 51.9309 17.5989 52.2461 17.6742Z" fill="black" fill-opacity="0.101961"/>
<path fill-rule="evenodd" clip-rule="evenodd" d="M43.0242 51.1367H28.1292H24.898H24.5828C23.7159 50.986 23.1642 50.5338 22.849 49.8555C22.455 50.986 23.0066 52.4933 24.5828 52.7194V52.7948H24.898H46.9646V52.7194C48.7772 52.7194 49.4077 51.0614 48.9349 49.8555C48.6984 50.5338 47.9891 51.1367 46.9646 51.1367H43.0242Z" fill="black" fill-opacity="0.101961"/>
</svg>
