<svg width="1000" height="200" viewBox="0 0 1000 200" fill="none" xmlns="http://www.w3.org/2000/svg">
<path fill-rule="evenodd" clip-rule="evenodd" d="M26.8839 7.62085H978.936C990.577 7.62085 1000 14.2254 1000 22.3541V185.267C1000 193.395 990.577 200 978.936 200H26.8839C15.2431 200 5.81958 193.395 5.81958 185.267V22.3541C5.81958 14.2254 15.2431 7.62085 26.8839 7.62085Z" fill="black" fill-opacity="0.101961"/>
<path fill-rule="evenodd" clip-rule="evenodd" d="M21.0643 3.04822H973.116C984.757 3.04822 994.181 9.65278 994.181 17.7815V180.694C994.181 188.823 984.757 195.427 973.116 195.427H21.0643C9.42351 195.427 0 188.823 0 180.694V17.7815C0 9.65278 9.42351 3.04822 21.0643 3.04822Z" fill="#E6E6E6"/>
<path fill-rule="evenodd" clip-rule="evenodd" d="M21.0643 0H973.116C984.757 0 994.181 6.60456 994.181 14.7333V177.646C994.181 185.775 984.757 192.379 973.116 192.379H21.0643C9.42351 192.379 0 185.775 0 177.646V14.7333C0 6.60456 9.42351 0 21.0643 0Z" fill="white"/>
<path fill-rule="evenodd" clip-rule="evenodd" d="M34.0918 9.82263H962.862C973.672 9.82263 982.541 16.0885 982.541 23.7091V169.856C982.541 177.477 973.672 183.743 962.862 183.743H34.0918C23.2825 183.743 14.4133 177.477 14.4133 169.856V23.7091C14.4133 16.0885 23.2825 9.82263 34.0918 9.82263Z" fill="#E6E6E6"/>
<path fill-rule="evenodd" clip-rule="evenodd" d="M29.6561 7.95886H958.981C969.79 7.95886 978.382 14.2247 978.382 21.8454V165.96C978.382 173.581 969.79 179.847 958.981 179.847H29.6561C18.8467 179.847 9.97754 173.581 9.97754 165.96V21.8454C9.97754 14.2247 18.8467 7.95886 29.6561 7.95886Z" fill="#F1C383"/>
<path fill-rule="evenodd" clip-rule="evenodd" d="M29.3789 4.4032H954.823C965.356 4.4032 974.225 10.4997 974.225 17.951V158.171C974.225 165.622 965.356 171.719 954.823 171.719H29.3789C18.5696 171.719 9.97754 165.622 9.97754 158.171V17.951C9.97754 10.4997 18.5696 4.4032 29.3789 4.4032Z" fill="#FAEECC"/>
<path fill-rule="evenodd" clip-rule="evenodd" d="M32.4274 6.26575C338.692 6.26575 645.233 6.26575 951.774 6.26575C962.306 6.26575 970.621 12.1929 970.621 19.6442C970.621 65.1988 970.621 110.753 970.621 156.477C970.621 163.759 962.029 169.856 951.774 169.856C645.233 169.856 338.692 169.856 32.4274 169.856C21.8952 169.856 13.3032 163.759 13.3032 156.477C13.3032 110.753 13.3032 65.1988 13.3032 19.6442C13.3032 12.1929 21.8952 6.26575 32.4274 6.26575Z" fill="#FAEDC9"/>
<path fill-rule="evenodd" clip-rule="evenodd" d="M35.4762 7.95886C339.8 7.95886 644.124 7.95886 948.448 7.95886C958.98 7.95886 967.295 13.886 967.295 21.168C967.295 65.7065 967.295 110.245 967.295 154.783C967.295 162.065 958.98 167.993 948.448 167.993C644.124 167.993 339.8 167.993 35.4762 167.993C25.2212 167.993 16.6292 162.065 16.6292 154.783C16.6292 110.245 16.6292 65.7065 16.6292 21.168C16.6292 13.886 25.2212 7.95886 35.4762 7.95886Z" fill="#F9ECC6"/>
<path fill-rule="evenodd" clip-rule="evenodd" d="M38.5247 9.82263C340.909 9.82263 643.292 9.82263 945.399 9.82263C955.654 9.82263 963.969 15.7498 963.969 22.8624C963.969 66.3848 963.969 109.738 963.969 153.091C963.969 160.373 955.654 166.3 945.399 166.3C643.292 166.3 340.909 166.3 38.5247 166.3C28.2697 166.3 19.9548 160.373 19.9548 153.091C19.9548 109.738 19.9548 66.3848 19.9548 22.8624C19.9548 15.7498 28.2697 9.82263 38.5247 9.82263Z" fill="#F9EBC2"/>
<path fill-rule="evenodd" clip-rule="evenodd" d="M41.8506 11.6851C342.017 11.6851 642.184 11.6851 942.35 11.6851C952.328 11.6851 960.643 17.4429 960.643 24.5555C960.643 66.8924 960.643 109.229 960.643 151.566C960.643 158.679 952.328 164.437 942.35 164.437C642.184 164.437 342.017 164.437 41.8506 164.437C31.5956 164.437 23.2808 158.679 23.2808 151.566C23.2808 109.229 23.2808 66.8924 23.2808 24.5555C23.2808 17.4429 31.5956 11.6851 41.8506 11.6851Z" fill="#F8EABF"/>
<path fill-rule="evenodd" clip-rule="evenodd" d="M44.8996 13.3782C342.849 13.3782 641.075 13.3782 939.302 13.3782C949.28 13.3782 957.317 19.136 957.317 26.0793C957.317 67.4001 957.317 108.721 957.317 149.872C957.317 156.816 949.28 162.574 939.302 162.574C641.075 162.574 342.849 162.574 44.8996 162.574C34.9218 162.574 26.6069 156.816 26.6069 149.872C26.6069 108.721 26.6069 67.4001 26.6069 26.0793C26.6069 19.136 34.9218 13.3782 44.8996 13.3782Z" fill="#F8E9BC"/>
<path fill-rule="evenodd" clip-rule="evenodd" d="M47.9479 15.2419C343.957 15.2419 639.966 15.2419 935.975 15.2419C945.953 15.2419 953.991 20.8304 953.991 27.7737C953.991 67.9091 953.991 108.045 953.991 148.18C953.991 155.123 945.953 160.881 935.975 160.881C639.966 160.881 343.957 160.881 47.9479 160.881C38.2472 160.881 29.9324 155.123 29.9324 148.18C29.9324 108.045 29.9324 67.9091 29.9324 27.7737C29.9324 20.8304 37.9701 15.2419 47.9479 15.2419Z" fill="#F7E8B9"/>
<path fill-rule="evenodd" clip-rule="evenodd" d="M50.9971 17.1045C345.066 17.1045 639.135 17.1045 932.927 17.1045C942.628 17.1045 950.665 22.693 950.665 29.4669C950.665 68.4169 950.665 107.536 950.665 146.656C950.665 153.429 942.628 159.018 932.927 159.018C639.135 159.018 345.066 159.018 50.9971 159.018C41.2964 159.018 33.5359 153.429 33.5359 146.656C33.5359 107.536 33.5359 68.4169 33.5359 29.4669C33.5359 22.693 41.2964 17.1045 50.9971 17.1045Z" fill="#F7E7B6"/>
<path fill-rule="evenodd" clip-rule="evenodd" d="M54.3228 18.7975C346.175 18.7975 638.026 18.7975 929.878 18.7975C939.301 18.7975 947.339 24.386 947.339 31.1599C947.339 69.0938 947.339 107.028 947.339 144.962C947.339 151.735 939.301 157.155 929.878 157.155C638.026 157.155 346.175 157.155 54.3228 157.155C44.6221 157.155 36.8616 151.735 36.8616 144.962C36.8616 107.028 36.8616 69.0938 36.8616 31.1599C36.8616 24.386 44.6221 18.7975 54.3228 18.7975Z" fill="#F6E6B3"/>
<path fill-rule="evenodd" clip-rule="evenodd" d="M57.3716 20.66C347.006 20.66 636.918 20.66 926.829 20.66C936.253 20.66 944.013 26.0792 944.013 32.6837C944.013 69.6015 944.013 106.519 944.013 143.268C944.013 150.042 936.253 155.461 926.829 155.461C636.918 155.461 347.006 155.461 57.3716 155.461C47.948 155.461 40.1875 150.042 40.1875 143.268C40.1875 106.519 40.1875 69.6015 40.1875 32.6837C40.1875 26.0792 47.948 20.66 57.3716 20.66Z" fill="#F6E5AF"/>
<path fill-rule="evenodd" clip-rule="evenodd" d="M60.4201 22.5227C348.114 22.5227 635.809 22.5227 923.503 22.5227C932.926 22.5227 940.687 27.7725 940.687 34.377C940.687 70.1094 940.687 105.842 940.687 141.744C940.687 148.179 932.926 153.598 923.503 153.598C635.809 153.598 348.114 153.598 60.4201 153.598C50.9966 153.598 43.5132 148.179 43.5132 141.744C43.5132 105.842 43.5132 70.1094 43.5132 34.377C43.5132 27.7725 50.9966 22.5227 60.4201 22.5227Z" fill="#F5E4AC"/>
<path fill-rule="evenodd" clip-rule="evenodd" d="M63.4688 24.2169H920.454C929.601 24.2169 937.361 29.4667 937.361 36.0713V140.051C937.361 146.486 929.601 151.736 920.454 151.736H63.4688C54.3225 151.736 46.8391 146.486 46.8391 140.051V36.0713C46.8391 29.4667 54.3225 24.2169 63.4688 24.2169Z" fill="#F5E3A9"/>
<path fill-rule="evenodd" clip-rule="evenodd" d="M954.546 149.196C960.367 149.196 965.078 152.583 965.078 156.647C965.078 160.881 960.367 164.098 954.546 164.098C948.726 164.098 944.014 160.881 944.014 156.647C944.014 152.583 948.726 149.196 954.546 149.196Z" fill="white"/>
<path fill-rule="evenodd" clip-rule="evenodd" d="M938.193 156.816C941.519 156.816 944.013 158.678 944.013 160.88C944.013 163.081 941.519 164.944 938.193 164.944C935.144 164.944 932.649 163.081 932.649 160.88C932.649 158.678 935.144 156.816 938.193 156.816Z" fill="white"/>
<path fill-rule="evenodd" clip-rule="evenodd" d="M30.7659 7.79053C39.9122 7.79053 47.1185 13.0403 47.1185 19.3062C47.1185 25.7414 39.9122 30.8218 30.7659 30.8218C21.6195 30.8218 14.4133 25.7414 14.4133 19.3062C14.4133 13.0403 21.6195 7.79053 30.7659 7.79053Z" fill="white"/>
<path fill-rule="evenodd" clip-rule="evenodd" d="M55.9855 6.43542C60.9744 6.43542 65.1318 9.31434 65.1318 12.8706C65.1318 16.2576 60.9744 19.1365 55.9855 19.1365C50.9965 19.1365 46.8391 16.2576 46.8391 12.8706C46.8391 9.31434 50.9965 6.43542 55.9855 6.43542Z" fill="white"/>
<path fill-rule="evenodd" clip-rule="evenodd" d="M61.5304 18.6281H242.517C255.267 18.6281 265.799 25.402 265.799 33.7V142.76C265.799 151.058 255.267 158.001 242.517 158.001H61.5304C48.5038 158.001 38.2488 151.227 38.2488 142.76V33.7C38.2488 25.402 48.5038 18.6281 61.5304 18.6281Z" fill="#EFB469"/>
<path fill-rule="evenodd" clip-rule="evenodd" d="M70.1215 25.7405H233.647C246.119 25.7405 256.097 32.345 256.097 40.4737V140.728C256.097 148.687 246.119 155.292 233.647 155.292H70.1215C57.6492 155.292 47.6714 148.687 47.6714 140.728V40.4737C47.6714 32.345 57.6492 25.7405 70.1215 25.7405Z" fill="#F1C383"/>
<path fill-rule="evenodd" clip-rule="evenodd" d="M71.2313 28.619C125.001 28.619 178.77 28.619 232.817 28.619C245.012 28.619 254.99 35.0542 254.99 43.0136C254.99 75.5283 254.99 108.043 254.99 140.558C254.99 148.517 245.012 154.952 232.817 154.952C178.77 154.952 125.001 154.952 71.2313 154.952C59.0362 154.952 49.0583 148.517 49.0583 140.558C49.0583 108.043 49.0583 75.5283 49.0583 43.0136C49.0583 35.0542 59.0362 28.619 71.2313 28.619Z" fill="#F1C585"/>
<path fill-rule="evenodd" clip-rule="evenodd" d="M72.0643 31.3291C125.279 31.3291 178.495 31.3291 231.71 31.3291C243.905 31.3291 253.605 37.7643 253.605 45.7237C253.605 77.2223 253.605 108.89 253.605 140.389C253.605 148.348 243.905 154.784 231.71 154.784C178.495 154.784 125.279 154.784 72.0643 154.784C60.1463 154.784 50.1685 148.348 50.1685 140.389C50.1685 108.89 50.1685 77.2223 50.1685 45.7237C50.1685 37.7643 60.1463 31.3291 72.0643 31.3291Z" fill="#F1C786"/>
<path fill-rule="evenodd" clip-rule="evenodd" d="M73.1711 34.2079C125.555 34.2079 178.216 34.2079 230.599 34.2079C242.517 34.2079 252.495 40.6431 252.495 48.2638C252.495 78.9157 252.495 109.568 252.495 140.22C252.495 148.01 242.517 154.445 230.599 154.445C178.216 154.445 125.555 154.445 73.1711 154.445C61.2532 154.445 51.5525 148.01 51.5525 140.22C51.5525 109.568 51.5525 78.9157 51.5525 48.2638C51.5525 40.6431 61.2532 34.2079 73.1711 34.2079Z" fill="#F2CA88"/>
<path fill-rule="evenodd" clip-rule="evenodd" d="M74.2808 37.0864C126.11 37.0864 177.939 37.0864 229.769 37.0864C241.41 37.0864 251.11 43.3523 251.11 50.9729C251.11 80.7782 251.11 110.414 251.11 140.219C251.11 147.84 241.41 154.106 229.769 154.106C177.939 154.106 126.11 154.106 74.2808 154.106C62.3628 154.106 52.6621 147.84 52.6621 140.219C52.6621 110.414 52.6621 80.7782 52.6621 50.9729C52.6621 43.3523 62.3628 37.0864 74.2808 37.0864Z" fill="#F2CC8A"/>
<path fill-rule="evenodd" clip-rule="evenodd" d="M75.1102 39.7965C126.385 39.7965 177.383 39.7965 228.658 39.7965C240.299 39.7965 250 46.0624 250 53.5137C250 82.4721 250 111.261 250 140.05C250 147.671 240.299 153.768 228.658 153.768C177.383 153.768 126.385 153.768 75.1102 153.768C63.4694 153.768 54.0459 147.671 54.0459 140.05C54.0459 111.261 54.0459 82.4721 54.0459 53.5137C54.0459 46.0624 63.4694 39.7965 75.1102 39.7965Z" fill="#F2CE8B"/>
<path fill-rule="evenodd" clip-rule="evenodd" d="M76.2198 42.6753C126.663 42.6753 177.107 42.6753 227.55 42.6753C239.191 42.6753 248.615 48.7718 248.615 56.2231C248.615 84.1655 248.615 111.939 248.615 139.881C248.615 147.332 239.191 153.598 227.55 153.598C177.107 153.598 126.663 153.598 76.2198 153.598C64.579 153.598 55.1555 147.332 55.1555 139.881C55.1555 111.939 55.1555 84.1655 55.1555 56.2231C55.1555 48.7718 64.579 42.6753 76.2198 42.6753Z" fill="#F2D08D"/>
<path fill-rule="evenodd" clip-rule="evenodd" d="M77.3299 45.3844C126.942 45.3844 176.831 45.3844 226.72 45.3844C238.084 45.3844 247.23 51.4809 247.23 58.9322C247.23 85.8585 247.23 112.785 247.23 139.711C247.23 147.162 238.084 153.259 226.72 153.259C176.831 153.259 126.942 153.259 77.3299 153.259C65.9662 153.259 56.5427 147.162 56.5427 139.711C56.5427 112.785 56.5427 85.8585 56.5427 58.9322C56.5427 51.4809 65.9662 45.3844 77.3299 45.3844Z" fill="#F2D28E"/>
<path fill-rule="evenodd" clip-rule="evenodd" d="M78.1623 48.2631C127.497 48.2631 176.555 48.2631 225.613 48.2631C236.976 48.2631 246.123 54.1902 246.123 61.4722C246.123 87.5517 246.123 113.631 246.123 139.711C246.123 146.993 236.976 152.92 225.613 152.92C176.555 152.92 127.497 152.92 78.1623 152.92C67.0759 152.92 57.6523 146.993 57.6523 139.711C57.6523 113.631 57.6523 87.5517 57.6523 61.4722C57.6523 54.1902 67.0759 48.2631 78.1623 48.2631Z" fill="#F2D490"/>
<path fill-rule="evenodd" clip-rule="evenodd" d="M79.269 50.9733C127.772 50.9733 176.276 50.9733 224.779 50.9733C235.866 50.9733 244.735 56.9004 244.735 64.1824C244.735 89.2459 244.735 114.309 244.735 139.542C244.735 146.655 235.866 152.582 224.779 152.582C176.276 152.582 127.772 152.582 79.269 152.582C68.1825 152.582 59.0361 146.655 59.0361 139.542C59.0361 114.309 59.0361 89.2459 59.0361 64.1824C59.0361 56.9004 68.1825 50.9733 79.269 50.9733Z" fill="#F3D792"/>
<path fill-rule="evenodd" clip-rule="evenodd" d="M80.3756 53.8518C128.047 53.8518 175.719 53.8518 223.668 53.8518C234.478 53.8518 243.624 59.6096 243.624 66.7222C243.624 90.939 243.624 115.156 243.624 139.372C243.624 146.485 234.478 152.412 223.668 152.412C175.719 152.412 128.047 152.412 80.3756 152.412C69.2891 152.412 60.4199 146.485 60.4199 139.372C60.4199 115.156 60.4199 90.939 60.4199 66.7222C60.4199 59.6096 69.2891 53.8518 80.3756 53.8518Z" fill="#F3D993"/>
<path fill-rule="evenodd" clip-rule="evenodd" d="M81.2081 56.562H222.561C233.37 56.562 242.239 62.3198 242.239 69.4324V139.204C242.239 146.316 233.37 152.074 222.561 152.074H81.2081C70.3987 152.074 61.5295 146.316 61.5295 139.204V69.4324C61.5295 62.3198 70.3987 56.562 81.2081 56.562Z" fill="#F3DB95"/>
<path fill-rule="evenodd" clip-rule="evenodd" d="M309.591 68.2473H932.375C945.401 68.2473 955.656 75.0212 955.656 83.4886V142.76C955.656 151.058 945.124 158.002 932.375 158.002H309.591C296.842 158.002 286.31 151.228 286.31 142.76V83.4886C286.31 75.0212 296.842 68.2473 309.591 68.2473Z" fill="#EFB469"/>
<path fill-rule="evenodd" clip-rule="evenodd" d="M318.46 75.5292H923.782C936.254 75.5292 946.232 82.1337 946.232 90.0931V140.728C946.232 148.687 935.977 155.292 923.782 155.292H318.46C305.988 155.292 296.01 148.687 296.01 140.728V90.0931C296.01 82.1337 305.988 75.5292 318.46 75.5292Z" fill="#F1C383"/>
<path fill-rule="evenodd" clip-rule="evenodd" d="M319.293 78.408C520.513 78.408 721.732 78.408 922.675 78.408C934.87 78.408 944.848 84.8432 944.848 92.8025C944.848 108.721 944.848 124.64 944.848 140.559C944.848 148.518 934.87 154.953 922.675 154.953C721.732 154.953 520.513 154.953 319.293 154.953C307.098 154.953 297.12 148.518 297.12 140.559C297.12 124.64 297.12 108.721 297.12 92.8025C297.12 84.8432 307.098 78.408 319.293 78.408Z" fill="#F1C585"/>
<path fill-rule="evenodd" clip-rule="evenodd" d="M320.403 81.1171C520.791 81.1171 721.179 81.1171 921.844 81.1171C933.762 81.1171 943.74 87.5523 943.74 95.3423C943.74 110.414 943.74 125.486 943.74 140.389C943.74 148.348 933.762 154.783 921.844 154.783C721.179 154.783 520.791 154.783 320.403 154.783C308.208 154.783 298.507 148.348 298.507 140.389C298.507 125.486 298.507 110.414 298.507 95.3423C298.507 87.5523 308.208 81.1171 320.403 81.1171Z" fill="#F1C786"/>
<path fill-rule="evenodd" clip-rule="evenodd" d="M321.509 83.9968C521.066 83.9968 720.9 83.9968 920.734 83.9968C932.652 83.9968 942.352 90.2627 942.352 98.0527C942.352 112.109 942.352 126.164 942.352 140.22C942.352 148.01 932.652 154.445 920.734 154.445C720.9 154.445 521.066 154.445 321.509 154.445C309.591 154.445 299.613 148.01 299.613 140.22C299.613 126.164 299.613 112.109 299.613 98.0527C299.613 90.2627 309.314 83.9968 321.509 83.9968Z" fill="#F2CA88"/>
<path fill-rule="evenodd" clip-rule="evenodd" d="M322.342 86.7059C521.622 86.7059 720.624 86.7059 919.626 86.7059C931.544 86.7059 941.245 92.9718 941.245 100.592C941.245 113.802 941.245 127.011 941.245 140.22C941.245 147.84 931.544 154.106 919.626 154.106C720.624 154.106 521.622 154.106 322.342 154.106C310.701 154.106 301 147.84 301 140.22C301 127.011 301 113.802 301 100.592C301 92.9718 310.701 86.7059 322.342 86.7059Z" fill="#F2CC8A"/>
<path fill-rule="evenodd" clip-rule="evenodd" d="M323.448 89.5845C521.896 89.5845 720.344 89.5845 918.793 89.5845C930.433 89.5845 939.857 95.681 939.857 103.302C939.857 115.495 939.857 127.857 939.857 140.05C939.857 147.671 930.433 153.767 918.793 153.767C720.344 153.767 521.896 153.767 323.448 153.767C311.807 153.767 302.107 147.671 302.107 140.05C302.107 127.857 302.107 115.495 302.107 103.302C302.107 95.681 311.807 89.5845 323.448 89.5845Z" fill="#F2CE8B"/>
<path fill-rule="evenodd" clip-rule="evenodd" d="M324.281 92.2948C522.175 92.2948 720.069 92.2948 917.685 92.2948C929.326 92.2948 938.75 98.3913 938.75 106.012C938.75 117.189 938.75 128.535 938.75 139.882C938.75 147.333 929.326 153.599 917.685 153.599C720.069 153.599 522.175 153.599 324.281 153.599C312.917 153.599 303.494 147.333 303.494 139.882C303.494 128.535 303.494 117.189 303.494 106.012C303.494 98.3913 312.917 92.2948 324.281 92.2948Z" fill="#F2D08D"/>
<path fill-rule="evenodd" clip-rule="evenodd" d="M325.391 95.1733C522.453 95.1733 719.515 95.1733 916.578 95.1733C927.941 95.1733 937.365 101.101 937.365 108.552C937.365 119.051 937.365 129.382 937.365 139.712C937.365 147.163 927.941 153.26 916.578 153.26C719.515 153.26 522.453 153.26 325.391 153.26C314.027 153.26 304.604 147.163 304.604 139.712C304.604 129.382 304.604 119.051 304.604 108.552C304.604 101.101 314.027 95.1733 325.391 95.1733Z" fill="#F2D28E"/>
<path fill-rule="evenodd" clip-rule="evenodd" d="M326.497 97.8824C522.728 97.8824 719.236 97.8824 915.744 97.8824C926.83 97.8824 936.254 103.979 936.254 111.261C936.254 120.744 936.254 130.228 936.254 139.711C936.254 146.993 926.83 152.92 915.744 152.92C719.236 152.92 522.728 152.92 326.497 152.92C315.134 152.92 305.987 146.993 305.987 139.711C305.987 130.228 305.987 120.744 305.987 111.261C305.987 103.81 315.134 97.8824 326.497 97.8824Z" fill="#F2D490"/>
<path fill-rule="evenodd" clip-rule="evenodd" d="M327.33 100.762C523.284 100.762 718.96 100.762 914.637 100.762C925.723 100.762 934.87 106.689 934.87 113.802C934.87 122.439 934.87 130.906 934.87 139.543C934.87 146.655 925.723 152.583 914.637 152.583C718.96 152.583 523.284 152.583 327.33 152.583C316.244 152.583 307.375 146.655 307.375 139.543C307.375 130.906 307.375 122.439 307.375 113.802C307.375 106.689 316.244 100.762 327.33 100.762Z" fill="#F3D792"/>
<path fill-rule="evenodd" clip-rule="evenodd" d="M328.437 103.471C523.559 103.471 718.681 103.471 913.526 103.471C924.612 103.471 933.482 109.398 933.482 116.511C933.482 124.132 933.482 131.752 933.482 139.373C933.482 146.486 924.612 152.413 913.526 152.413C718.681 152.413 523.559 152.413 328.437 152.413C317.627 152.413 308.481 146.486 308.481 139.373C308.481 131.752 308.481 124.132 308.481 116.511C308.481 109.398 317.627 103.471 328.437 103.471Z" fill="#F3D993"/>
<path fill-rule="evenodd" clip-rule="evenodd" d="M329.546 106.351H912.696C923.505 106.351 932.374 112.109 932.374 119.052V139.204C932.374 146.317 923.505 152.075 912.696 152.075H329.546C318.737 152.075 309.868 146.317 309.868 139.204V119.052C309.868 112.109 318.737 106.351 329.546 106.351Z" fill="#F3DB95"/>
<path fill-rule="evenodd" clip-rule="evenodd" d="M589.004 17.6129H934.978C944.695 17.6129 952.329 21.6773 952.329 26.5883V51.1438C952.329 56.0549 944.695 59.9499 934.978 59.9499H589.004C579.634 59.9499 572 56.0549 572 51.1438V26.5883C572 21.6773 579.634 17.6129 589.004 17.6129Z" fill="#EFB469"/>
<path fill-rule="evenodd" clip-rule="evenodd" d="M595.599 22.0162H928.734C937.757 22.0162 945.391 25.9112 945.391 30.4836V49.7893C945.391 54.531 937.757 58.426 928.734 58.426H595.599C586.577 58.426 578.943 54.531 578.943 49.7893V30.4836C578.943 25.7419 586.577 22.0162 595.599 22.0162Z" fill="#F1C383"/>
<path fill-rule="evenodd" clip-rule="evenodd" d="M596.29 23.5397C706.988 23.5397 817.339 23.5397 928.037 23.5397C937.059 23.5397 944.347 27.4347 944.347 32.1764C944.347 37.9342 944.347 43.8614 944.347 49.7886C944.347 54.5303 937.059 58.256 928.037 58.256C817.339 58.256 706.988 58.256 596.29 58.256C587.268 58.256 579.98 54.5303 579.98 49.7886C579.98 43.8614 579.98 37.9342 579.98 32.1764C579.98 27.4347 587.268 23.5397 596.29 23.5397Z" fill="#F1C585"/>
<path fill-rule="evenodd" clip-rule="evenodd" d="M596.985 25.2328C706.989 25.2328 817.34 25.2328 927.344 25.2328C936.019 25.2328 943.307 28.9584 943.307 33.7002C943.307 38.95 943.307 44.3691 943.307 49.7882C943.307 54.3606 936.019 58.0863 927.344 58.0863C817.34 58.0863 706.989 58.0863 596.985 58.0863C588.31 58.0863 581.022 54.3606 581.022 49.7882C581.022 44.3691 581.022 38.95 581.022 33.7002C581.022 28.9584 588.31 25.2328 596.985 25.2328Z" fill="#F1C786"/>
<path fill-rule="evenodd" clip-rule="evenodd" d="M597.676 26.9269C707.333 26.9269 816.99 26.9269 926.647 26.9269C935.322 26.9269 942.61 30.6525 942.61 35.2249C942.61 39.9667 942.61 44.8777 942.61 49.6195C942.61 54.1919 935.322 57.9175 926.647 57.9175C816.99 57.9175 707.333 57.9175 597.676 57.9175C589.001 57.9175 581.713 54.1919 581.713 49.6195C581.713 44.8777 581.713 39.9667 581.713 35.2249C581.713 30.6525 589.001 26.9269 597.676 26.9269Z" fill="#F2CA88"/>
<path fill-rule="evenodd" clip-rule="evenodd" d="M598.718 28.4504C707.681 28.4504 816.644 28.4504 925.606 28.4504C934.282 28.4504 941.569 32.1761 941.569 36.7485C941.569 40.9822 941.569 45.2159 941.569 49.6189C941.569 54.022 934.282 57.7476 925.606 57.7476C816.644 57.7476 707.681 57.7476 598.718 57.7476C590.042 57.7476 582.755 54.022 582.755 49.6189C582.755 45.2159 582.755 40.9822 582.755 36.7485C582.755 32.1761 589.695 28.4504 598.718 28.4504Z" fill="#F2CC8A"/>
<path fill-rule="evenodd" clip-rule="evenodd" d="M599.413 30.1445C708.029 30.1445 816.298 30.1445 924.914 30.1445C933.589 30.1445 940.529 33.8702 940.529 38.2732C940.529 41.9989 940.529 45.7245 940.529 49.4502C940.529 53.8532 933.589 57.5789 924.914 57.5789C816.298 57.5789 708.029 57.5789 599.413 57.5789C590.738 57.5789 583.797 54.0226 583.797 49.4502C583.797 45.7245 583.797 41.9989 583.797 38.2732C583.797 33.8702 590.738 30.1445 599.413 30.1445Z" fill="#F2CE8B"/>
<path fill-rule="evenodd" clip-rule="evenodd" d="M600.108 31.8378C708.029 31.8378 816.298 31.8378 924.22 31.8378C932.896 31.8378 939.836 35.3941 939.836 39.7971C939.836 43.0147 939.836 46.2323 939.836 49.4499C939.836 53.853 932.896 57.4093 924.22 57.4093C816.298 57.4093 708.029 57.4093 600.108 57.4093C591.432 57.4093 584.492 53.853 584.492 49.4499C584.492 46.2323 584.492 43.0147 584.492 39.7971C584.492 35.3941 591.432 31.8378 600.108 31.8378Z" fill="#F2D08D"/>
<path fill-rule="evenodd" clip-rule="evenodd" d="M600.803 33.5308C708.378 33.5308 815.952 33.5308 923.527 33.5308C931.856 33.5308 938.796 37.0871 938.796 41.3208C938.796 44.0303 938.796 46.7399 938.796 49.2801C938.796 53.6831 931.856 57.2395 923.527 57.2395C815.952 57.2395 708.378 57.2395 600.803 57.2395C592.474 57.2395 585.534 53.6831 585.534 49.2801C585.534 46.7399 585.534 44.0303 585.534 41.3208C585.534 37.0871 592.474 33.5308 600.803 33.5308Z" fill="#F2D28E"/>
<path fill-rule="evenodd" clip-rule="evenodd" d="M601.498 35.0554C708.725 35.0554 815.606 35.0554 922.834 35.0554C931.162 35.0554 937.756 38.6117 937.756 43.0148C937.756 45.0469 937.756 47.0791 937.756 49.2806C937.756 53.5143 931.162 57.0706 922.834 57.0706C815.606 57.0706 708.725 57.0706 601.498 57.0706C593.169 57.0706 586.576 53.5143 586.576 49.2806C586.576 47.0791 586.576 45.0469 586.576 43.0148C586.576 38.6117 593.169 35.0554 601.498 35.0554Z" fill="#F2D490"/>
<path fill-rule="evenodd" clip-rule="evenodd" d="M602.188 36.7485C708.722 36.7485 815.602 36.7485 922.136 36.7485C930.117 36.7485 937.058 40.3048 937.058 44.5385C937.058 46.0627 937.058 47.5868 937.058 49.1109C937.058 53.3446 930.117 56.9009 922.136 56.9009C815.602 56.9009 708.722 56.9009 602.188 56.9009C594.206 56.9009 587.266 53.3446 587.266 49.1109C587.266 47.5868 587.266 46.0627 587.266 44.5385C587.266 40.3048 594.206 36.7485 602.188 36.7485Z" fill="#F3D792"/>
<path fill-rule="evenodd" clip-rule="evenodd" d="M602.883 38.4425C709.07 38.4425 815.256 38.4425 921.443 38.4425C929.425 38.4425 936.018 41.8295 936.018 46.0632C936.018 47.0792 936.018 48.0953 936.018 49.1114C936.018 53.3451 929.425 56.7321 921.443 56.7321C815.256 56.7321 709.07 56.7321 602.883 56.7321C594.902 56.7321 588.308 53.3451 588.308 49.1114C588.308 48.0953 588.308 47.0792 588.308 46.0632C588.308 41.8295 594.902 38.4425 602.883 38.4425Z" fill="#F3D993"/>
<path fill-rule="evenodd" clip-rule="evenodd" d="M603.925 40.1357H920.403C928.385 40.1357 934.978 43.5227 934.978 47.587V48.9418C934.978 53.1755 928.385 56.5625 920.403 56.5625H603.925C595.944 56.5625 589.351 53.1755 589.351 48.9418V47.587C589.351 43.5227 595.944 40.1357 603.925 40.1357Z" fill="#F3DB95"/>
<path fill-rule="evenodd" clip-rule="evenodd" d="M300.92 17.6129H543.884C550.686 17.6129 556 21.6773 556 26.5883V51.1438C556 56.0549 550.686 59.9499 543.884 59.9499H300.92C294.33 59.9499 288.803 56.0549 288.803 51.1438V26.5883C288.803 21.6773 294.33 17.6129 300.92 17.6129Z" fill="#EFB469"/>
<path fill-rule="evenodd" clip-rule="evenodd" d="M305.383 22.0162H539.42C545.797 22.0162 551.111 25.9112 551.111 30.4836V49.7893C551.111 54.531 545.797 58.426 539.42 58.426H305.383C299.006 58.426 293.905 54.531 293.905 49.7893V30.4836C293.905 25.7419 299.006 22.0162 305.383 22.0162Z" fill="#F1C383"/>
<path fill-rule="evenodd" clip-rule="evenodd" d="M306.022 23.5397C383.609 23.5397 461.196 23.5397 538.995 23.5397C545.372 23.5397 550.474 27.4347 550.474 32.1764C550.474 37.9342 550.474 43.8614 550.474 49.7886C550.474 54.5303 545.372 58.256 538.995 58.256C461.196 58.256 383.609 58.256 306.022 58.256C299.645 58.256 294.543 54.5303 294.543 49.7886C294.543 43.8614 294.543 37.9342 294.543 32.1764C294.543 27.4347 299.645 23.5397 306.022 23.5397Z" fill="#F1C585"/>
<path fill-rule="evenodd" clip-rule="evenodd" d="M306.448 25.2328C383.822 25.2328 461.197 25.2328 538.358 25.2328C544.735 25.2328 549.837 28.9584 549.837 33.7002C549.837 38.95 549.837 44.3691 549.837 49.7882C549.837 54.3606 544.735 58.0863 538.358 58.0863C461.197 58.0863 383.822 58.0863 306.448 58.0863C300.283 58.0863 295.182 54.3606 295.182 49.7882C295.182 44.3691 295.182 38.95 295.182 33.7002C295.182 28.9584 300.283 25.2328 306.448 25.2328Z" fill="#F1C786"/>
<path fill-rule="evenodd" clip-rule="evenodd" d="M307.086 26.9269C384.035 26.9269 460.984 26.9269 537.934 26.9269C544.098 26.9269 549.2 30.6525 549.2 35.2249C549.2 39.9667 549.2 44.8777 549.2 49.6195C549.2 54.1919 544.098 57.9175 537.934 57.9175C460.984 57.9175 384.035 57.9175 307.086 57.9175C300.921 57.9175 295.82 54.1919 295.82 49.6195C295.82 44.8777 295.82 39.9667 295.82 35.2249C295.82 30.6525 300.921 26.9269 307.086 26.9269Z" fill="#F2CA88"/>
<path fill-rule="evenodd" clip-rule="evenodd" d="M307.512 28.4504C384.248 28.4504 460.773 28.4504 537.297 28.4504C543.461 28.4504 548.563 32.1761 548.563 36.7485C548.563 40.9822 548.563 45.2159 548.563 49.6189C548.563 54.022 543.461 57.7476 537.297 57.7476C460.773 57.7476 384.248 57.7476 307.512 57.7476C301.347 57.7476 296.458 54.022 296.458 49.6189C296.458 45.2159 296.458 40.9822 296.458 36.7485C296.458 32.1761 301.347 28.4504 307.512 28.4504Z" fill="#F2CC8A"/>
<path fill-rule="evenodd" clip-rule="evenodd" d="M308.147 30.1445C384.246 30.1445 460.558 30.1445 536.87 30.1445C542.822 30.1445 547.923 33.8702 547.923 38.2732C547.923 41.9989 547.923 45.7245 547.923 49.4502C547.923 53.8532 542.822 57.5789 536.87 57.5789C460.558 57.5789 384.246 57.5789 308.147 57.5789C301.983 57.5789 297.094 54.0226 297.094 49.4502C297.094 45.7245 297.094 41.9989 297.094 38.2732C297.094 33.8702 301.983 30.1445 308.147 30.1445Z" fill="#F2CE8B"/>
<path fill-rule="evenodd" clip-rule="evenodd" d="M308.573 31.8378C384.459 31.8378 460.346 31.8378 536.445 31.8378C542.397 31.8378 547.286 35.3941 547.286 39.7971C547.286 43.0147 547.286 46.2323 547.286 49.4499C547.286 53.853 542.397 57.4093 536.445 57.4093C460.346 57.4093 384.459 57.4093 308.573 57.4093C302.621 57.4093 297.732 53.853 297.732 49.4499C297.732 46.2323 297.732 43.0147 297.732 39.7971C297.732 35.3941 302.621 31.8378 308.573 31.8378Z" fill="#F2D08D"/>
<path fill-rule="evenodd" clip-rule="evenodd" d="M308.999 33.5308C384.673 33.5308 460.347 33.5308 535.808 33.5308C541.76 33.5308 546.436 37.0871 546.436 41.3208C546.436 44.0303 546.436 46.7399 546.436 49.2801C546.436 53.6831 541.76 57.2395 535.808 57.2395C460.347 57.2395 384.673 57.2395 308.999 57.2395C303.26 57.2395 298.371 53.6831 298.371 49.2801C298.371 46.7399 298.371 44.0303 298.371 41.3208C298.371 37.0871 303.26 33.5308 308.999 33.5308Z" fill="#F2D28E"/>
<path fill-rule="evenodd" clip-rule="evenodd" d="M309.634 35.0554C384.883 35.0554 460.132 35.0554 535.381 35.0554C541.12 35.0554 545.796 38.6117 545.796 43.0148C545.796 45.0469 545.796 47.0791 545.796 49.2806C545.796 53.5143 541.12 57.0706 535.381 57.0706C460.132 57.0706 384.883 57.0706 309.634 57.0706C303.895 57.0706 299.006 53.5143 299.006 49.2806C299.006 47.0791 299.006 45.0469 299.006 43.0148C299.006 38.6117 303.895 35.0554 309.634 35.0554Z" fill="#F2D490"/>
<path fill-rule="evenodd" clip-rule="evenodd" d="M310.06 36.7485C385.096 36.7485 459.92 36.7485 534.744 36.7485C540.483 36.7485 545.159 40.3048 545.159 44.5385C545.159 46.0627 545.159 47.5868 545.159 49.1109C545.159 53.3446 540.483 56.9009 534.744 56.9009C459.92 56.9009 385.096 56.9009 310.06 56.9009C304.321 56.9009 299.645 53.3446 299.645 49.1109C299.645 47.5868 299.645 46.0627 299.645 44.5385C299.645 40.3048 304.321 36.7485 310.06 36.7485Z" fill="#F3D792"/>
<path fill-rule="evenodd" clip-rule="evenodd" d="M310.699 38.4425C385.097 38.4425 459.708 38.4425 534.319 38.4425C539.846 38.4425 544.522 41.8295 544.522 46.0632C544.522 47.0792 544.522 48.0953 544.522 49.1114C544.522 53.3451 539.846 56.7321 534.319 56.7321C459.708 56.7321 385.097 56.7321 310.699 56.7321C304.959 56.7321 300.283 53.3451 300.283 49.1114C300.283 48.0953 300.283 47.0792 300.283 46.0632C300.283 41.8295 304.959 38.4425 310.699 38.4425Z" fill="#F3D993"/>
<path fill-rule="evenodd" clip-rule="evenodd" d="M311.124 40.1357H533.682C539.421 40.1357 543.885 43.5227 543.885 47.587V48.9418C543.885 53.1755 539.421 56.5625 533.682 56.5625H311.124C305.598 56.5625 300.921 53.1755 300.921 48.9418V47.587C300.921 43.5227 305.598 40.1357 311.124 40.1357Z" fill="#F3DB95"/>
<path d="M85.8259 58.0244C82.4572 77.646 84.3521 91.222 94.2479 102.465C103.933 113.495 122.04 122.935 151.096 134.071C179.941 122.935 198.048 113.495 207.733 102.465C217.629 91.222 219.524 77.646 216.155 58.1305C193.627 55.7971 172.361 54.6304 151.096 54.6304C129.831 54.6304 108.355 55.6911 85.8259 58.0244ZM66.4555 108.616C53.4015 93.6614 51.5066 76.3732 56.7703 51.0243L58.0336 45.6151L68.3504 44.4484C96.985 40.9484 123.935 39.3574 151.096 39.3574C178.046 39.4635 204.996 41.1605 233.42 44.4484L244.158 45.6151L245.211 51.0243C250.475 76.3732 248.58 93.6614 235.526 108.616C222.261 123.571 198.469 135.45 159.939 149.769L151.096 153.056L142.042 149.769C103.512 135.45 79.7201 123.571 66.4555 108.616Z" fill="black" fill-opacity="0.101961"/>
<path d="M85.8259 51.6614C82.4572 71.283 84.3521 84.859 94.2479 96.1016C103.933 107.132 122.04 116.466 151.096 127.708C179.941 116.466 198.048 107.132 207.733 96.1016C217.629 84.859 219.524 71.283 216.155 51.6614C193.627 49.4341 172.361 48.2674 151.096 48.2674C129.831 48.1613 108.355 49.328 85.8259 51.6614ZM66.4555 102.253C53.4015 87.2984 51.5066 69.9041 56.7703 44.6613L58.0336 39.2521L68.3504 37.9793C96.985 34.5853 123.935 32.9944 151.096 32.9944C178.046 32.9944 204.996 34.6914 233.42 37.9793L244.158 39.2521L245.211 44.6613C250.475 69.9041 248.58 87.2984 235.526 102.253C222.261 117.208 198.469 128.981 159.939 143.299L151.096 146.693L142.042 143.299C103.512 128.981 79.7201 117.208 66.4555 102.253Z" fill="white"/>
<path fill-rule="evenodd" clip-rule="evenodd" d="M71.9269 42.9634C61.8206 90.7976 78.2434 107.662 151.093 134.708C223.943 107.662 240.155 90.7976 230.259 42.9634C175.096 36.5997 127.091 36.3875 71.9269 42.9634Z" fill="#E6E6E6"/>
<path fill-rule="evenodd" clip-rule="evenodd" d="M151.096 134.708C223.945 107.662 240.158 90.798 230.262 42.9638C202.68 39.782 176.783 38.191 151.096 38.085V134.708Z" fill="#CCCCCC"/>
<path fill-rule="evenodd" clip-rule="evenodd" d="M151.097 124.738C130.464 117.102 114.252 110.208 102.04 103.314C80.3533 91.0104 70.6681 78.2829 69.4048 60.1462C67.0887 95.359 87.7225 111.162 151.097 134.708C214.472 111.162 235.106 95.359 232.58 60.0402C231.316 78.2829 221.631 91.0104 199.945 103.314C187.733 110.208 171.731 117.102 151.097 124.738Z" fill="white"/>
<path fill-rule="evenodd" clip-rule="evenodd" d="M69.1951 65.8731C69.4056 97.1615 91.3026 112.541 151.098 134.708C210.894 112.541 232.581 97.1615 232.791 65.8731C232.791 64.4943 232.791 63.0094 232.581 61.5245C231.317 79.6612 221.632 92.3887 199.946 104.692C187.734 111.586 171.732 118.48 151.098 126.117C130.465 118.48 114.252 111.586 102.041 104.692C80.3541 92.3887 70.6689 79.6612 69.4056 61.5245C69.1951 63.0094 69.1951 64.4943 69.1951 65.8731Z" fill="#999999"/>
<path fill-rule="evenodd" clip-rule="evenodd" d="M148.572 37.2373L154.678 38.0858L151.098 77.8593L148.572 37.2373Z" fill="white"/>
<path fill-rule="evenodd" clip-rule="evenodd" d="M151.096 140.86L142.042 137.466C103.512 123.254 79.7199 111.375 66.4553 96.4201C58.4545 87.1927 54.6646 77.1167 54.033 64.8135C53.6119 79.8744 57.1912 91.6473 66.4553 102.254C79.7199 117.208 103.512 128.981 142.042 143.3L151.096 146.694L159.939 143.3C198.469 128.981 222.261 117.208 235.526 102.254C244.79 91.6473 248.58 79.8744 247.948 64.8135C247.527 77.1167 243.526 87.1927 235.526 96.4201C222.261 111.375 198.469 123.254 159.939 137.466L151.096 140.86Z" fill="#E6E6E6"/>
<path d="M322.178 58.5313L306.499 63.5072C304.672 64.1117 302.694 64.2977 300.867 64.1117C299.497 63.9722 298.203 63.6467 297.137 63.1816C296.072 62.7166 295.159 62.1121 294.55 61.3215C293.636 60.2984 293.18 59.0428 293.56 57.6477L296.452 47.0914L283.362 39.2787C281.992 38.4417 281.078 37.3721 280.698 36.3025C280.469 35.5584 280.545 34.7679 280.85 34.0238V33.9773C281.23 33.2333 281.839 32.5357 282.829 31.8847C284.123 31.0941 285.873 30.536 288.08 30.257L288.309 30.2105L306.118 28.5829L306.499 28.0248C309.315 23.6535 314.034 16.4454 322.102 16.4919C330.093 16.5849 334.812 23.5605 337.704 27.9783L338.161 28.5829L355.971 30.2105L356.199 30.257C358.406 30.536 360.157 31.0941 361.45 31.8847C362.44 32.4892 363.049 33.2333 363.429 34.0238C363.734 34.7679 363.81 35.5584 363.582 36.3025C363.201 37.3721 362.288 38.4417 360.918 39.2787L347.903 47.0914L350.719 57.6477C351.1 59.0428 350.719 60.2984 349.806 61.3215C349.121 62.1121 348.207 62.7166 347.142 63.1816C346.076 63.6467 344.782 63.9722 343.412 64.1117C341.586 64.2977 339.607 64.1117 337.78 63.5072L322.178 58.5313Z" fill="black" fill-opacity="0.101961"/>
<path d="M322.178 57.0898L306.499 62.0657C304.672 62.6703 302.694 62.8098 300.867 62.6703C299.497 62.5307 298.203 62.2052 297.137 61.7402C296.072 61.2751 295.159 60.6241 294.55 59.88C293.636 58.8569 293.18 57.5548 293.56 56.2062V56.1597L296.452 45.6034L283.362 37.7908C281.992 36.9537 281.078 35.9306 280.698 34.861C280.469 34.117 280.545 33.3264 280.85 32.5358C281.23 31.7918 281.839 31.0477 282.829 30.4432C284.123 29.6526 285.873 29.0481 288.08 28.8155L288.309 28.769L306.118 27.1414L306.499 26.5834C309.315 22.212 314.034 14.9574 322.102 15.0504C330.093 15.0969 334.812 22.119 337.704 26.4904L338.161 27.1414L355.971 28.769L356.199 28.8155C358.406 29.0481 360.157 29.6526 361.45 30.4432C362.44 31.0477 363.049 31.7918 363.429 32.5358C363.734 33.3264 363.81 34.0705 363.582 34.861C363.201 35.9306 362.288 36.9537 360.918 37.7908L347.903 45.6034L350.719 56.1597V56.2062C351.1 57.5548 350.719 58.8569 349.806 59.88C349.121 60.6241 348.207 61.2751 347.142 61.7402C346.076 62.2052 344.782 62.5307 343.412 62.6703C341.586 62.8098 339.607 62.6703 337.78 62.0657L322.178 57.0898Z" fill="white"/>
<path d="M322.176 53.6485L304.214 59.3685C301.169 60.345 297.897 58.9034 298.429 56.6713L301.778 44.5338L286.861 35.6051C284.73 34.3495 285.034 32.2568 289.068 31.7918L309.618 29.8851C311.52 27.5134 316.239 18.0267 322.1 18.0732C327.96 18.1197 332.603 27.3274 334.658 29.8851L355.284 31.7918C359.241 32.2568 359.622 34.3495 357.415 35.6051L342.573 44.5338L345.846 56.6713C346.379 58.9034 343.106 60.345 340.062 59.3685L322.176 53.6485Z" fill="#FFE00F"/>
<path fill-rule="evenodd" clip-rule="evenodd" d="M322.175 51.2772L304.213 56.9972C301.93 57.7412 299.494 57.0902 298.657 55.7881L298.429 56.6717C297.896 58.9038 301.169 60.3454 304.213 59.3689L322.175 53.6489L340.061 59.3689C343.105 60.3454 346.378 58.9038 345.845 56.6717L345.617 55.7881C344.78 57.0902 342.344 57.7412 340.061 56.9972L322.175 51.2772Z" fill="#DCB000"/>
<path fill-rule="evenodd" clip-rule="evenodd" d="M341.966 42.4883L342.575 44.5345L357.416 35.6058C358.862 34.7687 359.167 33.6061 358.101 32.7225C357.949 32.9085 357.721 33.0946 357.416 33.2341L341.966 42.4883Z" fill="#DCB000"/>
<path fill-rule="evenodd" clip-rule="evenodd" d="M302.313 42.4883L286.862 33.2341C286.558 33.0946 286.33 32.9085 286.177 32.7225C285.112 33.6061 285.416 34.7687 286.862 35.6058L301.78 44.5345L302.313 42.4883Z" fill="#DCB000"/>
<path fill-rule="evenodd" clip-rule="evenodd" d="M306.501 60.6708C304.674 61.2754 302.695 61.4614 300.869 61.2754C299.499 61.1359 298.205 60.8569 297.139 60.3918C296.074 59.9268 295.161 59.2757 294.552 58.5317C294.019 57.9271 293.638 57.2296 293.486 56.4855C293.258 57.7411 293.638 58.9037 294.552 59.8803C295.161 60.6243 296.074 61.2754 297.139 61.7404C298.205 62.2055 299.499 62.531 300.869 62.6705C302.695 62.81 304.674 62.6705 306.501 62.066L322.18 57.0901L337.782 62.066C339.609 62.6705 341.588 62.81 343.414 62.6705C344.784 62.531 346.078 62.2055 347.144 61.7404C348.209 61.2754 349.123 60.6243 349.808 59.8803C350.645 58.9037 351.025 57.7411 350.797 56.4855C350.645 57.2296 350.34 57.9271 349.808 58.5317C349.123 59.2757 348.209 59.9268 347.144 60.3453C346.078 60.8569 344.784 61.1359 343.414 61.2754C341.588 61.4614 339.609 61.2754 337.782 60.7174L322.18 55.7415L306.501 60.6708Z" fill="#E6E6E6"/>
<path fill-rule="evenodd" clip-rule="evenodd" d="M334.657 29.8851C332.602 27.3274 327.959 18.1197 322.099 18.0732C316.238 18.0267 311.519 27.5134 309.616 29.8851L289.067 31.7918C287.697 31.9313 286.707 32.3033 286.175 32.7218L286.86 33.2334L295.003 38.1163C302.386 35.9771 311.595 33.9309 321.718 32.3963C327.731 31.4662 333.515 30.7687 338.995 30.3036L334.657 29.8851Z" fill="#FFF71F"/>
<path fill-rule="evenodd" clip-rule="evenodd" d="M343.184 46.9514C338.769 47.928 333.898 48.8116 328.875 49.6021C318.219 51.2763 308.097 52.1598 299.649 52.3458L298.659 55.7871C299.496 57.0892 301.932 57.7403 304.215 56.9962L322.177 51.2763L340.063 56.9962C342.346 57.7403 344.782 57.0892 345.619 55.7871L343.184 46.9514Z" fill="#F7C600"/>
<ellipse cx="610.561" cy="40.0665" rx="40.5607" ry="24.2209" fill="#E6E6E6"/>
<ellipse cx="611.575" cy="40.6572" rx="41.5747" ry="24.8116" fill="black" fill-opacity="0.1"/>
<ellipse cx="611.575" cy="38.8851" rx="41.5747" ry="24.2209" fill="white"/>
<path d="M614.468 58.2707V56.7259C614.468 55.766 613.137 54.9904 611.489 54.9904C609.841 54.9904 608.51 55.766 608.51 56.7259V58.2707C598.933 57.7769 590.503 54.9256 584.944 50.7217C581.14 47.8453 578.681 44.3357 578.118 40.5148H580.687C582.332 40.5148 583.663 39.7376 583.663 38.7793C583.663 37.8193 582.332 37.0437 580.687 37.0437H578.134C579.6 27.6898 592.44 20.2253 608.51 19.3952V20.8326C608.51 21.7925 609.841 22.5682 611.489 22.5682C613.137 22.5682 614.468 21.7925 614.468 20.8326V19.3952C621.706 19.769 628.289 21.4888 633.472 24.1209C639.797 27.3327 644.038 31.9029 644.844 37.0437H642.294C640.646 37.0437 639.315 37.8193 639.315 38.7793C639.315 39.7376 640.646 40.5148 642.294 40.5148H644.86C643.477 49.92 630.598 57.439 614.468 58.2707ZM611.489 15.8456C589.695 15.8456 572.03 26.1354 572.03 38.8337C572.03 51.5305 589.695 61.8219 611.489 61.8219C633.283 61.8219 650.948 51.5305 650.948 38.8337C650.948 26.1354 633.283 15.8456 611.489 15.8456Z" fill="#DCB000"/>
<path d="M614.468 58.2707V56.7259C614.468 55.766 613.137 54.9904 611.489 54.9904C609.841 54.9904 608.51 55.766 608.51 56.7259V58.2707C598.933 57.7769 590.503 54.9256 584.944 50.7217C581.14 47.8453 578.681 44.3357 578.118 40.5148H580.687C582.332 40.5148 583.663 39.7376 583.663 38.7793C583.663 37.8193 582.332 37.0437 580.687 37.0437H578.134C579.6 27.6898 592.44 20.2253 608.51 19.3952V20.8326C608.51 21.7925 609.841 22.5682 611.489 22.5682C613.137 22.5682 614.468 21.7925 614.468 20.8326V19.3952C621.706 19.769 628.289 21.4888 633.472 24.1209C639.797 27.3327 644.038 31.9029 644.844 37.0437H642.294C640.646 37.0437 639.315 37.8193 639.315 38.7793C639.315 39.7376 640.646 40.5148 642.294 40.5148H644.86C643.477 49.92 630.598 57.439 614.468 58.2707Z" fill="#FFE00F"/>
<path d="M629.226 27.634L611.588 38.4029L611.487 38.3997C611.267 38.3997 611.052 38.4126 610.843 38.4366L596.077 31.9384C595.101 31.5105 593.701 31.6195 592.955 32.1948C592.213 32.7653 592.402 33.5842 593.393 34.0184L608.15 40.5151C608.293 41.515 609.732 42.3035 611.487 42.3035C613.338 42.3035 614.837 41.4285 614.837 40.3516C614.837 40.3003 614.832 40.249 614.823 40.1994L632.461 29.4304C633.311 28.908 633.28 28.0875 632.386 27.5907C631.495 27.0924 630.081 27.1164 629.226 27.634Z" fill="#DCB000"/>
</svg>
