<svg width="155" height="84" viewBox="0 0 155 84" fill="none" xmlns="http://www.w3.org/2000/svg">
<path fill-rule="evenodd" clip-rule="evenodd" d="M11.3665 8.33138C26.2057 5.2333 129.872 5.14957 144.295 8.33138C148.941 9.4199 151.992 13.1041 152.894 18.7141C155.737 36.3816 155.667 54.1328 152.894 71.8002C151.992 77.4102 149.01 81.5968 144.295 82.0992C129.872 83.7739 26.2057 83.6901 11.3665 82.0992C6.72056 81.5968 3.3228 77.4102 2.8374 71.8002C1.17319 54.1328 0.826484 36.3816 2.8374 18.7141C3.46148 13.1041 6.72056 9.33617 11.3665 8.33138Z" fill="black" fill-opacity="0.101961"/>
<path fill-rule="evenodd" clip-rule="evenodd" d="M9.91029 4.31234C24.7495 1.21426 128.416 1.13053 142.908 4.31234C147.485 5.40086 150.536 9.08506 151.437 14.6951C154.28 32.3625 154.211 50.1137 151.437 67.7811C150.536 73.3912 147.554 77.5778 142.908 78.0802C128.416 79.7548 24.7495 79.6711 9.91029 78.0802C5.26438 77.5778 1.93596 73.3912 1.38123 67.7811C-0.282983 50.1137 -0.629693 32.3625 1.38123 14.6951C2.0053 9.08506 5.33372 5.31712 9.91029 4.31234Z" fill="#E6E6E6"/>
<path fill-rule="evenodd" clip-rule="evenodd" d="M9.91029 2.38636C24.7495 -0.795454 128.416 -0.795454 142.908 2.38636C147.485 3.47488 150.536 7.15908 151.437 12.7691C154.28 30.4366 154.211 48.104 151.437 65.8552C150.536 71.3815 147.554 75.6518 142.908 76.1542C128.416 77.7451 24.7495 77.7451 9.91029 76.1542C5.26438 75.6518 1.93596 71.4652 1.38123 65.8552C-0.282983 48.104 -0.629693 30.4366 1.38123 12.7691C2.0053 7.15908 5.33372 3.39114 9.91029 2.38636Z" fill="white"/>
<path fill-rule="evenodd" clip-rule="evenodd" d="M13.2388 7.57781C26.4831 4.73092 128.624 4.64719 141.591 7.57781C145.751 8.49886 148.525 11.8481 149.288 16.7883C151.854 32.6974 151.784 48.5227 149.288 64.4318C148.525 69.4557 145.821 73.2237 141.591 73.726C128.624 75.1495 26.4831 75.1495 13.2388 73.726C9.00892 73.2237 6.02721 69.4557 5.54182 64.4318C4.08563 48.5227 3.73892 32.6974 5.54182 16.7883C6.09655 11.7644 9.07826 8.41513 13.2388 7.57781Z" fill="#E6E6E6"/>
<path fill-rule="evenodd" clip-rule="evenodd" d="M12.2679 6.15421C25.5122 3.30732 127.653 3.30732 140.62 6.15421C144.781 7.07526 147.554 10.4245 148.317 15.4485C150.883 31.2738 150.813 47.1829 148.317 63.0082C147.554 68.0321 144.85 71.8 140.62 72.3024C127.653 73.7259 25.5122 73.7259 12.2679 72.3024C8.03803 71.8838 5.05632 68.1158 4.57093 63.0082C3.11475 47.1829 2.76804 31.2738 4.57093 15.4485C5.12567 10.3408 8.10737 7.07526 12.2679 6.15421Z" fill="#CC191C"/>
<path fill-rule="evenodd" clip-rule="evenodd" d="M12.2679 2.97259C25.5122 0.1257 127.653 0.0419679 140.62 2.97259C144.781 3.89364 147.554 7.24291 148.317 12.1831C150.883 28.0922 150.813 43.9175 148.317 59.8266C147.554 64.8505 144.85 68.6184 140.62 69.1208C127.653 70.5443 25.5122 70.5443 12.2679 69.1208C8.03803 68.6184 5.05632 64.8505 4.57093 59.8266C3.11475 43.9175 2.76804 28.0922 4.57093 12.1831C5.12567 7.15918 8.10737 3.80991 12.2679 2.97259Z" fill="#FF6595"/>
<path fill-rule="evenodd" clip-rule="evenodd" d="M12.5453 3.39115C25.6509 0.54426 127.584 0.54426 140.412 3.39115C144.503 4.3122 147.208 7.57774 147.97 12.5179C150.467 28.1758 150.467 43.8337 147.97 59.4915C147.208 64.4317 144.573 68.1997 140.412 68.6183C127.584 70.0418 25.6509 70.0418 12.5453 68.6183C8.38474 68.1997 5.40304 64.5155 4.91764 59.4915C3.46146 43.8337 3.18409 28.1758 4.91764 12.5179C5.47238 7.49401 8.38474 4.22847 12.5453 3.39115Z" fill="#FD628E"/>
<path fill-rule="evenodd" clip-rule="evenodd" d="M12.7532 3.80994C25.7202 1.04678 127.514 0.963051 140.135 3.80994C144.156 4.73099 146.861 7.99654 147.623 12.853C150.12 28.2597 150.05 43.7501 147.623 59.1568C146.861 64.0132 144.226 67.7812 140.135 68.1998C127.514 69.6233 25.7202 69.5395 12.7532 68.1998C8.66201 67.7812 5.74965 64.0969 5.3336 59.1568C3.87741 43.7501 3.60004 28.2597 5.3336 12.853C5.88833 7.9128 8.73136 4.64726 12.7532 3.80994Z" fill="#FA5E87"/>
<path fill-rule="evenodd" clip-rule="evenodd" d="M13.0307 4.22849C25.7896 1.46534 127.376 1.46534 139.857 4.22849C143.879 5.14954 146.514 8.33136 147.277 13.1041C149.704 28.3433 149.634 43.5825 147.277 58.8217C146.514 63.6782 143.948 67.2786 139.857 67.781C127.376 69.1207 25.7896 69.1207 13.0307 67.781C9.00882 67.2786 6.09645 63.6782 5.6804 58.8217C4.22421 43.5825 3.94685 28.3433 5.6804 13.1041C6.23513 8.24763 9.07816 5.06581 13.0307 4.22849Z" fill="#F85B80"/>
<path fill-rule="evenodd" clip-rule="evenodd" d="M13.308 4.6469C25.9283 1.96747 127.306 1.96747 139.649 4.6469C143.532 5.56795 146.167 8.66603 146.93 13.4387C149.288 28.5105 149.288 43.4985 146.93 58.4865C146.167 63.2593 143.602 66.8597 139.649 67.2784C127.306 68.7018 25.9283 68.6181 13.308 67.2784C9.35553 66.8597 6.51251 63.343 6.02711 58.4865C4.64027 43.4985 4.3629 28.5105 6.02711 13.4387C6.58185 8.66603 9.35553 5.48422 13.308 4.6469Z" fill="#F65879"/>
<path fill-rule="evenodd" clip-rule="evenodd" d="M13.5854 5.06569C25.9976 2.47 127.237 2.38627 139.372 5.06569C143.255 5.98674 145.821 9.08483 146.514 13.7738C148.941 28.5944 148.872 43.4149 146.514 58.2355C145.821 62.8407 143.324 66.4412 139.372 66.8598C127.237 68.1996 25.9976 68.1996 13.5854 66.8598C9.63291 66.4412 6.85923 62.9244 6.37384 58.2355C5.05634 43.4149 4.77897 28.5944 6.37384 13.7738C6.92857 9.00109 9.70226 5.90301 13.5854 5.06569Z" fill="#F35572"/>
<path fill-rule="evenodd" clip-rule="evenodd" d="M13.8629 5.48449C26.0671 2.8888 127.168 2.8888 139.095 5.48449C142.908 6.40554 145.474 9.41989 146.167 14.0251C148.525 28.6782 148.456 43.2476 146.167 57.9007C145.474 62.5059 142.978 66.0227 139.095 66.4413C127.168 67.7811 26.0671 67.6973 13.8629 66.4413C9.97972 66.0227 7.20604 62.5059 6.78999 57.9007C5.40315 43.2476 5.12578 28.6782 6.78999 14.0251C7.27539 9.41989 10.0491 6.32181 13.8629 5.48449Z" fill="#F1516C"/>
<path fill-rule="evenodd" clip-rule="evenodd" d="M14.1401 5.98671C26.1363 3.39102 127.098 3.30729 138.886 5.98671C142.631 6.82403 145.127 9.83838 145.821 14.3599C148.109 28.7618 148.109 43.1637 145.821 57.5656C145.127 62.0871 142.7 65.5201 138.886 65.9388C127.098 67.2785 26.1363 67.2785 14.1401 65.9388C10.3263 65.6039 7.55265 62.1708 7.13659 57.5656C5.8191 43.1637 5.54173 28.7618 7.13659 14.3599C7.69133 9.75465 10.3263 6.7403 14.1401 5.98671Z" fill="#EE4E65"/>
<path fill-rule="evenodd" clip-rule="evenodd" d="M14.3481 6.40563C26.275 3.80994 126.96 3.80994 138.609 6.40563C142.284 7.24295 144.781 10.1736 145.474 14.6951C147.762 28.8458 147.693 43.0802 145.474 57.2309C144.781 61.7524 142.354 65.1017 138.609 65.5204C126.96 66.7764 26.275 66.7764 14.3481 65.5204C10.6037 65.1017 7.89933 61.7524 7.48327 57.2309C6.16578 43.0802 5.88841 28.8458 7.48327 14.6951C8.03801 10.1736 10.673 7.15922 14.3481 6.40563Z" fill="#EC4B5E"/>
<path fill-rule="evenodd" clip-rule="evenodd" d="M14.6256 6.82415C26.3444 4.3122 126.89 4.3122 138.332 6.82415C142.007 7.66147 144.434 10.5921 145.127 14.9462C147.346 28.9294 147.346 42.9126 145.127 56.8959C144.434 61.3337 142.076 64.6829 138.332 65.1016C126.89 66.3576 26.3444 66.3576 14.6256 65.1016C10.9505 64.6829 8.31546 61.4174 7.89941 56.8959C6.58191 42.9126 6.30455 28.9294 7.89941 14.9462C8.38481 10.5084 10.9505 7.57774 14.6256 6.82415Z" fill="#EA4857"/>
<path fill-rule="evenodd" clip-rule="evenodd" d="M14.9028 7.24284C26.4136 4.81461 126.821 4.73088 138.054 7.24284C141.66 8.08016 144.087 10.927 144.78 15.2811C146.93 29.0969 146.93 42.8289 144.78 56.5609C144.087 60.915 141.729 64.2643 138.054 64.5992C126.821 65.8552 26.4136 65.8552 14.9028 64.5992C11.2277 64.2643 8.66202 60.9987 8.24596 56.5609C6.92846 42.8289 6.72044 29.0969 8.24596 15.2811C8.73136 10.927 11.297 7.99643 14.9028 7.24284Z" fill="#E74450"/>
<path fill-rule="evenodd" clip-rule="evenodd" d="M15.1803 7.66138C26.5524 5.23315 126.752 5.23315 137.846 7.66138C141.383 8.4987 143.74 11.3456 144.365 15.6159C146.583 29.1805 146.514 42.7451 144.365 56.3096C143.74 60.58 141.452 63.7618 137.846 64.1804C126.752 65.4364 26.5524 65.4364 15.1803 64.1804C11.5745 63.8455 9.00882 60.58 8.59277 56.3096C7.34461 42.7451 7.06724 29.1805 8.59277 15.6159C9.07816 11.2619 11.6438 8.41497 15.1803 7.66138Z" fill="#E54149"/>
<path fill-rule="evenodd" clip-rule="evenodd" d="M12.268 2.97259C25.5123 0.1257 127.653 0.0419681 140.62 2.97259C144.781 3.89364 147.554 7.24291 148.317 12.1831C149.496 19.384 150.12 26.585 150.189 33.7859C125.573 21.5611 19.965 54.0491 3.32288 33.6185C3.39222 26.5013 3.73893 19.384 4.57103 12.1831C5.12577 7.15918 8.10748 3.8099 12.268 2.97259Z" fill="white" fill-opacity="0.290196"/>
<path fill-rule="evenodd" clip-rule="evenodd" d="M12.9613 6.07056C16.8444 6.07056 20.0342 9.8385 20.0342 14.6112C20.0342 19.3002 16.8444 23.0681 12.9613 23.0681C9.07815 23.0681 5.88843 19.3002 5.88843 14.6112C5.88843 9.8385 9.07815 6.07056 12.9613 6.07056Z" fill="white"/>
<path fill-rule="evenodd" clip-rule="evenodd" d="M23.7093 3.89368C25.6509 3.89368 27.2458 5.73578 27.2458 8.08027C27.2458 10.4248 25.6509 12.3506 23.7093 12.3506C21.8371 12.3506 20.2422 10.4248 20.2422 8.08027C20.2422 5.73578 21.8371 3.89368 23.7093 3.89368Z" fill="white"/>
<path fill-rule="evenodd" clip-rule="evenodd" d="M141.799 56.8121C144.156 56.8121 146.098 59.0729 146.098 61.9198C146.098 64.7667 144.156 67.1112 141.799 67.1112C139.511 67.1112 137.569 64.7667 137.569 61.9198C137.569 59.0729 139.511 56.8121 141.799 56.8121Z" fill="white"/>
</svg>
