<svg width="23" height="11" viewBox="0 0 23 11" fill="none" xmlns="http://www.w3.org/2000/svg">
<path fill-rule="evenodd" clip-rule="evenodd" d="M1.64042 1.73982C3.7804 1.36982 18.7303 1.35982 20.8102 1.73982C21.4802 1.86982 21.9202 2.30981 22.0502 2.97981C22.4602 5.08979 22.4502 7.20977 22.0502 9.31975C21.9202 9.98974 21.4902 10.4897 20.8102 10.5497C18.7303 10.7497 3.7804 10.7397 1.64042 10.5497C0.970426 10.4897 0.480431 9.98974 0.410431 9.31975C0.170433 7.20977 0.120434 5.08979 0.410431 2.97981C0.50043 2.30981 0.970426 1.85982 1.64042 1.73982Z" fill="black" fill-opacity="0.101961"/>
<path fill-rule="evenodd" clip-rule="evenodd" d="M1.4304 1.25984C3.57038 0.88984 18.5202 0.87984 20.6102 1.25984C21.2702 1.38984 21.7102 1.82983 21.8402 2.49983C22.2502 4.60981 22.2402 6.72979 21.8402 8.83977C21.7102 9.50976 21.2802 10.0098 20.6102 10.0698C18.5202 10.2698 3.57038 10.2598 1.4304 10.0698C0.760404 10.0098 0.280409 9.50976 0.200409 8.83977C-0.0395887 6.72979 -0.0895882 4.60981 0.200409 2.49983C0.290408 1.82983 0.770404 1.37984 1.4304 1.25984Z" fill="#E6E6E6"/>
<path fill-rule="evenodd" clip-rule="evenodd" d="M1.4304 1.02981C3.57038 0.649813 18.5202 0.649813 20.6102 1.02981C21.2702 1.15981 21.7102 1.5998 21.8402 2.2698C22.2502 4.37978 22.2402 6.48976 21.8402 8.60974C21.7102 9.27974 21.2802 9.77973 20.6102 9.83973C18.5202 10.0297 3.57038 10.0297 1.4304 9.83973C0.760404 9.77973 0.280409 9.27974 0.200409 8.60974C-0.0395887 6.48976 -0.0895882 4.37978 0.200409 2.2698C0.290408 1.5998 0.770404 1.14981 1.4304 1.02981Z" fill="white"/>
<path fill-rule="evenodd" clip-rule="evenodd" d="M1.91039 1.64981C3.82037 1.30982 18.5502 1.29982 20.4202 1.64981C21.0202 1.75981 21.4202 2.15981 21.5302 2.7498C21.9002 4.64979 21.8902 6.53977 21.5302 8.43975C21.4202 9.03975 21.0302 9.48974 20.4202 9.54974C18.5502 9.71974 3.82037 9.71974 1.91039 9.54974C1.3004 9.48974 0.870401 9.03975 0.800402 8.43975C0.590403 6.53977 0.540404 4.64979 0.800402 2.7498C0.880401 2.14981 1.3104 1.74981 1.91039 1.64981Z" fill="#E6E6E6"/>
<path fill-rule="evenodd" clip-rule="evenodd" d="M1.77038 1.47979C3.68036 1.13979 18.4102 1.13979 20.2802 1.47979C20.8802 1.58979 21.2802 1.98979 21.3902 2.58978C21.7602 4.47976 21.7502 6.37975 21.3902 8.26973C21.2802 8.86972 20.8902 9.31972 20.2802 9.37972C18.4102 9.54972 3.68036 9.54972 1.77038 9.37972C1.16038 9.32972 0.730386 8.87972 0.660387 8.26973C0.450389 6.37975 0.400389 4.47976 0.660387 2.58978C0.740386 1.97979 1.17038 1.58979 1.77038 1.47979Z" fill="#CC191C"/>
<path fill-rule="evenodd" clip-rule="evenodd" d="M1.77038 1.09983C3.68036 0.759829 18.4102 0.749829 20.2802 1.09983C20.8802 1.20982 21.2802 1.60982 21.3902 2.19982C21.7602 4.0998 21.7502 5.98978 21.3902 7.88977C21.2802 8.48976 20.8902 8.93976 20.2802 8.99976C18.4102 9.16975 3.68036 9.16975 1.77038 8.99976C1.16038 8.93976 0.730386 8.48976 0.660387 7.88977C0.450389 5.98978 0.400389 4.0998 0.660387 2.19982C0.740386 1.59982 1.17038 1.19982 1.77038 1.09983Z" fill="#FF6595"/>
<path fill-rule="evenodd" clip-rule="evenodd" d="M1.81041 1.14983C3.70039 0.809837 18.4003 0.809837 20.2502 1.14983C20.8402 1.25983 21.2302 1.64983 21.3402 2.23982C21.7002 4.10981 21.7002 5.97979 21.3402 7.84977C21.2302 8.43977 20.8502 8.88977 20.2502 8.93976C18.4003 9.10976 3.70039 9.10976 1.81041 8.93976C1.21042 8.88977 0.78042 8.44977 0.710421 7.84977C0.500423 5.97979 0.460423 4.10981 0.710421 2.23982C0.79042 1.63983 1.21042 1.24983 1.81041 1.14983Z" fill="#FD628E"/>
<path fill-rule="evenodd" clip-rule="evenodd" d="M1.84041 1.19981C3.71039 0.869812 18.3903 0.859812 20.2102 1.19981C20.7902 1.30981 21.1802 1.6998 21.2902 2.2798C21.6502 4.11978 21.6402 5.96977 21.2902 7.80975C21.1802 8.38975 20.8002 8.83974 20.2102 8.88974C18.3903 9.05974 3.71039 9.04974 1.84041 8.88974C1.25041 8.83974 0.830418 8.39975 0.770419 7.80975C0.56042 5.96977 0.520421 4.11978 0.770419 2.2798C0.850418 1.6898 1.26041 1.29981 1.84041 1.19981Z" fill="#FA5E87"/>
<path fill-rule="evenodd" clip-rule="evenodd" d="M1.8804 1.24982C3.72038 0.91982 18.3703 0.91982 20.1702 1.24982C20.7502 1.35982 21.1302 1.73981 21.2402 2.30981C21.5902 4.12979 21.5802 5.94978 21.2402 7.76976C21.1302 8.34975 20.7602 8.77975 20.1702 8.83975C18.3703 8.99975 3.72038 8.99975 1.8804 8.83975C1.3004 8.77975 0.880406 8.34975 0.820406 7.76976C0.610408 5.94978 0.570409 4.12979 0.820406 2.30981C0.900406 1.72981 1.3104 1.34982 1.8804 1.24982Z" fill="#F85B80"/>
<path fill-rule="evenodd" clip-rule="evenodd" d="M1.92041 1.29981C3.74039 0.979815 18.3603 0.979815 20.1402 1.29981C20.7002 1.40981 21.0802 1.77981 21.1902 2.3498C21.5302 4.14979 21.5302 5.93977 21.1902 7.72976C21.0802 8.29975 20.7102 8.72975 20.1402 8.77975C18.3603 8.94974 3.74039 8.93974 1.92041 8.77975C1.35041 8.72975 0.940416 8.30975 0.870416 7.72976C0.670418 5.93977 0.630418 4.14979 0.870416 2.3498C0.950415 1.77981 1.35041 1.39981 1.92041 1.29981Z" fill="#F65879"/>
<path fill-rule="evenodd" clip-rule="evenodd" d="M1.96042 1.34985C3.7504 1.03985 18.3503 1.02985 20.1003 1.34985C20.6603 1.45985 21.0302 1.82984 21.1302 2.38984C21.4802 4.15982 21.4702 5.92981 21.1302 7.69979C21.0302 8.24979 20.6703 8.67978 20.1003 8.72978C18.3503 8.88978 3.7504 8.88978 1.96042 8.72978C1.39042 8.67978 0.990427 8.25979 0.920427 7.69979C0.730429 5.92981 0.690429 4.15982 0.920427 2.38984C1.00043 1.81985 1.40042 1.44985 1.96042 1.34985Z" fill="#F35572"/>
<path fill-rule="evenodd" clip-rule="evenodd" d="M2.00039 1.39986C3.76038 1.08986 18.3402 1.08986 20.0602 1.39986C20.6102 1.50986 20.9802 1.86985 21.0802 2.41985C21.4202 4.16983 21.4102 5.90982 21.0802 7.6598C20.9802 8.2098 20.6202 8.62979 20.0602 8.67979C18.3402 8.83979 3.76038 8.82979 2.00039 8.67979C1.4404 8.62979 1.0404 8.2098 0.980402 7.6598C0.780403 5.90982 0.740404 4.16983 0.980402 2.41985C1.0504 1.86985 1.4504 1.49986 2.00039 1.39986Z" fill="#F1516C"/>
<path fill-rule="evenodd" clip-rule="evenodd" d="M2.0404 1.45983C3.77039 1.14984 18.3303 1.13984 20.0302 1.45983C20.5702 1.55983 20.9302 1.91983 21.0302 2.45983C21.3602 4.17981 21.3602 5.8998 21.0302 7.61978C20.9302 8.15977 20.5802 8.56977 20.0302 8.61977C18.3303 8.77977 3.77039 8.77977 2.0404 8.61977C1.49041 8.57977 1.09041 8.16978 1.03041 7.61978C0.840414 5.8998 0.800415 4.17981 1.03041 2.45983C1.11041 1.90983 1.49041 1.54983 2.0404 1.45983Z" fill="#EE4E65"/>
<path fill-rule="evenodd" clip-rule="evenodd" d="M2.07039 1.50984C3.79038 1.19984 18.3102 1.19984 19.9902 1.50984C20.5202 1.60984 20.8802 1.95984 20.9802 2.49983C21.3102 4.18982 21.3002 5.8898 20.9802 7.57979C20.8802 8.11978 20.5302 8.51978 19.9902 8.56978C18.3102 8.71978 3.79038 8.71978 2.07039 8.56978C1.5304 8.51978 1.1404 8.11978 1.0804 7.57979C0.890402 5.8898 0.850403 4.18982 1.0804 2.49983C1.1604 1.95984 1.5404 1.59984 2.07039 1.50984Z" fill="#EC4B5E"/>
<path fill-rule="evenodd" clip-rule="evenodd" d="M2.11039 1.55984C3.80037 1.25984 18.3002 1.25984 19.9502 1.55984C20.4802 1.65984 20.8302 2.00983 20.9302 2.52983C21.2502 4.19981 21.2502 5.8698 20.9302 7.53978C20.8302 8.06978 20.4902 8.46978 19.9502 8.51977C18.3002 8.66977 3.80037 8.66977 2.11039 8.51977C1.58039 8.46978 1.2004 8.07978 1.1404 7.53978C0.9504 5.8698 0.9104 4.19981 1.1404 2.52983C1.2104 1.99983 1.58039 1.64984 2.11039 1.55984Z" fill="#EA4857"/>
<path fill-rule="evenodd" clip-rule="evenodd" d="M2.15038 1.60981C3.81037 1.31982 18.2902 1.30982 19.9102 1.60981C20.4302 1.70981 20.7802 2.04981 20.8802 2.56981C21.1902 4.21979 21.1902 5.85978 20.8802 7.49976C20.7802 8.01976 20.4402 8.41975 19.9102 8.45975C18.2902 8.60975 3.81037 8.60975 2.15038 8.45975C1.62039 8.41975 1.25039 8.02976 1.19039 7.49976C1.00039 5.85978 0.970394 4.21979 1.19039 2.56981C1.26039 2.04981 1.63039 1.69981 2.15038 1.60981Z" fill="#E74450"/>
<path fill-rule="evenodd" clip-rule="evenodd" d="M2.19039 1.65982C3.83038 1.36982 18.2802 1.36982 19.8802 1.65982C20.3902 1.75982 20.7302 2.09982 20.8202 2.60981C21.1402 4.2298 21.1302 5.84978 20.8202 7.46977C20.7302 7.97976 20.4002 8.35976 19.8802 8.40976C18.2802 8.55976 3.83038 8.55976 2.19039 8.40976C1.67039 8.36976 1.3004 7.97976 1.2404 7.46977C1.0604 5.84978 1.0204 4.2298 1.2404 2.60981C1.3104 2.08982 1.68039 1.74982 2.19039 1.65982Z" fill="#E54149"/>
<path fill-rule="evenodd" clip-rule="evenodd" d="M1.7704 1.09983C3.68038 0.759829 18.4102 0.749829 20.2802 1.09983C20.8802 1.20982 21.2802 1.60982 21.3902 2.19982C21.5602 3.05981 21.6502 3.9198 21.6602 4.77979C18.1103 3.31981 2.88039 7.19977 0.480408 4.75979C0.490408 3.9098 0.540407 3.05981 0.660406 2.19982C0.740405 1.59982 1.1704 1.19982 1.7704 1.09983Z" fill="white" fill-opacity="0.290196"/>
<path fill-rule="evenodd" clip-rule="evenodd" d="M1.87039 1.46979C2.43039 1.46979 2.89038 1.91978 2.89038 2.48978C2.89038 3.04977 2.43039 3.49977 1.87039 3.49977C1.3104 3.49977 0.850403 3.04977 0.850403 2.48978C0.850403 1.91978 1.3104 1.46979 1.87039 1.46979Z" fill="white"/>
<path fill-rule="evenodd" clip-rule="evenodd" d="M3.42041 1.20984C3.7004 1.20984 3.9304 1.42984 3.9304 1.70983C3.9304 1.98983 3.7004 2.21983 3.42041 2.21983C3.15041 2.21983 2.92041 1.98983 2.92041 1.70983C2.92041 1.42984 3.15041 1.20984 3.42041 1.20984Z" fill="white"/>
<path fill-rule="evenodd" clip-rule="evenodd" d="M20.4502 7.52972C20.7902 7.52972 21.0702 7.79972 21.0702 8.13972C21.0702 8.47972 20.7902 8.75971 20.4502 8.75971C20.1202 8.75971 19.8402 8.47972 19.8402 8.13972C19.8402 7.79972 20.1202 7.52972 20.4502 7.52972Z" fill="white"/>
</svg>
