<svg width="48" height="26" fill="none" xmlns="http://www.w3.org/2000/svg"><path fill-rule="evenodd" clip-rule="evenodd" d="M4.387 2.6c4.452-.98 35.776-.98 40.15 0 1.414.317 2.331 1.425 2.593 3.134.864 5.35.838 10.7 0 16.049-.262 1.677-1.179 2.943-2.593 3.102-4.374.506-35.698.506-40.15 0-1.44-.127-2.436-1.393-2.593-3.102-.498-5.35-.603-10.7 0-16.049.183-1.709 1.178-2.848 2.593-3.133Z" fill="#000" fill-opacity=".102"/><path fill-rule="evenodd" clip-rule="evenodd" d="M3.941 1.366c4.479-.95 35.777-.95 40.177 0 1.388.317 2.305 1.456 2.567 3.134.864 5.35.838 10.698 0 16.048-.262 1.71-1.153 2.975-2.567 3.134-4.4.474-35.698.474-40.177 0-1.414-.159-2.435-1.425-2.593-3.134-.497-5.35-.602-10.699 0-16.048.184-1.71 1.18-2.817 2.593-3.134Z" fill="#E6E6E6"/><path fill-rule="evenodd" clip-rule="evenodd" d="M3.941.796c4.479-.98 35.777-.98 40.177 0 1.388.317 2.305 1.425 2.567 3.134.864 5.35.838 10.699 0 16.048-.262 1.678-1.153 2.976-2.567 3.134-4.4.475-35.698.475-40.177 0-1.414-.158-2.435-1.424-2.593-3.134C.851 14.63.746 9.28 1.348 3.93c.184-1.71 1.18-2.849 2.593-3.134Z" fill="#fff"/><path fill-rule="evenodd" clip-rule="evenodd" d="M4.937 2.347c4.007-.854 34.86-.886 38.788 0 1.257.285 2.07 1.298 2.331 2.786.76 4.811.733 9.622 0 14.402-.262 1.52-1.074 2.659-2.33 2.817-3.93.443-34.782.412-38.79 0-1.283-.127-2.173-1.266-2.33-2.817-.446-4.78-.524-9.591 0-14.402.183-1.52 1.074-2.533 2.33-2.786Z" fill="#E6E6E6"/><path fill-rule="evenodd" clip-rule="evenodd" d="M4.649 1.936c4.007-.886 34.86-.886 38.788 0 1.257.253 2.07 1.266 2.305 2.786.786 4.811.76 9.59 0 14.402-.236 1.52-1.048 2.659-2.305 2.817-3.929.412-34.781.412-38.788 0-1.284-.158-2.2-1.298-2.331-2.817-.446-4.811-.55-9.591 0-14.402.157-1.52 1.073-2.533 2.33-2.786Z" fill="#00B0DC"/><path fill-rule="evenodd" clip-rule="evenodd" d="M4.649.955C8.656.1 39.509.068 43.437.955c1.257.285 2.07 1.297 2.305 2.785.786 4.811.76 9.623 0 14.402-.236 1.52-1.048 2.66-2.305 2.818-3.929.443-34.781.411-38.788 0-1.284-.159-2.2-1.267-2.331-2.818-.446-4.78-.55-9.59 0-14.402.157-1.52 1.073-2.532 2.33-2.785Z" fill="#9FF"/><path fill-rule="evenodd" clip-rule="evenodd" d="M4.727 1.081c3.955-.854 34.755-.854 38.631 0 1.231.285 2.043 1.267 2.279 2.754.76 4.748.76 9.496 0 14.213-.236 1.487-1.022 2.627-2.279 2.753-3.876.444-34.676.444-38.631 0-1.257-.126-2.148-1.234-2.305-2.753-.445-4.748-.524-9.465 0-14.213.183-1.487 1.048-2.5 2.305-2.754Z" fill="#8BFAFF"/><path fill-rule="evenodd" clip-rule="evenodd" d="M4.806 1.208c3.902-.823 34.65-.854 38.474 0 1.23.285 2.016 1.266 2.252 2.722.76 4.685.734 9.338 0 14.023-.236 1.488-1.021 2.595-2.252 2.722-3.824.443-34.572.412-38.474 0-1.258-.127-2.122-1.235-2.279-2.722-.419-4.685-.524-9.338 0-14.023.183-1.487 1.048-2.469 2.279-2.722Z" fill="#7DF6FF"/><path fill-rule="evenodd" clip-rule="evenodd" d="M4.884 1.335c3.85-.823 34.546-.823 38.317 0 1.205.284 1.99 1.234 2.226 2.69a43.757 43.757 0 0 1 0 13.833c-.235 1.456-.995 2.563-2.226 2.69-3.771.412-34.467.412-38.317 0-1.23-.127-2.095-1.234-2.226-2.69-.445-4.622-.524-9.212 0-13.833.157-1.456 1.021-2.437 2.226-2.69Z" fill="#6FF1FF"/><path fill-rule="evenodd" clip-rule="evenodd" d="M4.962 1.461c3.798-.79 34.441-.823 38.16 0 1.179.285 1.965 1.235 2.2 2.66.734 4.557.707 9.084 0 13.642-.236 1.424-.995 2.532-2.2 2.659-3.719.411-34.362.411-38.16 0-1.204-.127-2.069-1.203-2.2-2.66-.419-4.557-.523-9.084 0-13.642.158-1.456.996-2.405 2.2-2.659Z" fill="#61ECFF"/><path fill-rule="evenodd" clip-rule="evenodd" d="M5.041 1.588c3.745-.792 34.336-.792 38.003 0 1.178.285 1.938 1.202 2.174 2.627a42.921 42.921 0 0 1 0 13.453c-.236 1.392-.996 2.469-2.174 2.595-3.667.412-34.258.412-38.003 0-1.178-.127-2.043-1.171-2.174-2.596-.419-4.494-.497-8.957 0-13.452.157-1.425.996-2.374 2.174-2.627Z" fill="#53E8FF"/><path fill-rule="evenodd" clip-rule="evenodd" d="M5.12 1.715c3.693-.792 34.231-.792 37.846 0 1.152.284 1.911 1.202 2.147 2.595.707 4.432.681 8.832 0 13.263-.236 1.393-.969 2.437-2.148 2.564-3.614.411-34.152.411-37.845 0-1.179-.127-2.017-1.171-2.148-2.564-.393-4.431-.497-8.831 0-13.263.157-1.393.996-2.342 2.148-2.595Z" fill="#46E3FF"/><path fill-rule="evenodd" clip-rule="evenodd" d="M5.198 1.873c3.64-.792 34.127-.792 37.689 0 1.152.253 1.886 1.171 2.095 2.532a40.547 40.547 0 0 1 0 13.073c-.21 1.361-.943 2.405-2.095 2.532-3.562.38-34.048.38-37.689 0-1.152-.127-1.964-1.14-2.095-2.532-.419-4.368-.497-8.705 0-13.073.131-1.393.943-2.31 2.095-2.532Z" fill="#38DFFF"/><path fill-rule="evenodd" clip-rule="evenodd" d="M5.277 2c3.588-.792 34.021-.792 37.53 0 1.127.252 1.86 1.139 2.07 2.5.707 4.273.681 8.578 0 12.883-.21 1.33-.943 2.374-2.07 2.5-3.509.38-33.942.38-37.53 0-1.127-.126-1.938-1.14-2.07-2.5-.392-4.305-.497-8.61 0-12.883.158-1.361.944-2.28 2.07-2.5Z" fill="#2ADAFF"/><path fill-rule="evenodd" clip-rule="evenodd" d="M5.355 2.126c3.536-.76 33.917-.76 37.375 0 1.1.253 1.833 1.14 2.042 2.469a39.49 39.49 0 0 1 0 12.661c-.21 1.361-.916 2.374-2.042 2.47-3.458.41-33.839.379-37.375 0-1.126-.096-1.911-1.109-2.042-2.47-.393-4.21-.472-8.451 0-12.661.157-1.361.942-2.248 2.042-2.47Z" fill="#1CD5FF"/><path fill-rule="evenodd" clip-rule="evenodd" d="M5.434 2.252c3.484-.76 33.812-.76 37.217 0 1.1.254 1.807 1.108 2.017 2.438a39.834 39.834 0 0 1 0 12.471c-.21 1.33-.917 2.31-2.017 2.437-3.405.38-33.733.38-37.217 0-1.1-.095-1.885-1.107-2.016-2.437-.393-4.147-.472-8.325 0-12.471.157-1.33.942-2.216 2.016-2.438Z" fill="#0ED1FF"/><path fill-rule="evenodd" clip-rule="evenodd" d="M5.513 2.379c3.43-.728 33.707-.728 37.06 0 1.074.253 1.78 1.108 1.99 2.406a38.644 38.644 0 0 1 0 12.281c-.21 1.298-.89 2.28-1.99 2.406-3.353.38-33.63.38-37.06 0-1.074-.127-1.86-1.076-1.99-2.406-.367-4.083-.446-8.198 0-12.281.157-1.298.916-2.184 1.99-2.406Z" fill="#0CF"/><path fill-rule="evenodd" clip-rule="evenodd" d="M4.648.955C8.656.1 39.508.068 43.437.955c1.257.285 2.069 1.297 2.305 2.785.366 2.184.55 4.368.576 6.52C38.88 6.59 6.953 16.402 1.95 10.23c0-2.153.13-4.306.366-6.49.157-1.52 1.074-2.532 2.331-2.785Z" fill="#fff" fill-opacity=".29"/><path fill-rule="evenodd" clip-rule="evenodd" d="M4.858 1.904c1.179 0 2.122 1.14 2.122 2.564 0 1.425-.943 2.564-2.122 2.564-1.178 0-2.148-1.14-2.148-2.564 0-1.424.97-2.564 2.148-2.564ZM8.106 1.24c.576 0 1.047.57 1.047 1.266 0 .728-.471 1.298-1.047 1.298s-1.048-.57-1.048-1.298c0-.696.472-1.266 1.048-1.266ZM43.778 17.225c.707 0 1.283.696 1.283 1.55 0 .887-.576 1.583-1.283 1.583-.708 0-1.284-.696-1.284-1.582 0-.855.576-1.551 1.284-1.551Z" fill="#fff"/><path d="M6.351 15.294c0-3.134-.052-5.634-.21-7.534l1.808-.158-.079.697c.89-.665 1.781-.982 2.698-.95l.183 1.867c-1.047 0-1.807.285-2.226.792-.288.38-.445 1.298-.445 2.817 0 .665.026 1.488.104 2.406l-1.833.063Zm6.286-3.387c.183.791.602 1.171 1.23 1.235.577.031.97-.349 1.18-1.108l1.78-.317c-.445 2.247-1.362 3.387-2.723 3.387-.42 0-.89-.095-1.415-.348-.943-.665-1.414-1.931-1.414-3.799v-.538c.105-2.184.969-3.45 2.619-3.798 1.572-.032 2.488 1.298 2.724 3.957l-3.981 1.329Zm.471-2.754c-.235.317-.34.728-.366 1.203l2.383-.823c-.262-.601-.602-.886-1.021-.886-.42 0-.734.158-.996.506Zm3.562 5.444.734-2.057c.969.76 1.728 1.14 2.252 1.14a.822.822 0 0 0 .55-.222.64.64 0 0 0 .288-.538c0-.317-.367-.601-1.074-.823-1.047-.317-1.728-.981-2.095-1.994a2.376 2.376 0 0 1-.183-.887c0-.601.262-1.14.76-1.582.444-.38 1.073-.57 1.937-.57.603 0 1.31.095 2.122.285l-.55 1.994c-.629-.348-1.126-.506-1.493-.506-.21 0-.393.031-.55.126-.21.127-.314.285-.314.507 0 .19.157.38.419.601.183.127.55.317 1.1.601.471.222.812.412.995.634.314.316.471.76.497 1.266.027.886-.314 1.677-1.02 2.405-.289.285-.734.444-1.31.444-.786 0-1.808-.254-3.065-.823Zm5.37-3.798-.053-1.962 1.074-.095.052-3.166 1.572-.126-.157 3.133 1.466-.158.105 1.931-1.624.158c-.026.222-.026.443-.026.633 0 1.804.21 2.723.576 2.786.445.095.76-.317.943-1.171l1.126.19c-.078 1.234-.367 2.025-.89 2.342a2.514 2.514 0 0 1-1.31.348c-.21 0-.419-.032-.655-.063-.76-.127-1.178-1.773-1.204-4.907l-.996.127Zm5.185-.95 1.65.317c.367-.886.76-1.298 1.179-1.234.497.031.76.253.864.601 0 .032 0 .506.026 1.393-.445-.19-.864-.285-1.257-.285-.314 0-.629.063-.943.19-.628.221-.943.823-.943 1.74 0 .096.027.19.027.38.104 1.14 1.178 1.773 3.273 1.836v.38l1.677-.126.052-2.66c0-1.139-.079-2.12-.262-2.975-.393-1.677-1.257-2.5-2.567-2.5-.288 0-.55.031-.838.126-.838.222-1.493 1.172-1.938 2.818Zm3.772 2.248.026 1.361c-1.048-.285-1.546-.601-1.493-1.013 0-.285.236-.443.68-.443.21 0 .472.032.787.095Zm2.278 3.197c0-3.134-.052-5.634-.21-7.534l1.808-.158-.079.697c.89-.665 1.781-.982 2.698-.95l.183 1.867c-1.047 0-1.807.285-2.226.792-.288.38-.445 1.298-.445 2.817 0 .665.026 1.488.105 2.406l-1.834.063Zm4.27-4.495-.053-1.962 1.074-.095.052-3.166 1.572-.126-.158 3.133 1.493-.158.105 1.931-1.65.158v.633c0 1.804.183 2.723.576 2.786.42.095.733-.317.917-1.171l1.126.19c-.078 1.234-.367 2.025-.89 2.342a2.447 2.447 0 0 1-1.31.348c-.183 0-.419-.032-.629-.063-.785-.127-1.178-1.773-1.204-4.907l-1.022.127Z" stroke="#00B0DC" stroke-width=".542" stroke-linecap="round" stroke-linejoin="round"/><path d="M6.351 15.294c0-3.134-.052-5.634-.21-7.534l1.808-.158-.079.697c.89-.665 1.781-.982 2.698-.95l.183 1.867c-1.047 0-1.807.285-2.226.792-.288.38-.445 1.298-.445 2.817 0 .665.026 1.488.104 2.406l-1.833.063Zm6.286-3.387c.183.791.602 1.171 1.23 1.235.577.031.97-.349 1.18-1.108l1.78-.317c-.445 2.247-1.362 3.387-2.723 3.387-.42 0-.89-.095-1.415-.348-.943-.665-1.414-1.931-1.414-3.799v-.538c.105-2.184.969-3.45 2.619-3.798 1.572-.032 2.488 1.298 2.724 3.957l-3.981 1.329Zm.471-2.754c-.235.317-.34.728-.366 1.203l2.383-.823c-.262-.601-.602-.886-1.021-.886-.42 0-.734.158-.996.506Zm3.562 5.444.734-2.057c.969.76 1.728 1.14 2.252 1.14a.822.822 0 0 0 .55-.222.64.64 0 0 0 .288-.538c0-.317-.367-.601-1.074-.823-1.047-.317-1.728-.981-2.095-1.994a2.376 2.376 0 0 1-.183-.887c0-.601.262-1.14.76-1.582.444-.38 1.073-.57 1.937-.57.603 0 1.31.095 2.122.285l-.55 1.994c-.629-.348-1.126-.506-1.493-.506-.21 0-.393.031-.55.126-.21.127-.314.285-.314.507 0 .19.157.38.419.601.183.127.55.317 1.1.601.471.222.812.412.995.634.314.316.471.76.497 1.266.027.886-.314 1.677-1.02 2.405-.289.285-.734.444-1.31.444-.786 0-1.808-.254-3.065-.823Zm5.37-3.798-.053-1.962 1.074-.095.052-3.166 1.572-.126-.157 3.133 1.466-.158.105 1.931-1.624.158c-.026.222-.026.443-.026.633 0 1.804.21 2.723.576 2.786.445.095.76-.317.943-1.171l1.126.19c-.078 1.234-.367 2.025-.89 2.342a2.514 2.514 0 0 1-1.31.348c-.21 0-.419-.032-.655-.063-.76-.127-1.178-1.773-1.204-4.907l-.996.127Zm5.185-.95 1.65.317c.367-.886.76-1.298 1.179-1.234.497.031.76.253.864.601 0 .032 0 .506.026 1.393-.445-.19-.864-.285-1.257-.285-.314 0-.629.063-.943.19-.628.221-.943.823-.943 1.74 0 .096.027.19.027.38.104 1.14 1.178 1.773 3.273 1.836v.38l1.677-.126.052-2.66c0-1.139-.079-2.12-.262-2.975-.393-1.677-1.257-2.5-2.567-2.5-.288 0-.55.031-.838.126-.838.222-1.493 1.172-1.938 2.818Zm3.772 2.248.026 1.361c-1.048-.285-1.546-.601-1.493-1.013 0-.285.236-.443.68-.443.21 0 .472.032.787.095Zm2.278 3.197c0-3.134-.052-5.634-.21-7.534l1.808-.158-.079.697c.89-.665 1.781-.982 2.698-.95l.183 1.867c-1.047 0-1.807.285-2.226.792-.288.38-.445 1.298-.445 2.817 0 .665.026 1.488.105 2.406l-1.834.063Zm4.27-4.495-.053-1.962 1.074-.095.052-3.166 1.572-.126-.158 3.133 1.493-.158.105 1.931-1.65.158v.633c0 1.804.183 2.723.576 2.786.42.095.733-.317.917-1.171l1.126.19c-.078 1.234-.367 2.025-.89 2.342a2.447 2.447 0 0 1-1.31.348c-.183 0-.419-.032-.629-.063-.785-.127-1.178-1.773-1.204-4.907l-1.022.127Z" fill="#fff"/></svg>