<svg width="59" height="32" fill="none" xmlns="http://www.w3.org/2000/svg"><path fill-rule="evenodd" clip-rule="evenodd" d="M4.3 3.152c5.616-1.172 44.841-1.204 50.325 0 1.732.412 2.886 1.806 3.227 3.929 1.076 6.685 1.05 13.402 0 20.087-.341 2.123-1.47 3.707-3.227 3.897-5.484.633-44.71.602-50.324 0-1.758-.19-3.044-1.774-3.228-3.897-.63-6.685-.76-13.402 0-20.087.237-2.123 1.47-3.548 3.228-3.929Z" fill="#000" fill-opacity=".102"/><path fill-rule="evenodd" clip-rule="evenodd" d="M3.776 1.632C9.365.46 48.59.428 54.074 1.632c1.758.412 2.886 1.806 3.227 3.929 1.076 6.685 1.05 13.401 0 20.086-.315 2.123-1.469 3.707-3.227 3.897-5.484.634-44.71.602-50.298 0-1.784-.19-3.043-1.774-3.253-3.897-.63-6.685-.761-13.401 0-20.086.236-2.123 1.495-3.549 3.253-3.93Z" fill="#E6E6E6"/><path fill-rule="evenodd" clip-rule="evenodd" d="M3.776.903C9.365-.301 48.59-.301 54.074.903c1.758.412 2.886 1.806 3.227 3.929 1.076 6.685 1.05 13.37 0 20.087-.315 2.122-1.469 3.706-3.227 3.896-5.484.602-44.71.602-50.298 0-1.784-.19-3.043-1.774-3.253-3.896-.63-6.717-.761-13.402 0-20.087C.759 2.709 2.018 1.283 3.776.903Z" fill="#fff"/><path fill-rule="evenodd" clip-rule="evenodd" d="M5.01 2.867c5.01-1.077 43.66-1.109 48.566 0 1.574.349 2.623 1.616 2.912 3.485.97 6.02.945 12.008 0 18.028-.288 1.9-1.312 3.326-2.912 3.517-4.907.538-43.555.538-48.567 0-1.6-.19-2.728-1.616-2.912-3.517-.551-6.02-.682-12.008 0-18.028.21-1.9 1.338-3.168 2.912-3.485Z" fill="#E6E6E6"/><path fill-rule="evenodd" clip-rule="evenodd" d="M4.642 2.329c5.011-1.077 43.66-1.077 48.592 0 1.548.348 2.598 1.616 2.886 3.517.971 5.988.945 12.008 0 17.995-.288 1.901-1.311 3.327-2.886 3.517-4.932.539-43.58.539-48.592 0-1.6-.158-2.729-1.584-2.913-3.517-.55-5.988-.682-12.007 0-17.995.21-1.933 1.338-3.169 2.913-3.517Z" fill="#6DC300"/><path fill-rule="evenodd" clip-rule="evenodd" d="M4.642 1.125c5.011-1.078 43.66-1.11 48.592 0 1.548.348 2.598 1.615 2.886 3.485.971 6.02.945 12.007 0 18.027-.288 1.901-1.311 3.327-2.886 3.517-4.932.538-43.58.538-48.592 0-1.6-.19-2.729-1.616-2.913-3.517-.55-6.02-.682-12.008 0-18.027.21-1.901 1.338-3.169 2.913-3.485Z" fill="#C9FB06"/><path fill-rule="evenodd" clip-rule="evenodd" d="M4.747 1.283C9.706.206 48.276.206 53.13 1.283c1.547.349 2.57 1.584 2.86 3.453a56.095 56.095 0 0 1 0 17.775c-.29 1.869-1.286 3.294-2.86 3.453-4.855.539-43.424.539-48.383 0-1.574-.159-2.703-1.553-2.886-3.453-.551-5.925-.656-11.85 0-17.775.21-1.9 1.312-3.136 2.886-3.453Z" fill="#C5F806"/><path fill-rule="evenodd" clip-rule="evenodd" d="M4.825 1.442c4.907-1.046 43.424-1.078 48.2 0 1.521.348 2.544 1.584 2.833 3.421.945 5.83.918 11.691 0 17.52-.289 1.838-1.286 3.264-2.834 3.423-4.775.538-43.292.506-48.199 0-1.548-.159-2.65-1.553-2.807-3.422-.551-5.83-.656-11.691 0-17.52.21-1.87 1.286-3.106 2.807-3.422Z" fill="#C0F605"/><path fill-rule="evenodd" clip-rule="evenodd" d="M4.93 1.6C9.758.555 48.223.555 52.92 1.6c1.521.349 2.518 1.553 2.807 3.358.918 5.767.892 11.533 0 17.3-.289 1.837-1.26 3.2-2.807 3.39-4.697.506-43.162.506-47.99 0-1.521-.19-2.597-1.553-2.78-3.39-.552-5.767-.657-11.533 0-17.3.21-1.837 1.285-3.041 2.78-3.358Z" fill="#BCF305"/><path fill-rule="evenodd" clip-rule="evenodd" d="M5.035 1.758c4.776-1.013 43.136-1.013 47.806 0 1.47.349 2.466 1.521 2.755 3.327a54.615 54.615 0 0 1 0 17.045c-.289 1.806-1.26 3.169-2.755 3.327-4.67.539-43.03.507-47.806 0-1.495-.158-2.57-1.489-2.755-3.327-.524-5.67-.63-11.342 0-17.045.21-1.806 1.26-3.01 2.755-3.327Z" fill="#B7F004"/><path fill-rule="evenodd" clip-rule="evenodd" d="M5.14 1.917c4.697-.983 43.004-1.014 47.596 0 1.469.348 2.44 1.52 2.702 3.295.918 5.607.892 11.215 0 16.823-.262 1.743-1.207 3.105-2.702 3.263-4.592.507-42.9.507-47.596 0-1.495-.158-2.545-1.489-2.702-3.263-.525-5.608-.63-11.216 0-16.823C2.62 3.406 3.67 2.233 5.14 1.917Z" fill="#B3EE04"/><path fill-rule="evenodd" clip-rule="evenodd" d="M5.245 2.075c4.618-.982 42.873-.982 47.386 0 1.443.349 2.414 1.49 2.676 3.232.892 5.544.866 11.057 0 16.601-.262 1.743-1.207 3.074-2.676 3.232-4.513.507-42.768.475-47.386 0-1.469-.158-2.518-1.489-2.676-3.232-.525-5.544-.63-11.057 0-16.601.184-1.743 1.233-2.915 2.676-3.232Z" fill="#AEEB03"/><path fill-rule="evenodd" clip-rule="evenodd" d="M5.35 2.265c4.54-.982 42.742-1.014 47.202 0 1.417.317 2.362 1.458 2.624 3.168a51.768 51.768 0 0 1 0 16.349c-.262 1.71-1.18 3.01-2.624 3.168-4.46.507-42.663.507-47.202 0-1.443-.127-2.492-1.426-2.65-3.168-.498-5.45-.603-10.9 0-16.349.21-1.742 1.207-2.883 2.65-3.168Z" fill="#AAE903"/><path fill-rule="evenodd" clip-rule="evenodd" d="M5.43 2.424c4.512-.983 42.61-.983 47.017 0 1.417.316 2.336 1.425 2.598 3.136.866 5.355.84 10.74 0 16.095-.262 1.71-1.18 2.978-2.598 3.137-4.408.475-42.505.475-47.018 0-1.417-.159-2.414-1.426-2.597-3.137-.499-5.354-.604-10.74 0-16.095.21-1.71 1.207-2.851 2.597-3.136Z" fill="#A5E602"/><path fill-rule="evenodd" clip-rule="evenodd" d="M5.534 2.582c4.434-.95 42.48-.95 46.808 0 1.39.317 2.31 1.426 2.572 3.073a50.33 50.33 0 0 1 0 15.873c-.263 1.68-1.155 2.947-2.572 3.105-4.329.476-42.374.476-46.808 0-1.39-.158-2.388-1.394-2.545-3.105-.499-5.29-.604-10.582 0-15.873.184-1.679 1.154-2.788 2.545-3.073Z" fill="#A1E302"/><path fill-rule="evenodd" clip-rule="evenodd" d="M5.64 2.74c4.355-.918 42.347-.95 46.624 0 1.364.317 2.256 1.395 2.519 3.042a50.295 50.295 0 0 1 0 15.62c-.263 1.647-1.155 2.915-2.52 3.041-4.276.476-42.268.476-46.624 0-1.39-.127-2.361-1.362-2.519-3.041-.498-5.196-.577-10.392 0-15.62.184-1.647 1.155-2.756 2.52-3.041Z" fill="#9CE101"/><path fill-rule="evenodd" clip-rule="evenodd" d="M5.744 2.9c4.303-.92 42.217-.92 46.415 0 1.338.316 2.23 1.393 2.466 3.009.84 5.132.814 10.265 0 15.398-.236 1.616-1.102 2.82-2.466 2.978-4.198.475-42.112.475-46.415 0-1.364-.127-2.335-1.362-2.493-2.978-.472-5.133-.577-10.265 0-15.398.184-1.648 1.155-2.725 2.493-3.01Z" fill="#98DE01"/><path fill-rule="evenodd" clip-rule="evenodd" d="M4.642 1.125c5.011-1.078 43.66-1.11 48.593 0 1.548.348 2.597 1.615 2.886 3.485.446 2.724.682 5.45.708 8.174-9.314-4.626-49.275 7.667-55.572-.064.027-2.693.184-5.386.473-8.11.21-1.901 1.338-3.169 2.912-3.485Z" fill="#fff" fill-opacity=".29"/><path fill-rule="evenodd" clip-rule="evenodd" d="M4.904 2.297c1.47 0 2.677 1.426 2.677 3.232 0 1.774-1.207 3.2-2.677 3.2-1.469 0-2.676-1.426-2.676-3.2 0-1.806 1.207-3.232 2.676-3.232ZM8.971 1.473c.735 0 1.338.697 1.338 1.584 0 .887-.603 1.616-1.338 1.616-.708 0-1.312-.729-1.312-1.616 0-.887.604-1.584 1.312-1.584ZM53.654 21.497c.892 0 1.627.855 1.627 1.932 0 1.078-.735 1.965-1.627 1.965-.866 0-1.6-.887-1.6-1.965 0-1.077.734-1.932 1.6-1.932Z" fill="#fff"/><path d="m12 19.015.985-2.462c1.257.91 2.208 1.364 2.888 1.364.272 0 .51-.076.713-.266a.686.686 0 0 0 .374-.643c0-.38-.442-.72-1.393-.985-1.325-.38-2.242-1.175-2.684-2.349-.17-.416-.237-.757-.237-1.098 0-.72.305-1.326.985-1.894.543-.455 1.393-.682 2.48-.682.78 0 1.698.114 2.751.34l-.68 2.387c-.814-.416-1.46-.606-1.97-.606a1.42 1.42 0 0 0-.679.19c-.272.113-.408.34-.408.568 0 .227.17.454.544.72.238.151.713.416 1.427.72.577.264 1.019.53 1.29.757.374.378.578.909.612 1.553.034 1.022-.408 1.97-1.325 2.84-.373.38-.95.531-1.698.531-.986 0-2.31-.303-3.975-.985ZM21 13.546l1.993.39c.44-1.028.938-1.525 1.407-1.49.587.072.938.284 1.056.745 0 .036 0 .603.029 1.703-.528-.249-1.026-.39-1.524-.39-.381 0-.763.07-1.114.212-.762.32-1.144 1.029-1.144 2.163 0 .071 0 .213.03.426.117 1.383 1.407 2.128 3.928 2.234l.029.461 1.993-.177.059-3.192c.03-1.347-.059-2.553-.323-3.617C26.98 11.028 25.954 10 24.342 10c-.323 0-.675.07-.997.142-1.026.284-1.788 1.418-2.345 3.404Zm4.543 2.73.059 1.632c-1.26-.32-1.876-.71-1.847-1.206.03-.355.323-.532.85-.532.264 0 .557.036.938.107ZM30 10.867l2.121-1.234 1.86 7.977L35.264 9l2.174.791-2.174 10.288-2.514-.064L30 10.867ZM41.732 16.592c.236.982.734 1.489 1.522 1.552.734.032 1.206-.443 1.469-1.394l2.256-.38c-.577 2.82-1.705 4.245-3.41 4.245-.525 0-1.103-.158-1.759-.443-1.207-.824-1.81-2.408-1.81-4.753 0-.221.026-.443.026-.697.131-2.692 1.207-4.277 3.28-4.72 1.994-.064 3.122 1.584 3.41 4.942l-4.984 1.648Zm.603-3.454c-.288.412-.446.95-.498 1.553l3.017-1.046c-.341-.76-.787-1.14-1.286-1.14a1.44 1.44 0 0 0-1.233.633Z" fill="#fff"/></svg>