<svg width="189" height="81" viewBox="0 0 189 81" fill="none" xmlns="http://www.w3.org/2000/svg">
<path fill-rule="evenodd" clip-rule="evenodd" d="M23.1503 11H182.85C186.204 11 189 15.0452 189 19.8819V72.206C189 77.0427 186.204 81 182.85 81H23.1503C19.7956 81 17 77.0427 17 72.206V19.8819C17 14.9573 19.7956 11 23.1503 11Z" fill="black" fill-opacity="0.101961"/>
<path fill-rule="evenodd" clip-rule="evenodd" d="M22.1146 8H180.885C184.221 8 187 11.9573 187 16.794V69.1181C187 73.9548 184.221 78 180.885 78H22.1146C18.7794 78 16 73.9548 16 69.1181V16.794C16 11.9573 18.7099 8 22.1146 8Z" fill="#E6E6E6"/>
<path fill-rule="evenodd" clip-rule="evenodd" d="M22.1146 7H180.885C184.221 7 187 10.9573 187 15.794V68.1181C187 72.9548 184.221 77 180.885 77H22.1146C18.7794 77 16 72.9548 16 68.1181V15.794C16 10.9573 18.7099 7 22.1146 7Z" fill="white"/>
<path fill-rule="evenodd" clip-rule="evenodd" d="M25.7177 12H178.282C181.42 12 184 15.8565 184 20.5202V63.4798C184 68.1435 181.42 72 178.282 72H25.7177C22.5799 72 20 68.2332 20 63.4798V20.5202C20 15.8565 22.5799 12 25.7177 12Z" fill="#E6E6E6"/>
<path fill-rule="evenodd" clip-rule="evenodd" d="M24.7153 11H177.354C180.491 11 183 14.7191 183 19.3237V60.6763C183 65.1924 180.491 69 177.354 69H24.7153C21.5788 69 19 65.1924 19 60.6763V19.3237C19 14.7191 21.5091 11 24.7153 11Z" fill="#F1C383"/>
<path fill-rule="evenodd" clip-rule="evenodd" d="M24.5846 9H176.346C179.487 9 182 12.7019 182 17.1971V55.8029C182 60.2981 179.487 64 176.346 64H24.5846C21.5131 64 19 60.2981 19 55.8029V17.1971C19 12.7019 21.5131 9 24.5846 9Z" fill="#FAEECC"/>
<path fill-rule="evenodd" clip-rule="evenodd" d="M25.0394 9.85938C75.0747 9.85938 125.11 9.85938 175.145 9.85938C178.22 9.85938 180.736 13.4813 180.736 17.9867C180.736 30.266 180.736 42.4569 180.736 54.7362C180.736 59.1532 178.22 62.8635 175.145 62.8635C125.11 62.8635 75.0747 62.8635 25.0394 62.8635C22.0345 62.8635 19.5188 59.2415 19.5188 54.7362C19.5188 42.4569 19.5188 30.266 19.5188 17.9867C19.5188 13.4813 21.9647 9.85938 25.0394 9.85938Z" fill="#FAEDC9"/>
<path fill-rule="evenodd" clip-rule="evenodd" d="M25.9478 11.0078C75.4241 11.0078 124.83 11.0078 174.237 11.0078C177.312 11.0078 179.757 14.5414 179.757 18.9584C179.757 30.5309 179.757 42.1918 179.757 53.7643C179.757 58.1813 177.312 61.7149 174.237 61.7149C124.83 61.7149 75.4241 61.7149 25.9478 61.7149C22.9429 61.7149 20.4971 58.1813 20.4971 53.7643C20.4971 42.1918 20.4971 30.5309 20.4971 18.9584C20.4971 14.5414 22.9429 11.0078 25.9478 11.0078Z" fill="#F9ECC6"/>
<path fill-rule="evenodd" clip-rule="evenodd" d="M26.8565 12.0674C75.7038 12.0674 124.551 12.0674 173.329 12.0674C176.334 12.0674 178.779 15.601 178.779 19.9296C178.779 30.8838 178.779 41.838 178.779 52.7921C178.779 57.1208 176.334 60.6544 173.329 60.6544C124.551 60.6544 75.7038 60.6544 26.8565 60.6544C23.9214 60.6544 21.4756 57.1208 21.4756 52.7921C21.4756 41.838 21.4756 30.8838 21.4756 19.9296C21.4756 15.601 23.9214 12.0674 26.8565 12.0674Z" fill="#F9EBC2"/>
<path fill-rule="evenodd" clip-rule="evenodd" d="M27.7646 13.1279C75.983 13.1279 124.201 13.1279 172.42 13.1279C175.355 13.1279 177.801 16.6615 177.801 20.9018C177.801 31.2375 177.801 41.4849 177.801 51.7323C177.801 56.0609 175.355 59.5945 172.42 59.5945C124.201 59.5945 75.983 59.5945 27.7646 59.5945C24.8296 59.5945 22.4536 56.0609 22.4536 51.7323C22.4536 41.4849 22.4536 31.2375 22.4536 20.9018C22.4536 16.6615 24.8296 13.1279 27.7646 13.1279Z" fill="#F8EABF"/>
<path fill-rule="evenodd" clip-rule="evenodd" d="M28.6735 14.2764C76.3328 14.2764 123.922 14.2764 171.512 14.2764C174.447 14.2764 176.823 17.7216 176.823 21.962C176.823 31.591 176.823 41.1318 176.823 50.7608C176.823 55.0012 174.447 58.4464 171.512 58.4464C123.922 58.4464 76.3328 58.4464 28.6735 58.4464C25.8083 58.4464 23.4324 55.0012 23.4324 50.7608C23.4324 41.1318 23.4324 31.591 23.4324 21.962C23.4324 17.7216 25.8083 14.2764 28.6735 14.2764Z" fill="#F8E9BC"/>
<path fill-rule="evenodd" clip-rule="evenodd" d="M29.5816 15.3369C76.6121 15.3369 123.642 15.3369 170.603 15.3369C173.468 15.3369 175.844 18.7822 175.844 22.9342C175.844 31.8566 175.844 40.8673 175.844 49.7896C175.844 53.9416 173.468 57.3869 170.603 57.3869C123.642 57.3869 76.6121 57.3869 29.5816 57.3869C26.7165 57.3869 24.4104 53.9416 24.4104 49.7896C24.4104 40.8673 24.4104 31.8566 24.4104 22.9342C24.4104 18.7822 26.7165 15.3369 29.5816 15.3369Z" fill="#F7E8B9"/>
<path fill-rule="evenodd" clip-rule="evenodd" d="M30.5602 16.3965C76.8918 16.3965 123.293 16.3965 169.695 16.3965C172.56 16.3965 174.866 19.8418 174.866 23.9054C174.866 32.2094 174.866 40.5135 174.866 48.8175C174.866 52.8811 172.56 56.3264 169.695 56.3264C123.293 56.3264 76.8918 56.3264 30.5602 56.3264C27.695 56.3264 25.3889 52.8811 25.3889 48.8175C25.3889 40.5135 25.3889 32.2094 25.3889 23.9054C25.3889 19.7534 27.695 16.3965 30.5602 16.3965Z" fill="#F7E7B6"/>
<path fill-rule="evenodd" clip-rule="evenodd" d="M31.4685 17.5449C77.241 17.5449 123.014 17.5449 168.786 17.5449C171.581 17.5449 173.887 20.8135 173.887 24.8772C173.887 32.5627 173.887 40.16 173.887 47.8456C173.887 51.9092 171.581 55.1778 168.786 55.1778C123.014 55.1778 77.241 55.1778 31.4685 55.1778C28.6733 55.1778 26.3672 51.9092 26.3672 47.8456C26.3672 40.16 26.3672 32.5627 26.3672 24.8772C26.3672 20.8135 28.6034 17.5449 31.4685 17.5449Z" fill="#F6E6B3"/>
<path fill-rule="evenodd" clip-rule="evenodd" d="M32.3772 18.6055C77.5207 18.6055 122.734 18.6055 167.878 18.6055C170.673 18.6055 172.909 21.874 172.909 25.9377C172.909 32.9165 172.909 39.8071 172.909 46.7859C172.909 50.8496 170.673 54.1181 167.878 54.1181C122.734 54.1181 77.5207 54.1181 32.3772 54.1181C29.5819 54.1181 27.3457 50.8496 27.3457 46.7859C27.3457 39.8071 27.3457 32.9165 27.3457 25.9377C27.3457 21.874 29.5819 18.6055 32.3772 18.6055Z" fill="#F6E5AF"/>
<path fill-rule="evenodd" clip-rule="evenodd" d="M33.2853 19.666C77.8 19.666 122.384 19.666 166.969 19.666C169.694 19.666 171.931 22.9346 171.931 26.9099C171.931 33.1821 171.931 39.5426 171.931 45.8147C171.931 49.79 169.694 53.0586 166.969 53.0586C122.384 53.0586 77.8 53.0586 33.2853 53.0586C30.5599 53.0586 28.3237 49.79 28.3237 45.8147C28.3237 39.5426 28.3237 33.1821 28.3237 26.9099C28.3237 22.9346 30.5599 19.666 33.2853 19.666Z" fill="#F5E4AC"/>
<path fill-rule="evenodd" clip-rule="evenodd" d="M33.9038 21H166.096C168.758 21 171 24.1705 171 28.0455V44.9545C171 48.8295 168.758 52 166.096 52H33.9038C31.1717 52 29 48.8295 29 44.9545V28.0455C29 24.1705 31.1717 21 33.9038 21Z" fill="#F5E3A9"/>
<path fill-rule="evenodd" clip-rule="evenodd" d="M70.6073 62.3262C72.6341 62.3262 74.323 64.7815 74.323 67.7706C74.323 70.7597 72.6341 73.215 70.6073 73.215C68.4961 73.215 66.8071 70.7597 66.8071 67.7706C66.8071 64.7815 68.4961 62.3262 70.6073 62.3262Z" fill="white"/>
<path fill-rule="evenodd" clip-rule="evenodd" d="M56.0426 68.7588C57.1489 68.7588 58 70.1281 58 71.9538C58 73.6654 57.1489 75.0347 56.0426 75.0347C54.8511 75.0347 54 73.6654 54 71.9538C54 70.1281 54.8511 68.7588 56.0426 68.7588Z" fill="white"/>
<path fill-rule="evenodd" clip-rule="evenodd" d="M24.4672 11C26.9635 11 29 14.1899 29 18C29 21.8987 26.9635 25 24.4672 25C22.0365 25 20 21.8987 20 18C20 14.1899 22.0365 11 24.4672 11Z" fill="white"/>
<path fill-rule="evenodd" clip-rule="evenodd" d="M31.5 10C32.8816 10 34 11.7471 34 13.954C34 16.2529 32.8816 18 31.5 18C30.1184 18 29 16.2529 29 13.954C29 11.7471 30.1184 10 31.5 10Z" fill="white"/>
<path fill-rule="evenodd" clip-rule="evenodd" d="M58.4428 15.2891H171.302C173.817 15.2891 175.844 17.316 175.844 19.8497V50.592C175.844 53.1257 173.817 55.1526 171.302 55.1526H58.4428C55.927 55.1526 53.8306 53.1257 53.8306 50.592V19.8497C53.8306 17.316 55.927 15.2891 58.4428 15.2891Z" fill="#EFB469"/>
<path fill-rule="evenodd" clip-rule="evenodd" d="M60.1201 17.4844H169.555C172.001 17.4844 173.957 19.4269 173.957 21.8761V50.0004C173.957 52.3652 172.001 54.3922 169.555 54.3922H60.1201C57.7441 54.3922 55.7175 52.3652 55.7175 50.0004V21.8761C55.7175 19.4269 57.6742 17.4844 60.1201 17.4844Z" fill="#F1C383"/>
<path fill-rule="evenodd" clip-rule="evenodd" d="M60.3297 20.0186C96.6682 20.0186 133.007 20.0186 169.345 20.0186C171.791 20.0186 173.748 21.9611 173.748 24.3259C173.748 32.8561 173.748 41.3863 173.748 50.001C173.748 52.3658 171.721 54.3083 169.345 54.3083C133.007 54.3083 96.6682 54.3083 60.3297 54.3083C57.9538 54.3083 55.9971 52.3658 55.9971 50.001C55.9971 41.3863 55.9971 32.8561 55.9971 24.3259C55.9971 21.9611 57.9538 20.0186 60.3297 20.0186Z" fill="#F1C585"/>
<path fill-rule="evenodd" clip-rule="evenodd" d="M60.5392 22.4678C96.7379 22.4678 132.937 22.4678 169.135 22.4678C171.511 22.4678 173.468 24.4103 173.468 26.7751C173.468 34.4607 173.468 42.2308 173.468 49.9164C173.468 52.2812 171.511 54.2237 169.135 54.2237C132.937 54.2237 96.7379 54.2237 60.5392 54.2237C58.1632 54.2237 56.2065 52.2812 56.2065 49.9164C56.2065 42.2308 56.2065 34.4607 56.2065 26.7751C56.2065 24.4103 58.1632 22.4678 60.5392 22.4678Z" fill="#F1C786"/>
<path fill-rule="evenodd" clip-rule="evenodd" d="M60.7494 25.002C96.8083 25.002 132.867 25.002 168.926 25.002C171.302 25.002 173.259 26.86 173.259 29.2248C173.259 36.0658 173.259 42.9912 173.259 49.9167C173.259 52.197 171.302 54.1395 168.926 54.1395C132.867 54.1395 96.8083 54.1395 60.7494 54.1395C58.3734 54.1395 56.4866 52.197 56.4866 49.9167C56.4866 42.9912 56.4866 36.0658 56.4866 29.2248C56.4866 26.86 58.3734 25.002 60.7494 25.002Z" fill="#F2CA88"/>
<path fill-rule="evenodd" clip-rule="evenodd" d="M60.9588 27.5352C96.878 27.5352 132.797 27.5352 168.786 27.5352C171.092 27.5352 172.979 29.3932 172.979 31.6735C172.979 37.7544 172.979 43.7509 172.979 49.8318C172.979 52.1121 171.092 53.9702 168.786 53.9702C132.797 53.9702 96.878 53.9702 60.9588 53.9702C58.6527 53.9702 56.696 52.1121 56.696 49.8318C56.696 43.7509 56.696 37.7544 56.696 31.6735C56.696 29.3932 58.5829 27.5352 60.9588 27.5352Z" fill="#F2CC8A"/>
<path fill-rule="evenodd" clip-rule="evenodd" d="M61.1682 29.9844C96.9477 29.9844 132.727 29.9844 168.576 29.9844C170.882 29.9844 172.769 31.8424 172.769 34.1227C172.769 39.359 172.769 44.5953 172.769 49.8316C172.769 52.0275 170.882 53.8855 168.576 53.8855C132.727 53.8855 96.9477 53.8855 61.1682 53.8855C58.8621 53.8855 56.9753 52.0275 56.9753 49.8316C56.9753 44.5953 56.9753 39.359 56.9753 34.1227C56.9753 31.8424 58.8621 29.9844 61.1682 29.9844Z" fill="#F2CE8B"/>
<path fill-rule="evenodd" clip-rule="evenodd" d="M61.3083 32.5186C97.0179 32.5186 132.658 32.5186 168.367 32.5186C170.603 32.5186 172.49 34.3766 172.49 36.5725C172.49 40.9642 172.49 45.356 172.49 49.7478C172.49 52.0281 170.603 53.8017 168.367 53.8017C132.658 53.8017 97.0179 53.8017 61.3083 53.8017C59.0721 53.8017 57.1853 52.0281 57.1853 49.7478C57.1853 45.356 57.1853 40.9642 57.1853 36.5725C57.1853 34.3766 59.0721 32.5186 61.3083 32.5186Z" fill="#F2D08D"/>
<path fill-rule="evenodd" clip-rule="evenodd" d="M61.5177 34.9668C97.0875 34.9668 132.587 34.9668 168.157 34.9668C170.393 34.9668 172.21 36.8249 172.21 39.0207C172.21 42.5679 172.21 46.1151 172.21 49.7468C172.21 51.9427 170.393 53.7163 168.157 53.7163C132.587 53.7163 97.0875 53.7163 61.5177 53.7163C59.2815 53.7163 57.4646 51.9427 57.4646 49.7468C57.4646 46.1151 57.4646 42.5679 57.4646 39.0207C57.4646 36.8249 59.2815 34.9668 61.5177 34.9668Z" fill="#F2D28E"/>
<path fill-rule="evenodd" clip-rule="evenodd" d="M61.7275 37.501C97.1575 37.501 132.588 37.501 167.948 37.501C170.184 37.501 172.001 39.2746 172.001 41.4705C172.001 44.2575 172.001 46.9602 172.001 49.6628C172.001 51.8587 170.184 53.6323 167.948 53.6323C132.588 53.6323 97.1575 53.6323 61.7275 53.6323C59.5611 53.6323 57.6743 51.8587 57.6743 49.6628C57.6743 46.9602 57.6743 44.2575 57.6743 41.4705C57.6743 39.2746 59.4912 37.501 61.7275 37.501Z" fill="#F2D490"/>
<path fill-rule="evenodd" clip-rule="evenodd" d="M61.9371 40.0352C97.2274 40.0352 132.518 40.0352 167.738 40.0352C169.974 40.0352 171.721 41.8088 171.721 43.9202C171.721 45.8627 171.721 47.7208 171.721 49.6633C171.721 51.7748 169.974 53.5484 167.738 53.5484C132.518 53.5484 97.2274 53.5484 61.9371 53.5484C59.7708 53.5484 57.9539 51.7748 57.9539 49.6633C57.9539 47.7208 57.9539 45.8627 57.9539 43.9202C57.9539 41.8088 59.7708 40.0352 61.9371 40.0352Z" fill="#F3D792"/>
<path fill-rule="evenodd" clip-rule="evenodd" d="M62.1468 42.4844C97.2973 42.4844 132.448 42.4844 167.528 42.4844C169.695 42.4844 171.512 44.258 171.512 46.3694C171.512 47.4673 171.512 48.5653 171.512 49.5788C171.512 51.6902 169.695 53.4638 167.528 53.4638C132.448 53.4638 97.2973 53.4638 62.1468 53.4638C59.9804 53.4638 58.2334 51.6902 58.2334 49.5788C58.2334 48.5653 58.2334 47.4673 58.2334 46.3694C58.2334 44.258 59.9804 42.4844 62.1468 42.4844Z" fill="#F3D993"/>
<path fill-rule="evenodd" clip-rule="evenodd" d="M62.356 45.0176H167.388C169.485 45.0176 171.232 46.7912 171.232 48.8181V49.5782C171.232 51.6897 169.485 53.3788 167.388 53.3788H62.356C60.1897 53.3788 58.4426 51.6897 58.4426 49.5782V48.8181C58.4426 46.7067 60.1897 45.0176 62.356 45.0176Z" fill="#F3DB95"/>
<path d="M32.1675 66.5538L20.0779 74.1549C18.6104 75.084 17.073 75.3373 15.6754 74.9995C14.6272 74.8306 13.6488 74.3238 12.8103 73.6482C11.9717 72.8881 11.2729 71.9591 10.7837 70.7767C10.0849 69.172 9.73547 67.2295 10.015 65.2025V65.118L12.2512 48.9868L2.18825 36.9939C1.07015 35.7271 0.37133 34.1224 0.0918041 32.5177C-0.0479591 31.3353 -0.0479591 30.1529 0.231567 28.9705C0.511094 27.7882 1.00027 26.6902 1.76896 25.7612C2.7473 24.5788 4.07506 23.6498 5.8221 23.2275H5.96186L19.7984 20.6938L20.0779 19.8492C22.2443 13.0927 25.8781 2.11329 32.1675 2.19775C38.317 2.28221 41.9509 13.0082 44.1871 19.6803V19.7648L44.5365 20.6938L58.3731 23.2275H58.5128C60.2599 23.6498 61.5876 24.5788 62.566 25.7612C63.2648 26.6902 63.8238 27.7882 64.1034 28.9705C64.3829 30.1529 64.3829 31.3353 64.1732 32.5177C63.9636 34.1224 63.1949 35.7271 62.1467 36.9939L52.0837 48.9868L54.25 65.118V65.2025C54.5296 67.2295 54.25 69.172 53.5512 70.7767C52.9922 71.9591 52.2934 72.8881 51.5247 73.6482C50.6861 74.3238 49.7077 74.8306 48.5896 74.9995C47.192 75.3373 45.6546 75.084 44.257 74.1549L32.1675 66.5538Z" fill="black" fill-opacity="0.101961"/>
<path d="M32.1675 64.2736L20.0779 71.8747C18.6104 72.8037 17.073 73.0571 15.6754 72.8037C14.6272 72.6348 13.6488 72.1281 12.8103 71.368C11.9717 70.6923 11.2729 69.7633 10.7837 68.5809C10.0849 66.9762 9.73547 65.0337 10.015 62.9223L12.2512 46.7066L2.18825 34.7981C1.07015 33.5313 0.37133 31.9266 0.0918041 30.2375C-0.0479591 29.1395 -0.0479591 27.8727 0.231567 26.7747V26.6903C0.511094 25.5923 1.00027 24.4944 1.76896 23.4809C2.7473 22.2985 4.07506 21.3695 5.8221 21.0317L5.96186 20.9472L19.7984 18.4135L20.0779 17.5689C22.2443 10.8968 25.8781 -0.167002 32.1675 0.00191174C38.317 0.0863686 41.9509 10.8124 44.1871 17.4845L44.5365 18.4135L58.3731 20.9472L58.5128 21.0317C60.2599 21.3695 61.5876 22.2985 62.566 23.4809C63.2648 24.4944 63.8238 25.5923 64.1034 26.7747C64.3829 27.8727 64.3829 29.1395 64.1732 30.2375C63.9636 31.9266 63.1949 33.5313 62.1467 34.7981L52.0837 46.7066L54.25 62.9223C54.5296 65.0337 54.25 66.9762 53.5512 68.5809C52.9922 69.7633 52.2934 70.6923 51.5247 71.368C50.6861 72.1281 49.7077 72.6348 48.5896 72.8037C47.192 73.0571 45.6546 72.8037 44.257 71.8747L32.1675 64.2736Z" fill="white"/>
<path fill-rule="evenodd" clip-rule="evenodd" d="M32.1675 55.4062L18.2611 64.1053C16.514 65.2877 14.6272 64.2742 13.9983 62.3317L13.8585 63.683C13.3693 67.0613 15.955 69.2572 18.2611 67.7369L32.1675 59.0379L46.004 67.7369C48.38 69.2572 50.8958 67.0613 50.4765 63.683L50.2668 62.3317C49.6379 64.2742 47.7511 65.2877 46.004 64.1053L32.1675 55.4062Z" fill="#DCB000"/>
<path fill-rule="evenodd" clip-rule="evenodd" d="M47.4717 41.9772L47.9608 45.1021L59.4214 31.4201C60.5395 30.1532 60.819 28.2952 59.9804 27.0283C59.8407 27.2817 59.631 27.5351 59.4913 27.7884L47.4717 41.9772Z" fill="#DCB000"/>
<path fill-rule="evenodd" clip-rule="evenodd" d="M16.7937 41.9772L4.84393 27.7884C4.63428 27.5351 4.49452 27.2817 4.35476 27.0283C3.51618 28.2952 3.72582 30.1532 4.84393 31.4201L16.3744 45.1021L16.7937 41.9772Z" fill="#DCB000"/>
<path fill-rule="evenodd" clip-rule="evenodd" d="M20.078 69.8472C18.6105 70.6918 17.0731 71.0296 15.6755 70.6918C14.6273 70.5229 13.6489 70.0161 12.8103 69.3405C11.9717 68.5804 11.2729 67.6513 10.7838 66.4689C10.3645 65.5399 10.0849 64.5264 10.0151 63.344C9.8054 65.2865 10.1548 67.0601 10.7838 68.5804C11.2729 69.7628 11.9717 70.6918 12.8103 71.3674C13.6489 72.1275 14.6273 72.6343 15.6755 72.8032C17.0731 73.0566 18.6105 72.8032 20.078 71.8742L32.1676 64.2731L44.2572 71.8742C45.6548 72.8032 47.1922 73.0566 48.5899 72.8032C49.708 72.6343 50.6863 72.1275 51.5249 71.3674C52.2936 70.6918 52.9924 69.7628 53.5515 68.5804C54.1804 67.0601 54.5298 65.2865 54.3202 63.344C54.2503 64.5264 53.9708 65.5399 53.5515 66.4689C52.9924 67.6513 52.2936 68.5804 51.5249 69.3405C50.6863 70.0161 49.708 70.5229 48.5899 70.6918C47.1922 70.9451 45.6548 70.6918 44.2572 69.8472L32.1676 62.2461L20.078 69.8472Z" fill="#E6E6E6"/>
<path fill-rule="evenodd" clip-rule="evenodd" d="M41.8812 22.6371C40.204 18.7521 36.6401 4.64783 32.0977 4.64783C27.5554 4.56337 23.9216 19.0899 22.4541 22.6371L6.52107 25.5931C5.47284 25.8464 4.77403 26.3532 4.35474 27.0288L4.84391 27.7889L11.1333 35.3056C16.8636 32.0118 23.9915 28.8869 31.8182 26.5221C36.4304 25.0863 40.9727 23.9884 45.1656 23.3127L41.8812 22.6371Z" fill="#FFF71F"/>
<path fill-rule="evenodd" clip-rule="evenodd" d="M48.4499 48.8184C44.9559 50.2541 41.2521 51.6054 37.3388 52.8723C29.0927 55.4059 21.266 56.7572 14.767 57.0951L13.9983 62.3313C14.6272 64.2738 16.514 65.2873 18.2611 64.1049L32.1675 55.4059L46.0041 64.1049C47.7511 65.2873 49.6379 64.2738 50.2669 62.3313L48.4499 48.8184Z" fill="#F7C600"/>
</svg>
