<svg width="5" height="5" viewBox="0 0 5 5" fill="none" xmlns="http://www.w3.org/2000/svg">
<path fill-rule="evenodd" clip-rule="evenodd" d="M0.760125 0.464955C1.76012 0.284956 2.74011 0.284956 3.7001 0.464955C4.0101 0.514954 4.22009 0.724953 4.28009 1.03495C4.47009 2.01494 4.46009 2.99493 4.28009 3.97492C4.22009 4.28492 4.0201 4.51492 3.7001 4.54492C2.74011 4.63492 1.76012 4.63492 0.760125 4.54492C0.450128 4.51492 0.23013 4.28492 0.190131 3.97492C0.0801315 2.99493 0.0601317 2.01494 0.190131 1.03495C0.23013 0.724953 0.450128 0.514954 0.760125 0.464955Z" fill="black" fill-opacity="0.101961"/>
<path fill-rule="evenodd" clip-rule="evenodd" d="M0.67015 0.234982C1.66014 0.0649833 2.64013 0.0649833 3.61012 0.234982C3.92012 0.294981 4.12012 0.504979 4.18012 0.814977C4.37012 1.79497 4.37012 2.77496 4.18012 3.75495C4.12012 4.06495 3.92012 4.29495 3.61012 4.32495C2.64013 4.41494 1.66014 4.41494 0.67015 4.32495C0.350153 4.29495 0.130155 4.06495 0.0901549 3.75495C-0.0198441 2.77496 -0.0398439 1.79497 0.0901549 0.814977C0.140154 0.494979 0.360153 0.294981 0.67015 0.234982Z" fill="#E6E6E6"/>
<path fill-rule="evenodd" clip-rule="evenodd" d="M0.67015 0.134999C1.66014 -0.0449996 2.64013 -0.0449996 3.61012 0.134999C3.92012 0.184998 4.12012 0.394996 4.18012 0.704994C4.37012 1.68499 4.37012 2.66498 4.18012 3.64497C4.12012 3.95496 3.92012 4.18496 3.61012 4.21496C2.64013 4.30496 1.66014 4.30496 0.67015 4.21496C0.350153 4.18496 0.130155 3.95496 0.0901549 3.64497C-0.0198441 2.66498 -0.0398439 1.68499 0.0901549 0.704994C0.140154 0.394996 0.360153 0.184998 0.67015 0.134999Z" fill="white"/>
<path fill-rule="evenodd" clip-rule="evenodd" d="M0.89014 0.414982C1.78013 0.254983 2.65012 0.254983 3.52012 0.414982C3.80011 0.464981 3.98011 0.65498 4.04011 0.924977C4.21011 1.80497 4.20011 2.68496 4.04011 3.56495C3.98011 3.84495 3.80011 4.05495 3.52012 4.07495C2.65012 4.15495 1.78013 4.15495 0.89014 4.07495C0.610142 4.05495 0.400144 3.84495 0.370145 3.56495C0.270145 2.68496 0.250146 1.80497 0.370145 0.924977C0.410144 0.64498 0.610142 0.464981 0.89014 0.414982Z" fill="#E6E6E6"/>
<path fill-rule="evenodd" clip-rule="evenodd" d="M0.820204 0.335029C1.7102 0.185031 2.59019 0.175031 3.46018 0.335029C3.74018 0.395029 3.92018 0.575027 3.97018 0.855025C4.14017 1.73502 4.14017 2.61501 3.97018 3.485C3.92018 3.765 3.74018 3.975 3.46018 4.005C2.59019 4.085 1.7102 4.085 0.820204 4.005C0.540206 3.975 0.340208 3.765 0.310208 3.485C0.210209 2.61501 0.190209 1.73502 0.310208 0.855025C0.350208 0.575027 0.540206 0.385029 0.820204 0.335029Z" fill="#00B0DC"/>
<path fill-rule="evenodd" clip-rule="evenodd" d="M0.820204 0.164982C1.7102 0.00498326 2.59019 0.00498326 3.46018 0.164982C3.74018 0.214981 3.92018 0.39498 3.97018 0.674977C4.14017 1.55497 4.14017 2.43496 3.97018 3.31495C3.92018 3.58495 3.74018 3.79495 3.46018 3.82495C2.59019 3.90495 1.7102 3.90495 0.820204 3.82495C0.540206 3.79495 0.340208 3.59495 0.310208 3.31495C0.210209 2.43496 0.190209 1.55497 0.310208 0.674977C0.350208 0.39498 0.540206 0.214981 0.820204 0.164982Z" fill="#99FFFF"/>
<path fill-rule="evenodd" clip-rule="evenodd" d="M0.840186 0.185001C1.72018 0.0250028 2.58017 0.0250028 3.44016 0.185001C3.72016 0.235001 3.90016 0.414999 3.95016 0.694997C4.12016 1.55499 4.11016 2.42498 3.95016 3.29497C3.90016 3.56497 3.72016 3.77497 3.44016 3.79497C2.58017 3.87497 1.72018 3.87497 0.840186 3.79497C0.560189 3.77497 0.360191 3.56497 0.330191 3.29497C0.240192 2.42498 0.220192 1.55499 0.330191 0.694997C0.37019 0.414999 0.570189 0.235001 0.840186 0.185001Z" fill="#8BFAFF"/>
<path fill-rule="evenodd" clip-rule="evenodd" d="M0.86013 0.205028C1.72012 0.0550296 2.58012 0.0550296 3.42011 0.205028C3.69011 0.255028 3.8701 0.435026 3.9201 0.705024C4.0901 1.56502 4.0901 2.41501 3.9201 3.275C3.8701 3.545 3.70011 3.745 3.42011 3.775C2.58012 3.855 1.72012 3.855 0.86013 3.775C0.580133 3.755 0.390135 3.545 0.360135 3.275C0.260136 2.41501 0.240136 1.56502 0.360135 0.705024C0.390135 0.435026 0.590133 0.255028 0.86013 0.205028Z" fill="#7DF6FF"/>
<path fill-rule="evenodd" clip-rule="evenodd" d="M0.880235 0.234993C1.73023 0.0849939 2.57022 0.074994 3.41021 0.234993C3.67021 0.284992 3.85021 0.454991 3.90021 0.724988C4.06021 1.56498 4.06021 2.41497 3.90021 3.25497C3.85021 3.52496 3.68021 3.72496 3.41021 3.75496C2.57022 3.82496 1.73023 3.82496 0.880235 3.75496C0.610238 3.72496 0.410239 3.52496 0.38024 3.25497C0.29024 2.41497 0.270241 1.56498 0.38024 0.724988C0.420239 0.454991 0.610238 0.274992 0.880235 0.234993Z" fill="#6FF1FF"/>
<path fill-rule="evenodd" clip-rule="evenodd" d="M0.890179 0.254955C1.73017 0.104956 2.57016 0.104956 3.39016 0.254955C3.65015 0.304955 3.83015 0.474953 3.88015 0.744951C4.04015 1.57494 4.03015 2.40494 3.88015 3.23493C3.83015 3.50493 3.66015 3.70492 3.39016 3.72492C2.57016 3.80492 1.73017 3.80492 0.890179 3.72492C0.630182 3.70492 0.440183 3.50493 0.410184 3.23493C0.310185 2.40494 0.290185 1.57494 0.410184 0.744951C0.440183 0.474953 0.630182 0.304955 0.890179 0.254955Z" fill="#61ECFF"/>
<path fill-rule="evenodd" clip-rule="evenodd" d="M0.910162 0.274982C1.74015 0.134983 2.56015 0.134983 3.37014 0.274982C3.63014 0.324982 3.80014 0.50498 3.85014 0.754978C4.01013 1.58497 4.01013 2.40496 3.85014 3.22496C3.80014 3.48495 3.64014 3.67495 3.37014 3.70495C2.56015 3.77495 1.74015 3.77495 0.910162 3.70495C0.650164 3.67495 0.460166 3.48495 0.430166 3.22496C0.340167 2.40496 0.320167 1.58497 0.430166 0.754978C0.470166 0.49498 0.650164 0.324982 0.910162 0.274982Z" fill="#53E8FF"/>
<path fill-rule="evenodd" clip-rule="evenodd" d="M0.930137 0.305004C1.75013 0.155005 2.56012 0.155005 3.36012 0.305004C3.61011 0.355003 3.78011 0.525002 3.83011 0.775C3.98011 1.58499 3.98011 2.39499 3.83011 3.20498C3.78011 3.45498 3.61011 3.65497 3.36012 3.67497C2.56012 3.74497 1.75013 3.74497 0.930137 3.67497C0.67014 3.65497 0.480141 3.46498 0.460142 3.20498C0.360142 2.39499 0.350143 1.58499 0.460142 0.775C0.490141 0.515002 0.67014 0.345004 0.930137 0.305004Z" fill="#46E3FF"/>
<path fill-rule="evenodd" clip-rule="evenodd" d="M0.950211 0.32497C1.7502 0.184971 2.5502 0.184971 3.34019 0.32497C3.59019 0.374969 3.76019 0.544968 3.80019 0.794966C3.96018 1.59496 3.96018 2.38495 3.80019 3.18494C3.76019 3.43494 3.59019 3.62494 3.34019 3.65494C2.5502 3.72494 1.7502 3.72494 0.950211 3.65494C0.690213 3.62494 0.510215 3.44494 0.480215 3.18494C0.390216 2.38495 0.370216 1.59496 0.480215 0.794966C0.510215 0.534968 0.690213 0.374969 0.950211 0.32497Z" fill="#38DFFF"/>
<path fill-rule="evenodd" clip-rule="evenodd" d="M0.960198 0.354997C1.76019 0.214998 2.54018 0.204998 3.32018 0.354997C3.57017 0.394997 3.73017 0.564995 3.78017 0.814993C3.93017 1.59499 3.93017 2.38498 3.78017 3.16497C3.73017 3.41497 3.57017 3.60497 3.32018 3.62497C2.54018 3.69497 1.76019 3.69497 0.960198 3.62497C0.7102 3.60497 0.530201 3.41497 0.500202 3.16497C0.420202 2.38498 0.400202 1.59499 0.500202 0.814993C0.540201 0.564995 0.7202 0.394997 0.960198 0.354997Z" fill="#2ADAFF"/>
<path fill-rule="evenodd" clip-rule="evenodd" d="M0.980138 0.375019C1.76013 0.23502 2.54012 0.23502 3.30012 0.375019C3.55012 0.425018 3.71011 0.585017 3.76011 0.825015C3.91011 1.60501 3.90011 2.375 3.76011 3.14499C3.71011 3.39499 3.55012 3.57499 3.30012 3.60499C2.54012 3.67499 1.76013 3.67499 0.980138 3.60499C0.73014 3.58499 0.560142 3.39499 0.530142 3.14499C0.440143 2.375 0.420143 1.60501 0.530142 0.825015C0.560142 0.585017 0.74014 0.415018 0.980138 0.375019Z" fill="#1CD5FF"/>
<path fill-rule="evenodd" clip-rule="evenodd" d="M1.00025 0.394984C1.77024 0.264986 2.53023 0.264986 3.29023 0.394984C3.53022 0.444984 3.69022 0.604983 3.73022 0.84498C3.88022 1.60497 3.88022 2.36497 3.73022 3.13496C3.69022 3.37496 3.53022 3.55496 3.29023 3.57496C2.53023 3.64496 1.77024 3.64496 1.00025 3.57496C0.760249 3.55496 0.58025 3.37496 0.55025 3.13496C0.470251 2.36497 0.450251 1.60497 0.55025 0.84498C0.59025 0.604983 0.760249 0.444984 1.00025 0.394984Z" fill="#0ED1FF"/>
<path fill-rule="evenodd" clip-rule="evenodd" d="M1.02021 0.425006C1.7802 0.285008 2.53019 0.285008 3.27019 0.425006C3.51018 0.465006 3.66018 0.625005 3.71018 0.865003C3.85018 1.615 3.85018 2.36499 3.71018 3.11498C3.66018 3.35498 3.51018 3.53498 3.27019 3.55498C2.53019 3.62498 1.7802 3.62498 1.02021 3.55498C0.780208 3.53498 0.61021 3.35498 0.58021 3.11498C0.490211 2.36499 0.480211 1.615 0.58021 0.865003C0.61021 0.625005 0.780208 0.465006 1.02021 0.425006Z" fill="#00CCFF"/>
<path fill-rule="evenodd" clip-rule="evenodd" d="M0.820097 0.164982C1.71009 0.00498326 2.59008 0.00498326 3.46007 0.164982C3.74007 0.214981 3.92007 0.39498 3.97007 0.674977C4.05007 1.07497 4.09007 1.46497 4.10007 1.86497C2.45008 1.19497 1.34009 2.99496 0.230103 1.86497C0.230103 1.46497 0.250102 1.06497 0.310102 0.674977C0.350101 0.39498 0.5401 0.214981 0.820097 0.164982Z" fill="white" fill-opacity="0.290196"/>
<path fill-rule="evenodd" clip-rule="evenodd" d="M0.790192 0.285034C0.990191 0.285034 1.14019 0.435033 1.14019 0.625031C1.14019 0.825029 0.990191 0.975028 0.790192 0.975028C0.600194 0.975028 0.450195 0.825029 0.450195 0.625031C0.450195 0.435033 0.600194 0.285034 0.790192 0.285034Z" fill="white"/>
<path fill-rule="evenodd" clip-rule="evenodd" d="M1.32014 0.13501C1.42014 0.13501 1.50014 0.215009 1.50014 0.305008C1.50014 0.405007 1.42014 0.475007 1.32014 0.475007C1.23015 0.475007 1.15015 0.405007 1.15015 0.305008C1.15015 0.215009 1.23015 0.13501 1.32014 0.13501Z" fill="white"/>
<path fill-rule="evenodd" clip-rule="evenodd" d="M3.54008 3.32495C3.65008 3.32495 3.75007 3.41495 3.75007 3.53495C3.75007 3.64495 3.65008 3.74495 3.54008 3.74495C3.42008 3.74495 3.33008 3.64495 3.33008 3.53495C3.33008 3.41495 3.42008 3.32495 3.54008 3.32495Z" fill="white"/>
<path d="M1.39009 2.00498V2.25498H1.37009H1.36009H1.35009L1.33009 2.26498H1.32009H1.31009H1.30009H1.31009L1.32009 2.25498L1.33009 2.24498V2.23498V2.22498V2.21498H1.34009V2.20498H1.33009H1.34009V2.21498V2.22498H1.35009V2.23498L1.14009 2.36498L1.13009 2.35498V2.34498L1.12009 2.33498V2.32498L1.11009 2.30498L1.10009 2.29498V2.28498V2.27498L1.09009 2.25498V2.23498V2.22498V2.20498V2.18498V2.16498L1.10009 2.14498L1.11009 2.12498L1.12009 2.10498L1.13009 2.08498L1.15009 2.07498L1.16009 2.06498L1.18009 2.05498L1.20009 2.04498L1.22009 2.03498L1.23009 2.02498H1.25009L1.27009 2.01498H1.29009H1.31009H1.33009H1.35009L1.37009 2.00498H1.39009ZM3.07007 2.25498H1.39009V2.00498H3.07007V2.25498ZM3.28007 2.34498L3.09007 2.17498L3.08007 2.19498L3.09007 2.18498V2.19498V2.20498V2.21498V2.22498L3.10007 2.23498V2.24498L3.11007 2.25498H3.12007V2.26498H3.11007V2.25498H3.10007H3.09007H3.08007H3.07007V2.00498H3.09007H3.10007L3.12007 2.01498H3.13007H3.14007H3.16007H3.17007L3.18007 2.02498H3.20007H3.21007L3.23007 2.03498L3.24007 2.04498L3.25007 2.05498H3.27007L3.28007 2.07498L3.29007 2.08498L3.30007 2.09498L3.31007 2.11498L3.32007 2.13498L3.33007 2.15498V2.16498V2.18498V2.20498V2.21498V2.23498V2.24498L3.32007 2.26498V2.27498L3.31007 2.28498V2.30498L3.30007 2.31498V2.32498L3.28007 2.34498ZM3.30007 2.32498L3.29007 2.33498L3.28007 2.34498L3.30007 2.32498ZM2.20008 3.23497L3.09007 2.17498L3.28007 2.34498L2.39008 3.39497L2.37008 3.41497L2.20008 3.23497ZM2.39008 3.39497L2.38008 3.40497L2.37008 3.41497L2.39008 3.39497ZM2.01008 3.39497L2.20008 3.23497L2.18008 3.21497L2.19008 3.22497H2.20008H2.21008L2.22008 3.21497L2.37008 3.41497L2.36008 3.42497H2.35008L2.34008 3.43497L2.33008 3.44497H2.32008L2.31008 3.45497H2.30008L2.29008 3.46497H2.28008H2.26008L2.25008 3.47497H2.24008H2.23008H2.22008H2.20008H2.19008H2.18008H2.17008H2.16008H2.14008L2.13008 3.46497H2.12008H2.11008L2.10008 3.45497H2.09008L2.08008 3.44497H2.07008L2.06008 3.43497L2.05008 3.42497H2.04008L2.03008 3.41497L2.01008 3.39497ZM2.03008 3.41497L2.02008 3.40497L2.01008 3.39497L2.03008 3.41497ZM1.34009 2.21498L2.20008 3.23497L2.01008 3.39497L1.15009 2.37498L1.14009 2.36498L1.34009 2.21498ZM1.15009 2.37498H1.14009V2.36498L1.15009 2.37498ZM1.39009 1.77498V2.02498H1.37009H1.35009L1.33009 2.01498H1.31009H1.29009H1.27009L1.25009 2.00498H1.23009L1.22009 1.99498L1.20009 1.98498H1.18009L1.16009 1.96498L1.15009 1.95498L1.13009 1.94498L1.12009 1.92498L1.11009 1.90498L1.10009 1.88498L1.09009 1.86498V1.84498V1.82498V1.80498V1.79498V1.77498L1.10009 1.76498V1.74498V1.73498L1.11009 1.72498L1.12009 1.71498V1.69498L1.13009 1.68498V1.67498L1.14009 1.66498L1.35009 1.79498V1.80498H1.34009V1.81498V1.82498H1.33009H1.34009L1.33009 1.81498V1.80498V1.79498V1.78498H1.32009V1.77498L1.31009 1.76498H1.30009H1.31009H1.32009L1.33009 1.77498H1.35009H1.36009H1.37009H1.39009ZM3.07007 2.02498H1.39009V1.77498H3.07007V2.02498ZM3.09007 1.85498L3.28007 1.69498L3.30007 1.70498V1.71498L3.31007 1.73498V1.74498L3.32007 1.75498V1.76498L3.33007 1.78498V1.79498V1.81498V1.82498V1.84498V1.86498V1.88498L3.32007 1.89498L3.31007 1.91498L3.30007 1.93498L3.29007 1.94498L3.28007 1.95498L3.27007 1.97498L3.25007 1.98498H3.24007L3.23007 1.99498L3.21007 2.00498H3.20007L3.18007 2.01498H3.17007H3.16007H3.14007H3.13007L3.11007 2.02498H3.10007H3.09007H3.07007V1.77498H3.08007H3.09007H3.10007H3.11007L3.12007 1.76498V1.77498H3.11007L3.10007 1.78498L3.09007 1.79498V1.80498V1.81498V1.82498V1.83498V1.84498L3.08007 1.83498L3.09007 1.85498ZM3.28007 1.69498H3.29007L3.30007 1.70498L3.28007 1.69498ZM2.39008 0.634992L3.28007 1.69498L3.09007 1.85498L2.20008 0.794991L2.37008 0.614992L2.39008 0.634992ZM2.37008 0.614992L2.38008 0.624992L2.39008 0.634992L2.37008 0.614992ZM2.20008 0.794991L2.01008 0.634992L2.03008 0.624992V0.614992L2.04008 0.604992H2.05008L2.06008 0.594992L2.07008 0.584992H2.08008H2.09008L2.10008 0.574992H2.11008L2.12008 0.564993H2.13008H2.14008L2.16008 0.554993H2.17008H2.18008H2.19008H2.20008H2.22008H2.23008H2.24008H2.25008L2.26008 0.564993H2.28008H2.29008L2.30008 0.574992H2.31008L2.32008 0.584992H2.33008L2.34008 0.594992L2.35008 0.604992H2.36008L2.37008 0.614992L2.22008 0.81499L2.21008 0.80499H2.20008H2.19008V0.81499H2.18008L2.20008 0.794991ZM2.01008 0.634992L2.02008 0.624992H2.03008L2.01008 0.634992ZM1.15009 1.65498L2.01008 0.634992L2.20008 0.794991L1.34009 1.81498L1.14009 1.66498L1.15009 1.65498ZM1.14009 1.66498V1.65498H1.15009L1.14009 1.66498Z" fill="#00B0DC"/>
<path fill-rule="evenodd" clip-rule="evenodd" d="M1.24004 2.29498C1.19004 2.21498 1.18004 2.13498 1.39004 2.13498H3.07003C3.21003 2.13498 3.24003 2.17498 3.19003 2.25498L2.29003 3.31497C2.23003 3.36497 2.16004 3.36497 2.10004 3.31497L1.24004 2.29498ZM1.24004 1.73498C1.19004 1.82498 1.18004 1.89498 1.39004 1.89498H3.07003C3.21003 1.89498 3.24003 1.85498 3.19003 1.77498L2.29003 0.71499C2.23003 0.66499 2.16004 0.66499 2.10004 0.71499L1.24004 1.73498Z" fill="white"/>
<path fill-rule="evenodd" clip-rule="evenodd" d="M1.39004 1.89497H3.07003C3.21003 1.89497 3.24003 1.85497 3.19003 1.77498L3.16003 1.73498C3.14003 1.74498 3.11003 1.74498 3.07003 1.74498H1.39004C1.32004 1.74498 1.28004 1.73498 1.25004 1.72498L1.24004 1.73498C1.19004 1.82497 1.18004 1.89497 1.39004 1.89497Z" fill="black" fill-opacity="0.101961"/>
<path fill-rule="evenodd" clip-rule="evenodd" d="M2.10003 3.15501L1.25003 2.15502C1.19003 2.18502 1.21003 2.23502 1.24003 2.29502L2.04003 3.24501L2.10003 3.31501C2.16003 3.36501 2.23003 3.36501 2.29002 3.31501L2.36002 3.24501L3.19002 2.25502C3.22002 2.20502 3.22002 2.16502 3.16002 2.14502L2.29002 3.16501C2.23003 3.21501 2.16003 3.20501 2.10003 3.15501Z" fill="black" fill-opacity="0.101961"/>
</svg>
