<svg width="50" height="50" viewBox="0 0 50 50" fill="none" xmlns="http://www.w3.org/2000/svg">
<path fill-rule="evenodd" clip-rule="evenodd" d="M8.61241 4.99936C19.8558 3.09006 30.9416 3.09006 41.9223 4.99936C45.4424 5.65254 47.7542 7.86331 48.3846 11.2297C50.5387 21.8314 50.5387 32.433 48.3846 43.0849C47.7542 46.4513 45.495 48.9635 41.9223 49.265C30.9416 50.2699 19.8558 50.2196 8.61241 49.265C5.03975 48.9635 2.51786 46.4513 2.09755 43.0849C0.889145 32.433 0.626449 21.8314 2.09755 11.2297C2.62294 7.86331 5.09228 5.6023 8.61241 4.99936Z" fill="black" fill-opacity="0.101961"/>
<path fill-rule="evenodd" clip-rule="evenodd" d="M7.50885 2.58725C18.7522 0.677948 29.838 0.677948 40.8187 2.58725C44.3388 3.24043 46.6506 5.4512 47.3336 8.81761C49.4351 19.4193 49.4351 30.0209 47.3336 40.6728C46.6506 43.989 44.3914 46.5515 40.8187 46.8529C29.838 47.8076 18.7522 47.8076 7.50885 46.8529C3.93619 46.5515 1.4143 44.0392 1.04653 40.6728C-0.214411 30.0209 -0.477107 19.4193 1.04653 8.81761C1.51938 5.40096 3.98873 3.19019 7.50885 2.58725Z" fill="#E6E6E6"/>
<path fill-rule="evenodd" clip-rule="evenodd" d="M7.50885 1.43198C18.7522 -0.477325 29.838 -0.477325 40.8187 1.43198C44.3388 2.03491 46.6506 4.29593 47.3336 7.66233C49.4351 18.264 49.4351 28.8656 47.3336 39.5175C46.6506 42.8337 44.3914 45.3961 40.8187 45.6976C29.838 46.6523 18.7522 46.6523 7.50885 45.6976C3.93619 45.3961 1.4143 42.8839 1.04653 39.5175C-0.214411 28.8656 -0.477107 18.264 1.04653 7.66233C1.51938 4.24568 3.98873 2.03491 7.50885 1.43198Z" fill="white"/>
<path fill-rule="evenodd" clip-rule="evenodd" d="M9.97862 4.54722C20.0662 2.8389 30.0487 2.78865 39.8735 4.54722C43.0259 5.09991 45.0749 7.10971 45.7054 10.0741C47.5968 19.6207 47.5968 29.1169 45.7054 38.6634C45.0749 41.6781 43.0784 43.9391 39.8735 44.2406C30.0487 45.0948 20.0662 45.0948 9.97862 44.2406C6.82626 43.9391 4.51453 41.6781 4.1993 38.6634C3.04343 29.1169 2.83327 19.6207 4.1993 10.0741C4.61961 7.05946 6.82626 5.04967 9.97862 4.54722Z" fill="#E6E6E6"/>
<path fill-rule="evenodd" clip-rule="evenodd" d="M9.2423 3.69335C19.3298 1.98503 29.3123 1.98503 39.1372 3.69335C42.2895 4.24604 44.3386 6.25583 44.969 9.27052C46.8605 18.7668 46.8605 28.3133 44.969 37.8096C44.3386 40.8242 42.3421 43.0853 39.1372 43.3867C29.3123 44.2409 19.3298 44.2409 9.2423 43.3867C6.08994 43.1355 3.83074 40.8745 3.46297 37.8096C2.3071 28.3133 2.09695 18.7668 3.46297 9.27052C3.88328 6.20559 6.08994 4.24604 9.2423 3.69335Z" fill="#CC191C"/>
<path fill-rule="evenodd" clip-rule="evenodd" d="M9.2423 1.73317C19.3298 0.075096 29.3123 0.0248513 39.1372 1.73317C42.2895 2.33611 44.3386 4.29566 44.969 7.31034C46.8605 16.8568 46.8605 26.3531 44.969 35.8996C44.3386 38.9143 42.3421 41.1753 39.1372 41.4265C29.3123 42.3309 19.3298 42.2807 9.2423 41.4265C6.08994 41.1753 3.83074 38.9143 3.46297 35.8996C2.3071 26.3531 2.09695 16.8568 3.46297 7.31034C3.88328 4.29566 6.08994 2.28587 9.2423 1.73317Z" fill="#FF6595"/>
<path fill-rule="evenodd" clip-rule="evenodd" d="M9.45267 2.03466C19.3826 0.326338 29.2075 0.326338 38.9273 2.03466C42.0271 2.53711 44.0761 4.54689 44.7066 7.51133C46.598 16.9071 46.5455 26.3029 44.7066 35.6986C44.0761 38.663 42.0796 40.9241 38.9273 41.1753C29.2075 42.0294 19.3826 42.0294 9.45267 41.1753C6.30031 40.9241 4.09366 38.7133 3.72588 35.6986C2.62256 26.3029 2.4124 16.9071 3.72588 7.51133C4.1462 4.49665 6.35285 2.53711 9.45267 2.03466Z" fill="#FD628E"/>
<path fill-rule="evenodd" clip-rule="evenodd" d="M9.66317 2.2864C19.488 0.628319 29.1552 0.578074 38.7699 2.2864C41.8172 2.78884 43.8137 4.74839 44.3916 7.71283C46.283 16.9579 46.2305 26.2532 44.3916 35.4982C43.8137 38.4124 41.8697 40.6232 38.7699 40.9246C29.1552 41.7788 19.488 41.7285 9.66317 40.9246C6.56335 40.6734 4.3567 38.4626 3.98893 35.4982C2.93814 26.2532 2.67545 16.9579 3.98893 7.71283C4.40924 4.74839 6.61589 2.78884 9.66317 2.2864Z" fill="#FA5E87"/>
<path fill-rule="evenodd" clip-rule="evenodd" d="M9.87268 2.53653C19.5399 0.878449 29.102 0.878449 38.5591 2.53653C41.5538 3.03898 43.5503 4.99852 44.1283 7.86248C45.9671 17.007 45.9671 26.1516 44.1283 35.2962C43.5503 38.2103 41.6064 40.3709 38.5591 40.6723C29.102 41.4763 19.5399 41.4763 9.87268 40.6723C6.8254 40.3709 4.61875 38.2103 4.30352 35.2962C3.20019 26.1516 2.99004 17.007 4.30352 7.86248C4.67129 4.94828 6.8254 3.03898 9.87268 2.53653Z" fill="#F85B80"/>
<path fill-rule="evenodd" clip-rule="evenodd" d="M10.0831 2.78827C19.5927 1.18043 29.0497 1.13019 38.3492 2.78827C41.3439 3.29071 43.2879 5.20002 43.8658 8.06397C45.7047 17.0578 45.6522 26.1019 43.8658 35.0957C43.2879 37.9596 41.3965 40.1201 38.3492 40.3714C29.0497 41.2255 19.5927 41.1753 10.0831 40.3714C7.03578 40.1201 4.88167 38.0099 4.56644 35.0957C3.51565 26.1019 3.30549 17.0578 4.56644 8.06397C4.98675 5.20002 7.08832 3.29071 10.0831 2.78827Z" fill="#F65879"/>
<path fill-rule="evenodd" clip-rule="evenodd" d="M10.2937 3.03937C19.6982 1.43154 28.9452 1.43154 38.1395 3.03937C41.0817 3.54182 43.0257 5.45112 43.6036 8.26483C45.39 17.1582 45.39 26.0515 43.6036 34.8946C43.0257 37.7083 41.1343 39.8688 38.1395 40.12C28.9452 40.9239 19.6982 40.9239 10.2937 40.12C7.29897 39.8688 5.19739 37.7585 4.82962 34.8946C3.77883 26.0515 3.56868 17.1582 4.82962 8.26483C5.24993 5.40088 7.35151 3.54182 10.2937 3.03937Z" fill="#F35572"/>
<path fill-rule="evenodd" clip-rule="evenodd" d="M10.4515 3.29075C19.751 1.73316 28.8928 1.73316 37.9821 3.29075C40.8717 3.7932 42.7632 5.65225 43.3411 8.41571C45.0749 17.2085 45.0749 25.9511 43.3411 34.7439C42.7632 37.5074 40.9243 39.5674 37.9821 39.8689C28.8928 40.6226 19.751 40.6226 10.4515 39.8689C7.56189 39.6177 5.46032 37.5074 5.09254 34.7439C4.0943 25.9511 3.88414 17.2085 5.09254 8.41571C5.51286 5.65225 7.56189 3.7932 10.4515 3.29075Z" fill="#F1516C"/>
<path fill-rule="evenodd" clip-rule="evenodd" d="M10.6612 3.54201C19.803 2.03466 28.8398 1.98442 37.7715 3.54201C40.6086 4.04445 42.5 5.90351 43.0779 8.61673C44.8117 17.2588 44.7592 25.9009 43.0779 34.543C42.5 37.2563 40.6611 39.3163 37.7715 39.5675C28.8398 40.3714 19.803 40.3714 10.6612 39.5675C7.77153 39.3163 5.72249 37.3065 5.40726 34.543C4.35647 25.9009 4.14631 17.2588 5.40726 8.61673C5.77503 5.85327 7.82406 4.04445 10.6612 3.54201Z" fill="#EE4E65"/>
<path fill-rule="evenodd" clip-rule="evenodd" d="M10.8716 3.84348C19.8558 2.2859 28.7875 2.2859 37.5615 3.84348C40.3986 4.29569 42.2375 6.1045 42.7629 8.81772C44.4967 17.3091 44.4967 25.8507 42.7629 34.3421C42.2375 37.005 40.4512 39.0651 37.5615 39.3163C28.7875 40.07 19.8558 40.07 10.8716 39.3163C8.03445 39.0651 5.98542 37.0553 5.67018 34.3421C4.67194 25.8005 4.46178 17.3091 5.67018 8.81772C6.03796 6.1045 8.03445 4.29569 10.8716 3.84348Z" fill="#EC4B5E"/>
<path fill-rule="evenodd" clip-rule="evenodd" d="M11.082 4.09523C19.9611 2.58788 28.7352 2.53764 37.4041 4.09523C40.1362 4.54743 41.975 6.35624 42.5004 8.96897C44.1817 17.3598 44.1817 25.7507 42.5004 34.1416C41.975 36.8046 40.1887 38.8144 37.4041 39.0656C28.7352 39.8193 19.9611 39.8193 11.082 39.0656C8.24484 38.8144 6.24835 36.8046 5.93312 34.1416C4.98741 25.7507 4.77725 17.3598 5.93312 8.96897C6.35343 6.306 8.29738 4.54743 11.082 4.09523Z" fill="#EA4857"/>
<path fill-rule="evenodd" clip-rule="evenodd" d="M11.2916 4.34584C20.0131 2.8385 28.6296 2.8385 37.1935 4.34584C39.9255 4.79804 41.7119 6.55661 42.2373 9.16934C43.9185 17.4095 43.866 25.6999 42.2373 33.94C41.7119 36.5527 39.9781 38.5123 37.1935 38.7635C28.6296 39.5172 20.0131 39.5172 11.2916 38.7635C8.50701 38.5625 6.56306 36.603 6.24782 33.94C5.24957 25.6999 5.03941 17.4095 6.24782 9.16934C6.6156 6.55661 8.55955 4.79804 11.2916 4.34584Z" fill="#E74450"/>
<path fill-rule="evenodd" clip-rule="evenodd" d="M11.502 4.59771C20.0659 3.14061 28.5773 3.14061 36.9836 4.59771C39.6631 5.04991 41.4494 6.80848 41.9748 9.37097C43.6035 17.5106 43.6035 25.6001 41.9748 33.7397C41.4494 36.3525 39.7156 38.2618 36.9836 38.513C28.5773 39.2667 20.0659 39.2667 11.502 38.513C8.76994 38.2618 6.82599 36.3525 6.51075 33.7397C5.56505 25.6001 5.35489 17.5106 6.51075 9.37097C6.87853 6.75824 8.76994 5.04991 11.502 4.59771Z" fill="#E54149"/>
<path fill-rule="evenodd" clip-rule="evenodd" d="M9.24262 1.73317C19.3302 0.0750965 29.3127 0.0248518 39.1375 1.73317C42.2899 2.33611 44.3389 4.29565 44.9694 7.31033C45.81 11.6314 46.2829 15.9524 46.388 20.2735C27.6839 12.9377 15.127 32.4327 2.51758 20.173C2.57012 15.9022 2.83281 11.5811 3.46329 7.31033C3.8836 4.29565 6.09026 2.28586 9.24262 1.73317Z" fill="white" fill-opacity="0.290196"/>
<path fill-rule="evenodd" clip-rule="evenodd" d="M8.92679 3.04004C11.1335 3.04004 12.8673 4.74835 12.8673 6.80837C12.8673 8.91864 11.1335 10.5767 8.92679 10.5767C6.77267 10.5767 4.98633 8.91864 4.98633 6.80837C4.98633 4.74835 6.77267 3.04004 8.92679 3.04004Z" fill="white"/>
<path fill-rule="evenodd" clip-rule="evenodd" d="M14.9693 1.48193C16.0201 1.48193 16.9133 2.28585 16.9133 3.34098C16.9133 4.34587 16.0201 5.20003 14.9693 5.20003C13.866 5.20003 13.0254 4.34587 13.0254 3.34098C13.0254 2.28585 13.866 1.48193 14.9693 1.48193Z" fill="white"/>
<path fill-rule="evenodd" clip-rule="evenodd" d="M40.0309 36.0508C41.3444 36.0508 42.3951 37.0557 42.3951 38.3118C42.3951 39.5679 41.3444 40.5728 40.0309 40.5728C38.77 40.5728 37.7192 39.5679 37.7192 38.3118C37.7192 37.0557 38.77 36.0508 40.0309 36.0508Z" fill="white"/>
<path fill-rule="evenodd" clip-rule="evenodd" d="M20.2236 24.7958C21.9574 24.7958 23.5861 25.1475 24.8995 25.7002C23.5861 20.5249 21.9048 13.7419 20.5913 8.5667C19.8558 6.05446 25.8453 7.36082 28.0519 8.71743C30.206 10.074 31.6771 13.6414 36.7734 12.938C33.9363 16.1537 29.7857 13.9429 26.791 13.4404C25.1097 13.139 24.0589 14.3448 24.3742 15.2995L27.3164 27.2577C28.1044 28.0617 28.5773 28.9661 28.5773 29.971C28.5773 32.8349 24.847 35.1462 20.2236 35.1462C15.6526 35.1462 11.9224 32.8349 11.9224 29.971C11.9224 27.107 15.6526 24.7958 20.2236 24.7958Z" stroke="#CC191C" stroke-width="0.507295"/>
<path fill-rule="evenodd" clip-rule="evenodd" d="M20.2236 24.7958C21.9574 24.7958 23.5861 25.1475 24.8995 25.7002C23.5861 20.5249 21.9048 13.7419 20.5913 8.5667C19.8558 6.05446 25.8453 7.36082 28.0519 8.71743C30.206 10.074 31.6771 13.6414 36.7734 12.938C33.9363 16.1537 29.7857 13.9429 26.791 13.4404C25.1097 13.139 24.0589 14.3448 24.3742 15.2995L27.3164 27.2577C28.1044 28.0617 28.5773 28.9661 28.5773 29.971C28.5773 32.8349 24.847 35.1462 20.2236 35.1462C15.6526 35.1462 11.9224 32.8349 11.9224 29.971C11.9224 27.107 15.6526 24.7958 20.2236 24.7958Z" fill="white"/>
<path fill-rule="evenodd" clip-rule="evenodd" d="M28.157 28.3125C27.8943 31.0257 24.2691 33.1863 19.8033 33.1863C16.1255 33.1863 13.0257 31.7292 11.9224 29.6691C11.9224 29.7696 11.9224 29.8701 11.9224 29.9706C11.9224 31.3774 12.8155 32.6336 14.2341 33.5882C15.4425 34.3419 17.0187 34.8946 18.805 35.0956C19.2779 35.1458 19.7507 35.1458 20.2236 35.1458C24.847 35.1458 28.5773 32.8345 28.5773 29.9706C28.5773 29.4179 28.4197 28.8652 28.157 28.3125Z" fill="black" fill-opacity="0.101961"/>
<path fill-rule="evenodd" clip-rule="evenodd" d="M29.9956 14.1945C32.3598 14.7974 34.8817 15.0989 36.7731 12.9384C36.0376 13.0389 35.3546 13.0389 34.7766 12.9886C34.1987 12.9384 33.6733 12.8379 33.2005 12.6369C30.9413 12.9384 28.3669 11.833 26.3704 11.4813C25.3721 11.2803 24.584 11.6823 24.1637 12.2349C23.901 12.5364 23.8485 12.9886 23.9536 13.3403L24.3213 14.8477C24.3739 14.094 25.162 13.3906 26.3178 13.3906C26.4755 13.3906 26.6331 13.3906 26.7907 13.4408C27.7364 13.5915 28.8397 13.9433 29.9956 14.1945Z" fill="black" fill-opacity="0.101961"/>
</svg>
