<svg width="127" height="141" fill="none" xmlns="http://www.w3.org/2000/svg"><path fill-rule="evenodd" clip-rule="evenodd" d="M21.911 14.099c28.429-5.385 56.724-5.385 84.619 0 8.808 1.842 14.681 8.076 16.416 17.57 5.472 29.896 5.339 59.793 0 89.831-1.735 9.493-7.474 16.577-16.416 17.428-27.895 2.833-56.19 2.692-84.619 0-9.076-.851-15.482-7.935-16.55-17.428-3.203-30.038-3.737-59.935 0-89.832 1.202-9.493 7.608-15.869 16.55-17.57Z" fill="#000" fill-opacity=".102"/><path fill-rule="evenodd" clip-rule="evenodd" d="M19.109 7.296c28.562-5.384 56.723-5.384 84.618 0 8.942 1.842 14.681 8.077 16.416 17.57 5.472 29.897 5.472 59.793 0 89.832-1.601 9.351-7.474 16.577-16.416 17.427-27.895 2.693-56.056 2.693-84.618 0-9.076-.85-15.483-7.934-16.55-17.427-3.07-30.039-3.737-59.935 0-89.832 1.2-9.635 7.607-15.87 16.55-17.57Z" fill="#E6E6E6"/><path fill-rule="evenodd" clip-rule="evenodd" d="M19.109 4.038c28.562-5.384 56.723-5.384 84.618 0 8.942 1.7 14.681 8.076 16.416 17.57 5.472 29.896 5.472 59.793 0 89.831-1.601 9.352-7.474 16.578-16.416 17.428-27.895 2.692-56.056 2.692-84.618 0-9.076-.85-15.483-7.935-16.55-17.428-3.07-30.038-3.737-59.935 0-89.831 1.2-9.635 7.607-15.87 16.55-17.57Z" fill="#fff"/><path fill-rule="evenodd" clip-rule="evenodd" d="M25.383 12.823c25.625-4.818 50.85-4.96 75.943 0 7.874 1.558 13.213 7.226 14.681 15.586 4.938 26.92 4.805 53.7 0 80.621-1.468 8.502-6.673 14.878-14.681 15.728-25.092 2.409-50.318 2.409-75.943 0-8.142-.85-13.88-7.226-14.815-15.728-2.803-26.92-3.337-53.7 0-80.621 1.201-8.502 6.807-14.17 14.815-15.586Z" fill="#E6E6E6"/><path fill-rule="evenodd" clip-rule="evenodd" d="M23.512 10.415c25.626-4.817 50.851-4.817 75.943 0 8.008 1.559 13.213 7.227 14.681 15.728 4.939 26.78 4.805 53.7 0 80.48-1.468 8.501-6.673 14.877-14.681 15.727-25.092 2.409-50.317 2.409-75.943 0-8.141-.708-13.88-7.084-14.815-15.727-2.803-26.78-3.336-53.7 0-80.48 1.201-8.643 6.807-14.17 14.815-15.728Z" fill="#00B0DC"/><path fill-rule="evenodd" clip-rule="evenodd" d="M23.512 4.888C49.138.212 74.363.07 99.455 4.888c8.008 1.7 13.213 7.226 14.681 15.727 4.939 26.921 4.805 53.7 0 80.622-1.468 8.501-6.673 14.877-14.681 15.586-25.092 2.55-50.317 2.409-75.943 0-8.141-.709-13.88-7.085-14.815-15.586-2.803-26.921-3.336-53.7 0-80.622 1.201-8.501 6.807-14.169 14.815-15.727Z" fill="#9FF"/><path fill-rule="evenodd" clip-rule="evenodd" d="M24.047 5.738C49.272.92 74.231.92 98.922 5.738c7.875 1.416 13.08 7.084 14.548 15.444 4.805 26.496 4.805 52.992 0 79.488-1.468 8.36-6.54 14.736-14.548 15.444-24.691 2.409-49.65 2.409-74.875 0-8.008-.708-13.747-6.943-14.548-15.444-2.803-26.496-3.47-52.992 0-79.488 1.068-8.502 6.673-14.027 14.548-15.444Z" fill="#8BFAFF"/><path fill-rule="evenodd" clip-rule="evenodd" d="M24.582 6.447c24.825-4.675 49.516-4.817 73.807 0 7.875 1.417 12.947 6.943 14.415 15.303 4.805 26.07 4.671 52.284 0 78.354-1.468 8.219-6.54 14.453-14.415 15.303-24.29 2.409-48.982 2.267-73.807 0-7.875-.708-13.48-6.943-14.415-15.303-2.802-26.07-3.336-52.283 0-78.354 1.068-8.36 6.54-13.886 14.415-15.303Z" fill="#7DF6FF"/><path fill-rule="evenodd" clip-rule="evenodd" d="M25.116 7.153c24.558-4.675 48.849-4.675 72.873 0 7.607 1.417 12.679 6.943 14.147 15.02 4.672 25.787 4.538 51.575 0 77.362-1.468 8.218-6.406 14.311-14.147 15.161-24.024 2.267-48.315 2.267-72.873 0-7.875-.85-13.347-6.943-14.281-15.16-2.67-25.788-3.204-51.576 0-77.364 1.067-8.218 6.54-13.602 14.28-15.019Z" fill="#6FF1FF"/><path fill-rule="evenodd" clip-rule="evenodd" d="M25.515 7.863c24.291-4.534 48.182-4.676 71.94 0 7.607 1.416 12.545 6.8 14.013 14.877 4.538 25.363 4.538 50.867 0 76.23-1.468 8.076-6.406 14.168-14.014 14.877-23.757 2.409-47.647 2.267-71.939 0-7.607-.709-13.08-6.66-13.88-14.878-2.803-25.362-3.337-50.866 0-76.229.934-8.076 6.406-13.46 13.88-14.877Z" fill="#61ECFF"/><path fill-rule="evenodd" clip-rule="evenodd" d="M26.05 8.571c23.89-4.534 47.514-4.534 70.87 0 7.475 1.417 12.413 6.801 13.881 14.736 4.538 25.079 4.405 50.158 0 75.096-1.468 7.934-6.273 14.027-13.88 14.735-23.357 2.267-46.98 2.267-70.871 0-7.475-.708-12.947-6.659-13.748-14.736-2.669-24.937-3.203-50.016 0-75.095.935-8.077 6.273-13.32 13.748-14.736Z" fill="#53E8FF"/><path fill-rule="evenodd" clip-rule="evenodd" d="M26.584 9.28c23.624-4.393 46.847-4.393 69.804 0 7.474 1.416 12.279 6.659 13.613 14.452 4.538 24.795 4.538 49.45 0 74.245-1.334 7.793-6.139 13.602-13.613 14.452-22.957 2.126-46.314 2.126-69.804 0-7.474-.708-12.813-6.659-13.613-14.452-2.536-24.796-3.07-49.45 0-74.246 1.067-7.792 6.273-13.035 13.613-14.452Z" fill="#46E3FF"/><path fill-rule="evenodd" clip-rule="evenodd" d="M27.116 9.989c23.224-4.25 46.18-4.392 68.87 0 7.207 1.417 12.011 6.66 13.346 14.31 4.405 24.371 4.405 48.742 0 73.113-1.335 7.651-6.006 13.46-13.347 14.169-22.689 2.267-45.645 2.267-68.869 0-7.34-.709-12.546-6.376-13.48-14.17-2.536-24.37-3.07-48.74 0-73.111 1.068-7.793 6.273-12.894 13.48-14.311Z" fill="#38DFFF"/><path fill-rule="evenodd" clip-rule="evenodd" d="M27.651 10.838c22.823-4.392 45.512-4.392 67.802 0 7.207 1.276 11.878 6.376 13.213 14.028 4.404 23.945 4.271 48.032 0 71.978-1.335 7.51-6.006 13.319-13.213 14.027-22.29 2.126-44.979 2.126-67.802 0-7.207-.708-12.412-6.376-13.213-14.027-2.536-24.087-3.07-48.033 0-71.978.934-7.652 6.006-12.752 13.213-14.028Z" fill="#2ADAFF"/><path fill-rule="evenodd" clip-rule="evenodd" d="M28.184 11.546c22.422-4.251 44.711-4.393 66.733 0 7.074 1.275 11.745 6.376 13.08 13.744 4.271 23.662 4.271 47.324 0 70.986-1.335 7.51-5.872 13.177-13.08 13.886-22.022 2.125-44.31 2.125-66.733 0-7.207-.709-12.28-6.376-13.08-13.886-2.536-23.662-3.07-47.324 0-70.986.934-7.51 6.006-12.47 13.08-13.744Z" fill="#1CD5FF"/><path fill-rule="evenodd" clip-rule="evenodd" d="M28.584 12.255c22.289-4.25 44.178-4.25 65.933 0 6.94 1.275 11.478 6.234 12.813 13.602 4.137 23.237 4.137 46.616 0 69.853-1.335 7.368-5.873 12.894-12.813 13.603-21.755 2.125-43.644 2.125-65.933 0-6.94-.567-12.012-6.093-12.813-13.603-2.402-23.237-2.936-46.616 0-69.853.934-7.368 5.873-12.327 12.813-13.602Z" fill="#0ED1FF"/><path fill-rule="evenodd" clip-rule="evenodd" d="M29.119 12.965c21.888-4.109 43.51-4.109 64.865 0 6.807 1.275 11.345 6.234 12.679 13.46 4.138 22.954 4.004 45.767 0 68.72-1.334 7.368-5.739 12.753-12.68 13.461-21.354 2.125-42.976 2.125-64.864 0-6.94-.708-11.879-6.093-12.546-13.46-2.536-22.954-2.936-45.767 0-68.72.934-7.368 5.739-12.186 12.546-13.46Z" fill="#0CF"/><path fill-rule="evenodd" clip-rule="evenodd" d="M23.512 4.888c25.625-4.676 50.85-4.818 75.943 0 8.008 1.7 13.213 7.226 14.681 15.727 2.269 12.186 3.47 24.371 3.604 36.556-47.381-20.686-79.413 34.29-111.312-.283 0-12.044.8-24.229 2.269-36.273 1.2-8.501 6.807-14.169 14.815-15.727Z" fill="#fff" fill-opacity=".29"/><path fill-rule="evenodd" clip-rule="evenodd" d="M22.712 8.573c5.472 0 10.01 4.817 10.01 10.626 0 5.951-4.538 10.627-10.01 10.627-5.472 0-10.01-4.676-10.01-10.627 0-5.809 4.538-10.626 10.01-10.626ZM38.062 4.18C40.732 4.18 43 6.447 43 9.422c0 2.834-2.269 5.243-4.938 5.243-2.803 0-5.072-2.409-5.072-5.243 0-2.975 2.27-5.242 5.072-5.242ZM101.724 101.663c3.337 0 6.006 2.833 6.006 6.376 0 3.542-2.669 6.376-6.006 6.376s-6.006-2.834-6.006-6.376c0-3.543 2.67-6.376 6.006-6.376Z" fill="#fff"/><path clip-rule="evenodd" d="M51.408 69.924c4.404 0 8.542.992 11.878 2.55C59.95 57.882 55.68 38.754 52.342 24.16c-1.869-7.085 13.213-3.401 18.819.425 5.606 3.825 9.343 13.885 22.156 11.902-7.074 9.068-17.618 2.833-25.36 1.417-4.137-.85-6.806 2.55-6.139 5.242l7.608 33.722c2.002 2.267 3.07 4.818 3.07 7.651 0 8.077-9.343 14.595-21.088 14.595-11.745 0-21.088-6.518-21.088-14.594 0-8.077 9.343-14.595 21.088-14.595Z" stroke="#00B0DC" stroke-width=".507"/><path fill-rule="evenodd" clip-rule="evenodd" d="M51.408 69.924c4.404 0 8.542.992 11.878 2.55C59.95 57.882 55.68 38.754 52.342 24.16c-1.869-7.085 13.213-3.401 18.819.425 5.606 3.825 9.343 13.885 22.156 11.902-7.074 9.068-17.618 2.833-25.36 1.417-4.137-.85-6.806 2.55-6.139 5.242l7.608 33.722c2.002 2.267 3.07 4.818 3.07 7.651 0 8.077-9.343 14.595-21.088 14.595-11.745 0-21.088-6.518-21.088-14.594 0-8.077 9.343-14.595 21.088-14.595Z" fill="#fff"/><path fill-rule="evenodd" clip-rule="evenodd" d="M71.428 79.841c-.668 7.652-9.743 13.744-21.088 13.744-9.343 0-17.217-4.109-20.02-9.918v.85c0 3.967 2.135 7.51 5.872 10.202 3.07 2.125 7.074 3.684 11.479 4.25 1.2.142 2.535.142 3.737.142 11.745 0 21.088-6.517 21.088-14.594 0-1.558-.267-3.117-1.068-4.676ZM76.231 40.028c6.007 1.7 12.28 2.55 17.084-3.542-1.735.283-3.47.283-4.938.141-1.468-.141-2.803-.425-4.004-.991-5.873.85-12.279-2.267-17.35-3.26-2.67-.566-4.672.568-5.606 2.126-.668.85-.935 2.125-.668 3.117l1.068 4.251c.133-2.125 2.002-4.109 4.938-4.109.4 0 .801 0 1.202.142 2.535.425 5.338 1.416 8.275 2.125Z" fill="#000" fill-opacity=".102"/></svg>