<svg width="75" height="75" viewBox="0 0 75 75" fill="none" xmlns="http://www.w3.org/2000/svg">
<path fill-rule="evenodd" clip-rule="evenodd" d="M12.9183 7.49904C29.7834 4.63509 46.412 4.63509 62.8829 7.49904C68.1631 8.47881 71.6307 11.795 72.5764 16.8446C75.8075 32.747 75.8075 48.6495 72.5764 64.6273C71.6307 69.6769 68.2419 73.4453 62.8829 73.8975C46.412 75.4048 29.7834 75.3295 12.9183 73.8975C7.55935 73.4453 3.77654 69.6769 3.14607 64.6273C1.33348 48.6495 0.939433 32.747 3.14607 16.8446C3.93416 11.795 7.63816 8.40344 12.9183 7.49904Z" fill="black" fill-opacity="0.101961"/>
<path fill-rule="evenodd" clip-rule="evenodd" d="M11.2632 3.88088C28.1283 1.01692 44.7568 1.01692 61.2278 3.88088C66.508 4.86065 69.9756 8.17681 71.0001 13.2264C74.1524 29.1289 74.1524 45.0314 71.0001 61.0092C69.9756 65.9835 66.5868 69.8272 61.2278 70.2794C44.7568 71.7114 28.1283 71.7114 11.2632 70.2794C5.90426 69.8272 2.12145 66.0588 1.56979 61.0092C-0.321615 45.0314 -0.715658 29.1289 1.56979 13.2264C2.27906 8.10144 5.98306 4.78528 11.2632 3.88088Z" fill="#E6E6E6"/>
<path fill-rule="evenodd" clip-rule="evenodd" d="M11.2632 2.14796C28.1283 -0.715988 44.7568 -0.715988 61.2278 2.14796C66.508 3.05237 69.9756 6.44389 71.0001 11.4935C74.1524 27.396 74.1524 43.2984 71.0001 59.2763C69.9756 64.2505 66.5868 68.0942 61.2278 68.5464C44.7568 69.9784 28.1283 69.9784 11.2632 68.5464C5.90426 68.0942 2.12145 64.3259 1.56979 59.2763C-0.321615 43.2984 -0.715658 27.396 1.56979 11.4935C2.27906 6.36852 5.98306 3.05237 11.2632 2.14796Z" fill="white"/>
<path fill-rule="evenodd" clip-rule="evenodd" d="M14.9679 6.82035C30.0992 4.25786 45.0728 4.18249 59.81 6.82035C64.5386 7.64938 67.6121 10.6641 68.5578 15.1107C71.3949 29.4305 71.3949 43.6749 68.5578 57.9947C67.6121 62.5167 64.6174 65.9082 59.81 66.3604C45.0728 67.6417 30.0992 67.6417 14.9679 66.3604C10.2394 65.9082 6.77179 62.5167 6.29894 57.9947C4.56515 43.6749 4.24991 29.4305 6.29894 15.1107C6.92941 10.5887 10.2394 7.57402 14.9679 6.82035Z" fill="#E6E6E6"/>
<path fill-rule="evenodd" clip-rule="evenodd" d="M13.8634 5.54003C28.9947 2.97754 43.9683 2.97754 58.7055 5.54003C63.4341 6.36907 66.5076 9.38375 67.4533 13.9058C70.2904 28.1502 70.2904 42.4699 67.4533 56.7143C66.5076 61.2364 63.5129 64.6279 58.7055 65.0801C43.9683 66.3613 28.9947 66.3613 13.8634 65.0801C9.13488 64.7032 5.74611 61.3117 5.19445 56.7143C3.46066 42.4699 3.14542 28.1502 5.19445 13.9058C5.82492 9.30838 9.13488 6.36907 13.8634 5.54003Z" fill="#CC191C"/>
<path fill-rule="evenodd" clip-rule="evenodd" d="M13.8634 2.59976C28.9947 0.112644 43.9683 0.0372769 58.7055 2.59976C63.4341 3.50416 66.5076 6.44348 67.4533 10.9655C70.2904 25.2853 70.2904 39.5297 67.4533 53.8494C66.5076 58.3714 63.5129 61.763 58.7055 62.1398C43.9683 63.4964 28.9947 63.421 13.8634 62.1398C9.13488 61.763 5.74611 58.3714 5.19445 53.8494C3.46066 39.5297 3.14542 25.2853 5.19445 10.9655C5.82492 6.44348 9.13488 3.4288 13.8634 2.59976Z" fill="#FF6595"/>
<path fill-rule="evenodd" clip-rule="evenodd" d="M14.1792 3.05199C29.0741 0.489507 43.8113 0.489507 58.3909 3.05199C63.0406 3.80566 66.1142 6.82034 67.0599 11.267C69.897 25.3606 69.8182 39.4543 67.0599 53.5479C66.1142 57.9946 63.1194 61.3861 58.3909 61.7629C43.8113 63.0442 29.0741 63.0442 14.1792 61.7629C9.45069 61.3861 6.14072 58.0699 5.58906 53.5479C3.93408 39.4543 3.61884 25.3606 5.58906 11.267C6.21953 6.74497 9.5295 3.80566 14.1792 3.05199Z" fill="#FD628E"/>
<path fill-rule="evenodd" clip-rule="evenodd" d="M14.4947 3.42935C29.2319 0.942234 43.7327 0.866866 58.1546 3.42935C62.7255 4.18302 65.7203 7.12234 66.5872 11.569C69.4243 25.4366 69.3455 39.3795 66.5872 53.247C65.7203 57.6183 62.8043 60.9345 58.1546 61.3867C43.7327 62.6679 29.2319 62.5926 14.4947 61.3867C9.84501 61.0099 6.53505 57.6937 5.98339 53.247C4.40722 39.3795 4.01317 25.4366 5.98339 11.569C6.61386 7.12234 9.92381 4.18302 14.4947 3.42935Z" fill="#FA5E87"/>
<path fill-rule="evenodd" clip-rule="evenodd" d="M14.809 3.80528C29.3098 1.31816 43.6529 1.31816 57.8385 3.80528C62.3305 4.55895 65.3253 7.49827 66.1922 11.7942C68.9505 25.511 68.9505 39.2279 66.1922 52.9447C65.3253 57.316 62.4093 60.5568 57.8385 61.009C43.6529 62.2149 29.3098 62.2149 14.809 61.009C10.2381 60.5568 6.92812 57.316 6.45527 52.9447C4.80029 39.2279 4.48506 25.511 6.45527 11.7942C7.00693 7.42291 10.2381 4.55895 14.809 3.80528Z" fill="#F85B80"/>
<path fill-rule="evenodd" clip-rule="evenodd" d="M15.1248 4.1824C29.3892 1.77065 43.5747 1.69528 57.5238 4.1824C62.0159 4.93607 64.9318 7.80002 65.7987 12.096C68.557 25.5867 68.4782 39.1528 65.7987 52.6435C64.9318 56.9394 62.0947 60.1802 57.5238 60.5571C43.5747 61.8383 29.3892 61.7629 15.1248 60.5571C10.5539 60.1802 7.32274 57.0148 6.84989 52.6435C5.27372 39.1528 4.95849 25.5867 6.84989 12.096C7.48036 7.80002 10.6327 4.93607 15.1248 4.1824Z" fill="#F65879"/>
<path fill-rule="evenodd" clip-rule="evenodd" d="M15.4405 4.5593C29.5473 2.14755 43.4176 2.14755 57.2091 4.5593C61.6224 5.31297 64.5383 8.17693 65.4052 12.3975C68.0847 25.7375 68.0847 39.0775 65.4052 52.3421C64.5383 56.5627 61.7012 59.8034 57.2091 60.1803C43.4176 61.3862 29.5473 61.3862 15.4405 60.1803C10.9484 59.8034 7.79608 56.638 7.24442 52.3421C5.66825 39.0775 5.35302 25.7375 7.24442 12.3975C7.87489 8.10156 11.0272 5.31297 15.4405 4.5593Z" fill="#F35572"/>
<path fill-rule="evenodd" clip-rule="evenodd" d="M15.6775 4.93612C29.6266 2.59974 43.3393 2.59974 56.9732 4.93612C61.3076 5.68979 64.1447 8.47838 65.0116 12.6236C67.6123 25.8128 67.6123 38.9267 65.0116 52.1159C64.1447 56.2611 61.3865 59.3512 56.9732 59.8034C43.3393 60.9339 29.6266 60.9339 15.6775 59.8034C11.3431 59.4265 8.19071 56.2611 7.63906 52.1159C6.14169 38.9267 5.82646 25.8128 7.63906 12.6236C8.26952 8.47838 11.3431 5.68979 15.6775 4.93612Z" fill="#F1516C"/>
<path fill-rule="evenodd" clip-rule="evenodd" d="M15.992 5.3135C29.7047 3.05248 43.2598 2.97711 56.6572 5.3135C60.9129 6.06717 63.75 8.85575 64.6169 12.9256C67.2176 25.8887 67.1388 38.8519 64.6169 51.8151C63.75 55.8849 60.9917 58.9749 56.6572 59.3518C43.2598 60.5577 29.7047 60.5577 15.992 59.3518C11.6575 58.9749 8.58398 55.9603 8.11112 51.8151C6.53495 38.8519 6.21972 25.8887 8.11112 12.9256C8.66278 8.78039 11.7363 6.06717 15.992 5.3135Z" fill="#EE4E65"/>
<path fill-rule="evenodd" clip-rule="evenodd" d="M16.3073 5.76523C29.7836 3.42884 43.181 3.42884 56.3421 5.76523C60.5977 6.44353 63.356 9.15675 64.1441 13.2266C66.7448 25.9636 66.7448 38.7761 64.1441 51.5131C63.356 55.5076 60.6765 58.5976 56.3421 58.9745C43.181 60.105 29.7836 60.105 16.3073 58.9745C12.0517 58.5976 8.97812 55.5829 8.50527 51.5131C7.0079 38.7007 6.69267 25.9636 8.50527 13.2266C9.05693 9.15675 12.0517 6.44353 16.3073 5.76523Z" fill="#EC4B5E"/>
<path fill-rule="evenodd" clip-rule="evenodd" d="M16.6232 6.1426C29.9418 3.88158 43.1028 3.80621 56.1062 6.1426C60.2043 6.8209 62.9626 9.53412 63.7507 13.4532C66.2725 26.0395 66.2725 38.6258 63.7507 51.2121C62.9626 55.2066 60.2831 58.2213 56.1062 58.5981C43.1028 59.7286 29.9418 59.7286 16.6232 58.5981C12.3675 58.2213 9.37276 55.2066 8.89991 51.2121C7.48136 38.6258 7.16612 26.0395 8.89991 13.4532C9.53038 9.45875 12.4463 6.8209 16.6232 6.1426Z" fill="#EA4857"/>
<path fill-rule="evenodd" clip-rule="evenodd" d="M16.9376 6.51851C30.0199 4.2575 42.9445 4.2575 55.7903 6.51851C59.8884 7.19682 62.5679 9.83467 63.3559 13.7538C65.8778 26.114 65.799 38.5495 63.3559 50.9097C62.5679 54.8288 59.9672 57.7682 55.7903 58.145C42.9445 59.2755 30.0199 59.2755 16.9376 58.145C12.7607 57.8435 9.84482 54.9042 9.37197 50.9097C7.8746 38.5495 7.55937 26.114 9.37197 13.7538C9.92363 9.83467 12.8396 7.19682 16.9376 6.51851Z" fill="#E74450"/>
<path fill-rule="evenodd" clip-rule="evenodd" d="M17.2529 6.89607C30.0988 4.71042 42.8658 4.71042 55.4751 6.89607C59.4944 7.57438 62.1739 10.2122 62.962 14.056C65.405 26.2655 65.405 38.3996 62.962 50.6091C62.1739 54.5282 59.5732 57.3921 55.4751 57.769C42.8658 58.8995 30.0988 58.8995 17.2529 57.769C13.1549 57.3921 10.239 54.5282 9.76613 50.6091C8.34757 38.3996 8.03233 26.2655 9.76613 14.056C10.3178 10.1369 13.1549 7.57438 17.2529 6.89607Z" fill="#E54149"/>
<path fill-rule="evenodd" clip-rule="evenodd" d="M13.8639 2.59976C28.9952 0.112645 43.9688 0.0372777 58.7061 2.59976C63.4346 3.50416 66.5081 6.44348 67.4538 10.9655C68.7148 17.4471 69.4241 23.9286 69.5817 30.4102C41.5258 19.4066 22.6905 48.649 3.77637 30.2595C3.85518 23.8533 4.24922 17.3717 5.19492 10.9655C5.82539 6.44348 9.13536 3.42879 13.8639 2.59976Z" fill="white" fill-opacity="0.290196"/>
<path fill-rule="evenodd" clip-rule="evenodd" d="M13.3902 4.56006C16.7001 4.56006 19.3008 7.12252 19.3008 10.2126C19.3008 13.378 16.7001 15.8651 13.3902 15.8651C10.159 15.8651 7.47949 13.378 7.47949 10.2126C7.47949 7.12252 10.159 4.56006 13.3902 4.56006Z" fill="white"/>
<path fill-rule="evenodd" clip-rule="evenodd" d="M22.454 2.22314C24.0301 2.22314 25.3699 3.42901 25.3699 5.01172C25.3699 6.51905 24.0301 7.80029 22.454 7.80029C20.799 7.80029 19.5381 6.51905 19.5381 5.01172C19.5381 3.42901 20.799 2.22314 22.454 2.22314Z" fill="white"/>
<path fill-rule="evenodd" clip-rule="evenodd" d="M60.0461 54.0762C62.0163 54.0762 63.5924 55.5835 63.5924 57.4677C63.5924 59.3519 62.0163 60.8592 60.0461 60.8592C58.1547 60.8592 56.5786 59.3519 56.5786 57.4677C56.5786 55.5835 58.1547 54.0762 60.0461 54.0762Z" fill="white"/>
<path fill-rule="evenodd" clip-rule="evenodd" d="M30.3355 37.1936C32.9362 37.1936 35.3793 37.7212 37.3495 38.5502C35.3793 30.7874 32.8574 20.6129 30.8872 12.85C29.7839 9.08169 38.768 11.0412 42.078 13.0761C45.3091 15.1111 47.5158 20.4621 55.1602 19.407C50.9045 24.2305 44.6787 20.9143 40.1866 20.1607C37.6647 19.7085 36.0886 21.5173 36.5614 22.9492L40.9747 40.8866C42.1568 42.0925 42.8661 43.4491 42.8661 44.9564C42.8661 49.2524 37.2707 52.7192 30.3355 52.7192C23.4792 52.7192 17.8838 49.2524 17.8838 44.9564C17.8838 40.6605 23.4792 37.1936 30.3355 37.1936Z" stroke="#CC191C" stroke-width="0.507295"/>
<path fill-rule="evenodd" clip-rule="evenodd" d="M30.3355 37.1936C32.9362 37.1936 35.3793 37.7212 37.3495 38.5502C35.3793 30.7874 32.8574 20.6129 30.8872 12.85C29.7839 9.08169 38.768 11.0412 42.078 13.0761C45.3091 15.1111 47.5158 20.4621 55.1602 19.407C50.9045 24.2305 44.6787 20.9143 40.1866 20.1607C37.6647 19.7085 36.0886 21.5173 36.5614 22.9492L40.9747 40.8866C42.1568 42.0925 42.8661 43.4491 42.8661 44.9564C42.8661 49.2524 37.2707 52.7192 30.3355 52.7192C23.4792 52.7192 17.8838 49.2524 17.8838 44.9564C17.8838 40.6605 23.4792 37.1936 30.3355 37.1936Z" fill="white"/>
<path fill-rule="evenodd" clip-rule="evenodd" d="M42.2357 42.4688C41.8416 46.5386 36.4038 49.7794 29.7051 49.7794C24.1885 49.7794 19.5388 47.5937 17.8838 44.5037C17.8838 44.6544 17.8838 44.8051 17.8838 44.9559C17.8838 47.0662 19.2235 48.9503 21.3514 50.3823C23.164 51.5128 25.5282 52.3419 28.2077 52.6433C28.917 52.7187 29.6263 52.7187 30.3356 52.7187C37.2707 52.7187 42.8661 49.2518 42.8661 44.9559C42.8661 44.1268 42.6297 43.2978 42.2357 42.4688Z" fill="black" fill-opacity="0.101961"/>
<path fill-rule="evenodd" clip-rule="evenodd" d="M44.9936 21.2917C48.54 22.1961 52.3228 22.6483 55.1599 19.4076C54.0566 19.5583 53.032 19.5583 52.1651 19.4829C51.2983 19.4076 50.5102 19.2568 49.8009 18.9554C46.4121 19.4076 42.5505 17.7495 39.5558 17.2219C38.0584 16.9204 36.8763 17.5234 36.2458 18.3524C35.8518 18.8046 35.773 19.4829 35.9306 20.0105L36.4823 22.2715C36.5611 21.141 37.7432 20.0859 39.477 20.0859C39.7134 20.0859 39.9498 20.0859 40.1863 20.1612C41.6048 20.3873 43.2598 20.9149 44.9936 21.2917Z" fill="black" fill-opacity="0.101961"/>
</svg>
