<?xml version="1.0" encoding="iso-8859-1"?>
<!-- Generator: Adobe Illustrator 19.0.0, SVG Export Plug-In . SVG Version: 6.00 Build 0)  -->
<svg opacity='0.6' version="1.1" id="Layer_1" xmlns="http://www.w3.org/2000/svg" xmlns:xlink="http://www.w3.org/1999/xlink" x="0px" y="0px"
	 viewBox="0 0 512.002 512.002" style="enable-background:new 0 0 512.002 512.002;" xml:space="preserve">
<g>
	<g>
		<path fill="#282828" d="M414.431,488.2l-14.497-373.03H112.07L97.573,488.2c-0.243,6.226,2.062,12.282,6.381,16.772
			c4.319,4.491,10.281,7.029,16.513,7.029h67.928V356.881c0-37.278,30.328-67.606,67.607-67.606
			c37.279,0,67.607,30.328,67.607,67.606v155.121h67.928c6.23,0,12.192-2.539,16.513-7.029
			C412.371,500.482,414.674,494.426,414.431,488.2z"/>
	</g>
</g>
<g>
	<g>
		<path fill="#282828" d="M404.98,0c-12.653,0-22.911,10.258-22.911,22.911v28.277H278.912V22.911C278.912,10.258,268.654,0,256.001,0
			S233.09,10.258,233.09,22.911v28.277H129.933V22.911C129.933,10.258,119.675,0,107.022,0S84.111,10.258,84.111,22.911v51.188
			c0,10.373,6.899,19.126,16.355,21.947c2.079,0.62,4.277,0.964,6.556,0.964H404.98c2.28,0,4.478-0.344,6.556-0.964
			c9.456-2.821,16.355-11.573,16.355-21.947V22.911C427.891,10.258,417.633,0,404.98,0z"/>
	</g>
</g>
<g>
</g>
<g>
</g>
<g>
</g>
<g>
</g>
<g>
</g>
<g>
</g>
<g>
</g>
<g>
</g>
<g>
</g>
<g>
</g>
<g>
</g>
<g>
</g>
<g>
</g>
<g>
</g>
<g>
</g>
</svg>
