<svg width="24" height="10" viewBox="0 0 24 10" preserveAspectRatio="none" fill="none" xmlns="http://www.w3.org/2000/svg">
<path fill-rule="evenodd" clip-rule="evenodd" d="M1.4341 0.410156H22.9639C23.4939 0.410156 23.9339 0.870152 23.9339 1.44015V8.36009C23.9339 8.93008 23.4939 9.40008 22.9639 9.40008H1.4341C0.904107 9.40008 0.464111 8.93008 0.464111 8.36009V1.44015C0.464111 0.870152 0.904107 0.410156 1.4341 0.410156Z" fill="#EFB469"/>
<path fill-rule="evenodd" clip-rule="evenodd" d="M1.80401 0.900146H22.5938C23.1138 0.900146 23.5338 1.35014 23.5338 1.90014V8.22008C23.5338 8.77008 23.1138 9.22007 22.5938 9.22007H1.80401C1.28401 9.22007 0.864014 8.77008 0.864014 8.22008V1.90014C0.864014 1.35014 1.28401 0.900146 1.80401 0.900146Z" fill="#F1C383"/>
<path fill-rule="evenodd" clip-rule="evenodd" d="M1.84405 1.09009C8.74399 1.09009 15.6539 1.09009 22.5539 1.09009C23.0639 1.09009 23.4839 1.54008 23.4839 2.08008C23.4839 4.12006 23.4839 6.17004 23.4839 8.21002C23.4839 8.75002 23.0639 9.20002 22.5539 9.20002C15.6539 9.20002 8.74399 9.20002 1.84405 9.20002C1.33406 9.20002 0.914062 8.75002 0.914062 8.21002C0.914062 6.17004 0.914062 4.12006 0.914062 2.08008C0.914062 1.54008 1.33406 1.09009 1.84405 1.09009Z" fill="#F1C585"/>
<path fill-rule="evenodd" clip-rule="evenodd" d="M1.8841 1.28003C8.76404 1.28003 15.634 1.28003 22.5139 1.28003C23.0139 1.28003 23.4339 1.73003 23.4339 2.26002C23.4339 4.24 23.4339 6.21999 23.4339 8.19997C23.4339 8.72996 23.0139 9.17996 22.5139 9.17996C15.634 9.17996 8.76404 9.17996 1.8841 9.17996C1.38411 9.17996 0.964111 8.73996 0.964111 8.19997C0.964111 6.21999 0.964111 4.24 0.964111 2.26002C0.964111 1.72003 1.38411 1.28003 1.8841 1.28003Z" fill="#F1C786"/>
<path fill-rule="evenodd" clip-rule="evenodd" d="M1.92416 1.47998C8.7741 1.47998 15.624 1.47998 22.474 1.47998C22.974 1.47998 23.384 1.90998 23.384 2.43997C23.384 4.35995 23.384 6.26994 23.384 8.18992C23.384 8.71992 22.974 9.14991 22.474 9.14991C15.624 9.14991 8.7741 9.14991 1.92416 9.14991C1.42417 9.14991 1.02417 8.71992 1.02417 8.18992C1.02417 6.26994 1.02417 4.35995 1.02417 2.43997C1.02417 1.90998 1.42417 1.47998 1.92416 1.47998Z" fill="#F2CA88"/>
<path fill-rule="evenodd" clip-rule="evenodd" d="M1.96397 1.67017C8.78391 1.67017 15.6138 1.67017 22.4338 1.67017C22.9238 1.67017 23.3238 2.10016 23.3238 2.62016C23.3238 4.47014 23.3238 6.33012 23.3238 8.18011C23.3238 8.7001 22.9238 9.1301 22.4338 9.1301C15.6138 9.1301 8.78391 9.1301 1.96397 9.1301C1.47397 9.1301 1.07397 8.7101 1.07397 8.18011C1.07397 6.33012 1.07397 4.47014 1.07397 2.62016C1.07397 2.10016 1.47397 1.67017 1.96397 1.67017Z" fill="#F2CC8A"/>
<path fill-rule="evenodd" clip-rule="evenodd" d="M2.01402 1.86011C8.80396 1.86011 15.5939 1.86011 22.3838 1.86011C22.8738 1.86011 23.2738 2.2801 23.2738 2.8001C23.2738 4.59008 23.2738 6.38007 23.2738 8.17005C23.2738 8.69005 22.8738 9.11004 22.3838 9.11004C15.5939 9.11004 8.80396 9.11004 2.01402 9.11004C1.52402 9.11004 1.12402 8.69005 1.12402 8.17005C1.12402 6.38007 1.12402 4.59008 1.12402 2.8001C1.12402 2.2801 1.52402 1.86011 2.01402 1.86011Z" fill="#F2CE8B"/>
<path fill-rule="evenodd" clip-rule="evenodd" d="M2.05406 2.05005C8.814 2.05005 15.5839 2.05005 22.3439 2.05005C22.8239 2.05005 23.2239 2.47005 23.2239 2.98004C23.2239 4.71003 23.2239 6.44001 23.2239 8.15999C23.2239 8.66999 22.8239 9.08999 22.3439 9.08999C15.5839 9.08999 8.814 9.08999 2.05406 9.08999C1.57407 9.08999 1.17407 8.66999 1.17407 8.15999C1.17407 6.44001 1.17407 4.71003 1.17407 2.98004C1.17407 2.47005 1.57407 2.05005 2.05406 2.05005Z" fill="#F2D08D"/>
<path fill-rule="evenodd" clip-rule="evenodd" d="M2.09412 2.23999C8.83406 2.23999 15.564 2.23999 22.3039 2.23999C22.7739 2.23999 23.1639 2.65999 23.1639 3.15998C23.1639 4.82997 23.1639 6.48995 23.1639 8.14994C23.1639 8.65993 22.7739 9.06993 22.3039 9.06993C15.564 9.06993 8.83406 9.06993 2.09412 9.06993C1.62413 9.06993 1.23413 8.65993 1.23413 8.14994C1.23413 6.48995 1.23413 4.82997 1.23413 3.15998C1.23413 2.65999 1.62413 2.23999 2.09412 2.23999Z" fill="#F2D28E"/>
<path fill-rule="evenodd" clip-rule="evenodd" d="M2.13417 2.43018C8.84411 2.43018 15.5541 2.43018 22.264 2.43018C22.734 2.43018 23.114 2.84017 23.114 3.34017C23.114 4.94015 23.114 6.54014 23.114 8.14013C23.114 8.64012 22.734 9.05012 22.264 9.05012C15.5541 9.05012 8.84411 9.05012 2.13417 9.05012C1.66418 9.05012 1.28418 8.64012 1.28418 8.14013C1.28418 6.54014 1.28418 4.94015 1.28418 3.34017C1.28418 2.84017 1.66418 2.43018 2.13417 2.43018Z" fill="#F2D490"/>
<path fill-rule="evenodd" clip-rule="evenodd" d="M2.18398 2.62012C8.86392 2.62012 15.5339 2.62012 22.2138 2.62012C22.6838 2.62012 23.0638 3.03011 23.0638 3.52011C23.0638 5.0601 23.0638 6.60008 23.0638 8.13007C23.0638 8.63006 22.6838 9.03006 22.2138 9.03006C15.5339 9.03006 8.86392 9.03006 2.18398 9.03006C1.71398 9.03006 1.33398 8.63006 1.33398 8.13007C1.33398 6.60008 1.33398 5.0601 1.33398 3.52011C1.33398 3.03011 1.71398 2.62012 2.18398 2.62012Z" fill="#F3D792"/>
<path fill-rule="evenodd" clip-rule="evenodd" d="M2.22403 2.82007C8.87397 2.82007 15.5239 2.82007 22.1738 2.82007C22.6338 2.82007 23.0138 3.22006 23.0138 3.70006C23.0138 5.18005 23.0138 6.65003 23.0138 8.13002C23.0138 8.61002 22.6338 9.01001 22.1738 9.01001C15.5239 9.01001 8.87397 9.01001 2.22403 9.01001C1.76403 9.01001 1.38403 8.61002 1.38403 8.13002C1.38403 6.65003 1.38403 5.18005 1.38403 3.70006C1.38403 3.21006 1.76403 2.82007 2.22403 2.82007Z" fill="#F3D993"/>
<path fill-rule="evenodd" clip-rule="evenodd" d="M2.26408 3.01025H22.1339C22.5839 3.01025 22.9539 3.40025 22.9539 3.88025V8.12021C22.9539 8.6002 22.5839 8.9902 22.1339 8.9902H2.26408C1.81409 8.9902 1.44409 8.6002 1.44409 8.12021V3.88025C1.44409 3.40025 1.81409 3.01025 2.26408 3.01025Z" fill="#F3DB95"/>
<path d="M5.75413 3.76009L5.26414 3.84009C5.54413 3.97009 5.77413 4.11008 5.94413 4.26008L5.95413 4.27008C6.22413 4.51008 6.42413 4.79008 6.56412 5.10008C6.69412 5.41007 6.76412 5.75007 6.76412 6.11007C6.76412 6.32006 6.74412 6.53006 6.69412 6.73006C6.64412 6.93006 6.57412 7.13006 6.47413 7.31006C6.37413 7.48005 6.27413 7.64005 6.15413 7.78005C6.03413 7.93005 5.90413 8.06005 5.76413 8.18005C5.61413 8.30005 5.46413 8.40005 5.31414 8.48005C5.16414 8.56004 5.00414 8.63004 4.83414 8.69004C4.74414 8.72004 4.63414 8.75004 4.53414 8.77004V8.80004C4.53414 9.08004 4.41414 9.33004 4.23415 9.50004C4.06415 9.68003 3.81415 9.80003 3.53415 9.80003H3.23415C2.96416 9.80003 2.71416 9.68003 2.53416 9.50004C2.35416 9.33004 2.24416 9.08004 2.24416 8.80004V8.75004C2.07416 8.71004 1.91417 8.67004 1.76417 8.61004C1.59417 8.55004 1.43417 8.47005 1.28417 8.38005C1.13417 8.29005 0.984174 8.18005 0.854175 8.06005C0.724176 7.94005 0.614177 7.82005 0.524178 7.70005C0.424179 7.57005 0.33418 7.44005 0.26418 7.30006C0.224181 7.22006 0.184181 7.13006 0.154181 7.05006V7.04006C0.114182 6.94006 0.0941819 6.88006 0.0741821 6.82006C0.00418275 6.61006 -0.0358169 6.40006 0.0441824 6.16007C0.144182 5.88007 0.35418 5.67007 0.754176 5.60007L0.794176 5.59007L1.39417 5.52007C1.25417 5.44007 1.12417 5.34007 0.994174 5.23007C0.854175 5.10008 0.714176 4.95008 0.594178 4.77008C0.464179 4.58008 0.36418 4.36008 0.30418 4.13008C0.234181 3.91009 0.204181 3.67009 0.204181 3.42009C0.204181 3.08009 0.27418 2.7501 0.394179 2.4501C0.524178 2.1501 0.714176 1.8701 0.964174 1.64011C1.19417 1.41011 1.46417 1.24011 1.79417 1.11011C1.95417 1.05011 2.13416 0.990112 2.33416 0.950112C2.38416 0.850113 2.45416 0.750114 2.53416 0.660115C2.71416 0.490116 2.96416 0.370117 3.23415 0.370117H3.53415C3.81415 0.370117 4.06415 0.490116 4.23415 0.660115C4.32414 0.750114 4.39414 0.850113 4.44414 0.960112C4.59414 0.990112 4.73414 1.03011 4.87414 1.07011C5.16414 1.17011 5.41413 1.30011 5.63413 1.47011C5.81413 1.61011 5.97413 1.7701 6.10413 1.9501C6.23413 2.1301 6.34413 2.3201 6.42413 2.5301C6.45413 2.5901 6.47413 2.6601 6.48413 2.7201V2.7301C6.52412 2.91009 6.51412 3.10009 6.42413 3.27009C6.34413 3.46009 6.19413 3.61009 5.97413 3.70009C5.91413 3.72009 5.85413 3.74009 5.78413 3.76009H5.75413Z" fill="black" fill-opacity="0.101961"/>
<path d="M5.75413 3.38997L5.26414 3.46997C5.54413 3.59997 5.77413 3.73997 5.94413 3.88997L5.95413 3.89997C6.22413 4.13996 6.42413 4.41996 6.56412 4.72996C6.69412 5.03996 6.76412 5.37995 6.76412 5.73995C6.76412 5.94995 6.74412 6.15995 6.69412 6.35994C6.64412 6.55994 6.57412 6.75994 6.47413 6.93994C6.37413 7.10994 6.27413 7.26994 6.15413 7.40993C6.03413 7.55993 5.90413 7.68993 5.76413 7.80993C5.61413 7.92993 5.46413 8.02993 5.31414 8.10993C5.16414 8.18993 5.00414 8.25993 4.83414 8.31993C4.74414 8.34993 4.63414 8.37993 4.53414 8.39993V8.42993C4.53414 8.70992 4.41414 8.94992 4.23415 9.12992C4.06415 9.30992 3.81415 9.42992 3.53415 9.42992H3.23415C2.96416 9.42992 2.71416 9.30992 2.53416 9.12992C2.35416 8.94992 2.24416 8.70992 2.24416 8.42993V8.37993C2.07416 8.33993 1.91417 8.29993 1.76417 8.23993C1.59417 8.16993 1.43417 8.09993 1.28417 8.00993C1.13417 7.91993 0.984174 7.80993 0.854175 7.68993C0.724176 7.56993 0.614177 7.44993 0.524178 7.32993C0.424179 7.19994 0.33418 7.06994 0.26418 6.91994C0.224181 6.84994 0.184181 6.75994 0.154181 6.67994V6.66994C0.114182 6.56994 0.0941819 6.50994 0.0741821 6.44994C0.00418275 6.23994 -0.0358169 6.02995 0.0441824 5.78995C0.144182 5.50995 0.35418 5.29995 0.754176 5.22995L0.794176 5.21995L1.39417 5.14995C1.25417 5.06996 1.12417 4.96996 0.994174 4.85996C0.854175 4.72996 0.714176 4.57996 0.594178 4.39996C0.464179 4.20996 0.36418 3.98996 0.30418 3.75997C0.234181 3.53997 0.204181 3.29997 0.204181 3.04997C0.204181 2.70998 0.27418 2.37998 0.394179 2.07998C0.524178 1.77998 0.714176 1.49999 0.964174 1.26999C1.19417 1.03999 1.46417 0.869992 1.79417 0.739993C1.95417 0.679994 2.13416 0.619995 2.33416 0.579995C2.38416 0.479996 2.45416 0.379997 2.53416 0.289997C2.71416 0.109999 2.96416 0 3.23415 0H3.53415C3.81415 0 4.06415 0.109999 4.23415 0.289997C4.32414 0.379997 4.39414 0.479996 4.44414 0.589995C4.59414 0.619995 4.73414 0.649994 4.87414 0.699994C5.16414 0.799993 5.41413 0.929992 5.63413 1.09999C5.81413 1.23999 5.97413 1.39999 6.10413 1.57999C6.23413 1.75998 6.34413 1.94998 6.42413 2.15998C6.45413 2.21998 6.47413 2.28998 6.48413 2.34998V2.35998C6.52412 2.53998 6.51412 2.72998 6.42413 2.89997C6.34413 3.08997 6.19413 3.23997 5.97413 3.32997C5.91413 3.34997 5.85413 3.36997 5.78413 3.38997H5.75413Z" fill="#E6E6E6"/>
<path d="M5.26411 3.46997C6.15411 3.88997 6.7141 4.59996 6.7641 5.59995C6.7241 6.35994 6.3441 7.05994 5.76411 7.52993C5.38411 7.82993 4.99412 8.01993 4.53412 8.11993V8.15993C4.53412 8.42993 4.41412 8.67992 4.23412 8.85992C3.83413 9.25992 2.93413 9.25992 2.53414 8.85992C2.35414 8.67992 2.24414 8.42993 2.24414 8.15993V8.09993C1.90414 8.02993 1.57415 7.90993 1.28415 7.72993C0.684154 7.36993 0.114159 6.63994 0.0141602 5.92995C0.124159 5.21995 0.814153 5.21995 1.39415 5.14995C1.83414 5.11995 1.10415 4.67996 0.994151 4.58996C0.674154 4.28996 0.424157 3.90997 0.304158 3.48997C0.254158 3.30997 0.224158 3.11997 0.214158 2.91997C0.224158 2.61998 0.284158 2.33998 0.394157 2.07998C0.524156 1.77998 0.714154 1.49999 0.964152 1.26999C1.19415 1.03999 1.46415 0.869992 1.79414 0.739993C1.95414 0.679994 2.13414 0.619995 2.33414 0.579995C2.38414 0.479996 2.45414 0.379997 2.53414 0.289997C2.71414 0.109999 2.96413 0 3.23413 0H3.53413C3.81413 0 4.06412 0.109999 4.23412 0.289997C4.32412 0.379997 4.39412 0.479996 4.44412 0.589995C4.59412 0.619995 4.73412 0.649994 4.87412 0.699994C5.16411 0.799993 5.41411 0.929992 5.63411 1.09999C5.81411 1.23999 5.97411 1.39999 6.10411 1.57999C6.2341 1.75998 6.3441 1.94998 6.4241 2.15998C6.4541 2.21998 6.4741 2.28998 6.4841 2.34998V2.35998L6.4941 2.40998C6.3941 3.05997 5.81411 3.10997 5.26411 3.18997C5.01412 3.23997 4.96412 3.29997 5.26411 3.46997Z" fill="white"/>
<path d="M5.66417 2.63999L4.50418 2.81999C4.25418 2.86999 4.20418 2.69999 4.17419 2.62999C4.12419 2.53999 4.08419 2.46999 4.04419 2.41999C4.00419 2.37999 3.96419 2.32999 3.89419 2.28999V3.51998C4.70418 3.74998 5.24418 3.98998 5.53417 4.23998C5.93417 4.59997 6.13417 5.05997 6.13417 5.60997C6.13417 5.93996 6.06417 6.23996 5.91417 6.50996C5.77417 6.77995 5.58417 7.00995 5.36417 7.18995C5.13418 7.36995 4.89418 7.50995 4.64418 7.58995C4.43418 7.65995 4.18419 7.69995 3.89419 7.71995V8.29994C3.89419 8.49994 3.73419 8.65994 3.53419 8.65994H3.23419C3.0342 8.65994 2.8742 8.49994 2.8742 8.29994V7.70995C2.5142 7.66995 2.2242 7.60995 1.9942 7.51995C1.71421 7.41995 1.48421 7.27995 1.28421 7.09995C1.08421 6.90995 0.934214 6.71996 0.824215 6.50996C0.764215 6.38996 0.714216 6.25996 0.664216 6.11996C0.604217 5.92996 0.594217 5.75996 0.864215 5.71996L1.9942 5.58997C2.2942 5.51997 2.4542 5.58997 2.4542 5.80996C2.4542 5.92996 2.5142 6.04996 2.6042 6.17996C2.6742 6.25996 2.7542 6.33996 2.8742 6.41996V4.88997C2.3642 4.73997 1.9942 4.60997 1.77421 4.49997C1.52421 4.37998 1.30421 4.17998 1.11421 3.90998C0.934214 3.63998 0.834215 3.30999 0.834215 2.92999C0.834215 2.38999 1.02421 1.95 1.39421 1.59C1.73421 1.26 2.2342 1.07 2.8742 1.01001V0.870007C2.8742 0.670008 3.0342 0.51001 3.23419 0.51001H3.53419C3.73419 0.51001 3.89419 0.670008 3.89419 0.870007V1.01001C4.47418 1.07 4.92418 1.22 5.24418 1.47C5.51417 1.68 5.71417 1.94 5.84417 2.26999C5.91417 2.43999 5.88417 2.59999 5.66417 2.63999ZM3.89419 5.19997V6.50996C4.05419 6.45996 4.18419 6.37996 4.26418 6.28996C4.38418 6.15996 4.44418 6.00996 4.44418 5.84996C4.44418 5.70996 4.39418 5.57997 4.29418 5.45997C4.22418 5.36997 4.08419 5.27997 3.89419 5.19997ZM2.8742 3.21999V2.22999C2.7742 2.26999 2.7042 2.32999 2.6542 2.38999C2.5842 2.47999 2.5442 2.58999 2.5442 2.70999C2.5442 2.83999 2.5842 2.95999 2.6642 3.04999C2.7042 3.11999 2.7842 3.16999 2.8742 3.21999Z" fill="#DCB000"/>
<path d="M3.89405 2.28999V3.15999V3.51998C4.70405 3.74998 5.24404 3.98998 5.53404 4.23998C5.88404 4.55997 6.08403 4.95997 6.12403 5.42997C6.10403 5.68996 6.03403 5.91996 5.91404 6.13996C5.77404 6.41996 5.58404 6.63996 5.36404 6.82995C5.13404 7.00995 4.89404 7.13995 4.64405 7.21995C4.43405 7.28995 4.18405 7.33995 3.89405 7.35995V7.71995V7.93994C3.89405 8.13994 3.73405 8.29994 3.53406 8.29994H3.23406C3.03406 8.29994 2.87406 8.13994 2.87406 7.93994V7.70995V7.34995C2.51407 7.30995 2.22407 7.24995 1.99407 7.15995C1.71407 7.05995 1.48407 6.90995 1.28408 6.72995C1.08408 6.54996 0.93408 6.34996 0.824081 6.13996C0.774081 6.03996 0.724082 5.91996 0.684082 5.79996C0.724082 5.75996 0.784081 5.72996 0.86408 5.71996L1.99407 5.58996C2.29407 5.51997 2.45407 5.58996 2.45407 5.80996C2.45407 5.92996 2.51407 6.04996 2.60407 6.17996C2.67406 6.25996 2.75406 6.33996 2.87406 6.41996V6.04996V4.88997V4.51997C2.36407 4.37998 1.99407 4.24998 1.77407 4.13998C1.52407 4.01998 1.30408 3.81998 1.11408 3.54998C0.96408 3.31998 0.87408 3.04999 0.844081 2.74999C0.88408 2.28999 1.06408 1.91 1.39408 1.59C1.73407 1.26 2.23407 1.07 2.87406 1.01001V0.870007C2.87406 0.670008 3.03406 0.51001 3.23406 0.51001H3.53406C3.73405 0.51001 3.89405 0.670008 3.89405 0.870007V1.01001C4.47405 1.07 4.92404 1.22 5.24404 1.47C5.49404 1.66 5.68404 1.91 5.81404 2.19999C5.78404 2.23999 5.73404 2.25999 5.66404 2.27999L4.50405 2.45999C4.25405 2.49999 4.20405 2.32999 4.17405 2.26999C4.12405 2.17999 4.08405 2.11 4.04405 2.06C4.00405 2.01 3.96405 1.97 3.89405 1.93V2.28999ZM3.89405 4.83997V5.19997V6.14996V6.50996C4.05405 6.45996 4.18405 6.37996 4.26405 6.28996C4.38405 6.15996 4.44405 6.00996 4.44405 5.84996C4.44405 5.78996 4.43405 5.72996 4.41405 5.66996C4.43405 5.60996 4.44405 5.54997 4.44405 5.47997C4.44405 5.33997 4.39405 5.20997 4.29405 5.08997C4.22405 4.99997 4.08405 4.91997 3.89405 4.83997ZM2.87406 2.22999V1.86C2.77406 1.91 2.70406 1.96 2.65406 2.02C2.58407 2.11 2.54407 2.21999 2.54407 2.34999C2.54407 2.40999 2.55407 2.47999 2.57407 2.52999C2.55407 2.58999 2.54407 2.64999 2.54407 2.70999C2.54407 2.83999 2.58407 2.95999 2.66406 3.04999C2.70406 3.11999 2.78406 3.16999 2.87406 3.21999V2.85999V2.22999Z" fill="#FEF500"/>
<path fill-rule="evenodd" clip-rule="evenodd" d="M3.89405 2.22994V3.09993V3.45992C4.70405 3.68992 5.24404 3.92992 5.53404 4.17992C5.88404 4.49992 6.08403 4.89991 6.12403 5.36991C6.10403 5.62991 6.03403 5.8699 5.91404 6.0899C5.77404 6.3599 5.58404 6.5899 5.36404 6.7699C5.13404 6.94989 4.89404 7.07989 4.64405 7.15989C4.43405 7.22989 4.18405 7.27989 3.89405 7.29989V7.65989V7.87989C3.89405 8.07988 3.73405 8.23988 3.53406 8.23988H3.23406C3.03406 8.23988 2.87406 8.07988 2.87406 7.87989V7.65989V7.28989C2.51407 7.24989 2.22407 7.18989 1.99407 7.09989C1.71407 6.99989 1.48407 6.84989 1.28408 6.6699C1.08408 6.4899 0.93408 6.2999 0.824081 6.0899C0.774081 5.9799 0.724082 5.8599 0.684082 5.7399C0.724082 5.6999 0.784081 5.6699 0.86408 5.6599L1.99407 5.52991C2.29407 5.45991 2.45407 5.52991 2.45407 5.7499C2.45407 5.8699 2.51407 5.9899 2.60407 6.1199C2.67406 6.1999 2.75406 6.2899 2.87406 6.3599V5.9999V4.82991V4.45992C2.36407 4.31992 1.99407 4.18992 1.77407 4.07992C1.52407 3.95992 1.30408 3.75992 1.11408 3.48992C0.96408 3.25993 0.87408 2.99993 0.844081 2.68993C0.88408 2.22994 1.06408 1.84994 1.39408 1.52994C1.73407 1.20994 2.23407 1.00995 2.87406 0.949947V0.809948C2.87406 0.60995 3.03406 0.449951 3.23406 0.449951H3.53406C3.73405 0.449951 3.89405 0.60995 3.89405 0.809948V0.949947C4.47405 1.00995 4.92404 1.15994 5.24404 1.40994C5.49404 1.60994 5.68404 1.84994 5.81404 2.14994C5.78404 2.17994 5.73404 2.19994 5.66404 2.21994L4.50405 2.39993C4.25405 2.43993 4.20405 2.26994 4.17405 2.20994C4.12405 2.11994 4.08405 2.04994 4.04405 1.99994C4.00405 1.95994 3.96405 1.90994 3.89405 1.86994V2.22994ZM3.89405 4.77991V5.13991V6.0899V6.4599C4.05405 6.3999 4.18405 6.3199 4.26405 6.2299C4.38405 6.0999 4.44405 5.9499 4.44405 5.7899C4.44405 5.7299 4.43405 5.6699 4.41405 5.60991C4.43405 5.54991 4.44405 5.48991 4.44405 5.42991C4.44405 5.27991 4.39405 5.14991 4.29405 5.03991C4.22405 4.93991 4.08405 4.85991 3.89405 4.77991ZM2.87406 2.16994V1.79994C2.77406 1.84994 2.70406 1.89994 2.65406 1.95994C2.58407 2.04994 2.54407 2.15994 2.54407 2.28993C2.54407 2.35993 2.55407 2.41993 2.57407 2.46993C2.55407 2.52993 2.54407 2.58993 2.54407 2.64993C2.54407 2.77993 2.58407 2.89993 2.66406 2.99993C2.70406 3.05993 2.78406 3.10993 2.87406 3.15993V2.79993V2.16994Z" fill="url(#paint0_linear_78_111024)"/>
<path d="M6.1141 5.28003C6.1241 5.31003 6.1241 5.34003 6.1241 5.37003C6.1041 5.63003 6.0341 5.87002 5.9141 6.09002C5.77411 6.36002 5.58411 6.59002 5.36411 6.77002C5.13411 6.95001 4.89411 7.08001 4.64412 7.16001C4.43412 7.23001 4.18412 7.28001 3.89412 7.30001V7.66001V7.88001C3.89412 8.08 3.73412 8.24 3.53413 8.24H3.23413C3.03413 8.24 2.87413 8.08 2.87413 7.88001V7.66001V7.29001C2.51413 7.25001 2.22414 7.19001 1.99414 7.10001C1.71414 7.00001 1.48414 6.85002 1.28415 6.67002C1.08415 6.49002 0.934149 6.30002 0.82415 6.09002C0.79415 6.03002 0.77415 5.98002 0.75415 5.92002C1.27415 5.96002 1.86414 5.96002 2.48414 5.92002C2.51413 5.98002 2.55413 6.05002 2.60413 6.12002C2.67413 6.20002 2.75413 6.29002 2.87413 6.36002V6.00002V5.89002C3.08413 5.87002 3.29413 5.85002 3.50413 5.82002C3.63412 5.80002 3.76412 5.79002 3.89412 5.77002V6.09002V6.46002C4.05412 6.40002 4.18412 6.32002 4.26412 6.23002C4.38412 6.10002 4.44412 5.95002 4.44412 5.79002C4.44412 5.75003 4.44412 5.71003 4.43412 5.68003C5.03411 5.57003 5.60411 5.43003 6.1141 5.28003Z" fill="#F7C600"/>
<path d="M3.89421 2.22994V2.40993C3.76421 2.42993 3.63421 2.43993 3.50421 2.45993C3.29422 2.48993 3.08422 2.51993 2.87422 2.54993V2.16994V1.79994C2.77422 1.84994 2.70422 1.89994 2.65422 1.95994C2.58422 2.04994 2.54422 2.15994 2.54422 2.28993C2.54422 2.35993 2.55422 2.41993 2.57422 2.46993C2.56422 2.51993 2.55422 2.55993 2.54422 2.60993C1.95423 2.70993 1.40423 2.84993 0.894238 2.99993C0.874238 2.89993 0.854238 2.79993 0.844238 2.68993C0.884238 2.22994 1.06424 1.84994 1.39423 1.52994C1.73423 1.20994 2.23423 1.00995 2.87422 0.949947V0.809948C2.87422 0.60995 3.03422 0.449951 3.23422 0.449951H3.53421C3.73421 0.449951 3.89421 0.60995 3.89421 0.809948V0.949947C4.47421 1.00995 4.9242 1.15994 5.2442 1.40994C5.4942 1.60994 5.6842 1.84994 5.81419 2.14994C5.78419 2.17994 5.73419 2.19994 5.6642 2.21994L4.8442 2.34993C4.6642 2.34993 4.48421 2.35993 4.30421 2.37993C4.21421 2.32993 4.19421 2.24994 4.17421 2.20994C4.12421 2.11994 4.08421 2.04994 4.04421 1.99994C4.00421 1.95994 3.96421 1.90994 3.89421 1.86994V2.22994Z" fill="#FFF71F"/>
<defs>
<linearGradient id="paint0_linear_78_111024" x1="3.40417" y1="7.38288" x2="3.40417" y2="1.30674" gradientUnits="userSpaceOnUse">
<stop stop-color="#FFCC00"/>
<stop offset="1" stop-color="#FFF71F"/>
</linearGradient>
</defs>
</svg>
