<svg width="297" height="274" fill="none" xmlns="http://www.w3.org/2000/svg"><path fill-rule="evenodd" clip-rule="evenodd" d="M14.333 73.235h270.698c6.189 0 11.239 5.1 11.239 11.347v178.07c0 6.248-5.05 11.348-11.239 11.348H14.333c-6.188 0-11.24-5.1-11.24-11.348V84.582c0-6.248 5.052-11.347 11.24-11.347Z" fill="#000" fill-opacity=".102"/><path fill-rule="evenodd" clip-rule="evenodd" d="M11.24 69.651h270.652c6.188 0 11.239 5.1 11.239 11.348v178.07c0 6.248-5.051 11.347-11.239 11.347H11.239C5.051 270.416 0 265.317 0 259.069V80.999C0 74.75 5.05 69.65 11.24 69.65Z" fill="#E6E6E6"/><path fill-rule="evenodd" clip-rule="evenodd" d="M11.24 67.308h270.652c6.188 0 11.239 5.1 11.239 11.348v178.069c0 6.248-5.051 11.348-11.239 11.348H11.239c-6.188 0-11.239-5.1-11.239-11.348V78.655c0-6.247 5.05-11.347 11.24-11.347Z" fill="#fff"/><path fill-rule="evenodd" clip-rule="evenodd" d="M18.247 74.89H276.34c5.825 0 10.557 4.823 10.557 10.704v165.068c0 5.88-4.732 10.704-10.557 10.704H18.247c-5.825 0-10.557-4.824-10.557-10.704V85.594c0-5.881 4.732-10.705 10.557-10.705Z" fill="#E6E6E6"/><path fill-rule="evenodd" clip-rule="evenodd" d="M15.835 73.51h258.412c5.779 0 10.511 4.778 10.511 10.613v163.644c0 5.834-4.732 10.612-10.511 10.612H15.835c-5.779 0-10.511-4.778-10.511-10.612V84.123c0-5.835 4.732-10.613 10.511-10.613Z" fill="#F1C383"/><path fill-rule="evenodd" clip-rule="evenodd" d="M15.653 70.707h256.41c5.688 0 10.329 4.687 10.329 10.475V241.61c0 5.789-4.641 10.475-10.329 10.475H15.653c-5.688 0-10.33-4.686-10.33-10.475V81.182c0-5.788 4.642-10.475 10.33-10.475Z" fill="#FAEECC"/><path fill-rule="evenodd" clip-rule="evenodd" d="M17.337 72.086H270.38c5.642 0 10.238 4.686 10.238 10.337V240.37c0 5.697-4.596 10.337-10.238 10.337H17.337c-5.597 0-10.238-4.64-10.238-10.337V82.423c0-5.697 4.641-10.337 10.238-10.337Z" fill="#FAEDC9"/><path fill-rule="evenodd" clip-rule="evenodd" d="M19.02 73.51h249.676c5.551 0 10.101 4.594 10.101 10.2v155.374c0 5.651-4.55 10.245-10.101 10.245H19.02c-5.551 0-10.102-4.594-10.102-10.245V83.709c0-5.605 4.55-10.199 10.102-10.199Z" fill="#F9ECC6"/><path fill-rule="evenodd" clip-rule="evenodd" d="M20.704 74.889h246.308c5.506 0 10.011 4.548 10.011 10.06v152.895c0 5.513-4.505 10.061-10.011 10.061H20.704c-5.506 0-10.01-4.548-10.01-10.061V84.95c0-5.513 4.504-10.061 10.01-10.061Z" fill="#F9EBC2"/><path fill-rule="evenodd" clip-rule="evenodd" d="M22.387 76.267h242.987c5.415 0 9.829 4.502 9.829 9.969v150.321c0 5.467-4.414 9.969-9.829 9.969H22.387c-5.46 0-9.874-4.502-9.874-9.969V86.236c0-5.467 4.414-9.97 9.874-9.97Z" fill="#F8EABF"/><path fill-rule="evenodd" clip-rule="evenodd" d="M24.026 77.69h239.665c5.37 0 9.738 4.411 9.738 9.787v147.84c0 5.375-4.368 9.831-9.738 9.831H24.026c-5.324 0-9.737-4.456-9.737-9.831V87.477c0-5.376 4.413-9.786 9.737-9.786Z" fill="#F8E9BC"/><path fill-rule="evenodd" clip-rule="evenodd" d="M25.71 79.07h236.297c5.279 0 9.601 4.364 9.601 9.693V234.03c0 5.33-4.322 9.694-9.601 9.694H25.71c-5.279 0-9.602-4.364-9.602-9.694V88.763c0-5.33 4.323-9.694 9.602-9.694Z" fill="#F7E8B9"/><path fill-rule="evenodd" clip-rule="evenodd" d="M27.393 80.447h232.93c5.233 0 9.51 4.318 9.51 9.556v142.786c0 5.238-4.277 9.556-9.51 9.556H27.393c-5.233 0-9.465-4.318-9.465-9.556V90.003c0-5.238 4.232-9.556 9.465-9.556Z" fill="#F7E7B6"/><path fill-rule="evenodd" clip-rule="evenodd" d="M29.077 81.826h229.609c5.141 0 9.328 4.272 9.328 9.464v140.213c0 5.192-4.187 9.464-9.328 9.464H29.076c-5.141 0-9.373-4.272-9.373-9.464V91.29c0-5.192 4.232-9.464 9.374-9.464Z" fill="#F6E6B3"/><path fill-rule="evenodd" clip-rule="evenodd" d="M30.715 83.25h226.287c5.05 0 9.237 4.18 9.237 9.326v137.687c0 5.099-4.187 9.28-9.237 9.28H30.715c-5.051 0-9.192-4.181-9.192-9.28V92.576c0-5.146 4.14-9.326 9.192-9.326Z" fill="#F6E5AF"/><path fill-rule="evenodd" clip-rule="evenodd" d="M32.398 84.628h222.92c5.006 0 9.101 4.135 9.101 9.188v135.16c0 5.054-4.095 9.189-9.101 9.189H32.398c-5.005 0-9.1-4.135-9.1-9.189V93.816c0-5.053 4.095-9.188 9.1-9.188Z" fill="#F5E4AC"/><path fill-rule="evenodd" clip-rule="evenodd" d="M34.082 86.006h219.552c4.96 0 9.01 4.09 9.01 9.097V227.69c0 5.008-4.05 9.097-9.01 9.097H34.082c-4.96 0-8.964-4.089-8.964-9.097V95.103c0-5.008 4.004-9.097 8.964-9.097Z" fill="#F5E3A9"/><path fill-rule="evenodd" clip-rule="evenodd" d="M273.838 237.017c3.14 0 5.688 2.572 5.688 5.742 0 3.216-2.548 5.789-5.688 5.789-3.14 0-5.688-2.573-5.688-5.789 0-3.17 2.548-5.742 5.688-5.742ZM265.101 242.897c1.729 0 3.094 1.424 3.094 3.124 0 1.7-1.365 3.078-3.094 3.078-1.684 0-3.049-1.378-3.049-3.078s1.365-3.124 3.049-3.124Z" fill="#fff"/><path fill-rule="evenodd" clip-rule="evenodd" d="M18.838 93.908h248.22c4.231 0 7.735 3.492 7.735 7.764v131.21c0 4.272-3.504 7.764-7.735 7.764H18.838c-4.277 0-7.736-3.492-7.736-7.764v-131.21c0-4.272 3.459-7.764 7.736-7.764Z" fill="#EFB469"/><path fill-rule="evenodd" clip-rule="evenodd" d="M21.796 97.629H264.1c4.095 0 7.417 3.4 7.417 7.534v126.615c0 4.135-3.322 7.535-7.417 7.535H21.795c-4.095 0-7.462-3.4-7.462-7.535V105.163c0-4.134 3.367-7.534 7.463-7.534Z" fill="#F1C383"/><path fill-rule="evenodd" clip-rule="evenodd" d="M22.16 99.054h241.577c4.049 0 7.371 3.353 7.371 7.442v125.191c0 4.089-3.322 7.443-7.371 7.443H22.161c-4.05 0-7.372-3.354-7.372-7.443V106.496c0-4.089 3.322-7.442 7.372-7.442Z" fill="#F1C585"/><path fill-rule="evenodd" clip-rule="evenodd" d="M22.48 100.523h240.893c4.004 0 7.28 3.308 7.28 7.351v123.767c0 4.043-3.276 7.35-7.28 7.35H22.479c-4.004 0-7.28-3.307-7.28-7.35V107.874c0-4.043 3.276-7.351 7.28-7.351Z" fill="#F1C786"/><path fill-rule="evenodd" clip-rule="evenodd" d="M22.843 101.948h240.211c3.959 0 7.19 3.262 7.19 7.259v122.342c0 3.997-3.231 7.305-7.19 7.305H22.844c-3.96 0-7.19-3.308-7.19-7.305V109.207c0-3.997 3.23-7.259 7.19-7.259Z" fill="#F2CA88"/><path fill-rule="evenodd" clip-rule="evenodd" d="M23.207 103.372H262.69c3.914 0 7.144 3.262 7.144 7.213v120.918c0 3.951-3.23 7.167-7.144 7.167H23.208c-3.914 0-7.144-3.216-7.144-7.167V110.585c0-3.951 3.23-7.213 7.143-7.213Z" fill="#F2CC8A"/><path fill-rule="evenodd" clip-rule="evenodd" d="M23.525 104.843h238.846c3.868 0 7.007 3.17 7.007 7.075v119.494c0 3.905-3.139 7.121-7.007 7.121H23.525c-3.868 0-7.007-3.216-7.007-7.121V111.918c0-3.905 3.14-7.075 7.007-7.075Z" fill="#F2CE8B"/><path fill-rule="evenodd" clip-rule="evenodd" d="M23.89 106.266h238.118c3.822 0 6.961 3.17 6.961 7.029v118.07c0 3.859-3.139 7.029-6.961 7.029H23.89c-3.823 0-6.962-3.17-6.962-7.029v-118.07c0-3.859 3.14-7.029 6.962-7.029Z" fill="#F2D08D"/><path fill-rule="evenodd" clip-rule="evenodd" d="M24.254 107.691h237.39c3.777 0 6.871 3.124 6.871 6.937v116.646c0 3.813-3.094 6.937-6.871 6.937H24.254c-3.777 0-6.87-3.124-6.87-6.937V114.628c0-3.813 3.093-6.937 6.87-6.937Z" fill="#F2D28E"/><path fill-rule="evenodd" clip-rule="evenodd" d="M24.572 109.161h236.753c3.731 0 6.78 3.078 6.78 6.799v115.268c0 3.767-3.049 6.845-6.78 6.845H24.572c-3.731 0-6.78-3.078-6.78-6.845V115.96c0-3.721 3.049-6.799 6.78-6.799Z" fill="#F2D490"/><path fill-rule="evenodd" clip-rule="evenodd" d="M24.936 110.585h236.025c3.686 0 6.689 3.033 6.689 6.754v113.797c0 3.722-3.003 6.754-6.689 6.754H24.936c-3.685 0-6.688-3.032-6.688-6.754V117.339c0-3.721 3.003-6.754 6.688-6.754Z" fill="#F3D792"/><path fill-rule="evenodd" clip-rule="evenodd" d="M25.255 112.009h235.342c3.641 0 6.644 3.032 6.644 6.661v112.419c0 3.676-3.003 6.662-6.644 6.662H25.255c-3.595 0-6.598-2.986-6.598-6.662V118.67c0-3.629 3.003-6.661 6.598-6.661Z" fill="#F3D993"/><path fill-rule="evenodd" clip-rule="evenodd" d="M25.618 113.479h234.66c3.595 0 6.507 2.94 6.507 6.57v110.949c0 3.629-2.912 6.615-6.507 6.615H25.618c-3.595 0-6.507-2.986-6.507-6.615V120.049c0-3.63 2.912-6.57 6.507-6.57Z" fill="#F3DB95"/><path d="M105.273 28.137c-1.967 21.951-.82 37.241 5.244 49.806 5.899 12.263 16.879 22.86 34.578 35.425 17.699-12.565 28.843-23.162 34.742-35.424 6.064-12.566 7.211-27.856 5.08-49.807-13.765-2.422-26.712-3.785-39.822-3.785-12.946-.151-25.893 1.212-39.822 3.785Zm-11.8 56.619c-8.03-16.653-9.177-36.182-5.9-64.491l.656-6.056 6.392-1.362c17.535-3.785 33.922-5.601 50.474-5.601s32.94 1.968 50.475 5.6l6.391 1.363.655 6.056c3.278 28.31 2.131 47.838-5.899 64.491-8.03 16.804-22.452 30.126-46.05 46.173l-5.572 3.633-5.408-3.633c-23.598-16.047-38.184-29.369-46.214-46.173Z" fill="#000" fill-opacity=".102"/><path d="M105.273 20.899c-1.967 21.95-.82 37.239 5.244 49.651 5.899 12.413 16.879 23.01 34.578 35.423 17.699-12.413 28.843-23.01 34.742-35.423 6.064-12.412 7.211-27.702 5.08-49.651-13.765-2.574-26.712-3.936-39.822-3.936-12.946 0-25.893 1.211-39.822 3.936Zm-11.8 56.615c-8.03-16.803-9.177-36.18-5.9-64.487l.656-6.055 6.392-1.362c17.535-3.936 33.922-5.753 50.474-5.601 16.552 0 32.94 1.816 50.475 5.6l6.391 1.363.655 6.055c3.278 28.308 2.131 47.684-5.899 64.487-8.03 16.803-22.452 29.972-46.05 46.018l-5.572 3.785-5.408-3.785c-23.598-16.046-38.184-29.215-46.214-46.018Z" fill="#fff"/><path fill-rule="evenodd" clip-rule="evenodd" d="M97.211 10.54c-6.001 54.02 3.893 72.888 47.849 103.321 44.118-30.433 54.012-49.302 47.849-103.32-33.251-7-62.285-7.305-95.698 0Z" fill="#E6E6E6"/><path fill-rule="evenodd" clip-rule="evenodd" d="M145.792 113.861c43.466-30.444 53.214-49.32 47.142-103.358-16.3-3.5-31.801-5.327-47.142-5.327V113.86Z" fill="#CCC"/><path fill-rule="evenodd" clip-rule="evenodd" d="M145.025 102.621c-12.486-8.506-22.215-16.252-29.512-23.998-13.134-13.822-18.972-28.1-19.782-48.605-1.46 39.643 11.026 57.414 49.294 83.843 38.429-26.429 50.753-44.2 49.456-83.843-.811 20.505-6.649 34.783-19.783 48.605-7.459 7.746-17.188 15.492-29.673 23.998Z" fill="#fff"/><path fill-rule="evenodd" clip-rule="evenodd" d="M95.618 37.066c.162 35.002 13.302 52.05 49.477 76.794 36.175-24.743 49.315-41.792 49.477-76.794v-4.98c-.811 20.369-6.651 34.55-19.791 48.28-7.462 7.694-17.195 15.389-29.686 23.989-12.491-8.6-22.224-16.295-29.524-23.99-13.14-13.728-18.98-27.91-19.791-48.278-.162 1.81-.162 3.47-.162 4.979Z" fill="#999"/><path fill-rule="evenodd" clip-rule="evenodd" d="m143.004 4.14 5.575 1.059-3.393 44.485-2.182-45.544Z" fill="#fff"/><path fill-rule="evenodd" clip-rule="evenodd" d="m145.014 120.781-5.404-3.8c-23.583-16.114-38.158-29.34-46.183-46.214-4.913-10.337-7.205-21.739-7.533-35.573-.327 16.874 1.802 30.1 7.533 42.11 8.025 16.874 22.6 30.099 46.183 46.213l5.404 3.801 5.568-3.801c23.583-16.114 37.994-29.34 46.019-46.213 5.732-12.01 8.024-25.236 7.697-42.11-.328 13.834-2.784 25.235-7.697 35.573-8.025 16.874-22.436 30.1-46.019 46.214l-5.568 3.8Z" fill="#E6E6E6"/><path fill-rule="evenodd" clip-rule="evenodd" d="M88.44 74.257c0 .133-.035.265-.035.397v.066c-.036.099-.036.198-.071.297 0 .033-.035.066-.035.099-.035.066-.035.132-.07.198-.036.033-.071.066-.071.132-.035.033-.07.1-.106.132 0 .033-.035.066-.07.1a.46.46 0 0 1-.106.131l-.106.1c-.035.032-.105.065-.14.098-.036.033-.07.066-.141.1-.035 0-.07.032-.141.066a.274.274 0 0 1-.14.066c-.071.032-.107.066-.177.066-.07.033-.106.033-.176.066-.07 0-.106.033-.176.033-.07.033-.106.033-.176.033-.07.033-.141.033-.247.066h-.14c-.106 0-.177.033-.282.033H84.67c-.105 0-.211 0-.317-.033h-.21c-.107-.033-.247-.033-.353-.033l-.211-.033c-.141-.033-.282-.033-.388-.066h-.211c-.141-.033-.282-.066-.423-.066l-.211-.034-.423-.099-.246-.032c-.141-.034-.317-.067-.458-.1h-.176l-.564-.132-.14-.033c-4.403-.891-10.178-2.509-16.2-3.235a43.837 43.837 0 0 0-2.924-.297h-.035c-.317-.033-.634-.033-.95-.067h-.036c-.317 0-.634-.032-.951-.032h-.035c-6.55-.166-13.03 1.122-17.997 5.876h-.035l-.14.132v.034c-.247.198-.459.429-.67.66 3.346-13.273 9.615-17.268 17.574-21.065l-.282-.23-.986-.793h176.794l-.986.792-.282.231c7.924 3.797 14.228 7.792 17.574 21.065a6.136 6.136 0 0 0-.669-.66v-.034l-.141-.132h-.035c-4.966-4.754-11.446-6.042-17.997-5.877h-.035c-.317 0-.669.034-.986.034-.317.033-.634.033-.951.066h-.035c-.986.066-1.937.165-2.923.297h-.035c-6.023.726-11.798 2.344-16.201 3.235l-.14.033-.529.132h-.176c-.141.033-.317.066-.458.1l-.246.032-.423.1-.211.032c-.141 0-.282.034-.423.067h-.211c-.141.033-.246.033-.387.066l-.212.033c-.105 0-.246 0-.352.033h-.211c-.106.033-.211.033-.352.033h-1.127c-.106 0-.176-.033-.282-.033h-.176c-.071-.033-.141-.033-.211-.066-.071 0-.106 0-.177-.033-.07 0-.14-.033-.176-.033-.07-.033-.14-.033-.176-.066-.07 0-.105-.034-.176-.067a.278.278 0 0 1-.141-.066c-.07-.032-.105-.066-.176-.066l-.105-.099a.473.473 0 0 1-.141-.099l-.106-.099c-.035-.033-.07-.066-.106-.132l-.105-.099c0-.033-.035-.099-.071-.132-.035-.066-.035-.099-.07-.132-.035-.066-.035-.132-.071-.198 0-.033-.035-.066-.035-.1-.035-.098-.035-.197-.07-.296v-.066c-.035-.132-.035-.264-.035-.397v-9.443h-.036l-.352-.032h-.035v-.033H201.031v-.033h-.035l-.88-.1-.035-.032H200.01l-.739-.1h-.036a19.156 19.156 0 0 0-1.444-.164l-.035-.033h-.035l-.704-.066H196.946l-.035-.034h-.035l-.74-.066h-.07l-.036-.032H195.854l-.845-.1H194.904c-.494-.066-.987-.099-1.48-.165h-.07l-.845-.099-1.198-.099-.88-.066h-.035l-.036-.033h-.035c-.528-.033-1.056-.066-1.62-.132H188.564l-.88-.066H187.578l-.035-.033H187.437l-.845-.066H186.381l-.916-.066h-.07l-.036-.033-1.69-.099H183.528l-.986-.066-1.338-.1h-.035l-.951-.065H180.077c-.564-.033-1.162-.066-1.726-.1H178.175l-1.092-.065-1.232-.066h-.036l-1.232-.066H174.477l-1.726-.066H172.646l-1.162-.066h-.071l-1.268-.033-1.549-.066H168.314l-1.374-.066h-.14l-1.127-.034-1.409-.032-1.514-.033-1.902-.066h-1.162l-1.515-.034-1.268-.033c-.598 0-1.197-.033-1.796-.033h-1.514l-1.338-.033H150.318l-1.585-.033H141.372l-1.549.033h-1.937l-1.303.033H135.315l-1.761.033h-.035l-1.62.033-1.409.033h-1.268l-1.55.067H127.567l-1.303.033H125.876l-1.408.032-1.163.034-1.62.066h-.035l-1.761.066-1.091.033-1.304.066h-.035l-1.232.066H115.91l-1.374.066H114.219l-1.092.066-1.232.066H111.684l-.036.033-1.444.066H109.958l-1.021.066-1.339.099h-.035l-.916.066h-.07c-.599.033-1.162.066-1.726.099h-.035l-.035.033H104.71l-.986.066h-.035l-1.127.1h-.035l-1.021.065H101.365c-.529.066-1.022.1-1.515.132l-.07.033h-.035l-.951.066-1.092.1-.916.098h-.07c-.493.066-.986.1-1.48.165H95.132l-.845.1h-.035l-1.022.132H93.088l-.633.066H92.383v.033h-.035c-.458.033-.951.099-1.409.165H90.835l-.036.033-.598.066H90.095l-.035.033-.88.099h-.036l-.035.033h-.035l-.634.099v9.409Z" fill="#000" fill-opacity=".102"/><path fill-rule="evenodd" clip-rule="evenodd" d="M88.44 71.22c0 8.882-32.365-12.05-48.072 4.689 3.838-13.768 9.015-16.575 17.573-21.065l-13.03-10.466c13.136-5.316 36.52 7.362 43.53-4.755V71.22Z" fill="#E54149"/><path fill-rule="evenodd" clip-rule="evenodd" d="M41.213 75.083c-.317.264-.564.528-.845.826 3.345-13.273 9.614-17.268 17.573-21.065-5.177 6.34-12.995 8.881-16.728 20.24ZM46.6 45.732l-1.69-1.354c13.136-5.316 36.52 7.362 43.53-4.755v1.916C81.712 53.16 59.948 42 46.6 45.731Z" fill="#FF6595"/><path fill-rule="evenodd" clip-rule="evenodd" d="M88.44 71.22c0 8.881-32.365-12.051-48.072 4.688 11.128-21.56 48.072 1.024 48.072-7.758v3.07Z" fill="#CF1922"/><path fill-rule="evenodd" clip-rule="evenodd" d="m75.69 35.794 12.75 1.089V71.22c-2.818-10.037-12.75-.462-12.75-5.349V35.794Z" fill="#E54149"/><path fill-rule="evenodd" clip-rule="evenodd" d="m75.69 35.794 12.75 1.056v34.37c-1.796-10.895-12.256-1.09-11.974-7.032l-.775-28.395Z" fill="#AB0009"/><path fill-rule="evenodd" clip-rule="evenodd" d="M201.701 71.22c0 8.882 32.365-12.05 48.072 4.689-3.839-13.768-9.016-16.575-17.574-21.065l13.031-10.466c-13.136-5.316-36.521 7.362-43.529-4.755V71.22Z" fill="#E54149"/><path fill-rule="evenodd" clip-rule="evenodd" d="M201.701 71.22c0 8.881 32.365-12.051 48.072 4.688-3.839-13.768-9.016-16.574-17.574-21.064l.282-.231c-12.115.99-25.709 5.183-30.78-3.566V71.22Z" fill="url(#a)"/><path fill-rule="evenodd" clip-rule="evenodd" d="M248.928 75.083c.282.264.563.528.845.826-3.346-13.273-9.65-17.268-17.574-21.065 5.177 6.34 12.996 8.881 16.729 20.24Zm-5.388-29.351 1.69-1.354c-13.136-5.316-36.521 7.362-43.529-4.755v1.916c6.726 11.621 28.456.462 41.839 4.193Z" fill="#FF6595"/><path fill-rule="evenodd" clip-rule="evenodd" d="M201.701 71.22c0 8.882 32.365-12.05 48.072 4.689-11.164-21.56-48.072 1.023-48.072-7.76v3.072Z" fill="#CF1922"/><path fill-rule="evenodd" clip-rule="evenodd" d="m214.45 35.794-12.749 1.089V71.22c2.817-10.037 12.749-.462 12.749-5.349V35.794Z" fill="#E54149"/><path fill-rule="evenodd" clip-rule="evenodd" d="m214.45 35.794-12.749 1.056v34.37c1.796-10.895 12.256-1.09 11.974-7.032l.775-28.395Z" fill="#AB0009"/><path fill-rule="evenodd" clip-rule="evenodd" d="M75.69 35.794c2.114-11.787 136.681-11.787 138.794 0V65.64c-7.29-9.08-131.539-9.08-138.794 0V35.794Z" fill="#E54149"/><path fill-rule="evenodd" clip-rule="evenodd" d="M214.484 47.713V65.64c-7.29-9.08-131.539-9.08-138.794 0V47.713c22.646-7.43 116.149-7.43 138.794 0Z" fill="#E01B25"/><path fill-rule="evenodd" clip-rule="evenodd" d="M75.726 35.695c2.747-11.655 135.976-11.655 138.723 0-17.045-8.75-121.678-8.75-138.723 0Z" fill="#FF6595"/><path fill-rule="evenodd" clip-rule="evenodd" d="M214.484 63.923v1.717c-7.29-9.08-131.539-9.08-138.794 0v-1.717c7.255-9.08 131.504-9.08 138.794 0Z" fill="#C20F18"/><path d="m134.902 42.416 1.821-1.042 1.597 6.563 1.101-7.058 1.866.625-1.866 8.464-2.136-.052-2.383-7.5ZM142.807 49.471l.941-2.266c1.2.837 2.108 1.255 2.756 1.255a.97.97 0 0 0 .681-.244.628.628 0 0 0 .357-.593c0-.348-.421-.662-1.33-.906-1.264-.349-2.14-1.081-2.562-2.162-.162-.384-.227-.698-.227-1.011 0-.663.292-1.22.941-1.744.519-.418 1.33-.628 2.367-.628.746 0 1.622.105 2.627.314l-.648 2.197c-.779-.384-1.395-.558-1.881-.558-.227 0-.454.07-.649.174-.259.105-.389.314-.389.523 0 .21.162.419.519.663.227.14.681.384 1.362.663.551.244.973.488 1.232.697.357.349.552.837.584 1.43.033.941-.389 1.813-1.265 2.615-.356.349-.908.488-1.621.488-.941 0-2.206-.279-3.795-.907ZM85.518 45.94l-.39-1.987-.392 1.986h.782Zm-1.086 1.527-.651 3.208L82 50.318 84.259 41h1.737l2.389 8.86-1.955.611-.608-3.004h-1.39ZM106.638 45.271l-.867 4.009-1.701-.081-.798-4.738-.625 5.507-1.493-.486.938-6.64 2.29-.203.729 3.563 1.041-3.482 1.805.121.798 6.844-1.666.08-.451-4.494ZM121.829 49.275l.728-1.733c.928.64 1.63.96 2.132.96.2 0 .376-.053.526-.187a.479.479 0 0 0 .276-.453c0-.266-.326-.506-1.028-.693-.978-.266-1.656-.826-1.982-1.652a1.91 1.91 0 0 1-.175-.773c0-.506.225-.933.727-1.333.401-.32 1.029-.48 1.831-.48.577 0 1.254.08 2.032.24l-.502 1.68c-.602-.294-1.078-.427-1.454-.427-.176 0-.352.053-.502.133-.201.08-.301.24-.301.4 0 .16.125.32.401.507.176.106.527.293 1.054.506.426.187.752.373.953.533.276.267.426.64.451 1.093.025.72-.301 1.386-.978 1.999-.276.266-.702.373-1.254.373-.728 0-1.706-.213-2.935-.693ZM90.513 42.797l.246 6.833 1.4.045v-3.653c.436-.835.795-1.24 1.098-1.24.152 0 .284.112.417.36.17.361.265.97.265 1.804 0 .7-.057 1.534-.17 2.526l1.551-.068c.038-.811.057-1.556.057-2.232 0-1.85-.151-3.203-.492-4.014-.208-.542-.53-.812-.984-.812-.492 0-1.098.315-1.855.947l-.095-.79-1.438.294ZM97.592 43.9c.107 1.153.15 2.279.15 3.404 0 .907-.043 1.785-.086 2.664l1.677-.192c.108-2.06.194-4.12.258-6.206l-2 .33Zm.129-3.296c-.15.275-.215.55-.215.824 0 .192.043.384.15.577.194.439.473.659.817.686.323.055.624-.137.882-.522.193-.274.28-.576.28-.85 0-.138-.022-.276-.065-.385-.108-.44-.344-.714-.71-.88-.086-.026-.172-.054-.258-.054-.3 0-.58.192-.881.604ZM110.275 45.342l1.609.297c.354-.784.757-1.162 1.135-1.135.473.054.757.216.851.567 0 .027 0 .46.024 1.298-.426-.19-.828-.297-1.23-.297-.307 0-.615.054-.899.162-.615.243-.922.784-.922 1.649 0 .054 0 .162.024.324.094 1.054 1.135 1.622 3.169 1.703l.024.351 1.608-.135.047-2.433c.024-1.027-.047-1.946-.26-2.757-.355-1.513-1.183-2.297-2.483-2.297-.261 0-.544.054-.805.108-.827.216-1.442 1.081-1.892 2.595Zm3.666 2.081.048 1.243c-1.017-.243-1.514-.54-1.49-.919.023-.27.26-.405.685-.405.213 0 .45.027.757.081ZM117.572 40.88l.326 9.381 1.803-.221-.587-9.16h-1.542ZM162.461 43.474l-1.041 5.292-2.041-.107-.958-6.254-.749 7.27-1.791-.642 1.124-8.766 2.749-.267.875 4.704 1.249-4.597 2.166.16.958 9.034-1.999.106-.542-5.933ZM204.527 48.953l.771-1.804c.982.666 1.726 1 2.257 1a.81.81 0 0 0 .558-.195.499.499 0 0 0 .292-.472c0-.278-.345-.528-1.089-.722-1.036-.278-1.753-.86-2.098-1.721a1.955 1.955 0 0 1-.186-.805c0-.528.239-.972.77-1.389.425-.333 1.089-.5 1.939-.5.611 0 1.328.084 2.151.25l-.531 1.75c-.637-.306-1.142-.445-1.54-.445-.186 0-.372.056-.531.14-.213.083-.319.25-.319.416 0 .166.133.333.425.527a8.25 8.25 0 0 0 1.115.528c.452.194.797.388 1.01.555.292.278.451.666.478 1.138.026.75-.319 1.444-1.036 2.082-.292.278-.744.39-1.328.39-.77 0-1.806-.223-3.108-.723ZM179.596 48.982l.728-1.732c.928.64 1.63.96 2.132.96a.76.76 0 0 0 .527-.187.48.48 0 0 0 .275-.453c0-.267-.326-.507-1.028-.693-.978-.267-1.656-.826-1.982-1.653a1.91 1.91 0 0 1-.175-.772c0-.507.226-.933.727-1.333.402-.32 1.029-.48 1.831-.48.577 0 1.255.08 2.032.24l-.502 1.68c-.602-.294-1.078-.427-1.454-.427-.176 0-.352.053-.502.133-.201.08-.301.24-.301.4 0 .16.125.32.401.506.176.107.527.293 1.054.507.426.186.752.373.953.533.276.266.426.64.451 1.092.026.72-.301 1.386-.978 2-.276.266-.702.372-1.254.372-.727 0-1.706-.213-2.935-.693ZM173.211 42.503l.246 6.834 1.401.045v-3.654c.436-.834.795-1.24 1.098-1.24.151 0 .284.113.416.36.171.361.265.97.265 1.805 0 .699-.056 1.533-.17 2.526l1.552-.068c.038-.812.057-1.556.057-2.233 0-1.849-.151-3.202-.492-4.014-.208-.541-.53-.812-.984-.812-.493 0-1.098.316-1.855.947l-.095-.789-1.439.293ZM166.524 46.298c.036-1.085.239-2.029.643-2.83.478-.944 1.104-1.416 1.894-1.416.846 0 1.435.283 1.821.802.294.425.533 1.203.699 2.312.073.448.11.849.11 1.25 0 .826-.165 1.533-.478 2.076-.478.825-1.195 1.226-2.17 1.18-.883-.048-1.526-.331-1.931-.874-.423-.542-.607-1.368-.588-2.5Zm3.31-1.722c-.258-.33-.515-.472-.736-.472-.294 0-.551.236-.791.708-.22.425-.331.85-.331 1.25 0 .378.111.779.295 1.156.22.448.478.684.754.684.331 0 .643-.236.901-.66.257-.401.386-.826.386-1.25 0-.472-.147-.944-.478-1.416ZM186.341 45.334l-.056-1.718.972-.113.037-2.826 1.402-.09-.131 2.78 1.327-.135.094 1.718-1.477.158v.565c0 1.605.169 2.442.505 2.487.393.068.673-.294.841-1.063l.991.181c-.056 1.108-.318 1.787-.785 2.08a2.194 2.194 0 0 1-1.178.317c-.168 0-.374-.023-.561-.068-.691-.113-1.065-1.56-1.084-4.363l-.897.09ZM193.573 46.785c.164.706.512 1.07 1.06 1.115.512.023.842-.318 1.025-1l1.572-.274c-.402 2.025-1.188 3.049-2.377 3.049-.366 0-.768-.114-1.225-.319-.842-.591-1.262-1.729-1.262-3.412 0-.16.018-.319.018-.5.091-1.934.841-3.072 2.286-3.39 1.39-.046 2.176 1.137 2.377 3.548l-3.474 1.184Zm.42-2.48c-.201.297-.311.683-.347 1.115l2.103-.75c-.238-.546-.549-.82-.896-.82a.997.997 0 0 0-.86.456ZM199.373 49.151c0-2.802-.06-5.028-.161-6.73l1.466-.158-.04.629c.723-.576 1.466-.864 2.228-.838l.141 1.676c-.863 0-1.486.236-1.827.707-.241.34-.361 1.179-.361 2.514 0 .602.02 1.31.06 2.148l-1.506.052Z" fill="#fff"/><defs><linearGradient id="a" x1="209.206" y1="63.719" x2="242.196" y2="61.918" gradientUnits="userSpaceOnUse"><stop stop-color="#AB0009"/><stop offset="1" stop-color="#E54149"/></linearGradient></defs></svg>