<svg width="100" height="170" viewBox="0 0 100 170" fill="none" xmlns="http://www.w3.org/2000/svg">
<g clip-path="url(#clip0_487_107272)">
<path fill-rule="evenodd" clip-rule="evenodd" d="M16.2109 22.1172H87.0729C89.9109 22.1172 92.2229 25.1662 92.2229 28.8492V162.694C92.2229 166.409 89.9109 169.426 87.0729 169.426H16.2109C13.3999 169.426 11.0879 166.409 11.0879 162.694V28.8492C11.0879 25.1662 13.3999 22.1172 16.2109 22.1172Z" fill="black" fill-opacity="0.102"/>
<path fill-rule="evenodd" clip-rule="evenodd" d="M14.7919 20.021H85.6539C88.4919 20.021 90.8039 23.038 90.8039 26.721V160.597C90.8039 164.281 88.4919 167.298 85.6539 167.298H14.7919C11.9819 167.298 9.66895 164.281 9.66895 160.597V26.721C9.66895 23.038 11.9809 20.021 14.7919 20.021V20.021Z" fill="#E6E6E6"/>
<path fill-rule="evenodd" clip-rule="evenodd" d="M14.7919 18.624H85.6539C88.4919 18.624 90.8039 21.641 90.8039 25.324V159.2C90.8039 162.884 88.4919 165.901 85.6539 165.901H14.7919C11.9819 165.901 9.66895 162.884 9.66895 159.2V25.324C9.66895 21.641 11.9809 18.624 14.7919 18.624V18.624Z" fill="white"/>
<path fill-rule="evenodd" clip-rule="evenodd" d="M18.0241 23.1011H83.1061C85.7861 23.1011 87.9401 25.9591 87.9401 29.4511V155.612C87.9401 159.073 85.7861 161.931 83.1061 161.931H18.0241C15.3441 161.931 13.1641 159.073 13.1641 155.612V29.4521C13.1641 25.9591 15.3441 23.1021 18.0241 23.1021V23.1011Z" fill="#E6E6E6"/>
<path fill-rule="evenodd" clip-rule="evenodd" d="M16.8949 22.2759H82.1599C84.8139 22.2759 86.9679 25.1019 86.9679 28.5629V153.866C86.9679 157.327 84.8139 160.185 82.1599 160.185H16.8949C14.2669 160.185 12.0859 157.327 12.0859 153.866V28.5629C12.0859 25.1019 14.2669 22.2759 16.8949 22.2759Z" fill="#F1C383"/>
<path fill-rule="evenodd" clip-rule="evenodd" d="M16.8419 20.625H81.1619C83.7619 20.625 85.8909 23.419 85.8909 26.848V150.246C85.8909 153.675 83.7629 156.438 81.1609 156.438H16.8429C14.2159 156.438 12.0869 153.675 12.0869 150.246V26.848C12.0869 23.418 14.2159 20.625 16.8429 20.625H16.8419Z" fill="#FAEECC"/>
<path fill-rule="evenodd" clip-rule="evenodd" d="M17.6038 21.4502H80.3988C82.9738 21.4502 85.0758 24.2132 85.0758 27.5792V149.515C85.0758 152.881 82.9738 155.612 80.3988 155.612H17.6038C15.0288 155.612 12.9268 152.881 12.9268 149.515V27.5792C12.9268 24.2132 15.0288 21.4502 17.6038 21.4502V21.4502Z" fill="#FAEDC9"/>
<path fill-rule="evenodd" clip-rule="evenodd" d="M18.3662 22.2759H79.6372C82.1592 22.2759 84.2352 25.0059 84.2352 28.3409V148.753C84.2352 152.088 82.1592 154.787 79.6372 154.787H18.3652C15.8172 154.787 13.7412 152.088 13.7412 148.753V28.3409C13.7412 25.0069 15.8172 22.2759 18.3662 22.2759Z" fill="#F9ECC6"/>
<path fill-rule="evenodd" clip-rule="evenodd" d="M19.1282 23.1021H78.8762C81.3722 23.1021 83.4212 25.8011 83.4212 29.0721V147.99C83.4212 151.293 81.3712 153.96 78.8762 153.96H19.1282C16.6052 153.96 14.5562 151.293 14.5562 147.99V29.0711C14.5562 25.8011 16.6062 23.1011 19.1282 23.1011V23.1021Z" fill="#F9EBC2"/>
<path fill-rule="evenodd" clip-rule="evenodd" d="M19.8899 23.9268H78.1129C80.5829 23.9268 82.6059 26.5938 82.6059 29.8328V147.261C82.6059 150.5 80.5829 153.135 78.1129 153.135H19.8899C17.4199 153.135 15.3979 150.5 15.3979 147.261V29.8328C15.3979 26.5938 17.4209 23.9268 19.8899 23.9268Z" fill="#F8EABF"/>
<path fill-rule="evenodd" clip-rule="evenodd" d="M20.6509 24.7529H77.3249C79.7689 24.7529 81.7919 27.3889 81.7919 30.5959V146.499C81.7919 149.706 79.7689 152.31 77.3249 152.31H20.6509C18.2079 152.31 16.2109 149.706 16.2109 146.499V30.5959C16.2109 27.3889 18.2079 24.7529 20.6509 24.7529Z" fill="#F8E9BC"/>
<path fill-rule="evenodd" clip-rule="evenodd" d="M21.4139 25.5781H76.5639C78.9809 25.5781 80.9509 28.1821 80.9509 31.3261V145.768C80.9509 148.912 78.9809 151.484 76.5629 151.484H21.4129C18.9969 151.484 17.0259 148.912 17.0259 145.768V31.3261C17.0259 28.1821 18.9959 25.5781 21.4139 25.5781V25.5781Z" fill="#F7E8B9"/>
<path fill-rule="evenodd" clip-rule="evenodd" d="M22.1748 26.4038H75.8008C78.1908 26.4038 80.1358 28.9758 80.1358 32.0878V145.006C80.1358 148.118 78.1918 150.659 75.8008 150.659H22.1748C19.8098 150.659 17.8398 148.118 17.8398 145.006V32.0878C17.8398 28.9758 19.8098 26.4038 22.1748 26.4038Z" fill="#F7E7B6"/>
<path fill-rule="evenodd" clip-rule="evenodd" d="M22.9382 27.23H75.0402C77.4042 27.23 79.3222 29.77 79.3222 32.818V144.244C79.3222 147.324 77.4042 149.865 75.0402 149.865H22.9382C20.5992 149.865 18.6812 147.324 18.6812 144.244V32.818C18.6812 29.77 20.5992 27.23 22.9382 27.23V27.23Z" fill="#F6E6B3"/>
<path fill-rule="evenodd" clip-rule="evenodd" d="M23.7001 28.0552H74.2781C76.5901 28.0552 78.4811 30.5322 78.4811 33.5802V143.514C78.4811 146.531 76.5901 149.039 74.2781 149.039H23.6991C21.3871 149.039 19.4961 146.531 19.4961 143.514V33.5802C19.4961 30.5322 21.3871 28.0552 23.7001 28.0552V28.0552Z" fill="#F6E5AF"/>
<path fill-rule="evenodd" clip-rule="evenodd" d="M24.4871 28.8799H73.5151C75.8011 28.8799 77.6661 31.3259 77.6661 34.3419V142.751C77.6661 145.736 75.8011 148.213 73.5151 148.213H24.4871C22.2011 148.213 20.3101 145.736 20.3101 142.751V34.3419C20.3101 31.3259 22.1751 28.8799 24.4871 28.8799Z" fill="#F5E4AC"/>
<path fill-rule="evenodd" clip-rule="evenodd" d="M25.2499 29.7061H72.7539C75.0139 29.7061 76.8519 32.1191 76.8519 35.0721V141.99C76.8519 144.944 75.0129 147.389 72.7539 147.389H25.2499C22.9899 147.389 21.1499 144.944 21.1499 141.99V35.0721C21.1499 32.1191 22.9899 29.7061 25.2499 29.7061V29.7061Z" fill="#F5E3A9"/>
<path fill-rule="evenodd" clip-rule="evenodd" d="M81.8441 147.134C83.2891 147.134 84.4461 148.658 84.4461 150.532C84.4461 152.437 83.2891 153.961 81.8441 153.961C80.3991 153.961 79.2441 152.437 79.2441 150.532C79.2441 148.658 80.3991 147.134 81.8441 147.134ZM77.8501 150.626C78.6391 150.626 79.2701 151.452 79.2701 152.468C79.2701 153.484 78.6391 154.278 77.8501 154.278C77.0891 154.278 76.4581 153.484 76.4581 152.468C76.4581 151.452 77.0881 150.626 77.8511 150.626H77.8501ZM17.1831 22.2121C19.4171 22.2121 21.2301 24.5621 21.2301 27.4831C21.2301 30.4041 19.4171 32.7542 17.1831 32.7542C14.9761 32.7542 13.1631 30.4041 13.1631 27.4841C13.1631 24.5621 14.9761 22.2121 17.1831 22.2121V22.2121ZM23.4101 21.5771C24.6451 21.5771 25.6441 22.8791 25.6441 24.4671C25.6441 26.0871 24.6451 27.3881 23.4111 27.3881C22.1761 27.3881 21.1771 26.0861 21.1771 24.4671C21.1771 22.8791 22.1761 21.5771 23.4111 21.5771H23.4101Z" fill="white"/>
<path fill-rule="evenodd" clip-rule="evenodd" d="M19.838 31.6108H77.7731C80.1901 31.6108 82.1351 34.4058 82.1351 37.8668V143.482C82.1351 146.943 80.1901 149.769 77.7731 149.769H19.838C17.448 149.769 15.4771 146.943 15.4771 143.482V37.8668C15.4771 34.4058 17.447 31.6108 19.838 31.6108V31.6108Z" fill="#EFB469"/>
<path fill-rule="evenodd" clip-rule="evenodd" d="M21.4672 34.5962H76.1442C78.4562 34.5962 80.3742 37.3272 80.3742 40.6612V142.624C80.3742 145.927 78.4562 148.658 76.1442 148.658H21.4672C19.1552 148.658 17.2632 145.959 17.2632 142.624V40.6612C17.2632 37.3272 19.1552 34.5962 21.4672 34.5962V34.5962Z" fill="#F1C383"/>
<path fill-rule="evenodd" clip-rule="evenodd" d="M21.65 35.772H75.96C78.246 35.772 80.138 38.471 80.138 41.742V142.56C80.138 145.863 78.246 148.53 75.96 148.53H21.65C19.365 148.53 17.5 145.863 17.5 142.56V41.741C17.5 38.471 19.365 35.771 21.65 35.771V35.772Z" fill="#F1C585"/>
<path fill-rule="evenodd" clip-rule="evenodd" d="M21.8348 36.915H75.7758C78.0358 36.915 79.9008 39.582 79.9008 42.853V142.498C79.9008 145.769 78.0358 148.436 75.7758 148.436H21.8358C19.5758 148.436 17.7358 145.769 17.7358 142.498V42.853C17.7358 39.583 19.5758 36.915 21.8358 36.915H21.8348Z" fill="#F1C786"/>
<path fill-rule="evenodd" clip-rule="evenodd" d="M22.0451 38.0899H75.5921C77.8261 38.0899 79.6651 40.7249 79.6651 43.9319V142.434C79.6651 145.673 77.8251 148.309 75.5921 148.309H22.0451C19.7851 148.309 17.9731 145.673 17.9731 142.434V43.9319C17.9731 40.7249 19.7861 38.0889 22.0451 38.0889V38.0899Z" fill="#F2CA88"/>
<path fill-rule="evenodd" clip-rule="evenodd" d="M22.229 39.2329H75.409C77.615 39.2329 79.429 41.8369 79.429 45.0129V142.403C79.429 145.578 77.615 148.182 75.409 148.182H22.229C20.022 148.182 18.209 145.578 18.209 142.403V45.0129C18.209 41.8369 20.022 39.2329 22.229 39.2329V39.2329Z" fill="#F2CC8A"/>
<path fill-rule="evenodd" clip-rule="evenodd" d="M22.4128 40.4082H75.1978C77.4048 40.4082 79.1918 42.9802 79.1918 46.1232V142.339C79.1918 145.483 77.4048 148.055 75.1978 148.055H22.4128C20.2318 148.055 18.4448 145.483 18.4448 142.339V46.1242C18.4448 42.9802 20.2318 40.4082 22.4128 40.4082Z" fill="#F2CE8B"/>
<path fill-rule="evenodd" clip-rule="evenodd" d="M22.5972 41.5498H75.0142C77.1692 41.5498 78.9552 44.0908 78.9552 47.2028V142.276C78.9552 145.387 77.1692 147.928 75.0152 147.928H22.5962C20.4412 147.928 18.6812 145.387 18.6812 142.276V47.2028C18.6812 44.0908 20.4412 41.5508 22.5962 41.5508L22.5972 41.5498Z" fill="#F2D08D"/>
<path fill-rule="evenodd" clip-rule="evenodd" d="M22.78 42.7261H74.83C76.958 42.7261 78.718 45.2341 78.718 48.2831V142.212C78.718 145.292 76.958 147.801 74.83 147.801H22.78C20.652 147.801 18.918 145.292 18.918 142.212V48.2821C18.918 45.2341 20.652 42.7261 22.78 42.7261V42.7261Z" fill="#F2D28E"/>
<path fill-rule="evenodd" clip-rule="evenodd" d="M22.9898 43.8701H74.6458C76.7478 43.8701 78.4818 46.3461 78.4818 49.3941V142.181C78.4818 145.197 76.7478 147.674 74.6458 147.674H22.9908C20.8628 147.674 19.1548 145.197 19.1548 142.181V49.3941C19.1548 46.3461 20.8628 43.8691 22.9908 43.8691L22.9898 43.8701Z" fill="#F2D490"/>
<path fill-rule="evenodd" clip-rule="evenodd" d="M23.1751 45.0439H74.4351C76.5381 45.0439 78.2451 47.4889 78.2451 50.4739V142.117C78.2451 145.102 76.5381 147.547 74.4351 147.547H23.1751C21.0991 147.547 19.3911 145.102 19.3911 142.117V50.4739C19.3911 47.4889 21.0991 45.0439 23.1751 45.0439V45.0439Z" fill="#F3D792"/>
<path fill-rule="evenodd" clip-rule="evenodd" d="M23.3589 46.187H74.2519C76.3279 46.187 78.0099 48.6 78.0099 51.585V142.053C78.0099 145.007 76.3019 147.42 74.2519 147.42H23.3599C21.3099 147.42 19.6289 145.007 19.6289 142.053V51.585C19.6289 48.6 21.3099 46.187 23.3589 46.187V46.187Z" fill="#F3D993"/>
<path fill-rule="evenodd" clip-rule="evenodd" d="M23.5428 47.3618H74.0678C76.0908 47.3618 77.7458 49.7428 77.7458 52.6648V141.99C77.7458 144.911 76.0908 147.324 74.0678 147.324H23.5428C21.5198 147.324 19.8638 144.911 19.8638 141.99V52.6648C19.8638 49.7428 21.5188 47.3618 23.5428 47.3618Z" fill="#F3DB95"/>
<path fill-rule="evenodd" clip-rule="evenodd" d="M22.938 35.993V36.343C22.911 36.438 22.911 36.502 22.911 36.565C22.885 36.597 22.885 36.629 22.885 36.66C22.859 36.724 22.859 36.756 22.859 36.787C22.832 36.819 22.832 36.851 22.806 36.883C22.806 36.946 22.78 36.978 22.78 37.01C22.753 37.041 22.753 37.073 22.727 37.073C22.701 37.105 22.701 37.168 22.675 37.2L22.622 37.264C22.596 37.264 22.596 37.295 22.57 37.327C22.543 37.359 22.517 37.359 22.517 37.391C22.491 37.422 22.465 37.454 22.438 37.454C22.412 37.486 22.386 37.486 22.359 37.518C22.333 37.518 22.307 37.55 22.281 37.55C22.254 37.581 22.228 37.581 22.201 37.613C22.175 37.613 22.149 37.613 22.097 37.645C22.07 37.645 22.044 37.645 22.017 37.676C21.992 37.676 21.965 37.676 21.913 37.708H21.833C21.808 37.708 21.755 37.74 21.703 37.74H21.151C21.098 37.74 21.046 37.708 20.993 37.708H20.888C20.835 37.708 20.783 37.676 20.73 37.676L20.625 37.645C20.573 37.645 20.494 37.645 20.441 37.613L20.336 37.581C20.284 37.581 20.205 37.581 20.152 37.549L20.047 37.518C19.9726 37.5152 19.9003 37.4931 19.837 37.454L19.732 37.422C19.6501 37.4159 19.57 37.3945 19.496 37.359H19.416L19.154 37.264L19.101 37.232C17 36.533 14.241 35.327 11.351 34.755C10.878 34.66 10.405 34.596 9.958 34.533H9.932C9.774 34.533 9.642 34.501 9.485 34.501C9.327 34.501 9.17 34.469 9.012 34.469H8.986C5.859 34.342 2.786 35.327 0.394 38.947L0.315 39.042V39.074C0.202915 39.2388 0.0978223 39.4083 0 39.582C1.576 29.484 4.598 26.436 8.382 23.546L8.25 23.356L7.777 22.752H92.197L91.724 23.355L91.592 23.545C95.376 26.435 98.397 29.484 100 39.582C99.9022 39.4083 99.7971 39.2388 99.685 39.074L99.658 39.042L99.606 38.947H99.58C97.215 35.327 94.115 34.342 90.988 34.469H90.962C90.83 34.469 90.672 34.501 90.515 34.501C90.357 34.501 90.2 34.533 90.042 34.533C89.569 34.596 89.096 34.66 88.65 34.755H88.623C85.759 35.327 83 36.533 80.899 37.232L80.819 37.264L80.557 37.359H80.478C80.4117 37.3909 80.3409 37.4121 80.268 37.422L80.163 37.454C80.084 37.486 80.005 37.518 79.953 37.518L79.848 37.55C79.768 37.581 79.716 37.581 79.638 37.581L79.532 37.613C79.48 37.645 79.427 37.645 79.348 37.645L79.243 37.676C79.191 37.676 79.138 37.708 79.086 37.708H78.981C78.928 37.708 78.876 37.74 78.823 37.74H78.27C78.218 37.74 78.191 37.708 78.139 37.708H78.06C78.034 37.676 77.981 37.676 77.955 37.676C77.929 37.645 77.902 37.645 77.876 37.645C77.85 37.613 77.824 37.613 77.771 37.613C77.745 37.581 77.718 37.581 77.692 37.55C77.666 37.55 77.64 37.518 77.613 37.518L77.561 37.454C77.535 37.454 77.508 37.422 77.481 37.391C77.456 37.359 77.429 37.359 77.429 37.327C77.403 37.295 77.377 37.264 77.35 37.264C77.324 37.232 77.324 37.2 77.298 37.2C77.2919 37.1537 77.2736 37.1099 77.245 37.073C77.245 37.073 77.219 37.041 77.219 37.01C77.193 36.978 77.193 36.946 77.167 36.883C77.167 36.851 77.14 36.819 77.14 36.787C77.114 36.756 77.114 36.724 77.114 36.66C77.088 36.629 77.088 36.597 77.088 36.565C77.062 36.502 77.062 36.438 77.062 36.343C77.062 36.343 77.062 36.311 77.035 36.311V28.817H77.009L76.851 28.785H76.8V28.753H76.695L76.275 28.658H76.248L75.88 28.563H75.854C75.644 28.531 75.407 28.468 75.171 28.436H75.144V28.404L74.803 28.341H74.724L74.383 28.277H74.278V28.245H74.251L73.857 28.182H73.778C73.568 28.15 73.332 28.087 73.095 28.055H73.043L72.648 27.991L72.07 27.896L71.65 27.864V27.833H71.598C71.3439 27.7993 71.0895 27.7673 70.835 27.737H70.757L70.337 27.674H70.231L69.811 27.61H69.732L69.285 27.547H69.233C68.97 27.515 68.707 27.483 68.418 27.452H68.366L67.893 27.388L67.236 27.325L66.763 27.293H66.711C66.4308 27.2598 66.1505 27.2282 65.87 27.198H65.817L65.265 27.166L64.687 27.102H64.661L64.083 27.07H64.031L63.216 27.007H63.163L62.612 26.975H62.585L61.981 26.912L61.219 26.88H61.088L60.431 26.848H60.378L59.827 26.817L59.17 26.785L58.434 26.753L57.541 26.721H57.514L56.963 26.689L56.253 26.658H55.649C55.36 26.658 55.071 26.626 54.782 26.626H54.072L53.416 26.594H51.182L50.394 26.562H49.553L48.843 26.594H46.558L45.928 26.626H45.323L44.483 26.658H43.694L43.037 26.689L42.433 26.721L41.671 26.753H41.015V26.785H40.83L40.173 26.817L39.595 26.848L38.833 26.88H38.807L37.967 26.944L37.441 26.975L36.837 27.007H36.81L36.232 27.039H36.101L36.075 27.07L35.418 27.102H35.26L34.735 27.166L34.157 27.198H34.078V27.229H34.025L33.342 27.293H33.237L32.737 27.325L32.107 27.388H32.081L31.634 27.452H31.608C31.345 27.483 31.056 27.515 30.794 27.547H30.715L30.242 27.61L29.716 27.674H29.69L29.19 27.737H29.112L28.402 27.833H28.35L27.903 27.928L27.378 27.991L26.931 28.055H26.905C26.668 28.087 26.432 28.15 26.195 28.182H26.143L25.749 28.245H25.723L25.25 28.341H25.197V28.372H25.171L24.855 28.404V28.436H24.829C24.593 28.468 24.356 28.531 24.146 28.563H24.093L23.805 28.627H23.778L23.752 28.658H23.726L23.306 28.753H23.253L22.937 28.817V35.994L22.938 35.993Z" fill="black" fill-opacity="0.102"/>
<path fill-rule="evenodd" clip-rule="evenodd" d="M22.938 33.7082C22.938 40.4402 7.488 24.5312 0 37.2642C1.84 26.7852 4.309 24.6262 8.382 21.2282L2.154 13.2582C8.434 9.22518 19.601 18.8782 22.938 9.63818V33.7082Z" fill="#E54149"/>
<path fill-rule="evenodd" clip-rule="evenodd" d="M0.394 36.6302C0.263 36.8202 0.131 37.0422 0 37.2642C1.576 27.1672 4.598 24.1182 8.382 21.2282C5.912 26.0562 2.18 27.9922 0.394 36.6302ZM2.97 14.3052L2.155 13.2572C8.435 9.22421 19.602 18.8772 22.939 9.63721V11.0972C19.733 19.9572 9.355 11.4472 2.97 14.3052V14.3052Z" fill="#FF6595"/>
<path fill-rule="evenodd" clip-rule="evenodd" d="M22.938 33.708C22.938 40.44 7.488 24.531 0 37.264C5.307 20.847 22.938 38.026 22.938 31.326V33.708Z" fill="#CF1922"/>
<path fill-rule="evenodd" clip-rule="evenodd" d="M16.8682 6.7168L22.9382 7.5738V33.7078C21.5982 26.0548 16.8682 33.3268 16.8682 29.6118V6.7168Z" fill="#E54149"/>
<path fill-rule="evenodd" clip-rule="evenodd" d="M16.8682 6.7168L22.9382 7.5108V33.7078C22.0972 25.3878 17.1052 32.8508 17.2362 28.3418L16.8682 6.7168V6.7168Z" fill="#AB0009"/>
<path fill-rule="evenodd" clip-rule="evenodd" d="M77.0361 33.7082C77.0361 40.4402 92.4861 24.5312 100 37.2642C98.1601 26.7852 95.6651 24.6262 91.5921 21.2282L97.8191 13.2582C91.5391 9.22518 80.3731 18.8782 77.0361 9.63818V33.7082Z" fill="#E54149"/>
<path fill-rule="evenodd" clip-rule="evenodd" d="M99.5801 36.6302C99.7371 36.8202 99.8681 37.0422 100 37.2642C98.3971 27.1672 95.3761 24.1182 91.5921 21.2282C94.0621 26.0552 97.8191 27.9922 99.5791 36.6292L99.5801 36.6302ZM97.0051 14.3062L97.8191 13.2582C91.5391 9.22518 80.3731 18.8782 77.0361 9.63818V11.0982C80.2421 19.9582 90.6201 11.4482 97.0051 14.3062V14.3062Z" fill="#FF6595"/>
<path fill-rule="evenodd" clip-rule="evenodd" d="M77.0361 33.708C77.0361 40.44 92.4861 24.531 100 37.264C94.6661 20.847 77.0361 38.026 77.0361 31.326V33.708Z" fill="#CF1922"/>
<path fill-rule="evenodd" clip-rule="evenodd" d="M83.1321 6.7168L77.0361 7.5738V33.7078C78.3761 26.0548 83.1321 33.3268 83.1321 29.6118V6.7168Z" fill="#E54149"/>
<path fill-rule="evenodd" clip-rule="evenodd" d="M83.1321 6.7168L77.0361 7.5108V33.7078C77.9031 25.3878 82.8961 32.8508 82.7641 28.3418L83.1321 6.7168V6.7168Z" fill="#AB0009"/>
<path fill-rule="evenodd" clip-rule="evenodd" d="M16.8682 6.71576C17.8672 -2.23924 82.1342 -2.23924 83.1322 6.71576V29.4518C79.6642 22.5298 20.3362 22.5298 16.8682 29.4518V6.71576V6.71576Z" fill="#E54149"/>
<path fill-rule="evenodd" clip-rule="evenodd" d="M83.1322 15.7981V29.4521C79.6642 22.5301 20.3362 22.5301 16.8682 29.4521V15.7981C27.6672 10.1461 72.3072 10.1461 83.1322 15.7981Z" fill="#E01B25"/>
<path fill-rule="evenodd" clip-rule="evenodd" d="M16.8682 6.65184C18.1822 -2.20816 81.8182 -2.20816 83.1322 6.65184C74.9872 0.0158353 25.0132 0.0158353 16.8682 6.65184V6.65184Z" fill="#FF6595"/>
<path fill-rule="evenodd" clip-rule="evenodd" d="M83.1322 28.1189V29.4519C79.6642 22.5299 20.3362 22.5299 16.8682 29.4519V28.1199C20.3362 21.2289 79.6642 21.2289 83.1322 28.1199V28.1189Z" fill="#C20F18"/>
<path d="M27.0781 6.85742L26.8438 18.2344L29.3438 18.3125L29.5 13.7129C32.4688 12.8665 33.9531 11.6816 33.9531 10.1582C33.9531 9.78711 33.862 9.38997 33.6797 8.9668C32.9961 7.38477 31.5833 6.59375 29.4414 6.59375C28.7318 6.59375 27.944 6.68164 27.0781 6.85742ZM29.6562 11.125L29.7344 8.9375C30.8281 9.1849 31.388 9.4974 31.4141 9.875C31.4401 10.2526 30.8542 10.6693 29.6562 11.125ZM38.8652 12.3066L38.3086 9.95312L37.752 12.3555L38.8652 12.3066ZM37.332 14.1719L36.4434 18L33.9336 17.6094L37.0781 6.4375H39.5586L42.8984 17.0625L40.1445 17.7656L39.3047 14.1719H37.332ZM43.084 13L42.7422 7.45312L45.4766 7.29688L45.3496 13.625C45.9746 14.5625 46.4857 15.0312 46.8828 15.0312C47.599 15.0312 47.957 13.3776 47.957 10.0703C47.957 9.19792 47.931 8.19206 47.8789 7.05273L50.5156 7.14062C50.5807 12.1146 50.2747 15.3242 49.5977 16.7695C49.1029 17.8307 48.3411 18.3613 47.3125 18.3613C46.9414 18.3613 46.5378 18.293 46.1016 18.1562C44.2656 17.5833 43.2598 15.8646 43.084 13ZM50.5547 16.9258L51.8535 14.0156C53.4746 15.0833 54.7311 15.6172 55.623 15.6172C55.9486 15.6172 56.2546 15.5228 56.541 15.334C56.8665 15.1257 57.0293 14.8685 57.0293 14.5625C57.0293 14.1003 56.4271 13.7161 55.2227 13.4102C53.4648 12.9609 52.2799 12.0397 51.668 10.6465C51.4661 10.1908 51.3652 9.76107 51.3652 9.35742C51.3652 8.31576 51.8926 7.52799 52.9473 6.99414C53.7741 6.57747 54.7604 6.36914 55.9062 6.36914C56.9219 6.36914 58.1133 6.5026 59.4805 6.76953L58.5527 9.54297C57.5241 9.08073 56.6842 8.84961 56.0332 8.84961C55.7402 8.84961 55.4473 8.92122 55.1543 9.06445C54.8027 9.23372 54.627 9.45833 54.627 9.73828C54.627 10.0052 54.8581 10.2852 55.3203 10.5781C55.6458 10.7865 56.2643 11.0697 57.1758 11.4277C57.9635 11.7402 58.5234 12.043 58.8555 12.3359C59.3568 12.7786 59.6237 13.3711 59.6562 14.1133C59.7148 15.3438 59.1484 16.4538 57.957 17.4434C57.4492 17.8665 56.707 18.0781 55.7305 18.0781C54.4219 18.0781 52.6966 17.694 50.5547 16.9258ZM59.9297 6.33008L59.6758 18.0586L66.4141 18.1562L66.4824 15.1094H62.3711V13.5469L66.1113 13.625L66.1895 11.125H62.3711V9.48438L66.8633 9.5625L66.8535 6.41797L59.9297 6.33008ZM67 18.625L68.6895 5.57812C71.7298 6.46354 73.4453 7.55729 73.8359 8.85938C73.9727 9.3151 74.041 9.78385 74.041 10.2656C74.041 11.125 73.8164 11.9974 73.3672 12.8828C72.6641 14.263 70.5417 16.1771 67 18.625ZM70.6035 9.25L70.125 12.8438C71.3294 12.1667 71.9414 11.5156 71.9609 10.8906C71.9805 10.2656 71.528 9.71875 70.6035 9.25Z" fill="white"/>
</g>
<defs>
<clipPath id="clip0_487_107272">
<rect width="100" height="170" fill="white"/>
</clipPath>
</defs>
</svg>
