<svg width="79" height="79" viewBox="0 0 79 79" fill="none" xmlns="http://www.w3.org/2000/svg">
<path fill-rule="evenodd" clip-rule="evenodd" d="M12.9184 11.9769C29.7834 9.13204 46.4121 9.13204 62.8831 11.9769C68.1633 12.8753 71.6309 16.2442 72.5766 21.2602C75.8078 37.0568 75.8078 52.8533 72.5766 68.7247C71.6309 73.6658 68.2421 77.484 62.8831 77.9332C46.4121 79.3556 29.7834 79.3556 12.9184 77.9332C7.55937 77.484 3.77655 73.7407 3.14608 68.7247C1.33347 52.8533 0.939431 37.0568 3.14608 21.2602C3.93416 16.1694 7.63818 12.8753 12.9184 11.9769Z" fill="black" fill-opacity="0.101961"/>
<path fill-rule="evenodd" clip-rule="evenodd" d="M11.2633 8.38268C28.1284 5.5378 44.757 5.5378 61.228 8.38268C66.5082 9.28107 69.9758 12.65 71.0003 17.666C74.1527 33.4625 74.1527 49.2591 71.0003 65.1305C69.9758 70.0716 66.587 73.8898 61.228 74.339C44.757 75.7614 28.1284 75.7614 11.2633 74.339C5.90428 73.8898 2.12146 70.1465 1.56979 65.1305C-0.321616 49.2591 -0.71566 33.4625 1.56979 17.666C2.27907 12.5751 5.98309 9.28107 11.2633 8.38268Z" fill="#E6E6E6"/>
<path fill-rule="evenodd" clip-rule="evenodd" d="M11.2633 6.66149C28.1284 3.81661 44.757 3.81661 61.228 6.66149C66.5082 7.55987 69.9758 10.9288 71.0003 15.9448C74.1527 31.7413 74.1527 47.5379 71.0003 63.4093C69.9758 68.3504 66.587 72.1685 61.228 72.6177C44.757 74.0401 28.1284 74.0401 11.2633 72.6177C5.90428 72.1685 2.12146 68.4252 1.56979 63.4093C-0.321616 47.5379 -0.71566 31.7413 1.56979 15.9448C2.27907 10.8539 5.98309 7.55987 11.2633 6.66149Z" fill="white"/>
<path fill-rule="evenodd" clip-rule="evenodd" d="M14.9679 11.2284C30.0992 8.68298 45.0728 8.68298 59.8101 11.2284C64.5386 12.0519 67.6122 15.0465 68.5579 19.5384C71.395 33.7628 71.395 47.9123 68.5579 62.1367C67.6122 66.5538 64.6174 69.9976 59.8101 70.3719C45.0728 71.7194 30.0992 71.6446 14.9679 70.3719C10.2394 69.9976 6.77179 66.6286 6.29894 62.1367C4.56515 47.9123 4.24991 33.7628 6.29894 19.5384C6.92941 15.0465 10.2394 12.0519 14.9679 11.2284Z" fill="#E6E6E6"/>
<path fill-rule="evenodd" clip-rule="evenodd" d="M13.8639 10.03C28.9952 7.4846 43.9689 7.40973 58.7061 10.03C63.4346 10.8535 66.5082 13.8481 67.4539 18.34C70.291 32.4896 70.291 46.7139 67.4539 60.8635C66.5082 65.3554 63.5134 68.7243 58.7061 69.1735C43.9689 70.4462 28.9952 70.4462 13.8639 69.1735C9.13538 68.7243 5.7466 65.4302 5.19494 60.8635C3.46114 46.7139 3.14591 32.4896 5.19494 18.34C5.82541 13.7733 9.13538 10.7787 13.8639 10.03Z" fill="#CC191C"/>
<path fill-rule="evenodd" clip-rule="evenodd" d="M13.8639 7.11072C28.9952 4.56531 43.9689 4.56531 58.7061 7.11072C63.4346 7.93424 66.5082 10.9289 67.4539 15.4208C70.291 29.6452 70.291 43.7947 67.4539 58.0191C66.5082 62.4361 63.5134 65.8799 58.7061 66.2543C43.9689 67.6018 28.9952 67.527 13.8639 66.2543C9.13538 65.8799 5.7466 62.511 5.19494 58.0191C3.46114 43.7947 3.14591 29.6452 5.19494 15.4208C5.82541 10.9289 9.13538 7.93424 13.8639 7.11072Z" fill="#FF6595"/>
<path fill-rule="evenodd" clip-rule="evenodd" d="M14.1792 7.48524C29.0741 5.01469 43.8113 5.01469 58.3909 7.48524C63.0406 8.30875 66.1142 11.3034 67.0599 15.7204C69.897 29.7202 69.8182 43.72 67.0599 57.7198C66.1142 62.1368 63.1195 65.5058 58.3909 65.8801C43.8113 67.1528 29.0741 67.1528 14.1792 65.8801C9.45069 65.5058 6.14072 62.1368 5.58906 57.7198C3.93408 43.72 3.61884 29.7202 5.58906 15.7204C6.21953 11.2285 9.5295 8.30875 14.1792 7.48524Z" fill="#FD628E"/>
<path fill-rule="evenodd" clip-rule="evenodd" d="M14.4947 7.93432C29.232 5.46376 43.7328 5.3889 58.1548 7.93432C62.7257 8.68297 65.7204 11.6027 66.5873 15.9449C69.4245 29.795 69.3456 43.5702 66.5873 57.4202C65.7204 61.7624 62.8045 65.0565 58.1548 65.5057C43.7328 66.7035 29.232 66.7035 14.4947 65.5057C9.84502 65.0565 6.53505 61.8373 5.98339 57.4202C4.40722 43.5702 4.01317 29.795 5.98339 15.9449C6.61386 11.6027 9.92383 8.68297 14.4947 7.93432Z" fill="#FA5E87"/>
<path fill-rule="evenodd" clip-rule="evenodd" d="M14.8095 8.30897C29.3103 5.83842 43.6535 5.83842 57.8391 8.30897C62.3312 9.05762 65.3259 11.9774 66.1928 16.2447C68.9511 29.8701 68.9511 43.4956 66.1928 57.1211C65.3259 61.3884 62.41 64.6825 57.8391 65.0568C43.6535 66.3295 29.3103 66.3295 14.8095 65.0568C10.2386 64.6825 6.92861 61.4633 6.45576 57.1211C4.80078 43.4956 4.48554 29.8701 6.45576 16.2447C7.00742 11.9025 10.2386 9.05762 14.8095 8.30897Z" fill="#F85B80"/>
<path fill-rule="evenodd" clip-rule="evenodd" d="M15.1248 8.68237C29.3892 6.28668 43.5748 6.21182 57.5239 8.68237C62.016 9.43102 64.932 12.2759 65.7989 16.5432C68.5572 29.9441 68.4784 43.4198 65.7989 56.8207C64.932 61.088 62.0948 64.3072 57.5239 64.6816C43.5748 65.8794 29.3892 65.8794 15.1248 64.6816C10.5539 64.3072 7.32275 61.1629 6.8499 56.8207C5.27372 43.4198 4.95848 29.9441 6.8499 16.5432C7.48037 12.2759 10.6327 9.43102 15.1248 8.68237Z" fill="#F65879"/>
<path fill-rule="evenodd" clip-rule="evenodd" d="M15.4405 9.05702C29.5473 6.66133 43.4176 6.66133 57.2092 9.05702C61.6225 9.80567 64.5384 12.6505 65.4053 16.7681C68.0848 30.0193 68.0848 43.2704 65.4053 56.5216C64.5384 60.714 61.7013 63.9332 57.2092 64.3075C43.4176 65.5054 29.5473 65.5054 15.4405 64.3075C10.9484 63.9332 7.79609 60.7889 7.24443 56.5216C5.66825 43.2704 5.35302 30.0193 7.24443 16.7681C7.8749 12.5757 11.0272 9.80567 15.4405 9.05702Z" fill="#F35572"/>
<path fill-rule="evenodd" clip-rule="evenodd" d="M15.6771 9.43105C29.6262 7.11022 43.339 7.11022 56.9729 9.43105C61.3074 10.1797 64.1445 12.9497 65.0114 17.0673C67.6121 30.1687 67.6121 43.1953 65.0114 56.2218C64.1445 60.4143 61.3862 63.4837 56.9729 63.8581C43.339 65.0559 29.6262 65.0559 15.6771 63.8581C11.3426 63.4837 8.19023 60.4143 7.63857 56.2218C6.1412 43.1953 5.82597 30.1687 7.63857 17.0673C8.26904 12.9497 11.3426 10.1797 15.6771 9.43105Z" fill="#F1516C"/>
<path fill-rule="evenodd" clip-rule="evenodd" d="M15.992 9.80592C29.7047 7.55996 43.2598 7.4851 56.6573 9.80592C60.913 10.5546 63.7501 13.3246 64.617 17.3673C67.2177 30.2441 67.1389 43.1209 64.617 55.9977C63.7501 60.0405 60.9918 63.1099 56.6573 63.4843C43.2598 64.6821 29.7047 64.6821 15.992 63.4843C11.6575 63.1099 8.58398 60.1153 8.11113 55.9977C6.53495 43.1209 6.21972 30.2441 8.11113 17.3673C8.66279 13.2497 11.7363 10.5546 15.992 9.80592Z" fill="#EE4E65"/>
<path fill-rule="evenodd" clip-rule="evenodd" d="M16.3073 10.1806C29.7836 7.9346 43.1811 7.9346 56.3422 10.1806C60.5979 10.9292 63.3562 13.6244 64.1443 17.6671C66.7449 30.3193 66.7449 42.9715 64.1443 55.6986C63.3562 59.6665 60.6767 62.7359 56.3422 63.1103C43.1811 64.2333 29.7836 64.2333 16.3073 63.1103C12.0517 62.7359 8.97812 59.7413 8.50527 55.6986C7.0079 42.9715 6.69267 30.3193 8.50527 17.6671C9.05693 13.6244 12.0517 10.9292 16.3073 10.1806Z" fill="#EC4B5E"/>
<path fill-rule="evenodd" clip-rule="evenodd" d="M16.6232 10.6296C29.9419 8.38369 43.1029 8.30883 56.1064 10.6296C60.2044 11.3034 62.9628 13.9986 63.7508 17.8916C66.2727 30.3941 66.2727 42.8965 63.7508 55.399C62.9628 59.3669 60.2833 62.3615 56.1064 62.7358C43.1029 63.8588 29.9419 63.7839 16.6232 62.7358C12.3675 62.3615 9.37277 59.3669 8.89992 55.399C7.48136 42.8965 7.16612 30.3941 8.89992 17.8916C9.53039 13.9237 12.4463 11.3034 16.6232 10.6296Z" fill="#EA4857"/>
<path fill-rule="evenodd" clip-rule="evenodd" d="M16.9376 11.0043C30.0199 8.75834 42.9445 8.75834 55.7903 11.0043C59.8884 11.6781 62.5679 14.2984 63.356 18.1914C65.8778 30.4692 65.799 42.822 63.356 55.0999C62.5679 58.9929 59.9672 61.9126 55.7903 62.287C42.9445 63.4099 30.0199 63.4099 16.9376 62.287C12.7607 61.9875 9.84482 59.0677 9.37197 55.0999C7.8746 42.822 7.55937 30.4692 9.37197 18.1914C9.92363 14.2984 12.8396 11.6781 16.9376 11.0043Z" fill="#E74450"/>
<path fill-rule="evenodd" clip-rule="evenodd" d="M17.253 11.3778C30.0988 9.20674 42.8658 9.20674 55.4752 11.3778C59.4944 12.0516 62.1739 14.597 62.962 18.49C65.4051 30.5433 65.4051 42.6715 62.962 54.7997C62.1739 58.6178 59.5732 61.5375 55.4752 61.9118C42.8658 63.0348 30.0988 62.96 17.253 61.9118C13.1549 61.5375 10.239 58.6926 9.76613 54.7997C8.34757 42.6715 8.03233 30.5433 9.76613 18.49C10.3178 14.597 13.1549 12.0516 17.253 11.3778Z" fill="#E54149"/>
<path fill-rule="evenodd" clip-rule="evenodd" d="M13.8639 7.11072C28.9952 4.56531 43.9688 4.56531 58.7061 7.11072C63.4346 7.93424 66.5082 10.9288 67.4539 15.4208C68.7148 21.8592 69.4241 28.2976 69.5817 34.6611C41.5258 23.8057 22.6905 52.8534 3.77637 34.5863C3.85518 28.2227 4.24922 21.7843 5.19493 15.4208C5.8254 10.9288 9.13536 7.93424 13.8639 7.11072Z" fill="white" fill-opacity="0.290196"/>
<path fill-rule="evenodd" clip-rule="evenodd" d="M13.3902 9.05762C16.7001 9.05762 19.3008 11.603 19.3008 14.6725C19.3008 17.8169 16.7001 20.2874 13.3902 20.2874C10.159 20.2874 7.47949 17.8169 7.47949 14.6725C7.47949 11.603 10.159 9.05762 13.3902 9.05762Z" fill="white"/>
<path fill-rule="evenodd" clip-rule="evenodd" d="M22.454 6.66113C24.0302 6.66113 25.3699 7.93384 25.3699 9.506C25.3699 11.0033 24.0302 12.276 22.454 12.276C20.799 12.276 19.5381 11.0033 19.5381 9.506C19.5381 7.93384 20.799 6.66113 22.454 6.66113Z" fill="white"/>
<path fill-rule="evenodd" clip-rule="evenodd" d="M60.0452 58.2437C62.0155 58.2437 63.5916 59.741 63.5916 61.6126C63.5916 63.4093 62.0155 64.9067 60.0452 64.9067C58.1538 64.9067 56.5776 63.4093 56.5776 61.6126C56.5776 59.741 58.1538 58.2437 60.0452 58.2437Z" fill="white"/>
<path d="M19.5469 47.7969L31.0312 46.625L31.7344 54.5938L10.6406 55.7656L10.4062 47.5625C19.9375 41.1562 24.5078 36.3516 24.1172 33.1484C23.7266 29.9453 22.1445 28.1777 19.3711 27.8457C19.0391 27.8066 18.7168 27.7871 18.4043 27.7871C15.9629 27.7871 13.6582 28.9102 11.4902 31.1562L8.53125 23.0703C13.5312 21.2148 17.7109 20.2871 21.0703 20.2871C26.6953 20.2871 30.0645 22.8555 31.1777 27.9922C31.4512 29.2617 31.5879 30.5117 31.5879 31.7422C31.5879 38.2266 27.5742 43.5781 19.5469 47.7969ZM32.7891 51.1367C36.207 48.1484 39.6055 44.9746 42.9844 41.6152C39.6641 37.5723 36.168 33.4414 32.4961 29.2227L40.0547 24.3301C43.082 28.4707 45.9629 32.2598 48.6973 35.6973C51.9199 32.2402 55.123 28.6172 58.3066 24.8281L64.1074 31.6836C60.6504 35.2383 57.3203 38.7539 54.1172 42.2305C57.2422 45.8828 60.1426 48.9785 62.8184 51.5176L55.8457 58.0215C53.502 54.877 51.041 51.6738 48.4629 48.4121C45.6895 51.5176 43.0137 54.584 40.4355 57.6113L32.7891 51.1367Z" fill="white"/>
</svg>
