<svg width="79" height="79" viewBox="0 0 79 79" fill="none" xmlns="http://www.w3.org/2000/svg">
<path fill-rule="evenodd" clip-rule="evenodd" d="M12.9393 11.5018C29.7279 8.63677 46.4376 8.63677 62.9109 11.5018C68.113 12.4066 71.581 15.7994 72.6057 20.8509C75.8373 36.7594 75.7584 52.6679 72.6057 68.6518C71.581 73.6279 68.1918 77.4731 62.9109 77.9255C46.4376 79.358 29.7279 79.358 12.9393 77.9255C7.5796 77.4731 3.79627 73.7033 3.16571 68.6518C1.27404 52.6679 0.958766 36.7594 3.16571 20.8509C3.87509 15.724 7.65842 12.4066 12.9393 11.5018Z" fill="black" fill-opacity="0.101961"/>
<path fill-rule="evenodd" clip-rule="evenodd" d="M11.2846 7.88218C28.152 5.01714 44.7829 5.01714 61.2562 7.88218C66.5371 8.78693 69.9263 12.1797 70.951 17.2313C74.1826 33.1398 74.1826 49.0483 70.951 65.0322C70.0052 70.0083 66.5371 73.8535 61.2562 74.3059C44.7829 75.7384 28.152 75.7384 11.2846 74.3059C5.92492 73.8535 2.14158 70.0837 1.51103 65.0322C-0.30182 49.0483 -0.695918 33.1398 1.51103 17.2313C2.2204 12.1043 6.00374 8.78693 11.2846 7.88218Z" fill="#E6E6E6"/>
<path fill-rule="evenodd" clip-rule="evenodd" d="M11.2846 6.14878C28.152 3.28374 44.7829 3.28374 61.2562 6.14878C66.5371 7.05353 69.9263 10.4463 70.951 15.4979C74.1826 31.4064 74.1826 47.3149 70.951 63.2988C70.0052 68.2749 66.5371 72.1201 61.2562 72.5724C44.7829 74.005 28.152 74.005 11.2846 72.5724C5.92492 72.1201 2.14158 68.3503 1.51103 63.2988C-0.30182 47.3149 -0.695918 31.4064 1.51103 15.4979C2.2204 10.3709 6.00374 7.05353 11.2846 6.14878Z" fill="white"/>
<path fill-rule="evenodd" clip-rule="evenodd" d="M14.9901 10.7483C30.1234 8.18482 45.0203 8.18482 59.8383 10.7483C64.4887 11.5776 67.6415 14.5935 68.5085 19.1172C71.4248 33.4424 71.346 47.6922 68.5085 62.0174C67.6415 66.4658 64.5675 69.934 59.8383 70.3109C45.0203 71.6681 30.1234 71.5927 14.9901 70.3109C10.1821 69.934 6.79284 66.5411 6.2411 62.0174C4.58589 47.6922 4.27062 33.4424 6.2411 19.1172C6.95048 14.5935 10.2609 11.5776 14.9901 10.7483Z" fill="#E6E6E6"/>
<path fill-rule="evenodd" clip-rule="evenodd" d="M13.8856 9.5413C29.0189 6.97784 43.9158 6.90245 58.7339 9.5413C63.463 10.3707 66.537 13.3865 67.404 17.9102C70.3203 32.16 70.2415 46.4852 67.404 60.735C66.537 65.2588 63.463 68.6516 58.7339 69.104C43.9158 70.3857 29.0189 70.3857 13.8856 69.104C9.07758 68.6516 5.68835 65.3342 5.13661 60.735C3.4814 46.4852 3.16612 32.16 5.13661 17.9102C5.84599 13.3111 9.1564 10.2953 13.8856 9.5413Z" fill="#6DC300"/>
<path fill-rule="evenodd" clip-rule="evenodd" d="M13.8856 6.6013C29.0189 4.03785 43.9158 4.03785 58.7339 6.6013C63.463 7.43066 66.537 10.4465 67.404 14.9702C70.3203 29.2955 70.2415 43.5453 67.404 57.8705C66.537 62.3188 63.463 65.787 58.7339 66.164C43.9158 67.5211 29.0189 67.4457 13.8856 66.164C9.07758 65.787 5.68835 62.3942 5.13661 57.8705C3.4814 43.5453 3.16612 29.2955 5.13661 14.9702C5.84599 10.4465 9.1564 7.43066 13.8856 6.6013Z" fill="#C9FB06"/>
<path fill-rule="evenodd" clip-rule="evenodd" d="M14.2012 6.97835C29.0981 4.49029 43.8373 4.49029 58.419 6.97835C63.0693 7.8077 66.1433 10.8235 67.0103 15.2719C69.8478 29.3709 69.8478 43.4699 67.0103 57.5689C66.1433 62.0173 63.1481 65.4101 58.419 65.7871C43.8373 67.0688 29.0981 67.0688 14.2012 65.7871C9.47205 65.4101 6.08282 62.0173 5.6099 57.5689C3.95469 43.4699 3.56059 29.3709 5.6099 15.2719C6.24045 10.7481 9.55087 7.8077 14.2012 6.97835Z" fill="#C5F806"/>
<path fill-rule="evenodd" clip-rule="evenodd" d="M14.5168 7.43105C29.1772 4.94298 43.7588 4.86759 58.104 7.43105C62.7543 8.18501 65.7495 11.1254 66.6165 15.4984C69.454 29.4466 69.3752 43.3195 66.6165 57.2677C65.7495 61.6406 62.7543 64.9581 58.104 65.4104C43.7588 66.6168 29.1772 66.6168 14.5168 65.4104C9.86644 64.9581 6.55602 61.716 6.00429 57.2677C4.34908 43.3195 4.0338 29.4466 6.00429 15.4984C6.63484 11.1254 9.86644 8.18501 14.5168 7.43105Z" fill="#C0F605"/>
<path fill-rule="evenodd" clip-rule="evenodd" d="M14.8321 7.80794C29.3349 5.31988 43.68 5.31988 57.8675 7.80794C62.3602 8.5619 65.3554 11.5023 66.2224 15.7999C68.9811 29.5219 68.9811 43.244 66.2224 56.966C65.3554 61.2636 62.439 64.581 57.8675 64.958C43.68 66.2397 29.3349 66.2397 14.8321 64.958C10.1817 64.581 6.95015 61.339 6.39841 56.966C4.82202 43.244 4.50674 29.5219 6.39841 15.7999C7.02897 11.4269 10.2606 8.5619 14.8321 7.80794Z" fill="#BCF305"/>
<path fill-rule="evenodd" clip-rule="evenodd" d="M15.0682 8.18407C29.4133 5.77141 43.522 5.69601 57.5519 8.18407C62.0446 8.93803 64.9609 11.8031 65.8279 16.1006C68.5078 29.5965 68.5078 43.1677 65.8279 56.6636C64.9609 60.9612 62.0446 64.2032 57.5519 64.5802C43.522 65.7865 29.4133 65.7865 15.0682 64.5802C10.5755 64.2032 7.3439 61.0366 6.87098 56.6636C5.21578 43.1677 4.9005 29.5965 6.87098 16.1006C7.42272 11.8031 10.6543 8.93803 15.0682 8.18407Z" fill="#B7F004"/>
<path fill-rule="evenodd" clip-rule="evenodd" d="M15.384 8.56145C29.4927 6.14879 43.4437 6.14879 57.2371 8.56145C61.651 9.31541 64.5673 12.1805 65.4343 16.3272C68.1142 29.6723 68.0354 43.0173 65.4343 56.3624C64.5673 60.5846 61.7298 63.8266 57.2371 64.2036C43.4437 65.4099 29.4927 65.4099 15.384 64.2036C10.9701 63.8266 7.73851 60.66 7.2656 56.3624C5.68921 43.0173 5.37393 29.6723 7.2656 16.3272C7.89615 12.1051 10.9701 9.31541 15.384 8.56145Z" fill="#B3EE04"/>
<path fill-rule="evenodd" clip-rule="evenodd" d="M15.6993 8.93801C29.6504 6.60074 43.365 6.60074 56.9219 8.93801C61.3358 9.69197 64.1733 12.4816 64.9615 16.6284C67.6414 29.8227 67.6414 42.9415 64.9615 56.0604C64.1733 60.2826 61.3358 63.3738 56.9219 63.7508C43.365 64.9571 29.6504 64.9571 15.6993 63.7508C11.2854 63.3738 8.13265 60.2826 7.65974 56.0604C6.16217 42.9415 5.84689 29.8227 7.65974 16.6284C8.29029 12.4816 11.3643 9.69197 15.6993 8.93801Z" fill="#AEEB03"/>
<path fill-rule="evenodd" clip-rule="evenodd" d="M16.0136 9.31562C29.7282 7.05374 43.2851 6.97835 56.6844 9.31562C60.9407 10.0696 63.7782 12.8592 64.5664 16.9306C67.1674 29.8987 67.1674 42.8667 64.5664 55.8348C63.7782 59.9062 61.0195 62.9974 56.6844 63.3744C43.2851 64.5807 29.7282 64.5807 16.0136 63.3744C11.6785 62.9974 8.60454 59.9816 8.0528 55.8348C6.55523 42.8667 6.23995 29.8987 8.0528 16.9306C8.68336 12.7838 11.7573 10.0696 16.0136 9.31562Z" fill="#AAE903"/>
<path fill-rule="evenodd" clip-rule="evenodd" d="M16.3296 9.69299C29.8077 7.43111 43.207 7.43111 56.3698 9.69299C60.6261 10.4469 63.3848 13.1612 64.173 17.2326C66.774 29.9745 66.6952 42.7164 64.173 55.5337C63.3848 59.5296 60.6261 62.6209 56.3698 62.9978C43.207 64.1288 29.8077 64.1288 16.3296 62.9978C12.0733 62.6209 8.99935 59.605 8.52644 55.5337C7.02887 42.7164 6.71359 29.9745 8.52644 17.2326C9.07817 13.1612 12.0733 10.4469 16.3296 9.69299Z" fill="#A5E602"/>
<path fill-rule="evenodd" clip-rule="evenodd" d="M16.6443 10.1452C29.886 7.88333 43.0488 7.80794 56.054 10.1452C60.2315 10.8238 62.9901 13.538 63.7783 17.4586C66.3006 30.0497 66.3006 42.6408 63.7783 55.2319C62.9901 59.2279 60.3103 62.2437 56.054 62.6207C43.0488 63.7516 29.886 63.6762 16.6443 62.6207C12.388 62.2437 9.39291 59.2279 8.91999 55.2319C7.42242 42.6408 7.10714 30.0497 8.91999 17.4586C9.47173 13.4626 12.4669 10.8238 16.6443 10.1452Z" fill="#A1E302"/>
<path fill-rule="evenodd" clip-rule="evenodd" d="M16.8803 10.5221C30.0432 8.26022 42.9696 8.26022 55.8171 10.5221C59.9158 11.2007 62.5956 13.8395 63.3838 17.7601C65.8272 30.125 65.8272 42.5653 63.3838 54.9302C62.5956 58.8508 59.9158 61.7912 55.8171 62.1682C42.9696 63.2992 30.0432 63.2992 16.8803 62.1682C12.7817 61.8666 9.78657 58.9262 9.31365 54.9302C7.8949 42.5653 7.57962 30.125 9.31365 17.7601C9.86539 13.8395 12.7817 11.2007 16.8803 10.5221Z" fill="#9CE101"/>
<path fill-rule="evenodd" clip-rule="evenodd" d="M17.1957 10.8991C30.1221 8.71266 42.8909 8.71266 55.502 10.8991C59.5218 11.5777 62.2017 14.1412 62.9899 18.0617C65.4333 30.2005 65.3544 42.4146 62.9899 54.6287C62.2017 58.4739 59.6006 61.4143 55.502 61.7913C42.8909 62.9222 30.1221 62.8469 17.1957 61.7913C13.0971 61.4143 10.1808 58.5493 9.78671 54.6287C8.28914 42.4146 8.05268 30.2005 9.78671 18.0617C10.3384 14.1412 13.1759 11.5777 17.1957 10.8991Z" fill="#98DE01"/>
<path fill-rule="evenodd" clip-rule="evenodd" d="M13.8853 6.6013C29.0186 4.03785 43.9155 4.03785 58.7336 6.6013C63.4627 7.43066 66.5367 10.4465 67.4037 14.9702C68.7436 21.4543 69.453 27.9383 69.5318 34.347C41.5509 23.4146 22.6342 52.6682 3.79639 34.2716C3.79639 27.8629 4.2693 21.3789 5.13632 14.9702C5.84569 10.4465 9.15611 7.43066 13.8853 6.6013Z" fill="white" fill-opacity="0.290196"/>
<path fill-rule="evenodd" clip-rule="evenodd" d="M13.4129 8.56201C16.6445 8.56201 19.3244 11.1255 19.3244 14.2167C19.3244 17.3833 16.6445 19.8714 13.4129 19.8714C10.1813 19.8714 7.50146 17.3833 7.50146 14.2167C7.50146 11.1255 10.1813 8.56201 13.4129 8.56201Z" fill="white"/>
<path fill-rule="evenodd" clip-rule="evenodd" d="M22.4771 6.14844C24.0535 6.14844 25.3934 7.43016 25.3934 9.01347C25.3934 10.5214 24.0535 11.8031 22.4771 11.8031C20.8219 11.8031 19.4819 10.5214 19.4819 9.01347C19.4819 7.43016 20.8219 6.14844 22.4771 6.14844Z" fill="white"/>
<path fill-rule="evenodd" clip-rule="evenodd" d="M60.0737 58.0967C62.0442 58.0967 63.6206 59.6046 63.6206 61.4895C63.6206 63.299 62.0442 64.8069 60.0737 64.8069C58.1032 64.8069 56.5269 63.299 56.5269 61.4895C56.5269 59.6046 58.1032 58.0967 60.0737 58.0967Z" fill="white"/>
<path d="M18.5469 47.7969L30.0312 46.625L30.7344 54.5938L9.64062 55.7656L9.40625 47.5625C18.9375 41.1562 23.5078 36.3516 23.1172 33.1484C22.7266 29.9453 21.1445 28.1777 18.3711 27.8457C18.0391 27.8066 17.7168 27.7871 17.4043 27.7871C14.9629 27.7871 12.6582 28.9102 10.4902 31.1562L7.53125 23.0703C12.5312 21.2148 16.7109 20.2871 20.0703 20.2871C25.6953 20.2871 29.0645 22.8555 30.1777 27.9922C30.4512 29.2617 30.5879 30.5117 30.5879 31.7422C30.5879 38.2266 26.5742 43.5781 18.5469 47.7969ZM31.7891 51.1367C35.207 48.1484 38.6055 44.9746 41.9844 41.6152C38.6641 37.5723 35.168 33.4414 31.4961 29.2227L39.0547 24.3301C42.082 28.4707 44.9629 32.2598 47.6973 35.6973C50.9199 32.2402 54.123 28.6172 57.3066 24.8281L63.1074 31.6836C59.6504 35.2383 56.3203 38.7539 53.1172 42.2305C56.2422 45.8828 59.1426 48.9785 61.8184 51.5176L54.8457 58.0215C52.502 54.877 50.041 51.6738 47.4629 48.4121C44.6895 51.5176 42.0137 54.584 39.4355 57.6113L31.7891 51.1367Z" fill="white"/>
</svg>
