<svg width="83" height="39" viewBox="0 0 83 39" fill="none" xmlns="http://www.w3.org/2000/svg">
<path fill-rule="evenodd" clip-rule="evenodd" d="M3.2108 36.9298L3.1378 35.9446H79.1751L79.1387 36.9663L82.094 37.1123L81.9846 38.1341H1.75135V35.9446H3.1378L2.95537 32.7698L3.17428 28.9016L3.904 25.2889L5.07159 21.9681L6.60399 18.8663L8.53778 16.0565L10.7999 13.4655L13.3539 11.1665L16.1634 9.12298L19.2282 7.33488L22.512 5.80222L25.9417 4.56149L29.5174 3.57621L33.2025 2.80988L36.9606 2.37198L40.7551 2.15303L44.5497 2.22601L48.3078 2.59093L52.0294 3.21129L55.605 4.12359L59.0712 5.29133L62.3915 6.71452L65.4928 8.42964L68.3752 10.4367L70.9657 12.7357L73.3009 15.2901L75.2711 18.173L76.913 21.3113L78.1535 24.778L78.9562 28.5367L79.3211 32.5873L79.1751 35.9446H80.5981L82.094 37.1123L82.24 32.5508L81.8751 28.2813L81.0359 24.3036L79.7224 20.6544L77.9711 17.2607L75.8184 14.1954L73.3373 11.422L70.4914 8.94052L67.3901 6.7875L64.0333 4.92641L60.4577 3.35726L56.6996 2.08004L52.8321 1.13125L48.8186 0.437902L44.7686 0.0729828L40.6822 0L36.6322 0.218954L32.5822 0.69335L28.6417 1.49617L24.7742 2.55444L21.0525 3.94113L17.5499 5.58327L14.2296 7.51734L11.1648 9.70686L8.42831 12.1883L5.98375 14.9617L3.904 17.9905L2.26212 21.3113L1.02163 24.8875L0.255379 28.7192L-6.3865e-06 32.8063L0.291901 37.1488L1.75135 38.1341V35.9446L3.2108 36.9298ZM0.291901 37.1488L1.75135 38.1341H0.401333L0.291901 37.1488Z" fill="#FC007E"/>
<path d="M1.75146 37.0393H80.5982C85.2685 -12.2248 -4.12283 -9.56086 1.75146 37.0393Z" fill="#FF83C1"/>
<path d="M73.9212 13.9764C67.9739 21.0923 50.9714 28.0988 30.9404 31.0181C19.7027 32.6968 9.41351 32.7697 1.49599 31.602C1.42302 33.3293 1.50818 35.1417 1.75142 37.0393H80.5982C81.5103 27.369 78.8103 19.7056 73.9212 13.9764Z" fill="#FF5BAD"/>
<path d="M23.0228 9.15947C23.0228 12.1883 29.5903 14.2318 37.6538 13.6845C45.7537 13.1736 52.3213 10.3272 52.3213 7.29838C52.3213 4.26955 45.7537 2.26249 37.6538 2.77338C29.5903 3.28427 23.0228 6.16713 23.0228 9.15947Z" fill="#FF99CC"/>
<path d="M9.04879 19.8151C10.5082 20.9829 14.0474 20.0341 16.9663 17.6986C19.8487 15.3266 21.0163 12.4803 19.5568 11.3125C18.0974 10.1448 14.5582 11.0936 11.6758 13.429C8.75688 15.801 7.58933 18.6474 9.04879 19.8151Z" fill="#FF99CC"/>
<path d="M31.7431 27.3689C31.962 29.9964 34.2971 31.9669 36.9241 31.748C39.5511 31.529 41.5214 29.1935 41.3025 26.5661C41.0836 23.9022 38.7485 21.9681 36.1214 22.1871C33.4944 22.406 31.5242 24.7415 31.7431 27.3689Z" stroke="#FC007E" stroke-width="4"/>
<path d="M31.7431 27.3689C31.962 29.9964 34.2971 31.9669 36.9241 31.748C39.5511 31.529 41.5214 29.1935 41.3025 26.5661C41.0836 23.9022 38.7485 21.9681 36.1214 22.1871C33.4944 22.406 31.5242 24.7415 31.7431 27.3689Z" fill="#333333"/>
<path d="M34.1513 27.15C34.2607 28.4637 35.3918 29.449 36.7418 29.3395C38.0553 29.23 39.0039 28.0623 38.8945 26.7486C38.785 25.4349 37.654 24.4496 36.304 24.5591C34.9905 24.6685 34.0053 25.8363 34.1513 27.15V27.15Z" fill="black"/>
<path d="M32.4 25.6538C32.5094 26.8216 33.531 27.6974 34.6986 27.5879C35.8661 27.5149 36.7418 26.4567 36.6688 25.2889C36.5594 24.1212 35.5378 23.2454 34.3337 23.3549C33.1661 23.4643 32.2905 24.4861 32.4 25.6538Z" fill="white"/>
<path d="M37.3984 29.1571C37.4349 29.595 37.7998 29.9234 38.2377 29.8869C38.6755 29.8504 39.0039 29.449 38.9674 29.0111C38.931 28.5732 38.5661 28.2448 38.1282 28.2812C37.6903 28.3177 37.362 28.7191 37.3984 29.1571Z" fill="white"/>
<path d="M4.41503 27.3689C4.63395 29.9964 6.93261 31.9669 9.59611 31.748C12.2231 31.529 14.1569 29.1935 13.9379 26.5661C13.719 23.9022 11.4204 21.9681 8.75691 22.1871C6.12989 22.406 4.15963 24.7415 4.41503 27.3689Z" stroke="#FC007E" stroke-width="4"/>
<path d="M4.41503 27.3689C4.63395 29.9964 6.93261 31.9669 9.59611 31.748C12.2231 31.529 14.1569 29.1935 13.9379 26.5661C13.719 23.9022 11.4204 21.9681 8.75691 22.1871C6.12989 22.406 4.15963 24.7415 4.41503 27.3689Z" fill="#333333"/>
<path d="M6.78653 27.15C6.89599 28.4637 8.06352 29.449 9.37701 29.3395C10.6905 29.23 11.6756 28.0623 11.5662 26.7486C11.4567 25.4349 10.2892 24.4496 8.97567 24.5591C7.66219 24.6685 6.67707 25.8363 6.78653 27.15V27.15Z" fill="black"/>
<path d="M5.07183 25.6538C5.1448 26.8216 6.20288 27.6974 7.37044 27.5879C8.538 27.5149 9.41369 26.4567 9.30423 25.2889C9.19477 24.1212 8.17314 23.2454 7.00558 23.3549C5.83802 23.4643 4.96237 24.4861 5.07183 25.6538Z" fill="white"/>
<path d="M10.034 29.1571C10.0705 29.595 10.4718 29.9234 10.9096 29.8869C11.3474 29.8504 11.6758 29.449 11.6393 29.0111C11.6028 28.5732 11.2015 28.2448 10.7637 28.2812C10.3259 28.3177 9.99749 28.7191 10.034 29.1571Z" fill="white"/>
<path d="M42.1418 33.3171C40.5364 33.3171 39.2229 33.755 39.2229 34.2294C39.2229 34.7403 40.5364 35.1417 42.1418 35.1417C43.7837 35.1417 45.0972 34.7403 45.0972 34.2294C45.0972 33.755 43.7837 33.3171 42.1418 33.3171Z" fill="#FF99CC"/>
<path d="M5.25412 33.3171C3.64874 33.3171 2.33525 33.755 2.33525 34.2294C2.33525 34.7403 3.64874 35.1417 5.25412 35.1417C6.89599 35.1417 8.20947 34.7403 8.20947 34.2294C8.20947 33.755 6.89599 33.3171 5.25412 33.3171Z" fill="#FF99CC"/>
</svg>
