<svg width="86" height="35" viewBox="0 0 86 35" fill="none" xmlns="http://www.w3.org/2000/svg">
<path fill-rule="evenodd" clip-rule="evenodd" d="M4.07332 33.0252L4.00036 32.1494H82.3049L82.2684 33.0617L85.2604 33.2077L85.1875 34.0835H2.54082V32.1494H4.00036L3.78144 29.3395L4.03684 25.8728L4.76661 22.625L5.97076 19.6327L7.53974 16.8958L9.54661 14.3778L11.8454 12.0788L14.4726 9.9988L17.3917 8.1742L20.5662 6.56855L23.9231 5.21835L27.4625 4.0871L31.1479 3.21129L34.9427 2.55444L38.8105 2.11653L42.7147 1.93407L46.6191 2.00706L50.5233 2.33549L54.3181 2.88287L58.04 3.68569L61.5794 4.74395L65.0093 6.02117L68.1838 7.55384L71.1394 9.34194L73.8395 11.3855L76.2113 13.6845L78.2911 16.2389L79.9696 19.0853L81.2467 22.1506L82.0859 25.5079L82.4143 29.1571L82.3049 32.1494H83.7644L85.2604 33.2077L85.4429 29.1206L85.078 25.2889L84.2023 21.7492L82.8522 18.4649L81.0642 15.4726L78.8384 12.6992L76.2478 10.2177L73.3652 8.02823L70.1542 6.09416L66.6878 4.41553L63.0024 2.99234L59.1346 1.86109L55.1573 1.02178L51.0342 0.401414L46.8745 0.0729883L42.6418 0L38.4456 0.18246L34.3224 0.656856L30.2357 1.35021L26.2584 2.29899L22.4271 3.53972L18.8147 4.9994L15.3848 6.71452L12.2468 8.68508L9.40069 10.9111L6.91945 13.3925L4.76661 16.0929L3.05167 19.0488L1.81105 22.2601L1.00832 25.6903L0.75287 29.3395L1.0448 33.2077L2.54082 34.0835V32.1494L4.07332 33.0252ZM1.08128 33.2077L2.5773 34.0835H1.19076L1.08128 33.2077Z" fill="#FC007E"/>
<path d="M2.54076 33.1347H83.7645C88.5445 -10.9111 -3.47987 -8.5391 2.54076 33.1347Z" fill="#FF83C1"/>
<path d="M76.8678 12.5168C70.7377 18.8663 53.2597 25.143 32.6436 27.7704C21.0402 29.2301 10.4585 29.3395 2.28502 28.2813C2.21204 29.8139 2.29716 31.4317 2.54042 33.1347H83.7642C84.7129 24.4861 81.9033 17.6256 76.8678 12.5168V12.5168Z" fill="#FF5BAD"/>
<path d="M24.4341 8.2107C24.4341 10.9111 31.221 12.7357 39.5404 12.2613C47.8963 11.7869 54.6467 9.23247 54.6467 6.53207C54.6467 3.83167 47.8963 2.00707 39.5404 2.48146C31.221 2.95586 24.4341 5.51029 24.4341 8.2107Z" fill="#FF99CC"/>
<path d="M10.094 17.7351C11.59 18.7934 15.2389 17.9176 18.1944 15.8375C21.1865 13.721 22.3906 11.1666 20.8946 10.1083C19.3985 9.08651 15.7497 9.92582 12.7577 12.0424C9.76562 14.1224 8.59798 16.6768 10.094 17.7351V17.7351Z" fill="#FF99CC"/>
<path d="M32.5345 23.4643C32.7534 26.0917 35.0887 28.0623 37.7159 27.8434C40.343 27.6244 42.3134 25.2889 42.0945 22.6615C41.8755 19.9976 39.5402 18.0635 36.9131 18.2825C34.2859 18.5014 32.3155 20.8369 32.5345 23.4643Z" stroke="#FC007E" stroke-width="4"/>
<path d="M32.5345 23.4643C32.7534 26.0917 35.0887 28.0623 37.7159 27.8434C40.343 27.6244 42.3134 25.2889 42.0945 22.6615C41.8755 19.9976 39.5402 18.0635 36.9131 18.2825C34.2859 18.5014 32.3155 20.8369 32.5345 23.4643Z" fill="#333333"/>
<path d="M34.9426 23.2454C35.0521 24.5591 36.1832 25.5444 37.5333 25.4349C38.8469 25.3254 39.832 24.1577 39.6861 22.8439C39.5766 21.5302 38.4455 20.545 37.0954 20.6544C35.7818 20.7639 34.7967 21.9316 34.9426 23.2454V23.2454Z" fill="black"/>
<path d="M33.1912 21.7492C33.3006 22.917 34.3224 23.7928 35.49 23.6833C36.6576 23.6103 37.5333 22.552 37.4604 21.3843C37.3509 20.2166 36.3292 19.3407 35.1251 19.4502C33.9575 19.5597 33.0817 20.5815 33.1912 21.7492Z" fill="white"/>
<path d="M38.1901 25.2524C38.2266 25.6903 38.628 26.0188 39.0659 25.9823C39.4673 25.9458 39.7957 25.5444 39.7592 25.1065C39.7227 24.6685 39.3578 24.3401 38.9199 24.3766C38.482 24.4131 38.1536 24.8145 38.1901 25.2524V25.2524Z" fill="white"/>
<path d="M5.2043 23.4643C5.42323 26.0917 7.72197 28.0623 10.3856 27.8434C13.0128 27.6244 14.9467 25.2889 14.7277 22.6615C14.5088 19.9976 12.21 18.0635 9.54637 18.2825C6.91921 18.5014 4.98537 20.8369 5.2043 23.4643Z" stroke="#FC007E" stroke-width="4"/>
<path d="M5.2043 23.4643C5.42323 26.0917 7.72197 28.0623 10.3856 27.8434C13.0128 27.6244 14.9467 25.2889 14.7277 22.6615C14.5088 19.9976 12.21 18.0635 9.54637 18.2825C6.91921 18.5014 4.98537 20.8369 5.2043 23.4643Z" fill="#333333"/>
<path d="M7.57616 23.2454C7.68563 24.5591 8.85326 25.5444 10.1669 25.4349C11.4805 25.3254 12.4657 24.1577 12.3562 22.8439C12.2467 21.5302 11.0791 20.545 9.76549 20.6544C8.45189 20.7639 7.46669 21.9316 7.57616 23.2454V23.2454Z" fill="black"/>
<path d="M5.86116 21.7492C5.93414 22.917 6.99232 23.7928 8.15994 23.6833C9.32756 23.6103 10.2032 22.552 10.0938 21.3843C9.98432 20.2166 8.96268 19.3407 7.79505 19.4502C6.62743 19.5597 5.7517 20.5815 5.86116 21.7492Z" fill="white"/>
<path d="M10.8602 25.2524C10.8967 25.6903 11.2615 26.0188 11.6994 25.9823C12.1372 25.9458 12.4656 25.5444 12.4291 25.1065C12.3926 24.6685 11.9913 24.3401 11.5534 24.3766C11.1156 24.4131 10.8237 24.8145 10.8602 25.2524V25.2524Z" fill="white"/>
<path d="M42.9335 29.4125C41.328 29.4125 40.0144 29.8504 40.0144 30.3248C40.0144 30.8357 41.328 31.2371 42.9335 31.2371C44.5755 31.2371 45.8892 30.8357 45.8892 30.3248C45.8892 29.8504 44.5755 29.4125 42.9335 29.4125Z" fill="#FF99CC"/>
<path d="M6.08023 29.4125C4.43828 29.4125 3.12472 29.8504 3.12472 30.3248C3.12472 30.8357 4.43828 31.2371 6.08023 31.2371C7.6857 31.2371 8.99927 30.8357 8.99927 30.3248C8.99927 29.8504 7.6857 29.4125 6.08023 29.4125Z" fill="#FF99CC"/>
</svg>
