<svg width="83" height="39" viewBox="0 0 83 39" fill="none" xmlns="http://www.w3.org/2000/svg">
<path fill-rule="evenodd" clip-rule="evenodd" d="M3.21079 36.9298L3.13784 35.9446H79.1751L79.1387 36.9663L82.0576 37.1123L81.9481 38.1341H1.75135V35.9446H3.13784L2.91889 32.7698L3.17436 28.9016L3.90409 25.2889L5.03511 21.9681L6.60403 18.8663L8.5013 16.0565L10.7634 13.4655L13.3175 11.1665L16.1634 9.12298L19.2283 7.33488L22.4755 5.80222L25.9417 4.56149L29.5174 3.57621L33.2025 2.80988L36.9606 2.37198L40.7551 2.15303L44.5497 2.22601L48.3078 2.59093L51.9929 3.21129L55.605 4.12359L59.0712 5.29133L62.355 6.71452L65.4563 8.42964L68.3387 10.4367L70.9657 12.7357L73.2643 15.2901L75.2711 18.173L76.913 21.3113L78.1535 24.778L78.9562 28.5367L79.2846 32.5873L79.1751 35.9446H80.5981L82.0576 37.1123L82.24 32.5508L81.8751 28.2813L80.9994 24.3036L79.686 20.6544L77.9711 17.2607L75.8184 14.1954L73.3009 11.422L70.4914 8.94052L67.3536 6.7875L63.9969 4.92641L60.4212 3.35726L56.6996 2.08004L52.7956 1.13125L48.8186 0.437902L44.7686 0.0729828L40.6822 0L36.5957 0.218954L32.5822 0.69335L28.6052 1.49617L24.7377 2.55444L21.0526 3.94113L17.5134 5.58327L14.1932 7.51734L11.1648 9.70686L8.39182 12.1883L5.94726 14.9617L3.90409 17.9905L2.22568 21.3113L0.985189 24.8875L0.255464 28.7192L-1.06207e-05 32.8063L0.255464 37.1488L1.75135 38.1341V35.9446L3.21079 36.9298ZM0.255464 37.1488L1.71491 38.1341H0.401373L0.255464 37.1488Z" fill="#FC007E"/>
<path d="M1.75125 37.0393H80.5979C85.2317 -12.2248 -4.12303 -9.56086 1.75125 37.0393Z" fill="#FF83C1"/>
<path d="M73.921 13.9764C67.9737 21.0923 50.9712 28.0988 30.9403 31.0181C19.7026 32.6968 9.37699 32.7697 1.49599 31.602C1.42301 33.3293 1.50813 35.1417 1.75137 37.0393H80.5979C81.5101 27.369 78.8101 19.7056 73.921 13.9764V13.9764Z" fill="#FF5BAD"/>
<path d="M22.9867 9.15947C22.9867 12.1883 29.5542 14.2318 37.6541 13.6845C45.754 13.1736 52.3215 10.3272 52.3215 7.29838C52.3215 4.26955 45.754 2.26249 37.6541 2.77338C29.5542 3.28427 22.9867 6.16713 22.9867 9.15947Z" fill="#FF99CC"/>
<path d="M9.04875 19.8151C10.5082 20.9829 14.0474 20.0341 16.9298 17.6986C19.8487 15.3266 21.0162 12.4803 19.5567 11.3125C18.0973 10.1448 14.5582 11.0936 11.6393 13.429C8.7569 15.801 7.58931 18.6474 9.04875 19.8151Z" fill="#FF99CC"/>
<path d="M31.7428 27.3689C31.9617 29.9964 34.2603 31.9669 36.8873 31.748C39.5508 31.529 41.4845 29.1935 41.2656 26.5661C41.0467 23.9022 38.7481 21.9681 36.0846 22.1871C33.4576 22.406 31.4874 24.7415 31.7428 27.3689V27.3689Z" stroke="#FC007E" stroke-width="4"/>
<path d="M31.7428 27.3689C31.9617 29.9964 34.2603 31.9669 36.8873 31.748C39.5508 31.529 41.4845 29.1935 41.2656 26.5661C41.0467 23.9022 38.7481 21.9681 36.0846 22.1871C33.4576 22.406 31.4874 24.7415 31.7428 27.3689V27.3689Z" fill="#333333"/>
<path d="M34.1142 27.15C34.2237 28.4637 35.3912 29.449 36.7047 29.3395C38.0181 29.23 39.0032 28.0623 38.8938 26.7486C38.7843 25.4349 37.6168 24.4496 36.3033 24.5591C34.9899 24.6685 34.0047 25.8363 34.1142 27.15V27.15Z" fill="black"/>
<path d="M32.3994 25.6538C32.4724 26.8216 33.5305 27.6974 34.6981 27.5879C35.8656 27.5149 36.7413 26.4567 36.6319 25.2889C36.5224 24.1212 35.5008 23.2454 34.3332 23.3549C33.1656 23.4643 32.29 24.4861 32.3994 25.6538Z" fill="white"/>
<path d="M37.3618 29.1571C37.3983 29.595 37.7996 29.9234 38.2375 29.8869C38.6753 29.8504 39.0037 29.449 38.9672 29.0111C38.9307 28.5732 38.5294 28.2448 38.0915 28.2812C37.6537 28.3177 37.3253 28.7191 37.3618 29.1571Z" fill="white"/>
<path d="M4.37861 27.3689C4.59752 29.9964 6.93269 31.9669 9.55967 31.748C12.1867 31.529 14.1569 29.1935 13.938 26.5661C13.7191 23.9022 11.3839 21.9681 8.75691 22.1871C6.12993 22.406 4.15969 24.7415 4.37861 27.3689Z" stroke="#FC007E" stroke-width="4"/>
<path d="M4.37861 27.3689C4.59752 29.9964 6.93269 31.9669 9.55967 31.748C12.1867 31.529 14.1569 29.1935 13.938 26.5661C13.7191 23.9022 11.3839 21.9681 8.75691 22.1871C6.12993 22.406 4.15969 24.7415 4.37861 27.3689Z" fill="#333333"/>
<path d="M6.75019 27.15C6.89613 28.4637 8.02726 29.449 9.34078 29.3395C10.6908 29.23 11.6394 28.0623 11.53 26.7486C11.4205 25.4349 10.2894 24.4496 8.93939 24.5591C7.62587 24.6685 6.64073 25.8363 6.75019 27.15V27.15Z" fill="black"/>
<path d="M5.03534 25.6538C5.14479 26.8216 6.1664 27.6974 7.33393 27.5879C8.50146 27.5149 9.37707 26.4567 9.3041 25.2889C9.19465 24.1212 8.17309 23.2454 6.96908 23.3549C5.80155 23.4643 4.92588 24.4861 5.03534 25.6538Z" fill="white"/>
<path d="M10.034 29.1571C10.0705 29.595 10.4354 29.9234 10.8732 29.8869C11.311 29.8504 11.6394 29.449 11.6029 29.0111C11.5665 28.5732 11.2016 28.2448 10.7637 28.2812C10.3259 28.3177 9.99749 28.7191 10.034 29.1571Z" fill="white"/>
<path d="M42.1416 33.3171C40.4997 33.3171 39.1862 33.755 39.1862 34.2294C39.1862 34.7403 40.4997 35.1417 42.1416 35.1417C43.747 35.1417 45.0605 34.7403 45.0605 34.2294C45.0605 33.755 43.747 33.3171 42.1416 33.3171Z" fill="#FF99CC"/>
<path d="M5.25393 33.3171C3.64852 33.3171 2.33501 33.755 2.33501 34.2294C2.33501 34.7403 3.64852 35.1417 5.25393 35.1417C6.85934 35.1417 8.17285 34.7403 8.17285 34.2294C8.17285 33.755 6.85934 33.3171 5.25393 33.3171Z" fill="#FF99CC"/>
</svg>
