<svg width="119" height="16" viewBox="0 0 119 16" fill="none" xmlns="http://www.w3.org/2000/svg">
<path fill-rule="evenodd" clip-rule="evenodd" d="M2.07053 15.0012L2.03404 14.8917H117.519L117.482 15.0012H118.577L118.54 15.1106H1.5232V14.8917H2.03404L1.66917 13.3955L2.03404 11.9358L3.09219 10.5491L4.84363 9.27193L7.21535 8.0677L10.1344 6.97295L13.5643 5.98766L17.432 5.11186L21.7376 4.30903L26.4081 3.61569L31.3704 3.03182L36.6247 2.55743L42.0614 2.15602L47.6441 1.86408L53.3727 1.71812L59.1378 1.64513H64.9029L70.5951 1.7911L76.2507 2.04654L81.7239 2.37497L86.9782 2.81288L92.0136 3.39674L96.757 4.0536L101.136 4.81993L105.113 5.69573L108.616 6.681L111.644 7.81225L114.125 9.01649L116.023 10.3302L117.227 11.7899L117.738 13.3225L117.519 14.8917H118.03L118.577 15.0012L118.832 13.3225L118.321 11.7534L117.081 10.2937L115.183 8.9435L112.666 7.70278L109.564 6.60803L105.988 5.58625L101.902 4.67395L97.4503 3.90763L92.6339 3.21428L87.4891 2.63042L82.1253 2.19251L76.5426 1.82759L70.814 1.57214L64.9759 1.46267L59.1013 1.42618L53.2268 1.49917L47.4252 1.68163L41.733 1.97356L36.1869 2.33847L30.8596 2.84936L25.7878 3.46972L21.0078 4.16307L16.6293 4.96589L12.6521 5.87819L9.18569 6.86346L6.19367 7.99471L3.78547 9.19895L2.03404 10.5126L0.939407 11.8993L0.574524 13.3955L0.975883 15.0012L1.5232 15.1106V14.8917L2.07053 15.0012ZM0.975883 15.0012L1.5232 15.1106H1.01238L0.975883 15.0012Z" fill="#FC007E"/>
<path d="M1.52309 15.0012H118.029C124.926 -3.46374 -7.12457 -2.47846 1.52309 15.0012Z" fill="#FF83C1"/>
<path d="M108.178 6.35257C99.3841 9.01648 74.2804 11.6439 44.6521 12.7387C28.05 13.359 12.8345 13.3955 1.12189 12.9576C1.04891 13.6145 1.18269 14.2957 1.52325 15.0012H118.03C119.38 11.3885 115.402 8.5056 108.178 6.35257Z" fill="#FF5BAD"/>
<path d="M32.9029 4.56445C32.9029 5.69571 42.6087 6.46205 54.5768 6.2431C66.5449 6.06064 76.2507 4.96587 76.2507 3.83461C76.2507 2.70335 66.5449 1.97351 54.5768 2.15597C42.6087 2.33843 32.9029 3.4332 32.9029 4.56445Z" fill="#FF99CC"/>
<path d="M12.3238 8.54211C14.4766 8.98001 19.6944 8.6151 23.9635 7.73929C28.2691 6.86349 29.984 5.80522 27.8312 5.36732C25.6784 4.92942 20.4606 5.25784 16.1551 6.17013C11.886 7.04594 10.171 8.1042 12.3238 8.54211Z" fill="#FF99CC"/>
<path d="M65.7787 11.3155C64.1368 11.3155 62.8232 11.7169 62.8232 12.1913C62.8232 12.7022 64.1368 13.1036 65.7787 13.1036C67.3842 13.1036 68.6978 12.7022 68.6978 12.1913C68.6978 11.7169 67.3842 11.3155 65.7787 11.3155Z" fill="#FF99CC"/>
<path d="M13.6737 11.3155C12.0317 11.3155 10.7546 11.7169 10.7546 12.1913C10.7546 12.7022 12.0317 13.1036 13.6737 13.1036C15.2792 13.1036 16.5928 12.7022 16.5928 12.1913C16.5928 11.7169 15.2792 11.3155 13.6737 11.3155Z" fill="#FF99CC"/>
<path d="M64.3921 6.6445L62.5677 5.33078L64.3921 4.05356C65.1584 3.54268 65.3773 2.48441 64.83 1.71808C64.3192 0.951746 63.261 0.769281 62.4948 1.28017L59.6487 3.25074L56.8027 1.24368C56.0364 0.732787 54.9783 0.915249 54.4674 1.64509C53.9201 2.41142 54.1025 3.46969 54.8688 3.98058L56.6932 5.29429L54.8323 6.57151C54.0661 7.0824 53.8836 8.14066 54.3945 8.907C54.9418 9.67333 55.9999 9.85579 56.7297 9.3449L59.6122 7.37434L62.4583 9.3814C63.188 9.92878 64.2462 9.74632 64.7935 8.97998C65.3408 8.21365 65.1584 7.19188 64.3921 6.6445Z" fill="black"/>
<path d="M22.3945 6.6445L20.5336 5.33078L22.3945 4.05356C23.1607 3.54268 23.3432 2.48441 22.8323 1.71808C22.285 0.951746 21.2633 0.769281 20.4971 1.28017L17.6146 3.25074L14.805 1.24368C14.0388 0.732787 12.9806 0.915249 12.4333 1.64509C11.9225 2.41142 12.1049 3.46969 12.8347 3.98058L14.659 5.29429L12.8347 6.57151C12.0684 7.0824 11.886 8.14066 12.3968 8.907C12.9076 9.67333 13.9658 9.85579 14.732 9.3449L17.6146 7.37434L20.4241 9.3814C21.1904 9.92878 22.2485 9.74632 22.7594 8.97998C23.3067 8.21365 23.1242 7.19188 22.3945 6.6445Z" fill="black"/>
</svg>
