<svg width="78" height="47" viewBox="0 0 78 47" fill="none" xmlns="http://www.w3.org/2000/svg">
<path fill-rule="evenodd" clip-rule="evenodd" d="M3.0748 44.7802L2.99792 43.6123H74.9888L74.9503 44.8167L77.7562 44.9992L77.6409 46.24H1.6911V43.6123H2.99792L2.80574 39.7803L3.03636 35.0723L3.68978 30.6929L4.80442 26.6418L6.26499 22.8828L8.07149 19.4522L10.2239 16.3501L12.6454 13.5399L15.3359 11.0582L18.2186 8.90494L21.332 7.04366L24.599 5.51084L27.9814 4.30648L31.4791 3.43059L35.0152 2.88316L38.6282 2.62769L42.2028 2.73717L45.7773 3.13862L49.275 3.90504L52.6958 4.96341L55.9629 6.38674L59.0762 8.13853L62.0358 10.2188L64.7648 12.664L67.2247 15.4377L69.4155 18.5398L71.2989 22.0069L72.8363 25.8389L74.0279 30.0359L74.7966 34.5979L75.1041 39.5248L74.9888 43.6123H76.334L77.7562 44.9992L77.9099 39.4883L77.564 34.3059L76.7568 29.4885L75.4884 25.036L73.8357 20.9485L71.837 17.226L69.454 13.8684L66.7634 10.8392L63.8423 8.21152L60.6521 5.94879L57.2697 4.05102L53.6952 2.5182L50.0437 1.35034L46.2386 0.547435L42.4334 0.109483L38.5513 0L34.7077 0.255469L30.8641 0.839396L27.0974 1.82478L23.4844 3.10213L19.9482 4.74444L16.6043 6.7517L13.491 9.08742L10.6083 11.7881L7.95619 14.7807L5.68845 18.1383L3.72822 21.8244L2.15233 25.8389L0.960811 30.1819L0.268966 34.8169L-9.1393e-05 39.7803L0.268966 45.0356L1.6911 46.24V43.6123L3.0748 44.7802ZM0.268966 44.9992L1.65266 46.2035H0.38427L0.268966 44.9992Z" fill="#FC007E"/>
<path d="M1.69113 44.9262H76.3341C80.7542 -14.8172 -3.88211 -11.6056 1.69113 44.9262Z" fill="#FF83C1"/>
<path d="M70.0308 16.9705C64.3807 25.5835 48.3144 34.0505 29.3269 37.627C18.6801 39.6343 8.91737 39.7438 1.42232 38.3204C1.37108 40.4372 1.46075 42.6391 1.69137 44.9262H76.3343C77.2183 33.2111 74.6431 23.9047 70.0308 16.9705V16.9705Z" fill="#FF5BAD"/>
<path d="M21.7932 11.1312C21.7932 14.7808 28.0199 17.226 35.6686 16.6055C43.3559 15.9851 49.5825 12.518 49.5825 8.83196C49.5825 5.18239 43.3559 2.73718 35.6686 3.35761C28.0199 3.97804 21.7932 7.44513 21.7932 11.1312Z" fill="#FF99CC"/>
<path d="M8.60973 24.0506C9.99343 25.474 13.3374 24.3061 16.0663 21.4594C18.7953 18.6128 19.91 15.1457 18.5263 13.7224C17.1426 12.299 13.7986 13.4304 11.0696 16.3136C8.30224 19.1602 7.22603 22.6273 8.60973 24.0506Z" fill="#FF99CC"/>
<path d="M33.2855 35.2548C33.5161 37.8825 35.9761 39.8533 38.7435 39.6343C41.5109 39.4153 43.5864 37.0796 43.3558 34.4519C43.1252 31.7877 40.6653 29.8534 37.8979 30.0724C35.1305 30.2914 33.0549 32.6271 33.2855 35.2548Z" stroke="#FC007E" stroke-width="4"/>
<path d="M33.2855 35.2548C33.5161 37.8825 35.9761 39.8533 38.7435 39.6343C41.5109 39.4153 43.5864 37.0796 43.3558 34.4519C43.1252 31.7877 40.6653 29.8534 37.8979 30.0724C35.1305 30.2914 33.0549 32.6271 33.2855 35.2548Z" fill="#333333"/>
<path d="M35.8221 35.0358C35.9374 36.3496 37.1674 37.335 38.5511 37.2255C39.9347 37.116 40.9725 35.9482 40.8572 34.6343C40.7419 33.3205 39.512 32.3351 38.1283 32.4446C36.7061 32.5541 35.7068 33.7219 35.8221 35.0358V35.0358Z" fill="black"/>
<path d="M33.9773 33.5395C34.0926 34.7074 35.1688 35.5832 36.3988 35.4738C37.6672 35.4008 38.5512 34.3424 38.4744 33.1745C38.359 32.0067 37.2828 31.1308 36.0529 31.2403C34.7845 31.3498 33.9005 32.3716 33.9773 33.5395Z" fill="white"/>
<path d="M39.2432 37.0431C39.2816 37.481 39.7044 37.8095 40.1657 37.773C40.6269 37.7365 40.9344 37.3351 40.8959 36.8971C40.8575 36.4592 40.4731 36.1307 40.0119 36.1672C39.5507 36.2037 39.2048 36.6051 39.2432 37.0431Z" fill="white"/>
<path d="M4.49672 35.2548C4.72733 37.8825 7.1488 39.8533 9.95464 39.6343C12.722 39.4153 14.7976 37.0796 14.567 34.4519C14.2979 31.7877 11.8764 29.8534 9.10905 30.0724C6.30321 30.2914 4.2661 32.6271 4.49672 35.2548Z" stroke="#FC007E" stroke-width="4"/>
<path d="M4.49672 35.2548C4.72733 37.8825 7.1488 39.8533 9.95464 39.6343C12.722 39.4153 14.7976 37.0796 14.567 34.4519C14.2979 31.7877 11.8764 29.8534 9.10905 30.0724C6.30321 30.2914 4.2661 32.6271 4.49672 35.2548Z" fill="#333333"/>
<path d="M6.9952 35.0358C7.11051 36.3496 8.34045 37.335 9.72415 37.2255C11.1078 37.116 12.1456 35.9482 12.0303 34.6343C11.915 33.3205 10.6851 32.3351 9.30136 32.4446C7.91766 32.5541 6.87989 33.7219 6.9952 35.0358V35.0358Z" fill="black"/>
<path d="M5.18865 33.5395C5.30396 34.7074 6.38016 35.5832 7.61012 35.4738C8.84008 35.4008 9.76255 34.3424 9.64724 33.1745C9.57037 32.0067 8.45572 31.1308 7.22576 31.2403C5.9958 31.3498 5.07334 32.3716 5.18865 33.5395Z" fill="white"/>
<path d="M10.4544 37.0431C10.4929 37.481 10.8772 37.8095 11.3385 37.773C11.7997 37.7365 12.1456 37.3351 12.1072 36.8971C12.0688 36.4592 11.646 36.1307 11.1847 36.1672C10.7619 36.2037 10.416 36.6051 10.4544 37.0431V37.0431Z" fill="white"/>
<path d="M44.2781 41.2036C42.5485 41.2036 41.1648 41.6416 41.1648 42.116C41.1648 42.6269 42.5485 43.0284 44.2781 43.0284C45.9693 43.0284 47.353 42.6269 47.353 42.116C47.353 41.6416 45.9693 41.2036 44.2781 41.2036Z" fill="#FF99CC"/>
<path d="M5.41951 41.2036C3.68989 41.2036 2.30619 41.6416 2.30619 42.116C2.30619 42.6269 3.68989 43.0284 5.41951 43.0284C7.11069 43.0284 8.49438 42.6269 8.49438 42.116C8.49438 41.6416 7.11069 41.2036 5.41951 41.2036Z" fill="#FF99CC"/>
</svg>
