<svg width="79" height="42" viewBox="0 0 79 42" fill="none" xmlns="http://www.w3.org/2000/svg">
<path fill-rule="evenodd" clip-rule="evenodd" d="M3.06498 40.4664L2.992 39.3717H75.4944L75.4579 40.5029L78.2675 40.6488L78.1946 41.7435H1.67843V39.3717H2.992L2.80956 35.9053L3.0285 31.6725L3.72177 27.7317L4.81642 24.0463L6.31246 20.6893L8.13688 17.5877L10.2897 14.7781L12.7344 12.2603L15.4346 9.99801L18.3536 8.06409L21.4551 6.38559L24.7391 4.999L28.169 3.90433L31.6719 3.10157L35.2477 2.59073L38.8601 2.37179L42.5089 2.44477L46.0848 2.84615L49.6241 3.53944L53.0541 4.48816L56.338 5.76528L59.476 7.37079L62.468 9.26822L65.2047 11.4576L67.6859 13.9388L69.9117 16.7485L71.8091 19.8865L73.3416 23.353L74.5457 27.1114L75.312 31.2347L75.6404 35.6863L75.4944 39.3717H76.881L78.2675 40.6488L78.45 35.6498L78.0851 30.9792L77.2823 26.637L76.0417 22.6232L74.3633 18.9378L72.3199 15.5444L69.9117 12.5158L67.248 9.81556L64.256 7.44377L61.045 5.40039L57.6516 3.6854L54.0757 2.29881L50.3539 1.24063L46.5591 0.510845L42.6913 0.109468L38.8236 0L34.9193 0.218937L31.088 0.766273L27.2933 1.64201L23.6079 2.80966L20.0686 4.30571L16.7116 6.09368L13.5736 8.21004L10.6546 10.6548L8.02739 13.355L5.69215 16.3836L3.72177 19.7406L2.15277 23.353L0.985142 27.2573L0.255374 31.4536L-4.88162e-05 35.9417L0.255374 40.6853L1.67843 41.7435V39.3717L3.06498 40.4664ZM0.364835 41.78L0.255374 40.6853L1.64193 41.78H0.364835Z" fill="#FC007E"/>
<path d="M1.67838 40.5759H76.881C81.3326 -13.3915 -3.90434 -10.4724 1.67838 40.5759Z" fill="#FF83C1"/>
<path d="M70.4955 15.3254C64.8398 23.0976 48.639 30.7603 29.519 34.0078C18.7915 35.7958 8.97609 35.9052 1.42299 34.6281C1.37434 36.5255 1.45948 38.5081 1.67841 40.5758H76.881C77.7567 29.994 75.166 21.6015 70.4955 15.3254V15.3254Z" fill="#FF5BAD"/>
<path d="M21.9294 10.0345C21.9294 13.355 28.2054 15.5808 35.941 14.997C43.64 14.4497 49.916 11.3116 49.916 7.99109C49.916 4.67058 43.64 2.48124 35.941 3.02857C28.2054 3.6124 21.9294 6.75046 21.9294 10.0345Z" fill="#FF99CC"/>
<path d="M8.64787 21.711C10.0344 22.9881 13.3914 21.9664 16.1645 19.3757C18.9376 16.8215 20.0322 13.6834 18.6457 12.4063C17.2591 11.0927 13.9022 12.1508 11.1291 14.7416C8.35596 17.2958 7.26132 20.4339 8.64787 21.711Z" fill="#FF99CC"/>
<path d="M31.6717 30.9062C31.8907 33.5335 34.2259 35.5039 36.8531 35.2849C39.4802 35.066 41.4506 32.7307 41.2317 30.1035C41.0127 27.4398 38.6775 25.5058 36.0503 25.7248C33.4232 25.9437 31.4528 28.279 31.6717 30.9062Z" stroke="#FC007E" stroke-width="4"/>
<path d="M31.6717 30.9062C31.8907 33.5335 34.2259 35.5039 36.8531 35.2849C39.4802 35.066 41.4506 32.7307 41.2317 30.1035C41.0127 27.4398 38.6775 25.5058 36.0503 25.7248C33.4232 25.9437 31.4528 28.279 31.6717 30.9062Z" fill="#333333"/>
<path d="M34.0797 30.6873C34.1892 32.0009 35.3203 32.9861 36.6339 32.8766C37.984 32.7672 38.9327 31.5995 38.8232 30.2859C38.7137 28.9723 37.5826 27.9871 36.2325 28.0966C34.919 28.206 33.9338 29.3737 34.0797 30.6873V30.6873Z" fill="black"/>
<path d="M32.3284 29.1913C32.4379 30.3589 33.4596 31.2346 34.6272 31.1252C35.7948 31.0522 36.6705 29.994 36.5976 28.8264C36.4881 27.6587 35.4664 26.783 34.2623 26.8925C33.0947 27.0019 32.219 28.0236 32.3284 29.1913Z" fill="white"/>
<path d="M37.3274 32.6942C37.3639 33.1321 37.7288 33.4605 38.1667 33.424C38.6045 33.3875 38.9329 32.9861 38.8964 32.5483C38.8599 32.1104 38.495 31.782 38.0572 31.8185C37.6193 31.855 37.291 32.2563 37.3274 32.6942Z" fill="white"/>
<path d="M4.34196 30.9062C4.56089 33.5335 6.85966 35.5039 9.48682 35.2849C12.1505 35.066 14.0844 32.7307 13.8654 30.1035C13.6465 27.4398 11.3478 25.5058 8.68409 25.7248C6.05693 25.9437 4.12303 28.279 4.34196 30.9062Z" stroke="#FC007E" stroke-width="4"/>
<path d="M4.34196 30.9062C4.56089 33.5335 6.85966 35.5039 9.48682 35.2849C12.1505 35.066 14.0844 32.7307 13.8654 30.1035C13.6465 27.4398 11.3478 25.5058 8.68409 25.7248C6.05693 25.9437 4.12303 28.279 4.34196 30.9062Z" fill="#333333"/>
<path d="M6.71392 30.6873C6.82338 32.0009 7.991 32.9861 9.30459 32.8766C10.6182 32.7672 11.6034 31.5995 11.4939 30.2859C11.3844 28.9723 10.2168 27.9871 8.90322 28.0966C7.58964 28.206 6.60445 29.3737 6.71392 30.6873V30.6873Z" fill="black"/>
<path d="M4.99879 29.1913C5.07177 30.3589 6.12994 31.2346 7.29757 31.1252C8.4652 31.0522 9.34094 29.994 9.23148 28.8264C9.12201 27.6587 8.10032 26.783 6.93268 26.8925C5.76505 27.0019 4.88933 28.0236 4.99879 29.1913Z" fill="white"/>
<path d="M9.96131 32.6942C9.9978 33.1321 10.3992 33.4605 10.837 33.424C11.2749 33.3875 11.6033 32.9861 11.5668 32.5483C11.5303 32.1104 11.129 31.782 10.6911 31.8185C10.2532 31.855 9.92482 32.2563 9.96131 32.6942Z" fill="white"/>
<path d="M42.0708 36.854C40.4653 36.854 39.1518 37.2918 39.1518 37.7662C39.1518 38.277 40.4653 38.6784 42.0708 38.6784C43.7128 38.6784 45.0264 38.277 45.0264 37.7662C45.0264 37.2918 43.7128 36.854 42.0708 36.854Z" fill="#FF99CC"/>
<path d="M5.21764 36.854C3.57566 36.854 2.26206 37.2918 2.26206 37.7662C2.26206 38.277 3.57566 38.6784 5.21764 38.6784C6.82313 38.6784 8.13672 38.277 8.13672 37.7662C8.13672 37.2918 6.82313 36.854 5.21764 36.854Z" fill="#FF99CC"/>
</svg>
