<svg width="102" height="21" viewBox="0 0 102 21" fill="none" xmlns="http://www.w3.org/2000/svg">
<path fill-rule="evenodd" clip-rule="evenodd" d="M2.20169 20.0012L2.1652 19.8917H100.683V20.0012H101.778L101.741 20.1107H1.65437V19.8917H2.1652L1.83681 17.7022L2.1652 15.5857L3.0774 13.5786L4.57341 11.754L6.58025 10.0389L9.09792 8.46973L12.0535 7.04654L15.3739 5.76932L19.0592 4.63807L23.0728 3.65279L27.3055 2.81347L31.757 2.12013L36.391 1.57275L41.1709 1.17134L45.9873 0.915889L50.8767 0.806417L55.7661 0.842911L60.619 1.02537L65.399 1.3538L70.0329 1.86468L74.521 2.52154L78.8265 3.28787L82.8767 4.27315L86.635 5.36791L90.0284 6.64513L93.0569 8.06831L95.6475 9.63747L97.8003 11.3891L99.4058 13.2867L100.427 15.3667L100.865 17.5927L100.683 19.8917H101.23L101.778 20.0012L101.96 17.5927L101.522 15.3667L100.464 13.2867L98.8585 11.3526L96.7057 9.60098L94.0785 7.99534L91.05 6.53566L87.5837 5.25844L83.7524 4.12719L79.6293 3.17839L75.2507 2.33908L70.6532 1.68222L65.8368 1.17134L60.9109 0.842911L55.9121 0.623958L50.8402 0.587463L45.7684 0.696946L40.7695 0.952383L35.8801 1.39029L31.1367 1.93767L26.5392 2.66751L22.2336 3.50682L18.1834 4.5286L14.4252 5.65984L11.0318 6.97356L8.07626 8.39674L5.52209 9.9659L3.47878 11.7175L1.98276 13.5786L1.07056 15.5857L0.742172 17.7022L1.10705 20.0012L1.65437 20.1107V19.8917L2.20169 20.0012ZM1.10705 20.0012L1.65437 20.1107H1.10705V20.0012Z" fill="#FC007E"/>
<path d="M1.65432 20.0012H101.23C107.105 -6.45548 -5.75275 -5.0323 1.65432 20.0012Z" fill="#FF83C1"/>
<path d="M92.765 7.63039C85.2485 11.4256 63.7935 15.1842 38.5073 16.7534C24.3135 17.6657 11.3237 17.7022 1.32601 17.0818C1.22871 18.0063 1.32602 18.9794 1.61793 20.0012H101.23C102.361 14.8193 98.968 10.6957 92.765 7.63039Z" fill="#FF5BAD"/>
<path d="M28.473 5.03947C28.473 6.64511 36.7557 7.73986 47.0089 7.48442C57.2255 7.19248 65.5083 5.65983 65.5083 4.0177C65.5083 2.41206 57.2255 1.31731 47.0089 1.60924C36.7557 1.86469 28.473 3.39734 28.473 5.03947Z" fill="#FF99CC"/>
<path d="M10.8495 10.7687C12.7103 11.3891 17.1619 10.8782 20.8472 9.60096C24.496 8.36024 25.9555 6.82758 24.1311 6.17072C22.2702 5.55036 17.8187 6.06124 14.1699 7.33846C10.4846 8.57918 9.02505 10.1118 10.8495 10.7687Z" fill="#FF99CC"/>
<path d="M57.408 16.3155C55.8025 16.3155 54.489 16.7169 54.489 17.1913C54.489 17.7022 55.8025 18.1036 57.408 18.1036C59.05 18.1036 60.3635 17.7022 60.3635 17.1913C60.3635 16.7169 59.05 16.3155 57.408 16.3155Z" fill="#FF99CC"/>
<path d="M8.95205 16.3155C7.34657 16.3155 6.033 16.7169 6.033 17.1913C6.033 17.7022 7.34657 18.1036 8.95205 18.1036C10.594 18.1036 11.8711 17.7022 11.8711 17.1913C11.8711 16.7169 10.594 16.3155 8.95205 16.3155Z" fill="#FF99CC"/>
<path d="M56.0579 11.6445L54.2335 10.3308L56.0579 9.05356C56.8242 8.54268 57.0431 7.48441 56.4958 6.71808C55.9849 5.95175 54.9268 5.76928 54.1605 6.28017L51.3145 8.25074L48.4684 6.24368C47.7022 5.73279 46.644 5.91525 46.1332 6.64509C45.5858 7.41142 45.7683 8.46969 46.498 8.98058L48.3589 10.2943L46.498 11.5715C45.7318 12.0824 45.5494 13.1407 46.0602 13.907C46.6075 14.6733 47.6292 14.8558 48.3954 14.3449L51.278 12.3743L54.124 14.3814C54.8538 14.9288 55.912 14.7463 56.4593 13.98C56.9701 13.2137 56.8242 12.1919 56.0579 11.6445Z" fill="black"/>
<path d="M17.6727 11.6445L15.8483 10.3308L17.6727 9.05356C18.4389 8.54268 18.6578 7.48441 18.1105 6.71808C17.5997 5.95175 16.5415 5.76928 15.7753 6.28017L12.9292 8.25074L10.0832 6.24368C9.31693 5.73279 8.25878 5.91525 7.74795 6.64509C7.20063 7.41142 7.38307 8.46969 8.14932 8.98058L9.97371 10.2943L8.11283 11.5715C7.34658 12.0824 7.16415 13.1407 7.67498 13.907C8.2223 14.6733 9.24396 14.8558 10.0102 14.3449L12.8927 12.3743L15.7388 14.3814C16.4686 14.9288 17.5267 14.7463 18.074 13.98C18.6214 13.2137 18.4389 12.1919 17.6727 11.6445Z" fill="black"/>
</svg>
