<svg width="109" height="60" viewBox="0 0 109 60" fill="none" xmlns="http://www.w3.org/2000/svg">
<path fill-rule="evenodd" clip-rule="evenodd" d="M7.99358 5.99956C18.4289 3.76868 91.3296 3.70838 101.521 5.99956C104.739 6.78338 106.885 9.43633 107.519 13.476C109.518 26.1981 109.469 38.9805 107.519 51.7025C106.885 55.7422 104.788 58.757 101.521 59.1187C91.3296 60.3246 18.4289 60.2643 7.99358 59.1187C4.72645 58.757 2.38583 55.7422 1.99573 51.7025C0.825414 38.9805 0.581598 26.1981 1.99573 13.476C2.43459 9.43633 4.77522 6.72309 7.99358 5.99956Z" fill="black" fill-opacity="0.101961"/>
<path fill-rule="evenodd" clip-rule="evenodd" d="M7.01793 3.10503C17.4044 0.874144 90.3052 0.81385 100.497 3.10503C103.764 3.88885 105.861 6.5418 106.494 10.5815C108.494 23.3036 108.445 36.0859 106.494 48.808C105.909 52.8477 103.764 55.8624 100.497 56.2242C90.3052 57.4301 17.4044 57.3698 7.01793 56.2242C3.70204 55.8624 1.36142 52.8477 0.971312 48.808C-0.199001 36.0859 -0.442816 23.3036 0.971312 10.5815C1.41018 6.5418 3.7508 3.82856 7.01793 3.10503Z" fill="#E6E6E6"/>
<path fill-rule="evenodd" clip-rule="evenodd" d="M7.01793 1.71838C17.4044 -0.572794 90.3052 -0.572794 100.497 1.71838C103.764 2.50221 105.861 5.15515 106.494 9.19486C108.494 21.9169 108.445 34.639 106.494 47.4213C105.909 51.4611 103.764 54.4758 100.497 54.8375C90.3052 55.9831 17.4044 55.9831 7.01793 54.8375C3.70204 54.4758 1.36142 51.4611 0.971312 47.4213C-0.199001 34.639 -0.442816 21.9169 0.971312 9.19486C1.41018 5.15515 3.7508 2.44191 7.01793 1.71838Z" fill="white"/>
<path fill-rule="evenodd" clip-rule="evenodd" d="M9.30996 5.45668C18.6237 3.40668 90.4516 3.34638 99.619 5.45668C102.496 6.11991 104.447 8.53168 104.983 12.089C106.787 23.5449 106.738 34.9405 104.983 46.3964C104.447 50.0141 102.545 52.7273 99.619 53.0891C90.4516 54.1141 18.6237 54.1141 9.30996 53.0891C6.33542 52.7273 4.23861 50.0141 3.89727 46.3964C2.87324 34.9405 2.62943 23.5449 3.89727 12.089C4.28737 8.47139 6.38418 6.05962 9.30996 5.45668Z" fill="#E6E6E6"/>
<path fill-rule="evenodd" clip-rule="evenodd" d="M8.62734 4.43203C17.9411 2.38203 89.769 2.38203 98.9364 4.43203C101.813 5.09527 103.764 7.50703 104.3 11.1247C106.105 22.5203 106.056 33.9762 104.3 45.3718C103.764 48.9894 101.862 51.7027 98.9364 52.0644C89.769 53.0894 17.9411 53.0894 8.62734 52.0644C5.6528 51.763 3.55599 49.0497 3.21465 45.3718C2.19063 33.9762 1.94681 22.5203 3.21465 11.1247C3.60475 7.44674 5.70156 5.09527 8.62734 4.43203Z" fill="#00B0DC"/>
<path fill-rule="evenodd" clip-rule="evenodd" d="M8.62734 2.14125C17.9411 0.0912465 89.769 0.0309523 98.9364 2.14125C101.813 2.80448 103.764 5.21625 104.3 8.77361C106.105 20.2295 106.056 31.6251 104.3 43.081C103.764 46.6986 101.862 49.4119 98.9364 49.7736C89.769 50.7986 17.9411 50.7986 8.62734 49.7736C5.6528 49.4119 3.55599 46.6986 3.21465 43.081C2.19063 31.6251 1.94681 20.2295 3.21465 8.77361C3.60475 5.15596 5.70156 2.74419 8.62734 2.14125Z" fill="#99FFFF"/>
<path fill-rule="evenodd" clip-rule="evenodd" d="M8.82216 2.44082C18.0384 0.39082 89.72 0.39082 98.7412 2.44082C101.618 3.10406 103.52 5.45553 104.056 9.01288C105.812 20.2879 105.812 31.5629 104.056 42.8379C103.52 46.3953 101.667 49.1085 98.7412 49.41C89.72 50.435 18.0384 50.435 8.82216 49.41C5.89638 49.1085 3.79957 46.4556 3.45822 42.8379C2.4342 31.5629 2.23915 20.2879 3.45822 9.01288C3.84833 5.39523 5.94514 3.04376 8.82216 2.44082Z" fill="#8BFAFF"/>
<path fill-rule="evenodd" clip-rule="evenodd" d="M9.01711 2.74251C18.087 0.752807 89.6711 0.692513 98.546 2.74251C101.374 3.40575 103.276 5.75722 103.812 9.25428C105.568 20.3484 105.519 31.5028 103.812 42.5969C103.276 46.094 101.423 48.8072 98.546 49.1087C89.6711 50.1337 18.087 50.0734 9.01711 49.1087C6.09133 48.8072 4.04328 46.1543 3.7507 42.5969C2.72668 31.5028 2.53163 20.3484 3.7507 9.25428C4.14081 5.69693 6.14009 3.34546 9.01711 2.74251Z" fill="#7DF6FF"/>
<path fill-rule="evenodd" clip-rule="evenodd" d="M9.16347 3.04306C18.1359 1.05335 89.6224 1.05335 98.351 3.04306C101.179 3.7063 103.032 5.99748 103.569 9.43425C105.275 20.4078 105.227 31.3813 103.569 42.3549C103.032 45.8519 101.228 48.4446 98.351 48.8063C89.6224 49.7711 18.1359 49.7711 9.16347 48.8063C6.33521 48.4446 4.33593 45.8519 3.99459 42.3549C3.01933 31.3813 2.77551 20.4078 3.99459 9.43425C4.38469 5.93718 6.38398 3.646 9.16347 3.04306Z" fill="#6FF1FF"/>
<path fill-rule="evenodd" clip-rule="evenodd" d="M9.35873 3.34647C18.2336 1.41706 89.5251 1.41706 98.2049 3.34647C100.936 4.00971 102.789 6.24059 103.325 9.67736C104.983 20.5303 104.983 31.323 103.325 42.1156C102.789 45.5524 100.984 48.145 98.2049 48.4465C89.5251 49.4715 18.2336 49.4112 9.35873 48.4465C6.57924 48.145 4.57996 45.6127 4.23862 42.1156C3.26336 31.323 3.06831 20.5303 4.23862 9.67736C4.62872 6.24059 6.57924 3.94942 9.35873 3.34647Z" fill="#61ECFF"/>
<path fill-rule="evenodd" clip-rule="evenodd" d="M9.55393 3.64622C18.2825 1.7771 89.4765 1.71681 98.01 3.64622C100.741 4.30946 102.545 6.54034 103.033 9.91681C104.739 20.5889 104.691 31.261 103.033 41.933C102.545 45.2492 100.79 47.8418 98.01 48.1433C89.4765 49.108 18.2825 49.108 9.55393 48.1433C6.77444 47.8418 4.82392 45.3095 4.53134 41.933C3.55608 31.261 3.36103 20.5889 4.53134 9.91681C4.87268 6.48005 6.8232 4.24916 9.55393 3.64622Z" fill="#53E8FF"/>
<path fill-rule="evenodd" clip-rule="evenodd" d="M9.74882 3.94774C18.3311 2.07862 89.4275 2.07862 97.8148 3.94774C100.546 4.61097 102.301 6.78156 102.789 10.0977C104.447 20.6492 104.447 31.1404 102.789 41.6919C102.301 45.0081 100.546 47.5404 97.8148 47.8419C89.4275 48.8066 18.3311 48.7463 9.74882 47.8419C7.01809 47.5404 5.06757 45.0081 4.77499 41.6919C3.79974 31.1404 3.60468 20.6492 4.77499 10.0977C5.11634 6.78156 7.06686 4.55068 9.74882 3.94774Z" fill="#46E3FF"/>
<path fill-rule="evenodd" clip-rule="evenodd" d="M9.94359 4.30931C18.4284 2.44019 89.3785 2.37989 97.6682 4.30931C100.301 4.91225 102.057 7.08284 102.545 10.3387C104.154 20.7093 104.154 31.0799 102.545 41.4505C102.057 44.7064 100.35 47.1785 97.6682 47.4799C89.3785 48.4446 18.4284 48.4446 9.94359 47.4799C7.26163 47.2387 5.31111 44.7667 5.01853 41.4505C4.09203 31.0799 3.89698 20.7093 5.01853 10.3387C5.40863 7.02254 7.26163 4.85195 9.94359 4.30931Z" fill="#38DFFF"/>
<path fill-rule="evenodd" clip-rule="evenodd" d="M10.09 4.6118C18.4772 2.74268 89.3299 2.74268 97.4733 4.6118C100.107 5.21474 101.813 7.32504 102.301 10.5809C103.91 20.7706 103.861 31.0206 102.301 41.2104C101.813 44.4662 100.107 46.878 97.4733 47.1795C89.3299 48.0839 18.4772 48.0839 10.09 47.1795C7.45679 46.878 5.60379 44.4662 5.26245 41.2104C4.33595 31.0206 4.18966 20.7706 5.26245 10.5809C5.65255 7.32504 7.50555 5.15445 10.09 4.6118Z" fill="#2ADAFF"/>
<path fill-rule="evenodd" clip-rule="evenodd" d="M10.2849 4.91228C18.5259 3.10346 89.2322 3.10346 97.2781 4.91228C99.8626 5.51522 101.569 7.62552 102.057 10.7608C103.617 20.8299 103.617 30.8991 102.057 40.9682C101.569 44.1638 99.9113 46.5756 97.2781 46.877C89.2322 47.7814 18.5259 47.7814 10.2849 46.877C7.70048 46.5756 5.84749 44.2241 5.55491 40.9682C4.62841 30.8991 4.43336 20.8299 5.55491 10.7608C5.89625 7.56523 7.70048 5.45493 10.2849 4.91228Z" fill="#1CD5FF"/>
<path fill-rule="evenodd" clip-rule="evenodd" d="M10.4799 5.21399C18.5746 3.46546 89.1834 3.40516 97.1318 5.21399C99.6675 5.81693 101.325 7.86693 101.813 11.0022C103.325 20.9508 103.325 30.839 101.813 40.7272C101.325 43.8625 99.6675 46.2743 97.1318 46.5155C89.1834 47.4199 18.5746 47.4199 10.4799 46.5155C7.94427 46.2743 6.09127 43.9228 5.79869 40.7272C4.92096 30.839 4.72591 20.9508 5.79869 11.0022C6.14004 7.86693 7.94427 5.75663 10.4799 5.21399Z" fill="#0ED1FF"/>
<path fill-rule="evenodd" clip-rule="evenodd" d="M10.6751 5.51648C18.6722 3.76795 89.1348 3.76795 96.9369 5.51648C99.4238 6.11942 101.082 8.16942 101.569 11.2444C103.081 21.0121 103.032 30.7797 101.569 40.5474C101.082 43.6224 99.4725 45.9136 96.9369 46.2151C89.1348 47.1195 18.6722 47.1195 10.6751 46.2151C8.1394 45.9739 6.33517 43.6224 6.04259 40.5474C5.16486 30.7797 4.9698 21.0121 6.04259 11.2444C6.38393 8.10913 8.18816 6.05912 10.6751 5.51648Z" fill="#00CCFF"/>
<path fill-rule="evenodd" clip-rule="evenodd" d="M8.62716 2.14125C17.9409 0.0912465 89.7688 0.0309523 98.9362 2.14125C101.813 2.80448 103.764 5.21625 104.3 8.77361C105.129 13.9589 105.568 19.1442 105.617 24.3295C88.3059 15.5266 14.0399 38.9207 2.3855 24.2089C2.3855 19.0839 2.67808 13.9589 3.21447 8.77361C3.60457 5.15596 5.70138 2.74419 8.62716 2.14125Z" fill="white" fill-opacity="0.290196"/>
<path fill-rule="evenodd" clip-rule="evenodd" d="M9.11476 4.37109C11.8455 4.37109 14.0886 7.08433 14.0886 10.5211C14.0886 13.8976 11.8455 16.6108 9.11476 16.6108C6.38403 16.6108 4.1897 13.8976 4.1897 10.5211C4.1897 7.08433 6.38403 4.37109 9.11476 4.37109Z" fill="white"/>
<path fill-rule="evenodd" clip-rule="evenodd" d="M16.7215 2.80371C18.0381 2.80371 19.1597 4.13018 19.1597 5.81842C19.1597 7.50666 18.0381 8.89342 16.7215 8.89342C15.3562 8.89342 14.2346 7.50666 14.2346 5.81842C14.2346 4.13018 15.3562 2.80371 16.7215 2.80371Z" fill="white"/>
<path fill-rule="evenodd" clip-rule="evenodd" d="M99.7655 40.9092C101.375 40.9092 102.74 42.5371 102.74 44.5871C102.74 46.6371 101.375 48.3254 99.7655 48.3254C98.1076 48.3254 96.7422 46.6371 96.7422 44.5871C96.7422 42.5371 98.1076 40.9092 99.7655 40.9092Z" fill="white"/>
</svg>
