<svg width="59" height="32" viewBox="0 0 59 32" preserveAspectRatio="none" fill="none" xmlns="http://www.w3.org/2000/svg">
<path fill-rule="evenodd" clip-rule="evenodd" d="M4.30067 3.15235C9.91557 1.98009 49.1412 1.9484 54.6249 3.15235C56.3566 3.56422 57.5111 4.95827 57.8521 7.08101C58.9279 13.7661 58.9017 20.4828 57.8521 27.1679C57.5111 29.2906 56.3828 30.8748 54.6249 31.0649C49.1412 31.6985 9.91557 31.6668 4.30067 31.0649C2.54273 30.8748 1.28332 29.2906 1.07341 27.1679C0.443705 20.4828 0.312516 13.7661 1.07341 7.08101C1.30955 4.95827 2.56897 3.53254 4.30067 3.15235Z" fill="black" fill-opacity="0.101961"/>
<path fill-rule="evenodd" clip-rule="evenodd" d="M3.77613 1.63184C9.36479 0.459578 48.5904 0.427895 54.0741 1.63184C55.832 2.04372 56.9603 3.43776 57.3014 5.5605C58.3771 12.2456 58.3509 18.9623 57.3014 25.6474C56.9865 27.7701 55.832 29.3543 54.0741 29.5444C48.5904 30.178 9.36479 30.1463 3.77613 29.5444C1.99195 29.3543 0.732536 27.7701 0.522633 25.6474C-0.107076 18.9623 -0.238265 12.2456 0.522633 5.5605C0.758774 3.43776 2.01819 2.01203 3.77613 1.63184Z" fill="#E6E6E6"/>
<path fill-rule="evenodd" clip-rule="evenodd" d="M3.77613 0.902959C9.36479 -0.300986 48.5904 -0.300986 54.0741 0.902959C55.832 1.31483 56.9603 2.70888 57.3014 4.83162C58.3771 11.5167 58.3509 18.2017 57.3014 24.9185C56.9865 27.0412 55.832 28.6254 54.0741 28.8155C48.5904 29.4174 9.36479 29.4174 3.77613 28.8155C1.99195 28.6254 0.732536 27.0412 0.522633 24.9185C-0.107076 18.2017 -0.238265 11.5167 0.522633 4.83162C0.758774 2.70888 2.01819 1.28315 3.77613 0.902959Z" fill="white"/>
<path fill-rule="evenodd" clip-rule="evenodd" d="M5.00945 2.8672C10.0209 1.78998 48.6693 1.7583 53.602 2.8672C55.15 3.21571 56.1995 4.48302 56.4881 6.3523C57.4589 12.372 57.4327 18.3601 56.4881 24.3798C56.1995 26.2808 55.1762 27.7065 53.602 27.8966C48.6693 28.4352 10.0209 28.4352 5.00945 27.8966C3.40894 27.7065 2.28071 26.2808 2.09704 24.3798C1.54605 18.3601 1.41486 12.372 2.09704 6.3523C2.30695 4.45134 3.43518 3.18403 5.00945 2.8672Z" fill="#E6E6E6"/>
<path fill-rule="evenodd" clip-rule="evenodd" d="M4.64177 2.32891C9.6532 1.25169 48.3016 1.25169 53.2343 2.32891C54.7823 2.67742 55.8318 3.94473 56.1205 5.84569C57.0913 11.8337 57.065 17.8535 56.1205 23.8415C55.8318 25.7425 54.8086 27.1682 53.2343 27.3583C48.3016 27.8969 9.6532 27.8969 4.64177 27.3583C3.04126 27.1999 1.91303 25.7742 1.72937 23.8415C1.17837 17.8535 1.04718 11.8337 1.72937 5.84569C1.93927 3.91304 3.0675 2.67742 4.64177 2.32891Z" fill="#00B0DC"/>
<path fill-rule="evenodd" clip-rule="evenodd" d="M4.64177 1.12452C9.6532 0.0473081 48.3016 0.0156254 53.2343 1.12452C54.7823 1.47303 55.8318 2.74034 56.1205 4.60962C57.0913 10.6293 57.065 16.6174 56.1205 22.6371C55.8318 24.5381 54.8086 25.9638 53.2343 26.1539C48.3016 26.6925 9.6532 26.6925 4.64177 26.1539C3.04126 25.9638 1.91303 24.5381 1.72937 22.6371C1.17837 16.6174 1.04718 10.6293 1.72937 4.60962C1.93927 2.70866 3.0675 1.44135 4.64177 1.12452Z" fill="#99FFFF"/>
<path fill-rule="evenodd" clip-rule="evenodd" d="M4.74685 1.28301C9.7058 0.205794 48.2755 0.205794 53.1295 1.28301C54.6775 1.63152 55.7008 2.86715 55.9894 4.73643C56.934 10.6611 56.934 16.5858 55.9894 22.5105C55.7008 24.3797 54.7037 25.8055 53.1295 25.9639C48.2755 26.5025 9.7058 26.5025 4.74685 25.9639C3.17258 25.8055 2.04435 24.4114 1.86068 22.5105C1.30969 16.5858 1.20474 10.6611 1.86068 4.73643C2.07058 2.83546 3.19881 1.59984 4.74685 1.28301Z" fill="#8BFAFF"/>
<path fill-rule="evenodd" clip-rule="evenodd" d="M4.8516 1.44158C9.73184 0.39605 48.249 0.364368 53.0243 1.44158C54.5461 1.79009 55.5694 3.02572 55.858 4.86332C56.8026 10.6929 56.7763 16.5543 55.858 22.3839C55.5694 24.2215 54.5723 25.6472 53.0243 25.8056C48.249 26.3442 9.73184 26.3125 4.8516 25.8056C3.27733 25.6472 2.17534 24.2532 2.01791 22.3839C1.46691 16.5543 1.36196 10.6929 2.01791 4.86332C2.22781 2.99404 3.30356 1.75841 4.8516 1.44158Z" fill="#7DF6FF"/>
<path fill-rule="evenodd" clip-rule="evenodd" d="M4.93041 1.60007C9.75818 0.554535 48.2229 0.554535 52.9195 1.60007C54.4413 1.94858 55.4383 3.15252 55.7269 4.95844C56.6452 10.7247 56.619 16.491 55.7269 22.2572C55.4383 24.0948 54.4675 25.4572 52.9195 25.6473C48.2229 26.1542 9.75818 26.1542 4.93041 25.6473C3.40862 25.4572 2.33287 24.0948 2.1492 22.2572C1.62444 16.491 1.49325 10.7247 2.1492 4.95844C2.3591 3.12084 3.43486 1.91689 4.93041 1.60007Z" fill="#6FF1FF"/>
<path fill-rule="evenodd" clip-rule="evenodd" d="M5.03547 1.75843C9.81076 0.744585 48.1705 0.744585 52.8409 1.75843C54.3102 2.10694 55.3072 3.27921 55.5958 5.08512C56.4879 10.788 56.4879 16.4592 55.5958 22.1304C55.3072 23.9364 54.3364 25.2987 52.8409 25.4571C48.1705 25.9957 9.81076 25.9641 5.03547 25.4571C3.53991 25.2987 2.46416 23.968 2.2805 22.1304C1.75574 16.4592 1.65079 10.788 2.2805 5.08512C2.4904 3.27921 3.53991 2.07526 5.03547 1.75843Z" fill="#61ECFF"/>
<path fill-rule="evenodd" clip-rule="evenodd" d="M5.14022 1.91652C9.8368 0.934355 48.1441 0.902673 52.7357 1.91652C54.205 2.26503 55.1758 3.43729 55.4382 5.21153C56.3565 10.8194 56.3303 16.4272 55.4382 22.0351C55.1758 23.7776 54.2313 25.14 52.7357 25.2984C48.1441 25.8053 9.8368 25.8053 5.14022 25.2984C3.64466 25.14 2.59515 23.8093 2.43772 22.0351C1.91296 16.4272 1.80801 10.8194 2.43772 5.21153C2.62139 3.40561 3.6709 2.23335 5.14022 1.91652Z" fill="#53E8FF"/>
<path fill-rule="evenodd" clip-rule="evenodd" d="M5.24533 2.075C9.86319 1.09284 48.118 1.09284 52.6309 2.075C54.1002 2.42351 55.0448 3.56409 55.3072 5.30664C56.1993 10.8511 56.1993 16.3639 55.3072 21.9084C55.0448 23.651 54.1002 24.9816 52.6309 25.14C48.118 25.647 9.86319 25.6153 5.24533 25.14C3.77601 24.9816 2.7265 23.651 2.56907 21.9084C2.04431 16.3639 1.93936 10.8511 2.56907 5.30664C2.75273 3.56409 3.80225 2.39183 5.24533 2.075Z" fill="#46E3FF"/>
<path fill-rule="evenodd" clip-rule="evenodd" d="M5.35034 2.26515C9.91572 1.28299 48.0918 1.25131 52.5522 2.26515C53.9691 2.58198 54.9137 3.72256 55.176 5.43343C56.0419 10.8829 56.0419 16.3323 55.176 21.7817C54.9137 23.4926 53.9953 24.7916 52.5522 24.95C48.0918 25.4569 9.91572 25.4569 5.35034 24.95C3.90725 24.8233 2.85774 23.5243 2.70031 21.7817C2.20179 16.3323 2.09684 10.8829 2.70031 5.43343C2.91021 3.69088 3.90725 2.5503 5.35034 2.26515Z" fill="#38DFFF"/>
<path fill-rule="evenodd" clip-rule="evenodd" d="M5.42923 2.42364C9.94214 1.44147 48.0658 1.44147 52.4475 2.42364C53.8643 2.74046 54.7826 3.84936 55.045 5.56023C55.9109 10.9146 55.8846 16.3007 55.045 21.6551C54.7826 23.3659 53.8643 24.6333 52.4475 24.7917C48.0658 25.2669 9.94214 25.2669 5.42923 24.7917C4.01238 24.6333 3.01535 23.3659 2.83168 21.6551C2.33316 16.3007 2.25445 10.9146 2.83168 5.56023C3.04158 3.84936 4.03862 2.70878 5.42923 2.42364Z" fill="#2ADAFF"/>
<path fill-rule="evenodd" clip-rule="evenodd" d="M5.53396 2.582C9.96816 1.63152 48.0131 1.63152 52.3423 2.582C53.7329 2.89883 54.6512 4.00773 54.9136 5.65523C55.7532 10.9463 55.7532 16.2373 54.9136 21.5283C54.6512 23.2075 53.7591 24.4748 52.3423 24.6332C48.0131 25.1084 9.96816 25.1084 5.53396 24.6332C4.14335 24.4748 3.14631 23.2392 2.98889 21.5283C2.49037 16.2373 2.38542 10.9463 2.98889 5.65523C3.17255 3.97604 4.14335 2.86715 5.53396 2.582Z" fill="#1CD5FF"/>
<path fill-rule="evenodd" clip-rule="evenodd" d="M5.63897 2.74058C9.99445 1.82178 47.9869 1.7901 52.2636 2.74058C53.628 3.05741 54.5201 4.13462 54.7825 5.78213C55.5959 11.0098 55.5959 16.2058 54.7825 21.4017C54.5201 23.0492 53.628 24.3165 52.2636 24.4433C47.9869 24.9185 9.99445 24.9185 5.63897 24.4433C4.2746 24.3165 3.27756 23.0809 3.12013 21.4017C2.64785 16.2058 2.5429 11.0098 3.12013 5.78213C3.3038 4.13462 4.2746 3.02573 5.63897 2.74058Z" fill="#0ED1FF"/>
<path fill-rule="evenodd" clip-rule="evenodd" d="M5.74408 2.89906C10.0471 1.98026 47.9608 1.98026 52.1589 2.89906C53.497 3.21589 54.3891 4.2931 54.6515 5.90892C55.4648 11.0415 55.4386 16.1741 54.6515 21.3068C54.3891 22.9226 53.5232 24.1265 52.1589 24.2849C47.9608 24.7602 10.0471 24.7602 5.74408 24.2849C4.37971 24.1582 3.40891 22.9226 3.25148 21.3068C2.7792 16.1741 2.67425 11.0415 3.25148 5.90892C3.43515 4.26142 4.40595 3.18421 5.74408 2.89906Z" fill="#00CCFF"/>
<path fill-rule="evenodd" clip-rule="evenodd" d="M4.64214 1.12452C9.65357 0.0473081 48.3019 0.0156254 53.2347 1.12452C54.7827 1.47303 55.8322 2.74034 56.1208 4.60963C56.5669 7.33434 56.803 10.0591 56.8292 12.7838C47.5148 8.15809 7.55454 20.451 1.28369 12.7204C1.28369 10.0274 1.44112 7.33434 1.72974 4.60963C1.93964 2.70866 3.06787 1.44135 4.64214 1.12452Z" fill="white" fill-opacity="0.290196"/>
<path fill-rule="evenodd" clip-rule="evenodd" d="M4.90442 2.29688C6.37374 2.29688 7.58068 3.7226 7.58068 5.52852C7.58068 7.30275 6.37374 8.72848 4.90442 8.72848C3.4351 8.72848 2.25439 7.30275 2.25439 5.52852C2.25439 3.7226 3.4351 2.29688 4.90442 2.29688Z" fill="white"/>
<path fill-rule="evenodd" clip-rule="evenodd" d="M8.99731 1.47314C9.70573 1.47314 10.3092 2.17017 10.3092 3.05728C10.3092 3.9444 9.70573 4.6731 8.99731 4.6731C8.26265 4.6731 7.65918 3.9444 7.65918 3.05728C7.65918 2.17017 8.26265 1.47314 8.99731 1.47314Z" fill="white"/>
<path fill-rule="evenodd" clip-rule="evenodd" d="M53.6805 21.4966C54.5463 21.4966 55.281 22.352 55.281 23.4292C55.281 24.5065 54.5463 25.3936 53.6805 25.3936C52.7884 25.3936 52.0537 24.5065 52.0537 23.4292C52.0537 22.352 52.7884 21.4966 53.6805 21.4966Z" fill="white"/>
</svg>
