<svg width="27" height="10" viewBox="0 0 27 10" preserveAspectRatio="none" fill="none" xmlns="http://www.w3.org/2000/svg">
<path fill-rule="evenodd" clip-rule="evenodd" d="M2.46788 1.34009H25.3177C25.7977 1.34009 26.1977 1.80008 26.1977 2.35008V8.30003C26.1977 8.85002 25.7977 9.30002 25.3177 9.30002H2.46788C1.98789 9.30002 1.58789 8.85002 1.58789 8.30003V2.35008C1.58789 1.80008 1.98789 1.34009 2.46788 1.34009Z" fill="black" fill-opacity="0.101961"/>
<path fill-rule="evenodd" clip-rule="evenodd" d="M2.22789 1.03003H25.0777C25.5577 1.03003 25.9577 1.48003 25.9577 2.03002V7.97997C25.9577 8.52996 25.5577 8.98996 25.0777 8.98996H2.22789C1.7479 8.98996 1.3479 8.53996 1.3479 7.97997V2.03002C1.3479 1.48003 1.7379 1.03003 2.22789 1.03003Z" fill="#E6E6E6"/>
<path fill-rule="evenodd" clip-rule="evenodd" d="M2.22789 0.820068H25.0777C25.5577 0.820068 25.9577 1.27006 25.9577 1.82006V7.77001C25.9577 8.32 25.5577 8.78 25.0777 8.78H2.22789C1.7479 8.78 1.3479 8.33 1.3479 7.77001V1.82006C1.3479 1.27006 1.7379 0.820068 2.22789 0.820068Z" fill="white"/>
<path fill-rule="evenodd" clip-rule="evenodd" d="M2.76799 1.48999H24.6478C25.0978 1.48999 25.4678 1.91999 25.4678 2.43998V7.22994C25.4678 7.75993 25.0978 8.17993 24.6478 8.17993H2.76799C2.31799 8.17993 1.948 7.75993 1.948 7.22994V2.43998C1.948 1.91999 2.31799 1.48999 2.76799 1.48999Z" fill="#E6E6E6"/>
<path fill-rule="evenodd" clip-rule="evenodd" d="M2.58781 1.37012H24.4876C24.9376 1.37012 25.2976 1.79011 25.2976 2.31011V6.98007C25.2976 7.49006 24.9376 7.92006 24.4876 7.92006H2.58781C2.13782 7.92006 1.76782 7.50006 1.76782 6.98007V2.31011C1.76782 1.79011 2.12782 1.37012 2.58781 1.37012Z" fill="#F1C383"/>
<path fill-rule="evenodd" clip-rule="evenodd" d="M2.56782 1.12012H24.3076C24.7576 1.12012 25.1176 1.54011 25.1176 2.05011V6.43007C25.1176 6.94007 24.7576 7.36006 24.3076 7.36006H2.56782C2.12782 7.36006 1.76782 6.95007 1.76782 6.43007V2.05011C1.76782 1.54011 2.12782 1.12012 2.56782 1.12012Z" fill="#FAEECC"/>
<path fill-rule="evenodd" clip-rule="evenodd" d="M2.69795 1.23999C9.85789 1.23999 17.0178 1.23999 24.1778 1.23999C24.6178 1.23999 24.9778 1.65999 24.9778 2.15998C24.9778 3.54997 24.9778 4.92996 24.9778 6.31995C24.9778 6.82994 24.6178 7.23994 24.1778 7.23994C17.0178 7.23994 9.85789 7.23994 2.69795 7.23994C2.26796 7.23994 1.90796 6.82994 1.90796 6.31995C1.90796 4.92996 1.90796 3.54997 1.90796 2.15998C1.90796 1.65999 2.25796 1.23999 2.69795 1.23999Z" fill="#FAEDC9"/>
<path fill-rule="evenodd" clip-rule="evenodd" d="M2.82784 1.37012C9.90778 1.37012 16.9777 1.37012 24.0477 1.37012C24.4877 1.37012 24.8376 1.77011 24.8376 2.27011C24.8376 3.5801 24.8376 4.90009 24.8376 6.21007C24.8376 6.71007 24.4877 7.12007 24.0477 7.12007C16.9777 7.12007 9.90778 7.12007 2.82784 7.12007C2.39785 7.12007 2.04785 6.71007 2.04785 6.21007C2.04785 4.90009 2.04785 3.5801 2.04785 2.27011C2.04785 1.77011 2.39785 1.37012 2.82784 1.37012Z" fill="#F9ECC6"/>
<path fill-rule="evenodd" clip-rule="evenodd" d="M2.95798 1.48999C9.94792 1.48999 16.9379 1.48999 23.9178 1.48999C24.3478 1.48999 24.6978 1.88999 24.6978 2.37998C24.6978 3.61997 24.6978 4.85996 24.6978 6.09995C24.6978 6.58994 24.3478 6.98994 23.9178 6.98994C16.9379 6.98994 9.94792 6.98994 2.95798 6.98994C2.53799 6.98994 2.18799 6.58994 2.18799 6.09995C2.18799 4.85996 2.18799 3.61997 2.18799 2.37998C2.18799 1.88999 2.53799 1.48999 2.95798 1.48999Z" fill="#F9EBC2"/>
<path fill-rule="evenodd" clip-rule="evenodd" d="M3.08787 1.60986C9.98781 1.60986 16.8878 1.60986 23.7877 1.60986C24.2077 1.60986 24.5577 2.00986 24.5577 2.49986C24.5577 3.65985 24.5577 4.81983 24.5577 5.98982C24.5577 6.46982 24.2077 6.86982 23.7877 6.86982C16.8878 6.86982 9.98781 6.86982 3.08787 6.86982C2.66788 6.86982 2.32788 6.46982 2.32788 5.98982C2.32788 4.81983 2.32788 3.65985 2.32788 2.49986C2.32788 2.00986 2.66788 1.60986 3.08787 1.60986Z" fill="#F8EABF"/>
<path fill-rule="evenodd" clip-rule="evenodd" d="M3.21801 1.73999C10.038 1.73999 16.8479 1.73999 23.6578 1.73999C24.0778 1.73999 24.4178 2.12999 24.4178 2.60998C24.4178 3.69997 24.4178 4.78996 24.4178 5.86995C24.4178 6.34995 24.0778 6.73995 23.6578 6.73995C16.8479 6.73995 10.038 6.73995 3.21801 6.73995C2.80801 6.73995 2.46802 6.34995 2.46802 5.86995C2.46802 4.78996 2.46802 3.69997 2.46802 2.60998C2.46802 2.12999 2.80801 1.73999 3.21801 1.73999Z" fill="#F8E9BC"/>
<path fill-rule="evenodd" clip-rule="evenodd" d="M3.3479 1.85986C10.0778 1.85986 16.8078 1.85986 23.5277 1.85986C23.9377 1.85986 24.2777 2.24986 24.2777 2.71986C24.2777 3.72985 24.2777 4.74984 24.2777 5.75983C24.2777 6.22982 23.9377 6.61982 23.5277 6.61982C16.8078 6.61982 10.0778 6.61982 3.3479 6.61982C2.93791 6.61982 2.60791 6.22982 2.60791 5.75983C2.60791 4.74984 2.60791 3.72985 2.60791 2.71986C2.60791 2.24986 2.93791 1.85986 3.3479 1.85986Z" fill="#F7E8B9"/>
<path fill-rule="evenodd" clip-rule="evenodd" d="M3.48804 1.97998C10.118 1.97998 16.7579 1.97998 23.3979 1.97998C23.8079 1.97998 24.1379 2.36998 24.1379 2.82997C24.1379 3.76996 24.1379 4.70996 24.1379 5.64995C24.1379 6.11994 23.8079 6.49994 23.3979 6.49994C16.7579 6.49994 10.118 6.49994 3.48804 6.49994C3.07804 6.49994 2.74805 6.11994 2.74805 5.64995C2.74805 4.70996 2.74805 3.76996 2.74805 2.82997C2.74805 2.36998 3.07804 1.97998 3.48804 1.97998Z" fill="#F7E7B6"/>
<path fill-rule="evenodd" clip-rule="evenodd" d="M3.61793 2.10986C10.1679 2.10986 16.7178 2.10986 23.2678 2.10986C23.6678 2.10986 23.9978 2.47986 23.9978 2.93986C23.9978 3.80985 23.9978 4.66984 23.9978 5.53983C23.9978 5.99983 23.6678 6.36983 23.2678 6.36983C16.7178 6.36983 10.1679 6.36983 3.61793 6.36983C3.21794 6.36983 2.88794 5.99983 2.88794 5.53983C2.88794 4.66984 2.88794 3.80985 2.88794 2.93986C2.88794 2.47986 3.20794 2.10986 3.61793 2.10986Z" fill="#F6E6B3"/>
<path fill-rule="evenodd" clip-rule="evenodd" d="M3.74783 2.22998C10.2078 2.22998 16.6777 2.22998 23.1377 2.22998C23.5377 2.22998 23.8576 2.59998 23.8576 3.05997C23.8576 3.84997 23.8576 4.63996 23.8576 5.41995C23.8576 5.87995 23.5377 6.24994 23.1377 6.24994C16.6777 6.24994 10.2078 6.24994 3.74783 6.24994C3.34783 6.24994 3.02783 5.87995 3.02783 5.41995C3.02783 4.63996 3.02783 3.84997 3.02783 3.05997C3.02783 2.59998 3.34783 2.22998 3.74783 2.22998Z" fill="#F6E5AF"/>
<path fill-rule="evenodd" clip-rule="evenodd" d="M3.87796 2.3501C10.2479 2.3501 16.6278 2.3501 23.0078 2.3501C23.3978 2.3501 23.7178 2.72009 23.7178 3.17009C23.7178 3.88008 23.7178 4.60008 23.7178 5.31007C23.7178 5.76007 23.3978 6.13006 23.0078 6.13006C16.6278 6.13006 10.2479 6.13006 3.87796 6.13006C3.48797 6.13006 3.16797 5.76007 3.16797 5.31007C3.16797 4.60008 3.16797 3.88008 3.16797 3.17009C3.16797 2.72009 3.48797 2.3501 3.87796 2.3501Z" fill="#F5E4AC"/>
<path fill-rule="evenodd" clip-rule="evenodd" d="M4.00786 2.47998H22.8777C23.2577 2.47998 23.5777 2.83998 23.5777 3.27997V5.19996C23.5777 5.63995 23.2577 5.99995 22.8777 5.99995H4.00786C3.61786 5.99995 3.30786 5.63995 3.30786 5.19996V3.27997C3.30786 2.83998 3.61786 2.47998 4.00786 2.47998Z" fill="#F5E3A9"/>
<path fill-rule="evenodd" clip-rule="evenodd" d="M24.5276 6.1499C24.7676 6.1499 24.9676 6.3799 24.9676 6.6599C24.9676 6.9399 24.7676 7.16989 24.5276 7.16989C24.2776 7.16989 24.0776 6.9399 24.0776 6.6599C24.0776 6.3799 24.2776 6.1499 24.5276 6.1499Z" fill="white"/>
<path fill-rule="evenodd" clip-rule="evenodd" d="M23.8477 6.66992C23.9777 6.66992 24.0777 6.79992 24.0777 6.94992C24.0777 7.09992 23.9777 7.21992 23.8477 7.21992C23.7077 7.21992 23.6077 7.09992 23.6077 6.94992C23.6077 6.79992 23.7077 6.66992 23.8477 6.66992Z" fill="white"/>
<path fill-rule="evenodd" clip-rule="evenodd" d="M2.62799 1.3501C3.00799 1.3501 3.31799 1.71009 3.31799 2.14009C3.31799 2.58009 3.00799 2.93008 2.62799 2.93008C2.258 2.93008 1.948 2.58009 1.948 2.14009C1.948 1.71009 2.258 1.3501 2.62799 1.3501Z" fill="white"/>
<path fill-rule="evenodd" clip-rule="evenodd" d="M3.68786 1.26001C3.89786 1.26001 4.06785 1.45001 4.06785 1.70001C4.06785 1.94 3.89786 2.13 3.68786 2.13C3.47786 2.13 3.30786 1.94 3.30786 1.70001C3.30786 1.45001 3.47786 1.26001 3.68786 1.26001Z" fill="white"/>
<path fill-rule="evenodd" clip-rule="evenodd" d="M7.47787 1.90015H23.6277C23.9877 1.90015 24.2777 2.15014 24.2777 2.44014V6.09011C24.2777 6.38011 23.9877 6.6201 23.6277 6.6201H7.47787C7.11787 6.6201 6.81787 6.38011 6.81787 6.09011V2.44014C6.81787 2.14014 7.11787 1.90015 7.47787 1.90015Z" fill="#EFB469"/>
<path fill-rule="evenodd" clip-rule="evenodd" d="M7.71789 2.16016H23.3777C23.7277 2.16016 24.0077 2.39015 24.0077 2.68015V6.01012C24.0077 6.29012 23.7277 6.53012 23.3777 6.53012H7.71789C7.37789 6.53012 7.08789 6.30012 7.08789 6.01012V2.68015C7.08789 2.39015 7.36789 2.16016 7.71789 2.16016Z" fill="#F1C383"/>
<path fill-rule="evenodd" clip-rule="evenodd" d="M7.74792 2.46021C12.9479 2.46021 18.1478 2.46021 23.3478 2.46021C23.6978 2.46021 23.9778 2.6902 23.9778 2.9702C23.9778 3.98019 23.9778 4.99018 23.9778 6.01017C23.9778 6.29017 23.6878 6.52017 23.3478 6.52017C18.1478 6.52017 12.9479 6.52017 7.74792 6.52017C7.40793 6.52017 7.12793 6.29017 7.12793 6.01017C7.12793 4.99018 7.12793 3.98019 7.12793 2.9702C7.12793 2.6902 7.40793 2.46021 7.74792 2.46021Z" fill="#F1C585"/>
<path fill-rule="evenodd" clip-rule="evenodd" d="M7.77795 2.75024C12.9579 2.75024 18.1379 2.75024 23.3178 2.75024C23.6578 2.75024 23.9378 2.98024 23.9378 3.26024C23.9378 4.17023 23.9378 5.09022 23.9378 6.00022C23.9378 6.28021 23.6578 6.51021 23.3178 6.51021C18.1379 6.51021 12.9579 6.51021 7.77795 6.51021C7.43796 6.51021 7.15796 6.28021 7.15796 6.00022C7.15796 5.09022 7.15796 4.17023 7.15796 3.26024C7.15796 2.98024 7.43796 2.75024 7.77795 2.75024Z" fill="#F1C786"/>
<path fill-rule="evenodd" clip-rule="evenodd" d="M7.80799 3.05029C12.9679 3.05029 18.1279 3.05029 23.2879 3.05029C23.6279 3.05029 23.9078 3.28029 23.9078 3.55029C23.9078 4.37028 23.9078 5.18027 23.9078 6.00027C23.9078 6.27026 23.6279 6.50026 23.2879 6.50026C18.1279 6.50026 12.9679 6.50026 7.80799 6.50026C7.468 6.50026 7.198 6.27026 7.198 6.00027C7.198 5.18027 7.198 4.37028 7.198 3.55029C7.198 3.27029 7.468 3.05029 7.80799 3.05029Z" fill="#F2CA88"/>
<path fill-rule="evenodd" clip-rule="evenodd" d="M7.83802 3.3501C12.978 3.3501 18.1179 3.3501 23.2679 3.3501C23.5979 3.3501 23.8679 3.5701 23.8679 3.84009C23.8679 4.56009 23.8679 5.27008 23.8679 5.99007C23.8679 6.26007 23.5979 6.49007 23.2679 6.49007C18.1179 6.49007 12.978 6.49007 7.83802 6.49007C7.50802 6.49007 7.22803 6.26007 7.22803 5.99007C7.22803 5.27008 7.22803 4.56009 7.22803 3.84009C7.22803 3.5701 7.49802 3.3501 7.83802 3.3501Z" fill="#F2CC8A"/>
<path fill-rule="evenodd" clip-rule="evenodd" d="M7.86806 3.64014C12.988 3.64014 18.108 3.64014 23.2379 3.64014C23.5679 3.64014 23.8379 3.86013 23.8379 4.13013C23.8379 4.75013 23.8379 5.37012 23.8379 5.99012C23.8379 6.25011 23.5679 6.48011 23.2379 6.48011C18.108 6.48011 12.988 6.48011 7.86806 6.48011C7.53806 6.48011 7.26807 6.26011 7.26807 5.99012C7.26807 5.37012 7.26807 4.75013 7.26807 4.13013C7.26807 3.86013 7.53806 3.64014 7.86806 3.64014Z" fill="#F2CE8B"/>
<path fill-rule="evenodd" clip-rule="evenodd" d="M7.88785 3.94019C12.9978 3.94019 18.0978 3.94019 23.2077 3.94019C23.5277 3.94019 23.7977 4.16018 23.7977 4.42018C23.7977 4.94018 23.7977 5.46017 23.7977 5.98017C23.7977 6.25017 23.5277 6.46016 23.2077 6.46016C18.0978 6.46016 12.9978 6.46016 7.88785 6.46016C7.56785 6.46016 7.29785 6.25017 7.29785 5.98017C7.29785 5.46017 7.29785 4.94018 7.29785 4.42018C7.29785 4.16018 7.56785 3.94019 7.88785 3.94019Z" fill="#F2D08D"/>
<path fill-rule="evenodd" clip-rule="evenodd" d="M7.91789 4.24023C13.0078 4.24023 18.0878 4.24023 23.1778 4.24023C23.4977 4.24023 23.7577 4.45023 23.7577 4.71023C23.7577 5.13023 23.7577 5.56022 23.7577 5.98022C23.7577 6.24022 23.4977 6.45021 23.1778 6.45021C18.0878 6.45021 13.0078 6.45021 7.91789 6.45021C7.59789 6.45021 7.33789 6.24022 7.33789 5.98022C7.33789 5.56022 7.33789 5.13023 7.33789 4.71023C7.33789 4.45023 7.59789 4.24023 7.91789 4.24023Z" fill="#F2D28E"/>
<path fill-rule="evenodd" clip-rule="evenodd" d="M7.94791 4.53027C13.0179 4.53027 18.0878 4.53027 23.1478 4.53027C23.4678 4.53027 23.7278 4.74027 23.7278 5.00027C23.7278 5.33027 23.7278 5.65026 23.7278 5.97026C23.7278 6.23026 23.4678 6.44026 23.1478 6.44026C18.0878 6.44026 13.0179 6.44026 7.94791 6.44026C7.63792 6.44026 7.36792 6.23026 7.36792 5.97026C7.36792 5.65026 7.36792 5.33027 7.36792 5.00027C7.36792 4.74027 7.62792 4.53027 7.94791 4.53027Z" fill="#F2D490"/>
<path fill-rule="evenodd" clip-rule="evenodd" d="M7.97795 4.83008C13.0279 4.83008 18.0779 4.83008 23.1178 4.83008C23.4378 4.83008 23.6878 5.04008 23.6878 5.29007C23.6878 5.52007 23.6878 5.74007 23.6878 5.97007C23.6878 6.22007 23.4378 6.43006 23.1178 6.43006C18.0779 6.43006 13.0279 6.43006 7.97795 6.43006C7.66796 6.43006 7.40796 6.22007 7.40796 5.97007C7.40796 5.74007 7.40796 5.52007 7.40796 5.29007C7.40796 5.04008 7.66796 4.83008 7.97795 4.83008Z" fill="#F3D792"/>
<path fill-rule="evenodd" clip-rule="evenodd" d="M8.00799 5.13013C13.0379 5.13013 18.0679 5.13013 23.0879 5.13013C23.3979 5.13013 23.6579 5.33013 23.6579 5.58012C23.6579 5.71012 23.6579 5.84012 23.6579 5.96012C23.6579 6.22012 23.3979 6.42012 23.0879 6.42012C18.0679 6.42012 13.0379 6.42012 8.00799 6.42012C7.698 6.42012 7.448 6.22012 7.448 5.96012C7.448 5.84012 7.448 5.71012 7.448 5.58012C7.448 5.33013 7.698 5.13013 8.00799 5.13013Z" fill="#F3D993"/>
<path fill-rule="evenodd" clip-rule="evenodd" d="M8.03778 5.42017H23.0676C23.3676 5.42017 23.6176 5.63016 23.6176 5.87016V5.96016C23.6176 6.21016 23.3676 6.41016 23.0676 6.41016H8.03778C7.72778 6.41016 7.47778 6.21016 7.47778 5.96016V5.87016C7.47778 5.63016 7.72778 5.42017 8.03778 5.42017Z" fill="#F3DB95"/>
<path d="M5.51773 3.61008L5.04773 3.68008C5.31773 3.81008 5.53772 3.94008 5.69772 4.09007H5.70772C5.96772 4.32007 6.15772 4.59007 6.28772 4.89007C6.41772 5.19006 6.48772 5.51006 6.48772 5.86006C6.48772 6.06006 6.46772 6.26006 6.41772 6.45005C6.36772 6.65005 6.29772 6.83005 6.20772 7.01005C6.11772 7.17005 6.01772 7.32005 5.90772 7.46004C5.78772 7.60004 5.65772 7.73004 5.51773 7.84004C5.38773 7.95004 5.24773 8.05004 5.09773 8.13004C4.95773 8.21004 4.79773 8.28004 4.63773 8.33004C4.54773 8.36004 4.44773 8.39004 4.34774 8.41004V8.44004C4.34774 8.70003 4.23774 8.94003 4.06774 9.11003C3.89774 9.29003 3.65774 9.39003 3.38774 9.39003H3.09775C2.83775 9.39003 2.59775 9.29003 2.42775 9.11003C2.25775 8.94003 2.14776 8.70003 2.14776 8.44004V8.39004C1.98776 8.35004 1.83776 8.31004 1.69776 8.26004C1.52776 8.19004 1.36776 8.12004 1.22776 8.03004C1.08776 7.94004 0.947766 7.84004 0.817767 7.73004C0.697768 7.61004 0.587769 7.50004 0.49777 7.38005C0.407771 7.26005 0.317771 7.13005 0.257772 6.99005H0.247772C0.207772 6.92005 0.177773 6.84005 0.147773 6.76005V6.75005C0.107773 6.65005 0.0877734 6.60005 0.0677736 6.54005C-0.00222579 6.34005 -0.0322255 6.13006 0.0477738 5.91006C0.137773 5.64006 0.337771 5.44006 0.727768 5.37006L0.767767 5.36006L1.33776 5.29006C1.20776 5.22006 1.07776 5.12007 0.957766 5.02007C0.817767 4.89007 0.687768 4.74007 0.577769 4.57007C0.44777 4.39007 0.347771 4.18007 0.287772 3.96008C0.227772 3.75008 0.197772 3.52008 0.197772 3.28008C0.197772 2.95008 0.257772 2.64009 0.377771 2.35009C0.49777 2.06009 0.687768 1.80009 0.917766 1.5701C1.14776 1.3601 1.40776 1.1901 1.71776 1.0701C1.87776 1.0001 2.04776 0.950102 2.23775 0.920102C2.28775 0.810103 2.34775 0.720104 2.42775 0.640105C2.59775 0.470106 2.83775 0.360107 3.09775 0.360107H3.38774C3.65774 0.360107 3.89774 0.470106 4.06774 0.640105C4.14774 0.720104 4.20774 0.810103 4.25774 0.920102C4.40773 0.950102 4.54773 0.980102 4.66773 1.0301C4.94773 1.1201 5.19773 1.2501 5.39773 1.4101C5.57772 1.5501 5.72772 1.7001 5.84772 1.87009C5.97772 2.04009 6.07772 2.23009 6.15772 2.43009C6.18772 2.49009 6.20772 2.55009 6.21772 2.61009C6.25772 2.79009 6.23772 2.97008 6.16772 3.14008C6.07772 3.32008 5.93772 3.46008 5.72772 3.55008C5.67772 3.57008 5.61772 3.59008 5.54772 3.60008L5.51773 3.61008Z" fill="black" fill-opacity="0.101961"/>
<path d="M5.51773 3.24997L5.04773 3.32997C5.31773 3.44997 5.53772 3.58997 5.69772 3.72997L5.70772 3.73997C5.96772 3.96996 6.15772 4.23996 6.28772 4.52996V4.53996C6.41772 4.82996 6.48772 5.15995 6.48772 5.50995C6.48772 5.70995 6.46772 5.89995 6.41772 6.09995C6.36772 6.28994 6.29772 6.47994 6.20772 6.64994C6.11772 6.81994 6.01772 6.96994 5.90772 7.09994C5.78772 7.24994 5.65772 7.36993 5.51773 7.48993C5.38773 7.59993 5.24773 7.69993 5.09773 7.76993C4.95773 7.84993 4.79773 7.91993 4.63773 7.96993C4.54773 7.99993 4.44773 8.02993 4.34774 8.04993V8.08993C4.34774 8.34993 4.23774 8.58992 4.06774 8.75992C3.89774 8.92992 3.65774 9.03992 3.38774 9.03992H3.09775C2.83775 9.03992 2.59775 8.92992 2.42775 8.75992C2.25775 8.58992 2.14776 8.34993 2.14776 8.08993V8.02993C1.98776 7.99993 1.83776 7.94993 1.69776 7.89993C1.52776 7.83993 1.36776 7.75993 1.22776 7.67993C1.08776 7.58993 0.947766 7.48993 0.817767 7.36993C0.697768 7.25994 0.587769 7.13994 0.49777 7.02994C0.407771 6.89994 0.317771 6.76994 0.257772 6.63994H0.247772C0.207772 6.55994 0.177773 6.47994 0.147773 6.39994C0.107773 6.29994 0.0877734 6.23994 0.0677736 6.18995V6.17995C-0.00222579 5.98995 -0.0322255 5.77995 0.0477738 5.54995C0.137773 5.27995 0.337771 5.07995 0.727768 5.00996L0.767767 4.99996L1.33776 4.93996C1.20776 4.85996 1.07776 4.76996 0.957766 4.65996C0.817767 4.53996 0.687768 4.38996 0.577769 4.21996C0.44777 4.02996 0.347771 3.82997 0.287772 3.60997C0.227772 3.38997 0.197772 3.16997 0.197772 2.92997C0.197772 2.59998 0.257772 2.27998 0.377771 1.98998C0.49777 1.69998 0.687768 1.43999 0.917766 1.20999C1.14776 0.999991 1.40776 0.829993 1.71776 0.709994C1.87776 0.649994 2.04776 0.599995 2.23775 0.559995C2.28775 0.459996 2.34775 0.359997 2.42775 0.279998C2.59775 0.109999 2.83775 0 3.09775 0H3.38774C3.65774 0 3.89774 0.109999 4.06774 0.279998C4.14774 0.359997 4.20774 0.459996 4.25774 0.559995C4.40773 0.589995 4.54773 0.629994 4.66773 0.669994C4.94773 0.769993 5.19773 0.899992 5.39773 1.05999C5.57772 1.18999 5.72772 1.33999 5.84772 1.51999C5.97772 1.67999 6.07772 1.86998 6.15772 2.06998C6.18772 2.12998 6.20772 2.19998 6.21772 2.25998C6.25772 2.43998 6.23772 2.61998 6.16772 2.77998C6.07772 2.96997 5.93772 3.10997 5.72772 3.19997C5.67772 3.21997 5.61772 3.22997 5.54772 3.24997H5.51773Z" fill="#E6E6E6"/>
<path d="M5.04777 3.32997C5.90776 3.72997 6.43776 4.40996 6.48776 5.36995C6.44776 6.09995 6.08776 6.76994 5.51776 7.21994C5.16777 7.50993 4.78777 7.68993 4.34777 7.78993V7.81993C4.34777 8.07993 4.23777 8.31993 4.06778 8.48992C3.67778 8.87992 2.81779 8.87992 2.42779 8.48992C2.25779 8.31993 2.14779 8.07993 2.14779 7.81993V7.76993C1.8278 7.69993 1.5178 7.57993 1.2278 7.40993C0.657807 7.06994 0.107812 6.36994 0.0078125 5.68995C0.117812 4.99996 0.787806 4.99996 1.3378 4.93996C1.7578 4.90996 1.0578 4.48996 0.957804 4.39996C0.647807 4.11996 0.407809 3.74997 0.28781 3.33997C0.23781 3.16997 0.207811 2.98997 0.207811 2.79998C0.217811 2.50998 0.27781 2.23998 0.377809 1.98998C0.497808 1.69998 0.687806 1.43999 0.917804 1.20999C1.1478 0.999991 1.4078 0.829993 1.7178 0.709994C1.8778 0.649994 2.04779 0.599995 2.23779 0.559995C2.28779 0.459996 2.34779 0.359997 2.42779 0.279998C2.59779 0.109999 2.83779 0 3.09779 0H3.38778C3.65778 0 3.89778 0.109999 4.06778 0.279998C4.14778 0.359997 4.20778 0.459996 4.25777 0.559995C4.40777 0.589995 4.54777 0.629994 4.66777 0.669994C4.94777 0.769993 5.19777 0.899992 5.39776 1.05999C5.57776 1.18999 5.72776 1.33999 5.84776 1.51999C5.97776 1.67999 6.07776 1.86998 6.15776 2.06998C6.18776 2.12998 6.20776 2.19998 6.21776 2.25998L6.22776 2.30998C6.12776 2.93997 5.57776 2.97997 5.04777 3.05997C4.80777 3.09997 4.75777 3.15997 5.04777 3.32997Z" fill="white"/>
<path d="M5.4278 2.52997L4.31781 2.70997C4.07782 2.74997 4.02782 2.58997 3.99782 2.52997C3.95782 2.43997 3.91782 2.36997 3.87782 2.31997C3.84782 2.27997 3.79782 2.23997 3.73782 2.19998V3.37996C4.50781 3.59996 5.02781 3.81996 5.3078 4.05996C5.6878 4.40996 5.8778 4.84995 5.8778 5.37995C5.8778 5.68994 5.8178 5.97994 5.6778 6.23994C5.5378 6.49994 5.3578 6.71993 5.13781 6.89993C4.92781 7.06993 4.69781 7.19993 4.44781 7.27993C4.24781 7.33993 4.01782 7.37993 3.73782 7.39993V7.95992C3.73782 8.14992 3.58782 8.30992 3.38782 8.30992H3.09782C2.90783 8.30992 2.75783 8.14992 2.75783 7.95992V7.39993C2.41783 7.35993 2.13783 7.29993 1.90783 7.20993C1.64784 7.10993 1.41784 6.97993 1.22784 6.79993C1.03784 6.62994 0.897844 6.43994 0.787845 6.23994C0.737845 6.12994 0.687846 5.99994 0.637846 5.86994C0.577847 5.68994 0.577847 5.52995 0.837845 5.47995L1.90783 5.35995C2.19783 5.28995 2.34783 5.35995 2.34783 5.56995C2.34783 5.68994 2.41783 5.79994 2.49783 5.91994C2.55783 6.00994 2.64783 6.07994 2.75783 6.15994V4.68995C2.26783 4.54995 1.91783 4.41996 1.69784 4.31996C1.45784 4.19996 1.24784 4.00996 1.06784 3.74996C0.897844 3.48996 0.807845 3.17997 0.807845 2.80997C0.807845 2.29997 0.987843 1.86998 1.33784 1.52998C1.66784 1.20998 2.13783 1.02999 2.75783 0.969986V0.829987C2.75783 0.639989 2.90783 0.48999 3.09782 0.48999H3.38782C3.58782 0.48999 3.73782 0.639989 3.73782 0.829987V0.969986C4.29781 1.02999 4.72781 1.16998 5.03781 1.40998C5.28781 1.60998 5.4778 1.85998 5.5978 2.16998C5.6678 2.33997 5.6378 2.48997 5.4278 2.52997ZM3.73782 4.98995V6.24994C3.88782 6.18994 4.00782 6.11994 4.09782 6.02994C4.20781 5.89994 4.26781 5.75994 4.26781 5.60994C4.26781 5.46995 4.21781 5.34995 4.11782 5.22995C4.04782 5.14995 3.91782 5.05995 3.73782 4.98995ZM2.75783 3.08997V2.13998C2.66783 2.17998 2.59783 2.22997 2.54783 2.28997C2.47783 2.37997 2.43783 2.47997 2.43783 2.59997C2.43783 2.72997 2.47783 2.83997 2.54783 2.92997C2.59783 2.98997 2.66783 3.03997 2.75783 3.08997Z" fill="#DCB000"/>
<path d="M3.73769 2.19998V3.02997V3.37996C4.50768 3.59996 5.02768 3.81996 5.30767 4.05996C5.64767 4.36996 5.83767 4.74995 5.87767 5.20995C5.85767 5.44995 5.78767 5.67994 5.67767 5.88994C5.53767 6.14994 5.35767 6.36994 5.13768 6.54994C4.92768 6.71993 4.69768 6.84993 4.44768 6.92993C4.24768 6.98993 4.01769 7.02993 3.73769 7.04993V7.39993V7.60993C3.73769 7.79993 3.58769 7.95992 3.38769 7.95992H3.09769C2.90769 7.95992 2.7577 7.79993 2.7577 7.60993V7.39993V7.04993C2.4177 7.00993 2.1377 6.94993 1.9077 6.85993C1.64771 6.75993 1.41771 6.62994 1.22771 6.44994C1.03771 6.27994 0.897713 6.08994 0.787714 5.88994C0.737714 5.78994 0.697714 5.67994 0.657715 5.55995C0.687715 5.51995 0.747714 5.49995 0.837713 5.47995L1.9077 5.35995C2.1977 5.28995 2.3477 5.35995 2.3477 5.56995C2.3477 5.68994 2.4177 5.79994 2.4977 5.91994C2.5577 6.00994 2.6477 6.07994 2.7577 6.15994V5.80994V4.68995V4.33996C2.2677 4.19996 1.9177 4.06996 1.69771 3.96996C1.45771 3.84996 1.24771 3.65996 1.06771 3.39996C0.927712 3.18997 0.837713 2.92997 0.807714 2.62997C0.847713 2.19998 1.02771 1.82998 1.33771 1.52998C1.66771 1.20998 2.1377 1.02999 2.7577 0.969986V0.829987C2.7577 0.639989 2.90769 0.48999 3.09769 0.48999H3.38769C3.58769 0.48999 3.73769 0.639989 3.73769 0.829987V0.969986C4.29768 1.02999 4.72768 1.16998 5.03768 1.40998C5.27767 1.59998 5.44767 1.82998 5.57767 2.10998C5.54767 2.14998 5.49767 2.16998 5.42767 2.17998L4.31768 2.35997C4.07768 2.39997 4.02768 2.23997 3.99769 2.17998C3.95769 2.08998 3.91769 2.01998 3.87769 1.96998C3.84769 1.92998 3.79769 1.88998 3.73769 1.84998V2.19998ZM3.73769 4.63995V4.98995V5.89994V6.24994C3.88769 6.18994 4.00769 6.11994 4.09768 6.02994C4.20768 5.89994 4.26768 5.75994 4.26768 5.60994C4.26768 5.54995 4.25768 5.48995 4.23768 5.43995C4.25768 5.37995 4.26768 5.31995 4.26768 5.25995C4.26768 5.11995 4.21768 4.99995 4.11768 4.87995C4.04768 4.79995 3.91769 4.71995 3.73769 4.63995ZM2.7577 2.13998V1.78998C2.6677 1.82998 2.5977 1.87998 2.5477 1.93998C2.4777 2.02998 2.4377 2.12998 2.4377 2.24997C2.4377 2.31997 2.4477 2.36997 2.4677 2.42997C2.4477 2.47997 2.4377 2.53997 2.4377 2.59997C2.4377 2.72997 2.4777 2.83997 2.5477 2.92997C2.5977 2.98997 2.6677 3.03997 2.7577 3.08997V2.73997V2.13998Z" fill="#FEF500"/>
<path fill-rule="evenodd" clip-rule="evenodd" d="M3.73769 2.13992V2.96991V3.31991C4.50768 3.5399 5.02768 3.7699 5.30767 4.0099C5.64767 4.3199 5.83767 4.69989 5.87767 5.14989C5.85767 5.39989 5.78767 5.61989 5.67767 5.83988C5.53767 6.09988 5.35767 6.30988 5.13768 6.48988C4.92768 6.65988 4.69768 6.78988 4.44768 6.86987C4.24768 6.93987 4.01769 6.97987 3.73769 6.99987V7.34987V7.55987C3.73769 7.74987 3.58769 7.89987 3.38769 7.89987H3.09769C2.90769 7.89987 2.7577 7.74987 2.7577 7.55987V7.33987V6.98987C2.4177 6.94987 2.1377 6.88987 1.9077 6.80988C1.64771 6.70988 1.41771 6.56988 1.22771 6.39988C1.03771 6.21988 0.897713 6.03988 0.787714 5.83988C0.737714 5.73988 0.697714 5.61989 0.657715 5.49989C0.687715 5.46989 0.747714 5.43989 0.837713 5.41989L1.9077 5.29989C2.1977 5.23989 2.3477 5.29989 2.3477 5.50989C2.3477 5.62989 2.4177 5.73988 2.4977 5.86988C2.5577 5.94988 2.6477 6.02988 2.7577 6.09988V5.74988V4.62989V4.2799C2.2677 4.1399 1.9177 4.0199 1.69771 3.9099C1.45771 3.7999 1.24771 3.6099 1.06771 3.34991C0.927712 3.12991 0.837713 2.86991 0.807714 2.57991C0.847713 2.13992 1.02771 1.76992 1.33771 1.46992C1.66771 1.15993 2.1377 0.969927 2.7577 0.909927V0.779929C2.7577 0.58993 2.90769 0.429932 3.09769 0.429932H3.38769C3.58769 0.429932 3.73769 0.58993 3.73769 0.779929V0.909927C4.29768 0.969927 4.72768 1.11993 5.03768 1.34992C5.27767 1.53992 5.44767 1.77992 5.57767 2.05992C5.54767 2.08992 5.49767 2.10992 5.42767 2.12992L4.31768 2.29992C4.07768 2.33991 4.02768 2.17992 3.99769 2.11992C3.95769 2.02992 3.91769 1.95992 3.87769 1.91992C3.84769 1.87992 3.79769 1.82992 3.73769 1.78992V2.13992ZM3.73769 4.57989V4.92989V5.83988V6.18988C3.88769 6.13988 4.00769 6.05988 4.09768 5.96988C4.20768 5.84988 4.26768 5.70988 4.26768 5.54989C4.26768 5.48989 4.25768 5.43989 4.23768 5.37989C4.25768 5.31989 4.26768 5.25989 4.26768 5.19989C4.26768 5.06989 4.21768 4.93989 4.11768 4.82989C4.04768 4.73989 3.91769 4.65989 3.73769 4.57989ZM2.7577 2.07992V1.72992C2.6677 1.77992 2.5977 1.82992 2.5477 1.87992C2.4777 1.96992 2.4377 2.07992 2.4377 2.19992C2.4377 2.25992 2.4477 2.31991 2.4677 2.36991C2.4477 2.42991 2.4377 2.47991 2.4377 2.54991C2.4377 2.66991 2.4777 2.77991 2.5477 2.86991C2.5977 2.92991 2.6677 2.97991 2.7577 3.02991V2.67991V2.07992Z" fill="url(#paint0_linear_78_118934)"/>
<path d="M5.86773 5.06006C5.86773 5.09006 5.86773 5.12006 5.87773 5.15006C5.85773 5.40006 5.78773 5.62005 5.67773 5.84005C5.53773 6.10005 5.35773 6.31005 5.13773 6.49005C4.92774 6.66004 4.69774 6.79004 4.44774 6.87004C4.24774 6.94004 4.01774 6.98004 3.73775 7.00004V7.35004V7.56004C3.73775 7.75003 3.58775 7.90003 3.38775 7.90003H3.09775C2.90775 7.90003 2.75776 7.75003 2.75776 7.56004V7.34004V6.99004C2.41776 6.95004 2.13776 6.89004 1.90776 6.81004C1.64777 6.71004 1.41777 6.57005 1.22777 6.40005C1.03777 6.22005 0.897772 6.04005 0.787773 5.84005C0.767773 5.79005 0.737773 5.73005 0.717773 5.68005C1.22777 5.71005 1.78776 5.71005 2.38776 5.67005C2.41776 5.74005 2.45776 5.80005 2.49776 5.87005C2.55776 5.95005 2.64776 6.03005 2.75776 6.10005V5.75005V5.65005C2.95775 5.63005 3.15775 5.61005 3.35775 5.58005C3.48775 5.57005 3.61775 5.55005 3.73775 5.53005V5.84005V6.19005C3.88775 6.14005 4.00774 6.06005 4.09774 5.97005C4.20774 5.85005 4.26774 5.71005 4.26774 5.55005C4.26774 5.52005 4.25774 5.48005 4.25774 5.44006C4.82774 5.34006 5.36773 5.21006 5.86773 5.06006Z" fill="#F7C600"/>
<path d="M3.73784 2.13992V2.31991C3.61784 2.32991 3.48784 2.33991 3.35784 2.35991C3.15784 2.37991 2.95784 2.40991 2.75784 2.44991V2.07992V1.72992C2.66784 1.77992 2.59785 1.82992 2.54785 1.87992C2.47785 1.96992 2.43785 2.07992 2.43785 2.19992C2.43785 2.25992 2.44785 2.31991 2.46785 2.36991C2.45785 2.40991 2.44785 2.45991 2.44785 2.49991C1.87785 2.59991 1.34786 2.72991 0.857861 2.87991C0.837861 2.77991 0.817861 2.67991 0.807861 2.57991C0.847861 2.13992 1.02786 1.76992 1.33786 1.46992C1.66785 1.15993 2.13785 0.969927 2.75784 0.909927V0.779929C2.75784 0.58993 2.90784 0.429932 3.09784 0.429932H3.38784C3.58784 0.429932 3.73784 0.58993 3.73784 0.779929V0.909927C4.29783 0.969927 4.72783 1.11993 5.03782 1.34992C5.27782 1.53992 5.44782 1.77992 5.57782 2.05992C5.54782 2.08992 5.49782 2.10992 5.42782 2.12992L4.64783 2.24992C4.47783 2.25992 4.29783 2.26992 4.12783 2.27992C4.04783 2.23992 4.01783 2.15992 3.99783 2.11992C3.95783 2.02992 3.91783 1.95992 3.87783 1.91992C3.84783 1.87992 3.79783 1.82992 3.73784 1.78992V2.13992Z" fill="#FFF71F"/>
<defs>
<linearGradient id="paint0_linear_78_118934" x1="3.2678" y1="7.07807" x2="3.2678" y2="1.25153" gradientUnits="userSpaceOnUse">
<stop stop-color="#FFCC00"/>
<stop offset="1" stop-color="#FFF71F"/>
</linearGradient>
</defs>
</svg>
