<svg width="28" height="10" viewBox="0 0 28 10" preserveAspectRatio="none" fill="none" xmlns="http://www.w3.org/2000/svg">
<path fill-rule="evenodd" clip-rule="evenodd" d="M3.35314 1.26025H26.2029C26.6829 1.26025 27.0829 1.71025 27.0829 2.26025V8.21019C27.0829 8.76019 26.6829 9.22018 26.2029 9.22018H3.35314C2.87314 9.22018 2.47314 8.76019 2.47314 8.21019V2.26025C2.47314 1.71025 2.87314 1.26025 3.35314 1.26025Z" fill="black" fill-opacity="0.101961"/>
<path fill-rule="evenodd" clip-rule="evenodd" d="M3.11315 0.940186H25.9629C26.4429 0.940186 26.8429 1.39018 26.8429 1.94018V7.89012C26.8429 8.45012 26.4429 8.90011 25.9629 8.90011H3.11315C2.63315 8.90011 2.23315 8.45012 2.23315 7.89012V1.94018C2.23315 1.39018 2.62315 0.940186 3.11315 0.940186Z" fill="#E6E6E6"/>
<path fill-rule="evenodd" clip-rule="evenodd" d="M3.11315 0.730225H25.9629C26.4429 0.730225 26.8429 1.18022 26.8429 1.73022V7.68016C26.8429 8.24016 26.4429 8.69015 25.9629 8.69015H3.11315C2.63315 8.69015 2.23315 8.24016 2.23315 7.68016V1.73022C2.23315 1.18022 2.62315 0.730225 3.11315 0.730225Z" fill="white"/>
<path fill-rule="evenodd" clip-rule="evenodd" d="M3.65324 1.40015H25.5331C25.983 1.40015 26.353 1.83014 26.353 2.35014V7.1501C26.353 7.67009 25.983 8.10009 25.5331 8.10009H3.65324C3.20325 8.10009 2.83325 7.67009 2.83325 7.1501V2.35014C2.83325 1.83014 3.20325 1.40015 3.65324 1.40015Z" fill="#E6E6E6"/>
<path fill-rule="evenodd" clip-rule="evenodd" d="M3.47307 1.28027H25.3729C25.8229 1.28027 26.1829 1.70027 26.1829 2.22027V6.89022C26.1829 7.41022 25.8229 7.83022 25.3729 7.83022H3.47307C3.02307 7.83022 2.65308 7.41022 2.65308 6.89022V2.22027C2.65308 1.70027 3.01307 1.28027 3.47307 1.28027Z" fill="#F1C383"/>
<path fill-rule="evenodd" clip-rule="evenodd" d="M3.45307 1.03027H25.1929C25.6429 1.03027 26.0029 1.45027 26.0029 1.96027V6.35023C26.0029 6.86022 25.6429 7.27022 25.1929 7.27022H3.45307C3.01307 7.27022 2.65308 6.86022 2.65308 6.35023V1.96027C2.65308 1.45027 3.01307 1.03027 3.45307 1.03027Z" fill="#FAEECC"/>
<path fill-rule="evenodd" clip-rule="evenodd" d="M3.58321 1.16016C10.7431 1.16016 17.9031 1.16016 25.063 1.16016C25.503 1.16016 25.863 1.57015 25.863 2.07015C25.863 3.46014 25.863 4.85012 25.863 6.23011C25.863 6.74011 25.503 7.1501 25.063 7.1501C17.9031 7.1501 10.7431 7.1501 3.58321 7.1501C3.15321 7.1501 2.79321 6.74011 2.79321 6.23011C2.79321 4.85012 2.79321 3.46014 2.79321 2.07015C2.79321 1.57015 3.14321 1.16016 3.58321 1.16016Z" fill="#FAEDC9"/>
<path fill-rule="evenodd" clip-rule="evenodd" d="M3.7131 1.28027C10.793 1.28027 17.863 1.28027 24.9329 1.28027C25.3729 1.28027 25.7229 1.69027 25.7229 2.18027C25.7229 3.50025 25.7229 4.81024 25.7229 6.12023C25.7229 6.62023 25.3729 7.03022 24.9329 7.03022C17.863 7.03022 10.793 7.03022 3.7131 7.03022C3.2831 7.03022 2.93311 6.62023 2.93311 6.12023C2.93311 4.81024 2.93311 3.50025 2.93311 2.18027C2.93311 1.69027 3.2831 1.28027 3.7131 1.28027Z" fill="#F9ECC6"/>
<path fill-rule="evenodd" clip-rule="evenodd" d="M3.84324 1.40015C10.8332 1.40015 17.8231 1.40015 24.803 1.40015C25.233 1.40015 25.583 1.80014 25.583 2.30014C25.583 3.53013 25.583 4.77012 25.583 6.01011C25.583 6.5001 25.233 6.9001 24.803 6.9001C17.8231 6.9001 10.8332 6.9001 3.84324 6.9001C3.42324 6.9001 3.07324 6.5001 3.07324 6.01011C3.07324 4.77012 3.07324 3.53013 3.07324 2.30014C3.07324 1.80014 3.42324 1.40015 3.84324 1.40015Z" fill="#F9EBC2"/>
<path fill-rule="evenodd" clip-rule="evenodd" d="M3.97313 1.53027C10.8731 1.53027 17.773 1.53027 24.6729 1.53027C25.0929 1.53027 25.4429 1.92027 25.4429 2.41027C25.4429 3.57026 25.4429 4.73025 25.4429 5.90023C25.4429 6.38023 25.0929 6.78023 24.6729 6.78023C17.773 6.78023 10.8731 6.78023 3.97313 6.78023C3.55313 6.78023 3.21313 6.38023 3.21313 5.90023C3.21313 4.73025 3.21313 3.57026 3.21313 2.41027C3.21313 1.92027 3.55313 1.53027 3.97313 1.53027Z" fill="#F8EABF"/>
<path fill-rule="evenodd" clip-rule="evenodd" d="M4.10326 1.65015C10.9232 1.65015 17.7331 1.65015 24.5431 1.65015C24.9631 1.65015 25.3031 2.04014 25.3031 2.52014C25.3031 3.61013 25.3031 4.70012 25.3031 5.79011C25.3031 6.26011 24.9631 6.6601 24.5431 6.6601C17.7331 6.6601 10.9232 6.6601 4.10326 6.6601C3.69327 6.6601 3.35327 6.27011 3.35327 5.79011C3.35327 4.70012 3.35327 3.61013 3.35327 2.52014C3.35327 2.04014 3.69327 1.65015 4.10326 1.65015Z" fill="#F8E9BC"/>
<path fill-rule="evenodd" clip-rule="evenodd" d="M4.23316 1.77026C10.9631 1.77026 17.693 1.77026 24.413 1.77026C24.823 1.77026 25.163 2.16026 25.163 2.63026C25.163 3.65025 25.163 4.66024 25.163 5.67023C25.163 6.15022 24.823 6.53022 24.413 6.53022C17.693 6.53022 10.9631 6.53022 4.23316 6.53022C3.82316 6.53022 3.49316 6.15022 3.49316 5.67023C3.49316 4.66024 3.49316 3.65025 3.49316 2.63026C3.49316 2.16026 3.82316 1.77026 4.23316 1.77026Z" fill="#F7E8B9"/>
<path fill-rule="evenodd" clip-rule="evenodd" d="M4.37329 1.90015C11.0032 1.90015 17.6432 1.90015 24.2831 1.90015C24.6931 1.90015 25.0231 2.28014 25.0231 2.74014C25.0231 3.68013 25.0231 4.62012 25.0231 5.56011C25.0231 6.03011 24.6931 6.41011 24.2831 6.41011C17.6432 6.41011 11.0032 6.41011 4.37329 6.41011C3.9633 6.41011 3.6333 6.03011 3.6333 5.56011C3.6333 4.62012 3.6333 3.68013 3.6333 2.74014C3.6333 2.28014 3.9633 1.90015 4.37329 1.90015Z" fill="#F7E7B6"/>
<path fill-rule="evenodd" clip-rule="evenodd" d="M4.50319 2.02026C11.0531 2.02026 17.6031 2.02026 24.153 2.02026C24.553 2.02026 24.883 2.40026 24.883 2.86026C24.883 3.72025 24.883 4.59024 24.883 5.45023C24.883 5.91023 24.553 6.29023 24.153 6.29023C17.6031 6.29023 11.0531 6.29023 4.50319 6.29023C4.10319 6.29023 3.77319 5.91023 3.77319 5.45023C3.77319 4.59024 3.77319 3.72025 3.77319 2.86026C3.77319 2.40026 4.09319 2.02026 4.50319 2.02026Z" fill="#F6E6B3"/>
<path fill-rule="evenodd" clip-rule="evenodd" d="M4.63308 2.14014C11.093 2.14014 17.563 2.14014 24.0229 2.14014C24.4229 2.14014 24.7429 2.52013 24.7429 2.97013C24.7429 3.76012 24.7429 4.55012 24.7429 5.34011C24.7429 5.7901 24.4229 6.1601 24.0229 6.1601C17.563 6.1601 11.093 6.1601 4.63308 6.1601C4.23308 6.1601 3.91309 5.7901 3.91309 5.34011C3.91309 4.55012 3.91309 3.76012 3.91309 2.97013C3.91309 2.51013 4.23308 2.14014 4.63308 2.14014Z" fill="#F6E5AF"/>
<path fill-rule="evenodd" clip-rule="evenodd" d="M4.76322 2.27002C11.1332 2.27002 17.5131 2.27002 23.893 2.27002C24.283 2.27002 24.603 2.63002 24.603 3.08001C24.603 3.80001 24.603 4.51 24.603 5.21999C24.603 5.66999 24.283 6.03999 23.893 6.03999C17.5131 6.03999 11.1332 6.03999 4.76322 6.03999C4.37322 6.03999 4.05322 5.66999 4.05322 5.21999C4.05322 4.51 4.05322 3.80001 4.05322 3.08001C4.05322 2.63002 4.37322 2.27002 4.76322 2.27002Z" fill="#F5E4AC"/>
<path fill-rule="evenodd" clip-rule="evenodd" d="M4.89311 2.39014H23.7629C24.1429 2.39014 24.4629 2.75013 24.4629 3.19013V5.11011C24.4629 5.55011 24.1429 5.92011 23.7629 5.92011H4.89311C4.50311 5.92011 4.19312 5.55011 4.19312 5.11011V3.19013C4.19312 2.75013 4.50311 2.39014 4.89311 2.39014Z" fill="#F5E3A9"/>
<path fill-rule="evenodd" clip-rule="evenodd" d="M25.4129 6.06006C25.6529 6.06006 25.8529 6.29006 25.8529 6.57005C25.8529 6.86005 25.6529 7.08005 25.4129 7.08005C25.1629 7.08005 24.9629 6.86005 24.9629 6.57005C24.9629 6.29006 25.1629 6.06006 25.4129 6.06006Z" fill="white"/>
<path fill-rule="evenodd" clip-rule="evenodd" d="M24.7329 6.59009C24.8629 6.59009 24.9629 6.71009 24.9629 6.86009C24.9629 7.01008 24.8629 7.14008 24.7329 7.14008C24.5929 7.14008 24.4929 7.01008 24.4929 6.86009C24.4929 6.71009 24.5929 6.59009 24.7329 6.59009Z" fill="white"/>
<path fill-rule="evenodd" clip-rule="evenodd" d="M3.51325 1.27026C3.89324 1.27026 4.20324 1.62026 4.20324 2.06026C4.20324 2.49025 3.89324 2.84025 3.51325 2.84025C3.14325 2.84025 2.83325 2.49025 2.83325 2.06026C2.83325 1.62026 3.14325 1.27026 3.51325 1.27026Z" fill="white"/>
<path fill-rule="evenodd" clip-rule="evenodd" d="M4.57311 1.17017C4.78311 1.17017 4.95311 1.37016 4.95311 1.61016C4.95311 1.85016 4.78311 2.04016 4.57311 2.04016C4.36311 2.04016 4.19312 1.85016 4.19312 1.61016C4.19312 1.37016 4.36311 1.17017 4.57311 1.17017Z" fill="white"/>
<path fill-rule="evenodd" clip-rule="evenodd" d="M8.36312 1.82007H24.513C24.873 1.82007 25.163 2.06007 25.163 2.35006V6.00003C25.163 6.29003 24.873 6.53003 24.513 6.53003H8.36312C8.00312 6.53003 7.70312 6.29003 7.70312 6.00003V2.35006C7.70312 2.06007 8.00312 1.82007 8.36312 1.82007Z" fill="#EFB469"/>
<path fill-rule="evenodd" clip-rule="evenodd" d="M8.60314 2.07007H24.263C24.613 2.07007 24.893 2.31007 24.893 2.59006V5.92003C24.893 6.21003 24.613 6.44003 24.263 6.44003H8.60314C8.26314 6.44003 7.97314 6.21003 7.97314 5.92003V2.59006C7.97314 2.31007 8.25314 2.07007 8.60314 2.07007Z" fill="#F1C383"/>
<path fill-rule="evenodd" clip-rule="evenodd" d="M8.63318 2.37012C13.8331 2.37012 19.0331 2.37012 24.233 2.37012C24.583 2.37012 24.863 2.60012 24.863 2.88011C24.863 3.8901 24.863 4.91009 24.863 5.92009C24.863 6.20008 24.573 6.43008 24.233 6.43008C19.0331 6.43008 13.8331 6.43008 8.63318 6.43008C8.29318 6.43008 8.01318 6.20008 8.01318 5.92009C8.01318 4.91009 8.01318 3.8901 8.01318 2.88011C8.01318 2.60012 8.29318 2.37012 8.63318 2.37012Z" fill="#F1C585"/>
<path fill-rule="evenodd" clip-rule="evenodd" d="M8.66321 2.67017C13.8432 2.67017 19.0231 2.67017 24.2031 2.67017C24.5431 2.67017 24.8231 2.89016 24.8231 3.17016C24.8231 4.09015 24.8231 5.00015 24.8231 5.91014C24.8231 6.19013 24.5431 6.42013 24.2031 6.42013C19.0231 6.42013 13.8432 6.42013 8.66321 6.42013C8.32321 6.42013 8.04321 6.19013 8.04321 5.91014C8.04321 5.00015 8.04321 4.09015 8.04321 3.17016C8.04321 2.89016 8.32321 2.67017 8.66321 2.67017Z" fill="#F1C786"/>
<path fill-rule="evenodd" clip-rule="evenodd" d="M8.69325 2.96021C13.8532 2.96021 19.0132 2.96021 24.1731 2.96021C24.5131 2.96021 24.7931 3.1902 24.7931 3.4602C24.7931 4.28019 24.7931 5.09019 24.7931 5.91018C24.7931 6.18018 24.5131 6.41017 24.1731 6.41017C19.0132 6.41017 13.8532 6.41017 8.69325 6.41017C8.35325 6.41017 8.08325 6.18018 8.08325 5.91018C8.08325 5.09019 8.08325 4.28019 8.08325 3.4602C8.08325 3.1902 8.35325 2.96021 8.69325 2.96021Z" fill="#F2CA88"/>
<path fill-rule="evenodd" clip-rule="evenodd" d="M8.72328 3.26001C13.8632 3.26001 19.0032 3.26001 24.1531 3.26001C24.4831 3.26001 24.7531 3.48001 24.7531 3.75001C24.7531 4.47 24.7531 5.18999 24.7531 5.89999C24.7531 6.17998 24.4831 6.39998 24.1531 6.39998C19.0032 6.39998 13.8632 6.39998 8.72328 6.39998C8.39328 6.39998 8.11328 6.17998 8.11328 5.89999C8.11328 5.18999 8.11328 4.47 8.11328 3.75001C8.11328 3.48001 8.38328 3.26001 8.72328 3.26001Z" fill="#F2CC8A"/>
<path fill-rule="evenodd" clip-rule="evenodd" d="M8.75331 3.56006C13.8733 3.56006 18.9932 3.56006 24.1232 3.56006C24.4532 3.56006 24.7232 3.78006 24.7232 4.04005C24.7232 4.66005 24.7232 5.28004 24.7232 5.90004C24.7232 6.17004 24.4532 6.39003 24.1232 6.39003C18.9932 6.39003 13.8733 6.39003 8.75331 6.39003C8.42332 6.39003 8.15332 6.17004 8.15332 5.90004C8.15332 5.28004 8.15332 4.66005 8.15332 4.04005C8.15332 3.77006 8.42332 3.56006 8.75331 3.56006Z" fill="#F2CE8B"/>
<path fill-rule="evenodd" clip-rule="evenodd" d="M8.7731 3.8501C13.8831 3.8501 18.983 3.8501 24.093 3.8501C24.413 3.8501 24.683 4.0701 24.683 4.33009C24.683 4.85009 24.683 5.37008 24.683 5.90008C24.683 6.16008 24.413 6.38008 24.093 6.38008C18.983 6.38008 13.8831 6.38008 8.7731 6.38008C8.4531 6.38008 8.18311 6.16008 8.18311 5.90008C8.18311 5.37008 8.18311 4.85009 8.18311 4.33009C8.18311 4.0701 8.4531 3.8501 8.7731 3.8501Z" fill="#F2D08D"/>
<path fill-rule="evenodd" clip-rule="evenodd" d="M8.80314 4.15015C13.8931 4.15015 18.973 4.15015 24.063 4.15015C24.383 4.15015 24.643 4.36014 24.643 4.62014C24.643 5.05014 24.643 5.47013 24.643 5.89013C24.643 6.15013 24.383 6.37013 24.063 6.37013C18.973 6.37013 13.8931 6.37013 8.80314 6.37013C8.48314 6.37013 8.22314 6.15013 8.22314 5.89013C8.22314 5.47013 8.22314 5.05014 8.22314 4.62014C8.22314 4.36014 8.48314 4.15015 8.80314 4.15015Z" fill="#F2D28E"/>
<path fill-rule="evenodd" clip-rule="evenodd" d="M8.83317 4.44019C13.9031 4.44019 18.9731 4.44019 24.033 4.44019C24.353 4.44019 24.613 4.66018 24.613 4.91018C24.613 5.24018 24.613 5.56018 24.613 5.89017C24.613 6.14017 24.353 6.36017 24.033 6.36017C18.9731 6.36017 13.9031 6.36017 8.83317 6.36017C8.52317 6.36017 8.25317 6.14017 8.25317 5.89017C8.25317 5.56018 8.25317 5.24018 8.25317 4.91018C8.25317 4.66018 8.51317 4.44019 8.83317 4.44019Z" fill="#F2D490"/>
<path fill-rule="evenodd" clip-rule="evenodd" d="M8.86321 4.74023C13.9132 4.74023 18.9631 4.74023 24.0031 4.74023C24.3231 4.74023 24.5731 4.95023 24.5731 5.21023C24.5731 5.43023 24.5731 5.66023 24.5731 5.88022C24.5731 6.14022 24.3231 6.35022 24.0031 6.35022C18.9631 6.35022 13.9132 6.35022 8.86321 6.35022C8.55321 6.35022 8.29321 6.14022 8.29321 5.88022C8.29321 5.66023 8.29321 5.43023 8.29321 5.21023C8.29321 4.95023 8.55321 4.74023 8.86321 4.74023Z" fill="#F3D792"/>
<path fill-rule="evenodd" clip-rule="evenodd" d="M8.89325 5.04004C13.9232 5.04004 18.9532 5.04004 23.9731 5.04004C24.2831 5.04004 24.5431 5.24004 24.5431 5.50003C24.5431 5.62003 24.5431 5.75003 24.5431 5.88003C24.5431 6.13003 24.2831 6.33003 23.9731 6.33003C18.9532 6.33003 13.9232 6.33003 8.89325 6.33003C8.58325 6.33003 8.33325 6.13003 8.33325 5.88003C8.33325 5.75003 8.33325 5.62003 8.33325 5.50003C8.33325 5.24004 8.58325 5.04004 8.89325 5.04004Z" fill="#F3D993"/>
<path fill-rule="evenodd" clip-rule="evenodd" d="M8.92303 5.33008H23.9529C24.2529 5.33008 24.5029 5.54008 24.5029 5.79007V5.87007C24.5029 6.12007 24.2529 6.32007 23.9529 6.32007H8.92303C8.61303 6.32007 8.36304 6.12007 8.36304 5.87007V5.79007C8.36304 5.54008 8.61303 5.33008 8.92303 5.33008Z" fill="#F3DB95"/>
<path d="M4.6031 7.88L2.87311 8.77999C2.66311 8.88999 2.44312 8.91999 2.24312 8.88999C2.09312 8.85999 1.95312 8.80999 1.83312 8.71999C1.71312 8.63999 1.61312 8.51999 1.54312 8.38999C1.44312 8.2 1.39312 7.97 1.43312 7.72V7.71L1.75312 5.80002L0.313134 4.39003C0.153136 4.23003 0.0531366 4.05003 0.013137 3.85003C-0.00686285 3.71004 -0.00686285 3.57004 0.0331368 3.44004V3.43004C0.0731364 3.29004 0.143136 3.16004 0.253135 3.05004C0.393134 2.91004 0.583132 2.80004 0.83313 2.75004H0.853129L2.83311 2.45005L2.87311 2.35005C3.18311 1.56006 3.7031 0.250067 4.6031 0.260067C5.48309 0.270067 6.00308 1.54006 6.32308 2.34005L6.37308 2.45005L8.35306 2.75004H8.37306C8.62306 2.80004 8.81306 2.91004 8.95306 3.05004C9.05306 3.16004 9.13306 3.29004 9.17306 3.44004C9.21306 3.57004 9.21306 3.71004 9.18306 3.85003C9.15306 4.05003 9.04306 4.23003 8.89306 4.39003L7.45307 5.80002L7.76307 7.71V7.72C7.80307 7.97 7.76307 8.2 7.66307 8.38999C7.58307 8.51999 7.48307 8.63999 7.37307 8.71999C7.25307 8.80999 7.11307 8.85999 6.95308 8.88999C6.75308 8.91999 6.53308 8.88999 6.33308 8.77999L4.6031 7.88Z" fill="black" fill-opacity="0.101961"/>
<path d="M4.6031 7.61999L2.87311 8.51998C2.66311 8.61998 2.44312 8.65998 2.24312 8.61998C2.09312 8.59998 1.95312 8.53998 1.83312 8.45998C1.71312 8.36998 1.61312 8.25998 1.54312 8.11999C1.44312 7.92999 1.39312 7.69999 1.43312 7.45999V7.44999L1.75312 5.54001L0.313134 4.12002C0.153136 3.97002 0.0531366 3.78002 0.013137 3.59003C-0.00686285 3.45003 -0.00686285 3.31003 0.0331368 3.17003C0.0731364 3.03003 0.143136 2.90003 0.253135 2.79003C0.393134 2.65003 0.583132 2.54003 0.83313 2.49004H0.853129L2.83311 2.19004L2.87311 2.09004C3.18311 1.29005 3.7031 -0.00994256 4.6031 5.73524e-05C5.48309 0.0100573 6.00308 1.28005 6.32308 2.07004L6.37308 2.19004L8.35306 2.49004H8.37306C8.62306 2.54003 8.81306 2.65003 8.95306 2.79003C9.05306 2.90003 9.13306 3.03003 9.17306 3.17003C9.21306 3.31003 9.21306 3.45003 9.18306 3.59003C9.15306 3.78002 9.04306 3.97002 8.89306 4.12002L7.45307 5.54001L7.76307 7.44999V7.45999C7.80307 7.69999 7.76307 7.92999 7.66307 8.11999C7.58307 8.25998 7.48307 8.36998 7.37307 8.45998C7.25307 8.53998 7.11307 8.59998 6.95308 8.61998C6.75308 8.65998 6.53308 8.61998 6.33308 8.51998L4.6031 7.61999Z" fill="white"/>
<path fill-rule="evenodd" clip-rule="evenodd" d="M4.60303 6.99004L2.61304 8.03003C2.28305 8.21002 1.91305 7.95003 1.98305 7.54003L2.34305 5.35005L0.693061 3.73006C0.453063 3.49007 0.493063 3.12007 0.933059 3.03007L3.21304 2.69007C3.42304 2.26008 3.94303 0.540092 4.59303 0.550092C5.24302 0.560092 5.75302 2.22008 5.99301 2.69007L8.26299 3.03007C8.70299 3.12007 8.74299 3.49007 8.50299 3.73006L6.86301 5.35005L7.223 7.54003C7.283 7.95003 6.92301 8.21002 6.58301 8.03003L4.60303 6.99004Z" fill="#FFE411"/>
<path fill-rule="evenodd" clip-rule="evenodd" d="M4.6032 6.56006L2.61321 7.60005C2.36322 7.73005 2.09322 7.62005 2.00322 7.38005L1.98322 7.54005C1.91322 7.95005 2.28322 8.21004 2.61321 8.03005L4.6032 6.99005L6.58318 8.03005C6.92318 8.21004 7.28317 7.95005 7.22317 7.54005L7.19317 7.38005C7.10317 7.62005 6.83318 7.73005 6.58318 7.60005L4.6032 6.56006Z" fill="#DCB000"/>
<path fill-rule="evenodd" clip-rule="evenodd" d="M6.79297 4.96994L6.86297 5.34993L8.50295 3.72995C8.66295 3.56995 8.70295 3.35995 8.58295 3.19995C8.56295 3.23995 8.53295 3.26995 8.51295 3.28995L6.79297 4.96994Z" fill="#DCB000"/>
<path fill-rule="evenodd" clip-rule="evenodd" d="M2.40312 4.96994L0.693138 3.28995C0.663138 3.26995 0.643138 3.23995 0.623138 3.19995C0.503139 3.35995 0.533139 3.56995 0.693138 3.72995L2.34312 5.34993L2.40312 4.96994Z" fill="#DCB000"/>
<path fill-rule="evenodd" clip-rule="evenodd" d="M2.87303 8.27011C2.66303 8.38011 2.44303 8.41011 2.24303 8.38011C2.09303 8.35011 1.95303 8.29011 1.83303 8.21011C1.71304 8.13011 1.61304 8.01011 1.54304 7.87011C1.48304 7.76011 1.44304 7.64011 1.43304 7.51012C1.40304 7.74011 1.45304 7.95011 1.54304 8.12011C1.61304 8.26011 1.71304 8.37011 1.83303 8.46011C1.95303 8.54011 2.09303 8.60011 2.24303 8.62011C2.44303 8.66011 2.66303 8.62011 2.87303 8.52011L4.60301 7.62011L6.33299 8.52011C6.53299 8.62011 6.75299 8.66011 6.95299 8.62011C7.11299 8.60011 7.25299 8.54011 7.37299 8.46011C7.48298 8.37011 7.58298 8.26011 7.66298 8.12011C7.75298 7.95011 7.80298 7.74011 7.77298 7.51012C7.76298 7.64011 7.72298 7.76011 7.66298 7.87011C7.58298 8.01011 7.48298 8.13011 7.37299 8.21011C7.25299 8.30011 7.11299 8.35011 6.95299 8.38011C6.75299 8.41011 6.53299 8.38011 6.33299 8.27011L4.60301 7.37012L2.87303 8.27011Z" fill="#E6E6E6"/>
<path fill-rule="evenodd" clip-rule="evenodd" d="M5.993 2.69007C5.753 2.22008 5.24301 0.560092 4.59301 0.550092C3.94302 0.540092 3.42302 2.26008 3.21302 2.69007L0.933044 3.03007C0.783045 3.06007 0.683046 3.12007 0.623047 3.20007L0.693046 3.29007L1.59304 4.18006C2.41303 3.79006 3.43302 3.42007 4.55301 3.14007C5.21301 2.97007 5.863 2.84007 6.463 2.76007L5.993 2.69007Z" fill="#FFF71F"/>
<path fill-rule="evenodd" clip-rule="evenodd" d="M6.93313 5.78003C6.43313 5.96003 5.90314 6.12003 5.34314 6.26003C4.16315 6.56002 3.04316 6.72002 2.11317 6.76002L2.00317 7.38002C2.09317 7.62001 2.36317 7.73001 2.61317 7.60001L4.60315 6.56002L6.58313 7.60001C6.83313 7.73001 7.10313 7.62001 7.19313 7.38002L6.93313 5.78003Z" fill="#F7C600"/>
</svg>
