<svg width="40" height="9" viewBox="0 0 40 9" preserveAspectRatio="none" fill="none" xmlns="http://www.w3.org/2000/svg">
<path fill-rule="evenodd" clip-rule="evenodd" d="M3.12438 0.600586H38.6741C39.1541 0.600586 39.5541 1.05058 39.5541 1.60058V7.55052C39.5541 8.11052 39.1541 8.56052 38.6741 8.56052H3.12438C2.64438 8.56052 2.24438 8.11052 2.24438 7.55052V1.60058C2.24438 1.05058 2.64438 0.600586 3.12438 0.600586Z" fill="black" fill-opacity="0.101961"/>
<path fill-rule="evenodd" clip-rule="evenodd" d="M2.88439 0.280518H38.4341C38.9141 0.280518 39.3141 0.730514 39.3141 1.29051V7.24046C39.3141 7.79045 38.9141 8.24045 38.4341 8.24045H2.88439C2.39439 8.24045 2.00439 7.79045 2.00439 7.24046V1.29051C2.00439 0.730514 2.39439 0.280518 2.88439 0.280518Z" fill="#E6E6E6"/>
<path fill-rule="evenodd" clip-rule="evenodd" d="M2.88439 0.0705566H38.4341C38.9141 0.0705566 39.3141 0.520553 39.3141 1.08055V7.03049C39.3141 7.58049 38.9141 8.03049 38.4341 8.03049H2.88439C2.39439 8.03049 2.00439 7.58049 2.00439 7.03049V1.08055C2.00439 0.520553 2.39439 0.0705566 2.88439 0.0705566Z" fill="white"/>
<path fill-rule="evenodd" clip-rule="evenodd" d="M3.42448 0.740479H38.0042C38.4542 0.740479 38.8242 1.17047 38.8242 1.69047V6.49043C38.8242 7.01042 38.4542 7.44042 38.0042 7.44042H3.42448C2.97449 7.44042 2.60449 7.01042 2.60449 6.49043V1.69047C2.60449 1.17047 2.97449 0.740479 3.42448 0.740479Z" fill="#E6E6E6"/>
<path fill-rule="evenodd" clip-rule="evenodd" d="M3.23431 0.620605H37.834C38.294 0.620605 38.654 1.0506 38.654 1.5606V6.23056C38.654 6.75055 38.284 7.17055 37.834 7.17055H3.23431C2.78431 7.17055 2.42432 6.75055 2.42432 6.23056V1.5606C2.42432 1.0506 2.78431 0.620605 3.23431 0.620605Z" fill="#F1C383"/>
<path fill-rule="evenodd" clip-rule="evenodd" d="M3.22431 0.370605H37.664C38.114 0.370605 38.474 0.790602 38.474 1.3006V5.69056C38.474 6.20055 38.114 6.62055 37.664 6.62055H3.22431C2.78431 6.62055 2.42432 6.20055 2.42432 5.69056V1.3006C2.42432 0.790602 2.78431 0.370605 3.22431 0.370605Z" fill="#FAEECC"/>
<path fill-rule="evenodd" clip-rule="evenodd" d="M3.35445 0.500488C14.7543 0.500488 26.1442 0.500488 37.5341 0.500488C37.9741 0.500488 38.3341 0.910485 38.3341 1.41048C38.3341 2.80047 38.3341 4.19046 38.3341 5.58044C38.3341 6.08044 37.9741 6.49044 37.5341 6.49044C26.1442 6.49044 14.7543 6.49044 3.35445 6.49044C2.91445 6.49044 2.56445 6.08044 2.56445 5.58044C2.56445 4.19046 2.56445 2.80047 2.56445 1.41048C2.56445 0.910485 2.91445 0.500488 3.35445 0.500488Z" fill="#FAEDC9"/>
<path fill-rule="evenodd" clip-rule="evenodd" d="M3.48434 0.620605C14.7942 0.620605 26.1041 0.620605 37.404 0.620605C37.844 0.620605 38.194 1.0306 38.194 1.5306C38.194 2.84059 38.194 4.15057 38.194 5.47056C38.194 5.96056 37.834 6.37055 37.404 6.37055C26.1041 6.37055 14.7942 6.37055 3.48434 6.37055C3.05434 6.37055 2.70435 5.96056 2.70435 5.47056C2.70435 4.15057 2.70435 2.84059 2.70435 1.5306C2.70435 1.0306 3.05434 0.620605 3.48434 0.620605Z" fill="#F9ECC6"/>
<path fill-rule="evenodd" clip-rule="evenodd" d="M3.61448 0.740479C14.8344 0.740479 26.0543 0.740479 37.2742 0.740479C37.7042 0.740479 38.0542 1.15047 38.0542 1.64047C38.0542 2.88046 38.0542 4.11045 38.0542 5.35044C38.0542 5.84043 37.7042 6.25043 37.2742 6.25043C26.0543 6.25043 14.8344 6.25043 3.61448 6.25043C3.19448 6.25043 2.84448 5.84043 2.84448 5.35044C2.84448 4.11045 2.84448 2.88046 2.84448 1.64047C2.84448 1.15047 3.19448 0.740479 3.61448 0.740479Z" fill="#F9EBC2"/>
<path fill-rule="evenodd" clip-rule="evenodd" d="M3.74437 0.870605C14.8843 0.870605 26.0142 0.870605 37.1441 0.870605C37.5641 0.870605 37.9141 1.2706 37.9141 1.7506C37.9141 2.91059 37.9141 4.08058 37.9141 5.24057C37.9141 5.73056 37.5641 6.12056 37.1441 6.12056C26.0142 6.12056 14.8843 6.12056 3.74437 6.12056C3.32437 6.12056 2.98438 5.73056 2.98438 5.24057C2.98438 4.08058 2.98438 2.91059 2.98438 1.7506C2.98438 1.2706 3.32437 0.870605 3.74437 0.870605Z" fill="#F8EABF"/>
<path fill-rule="evenodd" clip-rule="evenodd" d="M3.87451 0.990479C14.9244 0.990479 25.9743 0.990479 37.0142 0.990479C37.4342 0.990479 37.7742 1.38048 37.7742 1.86047C37.7742 2.95046 37.7742 4.04045 37.7742 5.13044C37.7742 5.61044 37.4342 6.00043 37.0142 6.00043C25.9743 6.00043 14.9244 6.00043 3.87451 6.00043C3.46451 6.00043 3.12451 5.61044 3.12451 5.13044C3.12451 4.04045 3.12451 2.95046 3.12451 1.86047C3.12451 1.38048 3.46451 0.990479 3.87451 0.990479Z" fill="#F8E9BC"/>
<path fill-rule="evenodd" clip-rule="evenodd" d="M4.0044 1.12061C14.9643 1.12061 25.9242 1.12061 36.8841 1.12061C37.2941 1.12061 37.6341 1.5006 37.6341 1.9806C37.6341 2.99059 37.6341 4.00058 37.6341 5.02057C37.6341 5.49057 37.2941 5.88056 36.8841 5.88056C25.9242 5.88056 14.9643 5.88056 4.0044 5.88056C3.5944 5.88056 3.2644 5.49057 3.2644 5.02057C3.2644 4.00058 3.2644 2.99059 3.2644 1.9806C3.2644 1.5006 3.5944 1.12061 4.0044 1.12061Z" fill="#F7E8B9"/>
<path fill-rule="evenodd" clip-rule="evenodd" d="M4.13453 1.24048C15.0144 1.24048 25.8843 1.24048 36.7542 1.24048C37.1642 1.24048 37.4942 1.62048 37.4942 2.09047C37.4942 3.03046 37.4942 3.97045 37.4942 4.90045C37.4942 5.37044 37.1642 5.75044 36.7542 5.75044C25.8843 5.75044 15.0144 5.75044 4.13453 5.75044C3.73454 5.75044 3.40454 5.37044 3.40454 4.90045C3.40454 3.97045 3.40454 3.03046 3.40454 2.09047C3.40454 1.62048 3.73454 1.24048 4.13453 1.24048Z" fill="#F7E7B6"/>
<path fill-rule="evenodd" clip-rule="evenodd" d="M4.26443 1.36035C15.0543 1.36035 25.8442 1.36035 36.6241 1.36035C37.0241 1.36035 37.3541 1.74035 37.3541 2.20034C37.3541 3.06034 37.3541 3.93033 37.3541 4.79032C37.3541 5.25032 37.0241 5.63031 36.6241 5.63031C25.8442 5.63031 15.0543 5.63031 4.26443 5.63031C3.86443 5.63031 3.54443 5.25032 3.54443 4.79032C3.54443 3.93033 3.54443 3.06034 3.54443 2.20034C3.54443 1.74035 3.86443 1.36035 4.26443 1.36035Z" fill="#F6E6B3"/>
<path fill-rule="evenodd" clip-rule="evenodd" d="M4.40432 1.49048C15.0942 1.49048 25.7941 1.49048 36.494 1.49048C36.894 1.49048 37.214 1.86048 37.214 2.31047C37.214 3.10046 37.214 3.89046 37.214 4.68045C37.214 5.13045 36.884 5.51044 36.494 5.51044C25.7941 5.51044 15.0942 5.51044 4.40432 5.51044C4.00432 5.51044 3.68433 5.13045 3.68433 4.68045C3.68433 3.89046 3.68433 3.10046 3.68433 2.31047C3.68433 1.86048 4.00432 1.49048 4.40432 1.49048Z" fill="#F6E5AF"/>
<path fill-rule="evenodd" clip-rule="evenodd" d="M4.53446 1.61035C15.1444 1.61035 25.7543 1.61035 36.3642 1.61035C36.7542 1.61035 37.0742 1.98035 37.0742 2.42034C37.0742 3.14034 37.0742 3.85033 37.0742 4.57033C37.0742 5.01032 36.7542 5.38032 36.3642 5.38032C25.7543 5.38032 15.1444 5.38032 4.53446 5.38032C4.14446 5.38032 3.82446 5.02032 3.82446 4.57033C3.82446 3.85033 3.82446 3.14034 3.82446 2.42034C3.82446 1.98035 4.14446 1.61035 4.53446 1.61035Z" fill="#F5E4AC"/>
<path fill-rule="evenodd" clip-rule="evenodd" d="M4.66435 1.73047H36.2341C36.6141 1.73047 36.9341 2.10047 36.9341 2.54046V4.46044C36.9341 4.90044 36.6141 5.26044 36.2341 5.26044H4.66435C4.27435 5.26044 3.96436 4.90044 3.96436 4.46044V2.54046C3.96436 2.09047 4.27435 1.73047 4.66435 1.73047Z" fill="#F5E3A9"/>
<path fill-rule="evenodd" clip-rule="evenodd" d="M37.7542 5.41064C37.9942 5.41064 38.1942 5.63064 38.1942 5.92064C38.1942 6.20064 37.9942 6.43064 37.7542 6.43064C37.5042 6.43064 37.3042 6.20064 37.3042 5.92064C37.3042 5.63064 37.5042 5.41064 37.7542 5.41064Z" fill="white"/>
<path fill-rule="evenodd" clip-rule="evenodd" d="M37.074 5.93042C37.204 5.93042 37.304 6.05042 37.304 6.20042C37.304 6.35042 37.204 6.48042 37.074 6.48042C36.934 6.48042 36.834 6.35042 36.834 6.20042C36.834 6.05042 36.934 5.93042 37.074 5.93042Z" fill="white"/>
<path fill-rule="evenodd" clip-rule="evenodd" d="M3.28449 0.610596C3.66448 0.610596 3.97448 0.960593 3.97448 1.40059C3.97448 1.83058 3.66448 2.19058 3.28449 2.19058C2.90449 2.19058 2.60449 1.83058 2.60449 1.40059C2.60449 0.960593 2.90449 0.610596 3.28449 0.610596Z" fill="white"/>
<path fill-rule="evenodd" clip-rule="evenodd" d="M4.34435 0.510498C4.55435 0.510498 4.72435 0.710496 4.72435 0.950494C4.72435 1.19049 4.55435 1.39049 4.34435 1.39049C4.13435 1.39049 3.96436 1.19049 3.96436 0.950494C3.96436 0.710496 4.13435 0.510498 4.34435 0.510498Z" fill="white"/>
<path fill-rule="evenodd" clip-rule="evenodd" d="M8.13436 1.09058H37.1141C37.4741 1.09058 37.7741 1.33057 37.7741 1.63057V5.27054C37.7741 5.57054 37.4741 5.81053 37.1141 5.81053H8.13436C7.77436 5.81053 7.47437 5.57054 7.47437 5.27054V1.63057C7.47437 1.33057 7.77436 1.09058 8.13436 1.09058Z" fill="#EFB469"/>
<path fill-rule="evenodd" clip-rule="evenodd" d="M8.37438 1.35059H36.8741C37.2241 1.35059 37.5041 1.58058 37.5041 1.87058V5.20055C37.5041 5.48055 37.2141 5.72055 36.8741 5.72055H8.37438C8.03438 5.72055 7.74438 5.48055 7.74438 5.20055V1.87058C7.74438 1.58058 8.02438 1.35059 8.37438 1.35059Z" fill="#F1C383"/>
<path fill-rule="evenodd" clip-rule="evenodd" d="M8.40441 1.65063C17.8843 1.65063 27.3642 1.65063 36.8442 1.65063C37.1842 1.65063 37.4742 1.88063 37.4742 2.16063C37.4742 3.17062 37.4742 4.18061 37.4742 5.1906C37.4742 5.4706 37.1842 5.7106 36.8442 5.7106C27.3642 5.7106 17.8843 5.7106 8.40441 5.7106C8.06441 5.7106 7.77441 5.4806 7.77441 5.1906C7.77441 4.18061 7.77441 3.17062 7.77441 2.16063C7.77441 1.88063 8.06441 1.65063 8.40441 1.65063Z" fill="#F1C585"/>
<path fill-rule="evenodd" clip-rule="evenodd" d="M8.43445 1.94067C17.8944 1.94067 27.3543 1.94067 36.8142 1.94067C37.1542 1.94067 37.4342 2.17067 37.4342 2.45067C37.4342 3.36066 37.4342 4.28065 37.4342 5.19065C37.4342 5.47064 37.1542 5.70064 36.8142 5.70064C27.3543 5.70064 17.8944 5.70064 8.43445 5.70064C8.09445 5.70064 7.81445 5.47064 7.81445 5.19065C7.81445 4.28065 7.81445 3.36066 7.81445 2.45067C7.81445 2.17067 8.09445 1.94067 8.43445 1.94067Z" fill="#F1C786"/>
<path fill-rule="evenodd" clip-rule="evenodd" d="M8.46449 2.24072C17.9044 2.24072 27.3443 2.24072 36.7842 2.24072C37.1242 2.24072 37.3942 2.46072 37.3942 2.74072C37.3942 3.55071 37.3942 4.3707 37.3942 5.1907C37.3942 5.46069 37.1242 5.68069 36.7842 5.68069C27.3443 5.68069 17.9044 5.68069 8.46449 5.68069C8.12449 5.68069 7.85449 5.46069 7.85449 5.1907C7.85449 4.3707 7.85449 3.55071 7.85449 2.74072C7.85449 2.46072 8.12449 2.24072 8.46449 2.24072Z" fill="#F2CA88"/>
<path fill-rule="evenodd" clip-rule="evenodd" d="M8.49452 2.53076C17.9144 2.53076 27.3343 2.53076 36.7543 2.53076C37.0943 2.53076 37.3643 2.76076 37.3643 3.03076C37.3643 3.75075 37.3643 4.46074 37.3643 5.18074C37.3643 5.45074 37.0843 5.67073 36.7543 5.67073C27.3343 5.67073 17.9144 5.67073 8.49452 5.67073C8.16452 5.67073 7.88452 5.45074 7.88452 5.18074C7.88452 4.46074 7.88452 3.75075 7.88452 3.03076C7.88452 2.76076 8.15452 2.53076 8.49452 2.53076Z" fill="#F2CC8A"/>
<path fill-rule="evenodd" clip-rule="evenodd" d="M8.52431 2.83057C17.9242 2.83057 27.3241 2.83057 36.7241 2.83057C37.0541 2.83057 37.3241 3.05056 37.3241 3.32056C37.3241 3.94056 37.3241 4.56055 37.3241 5.18055C37.3241 5.44054 37.0541 5.66054 36.7241 5.66054C27.3241 5.66054 17.9242 5.66054 8.52431 5.66054C8.19431 5.66054 7.92432 5.44054 7.92432 5.18055C7.92432 4.56055 7.92432 3.94056 7.92432 3.32056C7.92432 3.05056 8.19431 2.83057 8.52431 2.83057Z" fill="#F2CE8B"/>
<path fill-rule="evenodd" clip-rule="evenodd" d="M8.54434 3.13062C17.9343 3.13062 27.3142 3.13062 36.7041 3.13062C37.0241 3.13062 37.2941 3.35061 37.2941 3.61061C37.2941 4.13061 37.2941 4.6506 37.2941 5.1706C37.2941 5.44059 37.0241 5.65059 36.7041 5.65059C27.3142 5.65059 17.9343 5.65059 8.54434 5.65059C8.22434 5.65059 7.95435 5.44059 7.95435 5.1706C7.95435 4.6506 7.95435 4.13061 7.95435 3.61061C7.95435 3.34061 8.22434 3.13062 8.54434 3.13062Z" fill="#F2D08D"/>
<path fill-rule="evenodd" clip-rule="evenodd" d="M8.57438 3.42065C17.9443 3.42065 27.3042 3.42065 36.6741 3.42065C36.9941 3.42065 37.2541 3.64065 37.2541 3.90065C37.2541 4.32065 37.2541 4.74064 37.2541 5.17064C37.2541 5.43064 36.9941 5.64063 36.6741 5.64063C27.3042 5.64063 17.9443 5.64063 8.57438 5.64063C8.25438 5.64063 7.99438 5.43064 7.99438 5.17064C7.99438 4.74064 7.99438 4.32065 7.99438 3.90065C7.99438 3.64065 8.25438 3.42065 8.57438 3.42065Z" fill="#F2D28E"/>
<path fill-rule="evenodd" clip-rule="evenodd" d="M8.60441 3.7207C17.9543 3.7207 27.2942 3.7207 36.6442 3.7207C36.9642 3.7207 37.2242 3.9307 37.2242 4.1907C37.2242 4.5107 37.2242 4.84069 37.2242 5.16069C37.2242 5.42069 36.9642 5.63069 36.6442 5.63069C27.2942 5.63069 17.9543 5.63069 8.60441 5.63069C8.28441 5.63069 8.02441 5.42069 8.02441 5.16069C8.02441 4.84069 8.02441 4.5107 8.02441 4.1907C8.02441 3.9307 8.28441 3.7207 8.60441 3.7207Z" fill="#F2D490"/>
<path fill-rule="evenodd" clip-rule="evenodd" d="M8.63445 4.02051C17.9644 4.02051 27.2843 4.02051 36.6142 4.02051C36.9242 4.02051 37.1842 4.23051 37.1842 4.4805C37.1842 4.7105 37.1842 4.9305 37.1842 5.1605C37.1842 5.4105 36.9242 5.62049 36.6142 5.62049C27.2843 5.62049 17.9644 5.62049 8.63445 5.62049C8.32445 5.62049 8.06445 5.4105 8.06445 5.1605C8.06445 4.9305 8.06445 4.7105 8.06445 4.4805C8.06445 4.23051 8.32445 4.02051 8.63445 4.02051Z" fill="#F3D792"/>
<path fill-rule="evenodd" clip-rule="evenodd" d="M8.66449 4.31055C17.9744 4.31055 27.2743 4.31055 36.5842 4.31055C36.8942 4.31055 37.1442 4.52055 37.1442 4.77054C37.1442 4.90054 37.1442 5.03054 37.1442 5.15054C37.1442 5.40054 36.8942 5.61054 36.5842 5.61054C27.2743 5.61054 17.9744 5.61054 8.66449 5.61054C8.35449 5.61054 8.10449 5.40054 8.10449 5.15054C8.10449 5.03054 8.10449 4.90054 8.10449 4.77054C8.10449 4.52055 8.35449 4.31055 8.66449 4.31055Z" fill="#F3D993"/>
<path fill-rule="evenodd" clip-rule="evenodd" d="M8.69427 4.6106H36.554C36.864 4.6106 37.114 4.82059 37.114 5.06059V5.15059C37.114 5.40059 36.864 5.60059 36.554 5.60059H8.69427C8.38428 5.60059 8.13428 5.40059 8.13428 5.15059V5.06059C8.13428 4.81059 8.38428 4.6106 8.69427 4.6106Z" fill="#F3DB95"/>
<path d="M1.18446 1.85069C1.06446 3.30068 1.13446 4.31067 1.50446 5.14066C1.86445 5.95065 2.53445 6.65065 3.61444 7.48064C4.69443 6.65065 5.37442 5.95065 5.73442 5.14066C6.10442 4.31067 6.17442 3.30068 6.04442 1.85069C5.20442 1.69069 4.41443 1.60069 3.61444 1.60069C2.82445 1.59069 2.03445 1.68069 1.18446 1.85069ZM0.464466 5.59066C-0.0255293 4.49067 -0.0955287 3.20068 0.10447 1.3307L0.144469 0.930699L0.534466 0.8407C1.60446 0.590702 2.60445 0.470703 3.61444 0.470703C4.62443 0.470703 5.62442 0.600702 6.69441 0.8407L7.08441 0.930699L7.12441 1.3307C7.32441 3.20068 7.25441 4.49067 6.76441 5.59066C6.27441 6.70065 5.39442 7.58064 3.95444 8.64063L3.61444 8.88063L3.28444 8.64063C1.84445 7.58064 0.954462 6.70065 0.464466 5.59066Z" fill="black" fill-opacity="0.101961"/>
<path d="M1.18446 1.38056C1.06446 2.83055 1.13446 3.84054 1.50446 4.66054C1.86445 5.48053 2.53445 6.18052 3.61444 7.00051C4.69443 6.18052 5.37442 5.48053 5.73442 4.66054C6.10442 3.84054 6.17442 2.83055 6.04442 1.38056C5.20442 1.21057 4.41443 1.12057 3.61444 1.12057C2.82445 1.12057 2.03445 1.20057 1.18446 1.38056ZM0.464466 5.12053C-0.0255293 4.01054 -0.0955287 2.73055 0.10447 0.860569L0.144469 0.460572L0.534466 0.370573C1.60446 0.110575 2.60445 -0.00942356 3.61444 0.00057635C4.62443 0.00057635 5.62442 0.120575 6.69441 0.370573L7.08441 0.460572L7.12441 0.860569C7.32441 2.73055 7.25441 4.01054 6.76441 5.12053C6.27441 6.23052 5.39442 7.10051 3.95444 8.1605L3.61444 8.4105L3.28444 8.1605C1.84445 7.10051 0.954462 6.23052 0.464466 5.12053Z" fill="white"/>
<path fill-rule="evenodd" clip-rule="evenodd" d="M0.664405 0.730466C0.294409 4.28043 0.904403 5.52042 3.61438 7.52041C6.33435 5.52042 6.94435 4.28043 6.56435 0.730466C4.51437 0.270471 2.72439 0.250471 0.664405 0.730466Z" fill="#E6E6E6"/>
<path fill-rule="evenodd" clip-rule="evenodd" d="M3.6145 7.52055C6.33448 5.52057 6.94447 4.28058 6.56448 0.730612C5.54448 0.500614 4.57449 0.380615 3.6145 0.380615V7.52055Z" fill="#CCCCCC"/>
<path fill-rule="evenodd" clip-rule="evenodd" d="M3.61432 6.78045C2.84433 6.22045 2.24433 5.71046 1.79433 5.20046C0.984342 4.29047 0.624345 3.35048 0.574345 2.00049C0.484346 4.61047 1.25434 5.78045 3.61432 7.52044C5.9843 5.78045 6.74429 4.61047 6.66429 2.00049C6.61429 3.35048 6.25429 4.29047 5.4443 5.20046C4.98431 5.71046 4.38431 6.22045 3.61432 6.78045Z" fill="white"/>
<path fill-rule="evenodd" clip-rule="evenodd" d="M0.564453 2.43058C0.574453 4.75056 1.38445 5.88055 3.61443 7.52054C5.84441 5.88055 6.6544 4.75056 6.6644 2.43058C6.6644 2.32058 6.6644 2.22058 6.6644 2.10059C6.6144 3.45057 6.2544 4.39057 5.44441 5.30056C4.98441 5.81055 4.38442 6.32055 3.61443 6.89054C2.84443 6.32055 2.24444 5.81055 1.79444 5.30056C0.984449 4.39057 0.624453 3.45057 0.574453 2.10059C0.564453 2.22058 0.564453 2.33058 0.564453 2.43058Z" fill="#999999"/>
<path fill-rule="evenodd" clip-rule="evenodd" d="M3.52441 0.310547L3.75441 0.380546L3.61441 3.32052L3.52441 0.310547Z" fill="white"/>
<path fill-rule="evenodd" clip-rule="evenodd" d="M3.61439 7.98054L3.28439 7.73054C1.8444 6.67055 0.954413 5.80056 0.464417 4.69057C0.16442 4.01057 0.0244209 3.26058 0.00442112 2.35059C-0.0155787 3.46058 0.11442 4.33057 0.464417 5.12056C0.954413 6.23055 1.8444 7.10054 3.28439 8.16053L3.61439 8.41053L3.95439 8.16053C5.39437 7.10054 6.27437 6.23055 6.76436 5.12056C7.11436 4.33057 7.25436 3.46058 7.23436 2.35059C7.21436 3.26058 7.06436 4.01057 6.76436 4.69057C6.27437 5.80056 5.39437 6.67055 3.95439 7.73054L3.61439 7.98054Z" fill="#E6E6E6"/>
</svg>
