<svg width="59" height="32" viewBox="0 0 59 32" fill="none" xmlns="http://www.w3.org/2000/svg">
<path fill-rule="evenodd" clip-rule="evenodd" d="M4.30067 3.15235C9.91557 1.98009 49.1412 1.9484 54.6249 3.15235C56.3566 3.56422 57.511 4.95827 57.8521 7.08101C58.9279 13.7661 58.9017 20.4828 57.8521 27.1679C57.511 29.2906 56.3828 30.8748 54.6249 31.0649C49.1412 31.6985 9.91557 31.6668 4.30067 31.0649C2.54273 30.8748 1.25708 29.2906 1.07341 27.1679C0.443705 20.4828 0.312516 13.7661 1.07341 7.08101C1.30955 4.95827 2.54273 3.53254 4.30067 3.15235Z" fill="black" fill-opacity="0.101961"/>
<path fill-rule="evenodd" clip-rule="evenodd" d="M3.77613 1.63184C9.36479 0.459578 48.5904 0.427895 54.0741 1.63184C55.832 2.04372 56.9603 3.43776 57.3014 5.5605C58.3771 12.2456 58.3509 18.9623 57.3014 25.6474C56.9865 27.7701 55.832 29.3543 54.0741 29.5444C48.5904 30.178 9.36479 30.1463 3.77613 29.5444C1.99195 29.3543 0.732536 27.7701 0.522633 25.6474C-0.107076 18.9623 -0.238265 12.2456 0.522633 5.5605C0.758773 3.43776 2.01819 2.01203 3.77613 1.63184Z" fill="#E6E6E6"/>
<path fill-rule="evenodd" clip-rule="evenodd" d="M3.77613 0.902959C9.36479 -0.300986 48.5904 -0.300986 54.0741 0.902959C55.832 1.31483 56.9603 2.70888 57.3014 4.83162C58.3771 11.5167 58.3509 18.2017 57.3014 24.9185C56.9865 27.0412 55.832 28.6254 54.0741 28.8155C48.5904 29.4174 9.36479 29.4174 3.77613 28.8155C1.99195 28.6254 0.732536 27.0412 0.522633 24.9185C-0.107076 18.2017 -0.238265 11.5167 0.522633 4.83162C0.758773 2.70888 2.01819 1.28315 3.77613 0.902959Z" fill="white"/>
<path fill-rule="evenodd" clip-rule="evenodd" d="M5.00945 2.8672C10.0209 1.78998 48.6693 1.7583 53.5757 2.8672C55.15 3.21571 56.1995 4.48302 56.4881 6.3523C57.4589 12.372 57.4327 18.3601 56.4881 24.3798C56.1995 26.2808 55.1763 27.7065 53.5757 27.8966C48.6693 28.4352 10.0209 28.4352 5.00945 27.8966C3.40894 27.7065 2.28071 26.2808 2.09704 24.3798C1.54605 18.3601 1.41486 12.372 2.09704 6.3523C2.30695 4.45134 3.43518 3.18403 5.00945 2.8672Z" fill="#E6E6E6"/>
<path fill-rule="evenodd" clip-rule="evenodd" d="M4.64177 2.32891C9.6532 1.25169 48.3016 1.25169 53.2343 2.32891C54.7823 2.67742 55.8318 3.94473 56.1205 5.84569C57.0913 11.8337 57.065 17.8535 56.1205 23.8415C55.8318 25.7425 54.8086 27.1682 53.2343 27.3583C48.3016 27.8969 9.6532 27.8969 4.64177 27.3583C3.04126 27.1999 1.91303 25.7742 1.72937 23.8415C1.17837 17.8535 1.04718 11.8337 1.72937 5.84569C1.93927 3.91304 3.0675 2.67742 4.64177 2.32891Z" fill="#6DC300"/>
<path fill-rule="evenodd" clip-rule="evenodd" d="M4.64177 1.12452C9.6532 0.0473081 48.3016 0.0156254 53.2343 1.12452C54.7823 1.47303 55.8318 2.74034 56.1205 4.60962C57.0913 10.6293 57.065 16.6174 56.1205 22.6371C55.8318 24.5381 54.8086 25.9638 53.2343 26.1539C48.3016 26.6925 9.6532 26.6925 4.64177 26.1539C3.04126 25.9638 1.91303 24.5381 1.72937 22.6371C1.17837 16.6174 1.04718 10.6293 1.72937 4.60962C1.93927 2.70866 3.0675 1.44135 4.64177 1.12452Z" fill="#C9FB06"/>
<path fill-rule="evenodd" clip-rule="evenodd" d="M4.74685 1.28301C9.7058 0.205794 48.2755 0.205794 53.1295 1.28301C54.6775 1.63152 55.7008 2.86715 55.9894 4.73643C56.934 10.6611 56.934 16.5858 55.9894 22.5105C55.7008 24.3797 54.7037 25.8055 53.1295 25.9639C48.2755 26.5025 9.7058 26.5025 4.74685 25.9639C3.17258 25.8055 2.04435 24.4114 1.86068 22.5105C1.30969 16.5858 1.20474 10.6611 1.86068 4.73643C2.07058 2.83546 3.17258 1.59984 4.74685 1.28301Z" fill="#C5F806"/>
<path fill-rule="evenodd" clip-rule="evenodd" d="M4.82536 1.44158C9.73184 0.39605 48.249 0.364368 53.0243 1.44158C54.5461 1.79009 55.5694 3.02572 55.858 4.86332C56.8026 10.6929 56.7763 16.5543 55.858 22.3839C55.5694 24.2215 54.5723 25.6472 53.0243 25.8056C48.249 26.3442 9.73184 26.3125 4.82536 25.8056C3.27733 25.6472 2.17534 24.2532 2.01791 22.3839C1.46691 16.5543 1.36196 10.6929 2.01791 4.86332C2.22781 2.99404 3.30356 1.75841 4.82536 1.44158Z" fill="#C0F605"/>
<path fill-rule="evenodd" clip-rule="evenodd" d="M4.93047 1.60007C9.75824 0.554535 48.2229 0.554535 52.9195 1.60007C54.4413 1.94858 55.4384 3.15252 55.727 4.95844C56.6453 10.7247 56.6191 16.491 55.727 22.2572C55.4384 24.0948 54.4676 25.4572 52.9195 25.6473C48.2229 26.1542 9.75824 26.1542 4.93047 25.6473C3.40867 25.4572 2.33292 24.0948 2.14926 22.2572C1.59826 16.491 1.49331 10.7247 2.14926 4.95844C2.35916 3.12084 3.43491 1.91689 4.93047 1.60007Z" fill="#BCF305"/>
<path fill-rule="evenodd" clip-rule="evenodd" d="M5.03547 1.75843C9.81076 0.744585 48.1705 0.744585 52.8409 1.75843C54.3102 2.10694 55.3072 3.27921 55.5958 5.08512C56.4879 10.788 56.4879 16.4592 55.5958 22.1304C55.3072 23.9364 54.3364 25.2987 52.8409 25.4571C48.1705 25.9957 9.81076 25.9641 5.03547 25.4571C3.53991 25.2987 2.46416 23.968 2.2805 22.1304C1.75574 16.4592 1.65079 10.788 2.2805 5.08512C2.4904 3.27921 3.53991 2.07526 5.03547 1.75843Z" fill="#B7F004"/>
<path fill-rule="evenodd" clip-rule="evenodd" d="M5.14022 1.91652C9.8368 0.934355 48.1441 0.902673 52.7357 1.91652C54.205 2.26503 55.1758 3.43729 55.4382 5.21153C56.3565 10.8194 56.3303 16.4272 55.4382 22.0351C55.1758 23.7776 54.2313 25.14 52.7357 25.2984C48.1441 25.8053 9.8368 25.8053 5.14022 25.2984C3.64466 25.14 2.59515 23.8093 2.43772 22.0351C1.91296 16.4272 1.80801 10.8194 2.43772 5.21153C2.62139 3.40561 3.6709 2.23335 5.14022 1.91652Z" fill="#B3EE04"/>
<path fill-rule="evenodd" clip-rule="evenodd" d="M5.24533 2.075C9.8632 1.09284 48.118 1.09284 52.6309 2.075C54.074 2.42351 55.0448 3.56409 55.3072 5.30664C56.1993 10.8511 56.173 16.3639 55.3072 21.9084C55.0448 23.651 54.1002 24.9816 52.6309 25.14C48.118 25.647 9.8632 25.6153 5.24533 25.14C3.77601 24.9816 2.7265 23.651 2.56907 21.9084C2.04431 16.3639 1.93936 10.8511 2.56907 5.30664C2.75273 3.56409 3.80225 2.39183 5.24533 2.075Z" fill="#AEEB03"/>
<path fill-rule="evenodd" clip-rule="evenodd" d="M5.35034 2.26515C9.88949 1.28299 48.0918 1.25131 52.5522 2.26515C53.9691 2.58198 54.9136 3.72256 55.176 5.43343C56.0419 10.8829 56.0419 16.3323 55.176 21.7817C54.9136 23.4926 53.9953 24.7916 52.5522 24.95C48.0918 25.4569 9.88949 25.4569 5.35034 24.95C3.90725 24.8233 2.85774 23.5243 2.70031 21.7817C2.20179 16.3323 2.09684 10.8829 2.70031 5.43343C2.91021 3.69088 3.90725 2.5503 5.35034 2.26515Z" fill="#AAE903"/>
<path fill-rule="evenodd" clip-rule="evenodd" d="M5.42921 2.42364C9.94212 1.44147 48.0395 1.44147 52.4475 2.42364C53.8643 2.74046 54.7826 3.84936 55.045 5.56023C55.9109 10.9146 55.8846 16.3007 55.045 21.6551C54.7826 23.3659 53.8643 24.6333 52.4475 24.7917C48.0395 25.2669 9.94212 25.2669 5.42921 24.7917C4.01236 24.6333 3.01532 23.3659 2.83166 21.6551C2.33314 16.3007 2.22819 10.9146 2.83166 5.56023C3.04156 3.84936 4.0386 2.70878 5.42921 2.42364Z" fill="#A5E602"/>
<path fill-rule="evenodd" clip-rule="evenodd" d="M5.53396 2.582C9.96816 1.63152 48.0131 1.63152 52.3423 2.582C53.7329 2.89883 54.6512 4.00773 54.9136 5.65523C55.7532 10.9463 55.7532 16.2373 54.9136 21.5283C54.6512 23.2075 53.7592 24.4748 52.3423 24.6332C48.0131 25.1085 9.96816 25.1085 5.53396 24.6332C4.14335 24.4748 3.14631 23.2392 2.98889 21.5283C2.49037 16.2373 2.38542 10.9463 2.98889 5.65523C3.17255 3.97604 4.14335 2.86715 5.53396 2.582Z" fill="#A1E302"/>
<path fill-rule="evenodd" clip-rule="evenodd" d="M5.63909 2.74058C9.99457 1.82178 47.987 1.7901 52.2638 2.74058C53.6281 3.05741 54.5202 4.13462 54.7826 5.78213C55.596 11.0098 55.596 16.2058 54.7826 21.4017C54.5202 23.0492 53.6281 24.3165 52.2638 24.4433C47.987 24.9185 9.99457 24.9185 5.63909 24.4433C4.24848 24.3165 3.27768 23.0809 3.12025 21.4017C2.62173 16.2058 2.54302 11.0098 3.12025 5.78213C3.30392 4.13462 4.27472 3.02573 5.63909 2.74058Z" fill="#9CE101"/>
<path fill-rule="evenodd" clip-rule="evenodd" d="M5.74408 2.89906C10.0471 1.98026 47.9608 1.98026 52.1589 2.89906C53.497 3.21589 54.3891 4.2931 54.6252 5.90892C55.4648 11.0415 55.4386 16.1741 54.6252 21.3068C54.3891 22.9226 53.5232 24.1265 52.1589 24.2849C47.9608 24.7602 10.0471 24.7602 5.74408 24.2849C4.37971 24.1582 3.40891 22.9226 3.25148 21.3068C2.7792 16.1741 2.67425 11.0415 3.25148 5.90892C3.43515 4.26142 4.40595 3.18421 5.74408 2.89906Z" fill="#98DE01"/>
<path fill-rule="evenodd" clip-rule="evenodd" d="M4.64201 1.12452C9.65344 0.0473081 48.3018 0.0156253 53.2345 1.12452C54.7826 1.47303 55.8321 2.74034 56.1207 4.60963C56.5668 7.33434 56.8029 10.0591 56.8291 12.7838C47.5147 8.1581 7.55441 20.451 1.25732 12.7204C1.28356 10.0274 1.44099 7.33434 1.72961 4.60963C1.93951 2.70866 3.06774 1.44135 4.64201 1.12452Z" fill="white" fill-opacity="0.290196"/>
<path fill-rule="evenodd" clip-rule="evenodd" d="M4.90429 2.29688C6.37361 2.29688 7.58055 3.7226 7.58055 5.52852C7.58055 7.30275 6.37361 8.72848 4.90429 8.72848C3.43497 8.72848 2.22803 7.30275 2.22803 5.52852C2.22803 3.7226 3.43497 2.29688 4.90429 2.29688Z" fill="white"/>
<path fill-rule="evenodd" clip-rule="evenodd" d="M8.97107 1.47314C9.70573 1.47314 10.3092 2.17017 10.3092 3.05728C10.3092 3.9444 9.70573 4.6731 8.97107 4.6731C8.26265 4.6731 7.65918 3.9444 7.65918 3.05728C7.65918 2.17017 8.26265 1.47314 8.97107 1.47314Z" fill="white"/>
<path fill-rule="evenodd" clip-rule="evenodd" d="M53.6542 21.4966C54.5463 21.4966 55.281 22.352 55.281 23.4292C55.281 24.5065 54.5463 25.3936 53.6542 25.3936C52.7884 25.3936 52.0537 24.5065 52.0537 23.4292C52.0537 22.352 52.7884 21.4966 53.6542 21.4966Z" fill="white"/>
<path d="M4.12305 10.8311L3.94531 19.041L8.66211 19.1094L8.70996 16.9766H5.83203V15.8828L8.4502 15.9375L8.50488 14.1875H5.83203V13.0391L8.97656 13.0938L8.96973 10.8926L4.12305 10.8311ZM9.11328 17.8652C9.91081 17.168 10.7038 16.4274 11.4922 15.6436C10.7174 14.7002 9.90169 13.7363 9.04492 12.752L10.8086 11.6104C11.515 12.5765 12.1872 13.4606 12.8252 14.2627C13.5771 13.4561 14.3245 12.6107 15.0674 11.7266L16.4209 13.3262C15.6143 14.1556 14.8372 14.9759 14.0898 15.7871C14.819 16.6393 15.4958 17.3617 16.1201 17.9541L14.4932 19.4717C13.9463 18.738 13.3721 17.9906 12.7705 17.2295C12.1234 17.9541 11.499 18.6696 10.8975 19.376L9.11328 17.8652ZM16.7354 11.1318C16.8265 12.4398 16.8721 13.7568 16.8721 15.083C16.8721 16.4092 16.8265 17.7422 16.7354 19.082L18.54 19.3281L18.8135 11.0088L16.7354 11.1318ZM21.4521 13.1211L21.5615 19.1709L23.3594 19.3828L23.25 13.0117L25.5879 12.9092L25.6357 11.1182C23.5166 11.2594 21.2038 11.4531 18.6973 11.6992L18.8066 13.5381L21.4521 13.1211ZM35.7529 13.3125C35.6208 11.9635 34.8962 11.2048 33.5791 11.0361C33.3649 11.0088 33.1484 10.9951 32.9297 10.9951C31.7904 10.9951 30.9222 11.387 30.3252 12.1709C29.7874 12.8727 29.5186 13.8092 29.5186 14.9805C29.5186 15.1719 29.5231 15.3405 29.5322 15.4863C29.6279 16.9993 30.193 17.9906 31.2275 18.46C31.9385 18.7835 32.6562 18.9453 33.3809 18.9453C33.709 18.9453 34.0326 18.9134 34.3516 18.8496C35.4043 18.64 36.0081 17.4141 36.1631 15.1719L33.1826 14.8848L32.834 16.1289L34.2354 16.293C33.9801 16.972 33.6019 17.3115 33.1006 17.3115C32.9137 17.3115 32.7087 17.2637 32.4854 17.168C31.738 16.8444 31.3643 16.1745 31.3643 15.1582C31.3643 15.0306 31.3665 14.9326 31.3711 14.8643C31.4486 13.6839 31.8496 12.9912 32.5742 12.7861C32.7018 12.7497 32.8249 12.7314 32.9434 12.7314C33.4674 12.7314 33.8389 13.112 34.0576 13.873L35.7529 13.3125ZM39.5674 15.0146L39.1777 13.3672L38.7881 15.0488L39.5674 15.0146ZM38.4941 16.3203L37.8721 19L36.1152 18.7266L38.3164 10.9062H40.0527L42.3906 18.3438L40.4629 18.8359L39.875 16.3203H38.4941ZM42.5684 11.7266L42.2266 18.9043L44.0586 19.0205L44.2363 14.8711L44.749 17.5439H46.4717L47.1074 15.1104V19.2051L49.0625 19.3281C49.0215 16.7943 48.8665 14.2604 48.5977 11.7266L46.5879 11.7881L45.6719 14.8711L44.749 11.6104L42.5684 11.7266ZM49.3496 10.8311L49.1719 19.041L53.8887 19.1094L53.9365 16.9766H51.0586V15.8828L53.6768 15.9375L53.7314 14.1875H51.0586V13.0391L54.2031 13.0938L54.1963 10.8926L49.3496 10.8311Z" fill="white"/>
</svg>
