<svg width="97" height="27" viewBox="0 0 97 27" fill="none" xmlns="http://www.w3.org/2000/svg">
<path fill-rule="evenodd" clip-rule="evenodd" d="M2.28847 2H94.7375C95.9858 2 97 3.44472 97 5.17211V23.8593C97 25.5867 95.9858 27 94.7375 27H2.28847C1.01421 27 0 25.5867 0 23.8593V5.17211C0 3.41332 1.01421 2 2.28847 2Z" fill="black" fill-opacity="0.101961"/>
<path fill-rule="evenodd" clip-rule="evenodd" d="M2.26247 1H94.7375C95.9858 1 97 2.41332 97 4.1407V22.8279C97 24.5553 95.9858 26 94.7375 26H2.26247C1.01421 26 0 24.5553 0 22.8279V4.1407C0 2.41332 1.01421 1 2.26247 1Z" fill="#E6E6E6"/>
<path fill-rule="evenodd" clip-rule="evenodd" d="M2.26247 0H94.7375C95.9858 0 97 1.41332 97 3.1407V21.8279C97 23.5553 95.9858 25 94.7375 25H2.26247C1.01421 25 0 23.5553 0 21.8279V3.1407C0 1.41332 1.01421 0 2.26247 0Z" fill="white"/>
<path fill-rule="evenodd" clip-rule="evenodd" d="M3.15075 2H93.823C95.0295 2 96 3.41405 96 5.12407V20.8759C96 22.5859 95.0295 24 93.823 24H3.15075C1.97046 24 1 22.6188 1 20.8759V5.12407C1 3.41405 1.97046 2 3.15075 2Z" fill="#E6E6E6"/>
<path fill-rule="evenodd" clip-rule="evenodd" d="M3.28289 1.99023H93.9027C95.0812 1.99023 96.0503 3.31967 96.0503 4.96564V19.7477C96.0503 21.3621 95.0812 22.7231 93.9027 22.7231H3.28289C2.10431 22.7231 1.13525 21.3621 1.13525 19.7477V4.96564C1.13525 3.31967 2.10431 1.99023 3.28289 1.99023Z" fill="#F1C383"/>
<path fill-rule="evenodd" clip-rule="evenodd" d="M3.2567 1.19922H93.4574C94.6098 1.19922 95.5789 2.52865 95.5789 4.14296V18.0071C95.5789 19.6214 94.6098 20.9508 93.4574 20.9508H3.2567C2.10431 20.9508 1.13525 19.6214 1.13525 18.0071V4.14296C1.13525 2.52865 2.07812 1.19922 3.2567 1.19922Z" fill="#FAEECC"/>
<path fill-rule="evenodd" clip-rule="evenodd" d="M3.59721 1.57886C33.4284 1.57886 63.2858 1.57886 93.117 1.57886C94.2694 1.57886 95.2122 2.87664 95.2122 4.49096C95.2122 8.89076 95.2122 13.2589 95.2122 17.6587C95.2122 19.2414 94.2694 20.5708 93.117 20.5708C63.2858 20.5708 33.4284 20.5708 3.59721 20.5708C2.44482 20.5708 1.50195 19.273 1.50195 17.6587C1.50195 13.2589 1.50195 8.89076 1.50195 4.49096C1.50195 2.87664 2.44482 1.57886 3.59721 1.57886Z" fill="#FAEDC9"/>
<path fill-rule="evenodd" clip-rule="evenodd" d="M3.93772 1.99023C33.5594 1.99023 63.1549 1.99023 92.7766 1.99023C93.9028 1.99023 94.8456 3.25636 94.8456 4.83902C94.8456 8.98559 94.8456 13.1638 94.8456 17.3104C94.8456 18.8931 93.9028 20.1592 92.7766 20.1592C63.1549 20.1592 33.5594 20.1592 3.93772 20.1592C2.81152 20.1592 1.86865 18.8931 1.86865 17.3104C1.86865 13.1638 1.86865 8.98559 1.86865 4.83902C1.86865 3.25636 2.81152 1.99023 3.93772 1.99023Z" fill="#F9ECC6"/>
<path fill-rule="evenodd" clip-rule="evenodd" d="M4.27823 2.37012C33.6642 2.37012 63.0502 2.37012 92.4362 2.37012C93.5624 2.37012 94.4791 3.63626 94.4791 5.18728C94.4791 9.11231 94.4791 13.0373 94.4791 16.9624C94.4791 18.5134 93.5624 19.7795 92.4362 19.7795C63.0502 19.7795 33.6642 19.7795 4.27823 19.7795C3.15203 19.7795 2.23535 18.5134 2.23535 16.9624C2.23535 13.0373 2.23535 9.11231 2.23535 5.18728C2.23535 3.63626 3.15203 2.37012 4.27823 2.37012Z" fill="#F9EBC2"/>
<path fill-rule="evenodd" clip-rule="evenodd" d="M4.61873 2.75C33.769 2.75 62.9454 2.75 92.0957 2.75C93.1957 2.75 94.1124 4.01613 94.1124 5.53549C94.1124 9.23893 94.1124 12.9107 94.1124 16.5825C94.1124 18.1335 93.1957 19.3997 92.0957 19.3997C62.9454 19.3997 33.769 19.3997 4.61873 19.3997C3.51873 19.3997 2.60205 18.1335 2.60205 16.5825C2.60205 12.9107 2.60205 9.23893 2.60205 5.53549C2.60205 4.01613 3.51873 2.75 4.61873 2.75Z" fill="#F8EABF"/>
<path fill-rule="evenodd" clip-rule="evenodd" d="M4.95924 3.16162C33.8999 3.16162 62.8144 3.16162 91.7551 3.16162C92.8289 3.16162 93.7456 4.3961 93.7456 5.91546C93.7456 9.36567 93.7456 12.7842 93.7456 16.2344C93.7456 17.7538 92.8289 18.9883 91.7551 18.9883C62.8144 18.9883 33.8999 18.9883 4.95924 18.9883C3.85923 18.9883 2.96875 17.7538 2.96875 16.2344C2.96875 12.7842 2.96875 9.36567 2.96875 5.91546C2.96875 4.3961 3.85923 3.16162 4.95924 3.16162Z" fill="#F8E9BC"/>
<path fill-rule="evenodd" clip-rule="evenodd" d="M5.29975 3.54126C34.0047 3.54126 62.7097 3.54126 91.4147 3.54126C92.4885 3.54126 93.379 4.77575 93.379 6.26347C93.379 9.46049 93.379 12.6892 93.379 15.8862C93.379 17.3739 92.4885 18.6084 91.4147 18.6084C62.7097 18.6084 34.0047 18.6084 5.29975 18.6084C4.22593 18.6084 3.33545 17.3739 3.33545 15.8862C3.33545 12.6892 3.33545 9.46049 3.33545 6.26347C3.33545 4.77575 4.22593 3.54126 5.29975 3.54126Z" fill="#F7E8B9"/>
<path fill-rule="evenodd" clip-rule="evenodd" d="M5.64002 3.92114C34.1093 3.92114 62.6048 3.92114 91.074 3.92114C92.1217 3.92114 93.0121 5.15563 93.0121 6.61169C93.0121 9.58712 93.0121 12.5625 93.0121 15.538C93.0121 16.994 92.1217 18.2285 91.074 18.2285C62.6048 18.2285 34.1093 18.2285 5.64002 18.2285C4.59239 18.2285 3.7019 17.0257 3.7019 15.538C3.7019 12.5625 3.7019 9.58712 3.7019 6.61169C3.7019 5.12397 4.5662 3.92114 5.64002 3.92114Z" fill="#F7E7B6"/>
<path fill-rule="evenodd" clip-rule="evenodd" d="M5.98053 4.33252C34.2403 4.33252 62.4739 4.33252 90.7336 4.33252C91.7813 4.33252 92.6456 5.5037 92.6456 6.95976C92.6456 9.71361 92.6456 12.4358 92.6456 15.1897C92.6456 16.6457 91.7813 17.8169 90.7336 17.8169C62.4739 17.8169 34.2403 17.8169 5.98053 17.8169C4.9329 17.8169 4.0686 16.6457 4.0686 15.1897C4.0686 12.4358 4.0686 9.71361 4.0686 6.95976C4.0686 5.5037 4.9329 4.33252 5.98053 4.33252Z" fill="#F6E6B3"/>
<path fill-rule="evenodd" clip-rule="evenodd" d="M6.32103 4.7124C34.3451 4.7124 62.3691 4.7124 90.3931 4.7124C91.4146 4.7124 92.2789 5.88357 92.2789 7.33962C92.2789 9.84023 92.2789 12.3092 92.2789 14.8098C92.2789 16.2658 91.4146 17.437 90.3931 17.437C62.3691 17.437 34.3451 17.437 6.32103 17.437C5.2996 17.437 4.4353 16.2658 4.4353 14.8098C4.4353 12.3092 4.4353 9.84023 4.4353 7.33962C4.4353 5.88357 5.2996 4.7124 6.32103 4.7124Z" fill="#F6E5AF"/>
<path fill-rule="evenodd" clip-rule="evenodd" d="M6.66154 5.09229C34.4498 5.09229 62.2381 5.09229 90.0526 5.09229C91.0741 5.09229 91.9122 6.26346 91.9122 7.68786C91.9122 9.93525 91.9122 12.2143 91.9122 14.4617C91.9122 15.8861 91.0741 17.0573 90.0526 17.0573C62.2381 17.0573 34.4498 17.0573 6.66154 17.0573C5.6401 17.0573 4.802 15.8861 4.802 14.4617C4.802 12.2143 4.802 9.93525 4.802 7.68786C4.802 6.26346 5.6401 5.09229 6.66154 5.09229Z" fill="#F5E4AC"/>
<path fill-rule="evenodd" clip-rule="evenodd" d="M7.00205 5.50391H89.7123C90.7076 5.50391 91.5457 6.64341 91.5457 8.03614V14.1135C91.5457 15.5062 90.7076 16.6458 89.7123 16.6458H7.00205C6.0068 16.6458 5.1687 15.5062 5.1687 14.1135V8.03614C5.1687 6.64341 6.0068 5.50391 7.00205 5.50391Z" fill="#F5E3A9"/>
<path fill-rule="evenodd" clip-rule="evenodd" d="M93.667 17.1206C94.3218 17.1206 94.8456 17.8486 94.8456 18.7349C94.8456 19.6211 94.3218 20.3491 93.667 20.3491C93.0385 20.3491 92.5146 19.6211 92.5146 18.7349C92.5146 17.8486 93.0385 17.1206 93.667 17.1206Z" fill="white"/>
<path fill-rule="evenodd" clip-rule="evenodd" d="M91.8861 18.7666C92.2265 18.7666 92.5146 19.1781 92.5146 19.6528C92.5146 20.1276 92.2265 20.5074 91.8861 20.5074C91.5456 20.5074 91.2576 20.1276 91.2576 19.6528C91.2576 19.1781 91.5456 18.7666 91.8861 18.7666Z" fill="white"/>
<path fill-rule="evenodd" clip-rule="evenodd" d="M4.94669 3.47803H91.7691C92.8473 3.47803 93.7457 4.23771 93.7457 5.15566V16.7092C93.7457 17.6272 92.8473 18.3868 91.7691 18.3868H4.94669C3.86852 18.3868 3 17.6272 3 16.7092V5.15566C3 4.23771 3.86852 3.47803 4.94669 3.47803Z" fill="#EFB469"/>
<path fill-rule="evenodd" clip-rule="evenodd" d="M5.69563 4.26953H91.0207C92.0689 4.26953 92.9374 5.02921 92.9374 5.91551V16.4561C92.9374 17.374 92.0689 18.1021 91.0207 18.1021H5.69563C4.64741 18.1021 3.80884 17.374 3.80884 16.4561V5.91551C3.80884 5.02921 4.64741 4.26953 5.69563 4.26953Z" fill="#F1C383"/>
<path fill-rule="evenodd" clip-rule="evenodd" d="M5.78547 5.21899C34.1772 5.21899 62.569 5.21899 90.9607 5.21899C91.979 5.21899 92.8176 5.94702 92.8176 6.83331C92.8176 10.0303 92.8176 13.2589 92.8176 16.4559C92.8176 17.3422 91.979 18.0702 90.9607 18.0702C62.569 18.0702 34.1772 18.0702 5.78547 18.0702C4.73726 18.0702 3.89868 17.3422 3.89868 16.4559C3.89868 13.2589 3.89868 10.0303 3.89868 6.83331C3.89868 5.94702 4.73726 5.21899 5.78547 5.21899Z" fill="#F1C585"/>
<path fill-rule="evenodd" clip-rule="evenodd" d="M5.8754 6.16846C34.2072 6.16846 62.539 6.16846 90.8709 6.16846C91.8891 6.16846 92.7277 6.86483 92.7277 7.75112C92.7277 10.6632 92.7277 13.5437 92.7277 16.4241C92.7277 17.3104 91.8891 18.0385 90.8709 18.0385C62.539 18.0385 34.2072 18.0385 5.8754 18.0385C4.85713 18.0385 4.01855 17.3104 4.01855 16.4241C4.01855 13.5437 4.01855 10.6632 4.01855 7.75112C4.01855 6.86483 4.85713 6.16846 5.8754 6.16846Z" fill="#F1C786"/>
<path fill-rule="evenodd" clip-rule="evenodd" d="M5.96524 7.08643C34.2372 7.08643 62.5091 7.08643 90.781 7.08643C91.7993 7.08643 92.6079 7.81445 92.6079 8.66909C92.6079 11.2647 92.6079 13.8286 92.6079 16.4242C92.6079 17.2788 91.7693 18.0068 90.781 18.0068C62.5091 18.0068 34.2372 18.0068 5.96524 18.0068C4.94697 18.0068 4.1084 17.2788 4.1084 16.4242C4.1084 13.8286 4.1084 11.2647 4.1084 8.66909C4.1084 7.81445 4.94697 7.08643 5.96524 7.08643Z" fill="#F2CA88"/>
<path fill-rule="evenodd" clip-rule="evenodd" d="M6.02497 8.03613C34.267 8.03613 62.479 8.03613 90.691 8.03613C91.6794 8.03613 92.488 8.7325 92.488 9.58714C92.488 11.8662 92.488 14.1452 92.488 16.3926C92.488 17.2789 91.6794 17.9752 90.691 17.9752C62.479 17.9752 34.267 17.9752 6.02497 17.9752C5.03665 17.9752 4.22803 17.2789 4.22803 16.3926C4.22803 14.1452 4.22803 11.8662 4.22803 9.58714C4.22803 8.7325 5.03665 8.03613 6.02497 8.03613Z" fill="#F2CC8A"/>
<path fill-rule="evenodd" clip-rule="evenodd" d="M6.11482 8.98584C34.2969 8.98584 62.449 8.98584 90.6012 8.98584C91.5895 8.98584 92.3981 9.68222 92.3981 10.5052C92.3981 12.4678 92.3981 14.4303 92.3981 16.3928C92.3981 17.2475 91.5895 17.9438 90.6012 17.9438C62.449 17.9438 34.2969 17.9438 6.11482 17.9438C5.1265 17.9438 4.31787 17.2475 4.31787 16.3928C4.31787 14.4303 4.31787 12.4678 4.31787 10.5052C4.31787 9.65057 5.1265 8.98584 6.11482 8.98584Z" fill="#F2CE8B"/>
<path fill-rule="evenodd" clip-rule="evenodd" d="M6.20474 9.90356C34.297 9.90356 62.4191 9.90356 90.5114 9.90356C91.4997 9.90356 92.2784 10.5999 92.2784 11.4229C92.2784 13.0689 92.2784 14.7149 92.2784 16.3926C92.2784 17.2156 91.4997 17.912 90.5114 17.912C62.4191 17.912 34.297 17.912 6.20474 17.912C5.24637 17.912 4.43774 17.2156 4.43774 16.3926C4.43774 14.7149 4.43774 13.0689 4.43774 11.4229C4.43774 10.5999 5.24637 9.90356 6.20474 9.90356Z" fill="#F2D08D"/>
<path fill-rule="evenodd" clip-rule="evenodd" d="M6.29442 10.8535C34.3267 10.8535 62.389 10.8535 90.4214 10.8535C91.4097 10.8535 92.1883 11.5182 92.1883 12.3412C92.1883 13.7023 92.1883 15.0317 92.1883 16.3611C92.1883 17.1841 91.3797 17.8805 90.4214 17.8805C62.389 17.8805 34.3267 17.8805 6.29442 17.8805C5.33605 17.8805 4.55737 17.1841 4.55737 16.3611C4.55737 15.0317 4.55737 13.7023 4.55737 12.3412C4.55737 11.5182 5.33605 10.8535 6.29442 10.8535Z" fill="#F2D28E"/>
<path fill-rule="evenodd" clip-rule="evenodd" d="M6.38426 11.8027C34.3567 11.8027 62.3591 11.8027 90.3615 11.8027C91.2899 11.8027 92.0686 12.4675 92.0686 13.2904C92.0686 14.3033 92.0686 15.3162 92.0686 16.3608C92.0686 17.1521 91.2899 17.8485 90.3615 17.8485C62.3591 17.8485 34.3567 17.8485 6.38426 17.8485C5.42589 17.8485 4.64722 17.1521 4.64722 16.3608C4.64722 15.3162 4.64722 14.3033 4.64722 13.2904C4.64722 12.4675 5.42589 11.8027 6.38426 11.8027Z" fill="#F2D490"/>
<path fill-rule="evenodd" clip-rule="evenodd" d="M6.47419 12.7207C34.3868 12.7207 62.3293 12.7207 90.2718 12.7207C91.2002 12.7207 91.9789 13.3854 91.9789 14.2084C91.9789 14.9048 91.9789 15.6328 91.9789 16.3292C91.9789 17.1522 91.2002 17.8169 90.2718 17.8169C62.3293 17.8169 34.3868 17.8169 6.47419 17.8169C5.51582 17.8169 4.76709 17.1522 4.76709 16.3292C4.76709 15.6328 4.76709 14.9048 4.76709 14.2084C4.76709 13.3854 5.51582 12.7207 6.47419 12.7207Z" fill="#F3D792"/>
<path fill-rule="evenodd" clip-rule="evenodd" d="M6.53433 13.6704C34.4169 13.6704 62.2995 13.6704 90.1821 13.6704C91.1105 13.6704 91.8592 14.3351 91.8592 15.1265C91.8592 15.5063 91.8592 15.9178 91.8592 16.3293C91.8592 17.1207 91.1105 17.7854 90.1821 17.7854C62.2995 17.7854 34.4169 17.7854 6.53433 17.7854C5.63585 17.7854 4.85718 17.1207 4.85718 16.3293C4.85718 15.9178 4.85718 15.5063 4.85718 15.1265C4.85718 14.3035 5.63585 13.6704 6.53433 13.6704Z" fill="#F3D993"/>
<path fill-rule="evenodd" clip-rule="evenodd" d="M6.62425 14.5884H90.0923C91.0207 14.5884 91.7694 15.2531 91.7694 16.0444V16.2977C91.7694 17.089 90.9908 17.722 90.0923 17.722H6.62425C5.72578 17.722 4.97705 17.089 4.97705 16.2977V16.0444C4.97705 15.2531 5.72578 14.5884 6.62425 14.5884Z" fill="#F3DB95"/>
</svg>
