<svg width="171" height="166" viewBox="0 0 171 166" fill="none" xmlns="http://www.w3.org/2000/svg">
<path fill-rule="evenodd" clip-rule="evenodd" d="M8.27623 27.5381H164.058C167.62 27.5381 170.528 31.0516 170.528 35.3564V158.045C170.528 162.349 167.62 165.863 164.058 165.863H8.27623C4.71429 165.863 1.80713 162.349 1.80713 158.045V35.3564C1.80713 31.0516 4.71429 27.5381 8.27623 27.5381Z" fill="black" fill-opacity="0.101961"/>
<path fill-rule="evenodd" clip-rule="evenodd" d="M6.4691 25.0693H162.277C165.813 25.0693 168.747 28.5828 168.747 32.8877V155.576C168.747 159.881 165.813 163.394 162.277 163.394H6.4691C2.90717 163.394 0 159.881 0 155.576V32.8877C0 28.5828 2.90717 25.0693 6.4691 25.0693Z" fill="#E6E6E6"/>
<path fill-rule="evenodd" clip-rule="evenodd" d="M6.4691 23.4551H162.277C165.813 23.4551 168.747 26.9686 168.747 31.2734V153.962C168.747 158.266 165.813 161.78 162.277 161.78H6.4691C2.90717 161.78 0 158.266 0 153.962V31.2734C0 26.9686 2.90717 23.4551 6.4691 23.4551Z" fill="white"/>
<path fill-rule="evenodd" clip-rule="evenodd" d="M10.5287 28.6777H159.056C162.409 28.6777 165.159 32.0013 165.159 36.053V149.783C165.159 153.835 162.409 157.158 159.056 157.158H10.5287C7.17629 157.158 4.42627 153.835 4.42627 149.783V36.053C4.42627 32.0013 7.17629 28.6777 10.5287 28.6777Z" fill="#E6E6E6"/>
<path fill-rule="evenodd" clip-rule="evenodd" d="M9.1145 27.7285H157.878C161.204 27.7285 163.928 31.0205 163.928 35.0404V147.789C163.928 151.809 161.204 155.101 157.878 155.101H9.1145C5.78829 155.101 3.06445 151.809 3.06445 147.789V35.0404C3.06445 31.0205 5.78829 27.7285 9.1145 27.7285Z" fill="#F1C383"/>
<path fill-rule="evenodd" clip-rule="evenodd" d="M9.03593 25.7974H156.594C159.868 25.7974 162.566 29.026 162.566 33.0143V143.548C162.566 147.536 159.868 150.765 156.594 150.765H9.03593C5.76209 150.765 3.06445 147.536 3.06445 143.548V33.0143C3.06445 29.026 5.76209 25.7974 9.03593 25.7974Z" fill="#FAEECC"/>
<path fill-rule="evenodd" clip-rule="evenodd" d="M10.0047 26.7471C58.5361 26.7471 107.094 26.7471 155.625 26.7471C158.873 26.7471 161.518 29.9757 161.518 33.8691C161.518 70.1437 161.518 106.418 161.518 142.693C161.518 146.618 158.873 149.815 155.625 149.815C107.094 149.815 58.5361 149.815 10.0047 149.815C6.75708 149.815 4.11182 146.618 4.11182 142.693C4.11182 106.418 4.11182 70.1437 4.11182 33.8691C4.11182 29.9441 6.75708 26.7471 10.0047 26.7471Z" fill="#FAEDC9"/>
<path fill-rule="evenodd" clip-rule="evenodd" d="M10.9476 27.7285C58.8504 27.7285 106.779 27.7285 154.682 27.7285C157.877 27.7285 160.496 30.8938 160.496 34.7555C160.496 70.4288 160.496 106.134 160.496 141.807C160.496 145.7 157.877 148.866 154.682 148.866C106.779 148.866 58.8504 148.866 10.9476 148.866C7.75237 148.866 5.1333 145.7 5.1333 141.807C5.1333 106.134 5.1333 70.4288 5.1333 34.7555C5.1333 30.8938 7.75237 27.7285 10.9476 27.7285Z" fill="#F9ECC6"/>
<path fill-rule="evenodd" clip-rule="evenodd" d="M11.9164 28.6777C59.1906 28.6777 106.439 28.6777 153.713 28.6777C156.856 28.6777 159.449 31.8114 159.449 35.6098C159.449 70.7133 159.449 105.848 159.449 140.952C159.449 144.75 156.856 147.884 153.713 147.884C106.439 147.884 59.1906 147.884 11.9164 147.884C8.74735 147.884 6.18066 144.75 6.18066 140.952C6.18066 105.848 6.18066 70.7133 6.18066 35.6098C6.18066 31.8114 8.74735 28.6777 11.9164 28.6777Z" fill="#F9EBC2"/>
<path fill-rule="evenodd" clip-rule="evenodd" d="M12.8855 29.6274C59.505 29.6274 106.124 29.6274 152.744 29.6274C155.86 29.6274 158.427 32.7295 158.427 36.4962C158.427 71.0299 158.427 105.532 158.427 140.066C158.427 143.832 155.86 146.935 152.744 146.935C106.124 146.935 59.505 146.935 12.8855 146.935C9.76884 146.935 7.20215 143.832 7.20215 140.066C7.20215 105.532 7.20215 71.0299 7.20215 36.4962C7.20215 32.7295 9.76884 29.6274 12.8855 29.6274Z" fill="#F8EABF"/>
<path fill-rule="evenodd" clip-rule="evenodd" d="M13.8548 30.6089C59.8195 30.6089 105.81 30.6089 151.775 30.6089C154.865 30.6089 157.38 33.6476 157.38 37.351C157.38 71.315 157.38 105.247 157.38 139.211C157.38 142.915 154.865 145.985 151.775 145.985C105.81 145.985 59.8195 145.985 13.8548 145.985C10.7643 145.985 8.25 142.915 8.25 139.211C8.25 105.247 8.25 71.315 8.25 37.351C8.25 33.6476 10.7643 30.6089 13.8548 30.6089Z" fill="#F8E9BC"/>
<path fill-rule="evenodd" clip-rule="evenodd" d="M14.7977 31.5586C60.1338 31.5586 105.47 31.5586 150.806 31.5586C153.87 31.5586 156.358 34.5657 156.358 38.2374C156.358 71.6 156.358 104.963 156.358 138.325C156.358 141.997 153.87 145.004 150.806 145.004C105.47 145.004 60.1338 145.004 14.7977 145.004C11.7596 145.004 9.27148 141.997 9.27148 138.325C9.27148 104.963 9.27148 71.6 9.27148 38.2374C9.27148 34.5657 11.7596 31.5586 14.7977 31.5586Z" fill="#F7E8B9"/>
<path fill-rule="evenodd" clip-rule="evenodd" d="M15.7665 32.5078C60.474 32.5078 105.155 32.5078 149.863 32.5078C152.849 32.5078 155.311 35.4832 155.311 39.0917C155.311 71.8845 155.311 104.677 155.311 137.47C155.311 141.079 152.849 144.054 149.863 144.054C105.155 144.054 60.474 144.054 15.7665 144.054C12.7808 144.054 10.3188 141.079 10.3188 137.47C10.3188 104.677 10.3188 71.8845 10.3188 39.0917C10.3188 35.4832 12.7808 32.5078 15.7665 32.5078Z" fill="#F7E7B6"/>
<path fill-rule="evenodd" clip-rule="evenodd" d="M16.7356 33.4575C60.7884 33.4575 104.841 33.4575 148.894 33.4575C151.853 33.4575 154.289 36.4013 154.289 39.9781C154.289 72.1695 154.289 104.393 154.289 136.584C154.289 140.161 151.853 143.105 148.894 143.105C104.841 143.105 60.7884 143.105 16.7356 143.105C13.7761 143.105 11.3403 140.161 11.3403 136.584C11.3403 104.393 11.3403 72.1695 11.3403 39.9781C11.3403 36.4013 13.7761 33.4575 16.7356 33.4575Z" fill="#F6E6B3"/>
<path fill-rule="evenodd" clip-rule="evenodd" d="M17.7049 34.439C61.1029 34.439 104.527 34.439 147.925 34.439C150.858 34.439 153.242 37.3194 153.242 40.8646C153.242 72.4862 153.242 104.108 153.242 135.729C153.242 139.243 150.858 142.123 147.925 142.123C104.527 142.123 61.1029 142.123 17.7049 142.123C14.7715 142.123 12.3882 139.243 12.3882 135.729C12.3882 104.108 12.3882 72.4862 12.3882 40.8646C12.3882 37.3194 14.7715 34.439 17.7049 34.439Z" fill="#F6E5AF"/>
<path fill-rule="evenodd" clip-rule="evenodd" d="M18.6737 35.3882C61.4431 35.3882 104.186 35.3882 146.956 35.3882C149.837 35.3882 152.194 38.237 152.194 41.7188C152.194 72.7707 152.194 103.791 152.194 134.843C152.194 138.325 149.837 141.173 146.956 141.173C104.186 141.173 61.4431 141.173 18.6737 141.173C15.7927 141.173 13.4355 138.325 13.4355 134.843C13.4355 103.791 13.4355 72.7707 13.4355 41.7188C13.4355 38.237 15.7927 35.3882 18.6737 35.3882Z" fill="#F5E4AC"/>
<path fill-rule="evenodd" clip-rule="evenodd" d="M19.6166 36.3379H146.013C148.841 36.3379 151.172 39.155 151.172 42.6052V133.957C151.172 137.407 148.841 140.224 146.013 140.224H19.6166C16.788 140.224 14.457 137.407 14.457 133.957V42.6052C14.457 39.155 16.788 36.3379 19.6166 36.3379Z" fill="#F5E3A9"/>
<path fill-rule="evenodd" clip-rule="evenodd" d="M157.616 140.382C159.449 140.382 160.916 142.155 160.916 144.339C160.916 146.555 159.449 148.327 157.616 148.327C155.808 148.327 154.342 146.555 154.342 144.339C154.342 142.155 155.808 140.382 157.616 140.382Z" fill="white"/>
<path fill-rule="evenodd" clip-rule="evenodd" d="M152.613 144.434C153.582 144.434 154.368 145.415 154.368 146.586C154.368 147.758 153.582 148.707 152.613 148.707C151.618 148.707 150.832 147.758 150.832 146.586C150.832 145.415 151.618 144.434 152.613 144.434Z" fill="white"/>
<path fill-rule="evenodd" clip-rule="evenodd" d="M9.48089 27.6016C12.2833 27.6016 14.5619 30.3554 14.5619 33.7423C14.5619 37.1292 12.2833 39.883 9.48089 39.883C6.67849 39.883 4.3999 37.1292 4.3999 33.7423C4.3999 30.3554 6.67849 27.6016 9.48089 27.6016Z" fill="white"/>
<path fill-rule="evenodd" clip-rule="evenodd" d="M17.3122 26.8735C18.8574 26.8735 20.1146 28.3929 20.1146 30.2604C20.1146 32.1596 18.8574 33.679 17.3122 33.679C15.7669 33.679 14.5098 32.1596 14.5098 30.2604C14.5098 28.3929 15.7669 26.8735 17.3122 26.8735Z" fill="white"/>
<path fill-rule="evenodd" clip-rule="evenodd" d="M10.843 41.7822H153.739C156.175 41.7822 158.166 44.1879 158.166 47.1316V137.533C158.166 140.477 156.175 142.883 153.739 142.883H10.843C8.40731 142.883 6.39062 140.477 6.39062 137.533V47.1316C6.39062 44.1879 8.40731 41.7822 10.843 41.7822Z" fill="#EFB469"/>
<path fill-rule="evenodd" clip-rule="evenodd" d="M12.5454 44.3462H152.011C154.368 44.3462 156.306 46.6885 156.306 49.5373V136.774C156.306 139.622 154.368 141.965 152.011 141.965H12.5454C10.1883 141.965 8.27637 139.622 8.27637 136.774V49.5373C8.27637 46.6885 10.1883 44.3462 12.5454 44.3462Z" fill="#F1C383"/>
<path fill-rule="evenodd" clip-rule="evenodd" d="M12.7551 45.3271C59.1126 45.3271 105.47 45.3271 151.801 45.3271C154.132 45.3271 156.044 47.6378 156.044 50.455C156.044 79.1962 156.044 107.969 156.044 136.71C156.044 139.527 154.132 141.838 151.801 141.838C105.47 141.838 59.1126 141.838 12.7551 141.838C10.4241 141.838 8.51221 139.527 8.51221 136.71C8.51221 107.969 8.51221 79.1962 8.51221 50.455C8.51221 47.6378 10.4241 45.3271 12.7551 45.3271Z" fill="#F1C585"/>
<path fill-rule="evenodd" clip-rule="evenodd" d="M12.9644 46.3398C59.1648 46.3398 105.391 46.3398 151.618 46.3398C153.923 46.3398 155.808 48.6189 155.808 51.4044C155.808 79.829 155.808 108.254 155.808 136.678C155.808 139.464 153.923 141.743 151.618 141.743C105.391 141.743 59.1648 141.743 12.9644 141.743C10.6597 141.743 8.77393 139.464 8.77393 136.678C8.77393 108.254 8.77393 79.829 8.77393 51.4044C8.77393 48.6189 10.6597 46.3398 12.9644 46.3398Z" fill="#F1C786"/>
<path fill-rule="evenodd" clip-rule="evenodd" d="M13.1479 47.3213C59.2435 47.3213 105.339 47.3213 151.409 47.3213C153.687 47.3213 155.547 49.5687 155.547 52.3225C155.547 80.4306 155.547 108.539 155.547 136.615C155.547 139.369 153.687 141.648 151.409 141.648C105.339 141.648 59.2435 141.648 13.1479 141.648C10.8693 141.648 9.00977 139.369 9.00977 136.615C9.00977 108.539 9.00977 80.4306 9.00977 52.3225C9.00977 49.5687 10.8693 47.3213 13.1479 47.3213Z" fill="#F2CA88"/>
<path fill-rule="evenodd" clip-rule="evenodd" d="M13.3577 48.3027C59.3224 48.3027 105.261 48.3027 151.226 48.3027C153.478 48.3027 155.311 50.5501 155.311 53.2723C155.311 81.0322 155.311 108.792 155.311 136.584C155.311 139.306 153.478 141.522 151.226 141.522C105.261 141.522 59.3224 141.522 13.3577 141.522C11.1053 141.522 9.27197 139.306 9.27197 136.584C9.27197 108.792 9.27197 81.0322 9.27197 53.2723C9.27197 50.5501 11.1053 48.3027 13.3577 48.3027Z" fill="#F2CC8A"/>
<path fill-rule="evenodd" clip-rule="evenodd" d="M13.5669 49.3154C59.3744 49.3154 105.182 49.3154 151.016 49.3154C153.242 49.3154 155.049 51.4995 155.049 54.19C155.049 81.6334 155.049 109.077 155.049 136.52C155.049 139.211 153.242 141.427 151.016 141.427C105.182 141.427 59.3744 141.427 13.5669 141.427C11.3407 141.427 9.50732 139.211 9.50732 136.52C9.50732 109.077 9.50732 81.6334 9.50732 54.19C9.50732 51.4995 11.3407 49.3154 13.5669 49.3154Z" fill="#F2CE8B"/>
<path fill-rule="evenodd" clip-rule="evenodd" d="M13.7505 50.2969C59.4533 50.2969 105.13 50.2969 150.806 50.2969C153.006 50.2969 154.814 52.481 154.814 55.1398C154.814 82.235 154.814 109.362 154.814 136.489C154.814 139.148 153.006 141.332 150.806 141.332C105.13 141.332 59.4533 141.332 13.7505 141.332C11.5505 141.332 9.76953 139.148 9.76953 136.489C9.76953 109.362 9.76953 82.235 9.76953 55.1398C9.76953 52.481 11.5505 50.2969 13.7505 50.2969Z" fill="#F2D08D"/>
<path fill-rule="evenodd" clip-rule="evenodd" d="M13.9597 51.2778C59.5053 51.2778 105.051 51.2778 150.623 51.2778C152.797 51.2778 154.551 53.4303 154.551 56.0575C154.551 82.8362 154.551 109.647 154.551 136.425C154.551 139.052 152.797 141.205 150.623 141.205C105.051 141.205 59.5053 141.205 13.9597 141.205C11.7858 141.205 10.0049 139.052 10.0049 136.425C10.0049 109.647 10.0049 82.8362 10.0049 56.0575C10.0049 53.4303 11.7858 51.2778 13.9597 51.2778Z" fill="#F2D28E"/>
<path fill-rule="evenodd" clip-rule="evenodd" d="M14.1695 52.291C59.5842 52.291 104.999 52.291 150.413 52.291C152.561 52.291 154.316 54.4118 154.316 56.9757C154.316 83.4695 154.316 109.932 154.316 136.394C154.316 138.989 152.561 141.11 150.413 141.11C104.999 141.11 59.5842 141.11 14.1695 141.11C12.0219 141.11 10.2671 138.989 10.2671 136.394C10.2671 109.932 10.2671 83.4695 10.2671 56.9757C10.2671 54.4118 12.0219 52.291 14.1695 52.291Z" fill="#F2D490"/>
<path fill-rule="evenodd" clip-rule="evenodd" d="M14.353 53.272C59.6367 53.272 104.92 53.272 150.204 53.272C152.325 53.272 154.054 55.3611 154.054 57.925C154.054 84.0706 154.054 110.216 154.054 136.33C154.054 138.894 152.325 140.983 150.204 140.983C104.92 140.983 59.6367 140.983 14.353 140.983C12.2315 140.983 10.5029 138.894 10.5029 136.33C10.5029 110.216 10.5029 84.0706 10.5029 57.925C10.5029 55.3611 12.2315 53.272 14.353 53.272Z" fill="#F3D792"/>
<path fill-rule="evenodd" clip-rule="evenodd" d="M14.5623 54.2534C59.715 54.2534 104.868 54.2534 150.021 54.2534C152.116 54.2534 153.818 56.3425 153.818 58.8431C153.818 84.6722 153.818 110.47 153.818 136.299C153.818 138.831 152.116 140.888 150.021 140.888C104.868 140.888 59.715 140.888 14.5623 140.888C12.467 140.888 10.7646 138.831 10.7646 136.299C10.7646 110.47 10.7646 84.6722 10.7646 58.8431C10.7646 56.3425 12.467 54.2534 14.5623 54.2534Z" fill="#F3D993"/>
<path fill-rule="evenodd" clip-rule="evenodd" d="M14.7453 55.2666H149.811C151.88 55.2666 153.582 57.2924 153.582 59.793V136.236C153.582 138.736 151.88 140.794 149.811 140.794H14.7453C12.7024 140.794 11 138.736 11 136.236V59.793C11 57.2924 12.7024 55.2666 14.7453 55.2666Z" fill="#F3DB95"/>
<path fill-rule="evenodd" clip-rule="evenodd" d="M41.0149 45.359C41.0149 45.4857 40.9887 45.6123 40.9887 45.7389C40.9887 45.7705 40.9887 45.7705 40.9887 45.8022C40.9626 45.8972 40.9626 45.9921 40.9364 46.0554C40.9364 46.1187 40.9102 46.1504 40.9102 46.182C40.884 46.2453 40.884 46.3086 40.8578 46.372C40.8316 46.4036 40.8054 46.4353 40.8054 46.4669C40.7792 46.5302 40.753 46.5619 40.7268 46.6252C40.7268 46.6568 40.7006 46.6885 40.6745 46.7201C40.6483 46.7518 40.6221 46.8151 40.5959 46.8468C40.5697 46.8784 40.5435 46.9101 40.5173 46.9101C40.4911 46.9734 40.4387 47.005 40.4126 47.0367C40.3864 47.0683 40.3602 47.0683 40.3078 47.1C40.2816 47.1316 40.2292 47.1633 40.203 47.1949C40.1768 47.2266 40.1245 47.2266 40.0983 47.2582C40.0459 47.2899 40.0197 47.2899 39.9673 47.3216C39.9149 47.3216 39.8887 47.3532 39.8364 47.3532C39.784 47.3849 39.7578 47.4165 39.7054 47.4165C39.653 47.4165 39.6268 47.4482 39.5744 47.4482C39.5221 47.4482 39.4697 47.4798 39.3911 47.4798C39.3649 47.4798 39.3125 47.5115 39.2864 47.5115C39.2078 47.5115 39.1554 47.5115 39.0768 47.5431C39.0244 47.5431 38.9983 47.5431 38.9459 47.5431C38.8673 47.5431 38.8149 47.5431 38.7363 47.5431C38.684 47.5431 38.6316 47.5431 38.5792 47.5431C38.5268 47.5431 38.4482 47.5431 38.3697 47.5431H38.2125C38.134 47.5115 38.0554 47.5115 37.9768 47.5115L37.8197 47.4798C37.7411 47.4798 37.6363 47.4798 37.5578 47.4482H37.4006C37.2959 47.4165 37.1911 47.4165 37.1125 47.3849L36.9554 47.3532C36.8506 47.3532 36.7459 47.3216 36.6411 47.2899L36.4839 47.2582C36.3792 47.2582 36.2744 47.2266 36.1697 47.1949L35.9863 47.1633C35.8816 47.1316 35.7506 47.1 35.6197 47.0683L35.5149 47.0367L35.0958 46.9417L34.9911 46.9101C31.7172 46.0554 27.422 44.5044 22.9434 43.808V43.7764C22.21 43.6814 21.5029 43.5865 20.7695 43.5232H20.7433C20.5076 43.4915 20.2719 43.4915 20.0362 43.4598H20.01C19.7743 43.4598 19.5386 43.4282 19.3029 43.4282H19.2767C14.4052 43.2383 9.58611 44.5044 5.86703 49.0625L5.76227 49.1891V49.2208C5.57894 49.4107 5.42179 49.6322 5.26465 49.8538C7.75276 37.1292 12.4147 33.2991 18.3338 29.659L18.1243 29.4374L17.3909 28.6777H148.868L148.135 29.4374L147.925 29.659C153.818 33.2991 158.506 37.1292 160.994 49.8538C160.837 49.6322 160.654 49.4107 160.497 49.2208V49.1891L160.392 49.0625H160.366C156.647 44.5044 151.854 43.2383 146.982 43.4282H146.956C146.721 43.4282 146.459 43.4598 146.223 43.4598C145.987 43.4915 145.751 43.4915 145.516 43.5232H145.49C144.756 43.5865 144.023 43.6814 143.316 43.7764L143.29 43.808C138.811 44.5044 134.516 46.0554 131.242 46.9101L131.137 46.9417L130.718 47.0367L130.613 47.0683C130.509 47.1 130.378 47.1316 130.273 47.1633L130.089 47.1949C129.985 47.2266 129.88 47.2582 129.775 47.2582L129.618 47.2899C129.513 47.3216 129.409 47.3532 129.304 47.3532L129.147 47.3849C129.042 47.4165 128.963 47.4165 128.858 47.4482H128.701C128.623 47.4798 128.518 47.4798 128.439 47.4798L128.282 47.5115C128.204 47.5115 128.125 47.5115 128.02 47.5431H127.889C127.811 47.5431 127.732 47.5431 127.654 47.5431C127.601 47.5431 127.575 47.5431 127.523 47.5431C127.444 47.5431 127.366 47.5431 127.313 47.5431C127.261 47.5431 127.208 47.5431 127.182 47.5431C127.104 47.5115 127.051 47.5115 126.973 47.5115C126.92 47.5115 126.894 47.4798 126.842 47.4798C126.789 47.4798 126.737 47.4482 126.685 47.4482C126.632 47.4482 126.606 47.4165 126.554 47.4165C126.501 47.4165 126.449 47.3849 126.397 47.3532C126.37 47.3532 126.318 47.3216 126.292 47.3216C126.239 47.2899 126.213 47.2899 126.161 47.2582C126.135 47.2266 126.082 47.2266 126.056 47.1949C126.004 47.1633 125.978 47.1316 125.925 47.1C125.899 47.0683 125.873 47.0683 125.847 47.0367C125.794 47.005 125.768 46.9734 125.742 46.9101C125.716 46.9101 125.689 46.8784 125.663 46.8468C125.637 46.8151 125.611 46.7518 125.585 46.7201C125.558 46.6885 125.532 46.6568 125.506 46.6252C125.48 46.5619 125.48 46.5302 125.454 46.4669C125.428 46.4353 125.428 46.4036 125.401 46.372C125.375 46.3086 125.375 46.2453 125.349 46.182C125.349 46.1504 125.323 46.1187 125.323 46.0554C125.297 45.9921 125.297 45.8972 125.27 45.8022C125.27 45.7705 125.27 45.7705 125.27 45.7389C125.244 45.6123 125.244 45.4857 125.244 45.359V42.3836V36.3062H125.218L124.956 36.2429H124.93H124.904H124.878H124.851H124.825L124.799 36.2112H124.773H124.747H124.72L124.066 36.0846H124.039H124.013H123.987L123.437 35.9897H123.411C123.07 35.9264 122.704 35.863 122.337 35.7997H122.311H122.285L121.761 35.7048H121.735H121.708H121.682H121.656L121.106 35.6098H121.08H121.054H121.027H121.001H120.975H120.949H120.923H120.897L120.268 35.5149H120.242H120.216L120.189 35.4832C119.823 35.4516 119.456 35.3882 119.089 35.3566H119.063H119.037L118.408 35.2616L117.492 35.1667L116.863 35.0717H116.837H116.811H116.785C116.392 35.0401 115.999 34.9767 115.58 34.9451H115.554H115.501H115.475L114.82 34.8501H114.794H114.768H114.742H114.716H114.689H114.663H114.637L114.008 34.7868H113.982H113.956H113.93H113.904H113.877L113.851 34.7552L113.17 34.6919H113.144H113.118H113.092C112.673 34.6602 112.254 34.6286 111.835 34.5969H111.808L111.782 34.5653H111.756H111.73L110.996 34.5019L110.001 34.4386H109.975L109.268 34.3753H109.242H109.215H109.189H109.163C108.744 34.3437 108.299 34.312 107.88 34.2804H107.854H107.827H107.801H107.775H107.749L106.937 34.2171L106.02 34.1538H105.994L105.077 34.0905H105.051H105.025H104.999L103.715 34.0271H103.689H103.663H103.637L102.773 33.9638H102.72L101.777 33.9322L100.625 33.8689H100.599H100.573H100.546H100.52H100.494H100.468H100.442L100.415 33.8372L99.394 33.8056H99.3678H99.3416H99.3154H99.2892L98.4511 33.7739L97.4035 33.7423L96.2773 33.679L94.863 33.6473H94.8368L93.9987 33.6157L92.8725 33.584H91.9296C91.4844 33.5523 91.0391 33.5523 90.5939 33.5523H90.5677H90.5415H90.5153H90.4891H90.463H90.4368H90.4106H90.3844L89.4939 33.5207H89.4677H88.4725H88.4463H88.4201H88.3939H88.3677H88.3415L87.2415 33.489H87.2153H87.1891H87.1629H87.1367H87.1105H87.0844H87.0582H87.032H85.8534H84.9891H83.7581H83.7058H82.4486H81.3224H80.3795H79.2271H79.201L77.7867 33.5207H76.8176H76.7652L75.9009 33.5523H75.8747L74.5652 33.584H74.539H73.3342L72.2866 33.6157L71.3438 33.6473L70.1914 33.679H70.1652H70.139H70.1128L69.1437 33.7106H69.1175H69.0914H69.0652H69.039H69.0128L68.9866 33.7423H68.9604H68.9342H68.908H68.8818H68.8556L67.808 33.7739L66.9437 33.8056L65.7389 33.8689H65.7128L64.4032 33.9322L63.5913 33.9638L62.6223 34.0271H62.5961L61.6794 34.0588H61.6532H61.627H61.6008H61.5746L61.5484 34.0905H61.5222H61.4699H61.4437L60.4222 34.1538H60.396H60.3699H60.3437H60.3175H60.2913H60.2651H60.2389H60.2127H60.1865L59.3746 34.2171L58.4579 34.2804H58.4317H58.4056H58.3794H58.3532H58.327H58.3008H58.2746L57.2008 34.3753H57.1746H57.1484H57.1222H57.096H57.0698H57.0436H57.0174L56.2579 34.4386L55.2627 34.5019L55.2365 34.5336L54.5555 34.5653H54.5293H54.5031C54.0579 34.6286 53.6388 34.6602 53.2198 34.6919H53.1936H53.1674H53.1412H53.115L52.3817 34.7868H52.3555L51.5174 34.8501H51.4912L50.7317 34.9451H50.7055H50.6793H50.6531H50.6269C50.2341 34.9767 49.8674 35.0401 49.5007 35.0717H49.4483H49.4221L48.715 35.1667L47.9031 35.2616H47.8769L47.2221 35.3566H47.1959H47.1697C46.8031 35.3882 46.4364 35.4516 46.0697 35.4832L46.0435 35.5149H46.0174H45.9912L45.3626 35.6098H45.3364L44.5769 35.7048H44.5507H44.5245L44.4983 35.7364H44.4721L44.0007 35.7997H43.9745H43.9483H43.9221C43.5816 35.863 43.215 35.9264 42.8745 35.9897H42.8483H42.8221H42.7959H42.7697L42.3245 36.0846H42.2983H42.2721H42.2459H42.2197L41.5649 36.2112H41.5387H41.5126H41.4864L41.0149 36.3062V42.3836V45.359Z" fill="black" fill-opacity="0.101961"/>
<path fill-rule="evenodd" clip-rule="evenodd" d="M41.0149 42.4475C41.0149 50.9306 16.9457 30.894 5.26465 46.9423C8.11943 33.7428 11.9695 31.0206 18.3338 26.7474L8.64325 16.7134C18.4124 11.6172 35.803 23.772 41.0149 12.1553V42.4475Z" fill="#E54149"/>
<path fill-rule="evenodd" clip-rule="evenodd" d="M5.86703 46.1509C5.65751 46.4042 5.47417 46.6574 5.26465 46.9423C7.75276 34.2176 12.4147 30.3876 18.3338 26.7474C14.4838 32.8249 8.66944 35.2622 5.86703 46.1509ZM9.9004 18.0111L8.64325 16.7134C18.4124 11.6172 35.803 23.772 41.0149 12.1553V13.9912C36.0125 25.1331 19.8267 14.4343 9.9004 18.0111Z" fill="#FF6595"/>
<path fill-rule="evenodd" clip-rule="evenodd" d="M41.0149 42.4475C41.0149 50.9306 16.9457 30.894 5.26465 46.9423C13.5409 26.2727 41.0149 47.9235 41.0149 39.4721V42.4475Z" fill="#CF1922"/>
<path fill-rule="evenodd" clip-rule="evenodd" d="M31.5337 8.45166L41.0147 9.52787V42.4473C38.9195 32.8247 31.5337 42.0041 31.5337 37.2878V8.45166Z" fill="#E54149"/>
<path fill-rule="evenodd" clip-rule="evenodd" d="M31.5337 8.45166L41.0147 9.46456V42.4473C39.679 31.97 31.9004 41.3711 32.1099 35.7051L31.5337 8.45166Z" fill="#AB0009"/>
<path fill-rule="evenodd" clip-rule="evenodd" d="M125.244 42.4475C125.244 50.9306 149.313 30.894 160.994 46.9423C158.14 33.7428 154.263 31.0206 147.925 26.7474L157.616 16.7134C147.847 11.6172 130.456 23.772 125.244 12.1553V42.4475Z" fill="#E54149"/>
<path fill-rule="evenodd" clip-rule="evenodd" d="M125.244 42.4474C125.244 50.9305 149.313 30.894 160.994 46.9422C158.14 33.7428 154.263 31.0206 147.925 26.7475L148.135 26.5259C139.125 27.4755 129.016 31.4638 125.244 23.0757V42.4474Z" fill="url(#paint0_linear_425_107274)"/>
<path fill-rule="evenodd" clip-rule="evenodd" d="M160.366 46.1509C160.575 46.4042 160.785 46.6574 160.994 46.9423C158.506 34.2176 153.818 30.3876 147.925 26.7474C151.775 32.8249 157.59 35.2622 160.366 46.1509ZM156.359 18.0111L157.616 16.7134C147.847 11.6172 130.456 23.772 125.244 12.1553V13.9912C130.247 25.1331 146.406 14.4343 156.359 18.0111Z" fill="#FF6595"/>
<path fill-rule="evenodd" clip-rule="evenodd" d="M125.244 42.4475C125.244 50.9306 149.313 30.894 160.994 46.9423C152.692 26.2727 125.244 47.9235 125.244 39.4721V42.4475Z" fill="#CF1922"/>
<path fill-rule="evenodd" clip-rule="evenodd" d="M134.725 8.45166L125.244 9.52787V42.4473C127.339 32.8247 134.725 42.0041 134.725 37.2878V8.45166Z" fill="#E54149"/>
<path fill-rule="evenodd" clip-rule="evenodd" d="M134.725 8.45166L125.244 9.46456V42.4473C126.58 31.97 134.358 41.3711 134.149 35.7051L134.725 8.45166Z" fill="#AB0009"/>
<path fill-rule="evenodd" clip-rule="evenodd" d="M31.5337 8.45143C33.1051 -2.81714 133.154 -2.81714 134.751 8.45143V37.0977C129.33 28.393 36.929 28.393 31.5337 37.0977V8.45143Z" fill="#E54149"/>
<path fill-rule="evenodd" clip-rule="evenodd" d="M134.751 19.8783V37.0977C129.33 28.393 36.929 28.393 31.5337 37.0977V19.8783C48.3743 12.788 117.911 12.788 134.751 19.8783Z" fill="#E01B25"/>
<path fill-rule="evenodd" clip-rule="evenodd" d="M31.5601 8.388C33.6029 -2.78558 132.682 -2.78558 134.725 8.388C122.049 -0.000100804 44.2364 -0.000100804 31.5601 8.388Z" fill="#FF6595"/>
<path fill-rule="evenodd" clip-rule="evenodd" d="M134.751 35.4519V37.0978C129.33 28.3931 36.929 28.3931 31.5337 37.0978V35.4519C36.929 26.7472 129.33 26.7472 134.751 35.4519Z" fill="#C20F18"/>
<path d="M40.7656 20.9258L42.0645 18.0156C43.6855 19.0833 44.9421 19.6172 45.834 19.6172C46.1595 19.6172 46.4655 19.5228 46.752 19.334C47.0775 19.1257 47.2402 18.8685 47.2402 18.5625C47.2402 18.1003 46.638 17.7161 45.4336 17.4102C43.6758 16.9609 42.4909 16.0397 41.8789 14.6465C41.6771 14.1908 41.5762 13.7611 41.5762 13.3574C41.5762 12.3158 42.1035 11.528 43.1582 10.9941C43.985 10.5775 44.9714 10.3691 46.1172 10.3691C47.1328 10.3691 48.3242 10.5026 49.6914 10.7695L48.7637 13.543C47.735 13.0807 46.8952 12.8496 46.2441 12.8496C45.9512 12.8496 45.6582 12.9212 45.3652 13.0645C45.0137 13.2337 44.8379 13.4583 44.8379 13.7383C44.8379 14.0052 45.069 14.2852 45.5312 14.5781C45.8568 14.7865 46.4753 15.0697 47.3867 15.4277C48.1745 15.7402 48.7344 16.043 49.0664 16.3359C49.5677 16.7786 49.8346 17.3711 49.8672 18.1133C49.9258 19.3438 49.3594 20.4538 48.168 21.4434C47.6602 21.8665 46.918 22.0781 45.9414 22.0781C44.6328 22.0781 42.9076 21.694 40.7656 20.9258ZM54.5059 16.3066L53.9492 13.9531L53.3926 16.3555L54.5059 16.3066ZM52.9727 18.1719L52.084 22L49.5742 21.6094L52.7188 10.4375H55.1992L58.5391 21.0625L55.7852 21.7656L54.9453 18.1719H52.9727ZM58.3047 11.4922L60.7852 21.8242C61.1823 21.7721 61.5729 21.7461 61.957 21.7461C62.6406 21.7461 63.3014 21.8275 63.9395 21.9902L67.3672 10.8281L64.7109 10.6719L62.8164 16.9902L61.3516 10.6719L58.3047 11.4922ZM67.9141 10.3301L67.6602 22.0586L74.3984 22.1562L74.4668 19.1094H70.3555V17.5469L74.0957 17.625L74.1738 15.125H70.3555V13.4844L74.8477 13.5625L74.8379 10.418L67.9141 10.3301ZM80.5508 20.9258L81.8496 18.0156C83.4707 19.0833 84.7272 19.6172 85.6191 19.6172C85.9447 19.6172 86.2507 19.5228 86.5371 19.334C86.8626 19.1257 87.0254 18.8685 87.0254 18.5625C87.0254 18.1003 86.4232 17.7161 85.2188 17.4102C83.4609 16.9609 82.276 16.0397 81.6641 14.6465C81.4622 14.1908 81.3613 13.7611 81.3613 13.3574C81.3613 12.3158 81.8887 11.528 82.9434 10.9941C83.7702 10.5775 84.7565 10.3691 85.9023 10.3691C86.918 10.3691 88.1094 10.5026 89.4766 10.7695L88.5488 13.543C87.5202 13.0807 86.6803 12.8496 86.0293 12.8496C85.7363 12.8496 85.4434 12.9212 85.1504 13.0645C84.7988 13.2337 84.623 13.4583 84.623 13.7383C84.623 14.0052 84.8542 14.2852 85.3164 14.5781C85.6419 14.7865 86.2604 15.0697 87.1719 15.4277C87.9596 15.7402 88.5195 16.043 88.8516 16.3359C89.3529 16.7786 89.6198 17.3711 89.6523 18.1133C89.7109 19.3438 89.1445 20.4538 87.9531 21.4434C87.4453 21.8665 86.7031 22.0781 85.7266 22.0781C84.418 22.0781 82.6927 21.694 80.5508 20.9258ZM98.4902 15.3398C98.0605 12.4948 96.9668 10.9518 95.209 10.7109C94.9225 10.6719 94.6263 10.6523 94.3203 10.6523C92.8815 10.6523 91.7617 11.1471 90.9609 12.1367C90.2188 13.0547 89.8477 14.2493 89.8477 15.7207C89.8477 16.0072 89.8672 16.3327 89.9062 16.6973C90.043 17.9668 90.2188 18.8978 90.4336 19.4902C90.7982 20.4993 91.3906 21.1992 92.2109 21.5898C92.6602 21.8047 93.6302 21.9382 95.1211 21.9902C96.612 22.0423 97.7643 20.7793 98.5781 18.2012L95.8438 18.0059C95.4336 18.8392 94.9583 19.2559 94.418 19.2559C94.1641 19.2559 93.8906 19.1582 93.5977 18.9629C92.7904 18.429 92.3867 17.6055 92.3867 16.4922C92.3867 16.3815 92.3932 16.2448 92.4062 16.082C92.5104 14.7539 93.0833 14.0508 94.125 13.9727C95.1667 13.8945 95.7656 14.4382 95.9219 15.6035L98.4902 15.3398ZM99.0859 17.3223C99.138 15.6556 99.5417 14.2103 100.297 12.9863C101.202 11.515 102.426 10.7793 103.969 10.7793C105.577 10.7793 106.739 11.1862 107.455 12C108.035 12.6641 108.493 13.862 108.832 15.5938C108.962 16.2643 109.027 16.9023 109.027 17.5078C109.027 18.7904 108.715 19.8646 108.09 20.7305C107.178 21.9935 105.795 22.5957 103.939 22.5371C102.084 22.4785 100.811 22.0065 100.121 21.1211C99.3789 20.1771 99.0339 18.9108 99.0859 17.3223ZM105.443 14.666C104.936 14.1842 104.457 13.9434 104.008 13.9434C103.461 13.9434 102.956 14.3079 102.494 15.0371C102.077 15.6947 101.869 16.3359 101.869 16.9609C101.869 17.5534 102.058 18.1556 102.436 18.7676C102.859 19.4577 103.347 19.8027 103.9 19.8027C104.48 19.8027 105.043 19.4512 105.59 18.748C106.104 18.084 106.361 17.4492 106.361 16.8438C106.361 16.1341 106.055 15.4082 105.443 14.666ZM109.037 9.89062L108.871 22.2344L111.762 22.4199V19.3438L114.379 22.4688L117.895 22.5078L113.715 17.5469C115.31 16.1602 116.107 14.8906 116.107 13.7383C116.107 13.1198 115.876 12.5371 115.414 11.9902C114.223 10.5775 112.367 9.87109 109.848 9.87109C109.581 9.87109 109.311 9.8776 109.037 9.89062ZM111.762 15.6426V12.5176C112.966 12.6999 113.568 13.1556 113.568 13.8848C113.568 14.4772 112.966 15.0632 111.762 15.6426ZM117.23 10.3301L116.977 22.0586L123.715 22.1562L123.783 19.1094H119.672V17.5469L123.412 17.625L123.49 15.125H119.672V13.4844L124.164 13.5625L124.154 10.418L117.23 10.3301Z" fill="white"/>
<defs>
<linearGradient id="paint0_linear_425_107274" x1="130.826" y1="35.2406" x2="155.389" y2="34.202" gradientUnits="userSpaceOnUse">
<stop stop-color="#AB0009"/>
<stop offset="1" stop-color="#E54149"/>
</linearGradient>
</defs>
</svg>
