<svg width="89" height="87" viewBox="0 0 89 87" fill="none" xmlns="http://www.w3.org/2000/svg">
<path d="M6.39825 36.4524L7.2375 38.204L8.11317 39.9556L9.17138 38.6054L10.2295 37.2552L8.29561 36.8538L6.39825 36.4524Z" stroke="#FFB413" stroke-width="4"/>
<path d="M6.39825 36.4524L7.2375 38.204L8.11317 39.9556L9.17138 38.6054L10.2295 37.2552L8.29561 36.8538L6.39825 36.4524Z" fill="#FFE7AD"/>
<path d="M9.24433 38.496L10.2295 37.2552L8.29561 36.8538L6.39825 36.4524L9.24433 38.496Z" fill="white"/>
<path d="M11.5064 48.3123L12.8564 46.8891L11.2145 46.3782L9.60907 45.8309L9.86447 47.765L10.1564 49.699L11.5064 48.3123Z" stroke="#FFB413" stroke-width="4"/>
<path d="M11.5064 48.3123L12.8564 46.8891L11.2145 46.3782L9.60907 45.8309L9.86447 47.765L10.1564 49.699L11.5064 48.3123Z" fill="#FFE7AD"/>
<path d="M10.1564 49.699L11.5064 48.3124L12.8564 46.8892L11.3605 46.4148L10.1564 49.699Z" fill="white"/>
<path d="M6.83614 44.2252L8.77002 44.5536L8.29566 42.9115L7.85782 41.2694L6.3983 42.5466L4.93878 43.8603L6.83614 44.2252Z" stroke="#FFB413" stroke-width="4"/>
<path d="M6.83614 44.2252L8.77002 44.5536L8.29566 42.9115L7.85782 41.2694L6.3983 42.5466L4.93878 43.8603L6.83614 44.2252Z" fill="#FFE7AD"/>
<path d="M4.93878 43.8603L6.83614 44.2252L8.77002 44.5536L8.33218 43.0575L4.93878 43.8603Z" fill="white"/>
<path d="M18.6217 33.8251L12.1998 35.7956C9.24433 36.7079 7.56582 39.8463 8.47802 42.8021C9.39021 45.7215 12.5282 47.4001 15.4837 46.4878L21.9056 44.5172C24.8611 43.6049 26.5031 40.4666 25.5909 37.5108C24.7152 34.5914 21.5407 32.9128 18.6217 33.8251Z" stroke="#004621" stroke-width="4"/>
<path d="M18.6217 33.8251L12.1998 35.7956C9.24433 36.7079 7.56582 39.8463 8.47802 42.8021C9.39021 45.7214 12.5282 47.4001 15.4837 46.4878L21.9056 44.5172C24.8611 43.6049 26.5031 40.4666 25.5909 37.5108C24.7152 34.5914 21.5407 32.9128 18.6217 33.8251Z" fill="#009B4C"/>
<path d="M8.2226 41.0504C8.2226 41.6343 8.30772 42.2182 8.47799 42.802C9.39019 45.7214 12.5282 47.4 15.4837 46.4877L21.9056 44.5171C24.8611 43.6048 26.5031 40.4665 25.5909 37.5107C25.4449 36.9268 25.153 36.4159 24.8246 35.9415C24.7881 38.277 23.2556 40.4665 20.8839 41.1964L14.4621 43.1669C12.0903 43.8968 9.60914 42.948 8.2226 41.0504Z" fill="#007E3C"/>
<path d="M35.7345 57.4353C26.6125 55.9757 18.0378 62.1793 16.5782 71.3022L49.6 76.5935C51.0595 67.4706 44.8565 58.895 35.7345 57.4353Z" stroke="#004621" stroke-width="4"/>
<path d="M35.7345 57.4353C26.6125 55.9757 18.0378 62.1793 16.5782 71.3022L49.6 76.5935C51.0595 67.4706 44.8565 58.895 35.7345 57.4353Z" fill="#009B4C"/>
<path d="M17.1987 68.7478L49.6364 73.9297C49.6851 73.9297 49.7459 73.9418 49.8188 73.9662C49.8188 72.616 49.6729 71.3023 49.3445 70.0616L24.4597 66.0839C24.9341 62.9821 26.2477 60.2087 28.1451 57.9827C23.0732 59.5519 18.9136 63.5295 17.1987 68.7478Z" fill="#007E3C"/>
<path d="M49.6365 73.9296L16.9796 68.7113C15.5201 68.4923 14.1701 69.4776 13.9512 70.9008L13.8417 71.5576C13.6227 72.9808 14.6079 74.3675 16.031 74.5865L48.6878 79.8048C50.1108 80.0238 51.4974 79.0385 51.7163 77.6153L51.8257 76.9585C52.0447 75.5353 51.0595 74.1486 49.6365 73.9296Z" stroke="#004621" stroke-width="4"/>
<path d="M49.6365 73.9296L16.9796 68.7113C15.5201 68.4923 14.1701 69.4776 13.9512 70.9008L13.8417 71.5576C13.6227 72.9808 14.6079 74.3675 16.031 74.5865L48.6878 79.8048C50.1108 80.0238 51.4974 79.0385 51.7163 77.6153L51.8257 76.9585C52.0447 75.5353 51.0595 74.1486 49.6365 73.9296Z" fill="#007E3C"/>
<path d="M15.8851 69.9885L15.9945 69.3681C16.0189 69.1248 16.0797 68.9059 16.177 68.7113C15.0458 68.8937 14.1337 69.733 13.9512 70.9008L13.8417 71.5576C13.6228 72.9808 14.608 74.3675 16.031 74.5865L48.6878 79.8048C49.892 79.9872 51.0596 79.3304 51.5339 78.2357C51.2664 78.2843 50.9988 78.2843 50.7312 78.2357L18.0743 73.0538C16.6513 72.7983 15.6296 71.4482 15.8851 69.9885Z" fill="#00662F"/>
<path d="M70.3616 2.91634H32.8154C24.0948 2.91634 16.9431 10.0688 16.9431 18.7903V59.4059C16.9431 68.164 24.0948 75.3164 32.8154 75.3164H70.3616C79.0822 75.3164 86.2339 68.164 86.2339 59.4059V18.7903C86.2339 10.0688 79.0822 2.91634 70.3616 2.91634Z" stroke="#004621" stroke-width="4"/>
<path d="M70.3616 2.91634H32.8154C24.0948 2.91634 16.9431 10.0688 16.9431 18.7903V59.4059C16.9431 68.164 24.0948 75.3164 32.8154 75.3164H70.3616C79.0822 75.3164 86.2339 68.164 86.2339 59.4059V18.7903C86.2339 10.0688 79.0822 2.91634 70.3616 2.91634Z" fill="#009B4C"/>
<path d="M19.2784 10.5067C17.8189 12.9151 16.9432 15.7615 16.9432 18.7903V27.9133C18.2932 28.6431 19.8257 29.0445 21.4312 29.0445C26.6125 29.0445 30.8086 24.848 30.8086 19.6661C30.8086 14.4843 26.6125 10.2512 21.4312 10.2512C20.7015 10.2512 19.9838 10.3364 19.2784 10.5067Z" fill="#007E3C"/>
<path d="M56.8246 10.2512C51.6434 10.2512 47.4472 14.4843 47.4472 19.6661C47.4472 24.848 51.6434 29.0445 56.8246 29.0445C62.0059 29.0445 66.2385 24.848 66.2385 19.6661C66.2385 14.4843 62.0059 10.2512 56.8246 10.2512Z" fill="#007E3C"/>
<path d="M16.9432 29.4459V59.4059C16.9432 68.164 24.0948 75.3164 32.8155 75.3164L71.9307 75.2434C67.2602 74.2581 68.2819 59.4424 69.0116 45.32C69.4495 36.5984 61.8599 29.4459 53.1028 29.4459H16.9432Z" fill="#00B457"/>
<path d="M49.308 18.8269C49.527 21.4543 51.8622 23.4249 54.4893 23.2059C57.1165 22.987 59.0868 20.6515 58.8679 18.0241C58.6125 15.3966 56.3138 13.4261 53.6866 13.645C51.023 13.864 49.0891 16.1994 49.308 18.8269Z" stroke="#004621" stroke-width="4"/>
<path d="M49.308 18.8269C49.527 21.4543 51.8622 23.4249 54.4893 23.2059C57.1165 22.987 59.0868 20.6515 58.8679 18.0241C58.6125 15.3966 56.3138 13.4261 53.6866 13.645C51.023 13.864 49.0891 16.1994 49.308 18.8269Z" fill="#00CCFF"/>
<path d="M51.6798 18.6444C51.7893 19.9581 52.9569 20.9069 54.2704 20.7974C55.584 20.6879 56.5692 19.5567 56.4597 18.2065C56.3502 16.8928 55.1826 15.9075 53.8691 16.0534C52.5555 16.1629 51.5704 17.2942 51.6798 18.6444Z" fill="#00B0DC"/>
<path d="M49.9647 17.1117C50.0742 18.316 51.0958 19.1553 52.2635 19.0823C53.4311 18.9729 54.3068 17.9511 54.1973 16.7833C54.1243 15.5791 53.0662 14.7397 51.8986 14.8127C50.731 14.9222 49.8552 15.944 49.9647 17.1117Z" fill="white"/>
<path d="M54.9637 20.6149C55.0002 21.0528 55.365 21.3812 55.8029 21.3448C56.2407 21.3083 56.5691 20.9069 56.5326 20.469C56.4961 20.0311 56.1313 19.7392 55.6935 19.7756C55.2556 19.8121 54.9272 20.1771 54.9637 20.6149Z" fill="white"/>
<path d="M19.2419 18.8269C19.4609 21.4543 21.7596 23.4249 24.4232 23.2059C27.0504 22.987 29.0207 20.6515 28.7653 18.0241C28.5464 15.3966 26.2477 13.4261 23.584 13.645C20.9569 13.864 19.023 16.1994 19.2419 18.8269Z" stroke="#004621" stroke-width="4"/>
<path d="M19.2419 18.8269C19.4609 21.4543 21.7596 23.4249 24.4232 23.2059C27.0504 22.987 29.0207 20.6515 28.7653 18.0241C28.5464 15.3966 26.2477 13.4261 23.584 13.645C20.9569 13.864 19.023 16.1994 19.2419 18.8269Z" fill="#00CCFF"/>
<path d="M21.6136 18.6444C21.7231 19.9581 22.8907 20.9069 24.2043 20.7974C25.5178 20.6879 26.503 19.5567 26.3935 18.2065C26.2841 16.8928 25.1165 15.9075 23.8029 16.0534C22.4893 16.1629 21.5041 17.2942 21.6136 18.6444Z" fill="#00B0DC"/>
<path d="M19.8988 17.1117C19.9717 18.316 21.0299 19.1553 22.1975 19.0823C23.3651 18.9729 24.2408 17.9511 24.1314 16.7833C24.0219 15.5791 23.0002 14.7397 21.8326 14.8127C20.665 14.9222 19.7893 15.944 19.8988 17.1117Z" fill="white"/>
<path d="M24.861 20.6149C24.8975 21.0528 25.2989 21.3812 25.7367 21.3448C26.1746 21.3083 26.503 20.9069 26.4665 20.469C26.43 20.0311 26.0287 19.7392 25.5908 19.7756C25.1529 19.8121 24.8246 20.1771 24.861 20.6149Z" fill="white"/>
<path d="M58.6854 25.7602C57.0435 25.7602 55.7299 26.1617 55.7299 26.6361C55.7299 27.147 57.0435 27.5484 58.6854 27.5484C60.2909 27.5484 61.6045 27.147 61.6045 26.6361C61.6045 26.1617 60.2909 25.7602 58.6854 25.7602Z" fill="#FF99CC"/>
<path d="M20.0446 25.7602C18.4027 25.7602 17.0891 26.1617 17.0891 26.6361C17.0891 27.147 18.4027 27.5484 20.0446 27.5484C21.6501 27.5484 22.9636 27.147 22.9636 26.6361C22.9636 26.1617 21.6501 25.7602 20.0446 25.7602Z" fill="#FF99CC"/>
<path d="M71.9306 75.2433C79.9215 74.4405 86.2339 67.6165 86.2339 59.4058V18.7903C86.2339 13.426 83.5338 8.68208 79.4471 5.79921C79.6174 6.72368 79.7025 7.68464 79.7025 8.68208V49.2976C79.7025 56.45 74.9226 62.5077 68.4277 64.5147C68.6102 70.4629 69.4859 74.7324 71.9306 75.2433Z" fill="#007E3C"/>
<path d="M26.3207 65.1715C22.9273 65.1715 19.7893 64.1133 17.1987 62.2887C18.5852 69.6601 25.08 75.3164 32.8155 75.3164L71.9307 75.2434C69.486 74.7325 68.6102 70.4629 68.4278 64.5147C66.9683 64.9526 65.4358 65.1715 63.8303 65.1715H26.3207Z" fill="#009B4C"/>
<path d="M79.8851 18.3159C77.5498 18.3159 75.6525 22.2571 75.6525 27.1105C75.6525 31.964 77.5498 35.9051 79.8851 35.9051C82.2203 35.9051 84.1177 31.964 84.1177 27.1105C84.1177 22.2571 82.2203 18.3159 79.8851 18.3159Z" stroke="#00662F" stroke-width="4"/>
<path d="M79.8851 18.3159C77.5498 18.3159 75.6525 22.2571 75.6525 27.1105C75.6525 31.964 77.5498 35.9051 79.8851 35.9051C82.2203 35.9051 84.1177 31.964 84.1177 27.1105C84.1177 22.2571 82.2203 18.3159 79.8851 18.3159Z" fill="#007E3C"/>
<path d="M78.9364 21.6366C77.4769 21.6366 76.3093 24.0816 76.3093 27.1105C76.3093 30.1393 77.4769 32.5843 78.9364 32.5843C80.3959 32.5843 81.5635 30.1393 81.5635 27.1105C81.5635 24.0816 80.3959 21.6366 78.9364 21.6366Z" fill="#00662F"/>
<path d="M69.9602 6.09114C69.048 6.09114 68.2817 6.82102 68.2817 7.7698C68.2817 8.6821 69.048 9.44841 69.9602 9.44841C70.8724 9.44841 71.6387 8.6821 71.6387 7.7698C71.6387 6.82102 70.8724 6.09114 69.9602 6.09114Z" fill="#00662F"/>
<path d="M42.3753 7.11293C41.6455 7.11293 41.0617 7.73327 41.0617 8.46311C41.0617 9.19294 41.6455 9.77684 42.3753 9.77684C43.1051 9.77684 43.7253 9.19294 43.7253 8.46311C43.7253 7.73327 43.1051 7.11293 42.3753 7.11293Z" fill="#00662F"/>
<path d="M31.4655 8.0617C30.6627 8.0617 30.006 8.71856 30.006 9.5214C30.006 10.3242 30.6627 10.9811 31.4655 10.9811C32.3047 10.9811 32.9614 10.3242 32.9614 9.5214C32.9614 8.71856 32.3047 8.0617 31.4655 8.0617Z" fill="#00662F"/>
<path d="M39.967 24.5196C39.6751 24.5196 39.4197 24.7751 39.4197 25.1035C39.4197 25.3954 39.6751 25.6508 39.967 25.6508C40.2955 25.6508 40.5144 25.3954 40.5144 25.1035C40.5144 24.7751 40.2955 24.5196 39.967 24.5196Z" fill="#00662F"/>
<path d="M75.8714 49.0786C75.47 49.0786 75.1781 49.407 75.1781 49.772C75.1781 50.1734 75.47 50.4654 75.8714 50.4654C76.2363 50.4654 76.5647 50.1734 76.5647 49.772C76.5647 49.407 76.2363 49.0786 75.8714 49.0786Z" fill="#00662F"/>
<path d="M80.2498 58.9315C78.6808 58.9315 77.4037 60.2087 77.4037 61.7779C77.4037 63.347 78.6808 64.6242 80.2498 64.6242C81.8188 64.6242 83.0959 63.347 83.0959 61.7779C83.0959 60.2087 81.8188 58.9315 80.2498 58.9315Z" fill="#00662F"/>
<path d="M71.0184 22.8774C70.544 22.8774 70.1791 23.2788 70.1791 23.7532C70.1791 24.2276 70.544 24.629 71.0184 24.629C71.4927 24.629 71.894 24.2276 71.894 23.7532C71.894 23.2788 71.4927 22.8774 71.0184 22.8774Z" fill="#00662F"/>
<path d="M72.1495 38.0581C71.8211 38.0581 71.5657 38.3135 71.5657 38.6785C71.5657 39.0069 71.8211 39.2624 72.1495 39.2624C72.4779 39.2624 72.7698 39.0069 72.7698 38.6785C72.7698 38.3135 72.4779 38.0581 72.1495 38.0581Z" fill="#00662F"/>
<path d="M21.1027 36.4524V59.0774C21.1027 67.3611 27.8895 74.1851 36.1723 74.1486H37.0115C28.8016 74.1121 22.0878 67.3246 22.0878 59.0774V36.4524H21.1027Z" fill="#009B4C"/>
<path d="M26.6125 36.4524V59.0774C26.6125 67.3611 33.3993 74.1851 41.7186 74.1486H42.5579C34.3116 74.1121 27.5978 67.3246 27.5978 59.0774V36.4524H26.6125Z" fill="#009B4C"/>
<path d="M32.0493 36.4524V59.0774C32.0493 67.3611 38.8361 74.1851 47.1188 74.1486H47.958C39.7482 74.1121 33.0345 67.3246 33.0345 59.0774V36.4524H32.0493Z" fill="#009B4C"/>
<path d="M37.5589 36.4524V59.0774C37.5589 67.3611 44.3457 74.1851 52.6649 74.1486H53.5042C45.2579 74.1121 38.5441 67.3246 38.5441 59.0774V36.4524H37.5589Z" fill="#009B4C"/>
<path d="M42.9956 36.4524V59.0774C42.9956 67.3611 49.7824 74.1851 58.0651 74.1486H58.9043C50.6945 74.1121 43.9443 67.3246 43.9443 59.0774V36.4524H42.9956Z" fill="#009B4C"/>
<path d="M48.5052 36.4524V59.0774C48.5052 67.3611 55.292 74.1851 63.6112 74.1486H64.4504C56.2042 74.1121 49.4904 67.3246 49.4904 59.0774V36.4524H48.5052Z" fill="#009B4C"/>
<path d="M54.4893 36.4524V59.0774C54.4893 67.3611 61.2761 74.1851 69.5954 74.1486H70.4346C62.1882 74.1121 55.4744 67.3246 55.4744 59.0774V36.4524H54.4893Z" fill="#009B4C"/>
<path d="M55.0731 35.9051L55.8758 37.6932L56.6786 39.4813L57.7733 38.1311L58.8679 36.8174L56.9705 36.3794L55.0731 35.9051Z" stroke="#FFB413" stroke-width="4"/>
<path d="M55.0731 35.9051L55.8758 37.6932L56.6786 39.4813L57.7733 38.1311L58.8679 36.8174L56.9705 36.3794L55.0731 35.9051Z" fill="#FFE7AD"/>
<path d="M57.8827 38.0216L58.8679 36.8174L56.9705 36.3794L55.0731 35.9051L57.8827 38.0216Z" fill="white"/>
<path d="M59.8531 47.8744L61.2761 46.5242L59.6342 45.9403L58.0287 45.393L58.2476 47.327L58.4666 49.2611L59.8531 47.8744Z" stroke="#FFB413" stroke-width="4"/>
<path d="M59.8531 47.8744L61.2761 46.5242L59.6342 45.9403L58.0287 45.393L58.2476 47.327L58.4666 49.2611L59.8531 47.8744Z" fill="#FFE7AD"/>
<path d="M58.4666 49.2611L59.8531 47.8744L61.2761 46.5242L59.7801 46.0133L58.4666 49.2611Z" fill="white"/>
<path d="M55.3287 43.6778L57.2261 44.0792L56.8247 42.4372L56.3868 40.7585L54.8908 41.9992L53.3948 43.2764L55.3287 43.6778Z" stroke="#FFB413" stroke-width="4"/>
<path d="M55.3287 43.6778L57.2261 44.0792L56.8247 42.4372L56.3868 40.7585L54.8908 41.9992L53.3948 43.2764L55.3287 43.6778Z" fill="#FFE7AD"/>
<path d="M53.3948 43.2764L55.3287 43.6778L57.2261 44.0792L56.8612 42.5466L53.3948 43.2764Z" fill="white"/>
<path d="M67.3697 33.606L60.8748 35.3942C57.9192 36.2335 56.1678 39.3353 56.9706 42.2912C57.8098 45.247 60.9112 47.0351 63.8668 46.1958L70.3617 44.4077C73.3172 43.5683 75.0686 40.4666 74.2659 37.5107C73.4267 34.5184 70.3252 32.7667 67.3697 33.606Z" stroke="#004621" stroke-width="4"/>
<path d="M67.3697 33.606L60.8748 35.3942C57.9192 36.2335 56.1678 39.3353 56.9706 42.2912C57.8098 45.247 60.9112 47.0351 63.8668 46.1958L70.3617 44.4077C73.3172 43.5683 75.0686 40.4666 74.2659 37.5107C73.4267 34.5184 70.3252 32.7667 67.3697 33.606Z" fill="#009B4C"/>
<path d="M56.788 40.5395C56.7637 41.1234 56.8245 41.7073 56.9705 42.2911C57.8097 45.247 60.9112 47.0351 63.8667 46.1957L70.3617 44.4076C73.3172 43.5683 75.0686 40.4666 74.2659 37.5107C74.0834 36.9269 73.828 36.3795 73.4996 35.9051C73.3902 38.2406 71.8212 40.3571 69.413 41.0139L62.9545 42.8385C60.5463 43.4954 58.1016 42.5101 56.788 40.5395Z" fill="#007E3C"/>
<path d="M63.3925 64.5512C54.1611 64.5512 46.681 72.0686 46.681 81.3011H80.104C80.104 72.0686 72.624 64.5512 63.3925 64.5512Z" stroke="#004621" stroke-width="4"/>
<path d="M63.3925 64.5512C54.1611 64.5512 46.681 72.0686 46.681 81.3011H80.104C80.104 72.0686 72.624 64.5512 63.3925 64.5512Z" fill="#009B4C"/>
<path d="M46.8633 78.6735H79.7026C79.7755 78.6735 79.8364 78.6735 79.885 78.6735C79.7026 77.3598 79.3377 76.0826 78.8268 74.8784H53.6136C53.6136 71.7401 54.4529 68.8208 55.9489 66.3029C51.2054 68.6748 47.7391 73.2363 46.8633 78.6735Z" fill="#007E3C"/>
<path d="M79.7027 78.6735H46.6445C45.185 78.6735 43.9809 79.8413 43.9809 81.301V81.9579C43.9809 83.4176 45.185 84.5853 46.6445 84.5853H79.7027C81.1622 84.5853 82.3298 83.4176 82.3298 81.9579V81.301C82.3298 79.8413 81.1622 78.6735 79.7027 78.6735Z" stroke="#004621" stroke-width="4"/>
<path d="M79.7027 78.6735H46.6445C45.185 78.6735 43.9809 79.8413 43.9809 81.301V81.9579C43.9809 83.4176 45.185 84.5853 46.6445 84.5853H79.7027C81.1622 84.5853 82.3298 83.4176 82.3298 81.9579V81.301C82.3298 79.8413 81.1622 78.6735 79.7027 78.6735Z" fill="#007E3C"/>
<path d="M45.7688 80.0968V79.4399C45.7688 79.2209 45.7932 79.002 45.8418 78.783C44.7837 79.1115 43.9809 80.1333 43.9809 81.301V81.9579C43.9809 83.4176 45.185 84.5853 46.6445 84.5853H79.7027C80.9068 84.5853 81.9649 83.746 82.2568 82.6147C82.0136 82.7121 81.746 82.7607 81.4541 82.7607H48.396C46.9365 82.7607 45.7688 81.5565 45.7688 80.0968Z" fill="#00662F"/>
</svg>
