<svg width="102" height="71" viewBox="0 0 102 71" fill="none" xmlns="http://www.w3.org/2000/svg">
<path d="M24.3723 10.8316L22.8033 12.0358L21.2708 13.2401L22.8398 14.0064L24.3723 14.7363V12.8022V10.8316Z" stroke="#FFB413" stroke-width="4"/>
<path d="M24.3723 10.8316L22.8033 12.0358L21.2708 13.2401L22.8398 14.0064L24.3723 14.7363V12.8022V10.8316Z" fill="#FFE7AD"/>
<path d="M22.9492 14.0794L24.3723 14.7363V12.8022V10.8316L22.9492 14.0794Z" fill="white"/>
<path d="M13.8271 18.3124L15.5056 19.3342L15.688 17.6556L15.834 15.9404L14.0096 16.5973L12.1852 17.2906L13.8271 18.3124Z" stroke="#FFB413" stroke-width="4"/>
<path d="M13.8271 18.3124L15.5056 19.3342L15.688 17.6556L15.834 15.9404L14.0096 16.5973L12.1852 17.2906L13.8271 18.3124Z" fill="#FFE7AD"/>
<path d="M12.1853 17.2906L13.8272 18.3124L15.5057 19.3342L15.6516 17.8015L12.1853 17.2906Z" fill="white"/>
<path d="M16.8558 12.9116L16.9287 14.8457L18.4248 14.0429L19.9573 13.2765L18.3883 12.1088L16.8193 10.9411L16.8558 12.9116Z" stroke="#FFB413" stroke-width="4"/>
<path d="M16.8558 12.9116L16.9287 14.8457L18.4248 14.0429L19.9573 13.2765L18.3883 12.1088L16.8193 10.9411L16.8558 12.9116Z" fill="#FFE7AD"/>
<path d="M16.8194 10.9411L16.8559 12.9116L16.9289 14.8457L18.3154 14.1158L16.8194 10.9411Z" fill="white"/>
<path d="M29.4806 22.2171L26.2332 16.3783C24.7372 13.6779 21.3073 12.6926 18.6072 14.1888C15.9071 15.685 14.9219 19.1152 16.4179 21.8157L19.7018 27.6909C21.1978 30.3913 24.6277 31.3401 27.3278 29.8439C30.0279 28.3478 30.9766 24.9175 29.4806 22.2171Z" stroke="#004621" stroke-width="4"/>
<path d="M29.4806 22.2171L26.2332 16.3783C24.7372 13.6779 21.3073 12.6926 18.6072 14.1888C15.9071 15.685 14.9219 19.1152 16.4179 21.8157L19.7018 27.6909C21.1978 30.3913 24.6277 31.3401 27.3278 29.8439C30.0279 28.3478 30.9766 24.9175 29.4806 22.2171Z" fill="#009B4C"/>
<path d="M20.2492 13.605C19.7018 13.7145 19.118 13.8969 18.6072 14.1889C15.9071 15.685 14.9219 19.1153 16.4179 21.8157L19.7018 27.6909C21.1978 30.3913 24.6277 31.3401 27.3278 29.8439C27.863 29.552 28.3252 29.1871 28.7144 28.7492C26.4156 29.1871 23.9709 28.1653 22.7668 25.9758L19.4829 20.1371C18.2788 17.9476 18.6802 15.3201 20.2492 13.605Z" fill="#007E3C"/>
<path d="M23.4234 46.3749C14.2649 45.499 6.09162 52.2135 5.21591 61.4094L38.4929 64.6207C39.3686 55.4248 32.6184 47.2507 23.4234 46.3749V46.3749Z" stroke="#004621" stroke-width="4"/>
<path d="M23.4234 46.3749C14.2649 45.499 6.09162 52.2135 5.21591 61.4094L38.4929 64.6207C39.3686 55.4248 32.6184 47.2507 23.4234 46.3749Z" fill="#009B4C"/>
<path d="M5.65384 58.8186L38.3471 61.9569C38.4201 61.9569 38.4809 61.969 38.5295 61.9934C38.4566 60.6553 38.2255 59.3538 37.8363 58.0887L12.7325 55.6802C13.0244 52.5784 14.1555 49.732 15.8705 47.3965C10.9081 49.2941 7.04038 53.4907 5.65384 58.8186Z" fill="#007E3C"/>
<path d="M38.3471 61.9568L5.43495 58.8185C3.97543 58.6726 2.69834 59.7308 2.55239 61.1905L2.47941 61.8474C2.33346 63.2705 3.4281 64.5842 4.85113 64.7302L37.7633 67.8685C39.2228 68.0145 40.4999 66.9562 40.6459 65.4965L40.7189 64.8397C40.8648 63.38 39.7702 62.1028 38.3471 61.9568Z" stroke="#004621" stroke-width="4"/>
<path d="M38.3471 61.9568L5.43495 58.8185C3.97543 58.6726 2.69834 59.7308 2.55239 61.1905L2.47941 61.8474C2.33346 63.2705 3.4281 64.5842 4.85113 64.7302L37.7633 67.8685C39.2228 68.0145 40.4999 66.9562 40.6459 65.4965L40.7189 64.8397C40.8648 63.38 39.7702 62.1028 38.3471 61.9568Z" fill="#007E3C"/>
<path d="M4.41338 60.1687L4.48634 59.5119C4.51067 59.2686 4.55933 59.0496 4.6323 58.855C3.53766 59.0739 2.66195 60.0228 2.55248 61.1905L2.4795 61.8474C2.33355 63.2706 3.42819 64.5842 4.85122 64.7302L37.7634 67.8686C39.004 67.978 40.0986 67.2482 40.5 66.1534C40.2567 66.2021 39.9892 66.2142 39.6973 66.1899L6.7851 63.0516C5.36207 62.9056 4.26743 61.5919 4.41338 60.1687Z" fill="#00662F"/>
<path d="M36.7416 2.51146L85.4166 11.1236L85.7815 9.04352L37.1064 0.46792L36.7416 2.51146ZM20.3584 11.8169L23.2045 12.3278L23.3505 11.7074L23.4964 11.1236L23.6789 10.5032L23.8978 9.95581L24.1167 9.37195L24.3721 8.82457L24.664 8.31368L24.9924 7.80278L25.3208 7.32842L25.6857 6.854L26.0506 6.37963L26.4519 5.97819L26.8898 5.5403L27.2912 5.17538L27.7655 4.81047L28.2034 4.48203L28.6777 4.15359L29.1885 3.86168L29.6994 3.56973L30.2102 3.35079L30.721 3.13185L31.2319 2.94939L31.7792 2.76693L32.3265 2.62095L32.8373 2.51146L33.3847 2.43849L33.932 2.36553H34.5158H35.0631H35.6105L36.1578 2.43849L36.7416 2.51146L37.1064 0.46792L36.3402 0.358471L35.5739 0.285461L34.8077 0.248978H34.0779L33.3117 0.285461L32.6184 0.358471L31.8887 0.46792L31.1954 0.613897L30.5021 0.796356L29.8088 1.0153L29.1521 1.23424L28.4953 1.52619L27.875 1.81815L27.2912 2.14654L26.7074 2.47497L26.1236 2.87638L25.5762 3.27782L25.0654 3.67923L24.5546 4.15359L24.0802 4.62801L23.6059 5.10242L23.168 5.61327L22.7667 6.16065L22.3653 6.70803L22.0369 7.29193L21.7085 7.91228L21.3801 8.49614L21.1247 9.15301L20.9058 9.80984L20.6868 10.4667L20.5044 11.1236L20.3584 11.8169ZM17.8408 42.7256L23.2045 12.3278L20.3584 11.8169L14.9947 42.2147L17.8408 42.7256ZM26.8533 58.636L27.2182 56.556L26.6344 56.4465L26.1236 56.3005L25.5762 56.1546L25.0654 55.9721L24.5546 55.7532L24.0437 55.4977L23.5694 55.2423L23.095 54.9503L22.6207 54.6219L22.1828 54.2935L21.745 53.9286L21.3436 53.5636L20.9423 53.1622L20.5774 52.7243L20.2125 52.2864L19.8841 51.812L19.5557 51.3376L19.2638 50.8267L18.9719 50.3158L18.7165 49.805L18.4976 49.2576L18.3151 48.7102L18.1327 48.1629L17.9867 47.579L17.8408 46.9951L17.7678 46.4112L17.6948 45.7909L17.6583 45.207V44.5866L17.6948 43.9663L17.7678 43.3459L17.8408 42.7256L14.9947 42.2147L14.9217 42.908L14.8488 43.6014L14.8123 44.2947V44.988L14.8488 45.6814L14.9217 46.3747L15.0312 47.0316L15.1407 47.6884L15.3231 48.3453L15.542 49.0021L15.761 49.6225L16.0164 50.2429L16.3083 50.8632L16.6367 51.4471L16.9651 52.031L17.3664 52.6149L17.7678 53.1622L18.1692 53.7096L18.6435 54.2205L19.1179 54.6949L19.6287 55.1693L20.176 55.6437L20.7598 56.0451L21.3436 56.4465L21.9639 56.8479L22.5842 57.1763L23.241 57.5048L23.9343 57.7967L24.6275 58.0522L25.3573 58.2711L26.0871 58.4536L26.8533 58.636ZM75.8932 65.1681L27.2182 56.5925L26.8533 58.636L75.5283 67.2481L75.8932 65.1681ZM92.2763 55.8262L89.4303 55.3517L89.2843 55.9356L89.1383 56.556L88.9559 57.1399L88.737 57.7237L88.5181 58.2711L88.2261 58.8185L87.9707 59.3659L87.6423 59.8768L87.3139 60.3511L86.9491 60.8255L86.5842 61.2634L86.1828 61.7013L85.745 62.1027L85.3436 62.5042L84.8693 62.8691L84.4314 63.1975L83.9571 63.5259L83.4462 63.8179L82.9354 64.0733L82.4246 64.3287L81.9137 64.5477L81.4029 64.7301L80.8556 64.9126L80.3083 65.0221L79.7974 65.1316L79.2501 65.241L78.6663 65.2775L78.119 65.3141H77.5717L77.0243 65.2775L76.4405 65.241L75.8932 65.1681L75.5283 67.2116L76.2946 67.3211L77.0608 67.3941L77.8271 67.4306H78.5568L79.2866 67.3941L80.0163 67.3211L80.7461 67.2116L81.4394 67.0656L82.1327 66.8832L82.8259 66.6642L83.4827 66.4453L84.103 66.1533L84.7598 65.8614L85.3436 65.533L85.9274 65.1681L86.5112 64.8032L87.0585 64.4018L87.5694 63.9638L88.0802 63.5259L88.5545 63.0515L89.0289 62.5406L89.4667 62.0298L89.8681 61.4824L90.2695 60.935L90.5979 60.3511L90.9263 59.7673L91.2182 59.1469L91.5101 58.5265L91.729 57.8697L91.9479 57.2128L92.1304 56.5195L92.2763 55.8262ZM94.794 24.954L89.4303 55.3517L92.2763 55.8262L97.6401 25.4649L94.794 24.954ZM85.7815 9.04352L85.4166 11.0871L85.9639 11.1965L86.5112 11.3425L87.0585 11.525L87.5694 11.7074L88.0802 11.9264L88.591 12.1453L89.0654 12.4373L89.5397 12.7292L90.0141 13.0211L90.4519 13.3861L90.8898 13.7145L91.2911 14.1159L91.6925 14.5173L92.0574 14.9552L92.4223 15.3931L92.7507 15.831L93.0791 16.3419L93.371 16.8163L93.6629 17.3272L93.9183 17.8381L94.1372 18.3854L94.3196 18.9328L94.5021 19.5167L94.648 20.1006L94.7575 20.6844L94.867 21.2683L94.9399 21.8522L94.9764 22.4726V23.0929L94.9399 23.7133L94.867 24.3336L94.794 24.954L97.6036 25.4284L97.713 24.735L97.786 24.0417L97.8225 23.3484V22.655L97.786 21.9981L97.713 21.3048L97.6036 20.6115L97.4941 19.9546L97.3117 19.2977L97.0927 18.6774L96.8738 18.0205L96.6184 17.4002L96.3265 16.7798L95.9981 16.1959L95.6697 15.6121L95.2683 15.0647L94.867 14.5173L94.4291 13.9699L93.9913 13.459L93.4804 12.9482L92.9696 12.4738L92.4588 12.0359L91.8749 11.5979L91.2911 11.1965L90.6708 10.8316L90.0505 10.4667L89.3938 10.1748L88.7005 9.88285L88.0072 9.62738L87.2775 9.37195L86.5477 9.18949L85.7815 9.04352Z" fill="#004621"/>
<path d="M85.599 10.0653L36.9239 1.48968C29.8453 0.248957 23.0585 5.02939 21.7814 12.1088L16.4542 42.4701C15.1771 49.5495 19.957 56.337 27.0357 57.6143L75.7107 66.1899C82.7894 67.4306 89.5762 62.6502 90.8168 55.6072L96.1805 25.2094C97.4211 18.13 92.6777 11.3425 85.599 10.0653Z" fill="#009B4C"/>
<path d="M25.5396 5.57674C23.6058 7.1459 22.2922 9.18947 21.8908 11.525L20.6503 18.6044C21.9638 19.4438 23.5693 20.0276 25.2842 20.356C30.8669 21.3413 35.9752 18.8599 36.6685 14.8457C37.3617 10.8316 33.421 6.78097 27.8749 5.79568C27.0721 5.64971 26.2937 5.57674 25.5396 5.57674Z" fill="#007E3C"/>
<path d="M65.8589 12.4737C60.3127 11.4884 55.2043 13.9699 54.5111 17.984C53.7813 21.9981 57.722 26.0487 63.3047 27.034C68.8874 28.0193 73.9592 25.5744 74.689 21.5602C75.3823 17.5096 71.4415 13.459 65.8589 12.4737Z" fill="#007E3C"/>
<path d="M20.4313 19.8086L16.3446 43.0175C15.1405 49.805 21.8543 56.702 31.2318 58.3441L73.193 65.679C68.3401 64.0369 71.4416 52.7609 74.1417 41.9593C75.8201 35.2812 68.632 28.3113 59.2546 26.6326L20.4313 19.8086Z" fill="#00B457"/>
<path d="M62.4657 24.9904C62.3927 25.3553 63.7792 25.9392 65.4942 26.2311C67.2456 26.523 68.7051 26.4866 68.7781 26.0852C68.8146 25.6838 67.4645 25.1364 65.7496 24.8445C63.9982 24.5161 62.5387 24.589 62.4657 24.9904Z" fill="#FF99CC"/>
<path d="M20.9787 17.6556C20.9057 18.057 22.2558 18.6044 24.0073 18.8963C25.7587 19.2247 27.2183 19.1518 27.2547 18.7868C27.3277 18.3854 25.9776 17.8381 24.2627 17.5096C22.5112 17.2177 21.0517 17.2906 20.9787 17.6556Z" fill="#FF99CC"/>
<path d="M73.1931 65.6791C81.9138 66.5914 89.6128 62.5043 90.7439 56.1547L96.2901 24.6621C97.0198 20.502 94.794 16.3055 90.7804 13.3131C90.829 14.0673 90.7925 14.8214 90.6709 15.5756L85.1247 47.0682C84.1395 52.615 78.192 56.4101 70.8944 56.702C70.3106 61.373 70.6755 64.8398 73.1931 65.6791Z" fill="#007E3C"/>
<path d="M25.6127 49.2576C21.9639 48.6008 18.7529 47.1776 16.2353 45.3165C16.6731 51.2647 22.9126 56.8844 31.2319 58.3441L73.1931 65.679C70.6754 64.8397 70.3105 61.3729 70.8944 56.702C69.2889 56.775 67.6104 56.6655 65.8955 56.3736L25.6127 49.2576Z" fill="#009B4C"/>
<path d="M89.5396 23.0929C87.0219 22.655 84.4678 25.3554 83.811 29.1141C83.1542 32.8728 84.6137 36.2665 87.1314 36.7044C89.6491 37.1423 92.2032 34.4784 92.86 30.7197C93.5168 26.9246 92.0573 23.5308 89.5396 23.0929V23.0929Z" stroke="#00662F" stroke-width="4"/>
<path d="M89.5396 23.0929C87.0219 22.655 84.4678 25.3554 83.811 29.1141C83.1542 32.8728 84.6137 36.2665 87.1314 36.7044C89.6491 37.1423 92.2032 34.4784 92.86 30.7197C93.5168 26.9246 92.0573 23.5308 89.5396 23.0929Z" fill="#007E3C"/>
<path d="M88.0801 25.5013C86.5111 25.2094 84.9056 26.888 84.5043 29.2235C84.0664 31.5589 85.0151 33.6755 86.584 33.9674C88.1165 34.2228 89.722 32.5807 90.1234 30.2087C90.5612 27.8733 89.6125 25.7568 88.0801 25.5013Z" fill="#00662F"/>
<path d="M80.5272 11.7438C79.5421 11.5614 78.6299 11.9993 78.5204 12.7291C78.3744 13.4225 79.0677 14.1524 80.0894 14.3349C81.0745 14.5173 81.9867 14.0794 82.1327 13.3496C82.2422 12.6197 81.5489 11.8898 80.5272 11.7438Z" fill="#00662F"/>
<path d="M50.7894 7.29191C49.9867 7.18243 49.2569 7.51085 49.1839 8.09474C49.0745 8.67863 49.6218 9.22603 50.4245 9.372C51.2273 9.51797 51.957 9.15305 52.03 8.60565C52.1395 8.02176 51.5922 7.43788 50.7894 7.29191Z" fill="#00662F"/>
<path d="M38.9673 5.97819C38.0916 5.83222 37.2889 6.19715 37.1795 6.85401C37.07 7.47437 37.6903 8.09475 38.566 8.24072C39.4417 8.42318 40.2079 8.02175 40.3174 7.40139C40.4269 6.78102 39.8431 6.12416 38.9673 5.97819Z" fill="#00662F"/>
<path d="M45.827 20.356C45.4986 20.283 45.2067 20.429 45.1338 20.6844C45.0973 20.9034 45.3527 21.1588 45.6811 21.1953C46.0095 21.2683 46.3013 21.1223 46.3378 20.9034C46.3743 20.6479 46.1554 20.3925 45.827 20.356Z" fill="#00662F"/>
<path d="M81.0015 46.1923C80.6002 46.1193 80.2353 46.3018 80.1624 46.5937C80.1259 46.8857 80.4178 47.1776 80.8191 47.2506C81.2205 47.3236 81.5853 47.1411 81.6583 46.8491C81.6948 46.5572 81.4029 46.2653 81.0015 46.1923Z" fill="#00662F"/>
<path d="M84.395 54.6218C82.6801 54.3299 81.1476 55.0597 80.9286 56.3005C80.7097 57.5048 81.9138 58.7456 83.5923 59.0375C85.2707 59.3294 86.8397 58.5996 87.0586 57.3588C87.2411 56.1545 86.0734 54.9138 84.395 54.6218Z" fill="#00662F"/>
<path d="M79.396 24.9539C78.8852 24.881 78.4108 25.0999 78.3743 25.4649C78.3013 25.8298 78.6662 26.1947 79.1771 26.3042C79.6879 26.3772 80.1257 26.1582 80.1987 25.7933C80.2717 25.4284 79.9068 25.0634 79.396 24.9539Z" fill="#00662F"/>
<path d="M78.5204 36.9233C78.1555 36.8504 77.8271 37.0328 77.7906 37.2882C77.7541 37.5437 78.0095 37.7991 78.3744 37.872C78.7393 37.945 79.0677 37.7626 79.1042 37.5072C79.1407 37.2517 78.8853 36.9963 78.5204 36.9233Z" fill="#00662F"/>
<path d="M23.9341 26.0122L20.8327 43.5283C19.7015 49.9509 26.0504 56.5195 34.99 58.0887L35.8657 58.2346C27.0356 56.629 20.7597 50.1334 21.8908 43.7108L24.9923 26.1946L23.9341 26.0122Z" fill="#009B4C"/>
<path d="M29.8454 27.0706L26.7804 44.5867C25.6492 51.0092 31.9982 57.5777 40.9013 59.1469L41.8135 59.2929C32.9834 57.6872 26.7074 51.1552 27.8385 44.7691L30.9035 27.2531L29.8454 27.0706Z" fill="#009B4C"/>
<path d="M35.6834 28.0923L32.5819 45.6084C31.4508 52.031 37.7997 58.5995 46.7393 60.1687L47.615 60.3147C38.7849 58.709 32.5089 52.177 33.6401 45.7909L36.7415 28.2748L35.6834 28.0923Z" fill="#009B4C"/>
<path d="M41.5944 29.1142L38.5295 46.6667C37.3983 53.0892 43.7472 59.6578 52.6503 61.2269L53.5625 61.3729C44.7324 59.7672 38.4565 53.2352 39.5876 46.8491L42.6526 29.2966L41.5944 29.1142Z" fill="#009B4C"/>
<path d="M47.4324 30.1358L44.3309 47.6885C43.1998 54.1111 49.5487 60.6797 58.4883 62.2488L59.364 62.3948C50.5339 60.7891 44.258 54.257 45.3891 47.8709L48.4906 30.3547L47.4324 30.1358Z" fill="#009B4C"/>
<path d="M53.3437 31.1941L50.2787 48.7102C49.1475 55.1693 55.4965 61.7378 64.3996 63.2705L65.3118 63.453C56.4816 61.8473 50.2057 55.3153 51.3368 48.9292L54.4018 31.3766L53.3437 31.1941Z" fill="#009B4C"/>
<path d="M59.802 32.3253L56.7006 49.878C55.5694 56.3006 61.9184 62.8691 70.8579 64.4018L71.7336 64.5842C62.9035 62.9786 56.6276 56.4465 57.7587 50.0604L60.8602 32.5078L59.802 32.3253Z" fill="#009B4C"/>
<path d="M69.5442 21.7062L67.7198 20.3195L69.9091 19.6991C70.7848 19.4437 71.1497 18.6408 70.6753 17.9839C70.2375 17.2906 69.1063 16.9257 68.2306 17.1811L64.8737 18.1664L62.1006 16.0864C61.3709 15.539 60.2032 15.466 59.5465 15.9404C58.8532 16.4148 58.9262 17.2906 59.6559 17.838L61.4438 19.1882L59.291 19.8451C58.3788 20.1005 58.0504 20.8669 58.4883 21.5602C58.9626 22.2536 60.0573 22.6185 60.933 22.3266L64.2899 21.3413L67.063 23.4578C67.7928 24.0052 68.9604 24.0782 69.6537 23.5673C70.3105 23.0929 70.274 22.2536 69.5442 21.7062Z" fill="black"/>
<path d="M33.6036 15.3566L31.8157 14.0064L33.9685 13.3496C34.8807 13.0941 35.2091 12.3278 34.7712 11.6344C34.2969 10.9411 33.2023 10.5761 32.3266 10.8681L28.9697 11.8534L26.1966 9.73684C25.4668 9.18946 24.2992 9.11646 23.6424 9.62735C22.9491 10.1017 22.9857 10.9411 23.7519 11.4885L25.5398 12.8751L23.3505 13.4955C22.4748 13.751 22.1099 14.5538 22.5843 15.2106C23.0586 15.904 24.1533 16.2689 25.029 16.0134L28.3858 15.0282L31.1589 17.1082C31.8887 17.6556 33.0563 17.7286 33.7131 17.2542C34.4064 16.7798 34.3334 15.904 33.6036 15.3566Z" fill="black"/>
<path d="M77.9365 22.874L76.1486 23.6768L74.3972 24.4796L75.7107 25.5744L77.0243 26.6691L77.4987 24.7715L77.9365 22.874Z" stroke="#FFB413" stroke-width="4"/>
<path d="M77.9365 22.874L76.1486 23.6768L74.3972 24.4796L75.7107 25.5744L77.0243 26.6691L77.4987 24.7715L77.9365 22.874Z" fill="#FFE7AD"/>
<path d="M75.8202 25.6838L77.0243 26.6691L77.4987 24.7715L77.9365 22.874L75.8202 25.6838Z" fill="white"/>
<path d="M65.9684 27.6908L67.355 29.0775L67.9023 27.4719L68.4861 25.8298L66.5522 26.0852L64.6184 26.3042L65.9684 27.6908Z" stroke="#FFB413" stroke-width="4"/>
<path d="M65.9684 27.6908L67.355 29.0775L67.9023 27.4719L68.4861 25.8298L66.5522 26.0852L64.6184 26.3042L65.9684 27.6908Z" fill="#FFE7AD"/>
<path d="M64.6183 26.3043L65.9683 27.6909L67.3549 29.0775L67.8657 27.5814L64.6183 26.3043Z" fill="white"/>
<path d="M70.1647 23.1293L69.7633 25.0269L71.4418 24.6255L73.0837 24.2241L71.8432 22.7279L70.6026 21.2318L70.1647 23.1293Z" stroke="#FFB413" stroke-width="4"/>
<path d="M70.1647 23.1293L69.7633 25.0269L71.4418 24.6255L73.0837 24.2241L71.8432 22.7279L70.6026 21.2318L70.1647 23.1293Z" fill="#FFE7AD"/>
<path d="M70.6026 21.2318L70.1647 23.1293L69.7634 25.0269L71.2959 24.662L70.6026 21.2318Z" fill="white"/>
<path d="M80.3083 35.1353L78.4839 28.6762C77.6447 25.6838 74.5432 23.9687 71.5512 24.7715C68.5957 25.6108 66.8443 28.7491 67.6835 31.705L69.5079 38.1641C70.3471 41.1565 73.4486 42.8716 76.4041 42.0323C79.3961 41.2294 81.111 38.0911 80.3083 35.1353V35.1353Z" stroke="#004621" stroke-width="4"/>
<path d="M80.3083 35.1353L78.4839 28.6762C77.6447 25.6838 74.5432 23.9687 71.5512 24.7715C68.5957 25.6108 66.8443 28.7491 67.6835 31.705L69.5079 38.1641C70.3471 41.1565 73.4486 42.8716 76.4041 42.0323C79.3961 41.2294 81.111 38.0911 80.3083 35.1353Z" fill="#009B4C"/>
<path d="M73.3026 24.589C72.7188 24.5647 72.1349 24.6255 71.5511 24.7715C68.5956 25.6108 66.8442 28.7491 67.6834 31.705L69.5078 38.1641C70.347 41.1565 73.4485 42.8716 76.4041 42.0323C77.0122 41.862 77.5473 41.6187 78.0095 41.3024C75.6743 41.1929 73.5215 39.6238 72.8647 37.2153L71.0403 30.7562C70.3835 28.3842 71.3687 25.9027 73.3026 24.589Z" fill="#007E3C"/>
<path d="M79.6517 47.1411C70.4202 47.652 63.378 55.5707 63.8889 64.8032L97.2754 62.9056C96.7646 53.6731 88.8466 46.6302 79.6517 47.1411Z" stroke="#004621" stroke-width="4"/>
<path d="M79.6517 47.1411C70.4202 47.652 63.378 55.5707 63.8889 64.8032L97.2754 62.9056C96.7646 53.6731 88.8466 46.6302 79.6517 47.1411Z" fill="#009B4C"/>
<path d="M63.9617 62.1392L96.728 60.2782C96.8009 60.2782 96.8617 60.2782 96.9104 60.2782C96.655 58.9644 96.2171 57.7237 95.6333 56.556L70.4566 57.9791C70.2742 54.8773 70.9674 51.885 72.3175 49.2941C67.72 51.9215 64.509 56.6654 63.9617 62.1392Z" fill="#007E3C"/>
<path d="M96.728 60.2783L63.7063 62.1758C62.2833 62.2488 61.1522 63.4895 61.2251 64.9492L61.2616 65.606C61.3346 67.0657 62.6117 68.197 64.0712 68.0875L97.0564 66.2264C98.5159 66.1534 99.647 64.8762 99.5741 63.4165L99.5375 62.7962C99.4281 61.3365 98.1875 60.2053 96.728 60.2783V60.2783Z" stroke="#004621" stroke-width="4"/>
<path d="M96.728 60.2783L63.7063 62.1758C62.2833 62.2488 61.1522 63.4895 61.2251 64.9492L61.2616 65.606C61.3346 67.0657 62.6117 68.197 64.0712 68.0875L97.0564 66.2264C98.5159 66.1534 99.647 64.8762 99.5741 63.4165L99.5375 62.7962C99.4281 61.3365 98.1875 60.2053 96.728 60.2783Z" fill="#007E3C"/>
<path d="M62.94 63.6719L62.9035 63.015C62.8791 62.7718 62.8913 62.5406 62.94 62.3217C61.8818 62.7231 61.152 63.7814 61.225 64.9491L61.2615 65.606C61.3345 67.0657 62.6116 68.197 64.0711 68.0875L97.0563 66.2264C98.2969 66.1534 99.282 65.2411 99.501 64.1098C99.2577 64.2071 99.0023 64.2679 98.7347 64.2923L65.7131 66.1534C64.2535 66.2264 63.0129 65.1316 62.94 63.6719Z" fill="#00662F"/>
</svg>
