<svg width="94" height="87" viewBox="0 0 94 87" fill="none" xmlns="http://www.w3.org/2000/svg">
<path d="M4.55064 39.5543L5.71825 41.1599L6.84937 42.7291L7.65211 41.1964L8.45483 39.7003L6.52098 39.6272L4.55064 39.5543Z" stroke="#FFB413" stroke-width="4"/>
<path d="M4.55064 39.5543L5.71825 41.1599L6.84937 42.7291L7.65211 41.1964L8.45483 39.7003L6.52098 39.6272L4.55064 39.5543Z" fill="#FFE7AD"/>
<path d="M7.72508 41.0869L8.45483 39.7003L6.52098 39.6272L4.55064 39.5543L7.72508 41.0869Z" fill="white"/>
<path d="M11.6659 50.3194L12.7605 48.7137L11.0456 48.4583L9.3671 48.2393L9.9874 50.1004L10.6077 51.9615L11.6659 50.3194Z" stroke="#FFB413" stroke-width="4"/>
<path d="M11.6659 50.3194L12.7605 48.7137L11.0456 48.4583L9.3671 48.2393L9.9874 50.1004L10.6077 51.9615L11.6659 50.3194Z" fill="#FFE7AD"/>
<path d="M10.6077 51.9615L11.6659 50.3194L12.7605 48.7137L11.1915 48.4947L10.6077 51.9615Z" fill="white"/>
<path d="M6.37498 47.1081L8.30884 47.1446L7.57908 45.5754L6.84932 44.0427L5.60873 45.5754L4.40463 47.1081H6.37498Z" stroke="#FFB413" stroke-width="4"/>
<path d="M6.37498 47.1081L8.30884 47.1446L7.57908 45.5754L6.84932 44.0427L5.60873 45.5754L4.40463 47.1081H6.37498Z" fill="#FFE7AD"/>
<path d="M4.40463 47.1081H6.37498L8.30884 47.1446L7.65206 45.7214L4.40463 47.1081Z" fill="white"/>
<path d="M16.1174 34.8103L10.1333 37.8756C7.39674 39.2988 6.3021 42.6925 7.72513 45.4294C9.11168 48.1663 12.5416 49.261 15.2782 47.8378L21.2257 44.7725C23.9623 43.3493 25.057 39.9556 23.6339 37.2187C22.2474 34.4819 18.854 33.3871 16.1174 34.8103Z" stroke="#004621" stroke-width="4"/>
<path d="M16.1174 34.8103L10.1333 37.8756C7.39674 39.2988 6.3021 42.6925 7.72513 45.4294C9.11168 48.1663 12.5416 49.261 15.2782 47.8378L21.2257 44.7725C23.9623 43.3493 25.057 39.9556 23.6339 37.2187C22.2474 34.4819 18.854 33.3871 16.1174 34.8103Z" fill="#009B4C"/>
<path d="M7.1778 43.7508C7.25078 44.3347 7.43322 44.8821 7.72512 45.4294C9.11167 48.1663 12.5416 49.2611 15.2782 47.8379L21.2257 44.7726C23.9623 43.3494 25.057 39.9557 23.6339 37.2188C23.3663 36.6836 23.0258 36.2092 22.6123 35.7956C22.9771 38.1311 21.846 40.5395 19.6202 41.6708L13.6727 44.7361C11.4469 45.8673 8.85625 45.3929 7.1778 43.7508Z" fill="#007E3C"/>
<path d="M25.8597 64.5512C16.6282 64.5512 9.14815 72.0686 9.14815 81.3011H42.6077C42.6077 72.0686 35.0911 64.5512 25.8597 64.5512Z" stroke="#004621" stroke-width="4"/>
<path d="M25.8597 64.5512C16.6282 64.5512 9.14815 72.0686 9.14815 81.3011H42.6077C42.6077 72.0686 35.0911 64.5512 25.8597 64.5512Z" fill="#009B4C"/>
<path d="M9.36701 78.6735H42.2062C42.2549 78.6735 42.3157 78.6735 42.3887 78.6735C42.1697 77.3598 41.8049 76.0826 41.3305 74.8784H16.0808C16.0808 71.7401 16.9565 68.8208 18.4525 66.3029C13.7091 68.6748 10.2062 73.2363 9.36701 78.6735Z" fill="#007E3C"/>
<path d="M42.2064 78.6735H9.1482C7.68868 78.6735 6.48457 79.8413 6.48457 81.301V81.9579C6.48457 83.4176 7.68868 84.5853 9.1482 84.5853H42.2064C43.6294 84.5853 44.8335 83.4176 44.8335 81.9579V81.301C44.8335 79.8413 43.6294 78.6735 42.2064 78.6735V78.6735Z" stroke="#004621" stroke-width="4"/>
<path d="M42.2064 78.6735H9.1482C7.68868 78.6735 6.48457 79.8413 6.48457 81.301V81.9579C6.48457 83.4176 7.68868 84.5853 9.1482 84.5853H42.2064C43.6294 84.5853 44.8335 83.4176 44.8335 81.9579V81.301C44.8335 79.8413 43.6294 78.6735 42.2064 78.6735Z" fill="#007E3C"/>
<path d="M8.23599 80.0968V79.4399C8.23599 79.2209 8.27247 79.002 8.34545 78.783C7.25081 79.1115 6.48456 80.1333 6.48456 81.301V81.9579C6.48456 83.4176 7.68867 84.5853 9.14819 84.5853H42.2063C43.4104 84.5853 44.4321 83.746 44.7605 82.6147C44.4929 82.7121 44.2253 82.7607 43.9578 82.7607H10.8996C9.44009 82.7607 8.23599 81.5565 8.23599 80.0968Z" fill="#00662F"/>
<path d="M68.6967 2.91634H31.187C22.4664 2.91634 15.3147 10.0688 15.3147 18.7903V59.4059C15.3147 68.164 22.4664 75.3164 31.187 75.3164H68.6967C77.4538 75.3164 84.6055 68.164 84.6055 59.4059V18.7903C84.6055 10.0688 77.4538 2.91634 68.6967 2.91634V2.91634Z" stroke="#004621" stroke-width="4"/>
<path d="M68.6967 2.91634H31.187C22.4664 2.91634 15.3147 10.0688 15.3147 18.7903V59.4059C15.3147 68.164 22.4664 75.3164 31.187 75.3164H68.6967C77.4538 75.3164 84.6055 68.164 84.6055 59.4059V18.7903C84.6055 10.0688 77.4538 2.91634 68.6967 2.91634Z" fill="#009B4C"/>
<path d="M17.65 10.5067C16.154 12.9151 15.3147 15.7615 15.3147 18.7903V27.9133C16.6283 28.6431 18.1608 29.0445 19.8027 29.0445C24.984 29.0445 29.1802 24.848 29.1802 19.6661C29.1802 14.4843 24.984 10.2512 19.8027 10.2512C19.0487 10.2512 18.3311 10.3364 17.65 10.5067Z" fill="#007E3C"/>
<path d="M55.1961 10.2512C50.0148 10.2512 45.7821 14.4843 45.7821 19.6661C45.7821 24.848 50.0148 29.0445 55.1961 29.0445C60.3774 29.0445 64.5735 24.848 64.5735 19.6661C64.5735 14.4843 60.3774 10.2512 55.1961 10.2512Z" fill="#007E3C"/>
<path d="M15.3147 29.4459V59.4059C15.3147 68.164 22.4663 75.3164 31.187 75.3164L70.2656 75.2434C65.5952 74.2581 66.6168 59.4424 67.3466 45.32C67.8209 36.5984 60.1949 29.4459 51.4743 29.4459H15.3147Z" fill="#00B457"/>
<path d="M47.643 18.8269C47.8619 21.4543 50.1971 23.4249 52.8243 23.2059C55.4879 22.987 57.4218 20.6515 57.2028 18.0241C56.9839 15.3966 54.6487 13.4261 52.0215 13.645C49.3944 13.864 47.424 16.1994 47.643 18.8269Z" stroke="#004621" stroke-width="4"/>
<path d="M47.643 18.8269C47.8619 21.4543 50.1971 23.4249 52.8243 23.2059C55.4879 22.987 57.4218 20.6515 57.2028 18.0241C56.9839 15.3966 54.6487 13.4261 52.0215 13.645C49.3944 13.864 47.424 16.1994 47.643 18.8269Z" fill="#00CCFF"/>
<path d="M50.0511 18.6444C50.1606 19.9581 51.3282 20.9069 52.6418 20.7974C53.9553 20.6879 54.9405 19.5567 54.831 18.2065C54.7216 16.8928 53.554 15.9075 52.2404 16.0534C50.9268 16.1629 49.9417 17.2942 50.0511 18.6444Z" fill="#00B0DC"/>
<path d="M48.2998 17.1117C48.4093 18.316 49.4309 19.1553 50.635 19.0823C51.8026 18.9729 52.6783 17.9511 52.5689 16.7833C52.4594 15.5791 51.4378 14.7397 50.2701 14.8127C49.1025 14.9222 48.2268 15.944 48.2998 17.1117Z" fill="white"/>
<path d="M53.2985 20.6149C53.335 21.0528 53.7364 21.3812 54.1742 21.3448C54.6121 21.3083 54.9405 20.9069 54.904 20.469C54.8675 20.0311 54.4661 19.7392 54.0283 19.7756C53.5904 19.8121 53.262 20.1771 53.2985 20.6149Z" fill="white"/>
<path d="M17.5768 18.8269C17.7958 21.4543 20.131 23.4249 22.7581 23.2059C25.3853 22.987 27.3556 20.6515 27.1367 18.0241C26.9178 15.3966 24.5825 13.4261 21.9554 13.645C19.3283 13.864 17.3579 16.1994 17.5768 18.8269Z" stroke="#004621" stroke-width="4"/>
<path d="M17.5768 18.8269C17.7958 21.4543 20.131 23.4249 22.7581 23.2059C25.3853 22.987 27.3556 20.6515 27.1367 18.0241C26.9178 15.3966 24.5825 13.4261 21.9554 13.645C19.3283 13.864 17.3579 16.1994 17.5768 18.8269Z" fill="#00CCFF"/>
<path d="M19.985 18.6444C20.0944 19.9581 21.2255 20.9069 22.5756 20.7974C23.8892 20.6879 24.8743 19.5567 24.7649 18.2065C24.6189 16.8928 23.4878 15.9075 22.1742 16.0534C20.8242 16.1629 19.8755 17.2942 19.985 18.6444Z" fill="#00B0DC"/>
<path d="M18.2336 17.1117C18.343 18.316 19.3647 19.1553 20.5323 19.0823C21.7364 18.9729 22.5756 17.9511 22.5027 16.7833C22.3932 15.5791 21.3715 14.7397 20.2039 14.8127C18.9998 14.9222 18.1606 15.944 18.2336 17.1117Z" fill="white"/>
<path d="M23.2324 20.6149C23.2689 21.0528 23.6703 21.3812 24.1082 21.3448C24.5095 21.3083 24.8379 20.9069 24.8014 20.469C24.7649 20.0311 24.4001 19.7392 23.9622 19.7756C23.5243 19.8121 23.1959 20.1771 23.2324 20.6149Z" fill="white"/>
<path d="M57.0205 25.7602C55.4151 25.7602 54.1015 26.1617 54.1015 26.6361C54.1015 27.147 55.4151 27.5484 57.0205 27.5484C58.6625 27.5484 59.9761 27.147 59.9761 26.6361C59.9761 26.1617 58.6625 25.7602 57.0205 25.7602Z" fill="#FF99CC"/>
<path d="M18.3797 25.7602C16.7742 25.7602 15.4606 26.1617 15.4606 26.6361C15.4606 27.147 16.7742 27.5484 18.3797 27.5484C20.0216 27.5484 21.3352 27.147 21.3352 26.6361C21.3352 26.1617 20.0216 25.7602 18.3797 25.7602Z" fill="#FF99CC"/>
<path d="M70.2657 75.2433C78.293 74.4405 84.6055 67.6165 84.6055 59.4058V18.7903C84.6055 13.426 81.9054 8.68208 77.8187 5.79921C77.989 6.72368 78.0741 7.68464 78.0741 8.68208V49.2976C78.0741 56.45 73.2942 62.5077 66.7628 64.5147C66.9453 70.4629 67.8575 74.7324 70.2657 75.2433Z" fill="#007E3C"/>
<path d="M24.6556 65.1715C21.2987 65.1715 18.1607 64.1133 15.5701 62.2887C16.9201 69.6601 23.4515 75.3164 31.187 75.3164L70.2656 75.2434C67.8574 74.7325 66.9452 70.4629 66.7628 64.5147C65.3397 64.9526 63.7708 65.1715 62.2018 65.1715H24.6556Z" fill="#009B4C"/>
<path d="M78.2566 18.3159C75.9214 18.3159 74.024 22.2571 74.024 27.1105C74.024 31.964 75.9214 35.9051 78.2566 35.9051C80.5919 35.9051 82.4893 31.964 82.4893 27.1105C82.4893 22.2571 80.5919 18.3159 78.2566 18.3159Z" stroke="#00662F" stroke-width="4"/>
<path d="M78.2566 18.3159C75.9214 18.3159 74.024 22.2571 74.024 27.1105C74.024 31.964 75.9214 35.9051 78.2566 35.9051C80.5919 35.9051 82.4893 31.964 82.4893 27.1105C82.4893 22.2571 80.5919 18.3159 78.2566 18.3159Z" fill="#007E3C"/>
<path d="M77.3079 21.6366C75.8484 21.6366 74.6808 24.0816 74.6808 27.1105C74.6808 30.1393 75.8484 32.5843 77.3079 32.5843C78.7674 32.5843 79.9351 30.1393 79.9351 27.1105C79.9351 24.0816 78.7674 21.6366 77.3079 21.6366Z" fill="#00662F"/>
<path d="M68.3318 6.09114C67.3831 6.09114 66.6169 6.82102 66.6169 7.7698C66.6169 8.6821 67.3831 9.44841 68.3318 9.44841C69.244 9.44841 70.0103 8.6821 70.0103 7.7698C70.0103 6.82102 69.244 6.09114 68.3318 6.09114Z" fill="#00662F"/>
<path d="M40.747 7.11293C40.0172 7.11293 39.3969 7.73327 39.3969 8.46311C39.3969 9.19294 40.0172 9.77684 40.747 9.77684C41.4767 9.77684 42.0605 9.19294 42.0605 8.46311C42.0605 7.73327 41.4767 7.11293 40.747 7.11293Z" fill="#00662F"/>
<path d="M29.8369 8.0617C29.0341 8.0617 28.3773 8.71856 28.3773 9.5214C28.3773 10.3242 29.0341 10.9811 29.8369 10.9811C30.6396 10.9811 31.2964 10.3242 31.2964 9.5214C31.2964 8.71856 30.6396 8.0617 29.8369 8.0617Z" fill="#00662F"/>
<path d="M38.3387 24.5196C38.0103 24.5196 37.7549 24.7751 37.7549 25.1035C37.7549 25.3954 38.0103 25.6508 38.3387 25.6508C38.6306 25.6508 38.886 25.3954 38.886 25.1035C38.886 24.7751 38.6306 24.5196 38.3387 24.5196Z" fill="#00662F"/>
<path d="M74.2064 49.0786C73.8415 49.0786 73.5131 49.407 73.5131 49.772C73.5131 50.1734 73.8415 50.4654 74.2064 50.4654C74.6078 50.4654 74.8997 50.1734 74.8997 49.772C74.8997 49.407 74.6078 49.0786 74.2064 49.0786Z" fill="#00662F"/>
<path d="M78.6215 58.9315C77.0525 58.9315 75.7754 60.2087 75.7754 61.7779C75.7754 63.347 77.0525 64.6242 78.6215 64.6242C80.1905 64.6242 81.4675 63.347 81.4675 61.7779C81.4675 60.2087 80.1905 58.9315 78.6215 58.9315Z" fill="#00662F"/>
<path d="M69.3899 22.8774C68.9156 22.8774 68.5142 23.2788 68.5142 23.7532C68.5142 24.2276 68.9156 24.629 69.3899 24.629C69.8643 24.629 70.2656 24.2276 70.2656 23.7532C70.2656 23.2788 69.8643 22.8774 69.3899 22.8774Z" fill="#00662F"/>
<path d="M70.5212 38.0581C70.1928 38.0581 69.9009 38.3135 69.9009 38.6785C69.9009 39.0069 70.1928 39.2624 70.5212 39.2624C70.8496 39.2624 71.105 39.0069 71.105 38.6785C71.105 38.3135 70.8496 38.0581 70.5212 38.0581Z" fill="#00662F"/>
<path d="M19.4378 36.4524V59.0774C19.4378 67.3611 26.2246 74.1851 34.5438 74.1486H35.3831C27.1368 74.1121 20.423 67.3246 20.423 59.0774V36.4524H19.4378Z" fill="#009B4C"/>
<path d="M24.984 36.4524V59.0774C24.984 67.3611 31.7708 74.1851 40.0536 74.1486H40.8928C32.683 74.1121 25.9692 67.3246 25.9692 59.0774V36.4524H24.984Z" fill="#009B4C"/>
<path d="M30.3843 36.4524V59.0774C30.3843 67.3611 37.1711 74.1851 45.4904 74.1486H46.3296C38.0833 74.1121 31.3695 67.3246 31.3695 59.0774V36.4524H30.3843Z" fill="#009B4C"/>
<path d="M35.9303 36.4524V59.0774C35.9303 67.3611 42.7171 74.1851 50.9999 74.1486H51.8391C43.6293 74.1121 36.9155 67.3246 36.9155 59.0774V36.4524H35.9303Z" fill="#009B4C"/>
<path d="M41.3306 36.4524V59.0774C41.3306 67.3611 48.1174 74.1851 56.4367 74.1486H57.2759C49.0296 74.1121 42.3158 67.3246 42.3158 59.0774V36.4524H41.3306Z" fill="#009B4C"/>
<path d="M46.8769 36.4524V59.0774C46.8769 67.3611 53.6636 74.1851 61.9464 74.1486H62.7856C54.5758 74.1121 47.8256 67.3246 47.8256 59.0774V36.4524H46.8769Z" fill="#009B4C"/>
<path d="M52.861 36.4524V59.0774C52.861 67.3611 59.6478 74.1851 67.9305 74.1486H68.7698C60.56 74.1121 53.8462 67.3246 53.8462 59.0774V36.4524H52.861Z" fill="#009B4C"/>
<path d="M53.262 39.5543L54.3932 41.1599L55.5608 42.7291L56.3635 41.1964L57.1663 39.7003L55.1959 39.6272L53.262 39.5543Z" stroke="#FFB413" stroke-width="4"/>
<path d="M53.262 39.5543L54.3932 41.1599L55.5608 42.7291L56.3635 41.1964L57.1663 39.7003L55.1959 39.6272L53.262 39.5543Z" fill="#FFE7AD"/>
<path d="M56.4 41.0869L57.1663 39.7003L55.1959 39.6272L53.262 39.5543L56.4 41.0869Z" fill="white"/>
<path d="M60.3773 50.3194L61.4719 48.7137L59.757 48.4583L58.042 48.2393L58.6623 50.1004L59.2826 51.9615L60.3773 50.3194Z" stroke="#FFB413" stroke-width="4"/>
<path d="M60.3773 50.3194L61.4719 48.7137L59.757 48.4583L58.042 48.2393L58.6623 50.1004L59.2826 51.9615L60.3773 50.3194Z" fill="#FFE7AD"/>
<path d="M59.2826 51.9615L60.3773 50.3194L61.4719 48.7137L59.9029 48.4947L59.2826 51.9615Z" fill="white"/>
<path d="M55.0499 47.1081L57.0203 47.1446L56.254 45.5754L55.5243 44.0427L54.3201 45.5754L53.116 47.1081H55.0499Z" stroke="#FFB413" stroke-width="4"/>
<path d="M55.0499 47.1081L57.0203 47.1446L56.254 45.5754L55.5243 44.0427L54.3201 45.5754L53.116 47.1081H55.0499Z" fill="#FFE7AD"/>
<path d="M53.116 47.1081H55.0499L57.0203 47.1446L56.327 45.7214L53.116 47.1081Z" fill="white"/>
<path d="M64.7923 34.8103L58.8083 37.8756C56.0717 39.2988 55.0135 42.6925 56.4001 45.4294C57.8231 48.1663 61.2165 49.261 63.9531 47.8378L69.9371 44.7725C72.6737 43.3493 73.7684 39.9556 72.3453 37.2187C70.9223 34.4819 67.5289 33.3871 64.7923 34.8103Z" stroke="#004621" stroke-width="4"/>
<path d="M64.7923 34.8103L58.8083 37.8756C56.0717 39.2988 55.0135 42.6925 56.4001 45.4294C57.8231 48.1663 61.2165 49.261 63.9531 47.8378L69.9371 44.7725C72.6737 43.3493 73.7684 39.9556 72.3453 37.2187C70.9223 34.4819 67.5289 33.3871 64.7923 34.8103Z" fill="#009B4C"/>
<path d="M55.8528 43.7508C55.9622 44.3347 56.1447 44.8821 56.4001 45.4294C57.8231 48.1663 61.2165 49.2611 63.9531 47.8379L69.9371 44.7726C72.6737 43.3494 73.7684 39.9557 72.3453 37.2188C72.0534 36.6836 71.7007 36.2092 71.2872 35.7956C71.6521 38.1311 70.5209 40.5395 68.3317 41.6708L62.3476 44.7361C60.1583 45.8673 57.5312 45.3929 55.8528 43.7508Z" fill="#007E3C"/>
<path d="M72.236 64.5512C63.0045 64.5512 55.5245 72.0686 55.5245 81.3011H88.9475C88.9475 72.0686 81.4675 64.5512 72.236 64.5512V64.5512Z" stroke="#004621" stroke-width="4"/>
<path d="M72.236 64.5512C63.0045 64.5512 55.5245 72.0686 55.5245 81.3011H88.9475C88.9475 72.0686 81.4675 64.5512 72.236 64.5512Z" fill="#009B4C"/>
<path d="M55.7435 78.6735H88.5462C88.6192 78.6735 88.6922 78.6735 88.7651 78.6735C88.5462 77.3355 88.1813 76.0705 87.6705 74.8784H62.4573C62.4573 71.7401 63.333 68.8208 64.829 66.3029C60.0491 68.6748 56.5827 73.2363 55.7435 78.6735Z" fill="#007E3C"/>
<path d="M88.5461 78.6735H55.4879C54.0284 78.6735 52.8608 79.8413 52.8608 81.301V81.9579C52.8608 83.4176 54.0284 84.5853 55.4879 84.5853H88.5461C90.0056 84.5853 91.2097 83.4176 91.2097 81.9579V81.301C91.2097 79.8413 90.0056 78.6735 88.5461 78.6735Z" stroke="#004621" stroke-width="4"/>
<path d="M88.5461 78.6735H55.4879C54.0284 78.6735 52.8608 79.8413 52.8608 81.301V81.9579C52.8608 83.4176 54.0284 84.5853 55.4879 84.5853H88.5461C90.0056 84.5853 91.2097 83.4176 91.2097 81.9579V81.301C91.2097 79.8413 90.0056 78.6735 88.5461 78.6735Z" fill="#007E3C"/>
<path d="M54.6123 80.0968V79.4399C54.6123 79.2209 54.6488 79.002 54.7218 78.783C53.6271 79.1115 52.8609 80.1333 52.8609 81.301V81.9579C52.8609 83.4176 54.0285 84.5853 55.488 84.5853H88.5462C89.7868 84.5853 90.8084 83.746 91.1003 82.6147C90.8571 82.7121 90.6017 82.7607 90.3341 82.7607H57.2759C55.8164 82.7607 54.6123 81.5565 54.6123 80.0968Z" fill="#00662F"/>
</svg>
