<svg width="90" height="87" viewBox="0 0 90 87" fill="none" xmlns="http://www.w3.org/2000/svg">
<path d="M8.17093 33.7155L8.6453 35.6131L9.08314 37.5107L10.3967 36.4524L11.7468 35.3577L9.95888 34.5548L8.17093 33.7155Z" stroke="#FFB413" stroke-width="4"/>
<path d="M8.17093 33.7155L8.6453 35.6131L9.08314 37.5107L10.3967 36.4524L11.7468 35.3577L9.95888 34.5548L8.17093 33.7155Z" fill="#FFE7AD"/>
<path d="M10.5062 36.343L11.7468 35.3577L9.95888 34.5548L8.17093 33.7155L10.5062 36.343Z" fill="white"/>
<path d="M10.5426 46.4147L12.1846 45.32L10.6886 44.4442L9.22912 43.5683L9.04668 45.5389L8.90073 47.473L10.5426 46.4147Z" stroke="#FFB413" stroke-width="4"/>
<path d="M10.5426 46.4147L12.1846 45.32L10.6886 44.4442L9.22912 43.5683L9.04668 45.5389L8.90073 47.473L10.5426 46.4147Z" fill="#FFE7AD"/>
<path d="M8.90073 47.473L10.5426 46.4147L12.1846 45.32L10.8346 44.5172L8.90073 47.473Z" fill="white"/>
<path d="M6.89395 41.3788L8.68188 42.1452L8.60888 40.4301L8.53592 38.715L6.82099 39.6637L5.10602 40.576L6.89395 41.3788Z" stroke="#FFB413" stroke-width="4"/>
<path d="M6.89395 41.3788L8.68188 42.1452L8.60888 40.4301L8.53592 38.715L6.82099 39.6637L5.10602 40.576L6.89395 41.3788Z" fill="#FFE7AD"/>
<path d="M5.10602 40.576L6.89395 41.3788L8.68188 42.1452L8.60888 40.576H5.10602Z" fill="white"/>
<path d="M20.6863 33.8616L13.9726 34.3359C10.9076 34.5914 8.5723 37.2917 8.79123 40.357C9.04665 43.4224 11.7468 45.7578 14.8117 45.5389L21.4891 45.028C24.5905 44.8091 26.9258 42.1087 26.6703 39.0069C26.4514 35.9416 23.7513 33.6426 20.6863 33.8616V33.8616Z" stroke="#004621" stroke-width="4"/>
<path d="M20.6863 33.8616L13.9726 34.3359C10.9076 34.5914 8.5723 37.2917 8.79123 40.357C9.04665 43.4224 11.7468 45.7578 14.8117 45.5389L21.4891 45.028C24.5905 44.8091 26.9258 42.1087 26.6703 39.0069C26.4514 35.9416 23.7513 33.6426 20.6863 33.8616Z" fill="#009B4C"/>
<path d="M8.97363 38.6054C8.82768 39.165 8.76687 39.7488 8.79119 40.357C9.04661 43.4223 11.7467 45.7578 14.8117 45.5389L21.4891 45.028C24.5905 44.8091 26.9258 42.1087 26.6703 39.0068C26.6217 38.423 26.4879 37.8512 26.269 37.2917C25.6852 39.5907 23.7148 41.3788 21.2337 41.5613L14.5563 42.0356C12.0751 42.2181 9.84935 40.7585 8.97363 38.6054Z" fill="#007E3C"/>
<path d="M38.7478 64.5512C29.5164 64.5512 22.0363 72.0686 22.0363 81.3011H55.4958C55.4958 72.0686 47.9793 64.5512 38.7478 64.5512Z" stroke="#004621" stroke-width="4"/>
<path d="M38.7479 64.5512C29.5164 64.5512 22.0363 72.0686 22.0363 81.3011H55.4958C55.4958 72.0686 47.9793 64.5512 38.7479 64.5512Z" fill="#009B4C"/>
<path d="M22.2552 78.6735H55.0579C55.1309 78.6735 55.2039 78.6735 55.2769 78.6735C55.0579 77.3355 54.7052 76.0705 54.2187 74.8784H28.969C28.969 71.7401 29.8447 68.8208 31.3407 66.3029C26.5973 68.6748 23.0944 73.2363 22.2552 78.6735Z" fill="#007E3C"/>
<path d="M55.058 78.6735H21.9999C20.5769 78.6735 19.3727 79.8413 19.3727 81.301V81.9579C19.3727 83.4176 20.5769 84.5853 21.9999 84.5853H55.058C56.5176 84.5853 57.7217 83.4176 57.7217 81.9579V81.301C57.7217 79.8413 56.5176 78.6735 55.058 78.6735Z" stroke="#004621" stroke-width="4"/>
<path d="M55.058 78.6735H21.9999C20.5769 78.6735 19.3727 79.8413 19.3727 81.301V81.9579C19.3727 83.4176 20.5769 84.5853 21.9999 84.5853H55.058C56.5176 84.5853 57.7217 83.4176 57.7217 81.9579V81.301C57.7217 79.8413 56.5176 78.6735 55.058 78.6735Z" fill="#007E3C"/>
<path d="M21.1242 80.0968V79.4399C21.1242 79.2209 21.1607 79.002 21.2337 78.783C20.139 79.1115 19.3727 80.1333 19.3727 81.301V81.9579C19.3727 83.4176 20.5769 84.5853 21.9999 84.5853H55.058C56.2986 84.5853 57.3203 83.746 57.6487 82.6147C57.3811 82.7121 57.1135 82.7607 56.846 82.7607H23.7878C22.3283 82.7607 21.1242 81.5565 21.1242 80.0968Z" fill="#00662F"/>
<path d="M71.2588 2.91634H33.7491C24.992 2.91634 17.8404 10.0688 17.8404 18.7903V59.4059C17.8404 68.164 24.992 75.3164 33.7491 75.3164H71.2588C79.9795 75.3164 87.1311 68.164 87.1311 59.4059V18.7903C87.1311 10.0688 79.9795 2.91634 71.2588 2.91634Z" stroke="#004621" stroke-width="4"/>
<path d="M71.2588 2.91634H33.7491C24.992 2.91634 17.8404 10.0688 17.8404 18.7903V59.4059C17.8404 68.164 24.992 75.3164 33.7491 75.3164H71.2588C79.9795 75.3164 87.1311 68.164 87.1311 59.4059V18.7903C87.1311 10.0688 79.9795 2.91634 71.2588 2.91634Z" fill="#009B4C"/>
<path d="M20.212 10.5067C18.716 12.9151 17.8403 15.7615 17.8403 18.7903V27.9133C19.1903 28.6431 20.7228 29.0445 22.3283 29.0445C27.5096 29.0445 31.7422 24.848 31.7422 19.6661C31.7422 14.4843 27.5096 10.2512 22.3283 10.2512C21.5986 10.2512 20.8931 10.3364 20.212 10.5067Z" fill="#007E3C"/>
<path d="M57.7218 10.2512C52.5405 10.2512 48.3444 14.4843 48.3444 19.6661C48.3444 24.848 52.5405 29.0445 57.7218 29.0445C62.9032 29.0445 67.1357 24.848 67.1357 19.6661C67.1357 14.4843 62.9032 10.2512 57.7218 10.2512Z" fill="#007E3C"/>
<path d="M17.8405 29.4459V59.4059C17.8405 68.164 24.9921 75.3164 33.7492 75.3164L72.8279 75.2434C68.1574 74.2581 69.1791 59.4424 69.9088 45.32C70.3467 36.5984 62.7572 29.4459 54.0366 29.4459H17.8405Z" fill="#00B457"/>
<path d="M50.2052 18.8269C50.4242 21.4543 52.7594 23.4249 55.3866 23.2059C58.0137 22.987 59.984 20.6515 59.7651 18.0241C59.5462 15.3966 57.2109 13.4261 54.5838 13.645C51.9202 13.864 49.9863 16.1994 50.2052 18.8269Z" stroke="#004621" stroke-width="4"/>
<path d="M50.2052 18.8269C50.4242 21.4543 52.7594 23.4249 55.3866 23.2059C58.0137 22.987 59.984 20.6515 59.7651 18.0241C59.5462 15.3966 57.2109 13.4261 54.5838 13.645C51.9202 13.864 49.9863 16.1994 50.2052 18.8269Z" fill="#00CCFF"/>
<path d="M52.5769 18.6444C52.6863 19.9581 53.854 20.9069 55.1676 20.7974C56.5177 20.6879 57.4664 19.5567 57.3569 18.2065C57.2474 16.8928 56.0798 15.9075 54.7662 16.0534C53.4526 16.1629 52.4674 17.2942 52.5769 18.6444Z" fill="#00B0DC"/>
<path d="M50.8621 17.1117C50.9716 18.316 51.9933 19.1553 53.1609 19.0823C54.3285 18.9729 55.2042 17.9511 55.0948 16.7833C55.0218 15.5791 53.9636 14.7397 52.796 14.8127C51.6284 14.9222 50.7527 15.944 50.8621 17.1117Z" fill="white"/>
<path d="M55.8608 20.6149C55.8973 21.0528 56.2622 21.3812 56.7001 21.3448C57.1379 21.3083 57.4663 20.9069 57.4298 20.469C57.3934 20.0311 57.0285 19.7392 56.5906 19.7756C56.1527 19.8121 55.8243 20.1771 55.8608 20.6149Z" fill="white"/>
<path d="M20.1392 18.8269C20.3581 21.4543 22.6569 23.4249 25.3205 23.2059C27.9476 22.987 29.9179 20.6515 29.6625 18.0241C29.4436 15.3966 27.1448 13.4261 24.4812 13.645C21.8541 13.864 19.9203 16.1994 20.1392 18.8269Z" stroke="#004621" stroke-width="4"/>
<path d="M20.1392 18.8269C20.3581 21.4543 22.6569 23.4249 25.3205 23.2059C27.9476 22.987 29.9179 20.6515 29.6625 18.0241C29.4436 15.3966 27.1448 13.4261 24.4812 13.645C21.8541 13.864 19.9203 16.1994 20.1392 18.8269Z" fill="#00CCFF"/>
<path d="M22.511 18.6444C22.6205 19.9581 23.7881 20.9069 25.1017 20.7974C26.4153 20.6879 27.4005 19.5567 27.291 18.2065C27.1815 16.8928 26.0139 15.9075 24.7003 16.0534C23.3867 16.1629 22.4016 17.2942 22.511 18.6444Z" fill="#00B0DC"/>
<path d="M20.7959 17.1117C20.8689 18.316 21.9271 19.1553 23.0947 19.0823C24.2624 18.9729 25.1381 17.9511 25.0286 16.7833C24.9191 15.5791 23.8975 14.7397 22.7298 14.8127C21.5622 14.9222 20.6865 15.944 20.7959 17.1117Z" fill="white"/>
<path d="M25.7948 20.6149C25.8313 21.0528 26.1961 21.3812 26.634 21.3448C27.0718 21.3083 27.4002 20.9069 27.3637 20.469C27.3272 20.0311 26.9258 19.7392 26.488 19.7756C26.0502 19.8121 25.7583 20.1771 25.7948 20.6149Z" fill="white"/>
<path d="M59.5827 25.7602C57.9772 25.7602 56.6636 26.1617 56.6636 26.6361C56.6636 27.147 57.9772 27.5484 59.5827 27.5484C61.1881 27.5484 62.5017 27.147 62.5017 26.6361C62.5017 26.1617 61.1881 25.7602 59.5827 25.7602Z" fill="#FF99CC"/>
<path d="M20.9418 25.7602C19.3363 25.7602 18.0227 26.1617 18.0227 26.6361C18.0227 27.147 19.3363 27.5484 20.9418 27.5484C22.5473 27.5484 23.8608 27.147 23.8608 26.6361C23.8608 26.1617 22.5473 25.7602 20.9418 25.7602Z" fill="#FF99CC"/>
<path d="M72.8277 75.2433C80.8186 74.4405 87.1311 67.6165 87.1311 59.4058V18.7903C87.1311 13.426 84.4675 8.68208 80.3443 5.79921C80.5389 6.72368 80.6362 7.68464 80.6362 8.68208V49.2976C80.6362 56.45 75.8563 62.5077 69.3249 64.5147C69.5073 70.4629 70.383 74.7324 72.8277 75.2433Z" fill="#007E3C"/>
<path d="M27.2179 65.1715C23.8245 65.1715 20.6865 64.1133 18.0959 62.2887C19.4824 69.6601 25.9773 75.3164 33.7492 75.3164L72.8279 75.2434C70.3832 74.7325 69.5075 70.4629 69.325 64.5147C67.8655 64.9526 66.333 65.1715 64.7276 65.1715H27.2179Z" fill="#009B4C"/>
<path d="M80.7823 18.3159C78.4471 18.3159 76.5862 22.2571 76.5862 27.1105C76.5862 31.964 78.4471 35.9051 80.7823 35.9051C83.1175 35.9051 85.0149 31.964 85.0149 27.1105C85.0149 22.2571 83.1175 18.3159 80.7823 18.3159Z" stroke="#00662F" stroke-width="4"/>
<path d="M80.7823 18.3159C78.4471 18.3159 76.5862 22.2571 76.5862 27.1105C76.5862 31.964 78.4471 35.9051 80.7823 35.9051C83.1175 35.9051 85.0149 31.964 85.0149 27.1105C85.0149 22.2571 83.1175 18.3159 80.7823 18.3159Z" fill="#007E3C"/>
<path d="M79.8336 21.6366C78.4106 21.6366 77.2065 24.0816 77.2065 27.1105C77.2065 30.1393 78.4106 32.5843 79.8336 32.5843C81.2931 32.5843 82.4607 30.1393 82.4607 27.1105C82.4607 24.0816 81.2931 21.6366 79.8336 21.6366Z" fill="#00662F"/>
<path d="M70.8575 6.09114C69.9453 6.09114 69.179 6.82102 69.179 7.7698C69.179 8.6821 69.9453 9.44841 70.8575 9.44841C71.8061 9.44841 72.5359 8.6821 72.5359 7.7698C72.5359 6.82102 71.8061 6.09114 70.8575 6.09114Z" fill="#00662F"/>
<path d="M43.2725 7.11293C42.5428 7.11293 41.959 7.73327 41.959 8.46311C41.959 9.19294 42.5428 9.77684 43.2725 9.77684C44.0023 9.77684 44.6226 9.19294 44.6226 8.46311C44.6226 7.73327 44.0023 7.11293 43.2725 7.11293Z" fill="#00662F"/>
<path d="M32.3991 8.0617C31.5599 8.0617 30.9031 8.71856 30.9031 9.5214C30.9031 10.3242 31.5599 10.9811 32.3991 10.9811C33.2019 10.9811 33.8586 10.3242 33.8586 9.5214C33.8586 8.71856 33.2019 8.0617 32.3991 8.0617Z" fill="#00662F"/>
<path d="M40.8643 24.5196C40.5724 24.5196 40.317 24.7751 40.317 25.1035C40.317 25.3954 40.5724 25.6508 40.8643 25.6508C41.1927 25.6508 41.4116 25.3954 41.4116 25.1035C41.4116 24.7751 41.1927 24.5196 40.8643 24.5196Z" fill="#00662F"/>
<path d="M76.7686 49.0786C76.3673 49.0786 76.0753 49.407 76.0753 49.772C76.0753 50.1734 76.3673 50.4654 76.7686 50.4654C77.1335 50.4654 77.4619 50.1734 77.4619 49.772C77.4619 49.407 77.1335 49.0786 76.7686 49.0786Z" fill="#00662F"/>
<path d="M81.1471 58.9315C79.5781 58.9315 78.301 60.2087 78.301 61.7779C78.301 63.347 79.5781 64.6242 81.1471 64.6242C82.7161 64.6242 83.9932 63.347 83.9932 61.7779C83.9932 60.2087 82.7161 58.9315 81.1471 58.9315Z" fill="#00662F"/>
<path d="M71.952 22.8774C71.4776 22.8774 71.0762 23.2788 71.0762 23.7532C71.0762 24.2276 71.4776 24.629 71.952 24.629C72.4264 24.629 72.7913 24.2276 72.7913 23.7532C72.7913 23.2788 72.4264 22.8774 71.952 22.8774Z" fill="#00662F"/>
<path d="M73.0467 38.0581C72.7183 38.0581 72.4629 38.3135 72.4629 38.6785C72.4629 39.0069 72.7183 39.2624 73.0467 39.2624C73.3751 39.2624 73.667 39.0069 73.667 38.6785C73.667 38.3135 73.3751 38.0581 73.0467 38.0581Z" fill="#00662F"/>
<path d="M22.0002 36.4524V59.0774C22.0002 67.3611 28.7869 74.1851 37.0696 74.1486H37.9453C29.6991 74.1121 22.9853 67.3246 22.9853 59.0774V36.4524H22.0002Z" fill="#009B4C"/>
<path d="M27.5096 36.4524V59.0774C27.5096 67.3611 34.2964 74.1851 42.6156 74.1486H43.4548C35.2086 74.1121 28.4948 67.3246 28.4948 59.0774V36.4524H27.5096Z" fill="#009B4C"/>
<path d="M32.9464 36.4524V59.0774C32.9464 67.3611 39.7332 74.1851 48.016 74.1486H48.8552C40.6454 74.1121 33.9316 67.3246 33.9316 59.0774V36.4524H32.9464Z" fill="#009B4C"/>
<path d="M38.4562 36.4524V59.0774C38.4562 67.3611 45.2429 74.1851 53.5622 74.1486H54.4014C46.1551 74.1121 39.4413 67.3246 39.4413 59.0774V36.4524H38.4562Z" fill="#009B4C"/>
<path d="M43.8927 36.4524V59.0774C43.8927 67.3611 50.6795 74.1851 58.9623 74.1486H59.8015C51.5917 74.1121 44.8779 67.3246 44.8779 59.0774V36.4524H43.8927Z" fill="#009B4C"/>
<path d="M49.4025 36.4524V59.0774C49.4025 67.3611 56.1892 74.1851 64.5085 74.1486H65.3477C57.1014 74.1121 50.3876 67.3246 50.3876 59.0774V36.4524H49.4025Z" fill="#009B4C"/>
<path d="M55.3864 36.4524V59.0774C55.3864 67.3611 62.2097 74.1851 70.4926 74.1486H71.3318C63.0854 74.1121 56.3716 67.3246 56.3716 59.0774V36.4524H55.3864Z" fill="#009B4C"/>
<path d="M56.5175 32.9127L56.9554 34.8103L57.4298 36.7078L58.7433 35.6131L60.0569 34.5183L58.269 33.7155L56.5175 32.9127Z" stroke="#FFB413" stroke-width="4"/>
<path d="M56.5175 32.9127L56.9554 34.8103L57.4298 36.7078L58.7433 35.6131L60.0569 34.5183L58.269 33.7155L56.5175 32.9127Z" fill="#FFE7AD"/>
<path d="M58.8528 35.5402L60.0569 34.5184L58.269 33.7155L56.5175 32.9127L58.8528 35.5402Z" fill="white"/>
<path d="M59.0352 45.5754L60.6406 44.4807L59.1811 43.6413L57.6851 42.7655L57.5392 44.7361L57.4297 46.6702L59.0352 45.5754Z" stroke="#FFB413" stroke-width="4"/>
<path d="M59.0352 45.5754L60.6406 44.4807L59.1811 43.6413L57.6851 42.7655L57.5392 44.7361L57.4297 46.6702L59.0352 45.5754Z" fill="#FFE7AD"/>
<path d="M57.4297 46.6702L59.0352 45.5754L60.6406 44.4807L59.2906 43.7144L57.4297 46.6702Z" fill="white"/>
<path d="M55.3136 40.6125L57.1379 41.3424L57.0285 39.6272L56.919 37.9486L55.2042 38.8974L53.5258 39.8462L55.3136 40.6125Z" stroke="#FFB413" stroke-width="4"/>
<path d="M55.3136 40.6125L57.1379 41.3424L57.0285 39.6272L56.919 37.9486L55.2042 38.8974L53.5258 39.8462L55.3136 40.6125Z" fill="#FFE7AD"/>
<path d="M53.5258 39.8461L55.3136 40.6125L57.1379 41.3424L57.0285 39.7732L53.5258 39.8461Z" fill="white"/>
<path d="M68.9965 32.8762L62.2828 33.4966C59.2178 33.7521 56.9555 36.489 57.2109 39.5543C57.5028 42.6196 60.2029 44.9186 63.3044 44.6267L69.9818 44.0428C73.0468 43.7873 75.3455 41.0504 75.0536 37.9486C74.7982 34.8833 72.0615 32.6208 68.9965 32.8762Z" stroke="#004621" stroke-width="4"/>
<path d="M68.9965 32.8762L62.2828 33.4966C59.2178 33.7521 56.9555 36.489 57.2109 39.5543C57.5028 42.6196 60.2029 44.9186 63.3044 44.6267L69.9818 44.0428C73.0468 43.7873 75.3455 41.0504 75.0536 37.9486C74.7982 34.8833 72.0615 32.6208 68.9965 32.8762Z" fill="#009B4C"/>
<path d="M57.3568 37.8026C57.2109 38.3622 57.1622 38.9461 57.2109 39.5543C57.5028 42.6196 60.2029 44.9186 63.3044 44.6267L69.9817 44.0428C73.0467 43.7873 75.3455 41.0504 75.0536 37.9486C75.005 37.3647 74.8711 36.8052 74.6522 36.27C74.1049 38.5325 72.1345 40.3571 69.6898 40.576L62.976 41.1599C60.5313 41.3789 58.269 39.9557 57.3568 37.8026Z" fill="#007E3C"/>
<path d="M56.7 58.9315C47.4686 58.6395 39.7331 65.8649 39.4412 75.0974L72.8643 76.1921C73.1562 66.9597 65.9315 59.2599 56.7 58.9315Z" stroke="#004621" stroke-width="4"/>
<path d="M56.7 58.9315C47.4686 58.6395 39.7331 65.8649 39.4412 75.0974L72.8643 76.1921C73.1562 66.9597 65.9315 59.2599 56.7 58.9315Z" fill="#009B4C"/>
<path d="M39.733 72.4699L72.5358 73.5647C72.6088 73.5647 72.6696 73.5647 72.7183 73.5647C72.5723 72.251 72.2439 70.9738 71.8061 69.733L46.5928 68.9302C46.6658 65.7919 47.6509 62.8726 49.2199 60.4276C44.367 62.6536 40.7547 67.0691 39.733 72.4699Z" fill="#007E3C"/>
<path d="M72.5358 73.5647L39.5141 72.47C38.0546 72.4335 36.814 73.5647 36.7775 75.0244L36.741 75.6813C36.7045 77.1409 37.8356 78.3817 39.2952 78.4182L72.3534 79.5129C73.8129 79.5494 75.017 78.4182 75.09 76.9585V76.3016C75.1264 74.8419 73.9953 73.6012 72.5358 73.5647Z" stroke="#004621" stroke-width="4"/>
<path d="M72.5358 73.5647L39.5141 72.47C38.0546 72.4335 36.814 73.5647 36.7775 75.0244L36.741 75.6813C36.7045 77.1409 37.8356 78.3817 39.2952 78.4182L72.3534 79.5129C73.8129 79.5494 75.017 78.4182 75.09 76.9585V76.3016C75.1264 74.8419 73.9953 73.6012 72.5358 73.5647Z" fill="#007E3C"/>
<path d="M38.5654 73.8931L38.6019 73.2363C38.6019 73.0173 38.6384 72.7984 38.7113 72.5794C37.6167 72.8714 36.814 73.8566 36.7775 75.0244L36.741 75.6812C36.7045 77.1409 37.8357 78.3817 39.2952 78.4182L72.3533 79.5129C73.5575 79.5494 74.6156 78.7466 74.9805 77.6153C74.7129 77.6883 74.4453 77.7248 74.1777 77.7248L41.1196 76.63C39.6601 76.5935 38.5289 75.3528 38.5654 73.8931Z" fill="#00662F"/>
</svg>
