<svg width="119" height="61" viewBox="0 0 119 61" fill="none" xmlns="http://www.w3.org/2000/svg">
<path d="M26.0199 4.77266L24.5238 6.0864L23.0643 7.36365L24.6698 8.02049L26.2388 8.67738L26.1293 6.74324L26.0199 4.77266Z" stroke="#FFB413" stroke-width="4"/>
<path d="M26.0199 4.77266L24.5238 6.0864L23.0643 7.36365L24.6698 8.02049L26.2388 8.67738L26.1293 6.74324L26.0199 4.77266Z" fill="#FFE7AD"/>
<path d="M24.7793 8.09351L26.2388 8.67738L26.1293 6.74324L26.0199 4.77266L24.7793 8.09351Z" fill="white"/>
<path d="M15.9491 12.8375L17.6641 13.7863L17.7371 12.0712L17.8101 10.3561L16.0221 11.1224L14.2342 11.9252L15.9491 12.8375Z" stroke="#FFB413" stroke-width="4"/>
<path d="M15.9491 12.8375L17.6641 13.7863L17.7371 12.0712L17.8101 10.3561L16.0221 11.1224L14.2342 11.9252L15.9491 12.8375Z" fill="#FFE7AD"/>
<path d="M14.2343 11.9251L15.9492 12.8374L17.6641 13.7863L17.7371 12.217L14.2343 11.9251Z" fill="white"/>
<path d="M18.6492 7.25418L18.7951 9.22475L20.2912 8.34894L21.7507 7.47312L20.1087 6.37837L18.5032 5.32014L18.6492 7.25418Z" stroke="#FFB413" stroke-width="4"/>
<path d="M18.6492 7.25418L18.7951 9.22475L20.2912 8.34894L21.7507 7.47312L20.1087 6.37837L18.5032 5.32014L18.6492 7.25418Z" fill="#FFE7AD"/>
<path d="M18.5031 5.32014L18.649 7.25418L18.795 9.22475L20.145 8.42195L18.5031 5.32014Z" fill="white"/>
<path d="M31.7848 15.8663L28.1725 10.1735C26.5306 7.58262 23.0642 6.81631 20.4371 8.45844C17.8464 10.1006 17.0802 13.6038 18.7222 16.1947L22.3344 21.8509C23.9764 24.4784 27.4793 25.2447 30.0699 23.6026C32.6606 21.9239 33.4268 18.4572 31.7848 15.8663Z" stroke="#004621" stroke-width="4"/>
<path d="M31.7848 15.8663L28.1725 10.1735C26.5306 7.58262 23.0642 6.81631 20.4371 8.45844C17.8464 10.1006 17.0802 13.6038 18.7222 16.1947L22.3344 21.8509C23.9764 24.4784 27.4793 25.2447 30.0699 23.6026C32.6606 21.9239 33.4268 18.4572 31.7848 15.8663Z" fill="#009B4C"/>
<path d="M22.0791 7.76503C21.5196 7.911 20.9723 8.14212 20.4372 8.45839C17.8465 10.1005 17.0803 13.6037 18.7222 16.1947L22.3345 21.8509C23.9765 24.4784 27.4793 25.2447 30.07 23.6026C30.5808 23.262 31.0187 22.8727 31.3835 22.4348C29.1213 22.9822 26.6036 22.0699 25.2901 19.9899L21.6778 14.3336C20.3642 12.2535 20.5831 9.58963 22.0791 7.76503Z" fill="#007E3C"/>
<path d="M23.3196 36.3749C14.1246 35.499 5.95125 42.2135 5.07553 51.4094L38.3526 54.6207C39.2284 45.4248 32.5146 37.2507 23.3196 36.3749Z" stroke="#004621" stroke-width="4"/>
<path d="M23.3196 36.3749C14.1246 35.499 5.95125 42.2135 5.07553 51.4094L38.3526 54.6207C39.2284 45.4248 32.5146 37.2507 23.3196 36.3749Z" fill="#009B4C"/>
<path d="M5.54984 48.8186L38.2066 51.9569C38.2795 51.9569 38.3526 51.969 38.4255 51.9934C38.3161 50.6432 38.0971 49.3295 37.6958 48.0887L12.592 45.6802C12.8839 42.5784 14.015 39.732 15.7665 37.3965C10.8041 39.2941 6.89989 43.4907 5.54984 48.8186Z" fill="#007E3C"/>
<path d="M38.2066 51.9568L5.2945 48.8185C3.87147 48.6726 2.5579 49.7308 2.41194 51.1905L2.33899 51.8474C2.22952 53.2705 3.28766 54.5842 4.74718 54.7302L37.6593 57.8685C39.0823 58.0145 40.3959 56.9562 40.5419 55.4965L40.5783 54.8397C40.7243 53.38 39.6661 52.1028 38.2066 51.9568V51.9568Z" stroke="#004621" stroke-width="4"/>
<path d="M38.2066 51.9568L5.2945 48.8185C3.87147 48.6726 2.5579 49.7308 2.41195 51.1905L2.33899 51.8474C2.22952 53.2705 3.28766 54.5842 4.74718 54.7302L37.6593 57.8685C39.0823 58.0145 40.3959 56.9562 40.5419 55.4965L40.5783 54.8397C40.7243 53.38 39.6661 52.1028 38.2066 51.9568Z" fill="#007E3C"/>
<path d="M4.30941 50.1687L4.34589 49.5119C4.37021 49.2686 4.41887 49.0496 4.49184 48.855C3.39721 49.0739 2.52147 50.0228 2.412 51.1905L2.33905 51.8474C2.22958 53.2706 3.28772 54.5842 4.74725 54.7302L37.6594 57.8686C38.8635 57.978 39.9581 57.2482 40.396 56.1534C40.1284 56.2021 39.8609 56.2142 39.5933 56.1899L6.68113 53.0516C5.22161 52.9056 4.16346 51.5919 4.30941 50.1687Z" fill="#00662F"/>
<path d="M34.9958 11.9252L99.6161 21.1941L99.835 19.8439L35.1783 10.5749L34.9958 11.9252ZM24.0494 18.1653L27.1509 18.6032L27.2239 18.2017L27.2969 17.8003L27.4063 17.3989L27.5523 17.034L27.6982 16.6326L27.8442 16.3042L28.0266 15.9393L28.2091 15.6108L28.428 15.2824L28.6469 14.954L28.9023 14.6621L29.1578 14.3701L29.4132 14.0782L29.6686 13.8227L29.9605 13.5673L30.2524 13.3484L30.5808 13.1294L30.8727 12.9104L31.2011 12.728L31.493 12.582L31.8214 12.4361L32.1497 12.2901L32.4782 12.1806L32.8066 12.1076L33.0984 12.0346L33.4268 11.9616L33.7188 11.9252L33.9742 11.8887H34.2661H34.5215H34.7404L34.9958 11.9252L35.1783 10.6115L34.558 10.5385L33.9742 10.502H33.3904H32.8066L32.2592 10.5385L31.7484 10.6115L31.2375 10.7209L30.7267 10.8304L30.2889 10.9764L29.8145 11.1223L29.4132 11.3048L28.9753 11.4872L28.574 11.7062L28.2091 11.9252L27.8442 12.1441L27.4793 12.3995L27.1509 12.6915L26.8225 12.9469L26.4941 13.2389L26.2022 13.5673L25.9468 13.8957L25.6549 14.2241L25.436 14.5526L25.1805 14.9175L24.9981 15.2824L24.7792 15.6838L24.6332 16.0487L24.4508 16.4502L24.3048 16.888L24.1954 17.2895L24.1224 17.7274L24.0494 18.1653ZM24.3413 38.2358L27.1509 18.6032L24.0494 18.1653L21.2033 37.7979L24.3413 38.2358ZM29.851 48.1981L30.0335 46.8479L29.778 46.8114L29.5226 46.7749L29.3037 46.7019L29.0483 46.6289L28.7929 46.5194L28.501 46.3735L28.2456 46.264L27.9536 46.0816L27.6618 45.8991L27.4063 45.7166L27.1144 45.4977L26.859 45.2788L26.6036 45.0233L26.3482 44.7679L26.0928 44.4759L25.8738 44.184L25.6549 43.892L25.436 43.5636L25.2535 43.2352L25.0711 42.9068L24.9252 42.5419L24.7792 42.1769L24.6697 41.812L24.5603 41.4471L24.4508 41.0457L24.3778 40.6807L24.3413 40.2793L24.3048 39.8779L24.2683 39.4765V39.0751L24.3048 38.6737L24.3413 38.2358L21.2398 37.7979L21.2033 38.2358L21.1669 38.6737V39.1116V39.5495L21.2033 39.9874L21.2764 40.3888L21.3493 40.8267L21.4588 41.2281L21.5682 41.6661L21.7142 42.0675L21.8602 42.4324L22.0426 42.8338L22.2615 43.1987L22.4439 43.5636L22.6993 43.9285L22.9548 44.2934L23.2102 44.6219L23.5021 44.9503L23.794 45.2788L24.1224 45.6072L24.4873 45.8991L24.8521 46.1911L25.217 46.4465L25.6184 46.7019L26.0563 46.9574L26.5306 47.2128L27.005 47.4317L27.5158 47.6142L28.0631 47.7967L28.6469 47.9426L29.2307 48.0886L29.851 48.1981ZM94.6902 56.1533L30.0335 46.8844L29.851 48.1981L94.4713 57.467L94.6902 56.1533ZM105.673 49.9132L102.572 49.4753L102.499 49.8767L102.389 50.2781L102.28 50.6795L102.17 51.0445L102.024 51.4459L101.842 51.8108L101.696 52.1392L101.477 52.5041L101.258 52.8326L101.039 53.1245L100.82 53.4529L100.565 53.7449L100.309 54.0003L100.017 54.2558L99.7256 54.5112L99.4337 54.7301L99.1417 54.9491L98.8134 55.1681L98.5215 55.3505L98.1931 55.4965L97.8647 55.6424L97.5363 55.7884L97.2444 55.8979L96.916 56.0073L96.5876 56.0803L96.2957 56.1168L96.0038 56.1533L95.7119 56.1898H95.4565H95.2011H94.9456L94.6902 56.1533L94.5078 57.467L95.1281 57.54L95.7484 57.5765L96.3322 57.613L96.8795 57.5765L97.4268 57.54L97.9741 57.467L98.485 57.3576L98.9593 57.2481L99.4337 57.1021L99.8715 56.9562L100.309 56.7737L100.711 56.5912L101.112 56.3723L101.513 56.1533L101.878 55.9344L102.207 55.6789L102.572 55.4235L102.9 55.1316L103.192 54.8396L103.484 54.5112L103.776 54.2193L104.031 53.8544L104.287 53.5259L104.506 53.161L104.724 52.7961L104.907 52.3947L105.089 52.0298L105.235 51.6283L105.381 51.1904L105.491 50.789L105.6 50.3511L105.673 49.9132ZM105.381 29.8427L102.572 49.4753L105.673 49.9132L108.483 30.2806L105.381 29.8427ZM99.908 19.8804L99.7256 21.2306L99.9445 21.2671L100.2 21.3036L100.455 21.3766L100.674 21.4495L100.966 21.559L101.222 21.705L101.513 21.8145L101.769 21.9969L102.061 22.1794L102.353 22.3618L102.608 22.5808L102.864 22.7997L103.155 23.0552L103.374 23.3106L103.63 23.6026L103.849 23.8945L104.068 24.1864L104.287 24.5149L104.469 24.8433L104.651 25.1717L104.797 25.5366L104.943 25.9015L105.089 26.2664L105.199 26.6314L105.272 27.0328L105.345 27.3977L105.418 27.7991L105.454 28.2005V28.6019V29.0033L105.418 29.4413L105.381 29.8427L108.483 30.2806L108.519 29.8427L108.556 29.4048V28.9669V28.529L108.519 28.091L108.446 27.6896L108.373 27.2518L108.264 26.8504L108.154 26.4489L108.008 26.0475L107.862 25.6461L107.68 25.2447L107.498 24.8798L107.279 24.5149L107.06 24.1499L106.804 23.785L106.512 23.4566L106.22 23.1282L105.929 22.7997L105.6 22.4713L105.272 22.1794L104.907 21.8874L104.506 21.632L104.104 21.3766L103.666 21.1211L103.228 20.8657L102.718 20.6832L102.207 20.4643L101.659 20.2818L101.112 20.1358L100.492 19.9899L99.908 19.8804Z" fill="#004621"/>
<path d="M99.7256 20.5008L35.0688 11.2318C30.5077 10.575 26.2386 13.7863 25.5819 18.3477L22.7723 38.0169C22.1155 42.5784 25.3265 46.8479 29.8875 47.5048L94.5443 56.7737C99.1053 57.4306 103.374 54.2193 104.031 49.6578L106.841 30.0251C107.498 25.4637 104.287 21.1576 99.7256 20.5008Z" fill="#009B4C"/>
<path d="M28.9753 14.2607C27.0415 15.2095 25.8373 16.4867 25.6184 18.0193L24.9616 22.5807C26.4941 23.1646 28.2455 23.639 30.1429 23.8944C36.2364 24.7702 41.4542 23.3835 41.8556 20.7926C42.2205 18.1653 37.5865 15.3554 31.493 14.4796C30.6416 14.358 29.8024 14.285 28.9753 14.2607Z" fill="#007E3C"/>
<path d="M73.0164 20.4277C66.9229 19.5884 61.7051 20.9752 61.3038 23.5661C60.9389 26.157 65.5729 29.0034 71.6664 29.8427C77.7599 30.7185 82.9777 29.3318 83.379 26.7409C83.7439 24.15 79.1099 21.3035 73.0164 20.4277Z" fill="#007E3C"/>
<path d="M24.8521 23.3471L22.6993 38.3454C22.079 42.7244 29.9604 47.5413 40.2135 49.001L86.0425 55.5331C80.6423 54.2559 82.9045 46.994 84.7654 40.0605C85.933 35.7544 77.5408 30.901 67.2876 29.4413L24.8521 23.3471Z" fill="#00B457"/>
<path d="M70.5717 28.456C70.5352 28.7114 72.0312 29.1494 73.9286 29.4048C75.826 29.6968 77.395 29.6967 77.4315 29.4413C77.468 29.2224 75.972 28.7845 74.0746 28.529C72.1772 28.2371 70.6082 28.2371 70.5717 28.456Z" fill="#FF99CC"/>
<path d="M25.2536 21.9605C25.2171 22.2159 26.7131 22.6538 28.6105 22.9092C30.5079 23.2011 32.0769 23.2011 32.1134 22.9457C32.1498 22.6903 30.6539 22.2889 28.7565 21.9969C26.8591 21.7415 25.2901 21.705 25.2536 21.9605Z" fill="#FF99CC"/>
<path d="M86.0425 55.533C95.4929 56.4818 103.374 54.1098 103.995 50.0227L106.914 29.6602C107.278 26.9963 104.469 24.1499 99.8714 21.9969C100.017 22.5078 100.054 23.0065 99.9809 23.4931L97.0618 43.8556C96.551 47.4318 90.494 49.6578 82.722 49.5483C82.5031 52.5771 83.2329 54.8761 86.0425 55.533Z" fill="#007E3C"/>
<path d="M33.2808 42.8337C29.3036 42.2499 25.7278 41.1916 22.8087 39.8414C23.8669 43.7461 31.0915 47.6872 40.2135 49.001L86.0425 55.5331C83.2329 54.8762 82.5031 52.5772 82.722 49.5483C80.9706 49.5483 79.1462 49.4024 77.2854 49.1469L33.2808 42.8337Z" fill="#009B4C"/>
<path d="M99.4701 28.3466C96.7335 27.9816 94.2523 29.6238 93.9239 32.0687C93.559 34.4772 95.4929 36.7762 98.2295 37.1776C100.966 37.5425 103.447 35.9004 103.812 33.4919C104.177 31.047 102.207 28.748 99.4701 28.3466V28.3466Z" stroke="#00662F" stroke-width="4"/>
<path d="M99.4701 28.3466C96.7335 27.9816 94.2523 29.6238 93.9239 32.0687C93.559 34.4772 95.4929 36.7762 98.2295 37.1776C100.966 37.5425 103.447 35.9004 103.812 33.4919C104.177 31.047 102.207 28.748 99.4701 28.3466Z" fill="#007E3C"/>
<path d="M98.1201 29.8791C96.4417 29.6237 94.8727 30.6455 94.6538 32.1782C94.4349 33.6744 95.639 35.0975 97.3539 35.353C99.0688 35.5719 100.601 34.5502 100.82 33.054C101.039 31.5213 99.8351 30.0981 98.1201 29.8791Z" fill="#00662F"/>
<path d="M88.7062 20.5738C87.6116 20.3913 86.6994 20.6468 86.6264 21.1212C86.5534 21.5956 87.3926 22.07 88.4873 22.2524C89.5455 22.3984 90.4941 22.143 90.5671 21.6686C90.6401 21.2306 89.8009 20.7197 88.7062 20.5738Z" fill="#00662F"/>
<path d="M56.3047 16.4501C55.429 16.3041 54.6992 16.5231 54.6263 16.888C54.5898 17.253 55.2466 17.6544 56.1223 17.7639C56.9615 17.9099 57.7277 17.6909 57.7642 17.326C57.8372 16.961 57.1804 16.5596 56.3047 16.4501Z" fill="#00662F"/>
<path d="M43.4246 15.0635C42.4759 14.954 41.6732 15.173 41.6002 15.5744C41.5637 15.9758 42.2934 16.4137 43.2421 16.5597C44.1908 16.7057 44.9935 16.4867 45.0665 16.0488C45.103 15.6474 44.4097 15.2095 43.4246 15.0635Z" fill="#00662F"/>
<path d="M52.2181 24.7703C51.8532 24.6973 51.5613 24.7703 51.5248 24.9528C51.4883 25.0988 51.7802 25.2448 52.1451 25.3178C52.51 25.3543 52.8019 25.2813 52.8384 25.1353C52.8384 24.9893 52.5829 24.8068 52.2181 24.7703Z" fill="#00662F"/>
<path d="M92.5374 43.0893C92.0995 43.0164 91.7347 43.1258 91.6982 43.3083C91.6617 43.5272 91.9901 43.7096 92.4644 43.7826C92.9023 43.8556 93.2671 43.7461 93.3036 43.5637C93.3401 43.3812 92.9752 43.1623 92.5374 43.0893Z" fill="#00662F"/>
<path d="M96.989 48.7454C95.1646 48.49 93.5591 48.9279 93.4497 49.6942C93.3402 50.497 94.7632 51.3363 96.5876 51.5918C98.4485 51.8837 100.018 51.4458 100.127 50.643C100.236 49.8767 98.8499 49.0009 96.989 48.7454Z" fill="#00662F"/>
<path d="M88.7791 29.1494C88.1953 29.0764 87.721 29.2224 87.6845 29.4413C87.648 29.6968 88.0858 29.9522 88.6332 30.0252C89.217 30.0982 89.6914 29.9887 89.7279 29.7332C89.7643 29.5143 89.3265 29.2588 88.7791 29.1494Z" fill="#00662F"/>
<path d="M88.9981 36.9586C88.5967 36.8856 88.2683 36.9586 88.2318 37.1411C88.1953 37.3236 88.5237 37.5061 88.8886 37.5426C89.29 37.6156 89.6549 37.5061 89.6549 37.3601C89.6914 37.1776 89.3995 36.9951 88.9981 36.9586Z" fill="#00662F"/>
<path d="M29.2306 27.5436L27.5886 38.8927C27.0048 43.0527 34.4849 47.5778 44.2272 48.9645L45.2124 49.1104C35.543 47.6872 28.136 43.1622 28.7563 39.0386L30.3617 27.7261L29.2306 27.5436Z" fill="#009B4C"/>
<path d="M35.6892 28.4925L34.0837 39.805C33.4634 43.9651 40.9435 48.5266 50.6857 49.9133L51.6709 50.0593C42.0381 48.6361 34.631 44.1111 35.2148 39.9875L36.8568 28.6384L35.6892 28.4925Z" fill="#009B4C"/>
<path d="M42.038 29.4049L40.4325 40.7173C39.8487 44.8774 47.3288 49.4388 57.0346 50.8255L58.0198 50.9715C48.3869 49.5483 40.9798 45.0234 41.5636 40.8998L43.2056 29.5508L42.038 29.4049Z" fill="#009B4C"/>
<path d="M48.5328 30.3171L46.9273 41.6661C46.3071 45.7897 53.7871 50.3512 63.5294 51.7379L64.5146 51.8839C54.8453 50.4607 47.4747 45.9357 48.0585 41.8121L49.7004 30.4996L48.5328 30.3171Z" fill="#009B4C"/>
<path d="M54.8818 31.2294L53.2763 42.5419C52.656 46.702 60.1361 51.2634 69.8784 52.6501L70.8635 52.7961C61.2307 51.3729 53.8236 46.8479 54.4074 42.7243L56.0494 31.4118L54.8818 31.2294Z" fill="#009B4C"/>
<path d="M61.3766 32.1782L59.7347 43.4907C59.1509 47.6507 66.6309 52.2122 76.3732 53.5989L77.3584 53.7449C67.6891 52.3217 60.3185 47.7967 60.9023 43.6366L62.5078 32.3242L61.3766 32.1782Z" fill="#009B4C"/>
<path d="M68.3822 33.1634L66.7767 44.5124C66.1929 48.6725 73.673 53.1976 83.3789 54.5843L84.364 54.7302C74.7311 53.307 67.324 48.782 67.9079 44.6584L69.5498 33.3459L68.3822 33.1634Z" fill="#009B4C"/>
<path d="M77.8328 26.6314L75.7894 25.6462L78.0517 25.3177C78.9639 25.2083 79.2922 24.6974 78.7084 24.223C78.1611 23.7486 76.9206 23.4931 76.0084 23.6026L72.5055 24.1135L69.331 22.6538C68.4918 22.2524 67.2147 22.1429 66.5579 22.4348C65.8647 22.7268 66.0106 23.2742 66.8498 23.6756L68.8932 24.6609L66.6309 24.9893C65.7187 25.0988 65.3903 25.6097 65.9741 26.0841C66.5215 26.5585 67.762 26.8139 68.6742 26.668L72.1771 26.1936L75.3516 27.6532C76.1908 28.0547 77.4679 28.1276 78.1246 27.8722C78.8179 27.5802 78.672 26.9964 77.8328 26.6314Z" fill="black"/>
<path d="M38.6082 20.9752L36.5284 20.0264L38.8272 19.698C39.7394 19.552 40.0312 19.0776 39.4839 18.6032C38.9366 18.1288 37.696 17.8734 36.7838 17.9828L33.2809 18.4937L30.07 16.9976C29.2308 16.6326 27.9902 16.5231 27.2969 16.8151C26.6401 17.107 26.7496 17.6544 27.6253 18.0558L29.6687 19.0046L27.4064 19.333C26.4577 19.479 26.1658 19.9899 26.7496 20.4643C27.2969 20.9022 28.501 21.1942 29.4497 21.0482L32.9526 20.5373L36.127 22.0335C36.9663 22.4349 38.2069 22.5079 38.9001 22.2159C39.5934 21.924 39.4475 21.3766 38.6082 20.9752Z" fill="black"/>
<path d="M93.8145 16.0488L91.9171 16.6327L90.0562 17.2165L91.2238 18.4573L92.3914 19.698L93.1212 17.8734L93.8145 16.0488Z" stroke="#FFB413" stroke-width="4"/>
<path d="M93.8145 16.0488L91.9171 16.6327L90.0562 17.2165L91.2238 18.4573L92.3914 19.698L93.1212 17.8734L93.8145 16.0488Z" fill="#FFE7AD"/>
<path d="M91.3333 18.5667L92.3914 19.698L93.1212 17.8734L93.8145 16.0488L91.3333 18.5667Z" fill="white"/>
<path d="M81.299 19.26L82.5031 20.8292L83.2694 19.2965L84.0356 17.7639H82.0653L80.1314 17.7274L81.299 19.26Z" stroke="#FFB413" stroke-width="4"/>
<path d="M81.299 19.26L82.5031 20.8292L83.2694 19.2965L84.0356 17.7639H82.0653L80.1314 17.7274L81.299 19.26Z" fill="#FFE7AD"/>
<path d="M80.1313 17.7274L81.2989 19.26L82.503 20.8292L83.1963 19.4425L80.1313 17.7274Z" fill="white"/>
<path d="M86.0791 15.2824L85.4223 17.1436L87.1372 16.9611L88.8157 16.7422L87.7575 15.1L86.7358 13.4578L86.0791 15.2824Z" stroke="#FFB413" stroke-width="4"/>
<path d="M86.0791 15.2824L85.4223 17.1436L87.1372 16.9611L88.8157 16.7422L87.7575 15.1L86.7358 13.4578L86.0791 15.2824Z" fill="#FFE7AD"/>
<path d="M86.7358 13.4578L86.079 15.2824L85.4222 17.1436L86.9912 16.9611L86.7358 13.4578Z" fill="white"/>
<path d="M94.5078 28.5289L93.5592 21.8874C93.1213 18.8221 90.2752 16.7056 87.2102 17.1435C84.1817 17.5814 82.0289 20.4278 82.4668 23.4931L83.4155 30.1346C83.8533 33.1634 86.7359 35.3164 89.7644 34.8785C92.8294 34.4406 94.9457 31.5942 94.5078 28.5289Z" stroke="#004621" stroke-width="4"/>
<path d="M94.5078 28.5289L93.5592 21.8874C93.1213 18.8221 90.2752 16.7056 87.2102 17.1435C84.1817 17.5814 82.0289 20.4278 82.4668 23.4931L83.4155 30.1346C83.8533 33.1634 86.7359 35.3164 89.7644 34.8785C92.8294 34.4406 94.9457 31.5942 94.5078 28.5289Z" fill="#009B4C"/>
<path d="M88.9982 17.1435C88.4144 17.0705 87.8306 17.034 87.2103 17.1435C84.1818 17.5814 82.029 20.4278 82.4669 23.4931L83.4156 30.1347C83.8534 33.1635 86.736 35.3166 89.7644 34.8787C90.3847 34.8057 90.932 34.6232 91.4429 34.3678C89.1441 33.9299 87.2468 32.0688 86.8819 29.6238L85.9332 22.9822C85.5684 20.5373 86.8819 18.2018 88.9982 17.1435Z" fill="#007E3C"/>
<path d="M96.5876 37.1411C87.3926 37.652 80.3504 45.5707 80.8612 54.8032L114.248 52.9056C113.737 43.6731 105.819 36.6302 96.5876 37.1411Z" stroke="#004621" stroke-width="4"/>
<path d="M96.5876 37.1411C87.3926 37.652 80.3504 45.5707 80.8612 54.8032L114.248 52.9056C113.737 43.6731 105.819 36.6302 96.5876 37.1411Z" fill="#009B4C"/>
<path d="M80.8976 52.1392L113.7 50.2782C113.749 50.2782 113.81 50.2782 113.883 50.2782C113.591 48.9644 113.19 47.7237 112.606 46.556L87.429 47.9791C87.2465 44.8773 87.9398 41.885 89.2899 39.2941C84.6559 41.9215 81.4449 46.6654 80.8976 52.1392Z" fill="#007E3C"/>
<path d="M113.7 50.2783L80.6788 52.1758C79.2192 52.2488 78.1246 53.4895 78.1976 54.9492L78.2341 55.606C78.3071 57.0657 79.5841 58.197 81.0072 58.0875L114.029 56.2264C115.488 56.1534 116.619 54.8762 116.51 53.4165L116.474 52.7962C116.401 51.3365 115.16 50.2053 113.7 50.2783V50.2783Z" stroke="#004621" stroke-width="4"/>
<path d="M113.7 50.2783L80.6788 52.1758C79.2192 52.2488 78.1246 53.4895 78.1976 54.9492L78.2341 55.606C78.3071 57.0657 79.5841 58.197 81.0072 58.0875L114.029 56.2264C115.488 56.1534 116.619 54.8762 116.51 53.4165L116.474 52.7962C116.401 51.3365 115.16 50.2053 113.7 50.2783Z" fill="#007E3C"/>
<path d="M79.8761 53.6719L79.8397 53.015C79.8397 52.7718 79.864 52.5406 79.9126 52.3217C78.8545 52.7231 78.1247 53.7814 78.1977 54.9491L78.2342 55.606C78.3072 57.0657 79.5842 58.197 81.0073 58.0875L114.029 56.2264C115.233 56.1534 116.255 55.2411 116.474 54.1098C116.23 54.2071 115.963 54.2679 115.671 54.2923L82.6857 56.1534C81.2262 56.2264 79.9856 55.1316 79.8761 53.6719Z" fill="#00662F"/>
</svg>
