<svg width="88" height="87" viewBox="0 0 88 87" fill="none" xmlns="http://www.w3.org/2000/svg">
<path d="M5.72186 38.715L6.81647 40.3571L7.87459 41.9992L8.75028 40.503L9.62598 39.0434L7.69216 38.8609L5.72186 38.715Z" stroke="#FFB413" stroke-width="4"/>
<path d="M5.72186 38.715L6.81647 40.3571L7.87459 41.9992L8.75028 40.503L9.62598 39.0434L7.69216 38.8609L5.72186 38.715Z" fill="#FFE7AD"/>
<path d="M8.82324 40.3935L9.62598 39.0434L7.69216 38.8609L5.72186 38.715L8.82324 40.3935Z" fill="white"/>
<path d="M12.326 49.8084L13.4937 48.2393L11.8152 47.9109L10.1367 47.619L10.6475 49.5165L11.1584 51.3776L12.326 49.8084Z" stroke="#FFB413" stroke-width="4"/>
<path d="M12.326 49.8084L13.4937 48.2393L11.8152 47.9109L10.1367 47.619L10.6475 49.5165L11.1584 51.3776L12.326 49.8084Z" fill="#FFE7AD"/>
<path d="M11.1584 51.3776L12.3261 49.8084L13.4937 48.2392L11.9612 47.9473L11.1584 51.3776Z" fill="white"/>
<path d="M7.18133 46.3418L9.11523 46.4513L8.45843 44.8821L7.80166 43.3129L6.52457 44.7726L5.211 46.2323L7.18133 46.3418Z" stroke="#FFB413" stroke-width="4"/>
<path d="M7.18133 46.3418L9.11523 46.4513L8.45843 44.8821L7.80166 43.3129L6.52457 44.7726L5.211 46.2323L7.18133 46.3418Z" fill="#FFE7AD"/>
<path d="M5.211 46.2323L7.18133 46.3418L9.11523 46.4513L8.53143 45.0281L5.211 46.2323Z" fill="white"/>
<path d="M17.5073 34.5183L11.3773 37.3282C8.56774 38.6054 7.32716 41.9262 8.60424 44.7361C9.88132 47.5459 13.2382 48.7867 16.0478 47.5094L22.1413 44.6996C24.9509 43.4224 26.1915 40.1016 24.9144 37.2917C23.6374 34.4818 20.2804 33.2411 17.5073 34.5183V34.5183Z" stroke="#004621" stroke-width="4"/>
<path d="M17.5073 34.5183L11.3773 37.3282C8.56774 38.6054 7.32716 41.9262 8.60424 44.7361C9.88132 47.5459 13.2382 48.7867 16.0478 47.5094L22.1413 44.6996C24.9509 43.4224 26.1915 40.1016 24.9144 37.2917C23.6374 34.4818 20.2804 33.2411 17.5073 34.5183Z" fill="#009B4C"/>
<path d="M8.13 43.021C8.20298 43.6048 8.36107 44.1765 8.60432 44.7361C9.8814 47.5459 13.2383 48.7866 16.0479 47.5094L22.1413 44.6996C24.9509 43.4224 26.1915 40.1016 24.9144 37.2918C24.6712 36.7322 24.3428 36.2457 23.9292 35.8321C24.1847 38.1676 22.9441 40.5031 20.6818 41.5248L14.5883 44.3347C12.3261 45.3564 9.73547 44.7726 8.13 43.021Z" fill="#007E3C"/>
<path d="M41.9179 64.5512C32.6865 64.5512 25.2064 72.0686 25.2064 81.3011H58.6294C58.6294 72.0686 51.1494 64.5512 41.9179 64.5512Z" stroke="#004621" stroke-width="4"/>
<path d="M41.9179 64.5512C32.6865 64.5512 25.2064 72.0686 25.2064 81.3011H58.6294C58.6294 72.0686 51.1494 64.5512 41.9179 64.5512Z" fill="#009B4C"/>
<path d="M25.3886 78.6735H58.2279C58.3008 78.6735 58.3738 78.6735 58.4468 78.6735C58.2278 77.3355 57.863 76.0705 57.3521 74.8784H32.1389C32.1389 71.7401 32.9781 68.8208 34.5106 66.3029C29.7307 68.6748 26.2643 73.2363 25.3886 78.6735Z" fill="#007E3C"/>
<path d="M58.228 78.6735H25.1697C23.7102 78.6735 22.5426 79.8413 22.5426 81.301V81.9579C22.5426 83.4176 23.7102 84.5853 25.1697 84.5853H58.228C59.6875 84.5853 60.8916 83.4176 60.8916 81.9579V81.301C60.8916 79.8413 59.6875 78.6735 58.228 78.6735Z" stroke="#004621" stroke-width="4"/>
<path d="M58.228 78.6735H25.1697C23.7102 78.6735 22.5426 79.8413 22.5426 81.301V81.9579C22.5426 83.4176 23.7102 84.5853 25.1697 84.5853H58.228C59.6875 84.5853 60.8916 83.4176 60.8916 81.9579V81.301C60.8916 79.8413 59.6875 78.6735 58.228 78.6735Z" fill="#007E3C"/>
<path d="M24.2941 80.0968V79.4399C24.2941 79.2209 24.3185 79.002 24.3671 78.783C23.309 79.1115 22.5427 80.1333 22.5427 81.301V81.9579C22.5427 83.4176 23.7103 84.5853 25.1698 84.5853H58.2281C59.4687 84.5853 60.4903 83.746 60.7822 82.6147C60.539 82.7121 60.2836 82.7607 60.016 82.7607H26.9213C25.4983 82.7607 24.2941 81.5565 24.2941 80.0968Z" fill="#00662F"/>
<path d="M69.9041 2.91634H32.3578C23.6372 2.91634 16.4855 10.0688 16.4855 18.7903V59.4059C16.4855 68.164 23.6372 75.3164 32.3578 75.3164H69.9041C78.6247 75.3164 85.7764 68.164 85.7764 59.4059V18.7903C85.7764 10.0688 78.6247 2.91634 69.9041 2.91634Z" stroke="#004621" stroke-width="4"/>
<path d="M69.9041 2.91634H32.3578C23.6372 2.91634 16.4855 10.0688 16.4855 18.7903V59.4059C16.4855 68.164 23.6372 75.3164 32.3578 75.3164H69.9041C78.6247 75.3164 85.7764 68.164 85.7764 59.4059V18.7903C85.7764 10.0688 78.6247 2.91634 69.9041 2.91634Z" fill="#009B4C"/>
<path d="M18.8208 10.5067C17.3613 12.9151 16.4856 15.7615 16.4856 18.7903V27.9133C17.7992 28.6431 19.3317 29.0445 20.9736 29.0445C26.155 29.0445 30.3511 24.848 30.3511 19.6661C30.3511 14.4843 26.155 10.2512 20.9736 10.2512C20.2439 10.2512 19.5263 10.3364 18.8208 10.5067Z" fill="#007E3C"/>
<path d="M56.367 10.2512C51.1857 10.2512 46.9531 14.4843 46.9531 19.6661C46.9531 24.848 51.1857 29.0445 56.367 29.0445C61.5483 29.0445 65.7444 24.848 65.7444 19.6661C65.7444 14.4843 61.5483 10.2512 56.367 10.2512Z" fill="#007E3C"/>
<path d="M16.4855 29.4459V59.4059C16.4855 68.164 23.6371 75.3164 32.3578 75.3164L71.4365 75.2434C66.8025 74.2581 67.8242 59.4424 68.554 45.32C68.9918 36.5984 61.4023 29.4459 52.6452 29.4459H16.4855Z" fill="#00B457"/>
<path d="M48.8506 18.8269C49.0695 21.4543 51.3682 23.4249 54.0319 23.2059C56.659 22.987 58.6294 20.6515 58.374 18.0241C58.155 15.3966 55.8563 13.4261 53.1927 13.645C50.5655 13.864 48.6316 16.1994 48.8506 18.8269Z" stroke="#004621" stroke-width="4"/>
<path d="M48.8506 18.8269C49.0695 21.4543 51.3682 23.4249 54.0319 23.2059C56.659 22.987 58.6294 20.6515 58.374 18.0241C58.155 15.3966 55.8563 13.4261 53.1927 13.645C50.5655 13.864 48.6316 16.1994 48.8506 18.8269Z" fill="#00CCFF"/>
<path d="M51.2224 18.6444C51.3319 19.9581 52.4995 20.9069 53.8131 20.7974C55.1267 20.6879 56.1119 19.5567 56.0024 18.2065C55.893 16.8928 54.7253 15.9075 53.4117 16.0534C52.0981 16.1629 51.113 17.2942 51.2224 18.6444Z" fill="#00B0DC"/>
<path d="M49.5074 17.1117C49.5804 18.316 50.6386 19.1553 51.8062 19.0823C52.9738 18.9729 53.8495 17.9511 53.74 16.7833C53.6306 15.5791 52.6089 14.7397 51.4413 14.8127C50.2737 14.9222 49.398 15.944 49.5074 17.1117Z" fill="white"/>
<path d="M54.4697 20.6149C54.5062 21.0528 54.9075 21.3812 55.3454 21.3448C55.7832 21.3083 56.1116 20.9069 56.0751 20.469C56.0386 20.0311 55.6373 19.7392 55.1995 19.7756C54.7616 19.8121 54.4333 20.1771 54.4697 20.6149Z" fill="white"/>
<path d="M18.748 18.8269C19.0034 21.4543 21.3021 23.4249 23.9293 23.2059C26.5929 22.987 28.5267 20.6515 28.3078 18.0241C28.0889 15.3966 25.7902 13.4261 23.1266 13.645C20.4994 13.864 18.5291 16.1994 18.748 18.8269Z" stroke="#004621" stroke-width="4"/>
<path d="M18.748 18.8269C19.0034 21.4543 21.3021 23.4249 23.9293 23.2059C26.5929 22.987 28.5267 20.6515 28.3078 18.0241C28.0889 15.3966 25.7902 13.4261 23.1266 13.645C20.4994 13.864 18.5291 16.1994 18.748 18.8269Z" fill="#00CCFF"/>
<path d="M21.1561 18.6444C21.2655 19.9581 22.4332 20.9069 23.7467 20.7974C25.0603 20.6879 26.0455 19.5567 25.936 18.2065C25.8266 16.8928 24.6589 15.9075 23.3454 16.0534C22.0318 16.1629 21.0466 17.2942 21.1561 18.6444Z" fill="#00B0DC"/>
<path d="M19.4048 17.1117C19.5142 18.316 20.5359 19.1553 21.74 19.0823C22.9076 18.9729 23.7833 17.9511 23.6739 16.7833C23.5644 15.5791 22.5427 14.7397 21.3751 14.8127C20.2075 14.9222 19.3318 15.944 19.4048 17.1117Z" fill="white"/>
<path d="M24.4036 20.6149C24.4401 21.0528 24.8415 21.3812 25.2794 21.3448C25.7173 21.3083 26.0457 20.9069 26.0092 20.469C25.9727 20.0311 25.5713 19.7392 25.1334 19.7756C24.6956 19.8121 24.3672 20.1771 24.4036 20.6149Z" fill="white"/>
<path d="M58.228 25.7602C56.586 25.7602 55.2725 26.1617 55.2725 26.6361C55.2725 27.147 56.586 27.5484 58.228 27.5484C59.8334 27.5484 61.147 27.147 61.147 26.6361C61.147 26.1617 59.8334 25.7602 58.228 25.7602Z" fill="#FF99CC"/>
<path d="M19.587 25.7602C17.945 25.7602 16.6315 26.1617 16.6315 26.6361C16.6315 27.147 17.945 27.5484 19.587 27.5484C21.1925 27.5484 22.5061 27.147 22.5061 26.6361C22.5061 26.1617 21.1925 25.7602 19.587 25.7602Z" fill="#FF99CC"/>
<path d="M71.4366 75.2433C79.464 74.4405 85.7764 67.6165 85.7764 59.4058V18.7903C85.7764 13.426 83.0763 8.68208 78.9896 5.79921C79.1599 6.72368 79.245 7.68464 79.245 8.68208V49.2976C79.245 56.45 74.4651 62.5077 67.9337 64.5147C68.1526 70.4629 69.0284 74.7324 71.4366 75.2433Z" fill="#007E3C"/>
<path d="M25.8629 65.1715C22.4695 65.1715 19.3316 64.1133 16.7409 62.2887C18.091 69.6601 24.6223 75.3164 32.3578 75.3164L71.4365 75.2434C69.0283 74.7325 68.1526 70.4629 67.9336 64.5147C66.5106 64.9526 64.9781 65.1715 63.3726 65.1715H25.8629Z" fill="#009B4C"/>
<path d="M79.4275 18.3159C77.0923 18.3159 75.1949 22.2571 75.1949 27.1105C75.1949 31.964 77.0923 35.9051 79.4275 35.9051C81.7627 35.9051 83.6602 31.964 83.6602 27.1105C83.6602 22.2571 81.7627 18.3159 79.4275 18.3159Z" stroke="#00662F" stroke-width="4"/>
<path d="M79.4275 18.3159C77.0923 18.3159 75.1949 22.2571 75.1949 27.1105C75.1949 31.964 77.0923 35.9051 79.4275 35.9051C81.7627 35.9051 83.6602 31.964 83.6602 27.1105C83.6602 22.2571 81.7627 18.3159 79.4275 18.3159Z" fill="#007E3C"/>
<path d="M78.4788 21.6366C77.0192 21.6366 75.8516 24.0816 75.8516 27.1105C75.8516 30.1393 77.0192 32.5843 78.4788 32.5843C79.9383 32.5843 81.106 30.1393 81.106 27.1105C81.106 24.0816 79.9383 21.6366 78.4788 21.6366Z" fill="#00662F"/>
<path d="M69.5027 6.09114C68.554 6.09114 67.8243 6.82102 67.8243 7.7698C67.8243 8.6821 68.554 9.44841 69.5027 9.44841C70.4149 9.44841 71.1812 8.6821 71.1812 7.7698C71.1812 6.82102 70.4149 6.09114 69.5027 6.09114Z" fill="#00662F"/>
<path d="M41.9178 7.11293C41.188 7.11293 40.5677 7.73327 40.5677 8.46311C40.5677 9.19294 41.188 9.77684 41.9178 9.77684C42.6475 9.77684 43.2678 9.19294 43.2678 8.46311C43.2678 7.73327 42.6475 7.11293 41.9178 7.11293Z" fill="#00662F"/>
<path d="M31.0079 8.0617C30.2052 8.0617 29.5483 8.71856 29.5483 9.5214C29.5483 10.3242 30.2052 10.9811 31.0079 10.9811C31.8107 10.9811 32.4675 10.3242 32.4675 9.5214C32.4675 8.71856 31.8107 8.0617 31.0079 8.0617Z" fill="#00662F"/>
<path d="M39.5096 24.5196C39.1812 24.5196 38.9623 24.7751 38.9623 25.1035C38.9623 25.3954 39.1812 25.6508 39.5096 25.6508C39.8015 25.6508 40.0569 25.3954 40.0569 25.1035C40.0569 24.7751 39.8015 24.5196 39.5096 24.5196Z" fill="#00662F"/>
<path d="M75.4138 49.0786C75.0124 49.0786 74.7206 49.407 74.7206 49.772C74.7206 50.1734 75.0124 50.4654 75.4138 50.4654C75.7786 50.4654 76.0706 50.1734 76.0706 49.772C76.0706 49.407 75.7786 49.0786 75.4138 49.0786Z" fill="#00662F"/>
<path d="M79.7924 58.9315C78.2234 58.9315 76.9464 60.2087 76.9464 61.7779C76.9464 63.347 78.2234 64.6242 79.7924 64.6242C81.3613 64.6242 82.6384 63.347 82.6384 61.7779C82.6384 60.2087 81.3613 58.9315 79.7924 58.9315Z" fill="#00662F"/>
<path d="M70.5608 22.8774C70.0865 22.8774 69.7216 23.2788 69.7216 23.7532C69.7216 24.2276 70.0865 24.629 70.5608 24.629C71.0351 24.629 71.4365 24.2276 71.4365 23.7532C71.4365 23.2788 71.0351 22.8774 70.5608 22.8774Z" fill="#00662F"/>
<path d="M71.692 38.0581C71.3636 38.0581 71.0717 38.3135 71.0717 38.6785C71.0717 39.0069 71.3636 39.2624 71.692 39.2624C72.0205 39.2624 72.2759 39.0069 72.2759 38.6785C72.2759 38.3135 72.0205 38.0581 71.692 38.0581Z" fill="#00662F"/>
<path d="M20.6088 36.4524V59.0774C20.6088 67.3611 27.432 74.1851 35.7148 74.1486H36.554C28.3077 74.1121 21.5939 67.3246 21.5939 59.0774V36.4524H20.6088Z" fill="#009B4C"/>
<path d="M26.155 36.4524V59.0774C26.155 67.3611 32.9417 74.1851 41.2609 74.1486H42.1001C33.8539 74.1121 27.1402 67.3246 27.1402 59.0774V36.4524H26.155Z" fill="#009B4C"/>
<path d="M31.5552 36.4524V59.0774C31.5552 67.3611 38.3785 74.1851 46.6613 74.1486H47.5005C39.2542 74.1121 32.5403 67.3246 32.5403 59.0774V36.4524H31.5552Z" fill="#009B4C"/>
<path d="M37.1014 36.4524V59.0774C37.1014 67.3611 43.8882 74.1851 52.2074 74.1486H53.0466C44.8004 74.1121 38.0866 67.3246 38.0866 59.0774V36.4524H37.1014Z" fill="#009B4C"/>
<path d="M42.5015 36.4524V59.0774C42.5015 67.3611 49.3248 74.1851 57.6076 74.1486H58.4468C50.2005 74.1121 43.4866 67.3246 43.4866 59.0774V36.4524H42.5015Z" fill="#009B4C"/>
<path d="M48.0479 36.4524V59.0774C48.0479 67.3611 54.8346 74.1851 63.1539 74.1486H63.9932C55.7469 74.1121 49.0331 67.3246 49.0331 59.0774V36.4524H48.0479Z" fill="#009B4C"/>
<path d="M54.0317 36.4524V59.0774C54.0317 67.3611 60.8185 74.1851 69.1378 74.1486H69.9771C61.7307 74.1121 55.0169 67.3246 55.0169 59.0774V36.4524H54.0317Z" fill="#009B4C"/>
<path d="M54.6155 41.4153L55.9291 42.875L57.2427 44.2982L57.863 42.729L58.5198 41.1234L56.5494 41.2693L54.6155 41.4153Z" stroke="#FFB413" stroke-width="4"/>
<path d="M54.6155 41.4153L55.9291 42.875L57.2427 44.2982L57.863 42.729L58.5198 41.1234L56.5494 41.2693L54.6155 41.4153Z" fill="#FFE7AD"/>
<path d="M57.936 42.5831L58.5198 41.1234L56.5494 41.2694L54.6155 41.4153L57.936 42.5831Z" fill="white"/>
<path d="M62.8254 51.3777L63.7375 49.6625L62.0227 49.5895L60.3078 49.553L61.1105 51.3411L61.9132 53.0928L62.8254 51.3777Z" stroke="#FFB413" stroke-width="4"/>
<path d="M62.8254 51.3777L63.7375 49.6625L62.0227 49.5895L60.3078 49.553L61.1105 51.3411L61.9132 53.0928L62.8254 51.3777Z" fill="#FFE7AD"/>
<path d="M61.9132 53.0928L62.8254 51.3777L63.7375 49.6625L62.1686 49.5896L61.9132 53.0928Z" fill="white"/>
<path d="M57.2063 48.7502L59.1401 48.5677L58.2644 47.108L57.3522 45.6119L56.2941 47.2905L55.2725 48.9327L57.2063 48.7502Z" stroke="#FFB413" stroke-width="4"/>
<path d="M57.2063 48.7502L59.1401 48.5677L58.2644 47.108L57.3522 45.6119L56.2941 47.2905L55.2725 48.9327L57.2063 48.7502Z" fill="#FFE7AD"/>
<path d="M55.2725 48.9327L57.2063 48.7502L59.1401 48.5678L58.3374 47.2176L55.2725 48.9327Z" fill="white"/>
<path d="M65.5985 35.4671L59.9793 39.1528C57.4251 40.8679 56.6954 44.3346 58.3738 46.9256C60.0523 49.5165 63.5551 50.2098 66.1093 48.5312L71.7649 44.8455C74.3191 43.1669 75.0488 39.6637 73.3704 37.1092C71.6554 34.5183 68.1891 33.7885 65.5985 35.4671Z" stroke="#004621" stroke-width="4"/>
<path d="M65.5985 35.4671L59.9793 39.1528C57.4251 40.8679 56.6954 44.3346 58.3738 46.9256C60.0523 49.5165 63.5551 50.2098 66.1093 48.5312L71.7649 44.8455C74.3191 43.1669 75.0488 39.6637 73.3704 37.1092C71.6554 34.5183 68.1891 33.7885 65.5985 35.4671Z" fill="#009B4C"/>
<path d="M57.6441 45.3199C57.7901 45.8673 58.0455 46.4147 58.3739 46.9256C60.0523 49.5165 63.5551 50.2099 66.1093 48.5312L71.7649 44.8456C74.3191 43.1669 75.0488 39.6637 73.3704 37.1093C73.042 36.5984 72.6407 36.1605 72.1663 35.7956C72.7866 38.0581 71.9109 40.576 69.8311 41.9262L64.2119 45.6119C62.1321 46.9621 59.505 46.7796 57.6441 45.3199Z" fill="#007E3C"/>
<path d="M54.9806 64.5512C45.7491 64.5512 38.2691 72.0686 38.2691 81.3011H71.6921C71.6921 72.0686 64.2121 64.5512 54.9806 64.5512Z" stroke="#004621" stroke-width="4"/>
<path d="M54.9806 64.5512C45.7491 64.5512 38.2691 72.0686 38.2691 81.3011H71.6921C71.6921 72.0686 64.2121 64.5512 54.9806 64.5512Z" fill="#009B4C"/>
<path d="M38.4881 78.6735H71.2908C71.3638 78.6735 71.4368 78.6735 71.5098 78.6735C71.2908 77.3355 70.9381 76.0705 70.4516 74.8784H45.2019C45.2019 71.7401 46.0776 68.8208 47.5736 66.3029C42.7937 68.6748 39.3273 73.2363 38.4881 78.6735Z" fill="#007E3C"/>
<path d="M71.2907 78.6735H38.2326C36.8095 78.6735 35.6054 79.8413 35.6054 81.301V81.9579C35.6054 83.4176 36.8095 84.5853 38.2326 84.5853H71.2907C72.7503 84.5853 73.9543 83.4176 73.9543 81.9579V81.301C73.9543 79.8413 72.7503 78.6735 71.2907 78.6735Z" stroke="#004621" stroke-width="4"/>
<path d="M71.2907 78.6735H38.2326C36.8095 78.6735 35.6054 79.8413 35.6054 81.301V81.9579C35.6054 83.4176 36.8095 84.5853 38.2326 84.5853H71.2907C72.7503 84.5853 73.9543 83.4176 73.9543 81.9579V81.301C73.9543 79.8413 72.7503 78.6735 71.2907 78.6735Z" fill="#007E3C"/>
<path d="M37.3568 80.0968V79.4399C37.3568 79.2209 37.3933 79.002 37.4662 78.783C36.3716 79.1115 35.6053 80.1333 35.6053 81.301V81.9579C35.6053 83.4176 36.8095 84.5853 38.2325 84.5853H71.2907C72.5313 84.5853 73.553 83.746 73.8813 82.6147C73.6138 82.7121 73.3462 82.7607 73.0786 82.7607H40.0204C38.5609 82.7607 37.3568 81.5565 37.3568 80.0968Z" fill="#00662F"/>
</svg>
