<svg width="91" height="77" viewBox="0 0 91 77" fill="none" xmlns="http://www.w3.org/2000/svg">
<path d="M15.0149 12.4161L13.8837 14.0218L12.7526 15.6274L14.4675 15.8829L16.146 16.1748L15.5987 14.2772L15.0149 12.4161Z" stroke="#FFB413" stroke-width="4"/>
<path d="M15.0149 12.4161L13.8837 14.0218L12.7526 15.6274L14.4675 15.8829L16.146 16.1748L15.5987 14.2772L15.0149 12.4161Z" fill="#FFE7AD"/>
<path d="M14.6135 15.9194L16.146 16.1748L15.5987 14.2772L15.0149 12.4161L14.6135 15.9194Z" fill="white"/>
<path d="M7.13349 22.6338L8.99438 23.1447L8.66599 21.4661L8.33759 19.7874L6.8051 20.9552L5.2361 22.1229L7.13349 22.6338Z" stroke="#FFB413" stroke-width="4"/>
<path d="M7.13349 22.6338L8.99438 23.1447L8.66599 21.4661L8.33759 19.7874L6.8051 20.9552L5.2361 22.1229L7.13349 22.6338Z" fill="#FFE7AD"/>
<path d="M5.2361 22.1229L7.13349 22.6338L8.99438 23.1447L8.70247 21.612L5.2361 22.1229Z" fill="white"/>
<path d="M8.44696 16.5762L9.06725 18.4373L10.2714 17.233L11.512 16.0288L9.68756 15.3719L7.82666 14.715L8.44696 16.5762Z" stroke="#FFB413" stroke-width="4"/>
<path d="M8.44696 16.5762L9.06725 18.4373L10.2714 17.233L11.512 16.0288L9.68756 15.3719L7.82666 14.715L8.44696 16.5762Z" fill="#FFE7AD"/>
<path d="M7.82663 14.715L8.44693 16.5762L9.06722 18.4373L10.1619 17.3425L7.82663 14.715Z" fill="white"/>
<path d="M23.2247 21.831L18.4083 17.1601C16.1825 15.0435 12.6067 15.0801 10.4904 17.3061C8.3376 19.5321 8.41057 23.1082 10.6363 25.2248L15.4528 29.8957C17.6785 32.0487 21.2544 31.9758 23.3707 29.7498C25.5235 27.5238 25.4505 23.984 23.2247 21.831Z" stroke="#004621" stroke-width="4"/>
<path d="M23.2247 21.831L18.4083 17.1601C16.1825 15.0435 12.6067 15.0801 10.4904 17.3061C8.3376 19.5321 8.41057 23.1082 10.6363 25.2248L15.4528 29.8957C17.6785 32.0487 21.2544 31.9758 23.3707 29.7498C25.5235 27.5238 25.4505 23.984 23.2247 21.831Z" fill="#009B4C"/>
<path d="M11.8769 16.2478C11.3661 16.5154 10.9039 16.8681 10.4904 17.306C8.3376 19.532 8.41057 23.1082 10.6363 25.2248L15.4528 29.8958C17.6785 32.0488 21.2544 31.9758 23.3707 29.7498C23.8085 29.3119 24.1491 28.8253 24.3923 28.2901C22.3125 29.3849 19.6489 29.0929 17.8975 27.3778L13.0446 22.7068C11.2566 20.9917 10.8553 18.3643 11.8769 16.2478V16.2478Z" fill="#007E3C"/>
<path d="M23.6989 52.7032C14.4674 52.7397 7.02388 60.257 7.06037 69.4895L40.4834 69.38C40.4469 60.1475 32.9304 52.6667 23.6989 52.7032Z" stroke="#004621" stroke-width="4"/>
<path d="M23.6989 52.7032C14.4674 52.7397 7.02388 60.257 7.06037 69.4895L40.4834 69.38C40.4469 60.1475 32.9304 52.6667 23.6989 52.7032Z" fill="#009B4C"/>
<path d="M7.24272 66.862L40.082 66.7526C40.1549 66.7526 40.2158 66.7526 40.2644 66.7526C40.082 65.4388 39.7171 64.1616 39.2063 62.9574L13.9565 63.0668C13.9565 59.9285 14.7958 56.9726 16.2918 54.4912C11.5483 56.8632 8.08195 61.4247 7.24272 66.862Z" fill="#007E3C"/>
<path d="M40.082 66.7525L7.02383 66.862C5.56431 66.862 4.39669 68.0662 4.39669 69.5259V70.1828C4.39669 71.6425 5.60079 72.8103 7.06031 72.8103L40.1185 72.7008C41.578 72.6643 42.7456 71.4965 42.7456 70.0368V69.38C42.7456 67.9203 41.5415 66.7525 40.082 66.7525V66.7525Z" stroke="#004621" stroke-width="4"/>
<path d="M40.082 66.7525L7.02383 66.862C5.56431 66.862 4.39669 68.0662 4.39669 69.5259V70.1828C4.39669 71.6425 5.60079 72.8103 7.06031 72.8103L40.1185 72.7008C41.578 72.6643 42.7456 71.4965 42.7456 70.0368V69.38C42.7456 67.9203 41.5415 66.7525 40.082 66.7525V66.7525Z" fill="#007E3C"/>
<path d="M6.1481 68.3216V67.6648C6.1481 67.4215 6.17243 67.2025 6.22108 67.0079C5.16292 67.3363 4.39668 68.3581 4.39668 69.5259V70.1827C4.39668 71.6425 5.60078 72.8103 7.0603 72.8103L40.1184 72.7008C41.3226 72.7008 42.3442 71.8249 42.6726 70.6937C42.405 70.791 42.1375 70.8396 41.8699 70.8396L8.81173 70.9491C7.35221 70.9491 6.1481 69.7813 6.1481 68.3216V68.3216Z" fill="#00662F"/>
<path d="M36.4698 3.07421L75.8039 8.29253L76.0958 5.95704L36.7617 0.73872L36.4698 3.07421ZM18.7001 14.4232L21.3273 14.7881L21.4367 14.0948L21.5827 13.4014L21.7651 12.7446L21.9476 12.0877L22.203 11.4308L22.4584 10.8105L22.7503 10.2266L23.0787 9.64276L23.4436 9.09538L23.8084 8.548L24.2098 8.00062L24.6477 7.48973L25.0855 7.01531L25.5599 6.57743L26.0707 6.1395L26.5815 5.7381L27.0924 5.33669L27.6397 4.97177L28.187 4.64334L28.7708 4.35143L29.3546 4.05948L29.9749 3.84053L30.5952 3.62159L31.2155 3.4026L31.8358 3.25667L32.4926 3.14718L33.1129 3.03768L33.7697 2.96472L34.4629 2.92824L35.1197 2.96472L35.7765 3.0012L36.4698 3.07421L36.7982 0.702237L35.959 0.629226L35.1197 0.592743H34.317L33.5143 0.629226L32.7115 0.702237L31.9088 0.811686L31.1061 0.957662L30.3398 1.14012L29.61 1.39555L28.8803 1.65102L28.1505 1.94293L27.4208 2.27136L26.764 2.63628L26.0707 3.03768L25.4504 3.43913L24.8301 3.9135L24.2098 4.38791L23.626 4.89881L23.0787 5.44619L22.5678 5.99357L22.057 6.57743L21.5827 7.19777L21.1448 7.81816L20.7434 8.47499L20.3786 9.16835L20.0137 9.8617L19.7218 10.5915L19.4299 11.3214L19.211 12.0512L18.992 12.854L18.8096 13.6203L18.7001 14.4232ZM16.7298 49.4554L21.3273 14.7881L18.7001 14.4232L14.1026 49.0905L16.7298 49.4554ZM27.9681 67.081L28.2965 64.7456L27.6032 64.6361L26.9464 64.4901L26.2896 64.3076L25.6693 64.1252L25.049 63.8698L24.4652 63.6143L23.8814 63.3224L23.2976 62.9939L22.7503 62.6655L22.203 62.3006L21.6921 61.8992L21.1813 61.4613L20.707 61.0234L20.2691 60.549L19.8312 60.0746L19.4299 59.5637L19.0285 59.0528L18.7001 58.5054L18.3352 57.9216L18.0433 57.3377L17.7514 56.7538L17.496 56.1334L17.2771 55.5131L17.0946 54.8927L16.9487 54.2359L16.8027 53.579L16.6933 52.9222L16.6568 52.2288L16.6203 51.5355V50.8421L16.6568 50.1488L16.7298 49.4554L14.1026 49.0905L14.0296 49.9298L13.9567 50.7327V51.499L13.9932 52.3018L14.0661 53.1046L14.1756 53.871L14.358 54.6373L14.5405 55.3671L14.7594 56.1334L15.0148 56.8633L15.3067 57.5566L15.6351 58.25L16 58.9433L16.4014 59.6002L16.8027 60.257L17.2771 60.8774L17.7514 61.4613L18.2623 62.0452L18.8096 62.5925L19.3569 63.1399L19.9407 63.6143L20.561 64.0887L21.2178 64.5631L21.8746 64.9645L22.5678 65.3659L23.2976 65.6944L24.0274 66.0228L24.7571 66.3147L25.5599 66.5702L26.3261 66.7891L27.1653 66.9351L27.9681 67.081ZM67.5941 70.0004L28.26 64.7456L27.9681 67.081L67.3022 72.3359L67.5941 70.0004ZM85.3637 58.6149L82.7366 58.2865L82.6271 58.9798L82.4812 59.6367L82.2987 60.33L82.1163 60.9869L81.8609 61.6072L81.6055 62.2276L81.2771 62.8115L80.9487 63.3953L80.6203 63.9792L80.2189 64.5266L79.8176 65.0375L79.4162 65.5484L78.9418 66.0228L78.504 66.4972L77.9932 66.9351L77.4823 67.3365L76.9715 67.7014L76.4242 68.0663L75.8404 68.3948L75.293 68.6867L74.7092 68.9786L74.0889 69.234L73.4686 69.453L72.8483 69.6355L72.228 69.7814L71.5713 69.9274L70.9145 70.0004L70.2577 70.0734L69.6009 70.1099H68.9441L68.2509 70.0734L67.5941 70.0004L67.2657 72.3359L68.1049 72.4089L68.9441 72.4818H69.7469L70.5496 72.4454L71.3523 72.3723L72.1551 72.2629L72.9213 72.0804L73.6876 71.898L74.4538 71.679L75.1836 71.4236L75.9133 71.0951L76.6066 70.7667L77.2999 70.4018L77.9567 70.0369L78.6135 69.599L79.2338 69.1611L79.854 68.6502L80.4014 68.1393L80.9487 67.6284L81.496 67.0445L82.0068 66.4607L82.4447 65.8403L82.8826 65.2199L83.3204 64.5631L83.6853 63.9062L84.0502 63.1764L84.3421 62.483L84.634 61.7532L84.8529 60.9869L85.0718 60.2206L85.2543 59.4177L85.3637 58.6149ZM87.3341 23.6191L82.7366 58.2865L85.3637 58.6149L89.9612 23.9476L87.3341 23.6191ZM76.0958 6.03005L75.7674 8.36554L76.4607 8.47499L77.1174 8.58448L77.7377 8.76694L78.3945 8.98589L79.0148 9.20483L79.5986 9.4603L80.1824 9.75221L80.7662 10.0806L81.3136 10.4091L81.8609 10.8105L82.3717 11.1754L82.8826 11.6133L83.3569 12.0512L83.7948 12.5256L84.2326 13L84.634 13.5109L85.0353 14.0583L85.3637 14.6057L85.7286 15.153L86.0205 15.7369L86.3124 16.3208L86.5678 16.9411L86.7868 17.5615L86.9692 18.2184L87.1152 18.8752L87.2611 19.5321L87.3706 20.1889L87.4071 20.8458L87.4436 21.5391V22.2325L87.4071 22.9258L87.3341 23.6191L89.9612 23.9841L90.0342 23.1813L90.1072 22.3784V21.5756L90.0707 20.7728L89.9977 20.0064L89.8518 19.2401L89.7058 18.4738L89.5234 17.7075L89.3044 16.9776L89.049 16.2478L88.7571 15.518L88.4287 14.8246L88.0639 14.1677L87.6625 13.4744L87.2611 12.854L86.7868 12.2337L86.3124 11.6133L85.8016 11.0294L85.2543 10.482L84.707 9.97115L84.1231 9.4603L83.5028 8.98589L82.8461 8.548L82.1893 8.11007L81.496 7.74515L80.7662 7.38023L80.0365 7.0518L79.2702 6.75989L78.504 6.54094L77.7012 6.32196L76.8985 6.1395L76.0958 6.03005Z" fill="#004621"/>
<path d="M75.9498 7.12479L36.6157 1.90643C28.5519 0.81167 21.0718 6.54092 19.9772 14.6056L15.3797 49.273C14.285 57.3377 20.0137 64.8185 28.0775 65.8768L67.4481 71.1316C75.512 72.2264 82.992 66.4972 84.0501 58.396L88.6841 23.7651C89.7423 15.7004 84.0137 8.18306 75.9498 7.12479V7.12479Z" fill="#009B4C"/>
<path d="M23.3705 6.97882C21.6191 8.91289 20.415 11.2848 20.0866 13.9852L18.992 22.05C20.2325 22.8528 21.6921 23.4367 23.2975 23.6556C28.4423 24.3125 33.1128 21.1742 33.7331 16.5762C34.3169 11.9782 30.6681 7.70864 25.5233 7.05178C24.7935 6.95447 24.0759 6.93016 23.3705 6.97882V6.97882Z" fill="#007E3C"/>
<path d="M60.5883 11.6863C55.4435 11.0294 50.8095 14.1677 50.1892 18.7657C49.5689 23.3637 53.2542 27.6333 58.399 28.3266C63.5438 29.0199 68.2143 25.8451 68.7981 21.2472C69.4184 16.6492 65.7331 12.3796 60.5883 11.6863Z" fill="#007E3C"/>
<path d="M18.8097 23.4002L15.3068 49.8933C14.2487 57.6296 20.4881 64.8915 29.1723 66.0227L67.9226 71.1316C63.398 69.6354 66.1711 56.6808 68.5429 44.31C70.0024 36.6467 63.3251 29.3483 54.6774 28.1806L18.8097 23.4002Z" fill="#00B457"/>
<path d="M57.5965 26.064C57.56 26.5019 58.8006 27.0128 60.406 27.2318C62.0115 27.4507 63.3616 27.2683 63.3981 26.8304C63.471 26.3925 62.2304 25.8451 60.625 25.6261C59.0195 25.4072 57.6694 25.5897 57.5965 26.064V26.064Z" fill="#FF99CC"/>
<path d="M19.3204 20.9552C19.2475 21.3932 20.4881 21.904 22.0935 22.123C23.699 22.342 25.0491 22.1595 25.0856 21.7216C25.1585 21.2837 23.9179 20.7362 22.3125 20.5538C20.707 20.3348 19.3569 20.5173 19.3204 20.9552Z" fill="#FF99CC"/>
<path d="M67.9225 71.1316C75.9499 71.4965 82.9921 66.3146 83.9773 59.0527L88.7572 23.1082C89.3775 18.4008 87.2977 13.8393 83.5759 10.7375C83.6245 11.589 83.588 12.4526 83.4664 13.3284L78.6865 49.2365C77.8473 55.5496 72.4106 60.2935 65.6968 61.1693C65.1859 66.4606 65.5873 70.3653 67.9225 71.1316Z" fill="#007E3C"/>
<path d="M23.8813 56.2428C20.5609 55.7684 17.5689 54.4182 15.1972 52.4841C15.708 59.1622 21.4731 65.0374 29.1721 66.0227L67.9224 71.1316C65.5871 70.3653 65.1858 66.4606 65.6966 61.1693C64.2006 61.3882 62.6681 61.3882 61.0991 61.1693L23.8813 56.2428Z" fill="#009B4C"/>
<path d="M82.5176 21.8675C80.2188 21.5756 77.8836 24.7868 77.2998 29.0929C76.716 33.3624 78.139 37.1211 80.4377 37.413C82.773 37.705 85.1082 34.4937 85.6555 30.1876C86.2393 25.9181 84.8163 22.1959 82.5176 21.8675Z" stroke="#00662F" stroke-width="4"/>
<path d="M82.5176 21.8675C80.2188 21.5756 77.8836 24.7868 77.2998 29.0929C76.716 33.3624 78.139 37.1211 80.4377 37.413C82.773 37.705 85.1082 34.4937 85.6555 30.1876C86.2393 25.9181 84.8163 22.1959 82.5176 21.8675Z" fill="#007E3C"/>
<path d="M81.204 24.6774C79.7445 24.4949 78.285 26.502 77.9201 29.1658C77.5917 31.8297 78.4674 34.1652 79.8904 34.3476C81.3499 34.5301 82.8095 32.523 83.1379 29.8591C83.5027 27.1953 82.627 24.8598 81.204 24.6774Z" fill="#00662F"/>
<path d="M74.1255 9.75219C73.1768 9.60621 72.3376 10.1901 72.2646 10.993C72.1551 11.8323 72.8119 12.5986 73.7241 12.7081C74.6363 12.8541 75.4755 12.2702 75.585 11.4674C75.6945 10.628 75.0377 9.86167 74.1255 9.75219Z" fill="#00662F"/>
<path d="M46.6499 7.01527C45.9201 6.90579 45.2634 7.38021 45.1539 8.03708C45.0809 8.65745 45.5917 9.27781 46.3215 9.38729C47.0878 9.46027 47.7446 9.02239 47.8175 8.36552C47.8905 7.70866 47.3797 7.12475 46.6499 7.01527Z" fill="#00662F"/>
<path d="M35.74 6.4314C34.9372 6.32193 34.2075 6.79633 34.098 7.52617C34.025 8.21953 34.5724 8.91287 35.3751 9.02235C36.1778 9.13182 36.9076 8.62094 37.0171 7.89109C37.1265 7.19774 36.5427 6.50439 35.74 6.4314Z" fill="#00662F"/>
<path d="M42.1983 22.0864C41.9064 22.0499 41.6145 22.2324 41.578 22.5243C41.5416 22.7798 41.7605 23.0352 42.0889 23.0717C42.3808 23.1082 42.6727 22.9258 42.7092 22.6703C42.7457 22.3784 42.5267 22.1229 42.1983 22.0864V22.0864Z" fill="#00662F"/>
<path d="M74.8918 48.543C74.5269 48.5065 74.162 48.7255 74.1255 49.054C74.089 49.3824 74.3444 49.7108 74.7458 49.7473C75.1107 49.8203 75.4391 49.5649 75.5121 49.2364C75.5485 48.908 75.2566 48.5795 74.8918 48.543Z" fill="#00662F"/>
<path d="M78.1027 57.812C76.5337 57.5931 75.1107 58.5419 74.9283 59.965C74.7458 61.3518 75.877 62.629 77.4459 62.8479C78.9784 63.0669 80.4015 62.0816 80.5839 60.6949C80.7663 59.3082 79.6717 58.031 78.1027 57.812Z" fill="#00662F"/>
<path d="M73.2133 24.7503C72.7389 24.6773 72.3011 24.9693 72.2281 25.4072C72.1916 25.8086 72.52 26.21 72.9944 26.283C73.4687 26.3195 73.9066 26.0275 73.943 25.6261C74.016 25.1882 73.6511 24.8233 73.2133 24.7503Z" fill="#00662F"/>
<path d="M72.52 38.2889C72.1916 38.2524 71.8997 38.4713 71.8632 38.7633C71.7902 39.0552 72.0457 39.3107 72.3741 39.3837C72.7024 39.4202 73.0308 39.2012 73.0673 38.9093C73.1038 38.6173 72.8484 38.3254 72.52 38.2889Z" fill="#00662F"/>
<path d="M22.0934 30.1512L19.4298 50.1488C18.4446 57.4837 24.3921 64.3807 32.6019 65.4755L33.4412 65.5849C25.3043 64.4537 19.4298 57.5567 20.4149 50.2583L23.0786 30.2607L22.0934 30.1512Z" fill="#009B4C"/>
<path d="M27.5668 30.881L24.9032 50.8786C23.918 58.2135 29.8655 65.1104 38.1118 66.2052L38.9146 66.3147C30.7777 65.1834 24.9031 58.2864 25.8883 50.988L28.552 30.9905L27.5668 30.881Z" fill="#009B4C"/>
<path d="M32.9304 31.5744L30.2668 51.5719C29.3181 58.9068 35.2292 65.8404 43.4755 66.9351L44.3147 67.0446C36.1414 65.8768 30.2668 59.0163 31.252 51.7179L33.9156 31.7203L32.9304 31.5744Z" fill="#009B4C"/>
<path d="M38.4401 32.3043L35.7764 52.3018C34.7913 59.6367 40.7023 66.5702 48.9486 67.6649L49.7878 67.7744C41.6145 66.6066 35.7764 59.7462 36.7251 52.4478L39.3888 32.4503L38.4401 32.3043Z" fill="#009B4C"/>
<path d="M43.8038 33.0341L41.1402 53.0316C40.155 60.3665 46.1026 67.3 54.3124 68.3582L55.1516 68.4677C46.9783 67.3365 41.1402 60.4395 42.0889 53.1411L44.7525 33.1435L43.8038 33.0341Z" fill="#009B4C"/>
<path d="M49.277 33.7639L46.6133 53.7615C45.6282 61.0963 51.5757 68.0298 59.7855 69.0881L60.6248 69.1976C52.4879 68.0663 46.6133 61.1693 47.5985 53.8709L50.2257 33.8733L49.277 33.7639Z" fill="#009B4C"/>
<path d="M55.2247 34.5302L52.5611 54.5278C51.5759 61.8992 57.487 68.7961 65.7333 69.8909L66.5725 70.0003C58.3992 68.8691 52.5611 61.9721 53.5098 54.6737L56.1734 34.6762L55.2247 34.5302Z" fill="#009B4C"/>
<path d="M64.0546 21.7945L62.4127 20.4079L64.383 19.532C65.2223 19.1671 65.5142 18.2548 65.0763 17.525C64.6749 16.7951 63.6533 16.4667 62.814 16.8316L59.7491 18.2183L57.1949 16.0288C56.5016 15.4814 55.4435 15.4814 54.8232 16.1018C54.2029 16.6857 54.2394 17.6345 54.9326 18.2183L56.5746 19.605L54.6042 20.4808C53.8015 20.8457 53.4731 21.758 53.911 22.4879C54.3488 23.2542 55.3705 23.5462 56.1732 23.1812L59.2382 21.831L61.8289 23.984C62.4857 24.5679 63.5803 24.5314 64.2006 23.9476C64.8209 23.3272 64.7479 22.3784 64.0546 21.7945Z" fill="black"/>
<path d="M30.9237 17.379L29.2452 15.9923L31.2156 15.1165C32.0548 14.7516 32.3832 13.8393 31.9453 13.1095C31.5075 12.3796 30.4858 12.0512 29.6831 12.4161L26.5816 13.8028L24.0274 11.6133C23.3341 11.0659 22.276 11.0659 21.6557 11.6863C21.0354 12.2701 21.0719 13.2189 21.7652 13.8028L23.4436 15.1895L21.4368 16.0653C20.634 16.4302 20.3056 17.3425 20.7435 18.0724C21.1813 18.8387 22.203 19.1306 23.0057 18.7657L26.0707 17.4155L28.6614 19.5685C29.3547 20.1524 30.4128 20.1159 31.0331 19.532C31.6534 18.9117 31.5804 17.9629 30.9237 17.379Z" fill="black"/>
<path d="M67.4844 23.546L66.0978 24.8962L64.7113 26.283L66.3168 26.8303L67.9587 27.4142L67.7398 25.4801L67.4844 23.546Z" stroke="#FFB413" stroke-width="4"/>
<path d="M67.4844 23.546L66.0978 24.8962L64.7113 26.283L66.3168 26.8303L67.9587 27.4142L67.7398 25.4801L67.4844 23.546Z" fill="#FFE7AD"/>
<path d="M66.4627 26.9033L67.9587 27.4142L67.7398 25.4801L67.4844 23.546L66.4627 26.9033Z" fill="white"/>
<path d="M57.8882 32.1217L59.6396 32.961V31.2459L59.6032 29.5308L57.8517 30.4066L56.1003 31.2824L57.8882 32.1217Z" stroke="#FFB413" stroke-width="4"/>
<path d="M57.8882 32.1217L59.6396 32.961V31.2459L59.6032 29.5308L57.8517 30.4066L56.1003 31.2824L57.8882 32.1217Z" fill="#FFE7AD"/>
<path d="M56.1003 31.2824L57.8882 32.1217L59.6396 32.961V31.3919L56.1003 31.2824Z" fill="white"/>
<path d="M60.2965 26.3925L60.5519 28.3266L61.9749 27.3778L63.3979 26.429L61.7195 25.4437L60.0411 24.4585L60.2965 26.3925Z" stroke="#FFB413" stroke-width="4"/>
<path d="M60.2965 26.3925L60.5519 28.3266L61.9749 27.3778L63.3979 26.429L61.7195 25.4437L60.0411 24.4585L60.2965 26.3925Z" fill="#FFE7AD"/>
<path d="M60.0411 24.4585L60.2965 26.3925L60.5519 28.3266L61.8655 27.4872L60.0411 24.4585Z" fill="white"/>
<path d="M73.8699 34.2748L69.9657 28.801C68.1778 26.3195 64.6749 25.6992 62.1572 27.5238C59.6396 29.3119 59.0557 32.8151 60.8437 35.3331L64.7479 40.8069C66.5358 43.2883 70.0387 43.8722 72.5563 42.0841C75.074 40.296 75.6578 36.7928 73.8699 34.2748Z" stroke="#004621" stroke-width="4"/>
<path d="M73.8699 34.2748L69.9657 28.801C68.1778 26.3195 64.6749 25.6992 62.1572 27.5238C59.6396 29.3119 59.0557 32.8151 60.8437 35.3331L64.7479 40.8069C66.5358 43.2883 70.0387 43.8722 72.5563 42.0841C75.074 40.296 75.6578 36.7928 73.8699 34.2748Z" fill="#009B4C"/>
<path d="M63.7263 26.7209C63.1668 26.8912 62.6438 27.1588 62.1573 27.5237C59.6396 29.3119 59.0558 32.815 60.8437 35.333L64.748 40.8068C66.5359 43.2882 70.0387 43.8721 72.5564 42.084C73.0672 41.7434 73.4929 41.3298 73.8335 40.8433C71.5712 41.5731 69.0171 40.7703 67.594 38.7632L63.6898 33.2894C62.2668 31.2824 62.3398 28.6185 63.7263 26.7209Z" fill="#007E3C"/>
<path d="M69.4915 53.579C60.26 53.3236 52.561 60.5854 52.2691 69.8179L85.6922 70.8032C85.9841 61.5707 78.723 53.8709 69.4915 53.579V53.579Z" stroke="#004621" stroke-width="4"/>
<path d="M69.4915 53.579C60.26 53.3236 52.561 60.5854 52.2691 69.8179L85.6922 70.8032C85.9841 61.5707 78.723 53.8709 69.4915 53.579V53.579Z" fill="#009B4C"/>
<path d="M52.5611 67.1905L85.3638 68.1757C85.4368 68.1757 85.5098 68.1757 85.5828 68.1757C85.4003 66.862 85.0719 65.5483 84.6341 64.3441L59.4208 63.6142C59.4938 60.4759 60.4425 57.5566 62.0115 55.1116C57.1951 57.3376 53.5828 61.7896 52.5611 67.1905Z" fill="#007E3C"/>
<path d="M85.3638 68.1757L52.3422 67.1904C50.8827 67.154 49.6421 68.2852 49.6056 69.7449V70.4018C49.5326 71.8615 50.7002 73.0657 52.1597 73.1387L85.2179 74.0875C86.6409 74.1605 87.8815 72.9927 87.918 71.533L87.9545 70.8761C87.991 69.4165 86.8234 68.2122 85.3638 68.1757V68.1757Z" stroke="#004621" stroke-width="4"/>
<path d="M85.3638 68.1757L52.3422 67.1904C50.8827 67.154 49.6421 68.2852 49.6056 69.7449V70.4018C49.5326 71.8615 50.7002 73.0657 52.1597 73.1387L85.2179 74.0875C86.6409 74.1605 87.8815 72.9927 87.918 71.533L87.9545 70.8761C87.991 69.4165 86.8234 68.2122 85.3638 68.1757V68.1757Z" fill="#007E3C"/>
<path d="M51.3935 68.6137L51.43 67.9568C51.43 67.7135 51.4665 67.4824 51.5395 67.2634C50.4449 67.5919 49.6421 68.5772 49.6056 69.7449V70.4017C49.5326 71.8614 50.7003 73.0656 52.1598 73.1386L85.2179 74.0874C86.422 74.1239 87.4802 73.321 87.8086 72.1898C87.5653 72.2628 87.2978 72.2993 87.0059 72.2993L53.9842 71.314C52.5247 71.2775 51.3571 70.0733 51.3935 68.6137V68.6137Z" fill="#00662F"/>
</svg>
