<svg width="1000" height="200" viewBox="0 0 1000 200" fill="none" xmlns="http://www.w3.org/2000/svg">
<path fill-rule="evenodd" clip-rule="evenodd" d="M26.8837 7.62109H978.936C990.576 7.62109 1000 14.2257 1000 22.3544V185.267C1000 193.396 990.576 200 978.936 200H26.8837C15.2428 200 5.81934 193.396 5.81934 185.267V22.3544C5.81934 14.2257 15.2428 7.62109 26.8837 7.62109Z" fill="black" fill-opacity="0.101961"/>
<path fill-rule="evenodd" clip-rule="evenodd" d="M21.0643 3.04834H973.116C984.757 3.04834 994.181 9.6529 994.181 17.7816V180.694C994.181 188.823 984.757 195.427 973.116 195.427H21.0643C9.42351 195.427 0 188.823 0 180.694V17.7816C0 9.6529 9.42351 3.04834 21.0643 3.04834Z" fill="#E6E6E6"/>
<path fill-rule="evenodd" clip-rule="evenodd" d="M21.0643 0H973.116C984.757 0 994.181 6.60456 994.181 14.7333V177.646C994.181 185.775 984.757 192.379 973.116 192.379H21.0643C9.42351 192.379 0 185.775 0 177.646V14.7333C0 6.60456 9.42351 0 21.0643 0Z" fill="white"/>
<path fill-rule="evenodd" clip-rule="evenodd" d="M34.0916 9.82275H962.862C973.671 9.82275 982.541 16.0886 982.541 23.7093V169.856C982.541 177.477 973.671 183.743 962.862 183.743H34.0916C23.2823 183.743 14.4131 177.477 14.4131 169.856V23.7093C14.4131 16.0886 23.2823 9.82275 34.0916 9.82275Z" fill="#E6E6E6"/>
<path fill-rule="evenodd" clip-rule="evenodd" d="M29.6561 7.95898H958.981C969.79 7.95898 978.382 14.2249 978.382 21.8455V165.96C978.382 173.581 969.79 179.847 958.981 179.847H29.6561C18.8467 179.847 9.97754 173.581 9.97754 165.96V21.8455C9.97754 14.2249 18.8467 7.95898 29.6561 7.95898Z" fill="#F1C383"/>
<path fill-rule="evenodd" clip-rule="evenodd" d="M29.3789 4.40332H954.823C965.356 4.40332 974.225 10.4998 974.225 17.9511V158.171C974.225 165.622 965.356 171.719 954.823 171.719H29.3789C18.5696 171.719 9.97754 165.622 9.97754 158.171V17.9511C9.97754 10.4998 18.5696 4.40332 29.3789 4.40332Z" fill="#FAEECC"/>
<path fill-rule="evenodd" clip-rule="evenodd" d="M32.4274 6.26562C338.692 6.26562 645.233 6.26562 951.774 6.26562C962.306 6.26562 970.621 12.1928 970.621 19.6441C970.621 65.1986 970.621 110.753 970.621 156.477C970.621 163.759 962.029 169.856 951.774 169.856C645.233 169.856 338.692 169.856 32.4274 169.856C21.8952 169.856 13.3032 163.759 13.3032 156.477C13.3032 110.753 13.3032 65.1986 13.3032 19.6441C13.3032 12.1928 21.8952 6.26562 32.4274 6.26562Z" fill="#FAEDC9"/>
<path fill-rule="evenodd" clip-rule="evenodd" d="M35.4759 7.95898C339.8 7.95898 644.124 7.95898 948.448 7.95898C958.98 7.95898 967.295 13.8862 967.295 21.1681C967.295 65.7066 967.295 110.245 967.295 154.784C967.295 162.065 958.98 167.993 948.448 167.993C644.124 167.993 339.8 167.993 35.4759 167.993C25.2209 167.993 16.6289 162.065 16.6289 154.784C16.6289 110.245 16.6289 65.7066 16.6289 21.1681C16.6289 13.8862 25.2209 7.95898 35.4759 7.95898Z" fill="#F9ECC6"/>
<path fill-rule="evenodd" clip-rule="evenodd" d="M38.5249 9.82275C340.909 9.82275 643.293 9.82275 945.399 9.82275C955.654 9.82275 963.969 15.7499 963.969 22.8625C963.969 66.3849 963.969 109.738 963.969 153.091C963.969 160.373 955.654 166.3 945.399 166.3C643.293 166.3 340.909 166.3 38.5249 166.3C28.2699 166.3 19.9551 160.373 19.9551 153.091C19.9551 109.738 19.9551 66.3849 19.9551 22.8625C19.9551 15.7499 28.2699 9.82275 38.5249 9.82275Z" fill="#F9EBC2"/>
<path fill-rule="evenodd" clip-rule="evenodd" d="M41.8506 11.6851C342.017 11.6851 642.184 11.6851 942.35 11.6851C952.328 11.6851 960.643 17.4429 960.643 24.5555C960.643 66.8924 960.643 109.229 960.643 151.566C960.643 158.679 952.328 164.437 942.35 164.437C642.184 164.437 342.017 164.437 41.8506 164.437C31.5956 164.437 23.2808 158.679 23.2808 151.566C23.2808 109.229 23.2808 66.8924 23.2808 24.5555C23.2808 17.4429 31.5956 11.6851 41.8506 11.6851Z" fill="#F8EABF"/>
<path fill-rule="evenodd" clip-rule="evenodd" d="M44.8996 13.3779C342.849 13.3779 641.075 13.3779 939.302 13.3779C949.28 13.3779 957.317 19.1358 957.317 26.079C957.317 67.3999 957.317 108.721 957.317 149.872C957.317 156.815 949.28 162.573 939.302 162.573C641.075 162.573 342.849 162.573 44.8996 162.573C34.9218 162.573 26.6069 156.815 26.6069 149.872C26.6069 108.721 26.6069 67.3999 26.6069 26.079C26.6069 19.1358 34.9218 13.3779 44.8996 13.3779Z" fill="#F8E9BC"/>
<path fill-rule="evenodd" clip-rule="evenodd" d="M47.9482 15.2417C343.957 15.2417 639.966 15.2417 935.976 15.2417C945.953 15.2417 953.991 20.8302 953.991 27.7734C953.991 67.9089 953.991 108.044 953.991 148.18C953.991 155.123 945.953 160.881 935.976 160.881C639.966 160.881 343.957 160.881 47.9482 160.881C38.2475 160.881 29.9326 155.123 29.9326 148.18C29.9326 108.044 29.9326 67.9089 29.9326 27.7734C29.9326 20.8302 37.9703 15.2417 47.9482 15.2417Z" fill="#F7E8B9"/>
<path fill-rule="evenodd" clip-rule="evenodd" d="M50.9973 17.1045C345.066 17.1045 639.135 17.1045 932.927 17.1045C942.628 17.1045 950.666 22.693 950.666 29.4669C950.666 68.4169 950.666 107.536 950.666 146.656C950.666 153.429 942.628 159.018 932.927 159.018C639.135 159.018 345.066 159.018 50.9973 159.018C41.2967 159.018 33.5361 153.429 33.5361 146.656C33.5361 107.536 33.5361 68.4169 33.5361 29.4669C33.5361 22.693 41.2967 17.1045 50.9973 17.1045Z" fill="#F7E7B6"/>
<path fill-rule="evenodd" clip-rule="evenodd" d="M54.3225 18.7974C346.174 18.7974 638.026 18.7974 929.878 18.7974C939.301 18.7974 947.339 24.3858 947.339 31.1598C947.339 69.0937 947.339 107.028 947.339 144.961C947.339 151.735 939.301 157.154 929.878 157.154C638.026 157.154 346.174 157.154 54.3225 157.154C44.6219 157.154 36.8613 151.735 36.8613 144.961C36.8613 107.028 36.8613 69.0937 36.8613 31.1598C36.8613 24.3858 44.6219 18.7974 54.3225 18.7974Z" fill="#F6E6B3"/>
<path fill-rule="evenodd" clip-rule="evenodd" d="M57.3716 20.6602C347.006 20.6602 636.918 20.6602 926.829 20.6602C936.253 20.6602 944.013 26.0793 944.013 32.6838C944.013 69.6017 944.013 106.519 944.013 143.268C944.013 150.042 936.253 155.461 926.829 155.461C636.918 155.461 347.006 155.461 57.3716 155.461C47.948 155.461 40.1875 150.042 40.1875 143.268C40.1875 106.519 40.1875 69.6017 40.1875 32.6838C40.1875 26.0793 47.948 20.6602 57.3716 20.6602Z" fill="#F6E5AF"/>
<path fill-rule="evenodd" clip-rule="evenodd" d="M60.4201 22.5225C348.114 22.5225 635.809 22.5225 923.503 22.5225C932.926 22.5225 940.687 27.7722 940.687 34.3768C940.687 70.1092 940.687 105.842 940.687 141.743C940.687 148.179 932.926 153.598 923.503 153.598C635.809 153.598 348.114 153.598 60.4201 153.598C50.9966 153.598 43.5132 148.179 43.5132 141.743C43.5132 105.842 43.5132 70.1092 43.5132 34.3768C43.5132 27.7722 50.9966 22.5225 60.4201 22.5225Z" fill="#F5E4AC"/>
<path fill-rule="evenodd" clip-rule="evenodd" d="M63.4686 24.2168H920.454C929.6 24.2168 937.361 29.4666 937.361 36.0711V140.051C937.361 146.486 929.6 151.736 920.454 151.736H63.4686C54.3222 151.736 46.8389 146.486 46.8389 140.051V36.0711C46.8389 29.4666 54.3222 24.2168 63.4686 24.2168Z" fill="#F5E3A9"/>
<path fill-rule="evenodd" clip-rule="evenodd" d="M954.546 149.196C960.367 149.196 965.078 152.583 965.078 156.647C965.078 160.881 960.367 164.098 954.546 164.098C948.726 164.098 944.014 160.881 944.014 156.647C944.014 152.583 948.726 149.196 954.546 149.196Z" fill="white"/>
<path fill-rule="evenodd" clip-rule="evenodd" d="M938.193 156.815C941.519 156.815 944.013 158.678 944.013 160.88C944.013 163.081 941.519 164.944 938.193 164.944C935.144 164.944 932.649 163.081 932.649 160.88C932.649 158.678 935.144 156.815 938.193 156.815Z" fill="white"/>
<path fill-rule="evenodd" clip-rule="evenodd" d="M30.7657 7.79053C39.912 7.79053 47.1182 13.0403 47.1182 19.3062C47.1182 25.7414 39.912 30.8218 30.7657 30.8218C21.6193 30.8218 14.4131 25.7414 14.4131 19.3062C14.4131 13.0403 21.6193 7.79053 30.7657 7.79053Z" fill="white"/>
<path fill-rule="evenodd" clip-rule="evenodd" d="M55.9852 6.43555C60.9741 6.43555 65.1316 9.31446 65.1316 12.8708C65.1316 16.2577 60.9741 19.1366 55.9852 19.1366C50.9963 19.1366 46.8389 16.2577 46.8389 12.8708C46.8389 9.31446 50.9963 6.43555 55.9852 6.43555Z" fill="white"/>
<path fill-rule="evenodd" clip-rule="evenodd" d="M61.5306 18.6279H242.518C255.267 18.6279 265.799 25.4018 265.799 33.6999V142.76C265.799 151.058 255.267 158.001 242.518 158.001H61.5306C48.504 158.001 38.249 151.227 38.249 142.76V33.6999C38.249 25.4018 48.504 18.6279 61.5306 18.6279Z" fill="#EFB469"/>
<path fill-rule="evenodd" clip-rule="evenodd" d="M70.122 25.7402H233.648C246.12 25.7402 256.098 32.3448 256.098 40.4735V140.727C256.098 148.687 246.12 155.291 233.648 155.291H70.122C57.6497 155.291 47.6719 148.687 47.6719 140.727V40.4735C47.6719 32.3448 57.6497 25.7402 70.122 25.7402Z" fill="#F1C383"/>
<path fill-rule="evenodd" clip-rule="evenodd" d="M71.2316 28.6187C125.001 28.6187 178.77 28.6187 232.817 28.6187C245.012 28.6187 254.99 35.0539 254.99 43.0132C254.99 75.528 254.99 108.043 254.99 140.558C254.99 148.517 245.012 154.952 232.817 154.952C178.77 154.952 125.001 154.952 71.2316 154.952C59.0364 154.952 49.0586 148.517 49.0586 140.558C49.0586 108.043 49.0586 75.528 49.0586 43.0132C49.0586 35.0539 59.0364 28.6187 71.2316 28.6187Z" fill="#F1C585"/>
<path fill-rule="evenodd" clip-rule="evenodd" d="M72.0648 31.3286C125.28 31.3286 178.495 31.3286 231.71 31.3286C243.905 31.3286 253.606 37.7638 253.606 45.7232C253.606 77.2219 253.606 108.89 253.606 140.389C253.606 148.348 243.905 154.783 231.71 154.783C178.495 154.783 125.28 154.783 72.0648 154.783C60.1468 154.783 50.1689 148.348 50.1689 140.389C50.1689 108.89 50.1689 77.2219 50.1689 45.7232C50.1689 37.7638 60.1468 31.3286 72.0648 31.3286Z" fill="#F1C786"/>
<path fill-rule="evenodd" clip-rule="evenodd" d="M73.1714 34.2075C125.555 34.2075 178.216 34.2075 230.599 34.2075C242.517 34.2075 252.495 40.6427 252.495 48.2634C252.495 78.9153 252.495 109.567 252.495 140.219C252.495 148.009 242.517 154.444 230.599 154.444C178.216 154.444 125.555 154.444 73.1714 154.444C61.2534 154.444 51.5527 148.009 51.5527 140.219C51.5527 109.567 51.5527 78.9153 51.5527 48.2634C51.5527 40.6427 61.2534 34.2075 73.1714 34.2075Z" fill="#F2CA88"/>
<path fill-rule="evenodd" clip-rule="evenodd" d="M74.2808 37.0859C126.11 37.0859 177.939 37.0859 229.769 37.0859C241.41 37.0859 251.11 43.3518 251.11 50.9725C251.11 80.7777 251.11 110.414 251.11 140.219C251.11 147.839 241.41 154.105 229.769 154.105C177.939 154.105 126.11 154.105 74.2808 154.105C62.3628 154.105 52.6621 147.839 52.6621 140.219C52.6621 110.414 52.6621 80.7777 52.6621 50.9725C52.6621 43.3518 62.3628 37.0859 74.2808 37.0859Z" fill="#F2CC8A"/>
<path fill-rule="evenodd" clip-rule="evenodd" d="M75.1102 39.7964C126.385 39.7964 177.383 39.7964 228.658 39.7964C240.299 39.7964 250 46.0623 250 53.5136C250 82.472 250 111.261 250 140.05C250 147.671 240.299 153.767 228.658 153.767C177.383 153.767 126.385 153.767 75.1102 153.767C63.4694 153.767 54.0459 147.671 54.0459 140.05C54.0459 111.261 54.0459 82.472 54.0459 53.5136C54.0459 46.0623 63.4694 39.7964 75.1102 39.7964Z" fill="#F2CE8B"/>
<path fill-rule="evenodd" clip-rule="evenodd" d="M76.2201 42.6748C126.664 42.6748 177.107 42.6748 227.551 42.6748C239.191 42.6748 248.615 48.7713 248.615 56.2226C248.615 84.165 248.615 111.938 248.615 139.88C248.615 147.332 239.191 153.598 227.551 153.598C177.107 153.598 126.664 153.598 76.2201 153.598C64.5793 153.598 55.1558 147.332 55.1558 139.88C55.1558 111.938 55.1558 84.165 55.1558 56.2226C55.1558 48.7713 64.5793 42.6748 76.2201 42.6748Z" fill="#F2D08D"/>
<path fill-rule="evenodd" clip-rule="evenodd" d="M77.3301 45.3838C126.942 45.3838 176.831 45.3838 226.721 45.3838C238.084 45.3838 247.231 51.4803 247.231 58.9316C247.231 85.8579 247.231 112.784 247.231 139.71C247.231 147.162 238.084 153.258 226.721 153.258C176.831 153.258 126.942 153.258 77.3301 153.258C65.9665 153.258 56.543 147.162 56.543 139.71C56.543 112.784 56.543 85.8579 56.543 58.9316C56.543 51.4803 65.9665 45.3838 77.3301 45.3838Z" fill="#F2D28E"/>
<path fill-rule="evenodd" clip-rule="evenodd" d="M78.1623 48.2627C127.497 48.2627 176.555 48.2627 225.613 48.2627C236.976 48.2627 246.123 54.1899 246.123 61.4718C246.123 87.5514 246.123 113.631 246.123 139.71C246.123 146.992 236.976 152.92 225.613 152.92C176.555 152.92 127.497 152.92 78.1623 152.92C67.0759 152.92 57.6523 146.992 57.6523 139.71C57.6523 113.631 57.6523 87.5514 57.6523 61.4718C57.6523 54.1899 67.0759 48.2627 78.1623 48.2627Z" fill="#F2D490"/>
<path fill-rule="evenodd" clip-rule="evenodd" d="M79.269 50.9727C127.772 50.9727 176.276 50.9727 224.779 50.9727C235.866 50.9727 244.735 56.8998 244.735 64.1818C244.735 89.2453 244.735 114.309 244.735 139.542C244.735 146.654 235.866 152.581 224.779 152.581C176.276 152.581 127.772 152.581 79.269 152.581C68.1825 152.581 59.0361 146.654 59.0361 139.542C59.0361 114.309 59.0361 89.2453 59.0361 64.1818C59.0361 56.8998 68.1825 50.9727 79.269 50.9727Z" fill="#F3D792"/>
<path fill-rule="evenodd" clip-rule="evenodd" d="M80.3756 53.8516C128.047 53.8516 175.719 53.8516 223.668 53.8516C234.478 53.8516 243.624 59.6094 243.624 66.722C243.624 90.9387 243.624 115.155 243.624 139.372C243.624 146.485 234.478 152.412 223.668 152.412C175.719 152.412 128.047 152.412 80.3756 152.412C69.2891 152.412 60.4199 146.485 60.4199 139.372C60.4199 115.155 60.4199 90.9387 60.4199 66.722C60.4199 59.6094 69.2891 53.8516 80.3756 53.8516Z" fill="#F3D993"/>
<path fill-rule="evenodd" clip-rule="evenodd" d="M81.2083 56.562H222.561C233.37 56.562 242.239 62.3198 242.239 69.4324V139.204C242.239 146.316 233.37 152.074 222.561 152.074H81.2083C70.399 152.074 61.5298 146.316 61.5298 139.204V69.4324C61.5298 62.3198 70.399 56.562 81.2083 56.562Z" fill="#F3DB95"/>
<path fill-rule="evenodd" clip-rule="evenodd" d="M309.591 68.2471H932.375C945.401 68.2471 955.656 75.021 955.656 83.4884V142.76C955.656 151.058 945.124 158.001 932.375 158.001H309.591C296.842 158.001 286.31 151.227 286.31 142.76V83.4884C286.31 75.021 296.842 68.2471 309.591 68.2471Z" fill="#EFB469"/>
<path fill-rule="evenodd" clip-rule="evenodd" d="M318.46 75.5288H923.782C936.254 75.5288 946.232 82.1334 946.232 90.0927V140.728C946.232 148.687 935.977 155.292 923.782 155.292H318.46C305.988 155.292 296.01 148.687 296.01 140.728V90.0927C296.01 82.1334 305.988 75.5288 318.46 75.5288Z" fill="#F1C383"/>
<path fill-rule="evenodd" clip-rule="evenodd" d="M319.293 78.4077C520.513 78.4077 721.733 78.4077 922.675 78.4077C934.87 78.4077 944.848 84.8429 944.848 92.8023C944.848 108.721 944.848 124.64 944.848 140.558C944.848 148.518 934.87 154.953 922.675 154.953C721.733 154.953 520.513 154.953 319.293 154.953C307.098 154.953 297.12 148.518 297.12 140.558C297.12 124.64 297.12 108.721 297.12 92.8023C297.12 84.8429 307.098 78.4077 319.293 78.4077Z" fill="#F1C585"/>
<path fill-rule="evenodd" clip-rule="evenodd" d="M320.403 81.1167C520.791 81.1167 721.179 81.1167 921.844 81.1167C933.762 81.1167 943.74 87.5519 943.74 95.3419C943.74 110.414 943.74 125.486 943.74 140.388C943.74 148.348 933.762 154.783 921.844 154.783C721.179 154.783 520.791 154.783 320.403 154.783C308.208 154.783 298.507 148.348 298.507 140.388C298.507 125.486 298.507 110.414 298.507 95.3419C298.507 87.5519 308.208 81.1167 320.403 81.1167Z" fill="#F1C786"/>
<path fill-rule="evenodd" clip-rule="evenodd" d="M321.509 83.9966C521.066 83.9966 720.9 83.9966 920.734 83.9966C932.652 83.9966 942.352 90.2624 942.352 98.0524C942.352 112.108 942.352 126.164 942.352 140.22C942.352 148.01 932.652 154.445 920.734 154.445C720.9 154.445 521.066 154.445 321.509 154.445C309.591 154.445 299.613 148.01 299.613 140.22C299.613 126.164 299.613 112.108 299.613 98.0524C299.613 90.2624 309.314 83.9966 321.509 83.9966Z" fill="#F2CA88"/>
<path fill-rule="evenodd" clip-rule="evenodd" d="M322.342 86.7056C521.622 86.7056 720.624 86.7056 919.627 86.7056C931.545 86.7056 941.246 92.9714 941.246 100.592C941.246 113.801 941.246 127.01 941.246 140.219C941.246 147.84 931.545 154.106 919.627 154.106C720.624 154.106 521.622 154.106 322.342 154.106C310.702 154.106 301.001 147.84 301.001 140.219C301.001 127.01 301.001 113.801 301.001 100.592C301.001 92.9714 310.702 86.7056 322.342 86.7056Z" fill="#F2CC8A"/>
<path fill-rule="evenodd" clip-rule="evenodd" d="M323.448 89.584C521.897 89.584 720.345 89.584 918.793 89.584C930.434 89.584 939.857 95.6805 939.857 103.301C939.857 115.494 939.857 127.857 939.857 140.05C939.857 147.67 930.434 153.767 918.793 153.767C720.345 153.767 521.897 153.767 323.448 153.767C311.808 153.767 302.107 147.67 302.107 140.05C302.107 127.857 302.107 115.494 302.107 103.301C302.107 95.6805 311.808 89.584 323.448 89.584Z" fill="#F2CE8B"/>
<path fill-rule="evenodd" clip-rule="evenodd" d="M324.281 92.2944C522.175 92.2944 720.069 92.2944 917.685 92.2944C929.326 92.2944 938.75 98.391 938.75 106.012C938.75 117.189 938.75 128.535 938.75 139.881C938.75 147.332 929.326 153.598 917.685 153.598C720.069 153.598 522.175 153.598 324.281 153.598C312.918 153.598 303.494 147.332 303.494 139.881C303.494 128.535 303.494 117.189 303.494 106.012C303.494 98.391 312.918 92.2944 324.281 92.2944Z" fill="#F2D08D"/>
<path fill-rule="evenodd" clip-rule="evenodd" d="M325.391 95.1729C522.453 95.1729 719.515 95.1729 916.578 95.1729C927.941 95.1729 937.365 101.1 937.365 108.551C937.365 119.051 937.365 129.381 937.365 139.711C937.365 147.163 927.941 153.259 916.578 153.259C719.515 153.259 522.453 153.259 325.391 153.259C314.027 153.259 304.604 147.163 304.604 139.711C304.604 129.381 304.604 119.051 304.604 108.551C304.604 101.1 314.027 95.1729 325.391 95.1729Z" fill="#F2D28E"/>
<path fill-rule="evenodd" clip-rule="evenodd" d="M326.497 97.8823C522.728 97.8823 719.236 97.8823 915.744 97.8823C926.83 97.8823 936.254 103.979 936.254 111.261C936.254 120.744 936.254 130.228 936.254 139.711C936.254 146.993 926.83 152.92 915.744 152.92C719.236 152.92 522.728 152.92 326.497 152.92C315.134 152.92 305.987 146.993 305.987 139.711C305.987 130.228 305.987 120.744 305.987 111.261C305.987 103.809 315.134 97.8823 326.497 97.8823Z" fill="#F2D490"/>
<path fill-rule="evenodd" clip-rule="evenodd" d="M327.331 100.762C523.284 100.762 718.961 100.762 914.637 100.762C925.724 100.762 934.87 106.689 934.87 113.801C934.87 122.438 934.87 130.906 934.87 139.542C934.87 146.655 925.724 152.582 914.637 152.582C718.961 152.582 523.284 152.582 327.331 152.582C316.244 152.582 307.375 146.655 307.375 139.542C307.375 130.906 307.375 122.438 307.375 113.801C307.375 106.689 316.244 100.762 327.331 100.762Z" fill="#F3D792"/>
<path fill-rule="evenodd" clip-rule="evenodd" d="M328.437 103.471C523.559 103.471 718.681 103.471 913.526 103.471C924.613 103.471 933.482 109.398 933.482 116.511C933.482 124.132 933.482 131.752 933.482 139.373C933.482 146.486 924.613 152.413 913.526 152.413C718.681 152.413 523.559 152.413 328.437 152.413C317.628 152.413 308.481 146.486 308.481 139.373C308.481 131.752 308.481 124.132 308.481 116.511C308.481 109.398 317.628 103.471 328.437 103.471Z" fill="#F3D993"/>
<path fill-rule="evenodd" clip-rule="evenodd" d="M329.547 106.351H912.696C923.505 106.351 932.374 112.108 932.374 119.052V139.204C932.374 146.317 923.505 152.074 912.696 152.074H329.547C318.737 152.074 309.868 146.317 309.868 139.204V119.052C309.868 112.108 318.737 106.351 329.547 106.351Z" fill="#F3DB95"/>
<path fill-rule="evenodd" clip-rule="evenodd" d="M589.004 17.6128H934.978C944.695 17.6128 952.329 21.6771 952.329 26.5882V51.1437C952.329 56.0547 944.695 59.9497 934.978 59.9497H589.004C579.634 59.9497 572 56.0547 572 51.1437V26.5882C572 21.6771 579.634 17.6128 589.004 17.6128Z" fill="#EFB469"/>
<path fill-rule="evenodd" clip-rule="evenodd" d="M595.599 22.0161H928.734C937.756 22.0161 945.391 25.9111 945.391 30.4835V49.7891C945.391 54.5309 937.756 58.4259 928.734 58.4259H595.599C586.577 58.4259 578.942 54.5309 578.942 49.7891V30.4835C578.942 25.7418 586.577 22.0161 595.599 22.0161Z" fill="#F1C383"/>
<path fill-rule="evenodd" clip-rule="evenodd" d="M596.29 23.5396C706.988 23.5396 817.339 23.5396 928.037 23.5396C937.059 23.5396 944.347 27.4345 944.347 32.1763C944.347 37.9341 944.347 43.8613 944.347 49.7885C944.347 54.5302 937.059 58.2558 928.037 58.2558C817.339 58.2558 706.988 58.2558 596.29 58.2558C587.268 58.2558 579.98 54.5302 579.98 49.7885C579.98 43.8613 579.98 37.9341 579.98 32.1763C579.98 27.4345 587.268 23.5396 596.29 23.5396Z" fill="#F1C585"/>
<path fill-rule="evenodd" clip-rule="evenodd" d="M596.985 25.2329C706.989 25.2329 817.34 25.2329 927.344 25.2329C936.019 25.2329 943.307 28.9586 943.307 33.7003C943.307 38.9501 943.307 44.3692 943.307 49.7883C943.307 54.3607 936.019 58.0864 927.344 58.0864C817.34 58.0864 706.989 58.0864 596.985 58.0864C588.31 58.0864 581.022 54.3607 581.022 49.7883C581.022 44.3692 581.022 38.9501 581.022 33.7003C581.022 28.9586 588.31 25.2329 596.985 25.2329Z" fill="#F1C786"/>
<path fill-rule="evenodd" clip-rule="evenodd" d="M597.676 26.9268C707.333 26.9268 816.99 26.9268 926.647 26.9268C935.322 26.9268 942.61 30.6524 942.61 35.2248C942.61 39.9665 942.61 44.8776 942.61 49.6194C942.61 54.1917 935.322 57.9174 926.647 57.9174C816.99 57.9174 707.333 57.9174 597.676 57.9174C589.001 57.9174 581.713 54.1917 581.713 49.6194C581.713 44.8776 581.713 39.9665 581.713 35.2248C581.713 30.6524 589.001 26.9268 597.676 26.9268Z" fill="#F2CA88"/>
<path fill-rule="evenodd" clip-rule="evenodd" d="M598.718 28.4502C707.68 28.4502 816.643 28.4502 925.606 28.4502C934.282 28.4502 941.569 32.1758 941.569 36.7482C941.569 40.9819 941.569 45.2156 941.569 49.6187C941.569 54.0217 934.282 57.7474 925.606 57.7474C816.643 57.7474 707.68 57.7474 598.718 57.7474C590.042 57.7474 582.755 54.0217 582.755 49.6187C582.755 45.2156 582.755 40.9819 582.755 36.7482C582.755 32.1758 589.695 28.4502 598.718 28.4502Z" fill="#F2CC8A"/>
<path fill-rule="evenodd" clip-rule="evenodd" d="M599.413 30.1445C708.029 30.1445 816.298 30.1445 924.914 30.1445C933.589 30.1445 940.529 33.8702 940.529 38.2732C940.529 41.9989 940.529 45.7245 940.529 49.4502C940.529 53.8532 933.589 57.5789 924.914 57.5789C816.298 57.5789 708.029 57.5789 599.413 57.5789C590.738 57.5789 583.797 54.0226 583.797 49.4502C583.797 45.7245 583.797 41.9989 583.797 38.2732C583.797 33.8702 590.738 30.1445 599.413 30.1445Z" fill="#F2CE8B"/>
<path fill-rule="evenodd" clip-rule="evenodd" d="M600.108 31.8379C708.03 31.8379 816.299 31.8379 924.22 31.8379C932.896 31.8379 939.836 35.3942 939.836 39.7972C939.836 43.0148 939.836 46.2325 939.836 49.4501C939.836 53.8531 932.896 57.4094 924.22 57.4094C816.299 57.4094 708.03 57.4094 600.108 57.4094C591.432 57.4094 584.492 53.8531 584.492 49.4501C584.492 46.2325 584.492 43.0148 584.492 39.7972C584.492 35.3942 591.432 31.8379 600.108 31.8379Z" fill="#F2D08D"/>
<path fill-rule="evenodd" clip-rule="evenodd" d="M600.803 33.5308C708.378 33.5308 815.952 33.5308 923.527 33.5308C931.856 33.5308 938.796 37.0871 938.796 41.3208C938.796 44.0303 938.796 46.7399 938.796 49.2801C938.796 53.6831 931.856 57.2395 923.527 57.2395C815.952 57.2395 708.378 57.2395 600.803 57.2395C592.474 57.2395 585.534 53.6831 585.534 49.2801C585.534 46.7399 585.534 44.0303 585.534 41.3208C585.534 37.0871 592.474 33.5308 600.803 33.5308Z" fill="#F2D28E"/>
<path fill-rule="evenodd" clip-rule="evenodd" d="M601.498 35.0552C708.726 35.0552 815.606 35.0552 922.834 35.0552C931.163 35.0552 937.756 38.6115 937.756 43.0145C937.756 45.0467 937.756 47.0789 937.756 49.2804C937.756 53.5141 931.163 57.0704 922.834 57.0704C815.606 57.0704 708.726 57.0704 601.498 57.0704C593.169 57.0704 586.576 53.5141 586.576 49.2804C586.576 47.0789 586.576 45.0467 586.576 43.0145C586.576 38.6115 593.169 35.0552 601.498 35.0552Z" fill="#F2D490"/>
<path fill-rule="evenodd" clip-rule="evenodd" d="M602.188 36.7485C708.722 36.7485 815.602 36.7485 922.136 36.7485C930.117 36.7485 937.058 40.3048 937.058 44.5385C937.058 46.0627 937.058 47.5868 937.058 49.1109C937.058 53.3446 930.117 56.9009 922.136 56.9009C815.602 56.9009 708.722 56.9009 602.188 56.9009C594.206 56.9009 587.266 53.3446 587.266 49.1109C587.266 47.5868 587.266 46.0627 587.266 44.5385C587.266 40.3048 594.206 36.7485 602.188 36.7485Z" fill="#F3D792"/>
<path fill-rule="evenodd" clip-rule="evenodd" d="M602.883 38.4424C709.07 38.4424 815.257 38.4424 921.443 38.4424C929.425 38.4424 936.018 41.8293 936.018 46.063C936.018 47.0791 936.018 48.0952 936.018 49.1113C936.018 53.345 929.425 56.7319 921.443 56.7319C815.257 56.7319 709.07 56.7319 602.883 56.7319C594.902 56.7319 588.309 53.345 588.309 49.1113C588.309 48.0952 588.309 47.0791 588.309 46.063C588.309 41.8293 594.902 38.4424 602.883 38.4424Z" fill="#F3D993"/>
<path fill-rule="evenodd" clip-rule="evenodd" d="M603.925 40.1357H920.403C928.385 40.1357 934.978 43.5227 934.978 47.587V48.9418C934.978 53.1755 928.385 56.5625 920.403 56.5625H603.925C595.944 56.5625 589.351 53.1755 589.351 48.9418V47.587C589.351 43.5227 595.944 40.1357 603.925 40.1357Z" fill="#F3DB95"/>
<path fill-rule="evenodd" clip-rule="evenodd" d="M300.92 17.6128H543.884C550.686 17.6128 556 21.6771 556 26.5882V51.1437C556 56.0547 550.686 59.9497 543.884 59.9497H300.92C294.33 59.9497 288.804 56.0547 288.804 51.1437V26.5882C288.804 21.6771 294.33 17.6128 300.92 17.6128Z" fill="#EFB469"/>
<path fill-rule="evenodd" clip-rule="evenodd" d="M305.384 22.0161H539.42C545.797 22.0161 551.111 25.9111 551.111 30.4835V49.7891C551.111 54.5309 545.797 58.4259 539.42 58.4259H305.384C299.007 58.4259 293.905 54.5309 293.905 49.7891V30.4835C293.905 25.7418 299.007 22.0161 305.384 22.0161Z" fill="#F1C383"/>
<path fill-rule="evenodd" clip-rule="evenodd" d="M306.023 23.5396C383.61 23.5396 461.196 23.5396 538.996 23.5396C545.373 23.5396 550.475 27.4345 550.475 32.1763C550.475 37.9341 550.475 43.8613 550.475 49.7885C550.475 54.5302 545.373 58.2558 538.996 58.2558C461.196 58.2558 383.61 58.2558 306.023 58.2558C299.646 58.2558 294.544 54.5302 294.544 49.7885C294.544 43.8613 294.544 37.9341 294.544 32.1763C294.544 27.4345 299.646 23.5396 306.023 23.5396Z" fill="#F1C585"/>
<path fill-rule="evenodd" clip-rule="evenodd" d="M306.449 25.2329C383.823 25.2329 461.197 25.2329 538.359 25.2329C544.736 25.2329 549.838 28.9586 549.838 33.7003C549.838 38.9501 549.838 44.3692 549.838 49.7883C549.838 54.3607 544.736 58.0864 538.359 58.0864C461.197 58.0864 383.823 58.0864 306.449 58.0864C300.284 58.0864 295.183 54.3607 295.183 49.7883C295.183 44.3692 295.183 38.9501 295.183 33.7003C295.183 28.9586 300.284 25.2329 306.449 25.2329Z" fill="#F1C786"/>
<path fill-rule="evenodd" clip-rule="evenodd" d="M307.086 26.9268C384.036 26.9268 460.985 26.9268 537.934 26.9268C544.099 26.9268 549.2 30.6524 549.2 35.2248C549.2 39.9665 549.2 44.8776 549.2 49.6194C549.2 54.1917 544.099 57.9174 537.934 57.9174C460.985 57.9174 384.036 57.9174 307.086 57.9174C300.922 57.9174 295.82 54.1917 295.82 49.6194C295.82 44.8776 295.82 39.9665 295.82 35.2248C295.82 30.6524 300.922 26.9268 307.086 26.9268Z" fill="#F2CA88"/>
<path fill-rule="evenodd" clip-rule="evenodd" d="M307.512 28.4502C384.249 28.4502 460.773 28.4502 537.297 28.4502C543.462 28.4502 548.564 32.1758 548.564 36.7482C548.564 40.9819 548.564 45.2156 548.564 49.6187C548.564 54.0217 543.462 57.7474 537.297 57.7474C460.773 57.7474 384.249 57.7474 307.512 57.7474C301.348 57.7474 296.459 54.0217 296.459 49.6187C296.459 45.2156 296.459 40.9819 296.459 36.7482C296.459 32.1758 301.348 28.4502 307.512 28.4502Z" fill="#F2CC8A"/>
<path fill-rule="evenodd" clip-rule="evenodd" d="M308.148 30.1445C384.247 30.1445 460.559 30.1445 536.87 30.1445C542.822 30.1445 547.924 33.8702 547.924 38.2732C547.924 41.9989 547.924 45.7245 547.924 49.4502C547.924 53.8532 542.822 57.5789 536.87 57.5789C460.559 57.5789 384.247 57.5789 308.148 57.5789C301.984 57.5789 297.095 54.0226 297.095 49.4502C297.095 45.7245 297.095 41.9989 297.095 38.2732C297.095 33.8702 301.984 30.1445 308.148 30.1445Z" fill="#F2CE8B"/>
<path fill-rule="evenodd" clip-rule="evenodd" d="M308.573 31.8379C384.46 31.8379 460.346 31.8379 536.445 31.8379C542.397 31.8379 547.286 35.3942 547.286 39.7972C547.286 43.0148 547.286 46.2325 547.286 49.4501C547.286 53.8531 542.397 57.4094 536.445 57.4094C460.346 57.4094 384.46 57.4094 308.573 57.4094C302.621 57.4094 297.732 53.8531 297.732 49.4501C297.732 46.2325 297.732 43.0148 297.732 39.7972C297.732 35.3942 302.621 31.8379 308.573 31.8379Z" fill="#F2D08D"/>
<path fill-rule="evenodd" clip-rule="evenodd" d="M308.999 33.5308C384.673 33.5308 460.347 33.5308 535.808 33.5308C541.76 33.5308 546.437 37.0871 546.437 41.3208C546.437 44.0303 546.437 46.7399 546.437 49.2801C546.437 53.6831 541.76 57.2395 535.808 57.2395C460.347 57.2395 384.673 57.2395 308.999 57.2395C303.26 57.2395 298.371 53.6831 298.371 49.2801C298.371 46.7399 298.371 44.0303 298.371 41.3208C298.371 37.0871 303.26 33.5308 308.999 33.5308Z" fill="#F2D28E"/>
<path fill-rule="evenodd" clip-rule="evenodd" d="M309.635 35.0552C384.884 35.0552 460.133 35.0552 535.381 35.0552C541.121 35.0552 545.797 38.6115 545.797 43.0145C545.797 45.0467 545.797 47.0789 545.797 49.2804C545.797 53.5141 541.121 57.0704 535.381 57.0704C460.133 57.0704 384.884 57.0704 309.635 57.0704C303.896 57.0704 299.007 53.5141 299.007 49.2804C299.007 47.0789 299.007 45.0467 299.007 43.0145C299.007 38.6115 303.896 35.0552 309.635 35.0552Z" fill="#F2D490"/>
<path fill-rule="evenodd" clip-rule="evenodd" d="M310.061 36.7485C385.097 36.7485 459.921 36.7485 534.745 36.7485C540.484 36.7485 545.16 40.3048 545.16 44.5385C545.16 46.0627 545.16 47.5868 545.16 49.1109C545.16 53.3446 540.484 56.9009 534.745 56.9009C459.921 56.9009 385.097 56.9009 310.061 56.9009C304.322 56.9009 299.646 53.3446 299.646 49.1109C299.646 47.5868 299.646 46.0627 299.646 44.5385C299.646 40.3048 304.322 36.7485 310.061 36.7485Z" fill="#F3D792"/>
<path fill-rule="evenodd" clip-rule="evenodd" d="M310.699 38.4424C385.098 38.4424 459.709 38.4424 534.32 38.4424C539.847 38.4424 544.523 41.8293 544.523 46.063C544.523 47.0791 544.523 48.0952 544.523 49.1113C544.523 53.345 539.847 56.7319 534.32 56.7319C459.709 56.7319 385.098 56.7319 310.699 56.7319C304.96 56.7319 300.284 53.345 300.284 49.1113C300.284 48.0952 300.284 47.0791 300.284 46.063C300.284 41.8293 304.96 38.4424 310.699 38.4424Z" fill="#F3D993"/>
<path fill-rule="evenodd" clip-rule="evenodd" d="M311.125 40.1357H533.683C539.422 40.1357 543.886 43.5227 543.886 47.587V48.9418C543.886 53.1755 539.422 56.5625 533.683 56.5625H311.125C305.598 56.5625 300.922 53.1755 300.922 48.9418V47.587C300.922 43.5227 305.598 40.1357 311.125 40.1357Z" fill="#F3DB95"/>
<path d="M90.7071 45.4826C87.6685 74.0827 89.3777 93.8708 98.3036 110.258C107.04 126.336 123.372 140.095 149.58 156.327C175.598 140.095 191.93 126.336 200.666 110.258C209.592 93.8708 211.302 74.0827 208.263 45.6372C187.942 42.2361 168.761 40.5356 149.58 40.5356C130.399 40.5356 111.028 42.0815 90.7071 45.4826ZM73.2351 119.224C61.4605 97.4265 59.7513 72.2275 64.4991 35.2794L65.6386 27.395L74.9443 25.6945C100.772 20.5928 125.081 18.2739 149.58 18.2739C173.889 18.4285 198.198 20.902 223.836 25.6945L233.521 27.395L234.471 35.2794C239.219 72.2275 237.51 97.4265 225.735 119.224C213.77 141.022 192.31 158.337 157.556 179.207L149.58 184L141.414 179.207C106.66 158.337 85.1996 141.022 73.2351 119.224Z" fill="black" fill-opacity="0.101961"/>
<path d="M90.7071 36.2087C87.6685 64.8087 89.3777 84.5969 98.3036 100.984C107.04 117.062 123.372 130.666 149.58 147.053C175.598 130.666 191.93 117.062 200.666 100.984C209.592 84.5969 211.302 64.8087 208.263 36.2087C187.942 32.9622 168.761 31.2617 149.58 31.2617C130.399 31.1071 111.028 32.8076 90.7071 36.2087ZM73.2351 109.95C61.4605 88.1526 59.7513 62.799 64.4991 26.0054L65.6386 18.1211L74.9443 16.266C100.772 11.3189 125.081 9 149.58 9C173.889 9 198.198 11.4735 223.836 16.266L233.521 18.1211L234.471 26.0054C239.219 62.799 237.51 88.1526 225.735 109.95C213.77 131.748 192.31 148.908 157.556 169.779L149.58 174.726L141.414 169.779C106.66 148.908 85.1996 131.748 73.2351 109.95Z" fill="white"/>
<path fill-rule="evenodd" clip-rule="evenodd" d="M78.17 23.5302C69.0542 93.2525 83.8674 117.833 149.577 157.255C215.287 117.833 229.91 93.2525 220.984 23.5302C171.227 14.2545 127.927 13.9453 78.17 23.5302Z" fill="#E6E6E6"/>
<path fill-rule="evenodd" clip-rule="evenodd" d="M149.58 157.255C215.289 117.834 229.913 93.2531 220.987 23.5308C196.108 18.893 172.749 16.574 149.58 16.4194V157.255Z" fill="#CCCCCC"/>
<path fill-rule="evenodd" clip-rule="evenodd" d="M149.581 142.725C130.97 131.594 116.347 121.545 105.332 111.497C85.7706 93.5636 77.0346 75.0122 75.8952 48.5765C73.8061 99.902 92.4175 122.937 149.581 157.257C206.745 122.937 225.356 99.902 223.077 48.4219C221.938 75.0122 213.202 93.5636 193.641 111.497C182.626 121.545 168.193 131.594 149.581 142.725Z" fill="white"/>
<path fill-rule="evenodd" clip-rule="evenodd" d="M75.7061 56.9238C75.896 102.529 95.6469 124.946 149.582 157.256C203.517 124.946 223.078 102.529 223.268 56.9238C223.268 54.9141 223.268 52.7498 223.078 50.5854C221.939 77.0212 213.203 95.5726 193.642 113.506C182.627 123.554 168.194 133.603 149.582 144.734C130.971 133.603 116.347 123.554 105.332 113.506C85.7714 95.5726 77.0354 77.0212 75.896 50.5854C75.7061 52.7498 75.7061 54.9141 75.7061 56.9238Z" fill="#999999"/>
<path fill-rule="evenodd" clip-rule="evenodd" d="M147.303 15.1846L152.811 16.4213L149.582 74.3944L147.303 15.1846Z" fill="white"/>
<path fill-rule="evenodd" clip-rule="evenodd" d="M149.579 166.224L141.413 161.277C106.659 140.561 85.1991 123.247 73.2346 101.449C66.0179 87.9989 62.5995 73.3124 62.0298 55.3794C61.6499 77.3319 64.8785 94.4919 73.2346 109.951C85.1991 131.749 106.659 148.909 141.413 169.78L149.579 174.727L157.556 169.78C192.31 148.909 213.77 131.749 225.734 109.951C234.091 94.4919 237.509 77.3319 236.939 55.3794C236.559 73.3124 232.951 87.9989 225.734 101.449C213.77 123.247 192.31 140.561 157.556 161.277L149.579 166.224Z" fill="#E6E6E6"/>
<path d="M314.023 56.2506L304.595 61.3145C303.496 61.9297 302.307 62.119 301.208 61.9297C300.384 61.7878 299.606 61.4565 298.966 60.9832C298.325 60.5099 297.776 59.8947 297.409 59.0901C296.86 58.049 296.586 56.7712 296.814 55.3514L298.554 44.6083L290.682 36.6574C289.858 35.8056 289.309 34.7171 289.08 33.6286C288.943 32.8713 288.988 32.0668 289.171 31.3096V31.2622C289.4 30.505 289.766 29.7951 290.361 29.1325C291.139 28.328 292.192 27.7601 293.519 27.4761L293.657 27.4288L304.366 25.7724L304.595 25.2045C306.288 20.7558 309.126 13.4202 313.977 13.4675C318.783 13.5622 321.62 20.6611 323.359 25.1571L323.634 25.7724L334.343 27.4288L334.481 27.4761C335.808 27.7601 336.861 28.328 337.639 29.1325C338.234 29.7478 338.6 30.505 338.829 31.3096C339.012 32.0668 339.057 32.8713 338.92 33.6286C338.691 34.7171 338.142 35.8056 337.318 36.6574L329.492 44.6083L331.186 55.3514C331.414 56.7712 331.186 58.049 330.636 59.0901C330.224 59.8947 329.675 60.5099 329.034 60.9832C328.394 61.4565 327.616 61.7878 326.792 61.9297C325.693 62.119 324.504 61.9297 323.405 61.3145L314.023 56.2506Z" fill="black" fill-opacity="0.101961"/>
<path d="M314.023 54.784L304.595 59.8479C303.496 60.4631 302.307 60.6051 301.208 60.4631C300.384 60.3212 299.606 59.9899 298.966 59.5166C298.325 59.0433 297.776 58.3808 297.409 57.6235C296.86 56.5824 296.586 55.2572 296.814 53.8848V53.8374L298.554 43.0943L290.682 35.1435C289.858 34.2916 289.309 33.2505 289.08 32.1619C288.943 31.4047 288.988 30.6002 289.171 29.7956C289.4 29.0384 289.766 28.2812 290.361 27.6659C291.139 26.8614 292.192 26.2461 293.519 26.0095L293.657 25.9622L304.366 24.3058L304.595 23.7378C306.288 19.2892 309.126 11.9062 313.977 12.0009C318.783 12.0482 321.62 19.1945 323.359 23.6432L323.634 24.3058L334.343 25.9622L334.481 26.0095C335.808 26.2461 336.861 26.8614 337.639 27.6659C338.234 28.2812 338.6 29.0384 338.829 29.7956C339.012 30.6002 339.057 31.3574 338.92 32.1619C338.691 33.2505 338.142 34.2916 337.318 35.1435L329.492 43.0943L331.186 53.8374V53.8848C331.414 55.2572 331.186 56.5824 330.636 57.6235C330.224 58.3808 329.675 59.0433 329.034 59.5166C328.394 59.9899 327.616 60.3212 326.792 60.4631C325.693 60.6051 324.504 60.4631 323.405 59.8479L314.023 54.784Z" fill="white"/>
<path d="M314.021 51.282L303.22 57.1032C301.39 58.097 299.422 56.6299 299.742 54.3582L301.756 42.006L292.786 32.9194C291.504 31.6416 291.687 29.5119 294.113 29.0386L306.47 27.0982C307.614 24.6846 310.452 15.03 313.976 15.0773C317.5 15.1246 320.292 24.4953 321.527 27.0982L333.93 29.0386C336.31 29.5119 336.539 31.6416 335.212 32.9194L326.287 42.006L328.255 54.3582C328.575 56.6299 326.607 58.097 324.777 57.1032L314.021 51.282Z" fill="#FFE00F"/>
<path fill-rule="evenodd" clip-rule="evenodd" d="M314.021 48.8682L303.22 54.6893C301.847 55.4465 300.383 54.784 299.879 53.4588L299.742 54.358C299.422 56.6297 301.39 58.0968 303.22 57.103L314.021 51.2818L324.777 57.103C326.607 58.0968 328.575 56.6297 328.255 54.358L328.118 53.4588C327.614 54.784 326.15 55.4465 324.777 54.6893L314.021 48.8682Z" fill="#DCB000"/>
<path fill-rule="evenodd" clip-rule="evenodd" d="M325.922 39.9244L326.288 42.0067L335.213 32.9201C336.083 32.0682 336.266 30.885 335.625 29.9858C335.533 30.1751 335.396 30.3645 335.213 30.5064L325.922 39.9244Z" fill="#DCB000"/>
<path fill-rule="evenodd" clip-rule="evenodd" d="M302.078 39.9244L292.787 30.5064C292.604 30.3645 292.466 30.1751 292.375 29.9858C291.734 30.885 291.917 32.0682 292.787 32.9201L301.757 42.0067L302.078 39.9244Z" fill="#DCB000"/>
<path fill-rule="evenodd" clip-rule="evenodd" d="M304.596 58.4282C303.498 59.0435 302.308 59.2328 301.209 59.0435C300.385 58.9015 299.607 58.6175 298.967 58.1443C298.326 57.671 297.777 57.0084 297.411 56.2512C297.09 55.636 296.861 54.9261 296.77 54.1688C296.633 55.4467 296.861 56.6298 297.411 57.6237C297.777 58.3809 298.326 59.0435 298.967 59.5167C299.607 59.99 300.385 60.3213 301.209 60.4633C302.308 60.6052 303.498 60.4633 304.596 59.848L314.024 54.7841L323.406 59.848C324.505 60.4633 325.695 60.6052 326.793 60.4633C327.617 60.3213 328.395 59.99 329.036 59.5167C329.676 59.0435 330.226 58.3809 330.638 57.6237C331.141 56.6298 331.37 55.4467 331.232 54.1688C331.141 54.9261 330.958 55.636 330.638 56.2512C330.226 57.0084 329.676 57.671 329.036 58.0969C328.395 58.6175 327.617 58.9015 326.793 59.0435C325.695 59.2328 324.505 59.0435 323.406 58.4755L314.024 53.4116L304.596 58.4282Z" fill="#E6E6E6"/>
<path fill-rule="evenodd" clip-rule="evenodd" d="M321.527 27.0982C320.291 24.4953 317.499 15.1246 313.975 15.0773C310.451 15.03 307.613 24.6846 306.469 27.0982L294.112 29.0386C293.288 29.1806 292.693 29.5592 292.373 29.9851L292.785 30.5057L297.682 35.475C302.121 33.298 307.659 31.2156 313.746 29.6539C317.362 28.7073 320.84 27.9974 324.135 27.5242L321.527 27.0982Z" fill="#FFF71F"/>
<path fill-rule="evenodd" clip-rule="evenodd" d="M326.654 44.4663C324 45.4602 321.071 46.3594 318.05 47.1639C311.643 48.8677 305.555 49.7669 300.475 49.9562L299.88 53.4583C300.384 54.7835 301.848 55.446 303.221 54.6888L314.022 48.8677L324.778 54.6888C326.151 55.446 327.615 54.7835 328.119 53.4583L326.654 44.4663Z" fill="#F7C600"/>
<ellipse cx="603.39" cy="37.9998" rx="24.3902" ry="23.8372" fill="#E6E6E6"/>
<ellipse cx="604" cy="38.5812" rx="25" ry="24.4186" fill="black" fill-opacity="0.1"/>
<ellipse cx="604" cy="36.8372" rx="25" ry="23.8372" fill="white"/>
<path d="M605.74 55.9162V54.3958C605.74 53.4511 604.939 52.6878 603.948 52.6878C602.958 52.6878 602.157 53.4511 602.157 54.3958V55.9162C596.398 55.4302 591.329 52.624 587.986 48.4868C585.699 45.6559 584.22 42.2019 583.881 38.4415H585.426C586.415 38.4415 587.216 37.6766 587.216 36.7335C587.216 35.7888 586.415 35.0254 585.426 35.0254H583.891C584.773 25.8197 592.494 18.4734 602.157 17.6564V19.0711C602.157 20.0158 602.958 20.7792 603.948 20.7792C604.939 20.7792 605.74 20.0158 605.74 19.0711V17.6564C610.092 18.0244 614.05 19.7169 617.167 22.3073C620.971 25.4682 623.521 29.966 624.006 35.0254H622.472C621.481 35.0254 620.681 35.7888 620.681 36.7335C620.681 37.6766 621.481 38.4415 622.472 38.4415H624.015C623.183 47.6977 615.439 55.0976 605.74 55.9162ZM603.948 14.1631C590.843 14.1631 580.221 24.2899 580.221 36.7871C580.221 49.2827 590.843 59.4111 603.948 59.4111C617.054 59.4111 627.676 49.2827 627.676 36.7871C627.676 24.2899 617.054 14.1631 603.948 14.1631Z" fill="#DCB000"/>
<path d="M605.74 55.9162V54.3958C605.74 53.4511 604.939 52.6878 603.948 52.6878C602.958 52.6878 602.157 53.4511 602.157 54.3958V55.9162C596.398 55.4302 591.329 52.624 587.986 48.4868C585.699 45.6559 584.22 42.2019 583.881 38.4415H585.426C586.415 38.4415 587.216 37.6766 587.216 36.7335C587.216 35.7888 586.415 35.0254 585.426 35.0254H583.891C584.773 25.8197 592.494 18.4734 602.157 17.6564V19.0711C602.157 20.0158 602.958 20.7792 603.948 20.7792C604.939 20.7792 605.74 20.0158 605.74 19.0711V17.6564C610.092 18.0244 614.05 19.7169 617.167 22.3073C620.971 25.4682 623.521 29.966 624.006 35.0254H622.472C621.481 35.0254 620.681 35.7888 620.681 36.7335C620.681 37.6766 621.481 38.4415 622.472 38.4415H624.015C623.183 47.6977 615.439 55.0976 605.74 55.9162Z" fill="#FFE00F"/>
<path d="M614.614 25.7643L604.008 36.3627L603.947 36.3595C603.815 36.3595 603.686 36.3722 603.56 36.3958L594.681 30.0005C594.094 29.5794 593.252 29.6867 592.804 30.2529C592.357 30.8143 592.471 31.6202 593.067 32.0476L601.941 38.4414C602.027 39.4255 602.892 40.2014 603.947 40.2014C605.06 40.2014 605.962 39.3403 605.962 38.2805C605.962 38.23 605.959 38.1795 605.954 38.1307L616.559 27.5323C617.071 27.0182 617.052 26.2107 616.515 25.7218C615.979 25.2313 615.129 25.2549 614.614 25.7643Z" fill="#DCB000"/>
<path d="M194.387 111.399L174.26 108.205L165.044 121L136.307 78.248L165.65 68.6472L194.387 111.399Z" fill="#4F8AD0"/>
<path d="M105.613 111.399L125.738 108.205L134.954 121L163.692 78.2478L134.349 68.6469L105.613 111.399" fill="#58ADE4"/>
<path d="M152.987 103.058L150.002 98.6169L154.842 91.4164C156.155 91.3382 157.447 91.2241 158.729 91.0751L152.987 103.058" fill="#417FC7"/>
<path d="M200 57.0475C200 76.0997 177.864 91.5439 150.555 91.5439C123.248 91.5439 101.111 76.0997 101.111 57.0475C101.111 37.9955 123.248 22.5509 150.555 22.5509C177.864 22.5509 200 37.9955 200 57.0475" fill="#8F9295"/>
<path d="M198.89 55.4964C198.89 74.5485 176.753 89.9937 149.445 89.9937C122.137 89.9937 100 74.5485 100 55.4964C100 36.4445 122.137 20.9998 149.445 20.9998C176.753 20.9998 198.89 36.4445 198.89 55.4964" fill="#C2D1D1"/>
<path d="M186.944 55.4967C186.944 69.9464 170.155 81.6602 149.445 81.6602C128.733 81.6602 111.944 69.9464 111.944 55.4967C111.944 41.0471 128.733 29.3332 149.445 29.3332C170.155 29.3332 186.944 41.0471 186.944 55.4967" fill="#BBBCBD"/>
<path d="M152.136 83.0112L154.402 81.4336C171.123 79.8933 184.371 70.6664 186.609 59.0063L188.878 57.4267C188.448 71.4381 172.228 82.7375 152.136 83.0112V83.0112ZM146.006 82.7491C142.171 82.3649 138.527 81.576 135.161 80.4467L135.93 79.9102C139.583 80.895 143.512 81.4922 147.613 81.6296L146.006 82.7491V82.7491ZM149.443 81.6601C149.015 81.6601 148.591 81.6554 148.169 81.6452C148.471 81.6524 148.775 81.6569 149.079 81.6589H149.08C149.099 81.659 149.118 81.6591 149.139 81.6594C149.139 81.6594 149.141 81.6594 149.142 81.6594C149.159 81.6594 149.18 81.6595 149.197 81.6596C149.199 81.6596 149.201 81.6596 149.202 81.6596C149.221 81.6597 149.24 81.6597 149.257 81.6599C149.259 81.6599 149.262 81.6599 149.262 81.6599C149.281 81.6599 149.298 81.66 149.317 81.66C149.319 81.66 149.321 81.66 149.324 81.66C149.343 81.66 149.36 81.66 149.381 81.6601C149.381 81.6601 149.383 81.6601 149.384 81.6601C149.403 81.6601 149.424 81.6601 149.443 81.6601C149.444 81.6601 149.444 81.6601 149.444 81.6601C149.443 81.6601 149.443 81.6601 149.443 81.6601V81.6601ZM149.444 81.6601C149.462 81.6601 149.479 81.6601 149.496 81.6601C149.479 81.6601 149.463 81.6601 149.446 81.6601H149.444ZM149.513 81.6601C149.527 81.66 149.539 81.66 149.554 81.66C149.54 81.66 149.527 81.66 149.513 81.6601ZM149.583 81.66C149.592 81.66 149.601 81.66 149.609 81.6599C149.601 81.66 149.592 81.66 149.583 81.66ZM149.64 81.6597H149.642H149.64ZM134.263 79.4278C134.262 79.4272 134.26 79.4265 134.256 79.4257C134.26 79.4265 134.262 79.4272 134.263 79.4278ZM134.212 79.4117C134.2 79.4081 134.188 79.4045 134.177 79.401C134.189 79.4047 134.2 79.408 134.212 79.4117ZM134.162 79.3962C132.143 78.7672 130.221 78.0174 128.408 77.16L128.111 77.3669C127.541 77.0516 126.985 76.7247 126.441 76.3872L126.625 76.2601C128.939 77.4996 131.467 78.556 134.162 79.3962V79.3962ZM124.137 74.8048C124.069 74.7609 124 74.7169 123.931 74.6726L123.93 74.672C124 74.7165 124.069 74.7606 124.137 74.8048ZM186.904 54.274C186.716 51.4113 185.868 48.6685 184.464 46.1181L185.236 45.5793C186.85 47.9309 187.972 50.4761 188.516 53.1521L186.904 54.274V54.274ZM180.538 40.8662C180.126 40.4408 179.697 40.0245 179.25 39.6174L179.436 39.4885C179.92 39.8681 180.387 40.2577 180.838 40.6568L180.538 40.8662" fill="#E5EAE9"/>
<path d="M149.443 81.6602C149.46 81.6602 149.477 81.6602 149.496 81.6602C149.477 81.6602 149.46 81.6602 149.443 81.6602ZM149.383 81.6602C149.382 81.6602 149.38 81.6602 149.38 81.6602C149.38 81.6602 149.382 81.6602 149.383 81.6602ZM149.511 81.6602C149.527 81.66 149.544 81.66 149.561 81.66C149.559 81.66 149.556 81.66 149.554 81.66C149.539 81.66 149.527 81.66 149.511 81.6602ZM149.322 81.66C149.32 81.66 149.319 81.66 149.317 81.6599C149.317 81.66 149.32 81.66 149.322 81.66ZM149.574 81.6599C149.586 81.6599 149.602 81.6599 149.614 81.6599C149.612 81.6599 149.61 81.6599 149.608 81.6599C149.6 81.6599 149.591 81.6599 149.583 81.6599C149.579 81.6599 149.576 81.6599 149.574 81.6599ZM149.262 81.6599C149.261 81.6599 149.259 81.6599 149.257 81.6599C149.259 81.6599 149.261 81.6599 149.262 81.6599ZM149.632 81.6598C149.648 81.6598 149.658 81.6597 149.672 81.6597C149.661 81.6597 149.653 81.6598 149.643 81.6598H149.639C149.637 81.6598 149.636 81.6598 149.632 81.6598V81.6598ZM149.201 81.6596C149.201 81.6596 149.198 81.6596 149.196 81.6596C149.199 81.6596 149.201 81.6596 149.201 81.6596ZM149.706 81.6596C149.712 81.6596 149.719 81.6594 149.726 81.6594C149.719 81.6594 149.712 81.6596 149.706 81.6596ZM149.141 81.6593C149.14 81.6593 149.138 81.6593 149.138 81.6593C149.138 81.6593 149.14 81.6593 149.141 81.6593ZM149.08 81.659H149.078C149.08 81.659 149.08 81.659 149.08 81.659ZM154.4 81.4336V81.4332C171.12 79.8922 184.367 70.6652 186.608 59.0071V59.0064C184.37 70.6664 171.123 79.8933 154.4 81.4336V81.4336ZM134.667 79.5503C134.531 79.51 134.396 79.4691 134.263 79.4278C134.261 79.4271 134.258 79.4265 134.256 79.4258C134.243 79.421 134.226 79.4164 134.21 79.4116C134.2 79.4081 134.19 79.4046 134.176 79.4011C134.171 79.3994 134.166 79.3979 134.161 79.3962C131.466 78.5561 128.938 77.4997 126.623 76.2601L126.624 76.2596C129.083 77.577 131.779 78.6863 134.667 79.5503V79.5503ZM125.837 75.8258C125.256 75.4974 124.69 75.1569 124.137 74.8049C124.067 74.7606 123.999 74.7166 123.929 74.672C123.926 74.6686 123.921 74.6653 123.917 74.6619C124.538 75.0645 125.179 75.4529 125.837 75.8258V75.8258ZM186.941 55.7781C186.941 55.7765 186.941 55.7723 186.941 55.7705C186.941 55.773 186.941 55.7756 186.941 55.7781ZM186.941 55.7335C186.941 55.7273 186.941 55.7227 186.941 55.7166C186.941 55.7222 186.941 55.7278 186.941 55.7335ZM186.942 55.6984C186.942 55.6913 186.942 55.6846 186.942 55.6776C186.942 55.6846 186.942 55.6914 186.942 55.6984ZM186.942 55.6584C186.942 55.6487 186.942 55.6399 186.942 55.6302C186.942 55.6397 186.942 55.6488 186.942 55.6584ZM186.942 55.6171C186.942 55.6075 186.942 55.5952 186.942 55.5856C186.942 55.596 186.942 55.6066 186.942 55.6171ZM186.942 55.5803C186.942 55.5679 186.942 55.5563 186.942 55.5441C186.942 55.5561 186.942 55.5682 186.942 55.5803ZM186.942 55.5341C186.942 55.5217 186.942 55.5092 186.942 55.4967C186.942 55.5092 186.942 55.5217 186.942 55.5341ZM186.942 55.4967C186.942 55.4838 186.942 55.4712 186.942 55.4582C186.942 55.4711 186.942 55.484 186.942 55.4967ZM186.903 54.2747C186.714 51.4119 185.867 48.669 184.462 46.1188V46.1183C185.867 48.6687 186.714 51.4113 186.903 54.2741V54.2747ZM184.169 45.6048C184.167 45.6004 184.164 45.5957 184.162 45.5913C184.164 45.5958 184.167 45.6002 184.169 45.6048ZM184.155 45.5803C182.43 42.6441 179.962 39.9752 176.91 37.6885C176.921 37.6943 176.929 37.7 176.938 37.7058C177.751 38.3169 178.523 38.955 179.247 39.6184L179.249 39.6175C179.696 40.0246 180.124 40.4409 180.538 40.8663L180.536 40.8664C181.961 42.3386 183.178 43.9163 184.155 45.5803Z" fill="#E3E4E4"/>
<path d="M115.276 57.0474C115.276 42.5979 132.068 30.884 152.779 30.884C159.755 30.884 166.283 32.2146 171.877 34.5295C165.62 31.2653 157.857 29.3339 149.446 29.3339C128.734 29.3339 111.944 41.0475 111.944 55.497C111.944 65.0801 119.33 73.4582 130.346 78.0156C121.198 73.2444 115.276 65.6286 115.276 57.0474" fill="#8F9295"/>
<path d="M105.607 71.4697C103.787 69.0448 102.37 66.4515 101.415 63.7301C102.37 66.4505 103.788 69.0452 105.607 71.4695V71.4697ZM101.415 63.7288C101.414 63.7242 101.413 63.7197 101.41 63.7151C101.411 63.7194 101.414 63.7244 101.415 63.7288Z" fill="#F8F9F9"/>
<path d="M105.607 71.4697C103.788 69.0455 102.37 66.4507 101.415 63.7304C101.415 63.7299 101.415 63.7295 101.415 63.7291C101.414 63.7247 101.411 63.7197 101.41 63.7154C101.254 63.2707 101.111 62.8224 100.981 62.371L111.959 54.7269C111.948 54.9837 111.942 55.2387 111.942 55.4973C111.942 58.8103 112.823 61.9782 114.435 64.8941C114.492 64.9974 114.55 65.1003 114.608 65.2029L105.607 71.4697" fill="#E5EAE9"/>
<path d="M114.608 65.2026C114.55 65.1 114.492 64.9971 114.435 64.8939C114.492 64.997 114.55 65.0999 114.608 65.2025" fill="#E3E4E4"/>
<path d="M172.425 24.9458C169.103 23.7262 165.56 22.7636 161.843 22.094C165.56 22.7625 169.105 23.7251 172.427 24.9447L172.425 24.9458Z" fill="#F8F9F9"/>
<path d="M163.426 31.2124C159.982 30.2464 156.284 29.6265 152.424 29.4145C152.422 29.4145 152.422 29.4145 152.422 29.4145C152.341 29.41 152.264 29.4055 152.183 29.4021C152.182 29.4021 152.18 29.4021 152.177 29.401C152.164 29.401 152.148 29.3999 152.133 29.3999C152.133 29.3988 152.13 29.3988 152.128 29.3988C152.067 29.3965 152.007 29.3931 151.944 29.3909C151.941 29.3897 151.938 29.3897 151.934 29.3897C151.92 29.3897 151.907 29.3886 151.892 29.3875C151.891 29.3875 151.886 29.3875 151.883 29.3875C151.87 29.3875 151.855 29.3864 151.842 29.3852H151.841C151.795 29.3841 151.749 29.3819 151.703 29.3796C151.7 29.3796 151.697 29.3796 151.69 29.3796C151.679 29.3785 151.666 29.3785 151.655 29.3774C151.648 29.3774 151.644 29.3774 151.637 29.3774C151.626 29.3762 151.614 29.3762 151.602 29.3762C151.597 29.3751 151.593 29.3751 151.589 29.3751C151.548 29.374 151.506 29.3717 151.467 29.3706C151.461 29.3706 151.454 29.3706 151.448 29.3695C151.437 29.3695 151.425 29.3695 151.414 29.3683C151.406 29.3683 151.401 29.3683 151.393 29.3683C151.383 29.3672 151.372 29.3672 151.362 29.3672C151.354 29.3661 151.346 29.3661 151.338 29.3661C151.33 29.3661 151.317 29.3649 151.307 29.3649C151.301 29.3649 151.295 29.365 151.288 29.3638C151.269 29.3638 151.248 29.3627 151.228 29.3627C151.22 29.3616 151.214 29.3616 151.206 29.3616C151.196 29.3616 151.185 29.3604 151.175 29.3604C151.167 29.3604 151.159 29.3604 151.151 29.3593C151.139 29.3593 151.131 29.3593 151.122 29.3593C151.112 29.3582 151.104 29.3582 151.096 29.3582C151.086 29.3582 151.076 29.3571 151.067 29.3571C151.059 29.3571 151.049 29.3571 151.039 29.3559C151.023 29.3559 151.007 29.3559 150.991 29.3548C150.981 29.3548 150.971 29.3548 150.963 29.3548C150.954 29.3537 150.944 29.3537 150.934 29.3537C150.925 29.3537 150.916 29.3526 150.907 29.3526C150.899 29.3526 150.889 29.3526 150.881 29.3526C150.871 29.3514 150.862 29.3514 150.852 29.3514C150.842 29.3514 150.834 29.3503 150.824 29.3503C150.815 29.3503 150.805 29.3503 150.794 29.3503C150.786 29.3492 150.779 29.3492 150.771 29.3492C150.755 29.3492 150.736 29.348 150.719 29.348C150.711 29.348 150.703 29.348 150.695 29.3469C150.685 29.3469 150.674 29.3469 150.664 29.3469C150.655 29.3469 150.647 29.3469 150.639 29.3458C150.627 29.3458 150.619 29.3458 150.61 29.3458C150.6 29.3458 150.592 29.3447 150.584 29.3447C150.571 29.3447 150.563 29.3447 150.551 29.3447C150.543 29.3447 150.537 29.3435 150.529 29.3435C150.511 29.3435 150.493 29.3435 150.475 29.3424C150.471 29.3424 150.466 29.3424 150.459 29.3424C150.445 29.3424 150.433 29.3424 150.419 29.3424C150.412 29.3413 150.406 29.3413 150.399 29.3413C150.388 29.3413 150.375 29.3413 150.364 29.3413C150.356 29.3413 150.349 29.3401 150.343 29.3401C150.33 29.3401 150.319 29.3401 150.307 29.3401C150.299 29.3401 150.293 29.3401 150.286 29.3401C150.272 29.339 150.257 29.339 150.243 29.339C150.236 29.339 150.23 29.339 150.223 29.339C150.207 29.3379 150.191 29.3379 150.177 29.3379C150.172 29.3379 150.164 29.3379 150.157 29.3379C150.146 29.3379 150.135 29.3379 150.122 29.3379C150.114 29.3368 150.107 29.3368 150.099 29.3368C150.088 29.3368 150.076 29.3368 150.063 29.3368C150.057 29.3368 150.051 29.3368 150.044 29.3368C150.03 29.3368 150.015 29.3356 150 29.3356C149.996 29.3356 149.992 29.3356 149.989 29.3356C149.97 29.3356 149.95 29.3356 149.933 29.3356C149.928 29.3356 149.925 29.3356 149.92 29.3356C149.905 29.3356 149.891 29.3345 149.876 29.3345C149.871 29.3345 149.863 29.3345 149.857 29.3345C149.844 29.3345 149.832 29.3345 149.819 29.3345C149.813 29.3345 149.807 29.3345 149.8 29.3345C149.787 29.3345 149.774 29.3345 149.761 29.3345C149.755 29.3345 149.748 29.3345 149.744 29.3345C149.726 29.3334 149.708 29.3334 149.689 29.3334C149.685 29.3334 149.681 29.3334 149.679 29.3334C149.677 29.3334 149.679 29.3334 149.677 29.3334C149.676 29.3334 149.674 29.3334 149.672 29.3334C149.66 29.3334 149.647 29.3334 149.634 29.3334C149.629 29.3334 149.624 29.3334 149.619 29.3334C149.616 29.3334 149.614 29.3334 149.611 29.3334C149.601 29.3334 149.588 29.3334 149.577 29.3334C149.572 29.3334 149.566 29.3334 149.561 29.3334C149.559 29.3334 149.558 29.3334 149.555 29.3334C149.543 29.3334 149.532 29.3334 149.519 29.3334C149.513 29.3334 149.509 29.3334 149.503 29.3334C149.501 29.3334 149.501 29.3334 149.5 29.3334C149.482 29.3334 149.464 29.3334 149.445 29.3334C149.429 29.3334 149.414 29.3334 149.399 29.3334C149.07 29.3334 148.743 29.3368 148.416 29.3424L159.394 21.699C160.219 21.8162 161.037 21.9481 161.844 22.0935C165.56 22.7631 169.103 23.7257 172.427 24.9441L163.426 31.2124" fill="#E5EAE9"/>
<path d="M163.426 31.2114C160.809 30.4777 158.047 29.9442 155.181 29.6372C155.178 29.6372 155.176 29.6361 155.174 29.6361C155.157 29.6351 155.142 29.6329 155.126 29.6318C155.125 29.6307 155.121 29.6307 155.118 29.6307C155.103 29.6285 155.089 29.6274 155.075 29.6253C155.07 29.6253 155.067 29.6253 155.064 29.6253C155.046 29.6231 155.029 29.6209 155.014 29.6198C155.012 29.6198 155.011 29.6187 155.011 29.6187C154.975 29.6155 154.939 29.6122 154.903 29.6078C154.898 29.6078 154.895 29.6078 154.89 29.6067C154.878 29.6057 154.864 29.6046 154.851 29.6024C154.847 29.6024 154.839 29.6013 154.833 29.6013C154.822 29.6002 154.809 29.5991 154.798 29.598C154.792 29.5969 154.787 29.5969 154.781 29.5959C154.769 29.5948 154.758 29.5937 154.745 29.5926C154.739 29.5915 154.733 29.5915 154.727 29.5904C154.714 29.5893 154.702 29.5882 154.689 29.5872C154.684 29.5861 154.68 29.5861 154.675 29.585C154.658 29.5839 154.641 29.5817 154.624 29.5806C154.619 29.5795 154.614 29.5795 154.61 29.5795C154.597 29.5784 154.583 29.5763 154.572 29.5752C154.564 29.5752 154.557 29.5741 154.55 29.573C154.539 29.573 154.53 29.5719 154.521 29.5708C154.513 29.5697 154.503 29.5686 154.496 29.5686C154.486 29.5676 154.477 29.5665 154.468 29.5654C154.46 29.5654 154.452 29.5643 154.444 29.5632C154.435 29.5621 154.424 29.5621 154.413 29.561C154.407 29.5599 154.399 29.5589 154.391 29.5589C154.382 29.5578 154.371 29.5567 154.36 29.5556C154.349 29.5545 154.34 29.5534 154.329 29.5534C154.316 29.5512 154.304 29.5501 154.29 29.549C154.282 29.549 154.274 29.548 154.266 29.5469C154.257 29.5469 154.248 29.5458 154.238 29.5447C154.23 29.5436 154.223 29.5436 154.215 29.5425C154.205 29.5414 154.195 29.5414 154.185 29.5403C154.179 29.5393 154.17 29.5382 154.162 29.5382C154.152 29.5371 154.143 29.536 154.134 29.536C154.126 29.5349 154.118 29.5338 154.109 29.5338C154.099 29.5327 154.09 29.5316 154.081 29.5305C154.073 29.5305 154.065 29.5295 154.057 29.5295C154.043 29.5273 154.029 29.5262 154.015 29.5251C154.009 29.5251 154.003 29.524 153.995 29.524C153.981 29.5229 153.968 29.5218 153.954 29.5207C153.948 29.5197 153.94 29.5186 153.934 29.5186C153.923 29.5175 153.914 29.5164 153.903 29.5164C153.895 29.5153 153.887 29.5142 153.879 29.5142C153.87 29.5131 153.861 29.512 153.85 29.512C153.842 29.5109 153.834 29.5099 153.826 29.5099C153.817 29.5088 153.806 29.5077 153.797 29.5077C153.789 29.5066 153.783 29.5066 153.775 29.5055C153.762 29.5044 153.753 29.5033 153.74 29.5033C153.734 29.5022 153.73 29.5022 153.723 29.5011C153.705 29.5001 153.686 29.499 153.67 29.4968C153.667 29.4968 153.664 29.4968 153.661 29.4968C153.647 29.4957 153.633 29.4946 153.617 29.4935C153.613 29.4924 153.606 29.4924 153.6 29.4914C153.589 29.4914 153.577 29.4903 153.564 29.4892C153.558 29.4881 153.552 29.4881 153.547 29.4881C153.533 29.487 153.524 29.4859 153.511 29.4848C153.505 29.4848 153.499 29.4837 153.492 29.4837C153.481 29.4826 153.467 29.4816 153.456 29.4805C153.45 29.4805 153.444 29.4805 153.439 29.4794C153.422 29.4783 153.408 29.4772 153.391 29.4761C153.389 29.4761 153.388 29.4761 153.386 29.4761C153.369 29.475 153.35 29.4728 153.333 29.4718C153.33 29.4718 153.327 29.4718 153.325 29.4718C153.31 29.4707 153.294 29.4696 153.279 29.4685C153.275 29.4674 153.271 29.4674 153.268 29.4674C153.254 29.4663 153.238 29.4652 153.224 29.4641C153.221 29.4641 153.216 29.4641 153.211 29.463C153.197 29.462 153.183 29.462 153.169 29.4609C153.165 29.4598 153.162 29.4598 153.158 29.4598C153.141 29.4587 153.124 29.4576 153.107 29.4565C153.107 29.4565 153.107 29.4565 153.105 29.4565C153.068 29.4532 153.03 29.4511 152.993 29.4489C152.974 29.4478 152.957 29.4467 152.938 29.4445C152.937 29.4445 152.934 29.4445 152.931 29.4445C152.915 29.4435 152.899 29.4424 152.884 29.4413C152.881 29.4413 152.879 29.4413 152.876 29.4413C152.859 29.4402 152.842 29.4391 152.826 29.438C152.825 29.438 152.823 29.438 152.821 29.438C152.746 29.4326 152.673 29.4282 152.597 29.4239H152.595C152.537 29.4206 152.481 29.4173 152.423 29.4141C156.284 29.6263 159.982 30.2458 163.426 31.2114V31.2114ZM152.422 29.4141C152.342 29.4097 152.263 29.4053 152.182 29.4021C152.263 29.4053 152.341 29.4097 152.422 29.4141ZM152.177 29.401C152.163 29.401 152.147 29.3999 152.133 29.3988C152.147 29.3999 152.163 29.401 152.177 29.401ZM152.129 29.3988C152.066 29.3955 152.005 29.3934 151.944 29.3901C152.005 29.3934 152.066 29.3955 152.129 29.3988ZM151.934 29.3901C151.919 29.389 151.907 29.3879 151.893 29.3879C151.907 29.3879 151.919 29.389 151.934 29.3901ZM151.882 29.3879C151.868 29.3868 151.856 29.3857 151.841 29.3857C151.856 29.3857 151.87 29.3868 151.882 29.3879ZM151.84 29.3857C151.795 29.3836 151.748 29.3814 151.704 29.3792C151.748 29.3814 151.795 29.3836 151.84 29.3857ZM151.69 29.3792C151.679 29.3781 151.667 29.3781 151.654 29.3781C151.667 29.3781 151.679 29.3781 151.69 29.3792ZM151.637 29.377C151.625 29.376 151.612 29.3759 151.601 29.3759C151.614 29.3759 151.625 29.376 151.637 29.377ZM151.587 29.3749C151.548 29.3738 151.508 29.3716 151.467 29.3705C151.506 29.3716 151.548 29.3738 151.587 29.3749ZM151.447 29.3694C151.436 29.3694 151.425 29.3683 151.414 29.3683C151.425 29.3683 151.437 29.3694 151.447 29.3694ZM151.394 29.3672C151.383 29.3672 151.372 29.3672 151.361 29.3662C151.372 29.3672 151.383 29.3672 151.394 29.3672ZM151.337 29.3662C151.328 29.3651 151.317 29.3651 151.308 29.3651C151.317 29.3651 151.33 29.3651 151.337 29.3662ZM151.288 29.364C151.269 29.3629 151.249 29.3629 151.228 29.3618C151.249 29.3629 151.269 29.3629 151.288 29.364ZM151.205 29.3618C151.195 29.3607 151.185 29.3607 151.175 29.3607C151.185 29.3607 151.195 29.3607 151.205 29.3618ZM151.15 29.3596C151.139 29.3596 151.131 29.3585 151.121 29.3585C151.131 29.3585 151.139 29.3596 151.15 29.3596ZM151.094 29.3574C151.085 29.3574 151.075 29.3574 151.066 29.3574C151.075 29.3574 151.086 29.3574 151.094 29.3574ZM151.038 29.3564C151.022 29.3553 151.007 29.3553 150.991 29.3553C151.007 29.3553 151.022 29.3553 151.038 29.3564ZM150.963 29.3542C150.954 29.3542 150.943 29.3531 150.933 29.3531C150.943 29.3531 150.954 29.3542 150.963 29.3542ZM150.907 29.352C150.897 29.352 150.89 29.352 150.88 29.352C150.89 29.352 150.897 29.352 150.907 29.352ZM150.852 29.3509C150.843 29.3509 150.833 29.3509 150.824 29.3498C150.833 29.3509 150.843 29.3509 150.852 29.3509ZM150.794 29.3498C150.787 29.3498 150.779 29.3487 150.771 29.3487C150.779 29.3487 150.787 29.3498 150.794 29.3498ZM150.72 29.3476C150.712 29.3476 150.704 29.3476 150.695 29.3476C150.702 29.3476 150.712 29.3476 150.72 29.3476ZM150.663 29.3466C150.654 29.3466 150.646 29.3466 150.638 29.3455C150.646 29.3466 150.654 29.3466 150.663 29.3466ZM150.609 29.3455C150.601 29.3455 150.592 29.3455 150.582 29.3444C150.592 29.3455 150.599 29.3455 150.609 29.3455ZM150.551 29.3444C150.543 29.3444 150.535 29.3433 150.529 29.3433C150.537 29.3433 150.543 29.3444 150.551 29.3444ZM150.476 29.3422C150.47 29.3422 150.464 29.3422 150.459 29.3422C150.465 29.3422 150.47 29.3422 150.476 29.3422ZM150.42 29.3411C150.412 29.3411 150.404 29.3411 150.398 29.3411C150.406 29.3411 150.412 29.3411 150.42 29.3411ZM150.364 29.3411C150.356 29.34 150.35 29.34 150.342 29.34C150.35 29.34 150.356 29.34 150.364 29.3411ZM150.308 29.34C150.301 29.34 150.292 29.3389 150.286 29.3389C150.294 29.3389 150.3 29.34 150.308 29.34ZM150.244 29.3389C150.236 29.3389 150.228 29.3389 150.222 29.3389C150.228 29.3389 150.236 29.3389 150.244 29.3389ZM150.177 29.3378C150.17 29.3378 150.162 29.3378 150.156 29.3378C150.162 29.3378 150.17 29.3378 150.177 29.3378ZM150.12 29.3368C150.114 29.3368 150.106 29.3368 150.099 29.3368C150.106 29.3368 150.113 29.3368 150.12 29.3368ZM150.063 29.3368C150.056 29.3368 150.05 29.3368 150.044 29.3368C150.05 29.3368 150.056 29.3368 150.063 29.3368ZM150 29.3357C149.996 29.3357 149.992 29.3357 149.988 29.3357C149.992 29.3357 149.996 29.3357 150 29.3357ZM149.933 29.3346C149.927 29.3346 149.922 29.3346 149.919 29.3346C149.924 29.3346 149.927 29.3346 149.933 29.3346ZM149.875 29.3346C149.869 29.3346 149.863 29.3346 149.857 29.3346C149.863 29.3346 149.871 29.3346 149.875 29.3346ZM149.819 29.3346C149.813 29.3346 149.807 29.3346 149.8 29.3346C149.807 29.3346 149.813 29.3346 149.819 29.3346ZM149.76 29.3335C149.755 29.3335 149.749 29.3335 149.744 29.3335C149.749 29.3335 149.755 29.3335 149.76 29.3335ZM149.688 29.3335C149.685 29.3335 149.682 29.3335 149.677 29.3335C149.68 29.3335 149.685 29.3335 149.688 29.3335ZM149.634 29.3335C149.63 29.3335 149.626 29.3335 149.623 29.3335C149.621 29.3335 149.619 29.3335 149.619 29.3335C149.624 29.3335 149.629 29.3335 149.634 29.3335V29.3335ZM149.576 29.3335C149.574 29.3335 149.571 29.3335 149.568 29.3335C149.565 29.3335 149.563 29.3335 149.56 29.3335C149.566 29.3335 149.571 29.3335 149.576 29.3335ZM149.518 29.3335C149.516 29.3335 149.513 29.3335 149.51 29.3335C149.509 29.3335 149.506 29.3335 149.502 29.3335C149.509 29.3335 149.512 29.3335 149.518 29.3335Z" fill="#E3E4E4"/>
<path d="M163.424 31.2124C160.809 30.4786 158.047 29.9441 155.181 29.6371C158.047 29.9441 160.809 30.4776 163.426 31.2113L163.424 31.2124ZM155.175 29.636C155.159 29.6349 155.142 29.6328 155.126 29.6317C155.142 29.6328 155.157 29.6349 155.175 29.636ZM155.118 29.6306C155.103 29.6284 155.089 29.6273 155.075 29.6251C155.089 29.6273 155.103 29.6284 155.118 29.6306ZM155.064 29.6251C155.047 29.623 155.03 29.6208 155.014 29.6197C155.03 29.6208 155.047 29.623 155.064 29.6251ZM155.011 29.6186C154.975 29.6154 154.939 29.6121 154.903 29.6077C154.939 29.6121 154.975 29.6154 155.011 29.6186ZM154.891 29.6066C154.877 29.6055 154.864 29.6045 154.852 29.6023C154.864 29.6045 154.878 29.6055 154.891 29.6066ZM154.833 29.6012C154.822 29.6001 154.81 29.599 154.799 29.5979C154.81 29.599 154.822 29.6001 154.833 29.6012ZM154.781 29.5957C154.769 29.5947 154.758 29.5936 154.746 29.5925C154.758 29.5936 154.769 29.5947 154.781 29.5957ZM154.727 29.5903C154.714 29.5892 154.702 29.5881 154.689 29.587C154.702 29.5881 154.714 29.5892 154.727 29.5903ZM154.675 29.5849C154.657 29.5838 154.641 29.5816 154.624 29.5805C154.641 29.5816 154.658 29.5838 154.675 29.5849ZM154.61 29.5794C154.597 29.5772 154.585 29.5762 154.572 29.5751C154.583 29.5762 154.597 29.5783 154.61 29.5794ZM154.55 29.5729C154.54 29.5729 154.53 29.5718 154.521 29.5707C154.53 29.5718 154.54 29.5729 154.55 29.5729ZM154.496 29.5685C154.487 29.5674 154.477 29.5664 154.468 29.5653C154.477 29.5664 154.487 29.5674 154.496 29.5685ZM154.444 29.5631C154.435 29.562 154.424 29.562 154.413 29.5609C154.424 29.562 154.435 29.562 154.444 29.5631ZM154.391 29.5587C154.382 29.5577 154.371 29.5566 154.36 29.5555C154.371 29.5566 154.382 29.5577 154.391 29.5587ZM154.329 29.5533C154.316 29.5511 154.304 29.55 154.29 29.5489C154.304 29.55 154.316 29.5511 154.329 29.5533ZM154.267 29.5468C154.257 29.5468 154.248 29.5457 154.238 29.5446C154.248 29.5457 154.257 29.5468 154.267 29.5468ZM154.215 29.5424C154.206 29.5413 154.195 29.5413 154.185 29.5402C154.195 29.5413 154.206 29.5413 154.215 29.5424ZM154.162 29.5381C154.153 29.537 154.143 29.5359 154.134 29.5359C154.143 29.5359 154.153 29.537 154.162 29.5381ZM154.109 29.5337C154.1 29.5326 154.09 29.5315 154.081 29.5304C154.09 29.5315 154.1 29.5326 154.109 29.5337ZM154.057 29.5293C154.043 29.5272 154.029 29.5261 154.015 29.525C154.029 29.5261 154.043 29.5272 154.057 29.5293ZM153.995 29.5239C153.981 29.5228 153.968 29.5217 153.954 29.5206C153.968 29.5217 153.981 29.5228 153.995 29.5239ZM153.934 29.5185C153.923 29.5174 153.914 29.5163 153.903 29.5163C153.914 29.5163 153.923 29.5174 153.934 29.5185ZM153.88 29.5141C153.87 29.513 153.861 29.5119 153.85 29.5119C153.861 29.5119 153.87 29.513 153.88 29.5141ZM153.826 29.5098C153.817 29.5087 153.806 29.5076 153.797 29.5076C153.806 29.5076 153.817 29.5087 153.826 29.5098ZM153.775 29.5054C153.764 29.5043 153.753 29.5032 153.741 29.5032C153.753 29.5032 153.762 29.5043 153.775 29.5054ZM153.723 29.501C153.705 29.4999 153.688 29.4989 153.67 29.4967C153.686 29.4989 153.705 29.4999 153.723 29.501ZM153.661 29.4967C153.647 29.4956 153.633 29.4945 153.617 29.4934C153.633 29.4945 153.647 29.4956 153.661 29.4967ZM153.6 29.4912C153.589 29.4912 153.577 29.4902 153.564 29.4891C153.577 29.4902 153.589 29.4912 153.6 29.4912ZM153.547 29.488C153.533 29.4869 153.524 29.4858 153.511 29.4847C153.524 29.4858 153.533 29.4869 153.547 29.488ZM153.493 29.4836C153.482 29.4825 153.468 29.4814 153.457 29.4804C153.468 29.4814 153.482 29.4825 153.493 29.4836ZM153.439 29.4793C153.422 29.4782 153.408 29.4771 153.391 29.476C153.408 29.4771 153.422 29.4782 153.439 29.4793ZM153.386 29.476C153.369 29.4749 153.351 29.4727 153.333 29.4716C153.351 29.4727 153.369 29.4749 153.386 29.476ZM153.326 29.4716C153.31 29.4706 153.294 29.4695 153.279 29.4684C153.294 29.4695 153.31 29.4706 153.326 29.4716ZM153.268 29.4673C153.254 29.4662 153.238 29.4651 153.224 29.464C153.238 29.4651 153.254 29.4662 153.268 29.4673ZM153.212 29.4629C153.198 29.4618 153.184 29.4619 153.17 29.4608C153.184 29.4619 153.198 29.4618 153.212 29.4629ZM153.159 29.4597C153.141 29.4586 153.124 29.4575 153.107 29.4564C153.124 29.4575 153.141 29.4586 153.159 29.4597ZM153.106 29.4564C153.068 29.4531 153.031 29.451 152.993 29.4488C153.031 29.451 153.068 29.4531 153.106 29.4564ZM152.993 29.4488C152.975 29.4477 152.957 29.4466 152.939 29.4444C152.957 29.4466 152.975 29.4477 152.993 29.4488ZM152.931 29.4444C152.915 29.4433 152.9 29.4422 152.884 29.4412C152.9 29.4422 152.915 29.4433 152.931 29.4444ZM152.876 29.4412C152.859 29.4401 152.842 29.439 152.826 29.4379C152.842 29.439 152.859 29.4401 152.876 29.4412ZM152.822 29.4379C152.747 29.4325 152.672 29.4281 152.597 29.4237C152.673 29.4281 152.747 29.4325 152.822 29.4379ZM152.595 29.4237C151.631 29.3682 150.659 29.3377 149.677 29.3334C149.682 29.3334 149.685 29.3334 149.688 29.3334C149.707 29.3334 149.726 29.3334 149.744 29.3334C149.749 29.3334 149.755 29.3334 149.76 29.3334C149.774 29.3334 149.788 29.3334 149.801 29.3345C149.807 29.3345 149.813 29.3345 149.819 29.3345C149.832 29.3345 149.844 29.3345 149.857 29.3345C149.863 29.3345 149.869 29.3345 149.876 29.3345C149.891 29.3345 149.905 29.3345 149.919 29.3345C149.922 29.3345 149.927 29.3345 149.933 29.3345C149.95 29.3356 149.969 29.3356 149.988 29.3356C149.993 29.3356 149.996 29.3356 150 29.3356C150.016 29.3356 150.03 29.3356 150.044 29.3367C150.05 29.3367 150.057 29.3367 150.063 29.3367C150.075 29.3367 150.088 29.3367 150.099 29.3367C150.107 29.3367 150.114 29.3367 150.121 29.3367C150.133 29.3367 150.146 29.3377 150.156 29.3377C150.163 29.3377 150.17 29.3377 150.177 29.3377C150.192 29.3377 150.206 29.3377 150.222 29.3388C150.228 29.3388 150.236 29.3388 150.244 29.3388C150.258 29.3388 150.272 29.3388 150.286 29.3388C150.292 29.3388 150.302 29.3399 150.308 29.3399C150.319 29.3399 150.331 29.3399 150.342 29.3399C150.35 29.3399 150.356 29.3399 150.364 29.341C150.375 29.341 150.387 29.341 150.398 29.341C150.405 29.341 150.412 29.341 150.42 29.341C150.434 29.3421 150.445 29.3421 150.459 29.3421C150.464 29.3421 150.47 29.3421 150.476 29.3421C150.493 29.3432 150.511 29.3432 150.529 29.3432C150.536 29.3432 150.543 29.3443 150.551 29.3443C150.562 29.3443 150.572 29.3443 150.582 29.3443C150.592 29.3454 150.601 29.3454 150.609 29.3454C150.618 29.3454 150.628 29.3454 150.639 29.3454C150.646 29.3464 150.654 29.3465 150.664 29.3465C150.674 29.3465 150.684 29.3465 150.695 29.3475C150.704 29.3475 150.712 29.3475 150.72 29.3475C150.735 29.3486 150.754 29.3486 150.771 29.3486C150.779 29.3486 150.787 29.3497 150.795 29.3497C150.804 29.3497 150.815 29.3497 150.824 29.3497C150.834 29.3508 150.843 29.3508 150.852 29.3508C150.86 29.3508 150.871 29.3519 150.88 29.3519C150.89 29.3519 150.898 29.3519 150.907 29.3519C150.916 29.353 150.926 29.353 150.934 29.353C150.943 29.353 150.954 29.3541 150.963 29.3541C150.971 29.3541 150.98 29.3541 150.991 29.3552C151.007 29.3552 151.022 29.3552 151.038 29.3562C151.049 29.3562 151.058 29.3563 151.066 29.3573C151.076 29.3573 151.085 29.3573 151.094 29.3573C151.104 29.3584 151.111 29.3584 151.121 29.3584C151.132 29.3584 151.139 29.3595 151.15 29.3595C151.158 29.3595 151.168 29.3595 151.175 29.3606C151.185 29.3606 151.196 29.3606 151.205 29.3617C151.213 29.3617 151.219 29.3617 151.228 29.3617C151.249 29.3628 151.269 29.3628 151.288 29.3639C151.294 29.3639 151.3 29.3639 151.308 29.365C151.317 29.365 151.328 29.365 151.338 29.366C151.345 29.366 151.353 29.366 151.361 29.366C151.372 29.3671 151.383 29.3671 151.394 29.3671C151.402 29.3682 151.406 29.3682 151.414 29.3682C151.425 29.3682 151.436 29.3693 151.447 29.3693C151.455 29.3693 151.461 29.3704 151.467 29.3704C151.508 29.3715 151.548 29.3737 151.587 29.3748C151.594 29.3748 151.597 29.3748 151.601 29.3758C151.612 29.3758 151.625 29.3758 151.637 29.3769C151.643 29.3769 151.648 29.3769 151.654 29.378C151.667 29.378 151.679 29.378 151.69 29.3791C151.697 29.3791 151.7 29.3791 151.704 29.3791C151.748 29.3813 151.795 29.3835 151.84 29.3856H151.842C151.856 29.3856 151.868 29.3867 151.882 29.3878C151.887 29.3878 151.89 29.3878 151.893 29.3878C151.907 29.3878 151.92 29.3889 151.934 29.39C151.938 29.39 151.94 29.39 151.945 29.39C152.005 29.3933 152.066 29.3954 152.129 29.3987C152.13 29.3987 152.132 29.3987 152.133 29.3987C152.147 29.3998 152.163 29.4009 152.177 29.4009C152.18 29.4009 152.182 29.4009 152.182 29.402C152.263 29.4052 152.343 29.4096 152.422 29.4139C152.422 29.4139 152.422 29.4139 152.424 29.4139C152.481 29.4172 152.538 29.4205 152.595 29.4237V29.4237ZM148.415 29.3421C148.743 29.3367 149.069 29.3334 149.4 29.3334C149.069 29.3334 148.743 29.3367 148.415 29.3421ZM149.671 29.3334C149.656 29.3334 149.64 29.3334 149.623 29.3334C149.626 29.3334 149.631 29.3334 149.634 29.3334C149.646 29.3334 149.659 29.3334 149.671 29.3334ZM149.612 29.3334C149.598 29.3334 149.582 29.3334 149.568 29.3334C149.571 29.3334 149.574 29.3334 149.576 29.3334C149.588 29.3334 149.601 29.3334 149.612 29.3334ZM149.554 29.3334C149.54 29.3334 149.526 29.3334 149.51 29.3334C149.514 29.3334 149.517 29.3334 149.518 29.3334C149.531 29.3334 149.543 29.3334 149.554 29.3334ZM149.5 29.3334C149.481 29.3323 149.462 29.3323 149.443 29.3323C149.445 29.3323 149.445 29.3323 149.445 29.3323C149.464 29.3323 149.481 29.3323 149.5 29.3334Z" fill="#D7D7D7"/>
<path d="M118.111 82.1855C117.303 81.7232 116.517 81.2431 115.754 80.7467C116.517 81.2425 117.306 81.7235 118.113 82.1855H118.111" fill="#D7D7D7"/>
<path d="M118.111 82.1855C117.305 81.7235 116.516 81.2425 115.752 80.7467C114.99 80.2507 114.251 79.7385 113.536 79.2107L121.992 73.3229C122.615 73.7889 123.261 74.2394 123.931 74.6729C124.728 75.2714 125.567 75.8432 126.44 76.3874L118.111 82.1855Z" fill="#E5EAE9"/>
<path d="M126.625 76.2598C126.359 76.1176 126.096 75.973 125.837 75.8259C126.098 75.9728 126.359 76.1172 126.625 76.2591V76.2598Z" fill="#E3E4E4"/>
<path d="M126.442 76.3872C125.568 75.843 124.731 75.2711 123.933 74.6727C124.001 74.7169 124.069 74.7609 124.139 74.8048C124.937 75.3141 125.767 75.7999 126.625 76.2601L126.442 76.3872" fill="#F0F2F2"/>
<path d="M126.624 76.2603C125.765 75.8 124.935 75.3142 124.137 74.805C124.69 75.157 125.256 75.4976 125.838 75.8259C126.096 75.9729 126.359 76.1175 126.625 76.2597L126.624 76.2603" fill="#EFF0EF"/>
<path d="M179.436 39.4883C178.646 38.869 177.817 38.2759 176.949 37.7115C176.338 37.2524 175.706 36.809 175.051 36.3814L183.507 30.492C185.018 31.4941 186.441 32.5639 187.761 33.6918L179.436 39.4883" fill="#E5EAE9"/>
<path d="M176.947 37.7124C176.944 37.7103 176.94 37.7085 176.939 37.7064C176.331 37.25 175.7 36.8086 175.047 36.3829L175.049 36.3824C175.705 36.81 176.337 37.2533 176.947 37.7124" fill="#E3E4E4"/>
<path d="M179.249 39.6177C178.524 38.9569 177.756 38.3209 176.947 37.7119C177.816 38.2764 178.645 38.8694 179.435 39.4888L179.249 39.6177" fill="#F0F2F2"/>
<path d="M179.249 39.6182C178.524 38.9547 177.752 38.3166 176.94 37.7056C176.942 37.7076 176.945 37.7094 176.948 37.7115C177.757 38.3205 178.526 38.9566 179.25 39.6172L179.249 39.6182Z" fill="#EFF0EF"/>
<path d="M126.89 86.2051C124.41 85.3153 122.052 84.2864 119.837 83.1291V83.1282C122.054 84.2855 124.411 85.3153 126.891 86.2041L126.89 86.2051Z" fill="#D7D7D7"/>
<path d="M126.89 86.2046C124.41 85.3158 122.052 84.286 119.836 83.1287L128.112 77.3675C130.278 78.5667 132.642 79.6025 135.16 80.4473L126.89 86.2046V86.2046ZM135.93 79.9108C135.835 79.885 135.738 79.8587 135.643 79.8323C135.738 79.8586 135.835 79.8851 135.93 79.9108Z" fill="#E5EAE9"/>
<path d="M135.931 79.9106C135.836 79.8849 135.739 79.8585 135.644 79.8322C135.316 79.7415 134.99 79.6477 134.667 79.5508C135.085 79.6759 135.506 79.7958 135.932 79.9105L135.931 79.9106" fill="#E3E4E4"/>
<path d="M135.16 80.4473C132.641 79.6024 130.278 78.5666 128.111 77.3675L128.408 77.1605C130.22 78.0179 132.143 78.7678 134.161 79.3967C134.167 79.3984 134.171 79.3998 134.176 79.4015C134.188 79.4051 134.199 79.4087 134.211 79.4122C134.226 79.417 134.242 79.4216 134.256 79.4263C134.258 79.4271 134.261 79.4277 134.263 79.4283C134.718 79.569 135.178 79.7041 135.643 79.8323C135.738 79.8587 135.835 79.8849 135.93 79.9107L135.16 80.4473" fill="#F0F2F2"/>
<path d="M135.645 79.832C135.18 79.7038 134.719 79.5687 134.264 79.4281C134.398 79.4694 134.533 79.5104 134.668 79.5506C134.991 79.6475 135.317 79.7414 135.645 79.832V79.832ZM134.258 79.4261C134.244 79.4214 134.228 79.4168 134.213 79.412C134.228 79.4168 134.244 79.4214 134.258 79.4261ZM134.178 79.4014C134.173 79.3996 134.169 79.3982 134.162 79.3965C134.167 79.3982 134.173 79.3997 134.178 79.4014Z" fill="#EFF0EF"/>
<path d="M192.547 38.5835C191.528 37.3211 190.398 36.1084 189.165 34.951C190.399 36.1076 191.528 37.3207 192.547 38.5835Z" fill="#F8F9F9"/>
<path d="M185.238 45.5796C184.032 43.8213 182.552 42.1711 180.839 40.657L189.11 34.8977C189.129 34.9153 189.148 34.9329 189.166 34.9506C190.399 36.108 191.528 37.3207 192.547 38.5831C192.877 38.9916 193.195 39.4052 193.502 39.8239L185.238 45.5796Z" fill="#E5EAE9"/>
<path d="M184.463 46.1187C184.368 45.9464 184.272 45.7751 184.171 45.6045C184.272 45.7747 184.368 45.9466 184.463 46.1185V46.1187ZM184.164 45.5912C184.162 45.5875 184.159 45.5838 184.157 45.58C184.159 45.5841 184.161 45.5872 184.164 45.5912Z" fill="#E3E4E4"/>
<path d="M184.463 46.1182C183.438 44.256 182.115 42.4952 180.539 40.8661L180.839 40.6568C182.553 42.171 184.031 43.8212 185.237 45.5794L184.463 46.1182Z" fill="#F0F2F2"/>
<path d="M184.461 46.119C184.368 45.947 184.27 45.7753 184.169 45.6051C184.167 45.6005 184.164 45.5962 184.162 45.5917C184.159 45.5877 184.157 45.5846 184.155 45.5806C183.179 43.9166 181.963 42.3389 180.537 40.8667L180.538 40.8666C182.115 42.4956 183.437 44.2564 184.463 46.1187L184.461 46.1191" fill="#EFF0EF"/>
<path d="M142.581 89.6646C140.735 89.486 138.92 89.2363 137.144 88.9185C138.92 89.2354 140.736 89.486 142.581 89.6646Z" fill="#D7D7D7"/>
<path d="M142.583 89.6646C140.737 89.4858 138.922 89.2353 137.146 88.9184L146.006 82.7494C147.764 82.9262 149.56 83.0169 151.389 83.0169C151.638 83.0169 151.887 83.0151 152.136 83.0115L142.583 89.6646ZM148.17 81.6456C147.985 81.6412 147.8 81.6361 147.614 81.6297H147.615C147.785 81.6354 147.955 81.6404 148.125 81.6444C148.14 81.6448 148.156 81.6451 148.17 81.6456" fill="#E5EAE9"/>
<path d="M149.497 81.6602C149.502 81.6602 149.506 81.6602 149.512 81.6602C149.506 81.6602 149.502 81.6602 149.497 81.6602ZM149.562 81.6601C149.566 81.6601 149.571 81.6599 149.575 81.6599C149.569 81.6599 149.568 81.6601 149.562 81.6601ZM149.614 81.6598C149.62 81.6598 149.628 81.6598 149.634 81.6597C149.628 81.6598 149.62 81.6598 149.614 81.6598ZM149.673 81.6597C149.684 81.6596 149.696 81.6596 149.708 81.6595C149.697 81.6596 149.684 81.6596 149.673 81.6597ZM149.727 81.6594C151.309 81.6512 152.87 81.5742 154.402 81.4332C152.87 81.5747 151.309 81.6512 149.727 81.6594ZM148.124 81.6442C147.954 81.6401 147.784 81.6352 147.614 81.6295V81.6289C147.784 81.635 147.954 81.64 148.124 81.6442Z" fill="#E3E4E4"/>
<path d="M151.387 83.0166C149.559 83.0166 147.765 82.9259 146.007 82.7491L147.614 81.6294C147.799 81.6357 147.984 81.641 148.17 81.6453C148.591 81.6553 149.017 81.6601 149.443 81.6601C149.444 81.6601 149.444 81.6601 149.444 81.6601C149.462 81.6601 149.479 81.6601 149.497 81.6601C149.5 81.6601 149.509 81.6601 149.514 81.6601C149.527 81.66 149.541 81.66 149.554 81.66C149.565 81.66 149.574 81.6599 149.584 81.6599C149.593 81.6599 149.601 81.6599 149.61 81.6598C149.62 81.6598 149.629 81.6598 149.64 81.6596C149.64 81.6596 149.641 81.6596 149.643 81.6596C151.255 81.654 152.844 81.577 154.402 81.4336L152.135 83.0112C151.885 83.0148 151.637 83.0166 151.387 83.0166" fill="#F0F2F2"/>
<path d="M149.444 81.6602C149.444 81.6602 149.444 81.6602 149.446 81.6602C149.444 81.6602 149.444 81.6602 149.444 81.6602ZM149.497 81.6602C149.502 81.6602 149.506 81.6602 149.512 81.6602H149.514C149.509 81.6602 149.5 81.6602 149.497 81.6602ZM149.554 81.6601C149.557 81.6601 149.559 81.6601 149.562 81.6601C149.568 81.6601 149.569 81.6599 149.575 81.6599C149.577 81.6599 149.581 81.6599 149.584 81.6599C149.574 81.6599 149.565 81.6601 149.554 81.6601ZM149.61 81.6598C149.611 81.6598 149.611 81.6598 149.614 81.6598C149.62 81.6598 149.628 81.6598 149.634 81.6597C149.637 81.6597 149.638 81.6597 149.64 81.6597C149.629 81.6598 149.62 81.6598 149.61 81.6598V81.6598ZM149.643 81.6597C149.654 81.6597 149.663 81.6597 149.673 81.6597C149.684 81.6596 149.697 81.6596 149.708 81.6595C149.714 81.6595 149.72 81.6594 149.727 81.6594C151.309 81.6512 152.87 81.5747 154.402 81.4336V81.4337C152.844 81.5771 151.255 81.6541 149.643 81.6597" fill="#EFF0EF"/>
<path d="M188.879 57.4272C188.884 57.2369 188.887 57.0454 188.887 56.8541C188.887 55.5977 188.76 54.3618 188.515 53.1527L197.371 46.9856C197.822 48.224 198.177 49.4895 198.427 50.7783V50.7801L188.879 57.4272" fill="#E5EAE9"/>
<path d="M186.606 59.0088C186.811 57.9518 186.924 56.8736 186.941 55.7784C186.924 56.8729 186.811 57.9491 186.608 59.0074L186.606 59.0088ZM186.941 55.7708C186.941 55.7584 186.941 55.746 186.941 55.7338C186.941 55.746 186.941 55.7584 186.941 55.7708ZM186.941 55.7169C186.941 55.7108 186.941 55.7046 186.942 55.6987C186.941 55.7048 186.941 55.7106 186.941 55.7169ZM186.942 55.6779C186.942 55.6715 186.942 55.665 186.942 55.6586C186.942 55.6648 186.942 55.6717 186.942 55.6779ZM186.942 55.6304C186.942 55.626 186.942 55.6216 186.942 55.6174C186.942 55.6218 186.942 55.626 186.942 55.6304ZM186.942 55.5858C186.942 55.5842 186.942 55.5823 186.942 55.5806C186.942 55.5823 186.942 55.5841 186.942 55.5858ZM186.942 55.5443C186.942 55.541 186.942 55.5377 186.942 55.5343C186.942 55.5379 186.942 55.5409 186.942 55.5443ZM186.942 55.4585C186.942 55.0627 186.929 54.6686 186.901 54.2763L186.903 54.275C186.929 54.6673 186.942 55.0618 186.942 55.4585" fill="#E3E4E4"/>
<path d="M186.609 59.0073C186.829 57.8598 186.944 56.6875 186.944 55.4978C186.944 55.0877 186.93 54.6806 186.904 54.2751L188.514 53.1532C188.76 54.3622 188.887 55.5981 188.887 56.8545C188.887 57.0457 188.885 57.2373 188.878 57.4278L186.609 59.0073Z" fill="#F0F2F2"/>
<path d="M186.608 59.0078C186.811 57.9496 186.925 56.8732 186.941 55.7788C186.941 55.7763 186.941 55.7737 186.941 55.7712C186.941 55.7588 186.941 55.7465 186.941 55.7342C186.941 55.7285 186.941 55.7229 186.941 55.7172C186.941 55.711 186.941 55.7052 186.943 55.6991C186.943 55.6921 186.943 55.6852 186.943 55.6783C186.943 55.672 186.943 55.6651 186.943 55.659C186.943 55.6495 186.943 55.6403 186.943 55.6309C186.943 55.6265 186.943 55.6222 186.943 55.6178C186.943 55.6072 186.943 55.5967 186.943 55.5863C186.943 55.5845 186.943 55.5826 186.943 55.5809C186.943 55.5688 186.943 55.5568 186.943 55.5447C186.943 55.5413 186.943 55.5382 186.943 55.5346C186.943 55.5223 186.943 55.5099 186.943 55.4974C186.943 55.4846 186.943 55.4716 186.943 55.4589C186.943 55.0621 186.929 54.6677 186.903 54.2754L186.905 54.2748C186.931 54.6804 186.944 55.0873 186.944 55.4974C186.944 56.6871 186.83 57.8594 186.61 59.0071L186.608 59.0078Z" fill="#EFF0EF"/>
<path d="M168.286 66.5255L167.582 72.3408H136.202V66.6752C137.221 66.1335 138.909 65.2853 141.257 64.1308C146.998 61.2805 151.177 58.9322 153.791 57.0861C156.406 55.2404 157.713 53.5478 157.713 52.0086C157.713 50.8828 157.193 49.9526 156.151 49.2185C155.11 48.4843 153.71 48.1175 151.953 48.1175C147.868 48.1175 145.497 49.9774 144.845 53.6976L136.202 52.3507C138.142 45.9226 143.525 42.7083 152.351 42.7083C157.295 42.7083 161.089 43.6135 163.735 45.4234C166.381 47.2339 167.703 49.3931 167.703 51.9015C167.703 54.496 166.319 56.8117 163.552 58.85C160.784 60.8886 155.692 63.4469 148.275 66.5255H168.286" fill="#8F9295"/>
<path d="M166.041 65.2735L165.337 71.0889H133.956V65.423C134.979 64.8815 136.664 64.0332 139.015 62.8787C144.753 60.0284 148.932 57.6802 151.548 55.8341C154.161 53.9884 155.47 52.2958 155.47 50.7566C155.47 49.6308 154.948 48.7006 153.907 47.9665C152.865 47.2323 151.464 46.8654 149.708 46.8654C145.622 46.8654 143.252 48.7254 142.6 52.4456L133.956 51.0986C135.897 44.6707 141.282 41.4563 150.107 41.4563C155.052 41.4563 158.845 42.3616 161.49 44.1713C164.135 45.9819 165.46 48.141 165.46 50.6496C165.46 53.2439 164.075 55.5599 161.307 57.598C158.539 59.6365 153.447 62.1947 146.03 65.2735H166.041" fill="#C2D1D1"/>
<path d="M134.698 51.2153L133.959 51.0994C133.959 51.0994 133.959 51.0995 133.959 51.0985L134.701 51.2144L134.698 51.2153Z" fill="#E3E4E4"/>
<path d="M134.699 51.2144L133.957 51.0987C135.788 45.0289 140.693 41.8222 148.669 41.4879L134.699 51.2144" fill="#E5EAE9"/>
<path d="M150.075 56.8213C150.61 56.4776 151.101 56.1485 151.544 55.8339C154.161 53.9898 155.467 52.2959 155.467 50.7554C155.467 50.5174 155.445 50.2857 155.395 50.0665L155.398 50.0645C155.445 50.2864 155.47 50.5171 155.47 50.7567C155.47 52.2959 154.161 53.9885 151.547 55.8341C151.103 56.1486 150.61 56.4776 150.075 56.8213" fill="#E3E4E4"/>
<path d="M165.165 48.6733C165.165 48.6731 165.165 48.6727 165.165 48.6725C165.165 48.6727 165.165 48.6731 165.165 48.6733ZM165.16 48.6565C165.159 48.6532 165.157 48.6502 165.157 48.6468C165.157 48.6501 165.159 48.6533 165.16 48.6565ZM165.154 48.6414C165.154 48.6375 165.152 48.6334 165.151 48.6295C165.152 48.6334 165.154 48.6375 165.154 48.6414ZM165.151 48.6285C165.069 48.3758 164.973 48.1273 164.862 47.8828C164.973 48.1273 165.069 48.3758 165.151 48.6285ZM164.862 47.8823C164.86 47.8788 164.857 47.8755 164.855 47.872C164.857 47.8755 164.86 47.8789 164.862 47.8823ZM164.852 47.8639C164.851 47.862 164.851 47.86 164.849 47.8582C164.851 47.86 164.851 47.862 164.852 47.8639Z" fill="#D7D7D7"/>
<path d="M134.054 71.0869H133.959V65.4229C134.977 64.8814 136.665 64.033 139.017 62.8775C143.78 60.5135 147.467 58.4945 150.076 56.8202C150.611 56.4765 151.103 56.1475 151.548 55.8331C154.162 53.9874 155.472 52.2948 155.472 50.7556C155.472 50.516 155.446 50.2853 155.399 50.0634L162.623 45.0372C163.637 45.9057 164.38 46.8457 164.849 47.8576C164.85 47.8595 164.851 47.8613 164.852 47.8633C164.854 47.8659 164.855 47.8687 164.857 47.8714C164.857 47.8749 164.86 47.8782 164.861 47.8816C164.861 47.8819 164.861 47.8821 164.861 47.8823C164.973 48.1267 165.069 48.3752 165.151 48.6279C165.151 48.6282 165.151 48.6285 165.151 48.6289C165.152 48.6328 165.154 48.6369 165.154 48.6408C165.155 48.6427 165.155 48.6446 165.157 48.6462C165.157 48.6496 165.159 48.6526 165.16 48.6559C165.162 48.6611 165.163 48.6665 165.165 48.6719C165.165 48.6721 165.165 48.6725 165.165 48.6728C165.231 48.8826 165.284 49.0952 165.328 49.3108L134.054 71.0869Z" fill="#E5EAE9"/>
<path d="M146.097 65.2466C150.87 63.2635 154.675 61.4965 157.517 59.9459C154.677 61.4973 150.871 63.2637 146.097 65.2466ZM162.572 56.5609V56.5606C162.572 56.5608 162.572 56.5608 162.572 56.5609ZM162.573 56.5594C164.275 54.9881 165.225 53.2656 165.421 51.3918L165.423 51.3912C165.228 53.2668 164.278 54.9899 162.573 56.5594" fill="#D7D7D7"/>
<path d="M148.602 71.0874H137.126L165.423 51.3906C165.224 53.265 164.274 54.9875 162.573 56.5588C162.573 56.5591 162.573 56.5597 162.571 56.56V56.5603C162.188 56.9134 161.765 57.2585 161.305 57.596C160.33 58.315 159.067 59.0981 157.517 59.9453C154.675 61.4959 150.869 63.2629 146.096 65.246C146.074 65.2551 146.052 65.2643 146.03 65.2733H156.954L148.602 71.0874" fill="#E5EAE9"/>
<path d="M165.336 71.0874H162.755L165.574 69.1245L165.336 71.0874Z" fill="#E5EAE9"/>
</svg>
