<svg width="1000" height="200" viewBox="0 0 1000 200" fill="none" xmlns="http://www.w3.org/2000/svg">
<path fill-rule="evenodd" clip-rule="evenodd" d="M26.8837 7.62109H978.936C990.576 7.62109 1000 14.2257 1000 22.3544V185.267C1000 193.396 990.576 200 978.936 200H26.8837C15.2428 200 5.81934 193.396 5.81934 185.267V22.3544C5.81934 14.2257 15.2428 7.62109 26.8837 7.62109Z" fill="black" fill-opacity="0.101961"/>
<path fill-rule="evenodd" clip-rule="evenodd" d="M21.0643 3.04834H973.116C984.757 3.04834 994.181 9.6529 994.181 17.7816V180.694C994.181 188.823 984.757 195.427 973.116 195.427H21.0643C9.42351 195.427 0 188.823 0 180.694V17.7816C0 9.6529 9.42351 3.04834 21.0643 3.04834Z" fill="#E6E6E6"/>
<path fill-rule="evenodd" clip-rule="evenodd" d="M21.0643 0H973.116C984.757 0 994.181 6.60456 994.181 14.7333V177.646C994.181 185.775 984.757 192.379 973.116 192.379H21.0643C9.42351 192.379 0 185.775 0 177.646V14.7333C0 6.60456 9.42351 0 21.0643 0Z" fill="white"/>
<path fill-rule="evenodd" clip-rule="evenodd" d="M34.0916 9.82275H962.862C973.671 9.82275 982.541 16.0886 982.541 23.7093V169.856C982.541 177.477 973.671 183.743 962.862 183.743H34.0916C23.2823 183.743 14.4131 177.477 14.4131 169.856V23.7093C14.4131 16.0886 23.2823 9.82275 34.0916 9.82275Z" fill="#E6E6E6"/>
<path fill-rule="evenodd" clip-rule="evenodd" d="M29.6561 7.95898H958.981C969.79 7.95898 978.382 14.2249 978.382 21.8455V165.96C978.382 173.581 969.79 179.847 958.981 179.847H29.6561C18.8467 179.847 9.97754 173.581 9.97754 165.96V21.8455C9.97754 14.2249 18.8467 7.95898 29.6561 7.95898Z" fill="#F1C383"/>
<path fill-rule="evenodd" clip-rule="evenodd" d="M29.3789 4.40332H954.823C965.356 4.40332 974.225 10.4998 974.225 17.9511V158.171C974.225 165.622 965.356 171.719 954.823 171.719H29.3789C18.5696 171.719 9.97754 165.622 9.97754 158.171V17.9511C9.97754 10.4998 18.5696 4.40332 29.3789 4.40332Z" fill="#FAEECC"/>
<path fill-rule="evenodd" clip-rule="evenodd" d="M32.4274 6.26562C338.692 6.26562 645.233 6.26562 951.774 6.26562C962.306 6.26562 970.621 12.1928 970.621 19.6441C970.621 65.1986 970.621 110.753 970.621 156.477C970.621 163.759 962.029 169.856 951.774 169.856C645.233 169.856 338.692 169.856 32.4274 169.856C21.8952 169.856 13.3032 163.759 13.3032 156.477C13.3032 110.753 13.3032 65.1986 13.3032 19.6441C13.3032 12.1928 21.8952 6.26562 32.4274 6.26562Z" fill="#FAEDC9"/>
<path fill-rule="evenodd" clip-rule="evenodd" d="M35.4759 7.95898C339.8 7.95898 644.124 7.95898 948.448 7.95898C958.98 7.95898 967.295 13.8862 967.295 21.1681C967.295 65.7066 967.295 110.245 967.295 154.784C967.295 162.065 958.98 167.993 948.448 167.993C644.124 167.993 339.8 167.993 35.4759 167.993C25.2209 167.993 16.6289 162.065 16.6289 154.784C16.6289 110.245 16.6289 65.7066 16.6289 21.1681C16.6289 13.8862 25.2209 7.95898 35.4759 7.95898Z" fill="#F9ECC6"/>
<path fill-rule="evenodd" clip-rule="evenodd" d="M38.5249 9.82275C340.909 9.82275 643.293 9.82275 945.399 9.82275C955.654 9.82275 963.969 15.7499 963.969 22.8625C963.969 66.3849 963.969 109.738 963.969 153.091C963.969 160.373 955.654 166.3 945.399 166.3C643.293 166.3 340.909 166.3 38.5249 166.3C28.2699 166.3 19.9551 160.373 19.9551 153.091C19.9551 109.738 19.9551 66.3849 19.9551 22.8625C19.9551 15.7499 28.2699 9.82275 38.5249 9.82275Z" fill="#F9EBC2"/>
<path fill-rule="evenodd" clip-rule="evenodd" d="M41.8506 11.6851C342.017 11.6851 642.184 11.6851 942.35 11.6851C952.328 11.6851 960.643 17.4429 960.643 24.5555C960.643 66.8924 960.643 109.229 960.643 151.566C960.643 158.679 952.328 164.437 942.35 164.437C642.184 164.437 342.017 164.437 41.8506 164.437C31.5956 164.437 23.2808 158.679 23.2808 151.566C23.2808 109.229 23.2808 66.8924 23.2808 24.5555C23.2808 17.4429 31.5956 11.6851 41.8506 11.6851Z" fill="#F8EABF"/>
<path fill-rule="evenodd" clip-rule="evenodd" d="M44.8996 13.3779C342.849 13.3779 641.075 13.3779 939.302 13.3779C949.28 13.3779 957.317 19.1358 957.317 26.079C957.317 67.3999 957.317 108.721 957.317 149.872C957.317 156.815 949.28 162.573 939.302 162.573C641.075 162.573 342.849 162.573 44.8996 162.573C34.9218 162.573 26.6069 156.815 26.6069 149.872C26.6069 108.721 26.6069 67.3999 26.6069 26.079C26.6069 19.1358 34.9218 13.3779 44.8996 13.3779Z" fill="#F8E9BC"/>
<path fill-rule="evenodd" clip-rule="evenodd" d="M47.9482 15.2417C343.957 15.2417 639.966 15.2417 935.976 15.2417C945.953 15.2417 953.991 20.8302 953.991 27.7734C953.991 67.9089 953.991 108.044 953.991 148.18C953.991 155.123 945.953 160.881 935.976 160.881C639.966 160.881 343.957 160.881 47.9482 160.881C38.2475 160.881 29.9326 155.123 29.9326 148.18C29.9326 108.044 29.9326 67.9089 29.9326 27.7734C29.9326 20.8302 37.9703 15.2417 47.9482 15.2417Z" fill="#F7E8B9"/>
<path fill-rule="evenodd" clip-rule="evenodd" d="M50.9973 17.1045C345.066 17.1045 639.135 17.1045 932.927 17.1045C942.628 17.1045 950.666 22.693 950.666 29.4669C950.666 68.4169 950.666 107.536 950.666 146.656C950.666 153.429 942.628 159.018 932.927 159.018C639.135 159.018 345.066 159.018 50.9973 159.018C41.2967 159.018 33.5361 153.429 33.5361 146.656C33.5361 107.536 33.5361 68.4169 33.5361 29.4669C33.5361 22.693 41.2967 17.1045 50.9973 17.1045Z" fill="#F7E7B6"/>
<path fill-rule="evenodd" clip-rule="evenodd" d="M54.3225 18.7974C346.174 18.7974 638.026 18.7974 929.878 18.7974C939.301 18.7974 947.339 24.3858 947.339 31.1598C947.339 69.0937 947.339 107.028 947.339 144.961C947.339 151.735 939.301 157.154 929.878 157.154C638.026 157.154 346.174 157.154 54.3225 157.154C44.6219 157.154 36.8613 151.735 36.8613 144.961C36.8613 107.028 36.8613 69.0937 36.8613 31.1598C36.8613 24.3858 44.6219 18.7974 54.3225 18.7974Z" fill="#F6E6B3"/>
<path fill-rule="evenodd" clip-rule="evenodd" d="M57.3716 20.6602C347.006 20.6602 636.918 20.6602 926.829 20.6602C936.253 20.6602 944.013 26.0793 944.013 32.6838C944.013 69.6017 944.013 106.519 944.013 143.268C944.013 150.042 936.253 155.461 926.829 155.461C636.918 155.461 347.006 155.461 57.3716 155.461C47.948 155.461 40.1875 150.042 40.1875 143.268C40.1875 106.519 40.1875 69.6017 40.1875 32.6838C40.1875 26.0793 47.948 20.6602 57.3716 20.6602Z" fill="#F6E5AF"/>
<path fill-rule="evenodd" clip-rule="evenodd" d="M60.4201 22.5225C348.114 22.5225 635.809 22.5225 923.503 22.5225C932.926 22.5225 940.687 27.7722 940.687 34.3768C940.687 70.1092 940.687 105.842 940.687 141.743C940.687 148.179 932.926 153.598 923.503 153.598C635.809 153.598 348.114 153.598 60.4201 153.598C50.9966 153.598 43.5132 148.179 43.5132 141.743C43.5132 105.842 43.5132 70.1092 43.5132 34.3768C43.5132 27.7722 50.9966 22.5225 60.4201 22.5225Z" fill="#F5E4AC"/>
<path fill-rule="evenodd" clip-rule="evenodd" d="M63.4686 24.2168H920.454C929.6 24.2168 937.361 29.4666 937.361 36.0711V140.051C937.361 146.486 929.6 151.736 920.454 151.736H63.4686C54.3222 151.736 46.8389 146.486 46.8389 140.051V36.0711C46.8389 29.4666 54.3222 24.2168 63.4686 24.2168Z" fill="#F5E3A9"/>
<path fill-rule="evenodd" clip-rule="evenodd" d="M954.546 149.196C960.367 149.196 965.078 152.583 965.078 156.647C965.078 160.881 960.367 164.098 954.546 164.098C948.726 164.098 944.014 160.881 944.014 156.647C944.014 152.583 948.726 149.196 954.546 149.196Z" fill="white"/>
<path fill-rule="evenodd" clip-rule="evenodd" d="M938.193 156.815C941.519 156.815 944.013 158.678 944.013 160.88C944.013 163.081 941.519 164.944 938.193 164.944C935.144 164.944 932.649 163.081 932.649 160.88C932.649 158.678 935.144 156.815 938.193 156.815Z" fill="white"/>
<path fill-rule="evenodd" clip-rule="evenodd" d="M30.7657 7.79053C39.912 7.79053 47.1182 13.0403 47.1182 19.3062C47.1182 25.7414 39.912 30.8218 30.7657 30.8218C21.6193 30.8218 14.4131 25.7414 14.4131 19.3062C14.4131 13.0403 21.6193 7.79053 30.7657 7.79053Z" fill="white"/>
<path fill-rule="evenodd" clip-rule="evenodd" d="M55.9852 6.43555C60.9741 6.43555 65.1316 9.31446 65.1316 12.8708C65.1316 16.2577 60.9741 19.1366 55.9852 19.1366C50.9963 19.1366 46.8389 16.2577 46.8389 12.8708C46.8389 9.31446 50.9963 6.43555 55.9852 6.43555Z" fill="white"/>
<path fill-rule="evenodd" clip-rule="evenodd" d="M61.5306 18.6279H242.518C255.267 18.6279 265.799 25.4018 265.799 33.6999V142.76C265.799 151.058 255.267 158.001 242.518 158.001H61.5306C48.504 158.001 38.249 151.227 38.249 142.76V33.6999C38.249 25.4018 48.504 18.6279 61.5306 18.6279Z" fill="#EFB469"/>
<path fill-rule="evenodd" clip-rule="evenodd" d="M70.122 25.7402H233.648C246.12 25.7402 256.098 32.3448 256.098 40.4735V140.727C256.098 148.687 246.12 155.291 233.648 155.291H70.122C57.6497 155.291 47.6719 148.687 47.6719 140.727V40.4735C47.6719 32.3448 57.6497 25.7402 70.122 25.7402Z" fill="#F1C383"/>
<path fill-rule="evenodd" clip-rule="evenodd" d="M71.2316 28.6187C125.001 28.6187 178.77 28.6187 232.817 28.6187C245.012 28.6187 254.99 35.0539 254.99 43.0132C254.99 75.528 254.99 108.043 254.99 140.558C254.99 148.517 245.012 154.952 232.817 154.952C178.77 154.952 125.001 154.952 71.2316 154.952C59.0364 154.952 49.0586 148.517 49.0586 140.558C49.0586 108.043 49.0586 75.528 49.0586 43.0132C49.0586 35.0539 59.0364 28.6187 71.2316 28.6187Z" fill="#F1C585"/>
<path fill-rule="evenodd" clip-rule="evenodd" d="M72.0648 31.3286C125.28 31.3286 178.495 31.3286 231.71 31.3286C243.905 31.3286 253.606 37.7638 253.606 45.7232C253.606 77.2219 253.606 108.89 253.606 140.389C253.606 148.348 243.905 154.783 231.71 154.783C178.495 154.783 125.28 154.783 72.0648 154.783C60.1468 154.783 50.1689 148.348 50.1689 140.389C50.1689 108.89 50.1689 77.2219 50.1689 45.7232C50.1689 37.7638 60.1468 31.3286 72.0648 31.3286Z" fill="#F1C786"/>
<path fill-rule="evenodd" clip-rule="evenodd" d="M73.1714 34.2075C125.555 34.2075 178.216 34.2075 230.599 34.2075C242.517 34.2075 252.495 40.6427 252.495 48.2634C252.495 78.9153 252.495 109.567 252.495 140.219C252.495 148.009 242.517 154.444 230.599 154.444C178.216 154.444 125.555 154.444 73.1714 154.444C61.2534 154.444 51.5527 148.009 51.5527 140.219C51.5527 109.567 51.5527 78.9153 51.5527 48.2634C51.5527 40.6427 61.2534 34.2075 73.1714 34.2075Z" fill="#F2CA88"/>
<path fill-rule="evenodd" clip-rule="evenodd" d="M74.2808 37.0859C126.11 37.0859 177.939 37.0859 229.769 37.0859C241.41 37.0859 251.11 43.3518 251.11 50.9725C251.11 80.7777 251.11 110.414 251.11 140.219C251.11 147.839 241.41 154.105 229.769 154.105C177.939 154.105 126.11 154.105 74.2808 154.105C62.3628 154.105 52.6621 147.839 52.6621 140.219C52.6621 110.414 52.6621 80.7777 52.6621 50.9725C52.6621 43.3518 62.3628 37.0859 74.2808 37.0859Z" fill="#F2CC8A"/>
<path fill-rule="evenodd" clip-rule="evenodd" d="M75.1102 39.7964C126.385 39.7964 177.383 39.7964 228.658 39.7964C240.299 39.7964 250 46.0623 250 53.5136C250 82.472 250 111.261 250 140.05C250 147.671 240.299 153.767 228.658 153.767C177.383 153.767 126.385 153.767 75.1102 153.767C63.4694 153.767 54.0459 147.671 54.0459 140.05C54.0459 111.261 54.0459 82.472 54.0459 53.5136C54.0459 46.0623 63.4694 39.7964 75.1102 39.7964Z" fill="#F2CE8B"/>
<path fill-rule="evenodd" clip-rule="evenodd" d="M76.2201 42.6748C126.664 42.6748 177.107 42.6748 227.551 42.6748C239.191 42.6748 248.615 48.7713 248.615 56.2226C248.615 84.165 248.615 111.938 248.615 139.88C248.615 147.332 239.191 153.598 227.551 153.598C177.107 153.598 126.664 153.598 76.2201 153.598C64.5793 153.598 55.1558 147.332 55.1558 139.88C55.1558 111.938 55.1558 84.165 55.1558 56.2226C55.1558 48.7713 64.5793 42.6748 76.2201 42.6748Z" fill="#F2D08D"/>
<path fill-rule="evenodd" clip-rule="evenodd" d="M77.3301 45.3838C126.942 45.3838 176.831 45.3838 226.721 45.3838C238.084 45.3838 247.231 51.4803 247.231 58.9316C247.231 85.8579 247.231 112.784 247.231 139.71C247.231 147.162 238.084 153.258 226.721 153.258C176.831 153.258 126.942 153.258 77.3301 153.258C65.9665 153.258 56.543 147.162 56.543 139.71C56.543 112.784 56.543 85.8579 56.543 58.9316C56.543 51.4803 65.9665 45.3838 77.3301 45.3838Z" fill="#F2D28E"/>
<path fill-rule="evenodd" clip-rule="evenodd" d="M78.1623 48.2627C127.497 48.2627 176.555 48.2627 225.613 48.2627C236.976 48.2627 246.123 54.1899 246.123 61.4718C246.123 87.5514 246.123 113.631 246.123 139.71C246.123 146.992 236.976 152.92 225.613 152.92C176.555 152.92 127.497 152.92 78.1623 152.92C67.0759 152.92 57.6523 146.992 57.6523 139.71C57.6523 113.631 57.6523 87.5514 57.6523 61.4718C57.6523 54.1899 67.0759 48.2627 78.1623 48.2627Z" fill="#F2D490"/>
<path fill-rule="evenodd" clip-rule="evenodd" d="M79.269 50.9727C127.772 50.9727 176.276 50.9727 224.779 50.9727C235.866 50.9727 244.735 56.8998 244.735 64.1818C244.735 89.2453 244.735 114.309 244.735 139.542C244.735 146.654 235.866 152.581 224.779 152.581C176.276 152.581 127.772 152.581 79.269 152.581C68.1825 152.581 59.0361 146.654 59.0361 139.542C59.0361 114.309 59.0361 89.2453 59.0361 64.1818C59.0361 56.8998 68.1825 50.9727 79.269 50.9727Z" fill="#F3D792"/>
<path fill-rule="evenodd" clip-rule="evenodd" d="M80.3756 53.8516C128.047 53.8516 175.719 53.8516 223.668 53.8516C234.478 53.8516 243.624 59.6094 243.624 66.722C243.624 90.9387 243.624 115.155 243.624 139.372C243.624 146.485 234.478 152.412 223.668 152.412C175.719 152.412 128.047 152.412 80.3756 152.412C69.2891 152.412 60.4199 146.485 60.4199 139.372C60.4199 115.155 60.4199 90.9387 60.4199 66.722C60.4199 59.6094 69.2891 53.8516 80.3756 53.8516Z" fill="#F3D993"/>
<path fill-rule="evenodd" clip-rule="evenodd" d="M81.2083 56.562H222.561C233.37 56.562 242.239 62.3198 242.239 69.4324V139.204C242.239 146.316 233.37 152.074 222.561 152.074H81.2083C70.399 152.074 61.5298 146.316 61.5298 139.204V69.4324C61.5298 62.3198 70.399 56.562 81.2083 56.562Z" fill="#F3DB95"/>
<path fill-rule="evenodd" clip-rule="evenodd" d="M309.591 68.2471H932.375C945.401 68.2471 955.656 75.021 955.656 83.4884V142.76C955.656 151.058 945.124 158.001 932.375 158.001H309.591C296.842 158.001 286.31 151.227 286.31 142.76V83.4884C286.31 75.021 296.842 68.2471 309.591 68.2471Z" fill="#EFB469"/>
<path fill-rule="evenodd" clip-rule="evenodd" d="M318.46 75.5288H923.782C936.254 75.5288 946.232 82.1334 946.232 90.0927V140.728C946.232 148.687 935.977 155.292 923.782 155.292H318.46C305.988 155.292 296.01 148.687 296.01 140.728V90.0927C296.01 82.1334 305.988 75.5288 318.46 75.5288Z" fill="#F1C383"/>
<path fill-rule="evenodd" clip-rule="evenodd" d="M319.293 78.4077C520.513 78.4077 721.733 78.4077 922.675 78.4077C934.87 78.4077 944.848 84.8429 944.848 92.8023C944.848 108.721 944.848 124.64 944.848 140.558C944.848 148.518 934.87 154.953 922.675 154.953C721.733 154.953 520.513 154.953 319.293 154.953C307.098 154.953 297.12 148.518 297.12 140.558C297.12 124.64 297.12 108.721 297.12 92.8023C297.12 84.8429 307.098 78.4077 319.293 78.4077Z" fill="#F1C585"/>
<path fill-rule="evenodd" clip-rule="evenodd" d="M320.403 81.1167C520.791 81.1167 721.179 81.1167 921.844 81.1167C933.762 81.1167 943.74 87.5519 943.74 95.3419C943.74 110.414 943.74 125.486 943.74 140.388C943.74 148.348 933.762 154.783 921.844 154.783C721.179 154.783 520.791 154.783 320.403 154.783C308.208 154.783 298.507 148.348 298.507 140.388C298.507 125.486 298.507 110.414 298.507 95.3419C298.507 87.5519 308.208 81.1167 320.403 81.1167Z" fill="#F1C786"/>
<path fill-rule="evenodd" clip-rule="evenodd" d="M321.509 83.9966C521.066 83.9966 720.9 83.9966 920.734 83.9966C932.652 83.9966 942.352 90.2624 942.352 98.0524C942.352 112.108 942.352 126.164 942.352 140.22C942.352 148.01 932.652 154.445 920.734 154.445C720.9 154.445 521.066 154.445 321.509 154.445C309.591 154.445 299.613 148.01 299.613 140.22C299.613 126.164 299.613 112.108 299.613 98.0524C299.613 90.2624 309.314 83.9966 321.509 83.9966Z" fill="#F2CA88"/>
<path fill-rule="evenodd" clip-rule="evenodd" d="M322.342 86.7056C521.622 86.7056 720.624 86.7056 919.627 86.7056C931.545 86.7056 941.246 92.9714 941.246 100.592C941.246 113.801 941.246 127.01 941.246 140.219C941.246 147.84 931.545 154.106 919.627 154.106C720.624 154.106 521.622 154.106 322.342 154.106C310.702 154.106 301.001 147.84 301.001 140.219C301.001 127.01 301.001 113.801 301.001 100.592C301.001 92.9714 310.702 86.7056 322.342 86.7056Z" fill="#F2CC8A"/>
<path fill-rule="evenodd" clip-rule="evenodd" d="M323.448 89.584C521.897 89.584 720.345 89.584 918.793 89.584C930.434 89.584 939.857 95.6805 939.857 103.301C939.857 115.494 939.857 127.857 939.857 140.05C939.857 147.67 930.434 153.767 918.793 153.767C720.345 153.767 521.897 153.767 323.448 153.767C311.808 153.767 302.107 147.67 302.107 140.05C302.107 127.857 302.107 115.494 302.107 103.301C302.107 95.6805 311.808 89.584 323.448 89.584Z" fill="#F2CE8B"/>
<path fill-rule="evenodd" clip-rule="evenodd" d="M324.281 92.2944C522.175 92.2944 720.069 92.2944 917.685 92.2944C929.326 92.2944 938.75 98.391 938.75 106.012C938.75 117.189 938.75 128.535 938.75 139.881C938.75 147.332 929.326 153.598 917.685 153.598C720.069 153.598 522.175 153.598 324.281 153.598C312.918 153.598 303.494 147.332 303.494 139.881C303.494 128.535 303.494 117.189 303.494 106.012C303.494 98.391 312.918 92.2944 324.281 92.2944Z" fill="#F2D08D"/>
<path fill-rule="evenodd" clip-rule="evenodd" d="M325.391 95.1729C522.453 95.1729 719.515 95.1729 916.578 95.1729C927.941 95.1729 937.365 101.1 937.365 108.551C937.365 119.051 937.365 129.381 937.365 139.711C937.365 147.163 927.941 153.259 916.578 153.259C719.515 153.259 522.453 153.259 325.391 153.259C314.027 153.259 304.604 147.163 304.604 139.711C304.604 129.381 304.604 119.051 304.604 108.551C304.604 101.1 314.027 95.1729 325.391 95.1729Z" fill="#F2D28E"/>
<path fill-rule="evenodd" clip-rule="evenodd" d="M326.497 97.8823C522.728 97.8823 719.236 97.8823 915.744 97.8823C926.83 97.8823 936.254 103.979 936.254 111.261C936.254 120.744 936.254 130.228 936.254 139.711C936.254 146.993 926.83 152.92 915.744 152.92C719.236 152.92 522.728 152.92 326.497 152.92C315.134 152.92 305.987 146.993 305.987 139.711C305.987 130.228 305.987 120.744 305.987 111.261C305.987 103.809 315.134 97.8823 326.497 97.8823Z" fill="#F2D490"/>
<path fill-rule="evenodd" clip-rule="evenodd" d="M327.331 100.762C523.284 100.762 718.961 100.762 914.637 100.762C925.724 100.762 934.87 106.689 934.87 113.801C934.87 122.438 934.87 130.906 934.87 139.542C934.87 146.655 925.724 152.582 914.637 152.582C718.961 152.582 523.284 152.582 327.331 152.582C316.244 152.582 307.375 146.655 307.375 139.542C307.375 130.906 307.375 122.438 307.375 113.801C307.375 106.689 316.244 100.762 327.331 100.762Z" fill="#F3D792"/>
<path fill-rule="evenodd" clip-rule="evenodd" d="M328.437 103.471C523.559 103.471 718.681 103.471 913.526 103.471C924.613 103.471 933.482 109.398 933.482 116.511C933.482 124.132 933.482 131.752 933.482 139.373C933.482 146.486 924.613 152.413 913.526 152.413C718.681 152.413 523.559 152.413 328.437 152.413C317.628 152.413 308.481 146.486 308.481 139.373C308.481 131.752 308.481 124.132 308.481 116.511C308.481 109.398 317.628 103.471 328.437 103.471Z" fill="#F3D993"/>
<path fill-rule="evenodd" clip-rule="evenodd" d="M329.547 106.351H912.696C923.505 106.351 932.374 112.108 932.374 119.052V139.204C932.374 146.317 923.505 152.074 912.696 152.074H329.547C318.737 152.074 309.868 146.317 309.868 139.204V119.052C309.868 112.108 318.737 106.351 329.547 106.351Z" fill="#F3DB95"/>
<path fill-rule="evenodd" clip-rule="evenodd" d="M589.004 17.6128H934.978C944.695 17.6128 952.329 21.6771 952.329 26.5882V51.1437C952.329 56.0547 944.695 59.9497 934.978 59.9497H589.004C579.634 59.9497 572 56.0547 572 51.1437V26.5882C572 21.6771 579.634 17.6128 589.004 17.6128Z" fill="#EFB469"/>
<path fill-rule="evenodd" clip-rule="evenodd" d="M595.599 22.0161H928.734C937.756 22.0161 945.391 25.9111 945.391 30.4835V49.7891C945.391 54.5309 937.756 58.4259 928.734 58.4259H595.599C586.577 58.4259 578.942 54.5309 578.942 49.7891V30.4835C578.942 25.7418 586.577 22.0161 595.599 22.0161Z" fill="#F1C383"/>
<path fill-rule="evenodd" clip-rule="evenodd" d="M596.29 23.5396C706.988 23.5396 817.339 23.5396 928.037 23.5396C937.059 23.5396 944.347 27.4345 944.347 32.1763C944.347 37.9341 944.347 43.8613 944.347 49.7885C944.347 54.5302 937.059 58.2558 928.037 58.2558C817.339 58.2558 706.988 58.2558 596.29 58.2558C587.268 58.2558 579.98 54.5302 579.98 49.7885C579.98 43.8613 579.98 37.9341 579.98 32.1763C579.98 27.4345 587.268 23.5396 596.29 23.5396Z" fill="#F1C585"/>
<path fill-rule="evenodd" clip-rule="evenodd" d="M596.985 25.2329C706.989 25.2329 817.34 25.2329 927.344 25.2329C936.019 25.2329 943.307 28.9586 943.307 33.7003C943.307 38.9501 943.307 44.3692 943.307 49.7883C943.307 54.3607 936.019 58.0864 927.344 58.0864C817.34 58.0864 706.989 58.0864 596.985 58.0864C588.31 58.0864 581.022 54.3607 581.022 49.7883C581.022 44.3692 581.022 38.9501 581.022 33.7003C581.022 28.9586 588.31 25.2329 596.985 25.2329Z" fill="#F1C786"/>
<path fill-rule="evenodd" clip-rule="evenodd" d="M597.676 26.9268C707.333 26.9268 816.99 26.9268 926.647 26.9268C935.322 26.9268 942.61 30.6524 942.61 35.2248C942.61 39.9665 942.61 44.8776 942.61 49.6194C942.61 54.1917 935.322 57.9174 926.647 57.9174C816.99 57.9174 707.333 57.9174 597.676 57.9174C589.001 57.9174 581.713 54.1917 581.713 49.6194C581.713 44.8776 581.713 39.9665 581.713 35.2248C581.713 30.6524 589.001 26.9268 597.676 26.9268Z" fill="#F2CA88"/>
<path fill-rule="evenodd" clip-rule="evenodd" d="M598.718 28.4502C707.68 28.4502 816.643 28.4502 925.606 28.4502C934.282 28.4502 941.569 32.1758 941.569 36.7482C941.569 40.9819 941.569 45.2156 941.569 49.6187C941.569 54.0217 934.282 57.7474 925.606 57.7474C816.643 57.7474 707.68 57.7474 598.718 57.7474C590.042 57.7474 582.755 54.0217 582.755 49.6187C582.755 45.2156 582.755 40.9819 582.755 36.7482C582.755 32.1758 589.695 28.4502 598.718 28.4502Z" fill="#F2CC8A"/>
<path fill-rule="evenodd" clip-rule="evenodd" d="M599.413 30.1445C708.029 30.1445 816.298 30.1445 924.914 30.1445C933.589 30.1445 940.529 33.8702 940.529 38.2732C940.529 41.9989 940.529 45.7245 940.529 49.4502C940.529 53.8532 933.589 57.5789 924.914 57.5789C816.298 57.5789 708.029 57.5789 599.413 57.5789C590.738 57.5789 583.797 54.0226 583.797 49.4502C583.797 45.7245 583.797 41.9989 583.797 38.2732C583.797 33.8702 590.738 30.1445 599.413 30.1445Z" fill="#F2CE8B"/>
<path fill-rule="evenodd" clip-rule="evenodd" d="M600.108 31.8379C708.03 31.8379 816.299 31.8379 924.22 31.8379C932.896 31.8379 939.836 35.3942 939.836 39.7972C939.836 43.0148 939.836 46.2325 939.836 49.4501C939.836 53.8531 932.896 57.4094 924.22 57.4094C816.299 57.4094 708.03 57.4094 600.108 57.4094C591.432 57.4094 584.492 53.8531 584.492 49.4501C584.492 46.2325 584.492 43.0148 584.492 39.7972C584.492 35.3942 591.432 31.8379 600.108 31.8379Z" fill="#F2D08D"/>
<path fill-rule="evenodd" clip-rule="evenodd" d="M600.803 33.5308C708.378 33.5308 815.952 33.5308 923.527 33.5308C931.856 33.5308 938.796 37.0871 938.796 41.3208C938.796 44.0303 938.796 46.7399 938.796 49.2801C938.796 53.6831 931.856 57.2395 923.527 57.2395C815.952 57.2395 708.378 57.2395 600.803 57.2395C592.474 57.2395 585.534 53.6831 585.534 49.2801C585.534 46.7399 585.534 44.0303 585.534 41.3208C585.534 37.0871 592.474 33.5308 600.803 33.5308Z" fill="#F2D28E"/>
<path fill-rule="evenodd" clip-rule="evenodd" d="M601.498 35.0552C708.726 35.0552 815.606 35.0552 922.834 35.0552C931.163 35.0552 937.756 38.6115 937.756 43.0145C937.756 45.0467 937.756 47.0789 937.756 49.2804C937.756 53.5141 931.163 57.0704 922.834 57.0704C815.606 57.0704 708.726 57.0704 601.498 57.0704C593.169 57.0704 586.576 53.5141 586.576 49.2804C586.576 47.0789 586.576 45.0467 586.576 43.0145C586.576 38.6115 593.169 35.0552 601.498 35.0552Z" fill="#F2D490"/>
<path fill-rule="evenodd" clip-rule="evenodd" d="M602.188 36.7485C708.722 36.7485 815.602 36.7485 922.136 36.7485C930.117 36.7485 937.058 40.3048 937.058 44.5385C937.058 46.0627 937.058 47.5868 937.058 49.1109C937.058 53.3446 930.117 56.9009 922.136 56.9009C815.602 56.9009 708.722 56.9009 602.188 56.9009C594.206 56.9009 587.266 53.3446 587.266 49.1109C587.266 47.5868 587.266 46.0627 587.266 44.5385C587.266 40.3048 594.206 36.7485 602.188 36.7485Z" fill="#F3D792"/>
<path fill-rule="evenodd" clip-rule="evenodd" d="M602.883 38.4424C709.07 38.4424 815.257 38.4424 921.443 38.4424C929.425 38.4424 936.018 41.8293 936.018 46.063C936.018 47.0791 936.018 48.0952 936.018 49.1113C936.018 53.345 929.425 56.7319 921.443 56.7319C815.257 56.7319 709.07 56.7319 602.883 56.7319C594.902 56.7319 588.309 53.345 588.309 49.1113C588.309 48.0952 588.309 47.0791 588.309 46.063C588.309 41.8293 594.902 38.4424 602.883 38.4424Z" fill="#F3D993"/>
<path fill-rule="evenodd" clip-rule="evenodd" d="M603.925 40.1357H920.403C928.385 40.1357 934.978 43.5227 934.978 47.587V48.9418C934.978 53.1755 928.385 56.5625 920.403 56.5625H603.925C595.944 56.5625 589.351 53.1755 589.351 48.9418V47.587C589.351 43.5227 595.944 40.1357 603.925 40.1357Z" fill="#F3DB95"/>
<path fill-rule="evenodd" clip-rule="evenodd" d="M300.92 17.6128H543.884C550.686 17.6128 556 21.6771 556 26.5882V51.1437C556 56.0547 550.686 59.9497 543.884 59.9497H300.92C294.33 59.9497 288.804 56.0547 288.804 51.1437V26.5882C288.804 21.6771 294.33 17.6128 300.92 17.6128Z" fill="#EFB469"/>
<path fill-rule="evenodd" clip-rule="evenodd" d="M305.384 22.0161H539.42C545.797 22.0161 551.111 25.9111 551.111 30.4835V49.7891C551.111 54.5309 545.797 58.4259 539.42 58.4259H305.384C299.007 58.4259 293.905 54.5309 293.905 49.7891V30.4835C293.905 25.7418 299.007 22.0161 305.384 22.0161Z" fill="#F1C383"/>
<path fill-rule="evenodd" clip-rule="evenodd" d="M306.023 23.5396C383.61 23.5396 461.196 23.5396 538.996 23.5396C545.373 23.5396 550.475 27.4345 550.475 32.1763C550.475 37.9341 550.475 43.8613 550.475 49.7885C550.475 54.5302 545.373 58.2558 538.996 58.2558C461.196 58.2558 383.61 58.2558 306.023 58.2558C299.646 58.2558 294.544 54.5302 294.544 49.7885C294.544 43.8613 294.544 37.9341 294.544 32.1763C294.544 27.4345 299.646 23.5396 306.023 23.5396Z" fill="#F1C585"/>
<path fill-rule="evenodd" clip-rule="evenodd" d="M306.449 25.2329C383.823 25.2329 461.197 25.2329 538.359 25.2329C544.736 25.2329 549.838 28.9586 549.838 33.7003C549.838 38.9501 549.838 44.3692 549.838 49.7883C549.838 54.3607 544.736 58.0864 538.359 58.0864C461.197 58.0864 383.823 58.0864 306.449 58.0864C300.284 58.0864 295.183 54.3607 295.183 49.7883C295.183 44.3692 295.183 38.9501 295.183 33.7003C295.183 28.9586 300.284 25.2329 306.449 25.2329Z" fill="#F1C786"/>
<path fill-rule="evenodd" clip-rule="evenodd" d="M307.086 26.9268C384.036 26.9268 460.985 26.9268 537.934 26.9268C544.099 26.9268 549.2 30.6524 549.2 35.2248C549.2 39.9665 549.2 44.8776 549.2 49.6194C549.2 54.1917 544.099 57.9174 537.934 57.9174C460.985 57.9174 384.036 57.9174 307.086 57.9174C300.922 57.9174 295.82 54.1917 295.82 49.6194C295.82 44.8776 295.82 39.9665 295.82 35.2248C295.82 30.6524 300.922 26.9268 307.086 26.9268Z" fill="#F2CA88"/>
<path fill-rule="evenodd" clip-rule="evenodd" d="M307.512 28.4502C384.249 28.4502 460.773 28.4502 537.297 28.4502C543.462 28.4502 548.564 32.1758 548.564 36.7482C548.564 40.9819 548.564 45.2156 548.564 49.6187C548.564 54.0217 543.462 57.7474 537.297 57.7474C460.773 57.7474 384.249 57.7474 307.512 57.7474C301.348 57.7474 296.459 54.0217 296.459 49.6187C296.459 45.2156 296.459 40.9819 296.459 36.7482C296.459 32.1758 301.348 28.4502 307.512 28.4502Z" fill="#F2CC8A"/>
<path fill-rule="evenodd" clip-rule="evenodd" d="M308.148 30.1445C384.247 30.1445 460.559 30.1445 536.87 30.1445C542.822 30.1445 547.924 33.8702 547.924 38.2732C547.924 41.9989 547.924 45.7245 547.924 49.4502C547.924 53.8532 542.822 57.5789 536.87 57.5789C460.559 57.5789 384.247 57.5789 308.148 57.5789C301.984 57.5789 297.095 54.0226 297.095 49.4502C297.095 45.7245 297.095 41.9989 297.095 38.2732C297.095 33.8702 301.984 30.1445 308.148 30.1445Z" fill="#F2CE8B"/>
<path fill-rule="evenodd" clip-rule="evenodd" d="M308.573 31.8379C384.46 31.8379 460.346 31.8379 536.445 31.8379C542.397 31.8379 547.286 35.3942 547.286 39.7972C547.286 43.0148 547.286 46.2325 547.286 49.4501C547.286 53.8531 542.397 57.4094 536.445 57.4094C460.346 57.4094 384.46 57.4094 308.573 57.4094C302.621 57.4094 297.732 53.8531 297.732 49.4501C297.732 46.2325 297.732 43.0148 297.732 39.7972C297.732 35.3942 302.621 31.8379 308.573 31.8379Z" fill="#F2D08D"/>
<path fill-rule="evenodd" clip-rule="evenodd" d="M308.999 33.5308C384.673 33.5308 460.347 33.5308 535.808 33.5308C541.76 33.5308 546.437 37.0871 546.437 41.3208C546.437 44.0303 546.437 46.7399 546.437 49.2801C546.437 53.6831 541.76 57.2395 535.808 57.2395C460.347 57.2395 384.673 57.2395 308.999 57.2395C303.26 57.2395 298.371 53.6831 298.371 49.2801C298.371 46.7399 298.371 44.0303 298.371 41.3208C298.371 37.0871 303.26 33.5308 308.999 33.5308Z" fill="#F2D28E"/>
<path fill-rule="evenodd" clip-rule="evenodd" d="M309.635 35.0552C384.884 35.0552 460.133 35.0552 535.381 35.0552C541.121 35.0552 545.797 38.6115 545.797 43.0145C545.797 45.0467 545.797 47.0789 545.797 49.2804C545.797 53.5141 541.121 57.0704 535.381 57.0704C460.133 57.0704 384.884 57.0704 309.635 57.0704C303.896 57.0704 299.007 53.5141 299.007 49.2804C299.007 47.0789 299.007 45.0467 299.007 43.0145C299.007 38.6115 303.896 35.0552 309.635 35.0552Z" fill="#F2D490"/>
<path fill-rule="evenodd" clip-rule="evenodd" d="M310.061 36.7485C385.097 36.7485 459.921 36.7485 534.745 36.7485C540.484 36.7485 545.16 40.3048 545.16 44.5385C545.16 46.0627 545.16 47.5868 545.16 49.1109C545.16 53.3446 540.484 56.9009 534.745 56.9009C459.921 56.9009 385.097 56.9009 310.061 56.9009C304.322 56.9009 299.646 53.3446 299.646 49.1109C299.646 47.5868 299.646 46.0627 299.646 44.5385C299.646 40.3048 304.322 36.7485 310.061 36.7485Z" fill="#F3D792"/>
<path fill-rule="evenodd" clip-rule="evenodd" d="M310.699 38.4424C385.098 38.4424 459.709 38.4424 534.32 38.4424C539.847 38.4424 544.523 41.8293 544.523 46.063C544.523 47.0791 544.523 48.0952 544.523 49.1113C544.523 53.345 539.847 56.7319 534.32 56.7319C459.709 56.7319 385.098 56.7319 310.699 56.7319C304.96 56.7319 300.284 53.345 300.284 49.1113C300.284 48.0952 300.284 47.0791 300.284 46.063C300.284 41.8293 304.96 38.4424 310.699 38.4424Z" fill="#F3D993"/>
<path fill-rule="evenodd" clip-rule="evenodd" d="M311.125 40.1357H533.683C539.422 40.1357 543.886 43.5227 543.886 47.587V48.9418C543.886 53.1755 539.422 56.5625 533.683 56.5625H311.125C305.598 56.5625 300.922 53.1755 300.922 48.9418V47.587C300.922 43.5227 305.598 40.1357 311.125 40.1357Z" fill="#F3DB95"/>
<path d="M90.7071 45.4826C87.6685 74.0827 89.3777 93.8708 98.3036 110.258C107.04 126.336 123.372 140.095 149.58 156.327C175.598 140.095 191.93 126.336 200.666 110.258C209.592 93.8708 211.302 74.0827 208.263 45.6372C187.942 42.2361 168.761 40.5356 149.58 40.5356C130.399 40.5356 111.028 42.0815 90.7071 45.4826ZM73.2351 119.224C61.4605 97.4265 59.7513 72.2275 64.4991 35.2794L65.6386 27.395L74.9443 25.6945C100.772 20.5928 125.081 18.2739 149.58 18.2739C173.889 18.4285 198.198 20.902 223.836 25.6945L233.521 27.395L234.471 35.2794C239.219 72.2275 237.51 97.4265 225.735 119.224C213.77 141.022 192.31 158.337 157.556 179.207L149.58 184L141.414 179.207C106.66 158.337 85.1996 141.022 73.2351 119.224Z" fill="black" fill-opacity="0.101961"/>
<path d="M90.7071 36.2087C87.6685 64.8087 89.3777 84.5969 98.3036 100.984C107.04 117.062 123.372 130.666 149.58 147.053C175.598 130.666 191.93 117.062 200.666 100.984C209.592 84.5969 211.302 64.8087 208.263 36.2087C187.942 32.9622 168.761 31.2617 149.58 31.2617C130.399 31.1071 111.028 32.8076 90.7071 36.2087ZM73.2351 109.95C61.4605 88.1526 59.7513 62.799 64.4991 26.0054L65.6386 18.1211L74.9443 16.266C100.772 11.3189 125.081 9 149.58 9C173.889 9 198.198 11.4735 223.836 16.266L233.521 18.1211L234.471 26.0054C239.219 62.799 237.51 88.1526 225.735 109.95C213.77 131.748 192.31 148.908 157.556 169.779L149.58 174.726L141.414 169.779C106.66 148.908 85.1996 131.748 73.2351 109.95Z" fill="white"/>
<path fill-rule="evenodd" clip-rule="evenodd" d="M78.17 23.5302C69.0542 93.2525 83.8674 117.833 149.577 157.255C215.287 117.833 229.91 93.2525 220.984 23.5302C171.227 14.2545 127.927 13.9453 78.17 23.5302Z" fill="#E6E6E6"/>
<path fill-rule="evenodd" clip-rule="evenodd" d="M149.58 157.255C215.289 117.834 229.913 93.2531 220.987 23.5308C196.108 18.893 172.749 16.574 149.58 16.4194V157.255Z" fill="#CCCCCC"/>
<path fill-rule="evenodd" clip-rule="evenodd" d="M149.581 142.725C130.97 131.594 116.347 121.545 105.332 111.497C85.7706 93.5636 77.0346 75.0122 75.8952 48.5765C73.8061 99.902 92.4175 122.937 149.581 157.257C206.745 122.937 225.356 99.902 223.077 48.4219C221.938 75.0122 213.202 93.5636 193.641 111.497C182.626 121.545 168.193 131.594 149.581 142.725Z" fill="white"/>
<path fill-rule="evenodd" clip-rule="evenodd" d="M75.7061 56.9238C75.896 102.529 95.6469 124.946 149.582 157.256C203.517 124.946 223.078 102.529 223.268 56.9238C223.268 54.9141 223.268 52.7498 223.078 50.5854C221.939 77.0212 213.203 95.5726 193.642 113.506C182.627 123.554 168.194 133.603 149.582 144.734C130.971 133.603 116.347 123.554 105.332 113.506C85.7714 95.5726 77.0354 77.0212 75.896 50.5854C75.7061 52.7498 75.7061 54.9141 75.7061 56.9238Z" fill="#999999"/>
<path fill-rule="evenodd" clip-rule="evenodd" d="M147.303 15.1846L152.811 16.4213L149.582 74.3944L147.303 15.1846Z" fill="white"/>
<path fill-rule="evenodd" clip-rule="evenodd" d="M149.579 166.224L141.413 161.277C106.659 140.561 85.1991 123.247 73.2346 101.449C66.0179 87.9989 62.5995 73.3124 62.0298 55.3794C61.6499 77.3319 64.8785 94.4919 73.2346 109.951C85.1991 131.749 106.659 148.909 141.413 169.78L149.579 174.727L157.556 169.78C192.31 148.909 213.77 131.749 225.734 109.951C234.091 94.4919 237.509 77.3319 236.939 55.3794C236.559 73.3124 232.951 87.9989 225.734 101.449C213.77 123.247 192.31 140.561 157.556 161.277L149.579 166.224Z" fill="#E6E6E6"/>
<path d="M314.023 56.2506L304.595 61.3145C303.496 61.9297 302.307 62.119 301.208 61.9297C300.384 61.7878 299.606 61.4565 298.966 60.9832C298.325 60.5099 297.776 59.8947 297.409 59.0901C296.86 58.049 296.586 56.7712 296.814 55.3514L298.554 44.6083L290.682 36.6574C289.858 35.8056 289.309 34.7171 289.08 33.6286C288.943 32.8713 288.988 32.0668 289.171 31.3096V31.2622C289.4 30.505 289.766 29.7951 290.361 29.1325C291.139 28.328 292.192 27.7601 293.519 27.4761L293.657 27.4288L304.366 25.7724L304.595 25.2045C306.288 20.7558 309.126 13.4202 313.977 13.4675C318.783 13.5622 321.62 20.6611 323.359 25.1571L323.634 25.7724L334.343 27.4288L334.481 27.4761C335.808 27.7601 336.861 28.328 337.639 29.1325C338.234 29.7478 338.6 30.505 338.829 31.3096C339.012 32.0668 339.057 32.8713 338.92 33.6286C338.691 34.7171 338.142 35.8056 337.318 36.6574L329.492 44.6083L331.186 55.3514C331.414 56.7712 331.186 58.049 330.636 59.0901C330.224 59.8947 329.675 60.5099 329.034 60.9832C328.394 61.4565 327.616 61.7878 326.792 61.9297C325.693 62.119 324.504 61.9297 323.405 61.3145L314.023 56.2506Z" fill="black" fill-opacity="0.101961"/>
<path d="M314.023 54.784L304.595 59.8479C303.496 60.4631 302.307 60.6051 301.208 60.4631C300.384 60.3212 299.606 59.9899 298.966 59.5166C298.325 59.0433 297.776 58.3808 297.409 57.6235C296.86 56.5824 296.586 55.2572 296.814 53.8848V53.8374L298.554 43.0943L290.682 35.1435C289.858 34.2916 289.309 33.2505 289.08 32.1619C288.943 31.4047 288.988 30.6002 289.171 29.7956C289.4 29.0384 289.766 28.2812 290.361 27.6659C291.139 26.8614 292.192 26.2461 293.519 26.0095L293.657 25.9622L304.366 24.3058L304.595 23.7378C306.288 19.2892 309.126 11.9062 313.977 12.0009C318.783 12.0482 321.62 19.1945 323.359 23.6432L323.634 24.3058L334.343 25.9622L334.481 26.0095C335.808 26.2461 336.861 26.8614 337.639 27.6659C338.234 28.2812 338.6 29.0384 338.829 29.7956C339.012 30.6002 339.057 31.3574 338.92 32.1619C338.691 33.2505 338.142 34.2916 337.318 35.1435L329.492 43.0943L331.186 53.8374V53.8848C331.414 55.2572 331.186 56.5824 330.636 57.6235C330.224 58.3808 329.675 59.0433 329.034 59.5166C328.394 59.9899 327.616 60.3212 326.792 60.4631C325.693 60.6051 324.504 60.4631 323.405 59.8479L314.023 54.784Z" fill="white"/>
<path d="M314.021 51.282L303.22 57.1032C301.39 58.097 299.422 56.6299 299.742 54.3582L301.756 42.006L292.786 32.9194C291.504 31.6416 291.687 29.5119 294.113 29.0386L306.47 27.0982C307.614 24.6846 310.452 15.03 313.976 15.0773C317.5 15.1246 320.292 24.4953 321.527 27.0982L333.93 29.0386C336.31 29.5119 336.539 31.6416 335.212 32.9194L326.287 42.006L328.255 54.3582C328.575 56.6299 326.607 58.097 324.777 57.1032L314.021 51.282Z" fill="#FFE00F"/>
<path fill-rule="evenodd" clip-rule="evenodd" d="M314.021 48.8682L303.22 54.6893C301.847 55.4465 300.383 54.784 299.879 53.4588L299.742 54.358C299.422 56.6297 301.39 58.0968 303.22 57.103L314.021 51.2818L324.777 57.103C326.607 58.0968 328.575 56.6297 328.255 54.358L328.118 53.4588C327.614 54.784 326.15 55.4465 324.777 54.6893L314.021 48.8682Z" fill="#DCB000"/>
<path fill-rule="evenodd" clip-rule="evenodd" d="M325.922 39.9244L326.288 42.0067L335.213 32.9201C336.083 32.0682 336.266 30.885 335.625 29.9858C335.533 30.1751 335.396 30.3645 335.213 30.5064L325.922 39.9244Z" fill="#DCB000"/>
<path fill-rule="evenodd" clip-rule="evenodd" d="M302.078 39.9244L292.787 30.5064C292.604 30.3645 292.466 30.1751 292.375 29.9858C291.734 30.885 291.917 32.0682 292.787 32.9201L301.757 42.0067L302.078 39.9244Z" fill="#DCB000"/>
<path fill-rule="evenodd" clip-rule="evenodd" d="M304.596 58.4282C303.498 59.0435 302.308 59.2328 301.209 59.0435C300.385 58.9015 299.607 58.6175 298.967 58.1443C298.326 57.671 297.777 57.0084 297.411 56.2512C297.09 55.636 296.861 54.9261 296.77 54.1688C296.633 55.4467 296.861 56.6298 297.411 57.6237C297.777 58.3809 298.326 59.0435 298.967 59.5167C299.607 59.99 300.385 60.3213 301.209 60.4633C302.308 60.6052 303.498 60.4633 304.596 59.848L314.024 54.7841L323.406 59.848C324.505 60.4633 325.695 60.6052 326.793 60.4633C327.617 60.3213 328.395 59.99 329.036 59.5167C329.676 59.0435 330.226 58.3809 330.638 57.6237C331.141 56.6298 331.37 55.4467 331.232 54.1688C331.141 54.9261 330.958 55.636 330.638 56.2512C330.226 57.0084 329.676 57.671 329.036 58.0969C328.395 58.6175 327.617 58.9015 326.793 59.0435C325.695 59.2328 324.505 59.0435 323.406 58.4755L314.024 53.4116L304.596 58.4282Z" fill="#E6E6E6"/>
<path fill-rule="evenodd" clip-rule="evenodd" d="M321.527 27.0982C320.291 24.4953 317.499 15.1246 313.975 15.0773C310.451 15.03 307.613 24.6846 306.469 27.0982L294.112 29.0386C293.288 29.1806 292.693 29.5592 292.373 29.9851L292.785 30.5057L297.682 35.475C302.121 33.298 307.659 31.2156 313.746 29.6539C317.362 28.7073 320.84 27.9974 324.135 27.5242L321.527 27.0982Z" fill="#FFF71F"/>
<path fill-rule="evenodd" clip-rule="evenodd" d="M326.654 44.4663C324 45.4602 321.071 46.3594 318.05 47.1639C311.643 48.8677 305.555 49.7669 300.475 49.9562L299.88 53.4583C300.384 54.7835 301.848 55.446 303.221 54.6888L314.022 48.8677L324.778 54.6888C326.151 55.446 327.615 54.7835 328.119 53.4583L326.654 44.4663Z" fill="#F7C600"/>
<ellipse cx="603.39" cy="37.9998" rx="24.3902" ry="23.8372" fill="#E6E6E6"/>
<ellipse cx="604" cy="38.5812" rx="25" ry="24.4186" fill="black" fill-opacity="0.1"/>
<ellipse cx="604" cy="36.8372" rx="25" ry="23.8372" fill="white"/>
<path d="M605.74 55.9162V54.3958C605.74 53.4511 604.939 52.6878 603.948 52.6878C602.958 52.6878 602.157 53.4511 602.157 54.3958V55.9162C596.398 55.4302 591.329 52.624 587.986 48.4868C585.699 45.6559 584.22 42.2019 583.881 38.4415H585.426C586.415 38.4415 587.216 37.6766 587.216 36.7335C587.216 35.7888 586.415 35.0254 585.426 35.0254H583.891C584.773 25.8197 592.494 18.4734 602.157 17.6564V19.0711C602.157 20.0158 602.958 20.7792 603.948 20.7792C604.939 20.7792 605.74 20.0158 605.74 19.0711V17.6564C610.092 18.0244 614.05 19.7169 617.167 22.3073C620.971 25.4682 623.521 29.966 624.006 35.0254H622.472C621.481 35.0254 620.681 35.7888 620.681 36.7335C620.681 37.6766 621.481 38.4415 622.472 38.4415H624.015C623.183 47.6977 615.439 55.0976 605.74 55.9162ZM603.948 14.1631C590.843 14.1631 580.221 24.2899 580.221 36.7871C580.221 49.2827 590.843 59.4111 603.948 59.4111C617.054 59.4111 627.676 49.2827 627.676 36.7871C627.676 24.2899 617.054 14.1631 603.948 14.1631Z" fill="#DCB000"/>
<path d="M605.74 55.9162V54.3958C605.74 53.4511 604.939 52.6878 603.948 52.6878C602.958 52.6878 602.157 53.4511 602.157 54.3958V55.9162C596.398 55.4302 591.329 52.624 587.986 48.4868C585.699 45.6559 584.22 42.2019 583.881 38.4415H585.426C586.415 38.4415 587.216 37.6766 587.216 36.7335C587.216 35.7888 586.415 35.0254 585.426 35.0254H583.891C584.773 25.8197 592.494 18.4734 602.157 17.6564V19.0711C602.157 20.0158 602.958 20.7792 603.948 20.7792C604.939 20.7792 605.74 20.0158 605.74 19.0711V17.6564C610.092 18.0244 614.05 19.7169 617.167 22.3073C620.971 25.4682 623.521 29.966 624.006 35.0254H622.472C621.481 35.0254 620.681 35.7888 620.681 36.7335C620.681 37.6766 621.481 38.4415 622.472 38.4415H624.015C623.183 47.6977 615.439 55.0976 605.74 55.9162Z" fill="#FFE00F"/>
<path d="M614.614 25.7643L604.008 36.3627L603.947 36.3595C603.815 36.3595 603.686 36.3722 603.56 36.3958L594.681 30.0005C594.094 29.5794 593.252 29.6867 592.804 30.2529C592.357 30.8143 592.471 31.6202 593.067 32.0476L601.941 38.4414C602.027 39.4255 602.892 40.2014 603.947 40.2014C605.06 40.2014 605.962 39.3403 605.962 38.2805C605.962 38.23 605.959 38.1795 605.954 38.1307L616.559 27.5323C617.071 27.0182 617.052 26.2107 616.515 25.7218C615.979 25.2313 615.129 25.2549 614.614 25.7643Z" fill="#DCB000"/>
<path d="M194.387 111.399L174.26 108.205L165.043 121L136.309 78.2478L165.65 68.6474L194.387 111.399Z" fill="#4F8AD0"/>
<path d="M105.612 111.4L125.738 108.205L134.955 121L163.691 78.2481L134.351 68.6476L105.612 111.4Z" fill="#58ADE4"/>
<path d="M152.987 103.058L150.002 98.6169L154.844 91.4163C156.155 91.3382 157.449 91.2241 158.73 91.0751L152.987 103.058Z" fill="#417FC7"/>
<path d="M200 57.0475C200 76.0996 177.864 91.5439 150.556 91.5439C123.247 91.5439 101.111 76.0996 101.111 57.0475C101.111 37.9954 123.247 22.5508 150.556 22.5508C177.864 22.5508 200 37.9954 200 57.0475Z" fill="#BB2223"/>
<path d="M198.888 55.4966C198.888 74.5486 176.752 89.9937 149.444 89.9937C122.137 89.9937 100 74.5486 100 55.4966C100 36.4446 122.137 20.9997 149.444 20.9997C176.752 20.9997 198.888 36.4446 198.888 55.4966" fill="#EE532E"/>
<path d="M186.945 55.4967C186.945 69.9465 170.155 81.6602 149.444 81.6602C128.733 81.6602 111.946 69.9465 111.946 55.4967C111.946 41.0472 128.733 29.3333 149.444 29.3333C170.155 29.3333 186.945 41.0472 186.945 55.4967Z" fill="#E63D20"/>
<path d="M152.136 83.0112L154.401 81.4335C171.124 79.8932 184.37 70.6663 186.611 59.0062L188.879 57.4267C188.449 71.4381 172.227 82.7373 152.136 83.0112V83.0112ZM146.005 82.7489C142.174 82.3647 138.528 81.5759 135.162 80.4466L135.933 79.91C135.933 79.9104 135.933 79.9105 135.936 79.9107C135.941 79.9126 135.949 79.9144 135.954 79.9161C135.962 79.9181 135.97 79.9203 135.978 79.9225C135.989 79.9253 135.999 79.928 136.01 79.9308C136.015 79.9321 136.02 79.9337 136.026 79.9348C136.039 79.9383 136.052 79.942 136.065 79.9455C136.068 79.9465 136.07 79.947 136.073 79.9477C136.089 79.952 136.107 79.9564 136.121 79.9605L136.123 79.9608C139.722 80.9154 143.584 81.4943 147.616 81.6293L146.005 82.7489V82.7489ZM149.445 81.6601C149.015 81.6601 148.59 81.6553 148.168 81.6452C148.432 81.6513 148.693 81.6555 148.96 81.6579C148.981 81.6581 148.999 81.6583 149.018 81.6584H149.02C149.042 81.6586 149.06 81.6586 149.079 81.6588C149.079 81.6588 149.081 81.6588 149.084 81.6588C149.102 81.659 149.118 81.659 149.137 81.6592C149.139 81.6592 149.142 81.6592 149.145 81.6592C149.16 81.6594 149.179 81.6594 149.197 81.6595C149.2 81.6595 149.203 81.6595 149.205 81.6595C149.221 81.6595 149.24 81.6597 149.255 81.6597C149.258 81.6597 149.261 81.6597 149.263 81.6597C149.282 81.6597 149.298 81.6597 149.313 81.6597C149.316 81.6597 149.321 81.6599 149.324 81.6599C149.343 81.6599 149.361 81.6599 149.377 81.6601C149.379 81.6601 149.382 81.6601 149.385 81.6601C149.406 81.6601 149.424 81.6601 149.445 81.6601V81.6601ZM149.445 81.6601C149.461 81.6601 149.48 81.6601 149.496 81.6601C149.48 81.6601 149.461 81.6601 149.445 81.6601ZM149.514 81.6601C149.527 81.6599 149.543 81.6599 149.556 81.6599C149.543 81.6599 149.527 81.6599 149.514 81.6601ZM149.583 81.6597C149.593 81.6597 149.601 81.6597 149.612 81.6597C149.601 81.6597 149.593 81.6597 149.583 81.6597ZM149.641 81.6597C149.643 81.6597 149.646 81.6597 149.649 81.6597C149.646 81.6597 149.643 81.6597 149.641 81.6597ZM134.143 79.3898C134.143 79.3896 134.14 79.3894 134.14 79.3892L134.143 79.3898ZM134.09 79.3736C134.085 79.3717 134.08 79.3699 134.074 79.3682C134.08 79.3699 134.085 79.3719 134.09 79.3736ZM134.043 79.3587C132.068 78.7373 130.185 78.0003 128.409 77.1598L128.113 77.3669C127.543 77.0515 126.986 76.7246 126.444 76.3871L126.627 76.26C128.908 77.4816 131.392 78.5246 134.043 79.3587V79.3587ZM124.052 74.7491C124.013 74.7235 123.973 74.6978 123.934 74.672C123.934 74.6718 123.934 74.672 123.934 74.6716C123.971 74.6972 124.013 74.7235 124.052 74.7491ZM186.904 54.274C186.717 51.4111 185.867 48.6685 184.465 46.118L185.238 45.5794C186.849 47.9308 187.971 50.4761 188.515 53.152L186.904 54.274ZM180.539 40.866C180.127 40.4407 179.696 40.0244 179.25 39.6173L179.435 39.4884C179.918 39.868 180.388 40.2576 180.84 40.6568L180.539 40.866" fill="#F17251"/>
<path d="M149.445 81.6602C149.461 81.6602 149.479 81.6602 149.497 81.6602C149.497 81.6602 149.497 81.6602 149.495 81.6602C149.479 81.6602 149.461 81.6602 149.445 81.6602ZM149.384 81.6602C149.382 81.6602 149.379 81.6602 149.377 81.6602C149.379 81.6602 149.382 81.6602 149.384 81.6602ZM149.511 81.6602C149.526 81.66 149.545 81.66 149.563 81.66C149.56 81.66 149.558 81.66 149.555 81.66C149.542 81.66 149.526 81.66 149.513 81.6602C149.513 81.6602 149.513 81.6602 149.511 81.6602ZM149.324 81.66C149.321 81.66 149.316 81.66 149.313 81.66C149.319 81.66 149.321 81.66 149.324 81.66ZM149.576 81.66C149.587 81.66 149.603 81.66 149.613 81.6598H149.61C149.6 81.66 149.592 81.66 149.582 81.66C149.579 81.66 149.576 81.66 149.576 81.66V81.66ZM149.264 81.6598C149.261 81.6598 149.258 81.6598 149.256 81.6598C149.258 81.6598 149.261 81.6598 149.264 81.6598ZM149.634 81.6598C149.647 81.6598 149.658 81.6596 149.674 81.6596C149.663 81.6596 149.655 81.6598 149.647 81.6598C149.645 81.6598 149.642 81.6598 149.639 81.6598C149.637 81.6598 149.637 81.6598 149.634 81.6598ZM149.203 81.6596C149.2 81.6596 149.198 81.6596 149.195 81.6596C149.198 81.6596 149.2 81.6596 149.203 81.6596ZM149.708 81.6596C149.713 81.6596 149.718 81.6594 149.726 81.6594C149.721 81.6594 149.713 81.6596 149.708 81.6596ZM149.143 81.6594C149.143 81.6594 149.137 81.6594 149.137 81.6592C149.137 81.6594 149.143 81.6594 149.143 81.6594ZM149.082 81.6589C149.08 81.6589 149.08 81.6589 149.077 81.6589C149.08 81.6589 149.08 81.6589 149.082 81.6589ZM149.019 81.6585H149.016C149.019 81.6585 149.019 81.6585 149.019 81.6585ZM154.402 81.4337V81.4333C171.12 79.8924 184.367 70.665 186.609 59.0069V59.0064C184.369 70.6663 171.123 79.8933 154.402 81.4337V81.4337ZM136.122 79.961V79.9606C136.122 79.9606 136.122 79.9608 136.122 79.961ZM136.072 79.948C136.07 79.9471 136.067 79.9465 136.064 79.9456C136.067 79.9465 136.07 79.9471 136.072 79.948ZM136.025 79.935C136.02 79.9339 136.014 79.9322 136.009 79.9309C136.014 79.9322 136.02 79.9339 136.025 79.935ZM135.978 79.9225C135.97 79.9203 135.962 79.9183 135.954 79.9163C135.962 79.9183 135.97 79.9203 135.978 79.9225ZM135.935 79.9109C135.933 79.9106 135.933 79.9106 135.933 79.9102C135.933 79.9104 135.933 79.9106 135.935 79.9109ZM134.64 79.5427C134.474 79.4927 134.309 79.4415 134.143 79.3898L134.14 79.3892C134.125 79.3841 134.106 79.379 134.09 79.3737C134.085 79.372 134.08 79.37 134.075 79.3683C134.064 79.365 134.054 79.3619 134.043 79.3586C131.391 78.5246 128.905 77.4818 126.626 76.2601V76.2596C129.076 77.5729 131.767 78.6798 134.64 79.5427V79.5427ZM125.793 75.801C125.199 75.463 124.615 75.1122 124.05 74.7493C124.011 74.7238 123.972 74.6974 123.932 74.6717C123.927 74.6686 123.922 74.6651 123.919 74.662C124.526 75.0559 125.152 75.4355 125.793 75.801ZM186.943 55.7254C186.943 55.7229 186.943 55.721 186.943 55.7185C186.943 55.7207 186.943 55.7231 186.943 55.7254ZM186.943 55.6968C186.943 55.6915 186.943 55.6862 186.943 55.6809C186.943 55.6862 186.943 55.6915 186.943 55.6968ZM186.943 55.655C186.943 55.647 186.943 55.6385 186.943 55.6305C186.943 55.6387 186.943 55.6468 186.943 55.655ZM186.943 55.6165C186.943 55.607 186.943 55.5964 186.943 55.5868C186.943 55.5967 186.943 55.6066 186.943 55.6165ZM186.943 55.5789C186.943 55.5674 186.943 55.5558 186.943 55.5443C186.943 55.5558 186.943 55.5674 186.943 55.5789ZM186.943 55.5338C186.943 55.5215 186.943 55.5091 186.943 55.4968C186.943 55.5091 186.943 55.5215 186.943 55.5338ZM186.903 54.2746C186.714 51.4117 185.865 48.6688 184.461 46.1186L184.464 46.1183C185.868 48.6686 186.714 51.4114 186.903 54.274V54.2746V54.2746ZM184.143 45.5606C182.419 42.6318 179.954 39.9702 176.91 37.6883C176.921 37.6942 176.929 37.7003 176.939 37.7061C177.751 38.3171 178.522 38.9551 179.25 39.6183V39.6174C179.694 40.0245 180.125 40.4408 180.537 40.8662V40.8664C181.957 42.3327 183.168 43.9038 184.143 45.5606Z" fill="#EB5A44"/>
<path d="M115.278 57.0479C115.278 42.5988 132.068 30.8849 152.776 30.8849C159.752 30.8849 166.282 32.2153 171.876 34.5299C165.62 31.2667 157.855 29.3345 149.444 29.3345C128.733 29.3345 111.943 41.0482 111.943 55.4977C111.943 65.0807 119.33 73.4587 130.346 78.0161C121.199 73.245 115.278 65.6292 115.278 57.0479" fill="#BB2223"/>
<path d="M105.607 71.4702C103.753 68.9955 102.313 66.345 101.359 63.5623C102.315 66.3443 103.755 68.9955 105.609 71.4699L105.607 71.4702Z" fill="white"/>
<path d="M105.608 71.4702C103.753 68.9958 102.314 66.3445 101.359 63.5625C101.224 63.1681 101.099 62.7712 100.983 62.3716L111.958 54.7279C111.95 54.9839 111.943 55.2397 111.943 55.4975C111.943 58.7699 112.804 61.9006 114.377 64.7866C114.453 64.9268 114.53 65.0646 114.61 65.2036L105.608 71.4702" fill="#F17251"/>
<path d="M114.61 65.2036C114.529 65.0646 114.452 64.9268 114.376 64.7866C114.452 64.9261 114.529 65.0651 114.61 65.2033V65.2036" fill="#EB5A44"/>
<path d="M172.427 24.9453C169.104 23.7261 165.556 22.7632 161.841 22.0939C165.559 22.762 169.104 23.725 172.427 24.9446V24.9453Z" fill="white"/>
<path d="M163.423 31.2124C160.064 30.2704 156.466 29.6576 152.708 29.4316V29.4314C152.67 29.4293 152.632 29.427 152.594 29.4249C152.553 29.4224 152.512 29.4201 152.469 29.4178C152.469 29.4176 152.469 29.4176 152.469 29.4176C152.454 29.4167 152.439 29.4158 152.423 29.4151C152.421 29.4149 152.418 29.4148 152.416 29.4148C152.355 29.4114 152.294 29.408 152.231 29.405C152.228 29.4048 152.228 29.4048 152.225 29.4047C152.213 29.4039 152.198 29.4031 152.185 29.4025C152.18 29.4024 152.177 29.4022 152.175 29.402C152.162 29.4013 152.144 29.4006 152.134 29.4C152.129 29.3999 152.126 29.3997 152.121 29.3995C152.078 29.3972 152.032 29.3951 151.989 29.393C151.987 29.393 151.987 29.3928 151.984 29.3928C151.972 29.3923 151.959 29.3915 151.944 29.391C151.941 29.3908 151.936 29.3907 151.931 29.3903C151.918 29.3898 151.905 29.3891 151.893 29.3885C151.888 29.3884 151.883 29.3882 151.88 29.388C151.867 29.3875 151.852 29.3868 151.839 29.3862C151.837 29.3862 151.834 29.3861 151.832 29.3859C151.804 29.3846 151.779 29.3836 151.748 29.3823C151.746 29.3822 151.743 29.3822 151.74 29.382C151.73 29.3814 151.718 29.3809 151.705 29.3806C151.7 29.3802 151.695 29.38 151.69 29.3799C151.677 29.3793 151.664 29.3788 151.654 29.3783C151.646 29.3781 151.641 29.3777 151.634 29.3775C151.624 29.377 151.611 29.3767 151.601 29.3761C151.596 29.376 151.591 29.3758 151.583 29.3756C151.545 29.374 151.507 29.3726 151.466 29.3712C151.459 29.3708 151.453 29.3706 151.446 29.3703C151.436 29.3699 151.423 29.3696 151.415 29.3692C151.408 29.3689 151.4 29.3687 151.393 29.3683C151.38 29.368 151.37 29.3676 151.36 29.3673C151.352 29.3669 151.344 29.3667 151.337 29.3664C151.327 29.366 151.316 29.3657 151.306 29.3655C151.296 29.365 151.283 29.3646 151.273 29.3643C151.258 29.3637 151.243 29.3632 151.23 29.3628C151.22 29.3625 151.212 29.3623 151.205 29.362C151.192 29.3616 151.184 29.3614 151.174 29.3611C151.167 29.3607 151.156 29.3605 151.146 29.3602C151.139 29.36 151.128 29.3597 151.121 29.3593C151.111 29.3591 151.101 29.3588 151.093 29.3586C151.083 29.3582 151.075 29.3579 151.065 29.3577C151.055 29.3574 151.045 29.357 151.035 29.3568C151.019 29.3563 151.007 29.3559 150.991 29.3556C150.981 29.3552 150.971 29.355 150.961 29.3547C150.951 29.3545 150.943 29.3542 150.936 29.354C150.925 29.3536 150.915 29.3535 150.905 29.3533C150.895 29.3529 150.887 29.3527 150.88 29.3526C150.869 29.3522 150.859 29.352 150.849 29.3517C150.842 29.3515 150.831 29.3512 150.824 29.351C150.811 29.3508 150.801 29.3504 150.791 29.3503C150.783 29.3501 150.776 29.3499 150.77 29.3497C150.753 29.3492 150.735 29.3488 150.717 29.3485C150.709 29.3483 150.702 29.3481 150.694 29.348C150.684 29.3478 150.674 29.3474 150.661 29.3473C150.654 29.3471 150.646 29.3469 150.638 29.3467C150.626 29.3465 150.616 29.3462 150.608 29.346C150.598 29.3458 150.59 29.3457 150.583 29.3455C150.57 29.3453 150.56 29.3451 150.55 29.3448C150.542 29.3446 150.532 29.3444 150.527 29.3444C150.509 29.3441 150.491 29.3437 150.473 29.3434C150.468 29.3432 150.466 29.3432 150.458 29.343C150.445 29.3428 150.43 29.3426 150.417 29.3423C150.41 29.3421 150.405 29.3421 150.397 29.3419C150.387 29.3418 150.374 29.3416 150.362 29.3414C150.354 29.3412 150.349 29.3411 150.339 29.3411C150.329 29.3409 150.316 29.3407 150.306 29.3405C150.298 29.3403 150.293 29.3402 150.285 29.3402C150.27 29.34 150.255 29.3396 150.24 29.3395C150.235 29.3395 150.227 29.3393 150.222 29.3393C150.207 29.3389 150.192 29.3387 150.176 29.3386C150.169 29.3386 150.164 29.3384 150.156 29.3384C150.143 29.338 150.131 29.3379 150.12 29.3379C150.113 29.3377 150.105 29.3377 150.098 29.3375C150.085 29.3373 150.075 29.3373 150.062 29.3372C150.054 29.337 150.047 29.337 150.042 29.337C150.026 29.3368 150.014 29.3366 149.999 29.3365C149.996 29.3365 149.991 29.3364 149.986 29.3363C149.968 29.3361 149.95 29.3359 149.93 29.3357C149.925 29.3357 149.922 29.3357 149.917 29.3357C149.905 29.3356 149.889 29.3354 149.877 29.3354C149.869 29.3354 149.861 29.3352 149.854 29.3352C149.844 29.3352 149.831 29.335 149.818 29.335C149.813 29.3349 149.806 29.3349 149.8 29.3349C149.785 29.3347 149.773 29.3347 149.76 29.3345C149.755 29.3345 149.747 29.3345 149.742 29.3345C149.724 29.3343 149.707 29.3343 149.689 29.3341C149.686 29.3341 149.679 29.3341 149.676 29.3341C149.673 29.3341 149.671 29.3341 149.668 29.3341C149.656 29.3341 149.646 29.334 149.633 29.334C149.628 29.334 149.623 29.334 149.618 29.334C149.615 29.334 149.613 29.334 149.61 29.334C149.6 29.334 149.587 29.3338 149.574 29.3338C149.569 29.3338 149.564 29.3338 149.559 29.3338C149.557 29.3338 149.554 29.3338 149.554 29.3338C149.541 29.3338 149.529 29.3338 149.519 29.3338C149.511 29.3338 149.508 29.3338 149.501 29.3338H149.498C149.478 29.3336 149.46 29.3336 149.442 29.3336C149.427 29.3336 149.412 29.3336 149.397 29.3338C149.069 29.334 148.742 29.3372 148.414 29.3434L159.391 21.6998C160.216 21.8169 161.031 21.9483 161.841 22.0936C165.556 22.7629 169.101 23.7258 172.425 24.945L163.423 31.2124" fill="#F17251"/>
<path d="M163.425 31.2124C160.911 30.5072 158.263 29.9866 155.513 29.6745C155.511 29.6741 155.506 29.6736 155.503 29.6732C155.491 29.6717 155.476 29.6701 155.461 29.6686C155.456 29.6681 155.451 29.6674 155.446 29.6668C155.434 29.6654 155.424 29.6642 155.411 29.6628C155.404 29.6622 155.399 29.6615 155.392 29.6608C155.382 29.6596 155.369 29.6582 155.357 29.657C155.352 29.6563 155.347 29.6556 155.339 29.6551C155.327 29.6537 155.315 29.6523 155.302 29.6509C155.292 29.6499 155.282 29.6486 155.272 29.6476C155.26 29.6464 155.25 29.6452 155.24 29.644C155.23 29.6429 155.22 29.6421 155.21 29.6408C155.203 29.6401 155.198 29.6393 155.188 29.6384C155.178 29.6376 155.168 29.6363 155.158 29.6353C155.151 29.6346 155.146 29.6337 155.138 29.633C155.128 29.632 155.118 29.631 155.108 29.6299C155.101 29.6292 155.093 29.6285 155.088 29.6278C155.076 29.6266 155.066 29.6256 155.056 29.6244C155.049 29.6239 155.046 29.6233 155.041 29.623C154.984 29.6169 154.927 29.611 154.867 29.6051C154.865 29.605 154.862 29.6046 154.86 29.6043C154.848 29.6031 154.833 29.6017 154.82 29.6003C154.818 29.6001 154.813 29.5998 154.81 29.5994C154.798 29.598 154.783 29.5967 154.771 29.5954C154.768 29.5951 154.766 29.5949 154.763 29.5946C154.686 29.5871 154.609 29.5795 154.532 29.5722C154.532 29.5722 154.53 29.5722 154.53 29.572C154.515 29.5707 154.5 29.5691 154.485 29.5679C154.485 29.5677 154.482 29.5675 154.482 29.5675C154.465 29.566 154.453 29.5646 154.435 29.5632C154.435 29.5632 154.435 29.5632 154.433 29.563C154.356 29.5557 154.276 29.5486 154.199 29.5417C154.199 29.5417 154.197 29.5417 154.197 29.5415C154.182 29.5403 154.167 29.5389 154.15 29.5375C154.15 29.5375 154.15 29.5376 154.15 29.5374C154.07 29.5304 153.991 29.5237 153.911 29.5171C153.896 29.5159 153.881 29.5147 153.866 29.5135C153.864 29.5133 153.861 29.5133 153.861 29.5131C153.846 29.5119 153.832 29.5107 153.817 29.5095C153.817 29.5093 153.814 29.5091 153.812 29.5091C153.737 29.5029 153.658 29.4968 153.583 29.4909C153.578 29.4908 153.576 29.4906 153.573 29.4902C153.561 29.4892 153.546 29.4883 153.533 29.4873C153.531 29.4869 153.526 29.4868 153.524 29.4864C153.509 29.4856 153.496 29.4845 153.484 29.4835C153.481 29.4833 153.476 29.483 153.474 29.4828C153.461 29.4817 153.447 29.4807 153.432 29.4797C153.387 29.4764 153.345 29.4733 153.298 29.47C153.295 29.4696 153.29 29.4694 153.285 29.4691C153.275 29.4684 153.263 29.4675 153.253 29.4667C153.245 29.4663 153.24 29.466 153.233 29.4655C153.223 29.4646 153.213 29.4639 153.203 29.4632C153.196 29.4629 153.188 29.4622 153.181 29.4618C153.171 29.4611 153.161 29.4604 153.148 29.4596C153.143 29.4592 153.136 29.4587 153.131 29.4583C153.119 29.4575 153.109 29.4568 153.099 29.4561C153.091 29.4558 153.084 29.4551 153.076 29.4547C153.059 29.4535 153.039 29.4521 153.022 29.4511C153.014 29.4506 153.007 29.4499 152.999 29.4495C152.989 29.4488 152.98 29.4483 152.97 29.4476C152.962 29.4471 152.955 29.4466 152.947 29.446C152.937 29.4455 152.927 29.4448 152.92 29.4443C152.91 29.4438 152.9 29.4433 152.893 29.4426C152.885 29.4421 152.875 29.4415 152.868 29.441C152.858 29.4403 152.848 29.4398 152.838 29.4393C152.831 29.4388 152.823 29.4382 152.816 29.4377C152.803 29.437 152.796 29.4365 152.786 29.436C152.778 29.4355 152.768 29.435 152.761 29.4344C152.746 29.4336 152.726 29.4324 152.711 29.4313C156.467 29.6575 160.066 30.2703 163.425 31.2122V31.2124V31.2124ZM152.709 29.4313C152.706 29.4311 152.704 29.431 152.699 29.4308C152.686 29.4299 152.672 29.4291 152.657 29.4282C152.652 29.4278 152.647 29.4275 152.639 29.4272C152.627 29.4265 152.617 29.4258 152.604 29.4251C152.602 29.4249 152.599 29.4247 152.597 29.4246C152.634 29.4268 152.672 29.4291 152.709 29.4313V29.4313ZM152.597 29.4246C152.592 29.4244 152.587 29.4242 152.585 29.4239C152.572 29.4232 152.562 29.4226 152.55 29.422C152.545 29.4216 152.537 29.4213 152.532 29.4209C152.518 29.4202 152.505 29.4195 152.495 29.4188C152.49 29.4185 152.483 29.4181 152.478 29.418C152.475 29.4178 152.473 29.4176 152.47 29.4175C152.513 29.4199 152.555 29.4221 152.597 29.4246ZM152.47 29.4175C152.455 29.4166 152.441 29.4157 152.426 29.4149C152.441 29.4157 152.455 29.4166 152.47 29.4175ZM152.418 29.4145C152.383 29.4126 152.349 29.4109 152.314 29.409C152.314 29.409 152.311 29.4088 152.306 29.4086C152.291 29.4077 152.277 29.4071 152.259 29.4062C152.257 29.406 152.254 29.4058 152.249 29.4057C152.244 29.4053 152.239 29.405 152.232 29.4048C152.294 29.4079 152.356 29.4112 152.418 29.4145ZM152.227 29.4045C152.219 29.4041 152.212 29.4036 152.205 29.4032C152.2 29.4031 152.197 29.4031 152.195 29.4029C152.192 29.4027 152.19 29.4025 152.185 29.4024C152.197 29.4031 152.214 29.4038 152.227 29.4045V29.4045ZM152.175 29.4019C152.165 29.4013 152.152 29.4008 152.142 29.4001C152.14 29.3999 152.137 29.3999 152.135 29.3998C152.147 29.4005 152.162 29.4012 152.175 29.4019V29.4019ZM152.123 29.3992C152.078 29.397 152.036 29.3949 151.991 29.3928C152.036 29.3949 152.08 29.397 152.123 29.3992ZM151.986 29.3927C151.971 29.392 151.961 29.3915 151.946 29.3908C151.961 29.3915 151.971 29.392 151.986 29.3927ZM151.931 29.3901C151.926 29.3899 151.921 29.3897 151.916 29.3894C151.914 29.3894 151.914 29.3894 151.911 29.3892C151.906 29.389 151.899 29.3887 151.894 29.3885C151.906 29.389 151.921 29.3895 151.931 29.3901V29.3901ZM151.879 29.3878C151.867 29.3873 151.854 29.3868 151.842 29.3861C151.854 29.3866 151.867 29.3873 151.879 29.3878ZM151.832 29.3857C151.805 29.3845 151.777 29.3833 151.75 29.3821C151.78 29.3835 151.805 29.3845 151.832 29.3857ZM151.743 29.3819C151.73 29.3814 151.718 29.3809 151.708 29.3804C151.718 29.3809 151.73 29.3814 151.743 29.3819ZM151.69 29.3797C151.678 29.3791 151.666 29.3786 151.656 29.3781C151.666 29.3786 151.678 29.3791 151.69 29.3797ZM151.636 29.3774C151.623 29.3769 151.613 29.3765 151.601 29.376C151.613 29.3765 151.623 29.3769 151.636 29.3774ZM151.584 29.3753C151.546 29.3739 151.507 29.3724 151.469 29.371C151.507 29.3724 151.546 29.3739 151.584 29.3753ZM151.447 29.3701C151.437 29.3698 151.425 29.3694 151.415 29.3691C151.425 29.3694 151.437 29.3698 151.447 29.3701ZM151.392 29.3682C151.382 29.3679 151.372 29.3675 151.362 29.3672C151.372 29.3675 151.382 29.3679 151.392 29.3682ZM151.338 29.3663C151.328 29.366 151.318 29.3655 151.308 29.3653C151.318 29.3655 151.328 29.366 151.338 29.3663ZM151.273 29.3641C151.261 29.3637 151.246 29.363 151.231 29.3627C151.246 29.363 151.261 29.3637 151.273 29.3641ZM151.206 29.3618C151.194 29.3615 151.186 29.3611 151.176 29.3608C151.186 29.3611 151.194 29.3615 151.206 29.3618ZM151.149 29.3601C151.139 29.3597 151.129 29.3596 151.122 29.3592C151.129 29.3594 151.141 29.3597 151.149 29.3601ZM151.094 29.3583C151.084 29.358 151.074 29.3578 151.067 29.3575C151.077 29.3578 151.084 29.358 151.094 29.3583ZM151.037 29.3566C151.022 29.3563 151.007 29.3559 150.995 29.3554C151.01 29.3559 151.02 29.3563 151.037 29.3566ZM150.963 29.3545C150.953 29.3544 150.943 29.354 150.935 29.3538C150.945 29.354 150.953 29.3544 150.963 29.3545ZM150.905 29.3532C150.898 29.3528 150.888 29.3525 150.881 29.3523C150.891 29.3526 150.898 29.3528 150.905 29.3532ZM150.851 29.3516C150.841 29.3514 150.833 29.3512 150.826 29.3509C150.833 29.3511 150.843 29.3514 150.851 29.3516ZM150.791 29.35C150.786 29.3499 150.779 29.3497 150.771 29.3495C150.779 29.3497 150.784 29.3499 150.791 29.35ZM150.719 29.3483C150.712 29.3481 150.704 29.348 150.697 29.3478C150.702 29.348 150.712 29.3481 150.719 29.3483ZM150.662 29.3471C150.655 29.3469 150.647 29.3467 150.64 29.3466C150.647 29.3467 150.655 29.3469 150.662 29.3471ZM150.61 29.3459C150.6 29.3457 150.59 29.3455 150.582 29.3454C150.592 29.3455 150.6 29.3457 150.61 29.3459ZM150.55 29.3447C150.543 29.3445 150.535 29.3443 150.528 29.3443C150.535 29.3443 150.543 29.3445 150.55 29.3447ZM150.476 29.3431C150.471 29.3431 150.466 29.3429 150.461 29.3429C150.466 29.3429 150.468 29.3431 150.476 29.3431ZM150.421 29.3422C150.411 29.3421 150.406 29.3419 150.399 29.3419C150.406 29.3419 150.411 29.3421 150.421 29.3422ZM150.364 29.3412C150.356 29.3412 150.349 29.341 150.342 29.3408C150.349 29.341 150.356 29.3412 150.364 29.3412ZM150.307 29.3403C150.299 29.3402 150.292 29.34 150.287 29.34C150.294 29.34 150.299 29.3402 150.307 29.3403ZM150.242 29.3393C150.235 29.3393 150.23 29.3391 150.222 29.3391C150.23 29.3391 150.235 29.3393 150.242 29.3393ZM150.178 29.3384C150.17 29.3384 150.163 29.3382 150.158 29.3382C150.163 29.3382 150.17 29.3384 150.178 29.3384ZM150.12 29.3377C150.113 29.3376 150.108 29.3376 150.101 29.3374C150.108 29.3376 150.113 29.3376 150.12 29.3377ZM150.063 29.337C150.056 29.3369 150.051 29.3369 150.043 29.3369C150.048 29.3369 150.056 29.3369 150.063 29.337ZM150.001 29.3363C149.996 29.3363 149.994 29.3363 149.986 29.3362C149.991 29.3363 149.996 29.3363 150.001 29.3363ZM149.932 29.3356C149.929 29.3356 149.924 29.3356 149.917 29.3355C149.924 29.3356 149.927 29.3356 149.932 29.3356ZM149.877 29.3351C149.87 29.3351 149.865 29.3351 149.857 29.3351C149.862 29.3351 149.87 29.3351 149.877 29.3351ZM149.82 29.3348C149.812 29.3348 149.807 29.3348 149.8 29.3346C149.805 29.3348 149.812 29.3348 149.82 29.3348ZM149.76 29.3344C149.755 29.3344 149.75 29.3344 149.745 29.3343C149.75 29.3344 149.755 29.3344 149.76 29.3344ZM149.688 29.3341C149.686 29.3341 149.681 29.3341 149.678 29.3341C149.681 29.3341 149.686 29.3341 149.688 29.3341ZM149.634 29.3339C149.629 29.3339 149.626 29.3339 149.624 29.3339C149.621 29.3339 149.621 29.3337 149.619 29.3337C149.624 29.3339 149.629 29.3339 149.634 29.3339ZM149.576 29.3337C149.574 29.3337 149.572 29.3337 149.569 29.3337C149.567 29.3337 149.564 29.3337 149.562 29.3337C149.567 29.3337 149.572 29.3337 149.576 29.3337V29.3337ZM149.519 29.3336C149.517 29.3336 149.514 29.3336 149.512 29.3336C149.509 29.3336 149.507 29.3336 149.502 29.3336C149.509 29.3336 149.512 29.3336 149.519 29.3336" fill="#EB5A44"/>
<path d="M163.422 31.2129C160.911 30.507 158.263 29.9862 155.513 29.6741C158.263 29.9862 160.911 30.5068 163.424 31.212L163.422 31.2129ZM155.503 29.6729C155.49 29.6713 155.476 29.6698 155.461 29.6682C155.476 29.6698 155.49 29.6713 155.503 29.6729ZM155.446 29.6665C155.433 29.6651 155.423 29.6639 155.411 29.6625C155.423 29.6639 155.433 29.6651 155.446 29.6665ZM155.391 29.6604C155.381 29.6592 155.369 29.658 155.356 29.6566C155.369 29.6578 155.381 29.6592 155.391 29.6604ZM155.339 29.6547C155.327 29.6531 155.314 29.6519 155.302 29.6505C155.314 29.6519 155.327 29.6533 155.339 29.6547ZM155.272 29.6472C155.259 29.646 155.25 29.6448 155.24 29.6436C155.25 29.6448 155.259 29.646 155.272 29.6472ZM155.21 29.6405C155.202 29.6398 155.195 29.6389 155.187 29.638C155.197 29.6389 155.202 29.6398 155.21 29.6405ZM155.158 29.6349C155.15 29.6342 155.145 29.6334 155.138 29.6327C155.145 29.6334 155.15 29.6342 155.158 29.6349ZM155.108 29.6295C155.1 29.6289 155.093 29.6282 155.088 29.6275C155.093 29.6282 155.1 29.6289 155.108 29.6295ZM155.056 29.624C155.051 29.6235 155.046 29.623 155.041 29.6226C155.046 29.623 155.048 29.6235 155.056 29.624ZM154.867 29.6048C154.864 29.6046 154.862 29.6042 154.86 29.6039C154.862 29.6042 154.864 29.6046 154.867 29.6048ZM154.82 29.5999C154.817 29.5997 154.812 29.5994 154.81 29.599C154.812 29.5994 154.817 29.5997 154.82 29.5999ZM154.77 29.5951C154.768 29.5947 154.765 29.5945 154.763 29.5942C154.765 29.5945 154.768 29.5947 154.77 29.5951ZM154.532 29.5718C154.532 29.5718 154.529 29.5718 154.529 29.5717C154.529 29.5718 154.532 29.5718 154.532 29.5718ZM154.484 29.5675C154.484 29.5673 154.482 29.5672 154.482 29.5672C154.482 29.5672 154.484 29.5673 154.484 29.5675ZM154.435 29.5628C154.435 29.5628 154.435 29.5628 154.432 29.5627C154.435 29.5628 154.435 29.5628 154.435 29.5628ZM154.199 29.5413L154.196 29.5412C154.196 29.5413 154.199 29.5413 154.199 29.5413ZM154.149 29.5372V29.537C154.149 29.5372 154.149 29.5372 154.149 29.5372ZM153.866 29.5131C153.863 29.5129 153.861 29.5129 153.861 29.5127C153.861 29.5129 153.863 29.5129 153.866 29.5131ZM153.816 29.5091C153.816 29.5089 153.814 29.5088 153.811 29.5088C153.814 29.5088 153.816 29.5089 153.816 29.5091ZM153.583 29.4906C153.578 29.4904 153.575 29.4902 153.573 29.4899C153.575 29.4902 153.578 29.4904 153.583 29.4906ZM153.533 29.4869C153.531 29.4866 153.526 29.4864 153.523 29.4861C153.526 29.4864 153.531 29.4866 153.533 29.4869ZM153.483 29.4831C153.478 29.4829 153.476 29.4828 153.473 29.4824C153.476 29.4826 153.481 29.4829 153.483 29.4831ZM153.297 29.4696C153.295 29.4692 153.29 29.4691 153.285 29.4687C153.29 29.4691 153.295 29.4692 153.297 29.4696ZM153.252 29.4663C153.245 29.4659 153.24 29.4654 153.233 29.4651C153.24 29.4656 153.245 29.4659 153.252 29.4663ZM153.203 29.4628C153.193 29.4623 153.188 29.462 153.18 29.4614C153.188 29.4618 153.195 29.4625 153.203 29.4628ZM153.148 29.4592C153.143 29.4588 153.136 29.4583 153.131 29.458C153.136 29.4583 153.143 29.4588 153.148 29.4592ZM153.098 29.4557C153.091 29.4554 153.083 29.4547 153.076 29.4543C153.083 29.4547 153.091 29.4554 153.098 29.4557ZM153.021 29.4507C153.014 29.4502 153.006 29.4497 152.999 29.4491C153.006 29.4495 153.014 29.4502 153.021 29.4507ZM152.969 29.4472C152.962 29.4467 152.954 29.4462 152.947 29.4457C152.954 29.4462 152.962 29.4467 152.969 29.4472ZM152.92 29.4439C152.91 29.4434 152.9 29.4429 152.892 29.4422C152.9 29.4429 152.91 29.4434 152.92 29.4439ZM152.867 29.4406C152.857 29.44 152.847 29.4394 152.838 29.4389C152.847 29.4394 152.857 29.44 152.867 29.4406ZM152.815 29.4374C152.803 29.4367 152.795 29.4361 152.785 29.4356C152.795 29.4361 152.803 29.4367 152.815 29.4374ZM152.761 29.4341C152.746 29.433 152.728 29.432 152.711 29.4309C152.726 29.432 152.746 29.4332 152.761 29.4341ZM152.698 29.4304C152.686 29.4296 152.671 29.4287 152.656 29.4278C152.671 29.4287 152.686 29.4296 152.698 29.4304ZM152.639 29.4268C152.626 29.4261 152.616 29.4254 152.604 29.4247C152.616 29.4254 152.626 29.4261 152.639 29.4268ZM152.584 29.4235C152.572 29.4228 152.562 29.4223 152.549 29.4216C152.562 29.4223 152.572 29.4228 152.584 29.4235ZM152.532 29.4205C152.517 29.4198 152.505 29.4192 152.495 29.4185C152.505 29.4192 152.517 29.4198 152.532 29.4205ZM152.477 29.4176C152.423 29.4145 152.368 29.4115 152.313 29.4086C152.348 29.4105 152.383 29.4122 152.418 29.4141C152.42 29.4143 152.423 29.4145 152.425 29.4145C152.44 29.4153 152.455 29.4162 152.47 29.4171C152.472 29.4172 152.475 29.4174 152.477 29.4176V29.4176ZM152.306 29.4082C152.291 29.4074 152.276 29.4067 152.259 29.4058C152.276 29.4067 152.291 29.4074 152.306 29.4082ZM152.249 29.4053C152.234 29.4044 152.219 29.4037 152.204 29.4029C152.212 29.4032 152.219 29.4037 152.226 29.4041C152.229 29.4043 152.229 29.4043 152.231 29.4044C152.239 29.4046 152.244 29.4049 152.249 29.4053V29.4053ZM152.194 29.4025C152.177 29.4016 152.159 29.4008 152.142 29.3997C152.152 29.4004 152.164 29.401 152.174 29.4015C152.179 29.4017 152.182 29.4018 152.184 29.402C152.189 29.4022 152.192 29.4023 152.194 29.4025V29.4025ZM152.142 29.3997C152.067 29.3961 151.991 29.3925 151.916 29.389C151.921 29.3893 151.926 29.3895 151.931 29.3897C151.936 29.39 151.941 29.3902 151.946 29.3904C151.961 29.3911 151.971 29.3916 151.986 29.3923C151.988 29.3923 151.988 29.3923 151.991 29.3925C152.035 29.3945 152.077 29.3966 152.122 29.3989C152.127 29.399 152.132 29.3992 152.135 29.3994C152.137 29.3996 152.14 29.3996 152.142 29.3997ZM151.911 29.3888C151.173 29.3554 150.428 29.3368 149.678 29.3337C149.68 29.3337 149.685 29.3337 149.688 29.3337C149.705 29.3337 149.725 29.3339 149.745 29.3339C149.75 29.3341 149.755 29.3341 149.76 29.3341C149.772 29.3341 149.787 29.3342 149.8 29.3342C149.807 29.3344 149.812 29.3344 149.819 29.3344C149.832 29.3346 149.844 29.3346 149.857 29.3348C149.864 29.3348 149.869 29.3348 149.877 29.3348C149.892 29.3349 149.904 29.3351 149.916 29.3351C149.924 29.3353 149.929 29.3353 149.931 29.3353C149.951 29.3354 149.969 29.3356 149.986 29.3358C149.993 29.336 149.996 29.336 150.001 29.336C150.013 29.3361 150.028 29.3363 150.043 29.3365C150.05 29.3365 150.055 29.3365 150.063 29.3367C150.075 29.3368 150.085 29.3368 150.1 29.337C150.108 29.3372 150.113 29.3372 150.12 29.3374C150.132 29.3374 150.145 29.3375 150.157 29.3379C150.162 29.3379 150.17 29.338 150.177 29.338C150.192 29.3382 150.207 29.3384 150.222 29.3387C150.229 29.3387 150.234 29.3389 150.242 29.3389C150.257 29.3391 150.269 29.3394 150.286 29.3396C150.291 29.3396 150.299 29.3398 150.306 29.34C150.319 29.3401 150.329 29.3403 150.341 29.3405C150.349 29.3406 150.356 29.3408 150.363 29.3408C150.373 29.341 150.388 29.3413 150.398 29.3415C150.406 29.3415 150.411 29.3417 150.421 29.3419C150.433 29.342 150.445 29.3422 150.46 29.3425C150.465 29.3425 150.47 29.3427 150.475 29.3427C150.493 29.3432 150.51 29.3436 150.527 29.3439C150.535 29.3439 150.542 29.3441 150.55 29.3443C150.56 29.3445 150.572 29.3446 150.582 29.345C150.59 29.3452 150.599 29.3453 150.609 29.3455C150.617 29.3457 150.627 29.346 150.639 29.3462C150.647 29.3464 150.654 29.3465 150.662 29.3467C150.674 29.3469 150.684 29.3472 150.696 29.3474C150.704 29.3476 150.711 29.3477 150.719 29.3479C150.736 29.3484 150.753 29.3488 150.771 29.3491C150.778 29.3493 150.786 29.3495 150.791 29.3497C150.803 29.35 150.813 29.3502 150.825 29.3505C150.833 29.3509 150.84 29.351 150.85 29.3512C150.86 29.3514 150.87 29.3517 150.88 29.3519C150.888 29.3521 150.898 29.3524 150.905 29.3528C150.915 29.353 150.925 29.3531 150.935 29.3535C150.942 29.3536 150.952 29.354 150.962 29.3542C150.972 29.3545 150.982 29.3547 150.994 29.355C151.007 29.3556 151.022 29.3559 151.037 29.3562C151.047 29.3566 151.054 29.3569 151.066 29.3571C151.074 29.3575 151.084 29.3576 151.094 29.358C151.104 29.3583 151.111 29.3585 151.121 29.3588C151.129 29.3592 151.138 29.3594 151.148 29.3597C151.156 29.3599 151.168 29.3602 151.176 29.3604C151.186 29.3608 151.193 29.3611 151.206 29.3614C151.213 29.3618 151.22 29.362 151.23 29.3623C151.245 29.3627 151.26 29.3633 151.273 29.3637C151.285 29.364 151.295 29.3644 151.307 29.3649C151.317 29.3651 151.327 29.3656 151.337 29.3659C151.345 29.3661 151.355 29.3665 151.362 29.3668C151.372 29.3672 151.382 29.3675 151.392 29.3679C151.399 29.3682 151.407 29.3684 151.414 29.3687C151.424 29.3691 151.437 29.3694 151.446 29.3698C151.454 29.3701 151.461 29.3705 151.469 29.3706C151.506 29.372 151.546 29.3736 151.583 29.375C151.591 29.3751 151.596 29.3755 151.601 29.3757C151.613 29.3762 151.623 29.3765 151.635 29.377C151.643 29.3772 151.648 29.3776 151.655 29.3777C151.665 29.3783 151.678 29.3788 151.69 29.3793C151.695 29.3795 151.7 29.3796 151.707 29.38C151.717 29.3805 151.73 29.381 151.742 29.3815C151.745 29.3815 151.747 29.3817 151.75 29.3817C151.777 29.3829 151.804 29.3841 151.832 29.3854C151.836 29.3855 151.839 29.3857 151.841 29.3857C151.854 29.3864 151.866 29.3869 151.879 29.3874C151.884 29.3876 151.889 29.388 151.894 29.3881C151.899 29.3883 151.906 29.3886 151.911 29.3888V29.3888ZM148.416 29.3429C148.741 29.3367 149.069 29.3335 149.4 29.3332C149.069 29.3335 148.741 29.3373 148.416 29.3429ZM149.67 29.3337C149.653 29.3335 149.641 29.3335 149.623 29.3335C149.626 29.3335 149.628 29.3335 149.633 29.3335C149.646 29.3335 149.658 29.3335 149.67 29.3337ZM149.611 29.3334C149.596 29.3334 149.581 29.3334 149.569 29.3334C149.571 29.3334 149.574 29.3334 149.576 29.3334C149.588 29.3334 149.598 29.3334 149.611 29.3334V29.3334ZM149.554 29.3334C149.541 29.3332 149.526 29.3332 149.511 29.3332C149.514 29.3332 149.516 29.3332 149.519 29.3332C149.531 29.3332 149.541 29.3332 149.554 29.3334V29.3334ZM149.499 29.3332C149.479 29.333 149.462 29.333 149.444 29.333C149.462 29.333 149.479 29.333 149.499 29.3332Z" fill="#CA3F32"/>
<path d="M118.113 82.1855C117.303 81.7218 116.514 81.2402 115.748 80.7421C116.514 81.2396 117.303 81.7223 118.113 82.1855Z" fill="#CA3F32"/>
<path d="M118.114 82.1855C117.303 81.7221 116.513 81.2394 115.748 80.7421C114.988 80.2475 114.252 79.7368 113.539 79.2106L121.994 73.3228C122.614 73.7886 123.262 74.239 123.933 74.6722C124.729 75.2708 125.567 75.8433 126.443 76.3873L118.114 82.1855" fill="#F17251"/>
<path d="M126.625 76.2598C126.347 76.1098 126.069 75.9566 125.793 75.8011C126.069 75.9566 126.347 76.1093 126.627 76.2591L126.625 76.2598Z" fill="#EB5A44"/>
<path d="M126.442 76.3877C125.568 75.8435 124.73 75.2712 123.931 74.6727C123.971 74.6984 124.012 74.7242 124.05 74.7497C124.877 75.2798 125.735 75.7836 126.625 76.2607L126.442 76.3877" fill="#F48F74"/>
<path d="M126.625 76.2607C125.735 75.7837 124.877 75.2798 124.05 74.7498C124.615 75.1128 125.197 75.4637 125.794 75.8016C126.067 75.957 126.345 76.1101 126.625 76.2601V76.2607" fill="#EF7967"/>
<path d="M179.435 39.4883C178.648 38.8689 177.815 38.2764 176.949 37.7119C176.338 37.2527 175.704 36.809 175.048 36.3813L183.506 30.492C185.017 31.4941 186.439 32.5639 187.759 33.6918L179.435 39.4883Z" fill="#F17251"/>
<path d="M176.947 37.7124C176.945 37.7104 176.94 37.7083 176.937 37.7063C176.331 37.2498 175.7 36.8083 175.048 36.3824V36.3819C175.705 36.8096 176.336 37.2532 176.947 37.7124Z" fill="#EB5A44"/>
<path d="M179.25 39.6177C178.525 38.9568 177.758 38.3216 176.947 37.7125C177.817 38.2769 178.646 38.8695 179.433 39.4889L179.25 39.6177" fill="#F48F74"/>
<path d="M179.251 39.6182C178.523 38.9547 177.753 38.3169 176.94 37.7059C176.943 37.7079 176.946 37.71 176.948 37.712C177.759 38.321 178.525 38.9564 179.251 39.6173V39.6182" fill="#EF7967"/>
<path d="M126.889 86.2051C124.41 85.3153 122.051 84.2864 119.836 83.1291L119.838 83.1281C122.053 84.2854 124.41 85.3153 126.891 86.2041L126.889 86.2051" fill="#CA3F32"/>
<path d="M126.892 86.2046C124.41 85.3157 122.053 84.286 119.84 83.1286L128.112 77.3676C130.281 78.5668 132.643 79.6025 135.161 80.4473L126.892 86.2046V86.2046ZM135.9 79.902C135.898 79.9016 135.898 79.9013 135.895 79.9012C135.898 79.9013 135.898 79.9016 135.9 79.902Z" fill="#F17251"/>
<path d="M135.932 79.9106C135.92 79.9076 135.911 79.9048 135.899 79.9018C135.899 79.9016 135.897 79.9013 135.895 79.901C135.476 79.7869 135.054 79.6675 134.642 79.5431C135.068 79.6709 135.499 79.7935 135.932 79.9105V79.9106Z" fill="#EB5A44"/>
<path d="M135.161 80.4473C132.641 79.6024 130.28 78.5668 128.11 77.3677L128.409 77.1606C130.185 78.0011 132.067 78.738 134.042 79.3593C134.054 79.3624 134.063 79.3659 134.072 79.369C134.079 79.3708 134.084 79.3725 134.091 79.3743C134.107 79.3798 134.123 79.3845 134.139 79.39C134.139 79.3901 134.142 79.3903 134.142 79.3905C134.718 79.5707 135.304 79.7408 135.895 79.9011C135.897 79.9014 135.899 79.9017 135.899 79.9019C135.908 79.9046 135.922 79.908 135.932 79.9108L135.161 80.4473Z" fill="#F48F74"/>
<path d="M135.932 79.9106C135.923 79.9079 135.909 79.9045 135.899 79.9018C135.911 79.9048 135.92 79.9076 135.932 79.9106ZM135.895 79.901C135.304 79.7407 134.719 79.5706 134.142 79.3903C134.309 79.442 134.473 79.4931 134.642 79.5431C135.054 79.6675 135.476 79.7869 135.895 79.901ZM134.14 79.3898C134.123 79.3843 134.107 79.3797 134.091 79.3742C134.107 79.3793 134.123 79.3847 134.14 79.3898ZM134.073 79.3688C134.063 79.3658 134.054 79.3622 134.042 79.3592C134.054 79.3624 134.063 79.3656 134.073 79.3688Z" fill="#EF7967"/>
<path d="M192.556 38.5923C191.517 37.3078 190.364 36.0731 189.11 34.8975C190.367 36.0728 191.517 37.3069 192.556 38.5923Z" fill="white"/>
<path d="M185.236 45.5801C184.029 43.8218 182.551 42.1715 180.838 40.6574L189.108 34.8983C190.364 36.0738 191.517 37.3086 192.555 38.5931C192.881 38.9986 193.196 39.4089 193.5 39.8245L185.236 45.5801" fill="#F17251"/>
<path d="M184.461 46.1191C184.359 45.9321 184.252 45.7461 184.143 45.5611C184.252 45.7458 184.359 45.9323 184.461 46.1191Z" fill="#EB5A44"/>
<path d="M184.465 46.1182C183.439 44.2561 182.114 42.4952 180.538 40.8662L180.839 40.6569C182.551 42.171 184.03 43.8212 185.237 45.5795L184.465 46.1182" fill="#F48F74"/>
<path d="M184.461 46.1191C184.359 45.9323 184.252 45.7458 184.145 45.5611C183.17 43.9042 181.958 42.333 180.536 40.8669V40.8665C182.114 42.4957 183.437 44.2564 184.464 46.1186L184.461 46.1191" fill="#EF7967"/>
<path d="M142.556 89.6611C140.723 89.4834 138.925 89.2356 137.165 88.9213C138.925 89.2347 140.725 89.4834 142.556 89.6611Z" fill="#CA3F32"/>
<path d="M142.583 89.6646C142.573 89.6635 142.566 89.6627 142.556 89.6619C140.726 89.4839 138.927 89.2353 137.167 88.9219C137.16 88.9202 137.152 88.9192 137.147 88.9184L146.007 82.7493C147.765 82.9262 149.562 83.017 151.387 83.017C151.638 83.017 151.887 83.0151 152.136 83.0114L142.583 89.6646V89.6646ZM148.166 81.6454C147.982 81.6412 147.799 81.636 147.615 81.6298C147.784 81.6353 147.956 81.6404 148.125 81.6444C148.139 81.6448 148.154 81.6453 148.166 81.6454" fill="#F17251"/>
<path d="M149.497 81.6602C149.502 81.6602 149.507 81.6602 149.512 81.6602C149.507 81.6602 149.502 81.6602 149.497 81.6602ZM149.563 81.66C149.568 81.66 149.57 81.6598 149.575 81.6598C149.57 81.6598 149.568 81.66 149.563 81.66ZM149.614 81.6598C149.624 81.6598 149.629 81.6598 149.636 81.6596C149.629 81.6598 149.621 81.6598 149.614 81.6598ZM149.675 81.6596C149.687 81.6595 149.697 81.6595 149.709 81.6595C149.697 81.6595 149.687 81.6595 149.675 81.6596ZM149.726 81.6593C151.312 81.6512 152.871 81.5741 154.403 81.4331C152.871 81.5746 151.312 81.6512 149.726 81.6593ZM148.125 81.6442C147.955 81.6402 147.785 81.6351 147.615 81.6295V81.6288C147.785 81.6349 147.955 81.64 148.125 81.6442Z" fill="#EB5A44"/>
<path d="M151.387 83.0166C149.56 83.0166 147.763 82.9259 146.005 82.749L147.613 81.6295C147.797 81.6356 147.982 81.6409 148.166 81.6451C148.589 81.6553 149.016 81.66 149.444 81.66C149.461 81.66 149.478 81.66 149.495 81.66C149.5 81.66 149.507 81.66 149.514 81.66C149.526 81.66 149.541 81.66 149.556 81.66C149.565 81.66 149.573 81.6598 149.582 81.6598C149.592 81.6598 149.602 81.6598 149.609 81.6598C149.619 81.6598 149.631 81.6598 149.638 81.6597C149.643 81.6597 149.645 81.6597 149.648 81.6597C151.258 81.6537 152.844 81.577 154.401 81.4335L152.135 83.0112C151.887 83.0147 151.637 83.0166 151.387 83.0166" fill="#F48F74"/>
<path d="M149.495 81.6602C149.498 81.6602 149.498 81.6602 149.498 81.6602C149.502 81.6602 149.505 81.6602 149.512 81.6602C149.512 81.6602 149.512 81.6602 149.515 81.6602C149.507 81.6602 149.5 81.6602 149.495 81.6602V81.6602ZM149.556 81.6602C149.558 81.6602 149.561 81.6602 149.563 81.6602C149.568 81.6602 149.57 81.66 149.575 81.66C149.578 81.66 149.58 81.66 149.583 81.66C149.573 81.66 149.566 81.6602 149.556 81.6602V81.6602ZM149.609 81.66C149.612 81.66 149.612 81.66 149.614 81.66C149.621 81.66 149.629 81.66 149.634 81.6598C149.636 81.6598 149.636 81.6598 149.638 81.6598C149.631 81.66 149.619 81.66 149.609 81.66ZM149.648 81.6598C149.655 81.6598 149.665 81.6598 149.672 81.6598C149.685 81.6596 149.697 81.6596 149.709 81.6596C149.714 81.6596 149.721 81.6595 149.726 81.6595C151.309 81.6513 152.869 81.5748 154.401 81.4336C152.844 81.5771 151.258 81.6539 149.648 81.6598" fill="#EF7967"/>
<path d="M188.877 57.4272C188.882 57.2369 188.888 57.0454 188.888 56.8541C188.888 55.5978 188.758 54.3619 188.513 53.1529L197.37 46.9856C197.818 48.224 198.174 49.4895 198.425 50.7784V50.7801L188.877 57.4272" fill="#F17251"/>
<path d="M186.606 59.0088C186.814 57.9349 186.927 56.8391 186.943 55.7258C186.927 56.8375 186.817 57.9329 186.609 59.0073L186.606 59.0088V59.0088ZM186.943 55.7189C186.943 55.7117 186.943 55.7044 186.943 55.6972C186.943 55.7042 186.943 55.7119 186.943 55.7189ZM186.943 55.6813C186.943 55.6725 186.943 55.664 186.943 55.6554C186.943 55.6642 186.943 55.6725 186.943 55.6813ZM186.943 55.6308C186.943 55.6263 186.943 55.6217 186.943 55.6169C186.943 55.6222 186.943 55.6257 186.943 55.6308ZM186.943 55.5872C186.943 55.5845 186.943 55.5819 186.943 55.5793C186.943 55.5819 186.943 55.5845 186.943 55.5872ZM186.943 55.5447C186.943 55.5412 186.943 55.5379 186.943 55.5342C186.943 55.5379 186.943 55.5412 186.943 55.5447ZM186.943 55.4972C186.943 55.0884 186.93 54.6815 186.901 54.2763L186.903 54.275C186.93 54.6802 186.943 55.0873 186.943 55.4972Z" fill="#EB5A44"/>
<path d="M186.608 59.0063C186.83 57.8587 186.944 56.6864 186.944 55.4968C186.944 55.0868 186.93 54.6797 186.901 54.2741L188.515 53.1522C188.76 54.3614 188.887 55.5972 188.887 56.8535C188.887 57.0449 188.884 57.2363 188.879 57.4268L186.608 59.0063" fill="#F48F74"/>
<path d="M186.608 59.0073C186.816 57.9329 186.929 56.8376 186.942 55.7258C186.942 55.7236 186.942 55.7212 186.942 55.7188C186.942 55.7119 186.942 55.7044 186.942 55.6974C186.942 55.6919 186.942 55.6866 186.942 55.6813C186.942 55.6725 186.945 55.6642 186.945 55.6554C186.945 55.6471 186.945 55.6391 186.945 55.631C186.945 55.6257 186.945 55.6224 186.945 55.6171C186.945 55.6072 186.945 55.5971 186.945 55.5872C186.945 55.5844 186.945 55.582 186.945 55.5793C186.945 55.5679 186.945 55.5564 186.945 55.5448C186.945 55.5413 186.945 55.5379 186.945 55.5344C186.945 55.5221 186.945 55.5096 186.945 55.4971C186.945 55.0875 186.932 54.6802 186.903 54.2751V54.2746C186.932 54.68 186.945 55.0871 186.945 55.4971C186.945 56.6869 186.829 57.8592 186.611 59.0068L186.608 59.0073Z" fill="#EF7967"/>
<path d="M146.494 54.4777H150.905C153.418 54.4777 155.125 54.1144 156.024 53.3874C156.922 52.6606 157.371 51.8836 157.371 51.0572C157.371 50.1307 156.876 49.3076 155.886 48.5878C154.893 47.8681 153.511 47.508 151.734 47.508C148.341 47.508 146.205 48.7554 145.331 51.2495L136.657 50.2872C137.371 48.0354 139.103 46.1717 141.852 44.6965C144.597 43.2214 147.985 42.4836 152.008 42.4836C156.218 42.4836 159.757 43.1829 162.629 44.5806C165.497 45.9781 166.932 47.8897 166.932 50.3144C166.932 53.4952 164.542 55.6704 159.762 56.8403C165.379 57.8803 168.188 60.1873 168.188 63.7627C168.188 66.3264 166.753 68.4345 163.883 70.0864C161.013 71.7391 157.055 72.5649 152.008 72.5649C147.168 72.5649 143.333 71.7156 140.503 70.0164C137.673 68.3173 135.971 66.2095 135.401 63.6924L144.288 62.7944C145.145 65.8018 147.638 67.3056 151.764 67.3056C153.685 67.3056 155.243 66.9507 156.437 66.2396C157.633 65.5291 158.231 64.5766 158.231 63.3827C158.231 62.1177 157.683 61.1723 156.59 60.547C155.497 59.9215 153.408 59.6089 150.322 59.6089H146.494V54.4777" fill="#BB2223"/>
<path d="M144.698 53.2256H149.11C151.622 53.2256 153.328 52.8625 154.227 52.1353C155.128 51.4086 155.575 50.6315 155.575 49.8051C155.575 48.8787 155.08 48.0556 154.089 47.3358C153.098 46.616 151.717 46.2559 149.938 46.2559C146.545 46.2559 144.411 47.5034 143.535 49.9974L134.86 49.0352C135.575 46.7833 137.307 44.9196 140.057 43.4445C142.804 41.9694 146.19 41.2317 150.213 41.2317C154.422 41.2317 157.96 41.9309 160.833 43.3285C163.703 44.7262 165.136 46.6377 165.136 49.0624C165.136 52.2432 162.747 54.4185 157.965 55.5882C163.583 56.6281 166.392 58.9354 166.392 62.5106C166.392 65.0744 164.959 67.1825 162.089 68.8345C159.216 70.4871 155.258 71.313 150.213 71.313C145.371 71.313 141.536 70.4635 138.708 68.7645C135.878 67.0653 134.177 64.9574 133.604 62.4404L142.491 61.5423C143.35 64.5498 145.842 66.0536 149.968 66.0536C151.887 66.0536 153.446 65.6985 154.642 64.9877C155.836 64.2771 156.434 63.3246 156.434 62.1305C156.434 60.8657 155.888 59.9203 154.795 59.295C153.701 58.6695 151.612 58.357 148.527 58.357H144.698V53.2256" fill="#EE532E"/>
<path d="M137.056 49.2812L134.859 49.0368C135.045 48.4527 135.301 47.895 135.621 47.3634C135.301 47.8945 135.045 48.452 134.862 49.0353L137.056 49.279C137.056 49.2796 137.056 49.2804 137.056 49.2812" fill="#EB5A44"/>
<path d="M137.423 49.3218L137.058 49.2811C137.058 49.2803 137.058 49.2795 137.058 49.2788L137.425 49.3195L137.423 49.3218" fill="#CA3F32"/>
<path d="M137.425 49.3193L137.056 49.2786L134.861 49.0349C135.046 48.4516 135.3 47.8942 135.621 47.363C136.543 45.8428 138.021 44.537 140.055 43.4444C142.525 42.1202 145.502 41.3905 149 41.2558L137.425 49.3193" fill="#F17251"/>
<path d="M146.493 58.3574H144.696V57.5153L144.699 57.5143V58.3568H146.493V58.3574" fill="#EB5A44"/>
<path d="M152.068 58.5454C151.09 58.4199 149.912 58.3574 148.528 58.3574H146.493V58.3566H148.528C149.909 58.3566 151.09 58.4192 152.07 58.5444L152.068 58.5454Z" fill="#CA3F32"/>
<path d="M150.971 53.146L150.973 53.1446C151.324 53.112 151.65 53.0689 151.955 53.0152C151.65 53.0692 151.324 53.1127 150.971 53.146ZM154.909 51.4758C154.909 51.4748 154.911 51.4736 154.911 51.4726C154.911 51.4738 154.909 51.4748 154.909 51.4758ZM154.911 51.471C155.186 51.1414 155.376 50.8016 155.481 50.4524C155.376 50.8016 155.189 51.1411 154.911 51.471Z" fill="#EB5A44"/>
<path d="M152.07 58.5449C151.09 58.4196 149.907 58.3571 148.528 58.3571H146.492H144.696V57.5146L150.972 53.146C151.324 53.1129 151.651 53.0692 151.955 53.0153C152.966 52.8371 153.724 52.5431 154.228 52.1364C154.495 51.9209 154.722 51.7008 154.909 51.4759C154.909 51.4749 154.911 51.4738 154.911 51.4728C154.911 51.4723 154.911 51.4717 154.911 51.4712C155.188 51.1412 155.378 50.8017 155.48 50.4525C155.532 50.2846 155.562 50.1142 155.575 49.9417L163.046 44.7414C164.44 45.9341 165.136 47.3743 165.136 49.062C165.136 49.1967 165.131 49.3281 165.124 49.4565L152.07 58.5449" fill="#F17251"/>
<path d="M142.686 62.125C142.613 61.9377 142.549 61.7434 142.493 61.5426L138.305 61.9657L138.307 61.9647L142.495 61.5418C142.552 61.7432 142.615 61.9375 142.686 62.125" fill="#EB5A44"/>
<path d="M138.025 68.3262C136.417 67.2553 135.229 66.0279 134.456 64.6472L138.306 61.9651L142.494 61.542C142.551 61.7427 142.615 61.937 142.686 62.1245C142.993 62.9263 143.431 63.603 144.005 64.1589L138.025 68.3262" fill="#F17251"/>
<path d="M150.977 53.144L155.575 49.9409C155.524 50.7175 155.076 51.4502 154.228 52.1357C153.573 52.665 152.487 53.0032 150.977 53.144Z" fill="#BB2223"/>
<path d="M149.947 66.0527C149.945 66.0527 149.943 66.0527 149.94 66.0527C149.943 66.0527 149.945 66.0527 149.947 66.0527ZM149.923 66.0527C149.921 66.0527 149.919 66.0527 149.916 66.0527C149.919 66.0527 149.921 66.0527 149.923 66.0527ZM149.902 66.0527C149.899 66.0527 149.897 66.0527 149.892 66.0527C149.897 66.0527 149.899 66.0527 149.902 66.0527ZM149.88 66.0526C149.878 66.0526 149.873 66.0524 149.868 66.0524C149.873 66.0524 149.878 66.0526 149.88 66.0526ZM149.861 66.0524C149.854 66.0524 149.851 66.0524 149.847 66.0524C149.851 66.0524 149.854 66.0524 149.861 66.0524ZM149.842 66.0522C148.178 66.0395 146.782 65.7783 145.659 65.2683C145.659 65.2676 145.659 65.2666 145.656 65.2658C146.78 65.7765 148.175 66.0395 149.842 66.0522" fill="#EB5A44"/>
<path d="M145.659 65.269C145.625 65.2534 145.591 65.2377 145.557 65.2214V65.2205C145.591 65.2361 145.623 65.2514 145.657 65.2665C145.657 65.2673 145.657 65.2682 145.659 65.269V65.269ZM154.783 59.2879C154.656 59.2182 154.52 59.1511 154.365 59.087L154.367 59.0866C154.518 59.1497 154.656 59.2169 154.783 59.2879" fill="#CA3F32"/>
<path d="M161.81 56.6685C161.612 56.5875 161.411 56.5095 161.201 56.4344C161.201 56.4342 161.201 56.4342 161.201 56.434C161.411 56.5093 161.614 56.5875 161.81 56.6685" fill="#EB5A44"/>
<path d="M161.199 56.4351C160.549 56.2012 159.838 55.9949 159.064 55.8161V55.8153H159.069C159.84 55.9943 160.552 56.2008 161.201 56.4349L161.199 56.4351Z" fill="#CA3F32"/>
<path d="M148.342 71.2661C144.89 71.097 142.009 70.4426 139.697 69.3028L145.556 65.2208C145.591 65.237 145.624 65.2529 145.659 65.2686C146.782 65.7784 148.175 66.0396 149.84 66.0523C149.843 66.0523 149.843 66.0523 149.845 66.0525C149.85 66.0525 149.853 66.0525 149.858 66.0525C149.863 66.0525 149.865 66.0525 149.868 66.0525C149.873 66.0525 149.875 66.0527 149.88 66.0527C149.883 66.0527 149.888 66.0527 149.89 66.0527C149.895 66.0527 149.898 66.0527 149.9 66.0527C149.905 66.0527 149.91 66.0527 149.915 66.0529C149.918 66.0529 149.92 66.0529 149.923 66.0529C149.928 66.0529 149.933 66.0529 149.938 66.0529C149.94 66.0529 149.945 66.0529 149.948 66.0529C149.953 66.0529 149.96 66.0529 149.968 66.0529C151.89 66.0529 153.448 65.6991 154.641 64.9885C155.839 64.2777 156.436 63.3228 156.436 62.1299C156.436 60.865 155.887 59.9193 154.793 59.2931C154.788 59.2912 154.786 59.2893 154.783 59.2874C154.656 59.2163 154.519 59.1491 154.366 59.086L159.065 55.8152C159.836 55.9939 160.55 56.2003 161.199 56.4342C161.409 56.5094 161.611 56.5875 161.808 56.6683C163.481 57.3577 164.694 58.2536 165.45 59.3558L148.342 71.2661" fill="#F17251"/>
</svg>
