<svg width="1000" height="200" viewBox="0 0 1000 200" fill="none" xmlns="http://www.w3.org/2000/svg">
<path fill-rule="evenodd" clip-rule="evenodd" d="M26.8837 7.62109H978.936C990.576 7.62109 1000 14.2257 1000 22.3544V185.267C1000 193.396 990.576 200 978.936 200H26.8837C15.2428 200 5.81934 193.396 5.81934 185.267V22.3544C5.81934 14.2257 15.2428 7.62109 26.8837 7.62109Z" fill="black" fill-opacity="0.101961"/>
<path fill-rule="evenodd" clip-rule="evenodd" d="M21.0643 3.04834H973.116C984.757 3.04834 994.181 9.6529 994.181 17.7816V180.694C994.181 188.823 984.757 195.427 973.116 195.427H21.0643C9.42351 195.427 0 188.823 0 180.694V17.7816C0 9.6529 9.42351 3.04834 21.0643 3.04834Z" fill="#E6E6E6"/>
<path fill-rule="evenodd" clip-rule="evenodd" d="M21.0643 0H973.116C984.757 0 994.181 6.60456 994.181 14.7333V177.646C994.181 185.775 984.757 192.379 973.116 192.379H21.0643C9.42351 192.379 0 185.775 0 177.646V14.7333C0 6.60456 9.42351 0 21.0643 0Z" fill="white"/>
<path fill-rule="evenodd" clip-rule="evenodd" d="M34.0916 9.82275H962.862C973.671 9.82275 982.541 16.0886 982.541 23.7093V169.856C982.541 177.477 973.671 183.743 962.862 183.743H34.0916C23.2823 183.743 14.4131 177.477 14.4131 169.856V23.7093C14.4131 16.0886 23.2823 9.82275 34.0916 9.82275Z" fill="#E6E6E6"/>
<path fill-rule="evenodd" clip-rule="evenodd" d="M29.6561 7.95898H958.981C969.79 7.95898 978.382 14.2249 978.382 21.8455V165.96C978.382 173.581 969.79 179.847 958.981 179.847H29.6561C18.8467 179.847 9.97754 173.581 9.97754 165.96V21.8455C9.97754 14.2249 18.8467 7.95898 29.6561 7.95898Z" fill="#F1C383"/>
<path fill-rule="evenodd" clip-rule="evenodd" d="M29.3789 4.40332H954.823C965.356 4.40332 974.225 10.4998 974.225 17.9511V158.171C974.225 165.622 965.356 171.719 954.823 171.719H29.3789C18.5696 171.719 9.97754 165.622 9.97754 158.171V17.9511C9.97754 10.4998 18.5696 4.40332 29.3789 4.40332Z" fill="#FAEECC"/>
<path fill-rule="evenodd" clip-rule="evenodd" d="M32.4274 6.26562C338.692 6.26562 645.233 6.26562 951.774 6.26562C962.306 6.26562 970.621 12.1928 970.621 19.6441C970.621 65.1986 970.621 110.753 970.621 156.477C970.621 163.759 962.029 169.856 951.774 169.856C645.233 169.856 338.692 169.856 32.4274 169.856C21.8952 169.856 13.3032 163.759 13.3032 156.477C13.3032 110.753 13.3032 65.1986 13.3032 19.6441C13.3032 12.1928 21.8952 6.26562 32.4274 6.26562Z" fill="#FAEDC9"/>
<path fill-rule="evenodd" clip-rule="evenodd" d="M35.4759 7.95898C339.8 7.95898 644.124 7.95898 948.448 7.95898C958.98 7.95898 967.295 13.8862 967.295 21.1681C967.295 65.7066 967.295 110.245 967.295 154.784C967.295 162.065 958.98 167.993 948.448 167.993C644.124 167.993 339.8 167.993 35.4759 167.993C25.2209 167.993 16.6289 162.065 16.6289 154.784C16.6289 110.245 16.6289 65.7066 16.6289 21.1681C16.6289 13.8862 25.2209 7.95898 35.4759 7.95898Z" fill="#F9ECC6"/>
<path fill-rule="evenodd" clip-rule="evenodd" d="M38.5249 9.82275C340.909 9.82275 643.293 9.82275 945.399 9.82275C955.654 9.82275 963.969 15.7499 963.969 22.8625C963.969 66.3849 963.969 109.738 963.969 153.091C963.969 160.373 955.654 166.3 945.399 166.3C643.293 166.3 340.909 166.3 38.5249 166.3C28.2699 166.3 19.9551 160.373 19.9551 153.091C19.9551 109.738 19.9551 66.3849 19.9551 22.8625C19.9551 15.7499 28.2699 9.82275 38.5249 9.82275Z" fill="#F9EBC2"/>
<path fill-rule="evenodd" clip-rule="evenodd" d="M41.8506 11.6851C342.017 11.6851 642.184 11.6851 942.35 11.6851C952.328 11.6851 960.643 17.4429 960.643 24.5555C960.643 66.8924 960.643 109.229 960.643 151.566C960.643 158.679 952.328 164.437 942.35 164.437C642.184 164.437 342.017 164.437 41.8506 164.437C31.5956 164.437 23.2808 158.679 23.2808 151.566C23.2808 109.229 23.2808 66.8924 23.2808 24.5555C23.2808 17.4429 31.5956 11.6851 41.8506 11.6851Z" fill="#F8EABF"/>
<path fill-rule="evenodd" clip-rule="evenodd" d="M44.8996 13.3779C342.849 13.3779 641.075 13.3779 939.302 13.3779C949.28 13.3779 957.317 19.1358 957.317 26.079C957.317 67.3999 957.317 108.721 957.317 149.872C957.317 156.815 949.28 162.573 939.302 162.573C641.075 162.573 342.849 162.573 44.8996 162.573C34.9218 162.573 26.6069 156.815 26.6069 149.872C26.6069 108.721 26.6069 67.3999 26.6069 26.079C26.6069 19.1358 34.9218 13.3779 44.8996 13.3779Z" fill="#F8E9BC"/>
<path fill-rule="evenodd" clip-rule="evenodd" d="M47.9482 15.2417C343.957 15.2417 639.966 15.2417 935.976 15.2417C945.953 15.2417 953.991 20.8302 953.991 27.7734C953.991 67.9089 953.991 108.044 953.991 148.18C953.991 155.123 945.953 160.881 935.976 160.881C639.966 160.881 343.957 160.881 47.9482 160.881C38.2475 160.881 29.9326 155.123 29.9326 148.18C29.9326 108.044 29.9326 67.9089 29.9326 27.7734C29.9326 20.8302 37.9703 15.2417 47.9482 15.2417Z" fill="#F7E8B9"/>
<path fill-rule="evenodd" clip-rule="evenodd" d="M50.9973 17.1045C345.066 17.1045 639.135 17.1045 932.927 17.1045C942.628 17.1045 950.666 22.693 950.666 29.4669C950.666 68.4169 950.666 107.536 950.666 146.656C950.666 153.429 942.628 159.018 932.927 159.018C639.135 159.018 345.066 159.018 50.9973 159.018C41.2967 159.018 33.5361 153.429 33.5361 146.656C33.5361 107.536 33.5361 68.4169 33.5361 29.4669C33.5361 22.693 41.2967 17.1045 50.9973 17.1045Z" fill="#F7E7B6"/>
<path fill-rule="evenodd" clip-rule="evenodd" d="M54.3225 18.7974C346.174 18.7974 638.026 18.7974 929.878 18.7974C939.301 18.7974 947.339 24.3858 947.339 31.1598C947.339 69.0937 947.339 107.028 947.339 144.961C947.339 151.735 939.301 157.154 929.878 157.154C638.026 157.154 346.174 157.154 54.3225 157.154C44.6219 157.154 36.8613 151.735 36.8613 144.961C36.8613 107.028 36.8613 69.0937 36.8613 31.1598C36.8613 24.3858 44.6219 18.7974 54.3225 18.7974Z" fill="#F6E6B3"/>
<path fill-rule="evenodd" clip-rule="evenodd" d="M57.3716 20.6602C347.006 20.6602 636.918 20.6602 926.829 20.6602C936.253 20.6602 944.013 26.0793 944.013 32.6838C944.013 69.6017 944.013 106.519 944.013 143.268C944.013 150.042 936.253 155.461 926.829 155.461C636.918 155.461 347.006 155.461 57.3716 155.461C47.948 155.461 40.1875 150.042 40.1875 143.268C40.1875 106.519 40.1875 69.6017 40.1875 32.6838C40.1875 26.0793 47.948 20.6602 57.3716 20.6602Z" fill="#F6E5AF"/>
<path fill-rule="evenodd" clip-rule="evenodd" d="M60.4201 22.5225C348.114 22.5225 635.809 22.5225 923.503 22.5225C932.926 22.5225 940.687 27.7722 940.687 34.3768C940.687 70.1092 940.687 105.842 940.687 141.743C940.687 148.179 932.926 153.598 923.503 153.598C635.809 153.598 348.114 153.598 60.4201 153.598C50.9966 153.598 43.5132 148.179 43.5132 141.743C43.5132 105.842 43.5132 70.1092 43.5132 34.3768C43.5132 27.7722 50.9966 22.5225 60.4201 22.5225Z" fill="#F5E4AC"/>
<path fill-rule="evenodd" clip-rule="evenodd" d="M63.4686 24.2168H920.454C929.6 24.2168 937.361 29.4666 937.361 36.0711V140.051C937.361 146.486 929.6 151.736 920.454 151.736H63.4686C54.3222 151.736 46.8389 146.486 46.8389 140.051V36.0711C46.8389 29.4666 54.3222 24.2168 63.4686 24.2168Z" fill="#F5E3A9"/>
<path fill-rule="evenodd" clip-rule="evenodd" d="M954.546 149.196C960.367 149.196 965.078 152.583 965.078 156.647C965.078 160.881 960.367 164.098 954.546 164.098C948.726 164.098 944.014 160.881 944.014 156.647C944.014 152.583 948.726 149.196 954.546 149.196Z" fill="white"/>
<path fill-rule="evenodd" clip-rule="evenodd" d="M938.193 156.815C941.519 156.815 944.013 158.678 944.013 160.88C944.013 163.081 941.519 164.944 938.193 164.944C935.144 164.944 932.649 163.081 932.649 160.88C932.649 158.678 935.144 156.815 938.193 156.815Z" fill="white"/>
<path fill-rule="evenodd" clip-rule="evenodd" d="M30.7657 7.79053C39.912 7.79053 47.1182 13.0403 47.1182 19.3062C47.1182 25.7414 39.912 30.8218 30.7657 30.8218C21.6193 30.8218 14.4131 25.7414 14.4131 19.3062C14.4131 13.0403 21.6193 7.79053 30.7657 7.79053Z" fill="white"/>
<path fill-rule="evenodd" clip-rule="evenodd" d="M55.9852 6.43555C60.9741 6.43555 65.1316 9.31446 65.1316 12.8708C65.1316 16.2577 60.9741 19.1366 55.9852 19.1366C50.9963 19.1366 46.8389 16.2577 46.8389 12.8708C46.8389 9.31446 50.9963 6.43555 55.9852 6.43555Z" fill="white"/>
<path fill-rule="evenodd" clip-rule="evenodd" d="M61.5306 18.6279H242.518C255.267 18.6279 265.799 25.4018 265.799 33.6999V142.76C265.799 151.058 255.267 158.001 242.518 158.001H61.5306C48.504 158.001 38.249 151.227 38.249 142.76V33.6999C38.249 25.4018 48.504 18.6279 61.5306 18.6279Z" fill="#EFB469"/>
<path fill-rule="evenodd" clip-rule="evenodd" d="M70.122 25.7402H233.648C246.12 25.7402 256.098 32.3448 256.098 40.4735V140.727C256.098 148.687 246.12 155.291 233.648 155.291H70.122C57.6497 155.291 47.6719 148.687 47.6719 140.727V40.4735C47.6719 32.3448 57.6497 25.7402 70.122 25.7402Z" fill="#F1C383"/>
<path fill-rule="evenodd" clip-rule="evenodd" d="M71.2316 28.6187C125.001 28.6187 178.77 28.6187 232.817 28.6187C245.012 28.6187 254.99 35.0539 254.99 43.0132C254.99 75.528 254.99 108.043 254.99 140.558C254.99 148.517 245.012 154.952 232.817 154.952C178.77 154.952 125.001 154.952 71.2316 154.952C59.0364 154.952 49.0586 148.517 49.0586 140.558C49.0586 108.043 49.0586 75.528 49.0586 43.0132C49.0586 35.0539 59.0364 28.6187 71.2316 28.6187Z" fill="#F1C585"/>
<path fill-rule="evenodd" clip-rule="evenodd" d="M72.0648 31.3286C125.28 31.3286 178.495 31.3286 231.71 31.3286C243.905 31.3286 253.606 37.7638 253.606 45.7232C253.606 77.2219 253.606 108.89 253.606 140.389C253.606 148.348 243.905 154.783 231.71 154.783C178.495 154.783 125.28 154.783 72.0648 154.783C60.1468 154.783 50.1689 148.348 50.1689 140.389C50.1689 108.89 50.1689 77.2219 50.1689 45.7232C50.1689 37.7638 60.1468 31.3286 72.0648 31.3286Z" fill="#F1C786"/>
<path fill-rule="evenodd" clip-rule="evenodd" d="M73.1714 34.2075C125.555 34.2075 178.216 34.2075 230.599 34.2075C242.517 34.2075 252.495 40.6427 252.495 48.2634C252.495 78.9153 252.495 109.567 252.495 140.219C252.495 148.009 242.517 154.444 230.599 154.444C178.216 154.444 125.555 154.444 73.1714 154.444C61.2534 154.444 51.5527 148.009 51.5527 140.219C51.5527 109.567 51.5527 78.9153 51.5527 48.2634C51.5527 40.6427 61.2534 34.2075 73.1714 34.2075Z" fill="#F2CA88"/>
<path fill-rule="evenodd" clip-rule="evenodd" d="M74.2808 37.0859C126.11 37.0859 177.939 37.0859 229.769 37.0859C241.41 37.0859 251.11 43.3518 251.11 50.9725C251.11 80.7777 251.11 110.414 251.11 140.219C251.11 147.839 241.41 154.105 229.769 154.105C177.939 154.105 126.11 154.105 74.2808 154.105C62.3628 154.105 52.6621 147.839 52.6621 140.219C52.6621 110.414 52.6621 80.7777 52.6621 50.9725C52.6621 43.3518 62.3628 37.0859 74.2808 37.0859Z" fill="#F2CC8A"/>
<path fill-rule="evenodd" clip-rule="evenodd" d="M75.1102 39.7964C126.385 39.7964 177.383 39.7964 228.658 39.7964C240.299 39.7964 250 46.0623 250 53.5136C250 82.472 250 111.261 250 140.05C250 147.671 240.299 153.767 228.658 153.767C177.383 153.767 126.385 153.767 75.1102 153.767C63.4694 153.767 54.0459 147.671 54.0459 140.05C54.0459 111.261 54.0459 82.472 54.0459 53.5136C54.0459 46.0623 63.4694 39.7964 75.1102 39.7964Z" fill="#F2CE8B"/>
<path fill-rule="evenodd" clip-rule="evenodd" d="M76.2201 42.6748C126.664 42.6748 177.107 42.6748 227.551 42.6748C239.191 42.6748 248.615 48.7713 248.615 56.2226C248.615 84.165 248.615 111.938 248.615 139.88C248.615 147.332 239.191 153.598 227.551 153.598C177.107 153.598 126.664 153.598 76.2201 153.598C64.5793 153.598 55.1558 147.332 55.1558 139.88C55.1558 111.938 55.1558 84.165 55.1558 56.2226C55.1558 48.7713 64.5793 42.6748 76.2201 42.6748Z" fill="#F2D08D"/>
<path fill-rule="evenodd" clip-rule="evenodd" d="M77.3301 45.3838C126.942 45.3838 176.831 45.3838 226.721 45.3838C238.084 45.3838 247.231 51.4803 247.231 58.9316C247.231 85.8579 247.231 112.784 247.231 139.71C247.231 147.162 238.084 153.258 226.721 153.258C176.831 153.258 126.942 153.258 77.3301 153.258C65.9665 153.258 56.543 147.162 56.543 139.71C56.543 112.784 56.543 85.8579 56.543 58.9316C56.543 51.4803 65.9665 45.3838 77.3301 45.3838Z" fill="#F2D28E"/>
<path fill-rule="evenodd" clip-rule="evenodd" d="M78.1623 48.2627C127.497 48.2627 176.555 48.2627 225.613 48.2627C236.976 48.2627 246.123 54.1899 246.123 61.4718C246.123 87.5514 246.123 113.631 246.123 139.71C246.123 146.992 236.976 152.92 225.613 152.92C176.555 152.92 127.497 152.92 78.1623 152.92C67.0759 152.92 57.6523 146.992 57.6523 139.71C57.6523 113.631 57.6523 87.5514 57.6523 61.4718C57.6523 54.1899 67.0759 48.2627 78.1623 48.2627Z" fill="#F2D490"/>
<path fill-rule="evenodd" clip-rule="evenodd" d="M79.269 50.9727C127.772 50.9727 176.276 50.9727 224.779 50.9727C235.866 50.9727 244.735 56.8998 244.735 64.1818C244.735 89.2453 244.735 114.309 244.735 139.542C244.735 146.654 235.866 152.581 224.779 152.581C176.276 152.581 127.772 152.581 79.269 152.581C68.1825 152.581 59.0361 146.654 59.0361 139.542C59.0361 114.309 59.0361 89.2453 59.0361 64.1818C59.0361 56.8998 68.1825 50.9727 79.269 50.9727Z" fill="#F3D792"/>
<path fill-rule="evenodd" clip-rule="evenodd" d="M80.3756 53.8516C128.047 53.8516 175.719 53.8516 223.668 53.8516C234.478 53.8516 243.624 59.6094 243.624 66.722C243.624 90.9387 243.624 115.155 243.624 139.372C243.624 146.485 234.478 152.412 223.668 152.412C175.719 152.412 128.047 152.412 80.3756 152.412C69.2891 152.412 60.4199 146.485 60.4199 139.372C60.4199 115.155 60.4199 90.9387 60.4199 66.722C60.4199 59.6094 69.2891 53.8516 80.3756 53.8516Z" fill="#F3D993"/>
<path fill-rule="evenodd" clip-rule="evenodd" d="M81.2083 56.562H222.561C233.37 56.562 242.239 62.3198 242.239 69.4324V139.204C242.239 146.316 233.37 152.074 222.561 152.074H81.2083C70.399 152.074 61.5298 146.316 61.5298 139.204V69.4324C61.5298 62.3198 70.399 56.562 81.2083 56.562Z" fill="#F3DB95"/>
<path fill-rule="evenodd" clip-rule="evenodd" d="M309.591 68.2471H932.375C945.401 68.2471 955.656 75.021 955.656 83.4884V142.76C955.656 151.058 945.124 158.001 932.375 158.001H309.591C296.842 158.001 286.31 151.227 286.31 142.76V83.4884C286.31 75.021 296.842 68.2471 309.591 68.2471Z" fill="#EFB469"/>
<path fill-rule="evenodd" clip-rule="evenodd" d="M318.46 75.5288H923.782C936.254 75.5288 946.232 82.1334 946.232 90.0927V140.728C946.232 148.687 935.977 155.292 923.782 155.292H318.46C305.988 155.292 296.01 148.687 296.01 140.728V90.0927C296.01 82.1334 305.988 75.5288 318.46 75.5288Z" fill="#F1C383"/>
<path fill-rule="evenodd" clip-rule="evenodd" d="M319.293 78.4077C520.513 78.4077 721.733 78.4077 922.675 78.4077C934.87 78.4077 944.848 84.8429 944.848 92.8023C944.848 108.721 944.848 124.64 944.848 140.558C944.848 148.518 934.87 154.953 922.675 154.953C721.733 154.953 520.513 154.953 319.293 154.953C307.098 154.953 297.12 148.518 297.12 140.558C297.12 124.64 297.12 108.721 297.12 92.8023C297.12 84.8429 307.098 78.4077 319.293 78.4077Z" fill="#F1C585"/>
<path fill-rule="evenodd" clip-rule="evenodd" d="M320.403 81.1167C520.791 81.1167 721.179 81.1167 921.844 81.1167C933.762 81.1167 943.74 87.5519 943.74 95.3419C943.74 110.414 943.74 125.486 943.74 140.388C943.74 148.348 933.762 154.783 921.844 154.783C721.179 154.783 520.791 154.783 320.403 154.783C308.208 154.783 298.507 148.348 298.507 140.388C298.507 125.486 298.507 110.414 298.507 95.3419C298.507 87.5519 308.208 81.1167 320.403 81.1167Z" fill="#F1C786"/>
<path fill-rule="evenodd" clip-rule="evenodd" d="M321.509 83.9966C521.066 83.9966 720.9 83.9966 920.734 83.9966C932.652 83.9966 942.352 90.2624 942.352 98.0524C942.352 112.108 942.352 126.164 942.352 140.22C942.352 148.01 932.652 154.445 920.734 154.445C720.9 154.445 521.066 154.445 321.509 154.445C309.591 154.445 299.613 148.01 299.613 140.22C299.613 126.164 299.613 112.108 299.613 98.0524C299.613 90.2624 309.314 83.9966 321.509 83.9966Z" fill="#F2CA88"/>
<path fill-rule="evenodd" clip-rule="evenodd" d="M322.342 86.7056C521.622 86.7056 720.624 86.7056 919.627 86.7056C931.545 86.7056 941.246 92.9714 941.246 100.592C941.246 113.801 941.246 127.01 941.246 140.219C941.246 147.84 931.545 154.106 919.627 154.106C720.624 154.106 521.622 154.106 322.342 154.106C310.702 154.106 301.001 147.84 301.001 140.219C301.001 127.01 301.001 113.801 301.001 100.592C301.001 92.9714 310.702 86.7056 322.342 86.7056Z" fill="#F2CC8A"/>
<path fill-rule="evenodd" clip-rule="evenodd" d="M323.448 89.584C521.897 89.584 720.345 89.584 918.793 89.584C930.434 89.584 939.857 95.6805 939.857 103.301C939.857 115.494 939.857 127.857 939.857 140.05C939.857 147.67 930.434 153.767 918.793 153.767C720.345 153.767 521.897 153.767 323.448 153.767C311.808 153.767 302.107 147.67 302.107 140.05C302.107 127.857 302.107 115.494 302.107 103.301C302.107 95.6805 311.808 89.584 323.448 89.584Z" fill="#F2CE8B"/>
<path fill-rule="evenodd" clip-rule="evenodd" d="M324.281 92.2944C522.175 92.2944 720.069 92.2944 917.685 92.2944C929.326 92.2944 938.75 98.391 938.75 106.012C938.75 117.189 938.75 128.535 938.75 139.881C938.75 147.332 929.326 153.598 917.685 153.598C720.069 153.598 522.175 153.598 324.281 153.598C312.918 153.598 303.494 147.332 303.494 139.881C303.494 128.535 303.494 117.189 303.494 106.012C303.494 98.391 312.918 92.2944 324.281 92.2944Z" fill="#F2D08D"/>
<path fill-rule="evenodd" clip-rule="evenodd" d="M325.391 95.1729C522.453 95.1729 719.515 95.1729 916.578 95.1729C927.941 95.1729 937.365 101.1 937.365 108.551C937.365 119.051 937.365 129.381 937.365 139.711C937.365 147.163 927.941 153.259 916.578 153.259C719.515 153.259 522.453 153.259 325.391 153.259C314.027 153.259 304.604 147.163 304.604 139.711C304.604 129.381 304.604 119.051 304.604 108.551C304.604 101.1 314.027 95.1729 325.391 95.1729Z" fill="#F2D28E"/>
<path fill-rule="evenodd" clip-rule="evenodd" d="M326.497 97.8823C522.728 97.8823 719.236 97.8823 915.744 97.8823C926.83 97.8823 936.254 103.979 936.254 111.261C936.254 120.744 936.254 130.228 936.254 139.711C936.254 146.993 926.83 152.92 915.744 152.92C719.236 152.92 522.728 152.92 326.497 152.92C315.134 152.92 305.987 146.993 305.987 139.711C305.987 130.228 305.987 120.744 305.987 111.261C305.987 103.809 315.134 97.8823 326.497 97.8823Z" fill="#F2D490"/>
<path fill-rule="evenodd" clip-rule="evenodd" d="M327.331 100.762C523.284 100.762 718.961 100.762 914.637 100.762C925.724 100.762 934.87 106.689 934.87 113.801C934.87 122.438 934.87 130.906 934.87 139.542C934.87 146.655 925.724 152.582 914.637 152.582C718.961 152.582 523.284 152.582 327.331 152.582C316.244 152.582 307.375 146.655 307.375 139.542C307.375 130.906 307.375 122.438 307.375 113.801C307.375 106.689 316.244 100.762 327.331 100.762Z" fill="#F3D792"/>
<path fill-rule="evenodd" clip-rule="evenodd" d="M328.437 103.471C523.559 103.471 718.681 103.471 913.526 103.471C924.613 103.471 933.482 109.398 933.482 116.511C933.482 124.132 933.482 131.752 933.482 139.373C933.482 146.486 924.613 152.413 913.526 152.413C718.681 152.413 523.559 152.413 328.437 152.413C317.628 152.413 308.481 146.486 308.481 139.373C308.481 131.752 308.481 124.132 308.481 116.511C308.481 109.398 317.628 103.471 328.437 103.471Z" fill="#F3D993"/>
<path fill-rule="evenodd" clip-rule="evenodd" d="M329.547 106.351H912.696C923.505 106.351 932.374 112.108 932.374 119.052V139.204C932.374 146.317 923.505 152.074 912.696 152.074H329.547C318.737 152.074 309.868 146.317 309.868 139.204V119.052C309.868 112.108 318.737 106.351 329.547 106.351Z" fill="#F3DB95"/>
<path fill-rule="evenodd" clip-rule="evenodd" d="M589.004 17.6128H934.978C944.695 17.6128 952.329 21.6771 952.329 26.5882V51.1437C952.329 56.0547 944.695 59.9497 934.978 59.9497H589.004C579.634 59.9497 572 56.0547 572 51.1437V26.5882C572 21.6771 579.634 17.6128 589.004 17.6128Z" fill="#EFB469"/>
<path fill-rule="evenodd" clip-rule="evenodd" d="M595.599 22.0161H928.734C937.756 22.0161 945.391 25.9111 945.391 30.4835V49.7891C945.391 54.5309 937.756 58.4259 928.734 58.4259H595.599C586.577 58.4259 578.942 54.5309 578.942 49.7891V30.4835C578.942 25.7418 586.577 22.0161 595.599 22.0161Z" fill="#F1C383"/>
<path fill-rule="evenodd" clip-rule="evenodd" d="M596.29 23.5396C706.988 23.5396 817.339 23.5396 928.037 23.5396C937.059 23.5396 944.347 27.4345 944.347 32.1763C944.347 37.9341 944.347 43.8613 944.347 49.7885C944.347 54.5302 937.059 58.2558 928.037 58.2558C817.339 58.2558 706.988 58.2558 596.29 58.2558C587.268 58.2558 579.98 54.5302 579.98 49.7885C579.98 43.8613 579.98 37.9341 579.98 32.1763C579.98 27.4345 587.268 23.5396 596.29 23.5396Z" fill="#F1C585"/>
<path fill-rule="evenodd" clip-rule="evenodd" d="M596.985 25.2329C706.989 25.2329 817.34 25.2329 927.344 25.2329C936.019 25.2329 943.307 28.9586 943.307 33.7003C943.307 38.9501 943.307 44.3692 943.307 49.7883C943.307 54.3607 936.019 58.0864 927.344 58.0864C817.34 58.0864 706.989 58.0864 596.985 58.0864C588.31 58.0864 581.022 54.3607 581.022 49.7883C581.022 44.3692 581.022 38.9501 581.022 33.7003C581.022 28.9586 588.31 25.2329 596.985 25.2329Z" fill="#F1C786"/>
<path fill-rule="evenodd" clip-rule="evenodd" d="M597.676 26.9268C707.333 26.9268 816.99 26.9268 926.647 26.9268C935.322 26.9268 942.61 30.6524 942.61 35.2248C942.61 39.9665 942.61 44.8776 942.61 49.6194C942.61 54.1917 935.322 57.9174 926.647 57.9174C816.99 57.9174 707.333 57.9174 597.676 57.9174C589.001 57.9174 581.713 54.1917 581.713 49.6194C581.713 44.8776 581.713 39.9665 581.713 35.2248C581.713 30.6524 589.001 26.9268 597.676 26.9268Z" fill="#F2CA88"/>
<path fill-rule="evenodd" clip-rule="evenodd" d="M598.718 28.4502C707.68 28.4502 816.643 28.4502 925.606 28.4502C934.282 28.4502 941.569 32.1758 941.569 36.7482C941.569 40.9819 941.569 45.2156 941.569 49.6187C941.569 54.0217 934.282 57.7474 925.606 57.7474C816.643 57.7474 707.68 57.7474 598.718 57.7474C590.042 57.7474 582.755 54.0217 582.755 49.6187C582.755 45.2156 582.755 40.9819 582.755 36.7482C582.755 32.1758 589.695 28.4502 598.718 28.4502Z" fill="#F2CC8A"/>
<path fill-rule="evenodd" clip-rule="evenodd" d="M599.413 30.1445C708.029 30.1445 816.298 30.1445 924.914 30.1445C933.589 30.1445 940.529 33.8702 940.529 38.2732C940.529 41.9989 940.529 45.7245 940.529 49.4502C940.529 53.8532 933.589 57.5789 924.914 57.5789C816.298 57.5789 708.029 57.5789 599.413 57.5789C590.738 57.5789 583.797 54.0226 583.797 49.4502C583.797 45.7245 583.797 41.9989 583.797 38.2732C583.797 33.8702 590.738 30.1445 599.413 30.1445Z" fill="#F2CE8B"/>
<path fill-rule="evenodd" clip-rule="evenodd" d="M600.108 31.8379C708.03 31.8379 816.299 31.8379 924.22 31.8379C932.896 31.8379 939.836 35.3942 939.836 39.7972C939.836 43.0148 939.836 46.2325 939.836 49.4501C939.836 53.8531 932.896 57.4094 924.22 57.4094C816.299 57.4094 708.03 57.4094 600.108 57.4094C591.432 57.4094 584.492 53.8531 584.492 49.4501C584.492 46.2325 584.492 43.0148 584.492 39.7972C584.492 35.3942 591.432 31.8379 600.108 31.8379Z" fill="#F2D08D"/>
<path fill-rule="evenodd" clip-rule="evenodd" d="M600.803 33.5308C708.378 33.5308 815.952 33.5308 923.527 33.5308C931.856 33.5308 938.796 37.0871 938.796 41.3208C938.796 44.0303 938.796 46.7399 938.796 49.2801C938.796 53.6831 931.856 57.2395 923.527 57.2395C815.952 57.2395 708.378 57.2395 600.803 57.2395C592.474 57.2395 585.534 53.6831 585.534 49.2801C585.534 46.7399 585.534 44.0303 585.534 41.3208C585.534 37.0871 592.474 33.5308 600.803 33.5308Z" fill="#F2D28E"/>
<path fill-rule="evenodd" clip-rule="evenodd" d="M601.498 35.0552C708.726 35.0552 815.606 35.0552 922.834 35.0552C931.163 35.0552 937.756 38.6115 937.756 43.0145C937.756 45.0467 937.756 47.0789 937.756 49.2804C937.756 53.5141 931.163 57.0704 922.834 57.0704C815.606 57.0704 708.726 57.0704 601.498 57.0704C593.169 57.0704 586.576 53.5141 586.576 49.2804C586.576 47.0789 586.576 45.0467 586.576 43.0145C586.576 38.6115 593.169 35.0552 601.498 35.0552Z" fill="#F2D490"/>
<path fill-rule="evenodd" clip-rule="evenodd" d="M602.188 36.7485C708.722 36.7485 815.602 36.7485 922.136 36.7485C930.117 36.7485 937.058 40.3048 937.058 44.5385C937.058 46.0627 937.058 47.5868 937.058 49.1109C937.058 53.3446 930.117 56.9009 922.136 56.9009C815.602 56.9009 708.722 56.9009 602.188 56.9009C594.206 56.9009 587.266 53.3446 587.266 49.1109C587.266 47.5868 587.266 46.0627 587.266 44.5385C587.266 40.3048 594.206 36.7485 602.188 36.7485Z" fill="#F3D792"/>
<path fill-rule="evenodd" clip-rule="evenodd" d="M602.883 38.4424C709.07 38.4424 815.257 38.4424 921.443 38.4424C929.425 38.4424 936.018 41.8293 936.018 46.063C936.018 47.0791 936.018 48.0952 936.018 49.1113C936.018 53.345 929.425 56.7319 921.443 56.7319C815.257 56.7319 709.07 56.7319 602.883 56.7319C594.902 56.7319 588.309 53.345 588.309 49.1113C588.309 48.0952 588.309 47.0791 588.309 46.063C588.309 41.8293 594.902 38.4424 602.883 38.4424Z" fill="#F3D993"/>
<path fill-rule="evenodd" clip-rule="evenodd" d="M603.925 40.1357H920.403C928.385 40.1357 934.978 43.5227 934.978 47.587V48.9418C934.978 53.1755 928.385 56.5625 920.403 56.5625H603.925C595.944 56.5625 589.351 53.1755 589.351 48.9418V47.587C589.351 43.5227 595.944 40.1357 603.925 40.1357Z" fill="#F3DB95"/>
<path fill-rule="evenodd" clip-rule="evenodd" d="M300.92 17.6128H543.884C550.686 17.6128 556 21.6771 556 26.5882V51.1437C556 56.0547 550.686 59.9497 543.884 59.9497H300.92C294.33 59.9497 288.804 56.0547 288.804 51.1437V26.5882C288.804 21.6771 294.33 17.6128 300.92 17.6128Z" fill="#EFB469"/>
<path fill-rule="evenodd" clip-rule="evenodd" d="M305.384 22.0161H539.42C545.797 22.0161 551.111 25.9111 551.111 30.4835V49.7891C551.111 54.5309 545.797 58.4259 539.42 58.4259H305.384C299.007 58.4259 293.905 54.5309 293.905 49.7891V30.4835C293.905 25.7418 299.007 22.0161 305.384 22.0161Z" fill="#F1C383"/>
<path fill-rule="evenodd" clip-rule="evenodd" d="M306.023 23.5396C383.61 23.5396 461.196 23.5396 538.996 23.5396C545.373 23.5396 550.475 27.4345 550.475 32.1763C550.475 37.9341 550.475 43.8613 550.475 49.7885C550.475 54.5302 545.373 58.2558 538.996 58.2558C461.196 58.2558 383.61 58.2558 306.023 58.2558C299.646 58.2558 294.544 54.5302 294.544 49.7885C294.544 43.8613 294.544 37.9341 294.544 32.1763C294.544 27.4345 299.646 23.5396 306.023 23.5396Z" fill="#F1C585"/>
<path fill-rule="evenodd" clip-rule="evenodd" d="M306.449 25.2329C383.823 25.2329 461.197 25.2329 538.359 25.2329C544.736 25.2329 549.838 28.9586 549.838 33.7003C549.838 38.9501 549.838 44.3692 549.838 49.7883C549.838 54.3607 544.736 58.0864 538.359 58.0864C461.197 58.0864 383.823 58.0864 306.449 58.0864C300.284 58.0864 295.183 54.3607 295.183 49.7883C295.183 44.3692 295.183 38.9501 295.183 33.7003C295.183 28.9586 300.284 25.2329 306.449 25.2329Z" fill="#F1C786"/>
<path fill-rule="evenodd" clip-rule="evenodd" d="M307.086 26.9268C384.036 26.9268 460.985 26.9268 537.934 26.9268C544.099 26.9268 549.2 30.6524 549.2 35.2248C549.2 39.9665 549.2 44.8776 549.2 49.6194C549.2 54.1917 544.099 57.9174 537.934 57.9174C460.985 57.9174 384.036 57.9174 307.086 57.9174C300.922 57.9174 295.82 54.1917 295.82 49.6194C295.82 44.8776 295.82 39.9665 295.82 35.2248C295.82 30.6524 300.922 26.9268 307.086 26.9268Z" fill="#F2CA88"/>
<path fill-rule="evenodd" clip-rule="evenodd" d="M307.512 28.4502C384.249 28.4502 460.773 28.4502 537.297 28.4502C543.462 28.4502 548.564 32.1758 548.564 36.7482C548.564 40.9819 548.564 45.2156 548.564 49.6187C548.564 54.0217 543.462 57.7474 537.297 57.7474C460.773 57.7474 384.249 57.7474 307.512 57.7474C301.348 57.7474 296.459 54.0217 296.459 49.6187C296.459 45.2156 296.459 40.9819 296.459 36.7482C296.459 32.1758 301.348 28.4502 307.512 28.4502Z" fill="#F2CC8A"/>
<path fill-rule="evenodd" clip-rule="evenodd" d="M308.148 30.1445C384.247 30.1445 460.559 30.1445 536.87 30.1445C542.822 30.1445 547.924 33.8702 547.924 38.2732C547.924 41.9989 547.924 45.7245 547.924 49.4502C547.924 53.8532 542.822 57.5789 536.87 57.5789C460.559 57.5789 384.247 57.5789 308.148 57.5789C301.984 57.5789 297.095 54.0226 297.095 49.4502C297.095 45.7245 297.095 41.9989 297.095 38.2732C297.095 33.8702 301.984 30.1445 308.148 30.1445Z" fill="#F2CE8B"/>
<path fill-rule="evenodd" clip-rule="evenodd" d="M308.573 31.8379C384.46 31.8379 460.346 31.8379 536.445 31.8379C542.397 31.8379 547.286 35.3942 547.286 39.7972C547.286 43.0148 547.286 46.2325 547.286 49.4501C547.286 53.8531 542.397 57.4094 536.445 57.4094C460.346 57.4094 384.46 57.4094 308.573 57.4094C302.621 57.4094 297.732 53.8531 297.732 49.4501C297.732 46.2325 297.732 43.0148 297.732 39.7972C297.732 35.3942 302.621 31.8379 308.573 31.8379Z" fill="#F2D08D"/>
<path fill-rule="evenodd" clip-rule="evenodd" d="M308.999 33.5308C384.673 33.5308 460.347 33.5308 535.808 33.5308C541.76 33.5308 546.437 37.0871 546.437 41.3208C546.437 44.0303 546.437 46.7399 546.437 49.2801C546.437 53.6831 541.76 57.2395 535.808 57.2395C460.347 57.2395 384.673 57.2395 308.999 57.2395C303.26 57.2395 298.371 53.6831 298.371 49.2801C298.371 46.7399 298.371 44.0303 298.371 41.3208C298.371 37.0871 303.26 33.5308 308.999 33.5308Z" fill="#F2D28E"/>
<path fill-rule="evenodd" clip-rule="evenodd" d="M309.635 35.0552C384.884 35.0552 460.133 35.0552 535.381 35.0552C541.121 35.0552 545.797 38.6115 545.797 43.0145C545.797 45.0467 545.797 47.0789 545.797 49.2804C545.797 53.5141 541.121 57.0704 535.381 57.0704C460.133 57.0704 384.884 57.0704 309.635 57.0704C303.896 57.0704 299.007 53.5141 299.007 49.2804C299.007 47.0789 299.007 45.0467 299.007 43.0145C299.007 38.6115 303.896 35.0552 309.635 35.0552Z" fill="#F2D490"/>
<path fill-rule="evenodd" clip-rule="evenodd" d="M310.061 36.7485C385.097 36.7485 459.921 36.7485 534.745 36.7485C540.484 36.7485 545.16 40.3048 545.16 44.5385C545.16 46.0627 545.16 47.5868 545.16 49.1109C545.16 53.3446 540.484 56.9009 534.745 56.9009C459.921 56.9009 385.097 56.9009 310.061 56.9009C304.322 56.9009 299.646 53.3446 299.646 49.1109C299.646 47.5868 299.646 46.0627 299.646 44.5385C299.646 40.3048 304.322 36.7485 310.061 36.7485Z" fill="#F3D792"/>
<path fill-rule="evenodd" clip-rule="evenodd" d="M310.699 38.4424C385.098 38.4424 459.709 38.4424 534.32 38.4424C539.847 38.4424 544.523 41.8293 544.523 46.063C544.523 47.0791 544.523 48.0952 544.523 49.1113C544.523 53.345 539.847 56.7319 534.32 56.7319C459.709 56.7319 385.098 56.7319 310.699 56.7319C304.96 56.7319 300.284 53.345 300.284 49.1113C300.284 48.0952 300.284 47.0791 300.284 46.063C300.284 41.8293 304.96 38.4424 310.699 38.4424Z" fill="#F3D993"/>
<path fill-rule="evenodd" clip-rule="evenodd" d="M311.125 40.1357H533.683C539.422 40.1357 543.886 43.5227 543.886 47.587V48.9418C543.886 53.1755 539.422 56.5625 533.683 56.5625H311.125C305.598 56.5625 300.922 53.1755 300.922 48.9418V47.587C300.922 43.5227 305.598 40.1357 311.125 40.1357Z" fill="#F3DB95"/>
<path d="M90.7071 45.4826C87.6685 74.0827 89.3777 93.8708 98.3036 110.258C107.04 126.336 123.372 140.095 149.58 156.327C175.598 140.095 191.93 126.336 200.666 110.258C209.592 93.8708 211.302 74.0827 208.263 45.6372C187.942 42.2361 168.761 40.5356 149.58 40.5356C130.399 40.5356 111.028 42.0815 90.7071 45.4826ZM73.2351 119.224C61.4605 97.4265 59.7513 72.2275 64.4991 35.2794L65.6386 27.395L74.9443 25.6945C100.772 20.5928 125.081 18.2739 149.58 18.2739C173.889 18.4285 198.198 20.902 223.836 25.6945L233.521 27.395L234.471 35.2794C239.219 72.2275 237.51 97.4265 225.735 119.224C213.77 141.022 192.31 158.337 157.556 179.207L149.58 184L141.414 179.207C106.66 158.337 85.1996 141.022 73.2351 119.224Z" fill="black" fill-opacity="0.101961"/>
<path d="M90.7071 36.2087C87.6685 64.8087 89.3777 84.5969 98.3036 100.984C107.04 117.062 123.372 130.666 149.58 147.053C175.598 130.666 191.93 117.062 200.666 100.984C209.592 84.5969 211.302 64.8087 208.263 36.2087C187.942 32.9622 168.761 31.2617 149.58 31.2617C130.399 31.1071 111.028 32.8076 90.7071 36.2087ZM73.2351 109.95C61.4605 88.1526 59.7513 62.799 64.4991 26.0054L65.6386 18.1211L74.9443 16.266C100.772 11.3189 125.081 9 149.58 9C173.889 9 198.198 11.4735 223.836 16.266L233.521 18.1211L234.471 26.0054C239.219 62.799 237.51 88.1526 225.735 109.95C213.77 131.748 192.31 148.908 157.556 169.779L149.58 174.726L141.414 169.779C106.66 148.908 85.1996 131.748 73.2351 109.95Z" fill="white"/>
<path fill-rule="evenodd" clip-rule="evenodd" d="M78.17 23.5302C69.0542 93.2525 83.8674 117.833 149.577 157.255C215.287 117.833 229.91 93.2525 220.984 23.5302C171.227 14.2545 127.927 13.9453 78.17 23.5302Z" fill="#E6E6E6"/>
<path fill-rule="evenodd" clip-rule="evenodd" d="M149.58 157.255C215.289 117.834 229.913 93.2531 220.987 23.5308C196.108 18.893 172.749 16.574 149.58 16.4194V157.255Z" fill="#CCCCCC"/>
<path fill-rule="evenodd" clip-rule="evenodd" d="M149.581 142.725C130.97 131.594 116.347 121.545 105.332 111.497C85.7706 93.5636 77.0346 75.0122 75.8952 48.5765C73.8061 99.902 92.4175 122.937 149.581 157.257C206.745 122.937 225.356 99.902 223.077 48.4219C221.938 75.0122 213.202 93.5636 193.641 111.497C182.626 121.545 168.193 131.594 149.581 142.725Z" fill="white"/>
<path fill-rule="evenodd" clip-rule="evenodd" d="M75.7061 56.9238C75.896 102.529 95.6469 124.946 149.582 157.256C203.517 124.946 223.078 102.529 223.268 56.9238C223.268 54.9141 223.268 52.7498 223.078 50.5854C221.939 77.0212 213.203 95.5726 193.642 113.506C182.627 123.554 168.194 133.603 149.582 144.734C130.971 133.603 116.347 123.554 105.332 113.506C85.7714 95.5726 77.0354 77.0212 75.896 50.5854C75.7061 52.7498 75.7061 54.9141 75.7061 56.9238Z" fill="#999999"/>
<path fill-rule="evenodd" clip-rule="evenodd" d="M147.303 15.1846L152.811 16.4213L149.582 74.3944L147.303 15.1846Z" fill="white"/>
<path fill-rule="evenodd" clip-rule="evenodd" d="M149.579 166.224L141.413 161.277C106.659 140.561 85.1991 123.247 73.2346 101.449C66.0179 87.9989 62.5995 73.3124 62.0298 55.3794C61.6499 77.3319 64.8785 94.4919 73.2346 109.951C85.1991 131.749 106.659 148.909 141.413 169.78L149.579 174.727L157.556 169.78C192.31 148.909 213.77 131.749 225.734 109.951C234.091 94.4919 237.509 77.3319 236.939 55.3794C236.559 73.3124 232.951 87.9989 225.734 101.449C213.77 123.247 192.31 140.561 157.556 161.277L149.579 166.224Z" fill="#E6E6E6"/>
<path d="M314.023 56.2506L304.595 61.3145C303.496 61.9297 302.307 62.119 301.208 61.9297C300.384 61.7878 299.606 61.4565 298.966 60.9832C298.325 60.5099 297.776 59.8947 297.409 59.0901C296.86 58.049 296.586 56.7712 296.814 55.3514L298.554 44.6083L290.682 36.6574C289.858 35.8056 289.309 34.7171 289.08 33.6286C288.943 32.8713 288.988 32.0668 289.171 31.3096V31.2622C289.4 30.505 289.766 29.7951 290.361 29.1325C291.139 28.328 292.192 27.7601 293.519 27.4761L293.657 27.4288L304.366 25.7724L304.595 25.2045C306.288 20.7558 309.126 13.4202 313.977 13.4675C318.783 13.5622 321.62 20.6611 323.359 25.1571L323.634 25.7724L334.343 27.4288L334.481 27.4761C335.808 27.7601 336.861 28.328 337.639 29.1325C338.234 29.7478 338.6 30.505 338.829 31.3096C339.012 32.0668 339.057 32.8713 338.92 33.6286C338.691 34.7171 338.142 35.8056 337.318 36.6574L329.492 44.6083L331.186 55.3514C331.414 56.7712 331.186 58.049 330.636 59.0901C330.224 59.8947 329.675 60.5099 329.034 60.9832C328.394 61.4565 327.616 61.7878 326.792 61.9297C325.693 62.119 324.504 61.9297 323.405 61.3145L314.023 56.2506Z" fill="black" fill-opacity="0.101961"/>
<path d="M314.023 54.784L304.595 59.8479C303.496 60.4631 302.307 60.6051 301.208 60.4631C300.384 60.3212 299.606 59.9899 298.966 59.5166C298.325 59.0433 297.776 58.3808 297.409 57.6235C296.86 56.5824 296.586 55.2572 296.814 53.8848V53.8374L298.554 43.0943L290.682 35.1435C289.858 34.2916 289.309 33.2505 289.08 32.1619C288.943 31.4047 288.988 30.6002 289.171 29.7956C289.4 29.0384 289.766 28.2812 290.361 27.6659C291.139 26.8614 292.192 26.2461 293.519 26.0095L293.657 25.9622L304.366 24.3058L304.595 23.7378C306.288 19.2892 309.126 11.9062 313.977 12.0009C318.783 12.0482 321.62 19.1945 323.359 23.6432L323.634 24.3058L334.343 25.9622L334.481 26.0095C335.808 26.2461 336.861 26.8614 337.639 27.6659C338.234 28.2812 338.6 29.0384 338.829 29.7956C339.012 30.6002 339.057 31.3574 338.92 32.1619C338.691 33.2505 338.142 34.2916 337.318 35.1435L329.492 43.0943L331.186 53.8374V53.8848C331.414 55.2572 331.186 56.5824 330.636 57.6235C330.224 58.3808 329.675 59.0433 329.034 59.5166C328.394 59.9899 327.616 60.3212 326.792 60.4631C325.693 60.6051 324.504 60.4631 323.405 59.8479L314.023 54.784Z" fill="white"/>
<path d="M314.021 51.282L303.22 57.1032C301.39 58.097 299.422 56.6299 299.742 54.3582L301.756 42.006L292.786 32.9194C291.504 31.6416 291.687 29.5119 294.113 29.0386L306.47 27.0982C307.614 24.6846 310.452 15.03 313.976 15.0773C317.5 15.1246 320.292 24.4953 321.527 27.0982L333.93 29.0386C336.31 29.5119 336.539 31.6416 335.212 32.9194L326.287 42.006L328.255 54.3582C328.575 56.6299 326.607 58.097 324.777 57.1032L314.021 51.282Z" fill="#FFE00F"/>
<path fill-rule="evenodd" clip-rule="evenodd" d="M314.021 48.8682L303.22 54.6893C301.847 55.4465 300.383 54.784 299.879 53.4588L299.742 54.358C299.422 56.6297 301.39 58.0968 303.22 57.103L314.021 51.2818L324.777 57.103C326.607 58.0968 328.575 56.6297 328.255 54.358L328.118 53.4588C327.614 54.784 326.15 55.4465 324.777 54.6893L314.021 48.8682Z" fill="#DCB000"/>
<path fill-rule="evenodd" clip-rule="evenodd" d="M325.922 39.9244L326.288 42.0067L335.213 32.9201C336.083 32.0682 336.266 30.885 335.625 29.9858C335.533 30.1751 335.396 30.3645 335.213 30.5064L325.922 39.9244Z" fill="#DCB000"/>
<path fill-rule="evenodd" clip-rule="evenodd" d="M302.078 39.9244L292.787 30.5064C292.604 30.3645 292.466 30.1751 292.375 29.9858C291.734 30.885 291.917 32.0682 292.787 32.9201L301.757 42.0067L302.078 39.9244Z" fill="#DCB000"/>
<path fill-rule="evenodd" clip-rule="evenodd" d="M304.596 58.4282C303.498 59.0435 302.308 59.2328 301.209 59.0435C300.385 58.9015 299.607 58.6175 298.967 58.1443C298.326 57.671 297.777 57.0084 297.411 56.2512C297.09 55.636 296.861 54.9261 296.77 54.1688C296.633 55.4467 296.861 56.6298 297.411 57.6237C297.777 58.3809 298.326 59.0435 298.967 59.5167C299.607 59.99 300.385 60.3213 301.209 60.4633C302.308 60.6052 303.498 60.4633 304.596 59.848L314.024 54.7841L323.406 59.848C324.505 60.4633 325.695 60.6052 326.793 60.4633C327.617 60.3213 328.395 59.99 329.036 59.5167C329.676 59.0435 330.226 58.3809 330.638 57.6237C331.141 56.6298 331.37 55.4467 331.232 54.1688C331.141 54.9261 330.958 55.636 330.638 56.2512C330.226 57.0084 329.676 57.671 329.036 58.0969C328.395 58.6175 327.617 58.9015 326.793 59.0435C325.695 59.2328 324.505 59.0435 323.406 58.4755L314.024 53.4116L304.596 58.4282Z" fill="#E6E6E6"/>
<path fill-rule="evenodd" clip-rule="evenodd" d="M321.527 27.0982C320.291 24.4953 317.499 15.1246 313.975 15.0773C310.451 15.03 307.613 24.6846 306.469 27.0982L294.112 29.0386C293.288 29.1806 292.693 29.5592 292.373 29.9851L292.785 30.5057L297.682 35.475C302.121 33.298 307.659 31.2156 313.746 29.6539C317.362 28.7073 320.84 27.9974 324.135 27.5242L321.527 27.0982Z" fill="#FFF71F"/>
<path fill-rule="evenodd" clip-rule="evenodd" d="M326.654 44.4663C324 45.4602 321.071 46.3594 318.05 47.1639C311.643 48.8677 305.555 49.7669 300.475 49.9562L299.88 53.4583C300.384 54.7835 301.848 55.446 303.221 54.6888L314.022 48.8677L324.778 54.6888C326.151 55.446 327.615 54.7835 328.119 53.4583L326.654 44.4663Z" fill="#F7C600"/>
<ellipse cx="603.39" cy="37.9998" rx="24.3902" ry="23.8372" fill="#E6E6E6"/>
<ellipse cx="604" cy="38.5812" rx="25" ry="24.4186" fill="black" fill-opacity="0.1"/>
<ellipse cx="604" cy="36.8372" rx="25" ry="23.8372" fill="white"/>
<path d="M605.74 55.9162V54.3958C605.74 53.4511 604.939 52.6878 603.948 52.6878C602.958 52.6878 602.157 53.4511 602.157 54.3958V55.9162C596.398 55.4302 591.329 52.624 587.986 48.4868C585.699 45.6559 584.22 42.2019 583.881 38.4415H585.426C586.415 38.4415 587.216 37.6766 587.216 36.7335C587.216 35.7888 586.415 35.0254 585.426 35.0254H583.891C584.773 25.8197 592.494 18.4734 602.157 17.6564V19.0711C602.157 20.0158 602.958 20.7792 603.948 20.7792C604.939 20.7792 605.74 20.0158 605.74 19.0711V17.6564C610.092 18.0244 614.05 19.7169 617.167 22.3073C620.971 25.4682 623.521 29.966 624.006 35.0254H622.472C621.481 35.0254 620.681 35.7888 620.681 36.7335C620.681 37.6766 621.481 38.4415 622.472 38.4415H624.015C623.183 47.6977 615.439 55.0976 605.74 55.9162ZM603.948 14.1631C590.843 14.1631 580.221 24.2899 580.221 36.7871C580.221 49.2827 590.843 59.4111 603.948 59.4111C617.054 59.4111 627.676 49.2827 627.676 36.7871C627.676 24.2899 617.054 14.1631 603.948 14.1631Z" fill="#DCB000"/>
<path d="M605.74 55.9162V54.3958C605.74 53.4511 604.939 52.6878 603.948 52.6878C602.958 52.6878 602.157 53.4511 602.157 54.3958V55.9162C596.398 55.4302 591.329 52.624 587.986 48.4868C585.699 45.6559 584.22 42.2019 583.881 38.4415H585.426C586.415 38.4415 587.216 37.6766 587.216 36.7335C587.216 35.7888 586.415 35.0254 585.426 35.0254H583.891C584.773 25.8197 592.494 18.4734 602.157 17.6564V19.0711C602.157 20.0158 602.958 20.7792 603.948 20.7792C604.939 20.7792 605.74 20.0158 605.74 19.0711V17.6564C610.092 18.0244 614.05 19.7169 617.167 22.3073C620.971 25.4682 623.521 29.966 624.006 35.0254H622.472C621.481 35.0254 620.681 35.7888 620.681 36.7335C620.681 37.6766 621.481 38.4415 622.472 38.4415H624.015C623.183 47.6977 615.439 55.0976 605.74 55.9162Z" fill="#FFE00F"/>
<path d="M614.614 25.7643L604.008 36.3627L603.947 36.3595C603.815 36.3595 603.686 36.3722 603.56 36.3958L594.681 30.0005C594.094 29.5794 593.252 29.6867 592.804 30.2529C592.357 30.8143 592.471 31.6202 593.067 32.0476L601.941 38.4414C602.027 39.4255 602.892 40.2014 603.947 40.2014C605.06 40.2014 605.962 39.3403 605.962 38.2805C605.962 38.23 605.959 38.1795 605.954 38.1307L616.559 27.5323C617.071 27.0182 617.052 26.2107 616.515 25.7218C615.979 25.2313 615.129 25.2549 614.614 25.7643Z" fill="#DCB000"/>
</svg>
