<svg width="741" height="695" viewBox="0 0 741 695" fill="none" xmlns="http://www.w3.org/2000/svg">
<g clip-path="url(#clip0_486_107174)">
<path fill-rule="evenodd" clip-rule="evenodd" d="M29.8905 75.8613H717.637C730.501 75.8613 741 88.5504 741 104.097V666.074C741 681.621 730.501 694.31 717.637 694.31H29.8905C17.0266 694.31 6.52734 681.621 6.52734 666.074V104.097C6.52734 88.5504 17.0266 75.8613 29.8905 75.8613Z" fill="black" fill-opacity="0.101961"/>
<path fill-rule="evenodd" clip-rule="evenodd" d="M23.3632 66.9443H711.205C723.974 66.9443 734.568 79.6333 734.568 95.1803V657.271C734.568 672.704 723.974 685.393 711.205 685.393H23.3632C10.4992 685.393 0 672.704 0 657.271V95.1803C0 79.6333 10.4992 66.9443 23.3632 66.9443Z" fill="#E6E6E6"/>
<path fill-rule="evenodd" clip-rule="evenodd" d="M23.3632 61H711.205C723.974 61 734.568 73.6891 734.568 89.236V651.327C734.568 666.874 723.974 679.563 711.205 679.563H23.3632C10.4992 679.563 0 666.874 0 651.327V89.236C0 73.6891 10.4992 61 23.3632 61Z" fill="white"/>
<path fill-rule="evenodd" clip-rule="evenodd" d="M38.0248 79.9761H699.571C711.678 79.9761 721.61 91.8649 721.61 106.497V636.237C721.61 650.869 711.678 662.873 699.571 662.873H38.0248C25.9175 662.873 15.9858 650.869 15.9858 636.237V106.497C15.9858 91.8649 25.9175 79.9761 38.0248 79.9761Z" fill="#E6E6E6"/>
<path fill-rule="evenodd" clip-rule="evenodd" d="M32.9171 76.4326H695.314C707.327 76.4326 717.164 88.3215 717.164 102.84V629.035C717.164 643.553 707.327 655.442 695.314 655.442H32.9171C20.9045 655.442 11.0674 643.553 11.0674 629.035V102.84C11.0674 88.3215 20.9045 76.4326 32.9171 76.4326Z" fill="#F1C383"/>
<path fill-rule="evenodd" clip-rule="evenodd" d="M32.6334 69.5737H690.679C702.503 69.5737 712.245 81.2339 712.245 95.5233V613.831C712.245 628.121 702.503 639.895 690.679 639.895H32.6334C20.8099 639.895 11.0674 628.121 11.0674 613.831V95.5233C11.0674 81.2339 20.8099 69.5737 32.6334 69.5737Z" fill="#FAEECC"/>
<path fill-rule="evenodd" clip-rule="evenodd" d="M36.1328 73.0034C253.117 73.0034 470.195 73.0034 687.179 73.0034C698.908 73.0034 708.461 84.5493 708.461 98.7244C708.461 269.398 708.461 439.957 708.461 610.63C708.461 624.806 698.908 636.351 687.179 636.351C470.195 636.351 253.117 636.351 36.1328 636.351C24.4039 636.351 14.8506 624.806 14.8506 610.63C14.8506 439.957 14.8506 269.398 14.8506 98.7244C14.8506 84.5493 24.4039 73.0034 36.1328 73.0034Z" fill="#FAEDC9"/>
<path fill-rule="evenodd" clip-rule="evenodd" d="M39.5379 76.4326C254.347 76.4326 469.06 76.4326 683.774 76.4326C695.314 76.4326 704.773 87.8642 704.773 101.811C704.773 270.427 704.773 438.928 704.773 607.544C704.773 621.49 695.314 632.922 683.774 632.922C469.06 632.922 254.347 632.922 39.5379 632.922C27.9982 632.922 18.5396 621.49 18.5396 607.544C18.5396 438.928 18.5396 270.427 18.5396 101.811C18.5396 87.8642 27.9982 76.4326 39.5379 76.4326Z" fill="#F9ECC6"/>
<path fill-rule="evenodd" clip-rule="evenodd" d="M43.0379 79.9766C255.482 79.9766 467.831 79.9766 680.275 79.9766C691.72 79.9766 700.99 91.1795 700.99 105.012C700.99 271.456 700.99 437.899 700.99 604.343C700.99 618.175 691.72 629.493 680.275 629.493C467.831 629.493 255.482 629.493 43.0379 629.493C31.6874 629.493 22.3232 618.175 22.3232 604.343C22.3232 437.899 22.3232 271.456 22.3232 105.012C22.3232 91.1795 31.6874 79.9766 43.0379 79.9766Z" fill="#F9EBC2"/>
<path fill-rule="evenodd" clip-rule="evenodd" d="M46.5377 83.4062C256.617 83.4062 466.696 83.4062 676.775 83.4062C688.031 83.4062 697.3 94.495 697.3 108.213C697.3 272.484 697.3 436.871 697.3 601.257C697.3 614.86 688.031 625.949 676.775 625.949C466.696 625.949 256.617 625.949 46.5377 625.949C35.2818 625.949 26.0122 614.86 26.0122 601.257C26.0122 436.871 26.0122 272.484 26.0122 108.213C26.0122 94.495 35.2818 83.4062 46.5377 83.4062Z" fill="#F8EABF"/>
<path fill-rule="evenodd" clip-rule="evenodd" d="M50.0376 86.8354C257.752 86.8354 465.561 86.8354 673.275 86.8354C684.436 86.8354 693.517 97.8098 693.517 111.299C693.517 273.513 693.517 435.842 693.517 598.056C693.517 611.545 684.436 622.519 673.275 622.519C465.561 622.519 257.752 622.519 50.0376 622.519C38.8763 622.519 29.7959 611.545 29.7959 598.056C29.7959 435.842 29.7959 273.513 29.7959 111.299C29.7959 97.8098 38.8763 86.8354 50.0376 86.8354Z" fill="#F8E9BC"/>
<path fill-rule="evenodd" clip-rule="evenodd" d="M53.5374 90.3794C258.982 90.3794 464.426 90.3794 669.87 90.3794C680.843 90.3794 689.828 101.125 689.828 114.5C689.828 274.656 689.828 434.813 689.828 594.969C689.828 608.23 680.843 619.09 669.87 619.09C464.426 619.09 258.982 619.09 53.5374 619.09C42.4707 619.09 33.4849 608.23 33.4849 594.969C33.4849 434.813 33.4849 274.656 33.4849 114.5C33.4849 101.125 42.4707 90.3794 53.5374 90.3794Z" fill="#F7E8B9"/>
<path fill-rule="evenodd" clip-rule="evenodd" d="M56.9423 93.8086C260.117 93.8086 463.196 93.8086 666.371 93.8086C677.154 93.8086 686.045 104.554 686.045 117.586C686.045 275.685 686.045 433.67 686.045 591.768C686.045 604.915 677.154 615.546 666.371 615.546C463.196 615.546 260.117 615.546 56.9423 615.546C46.1593 615.546 37.2681 604.915 37.2681 591.768C37.2681 433.67 37.2681 275.685 37.2681 117.586C37.2681 104.554 46.1593 93.8086 56.9423 93.8086Z" fill="#F7E7B6"/>
<path fill-rule="evenodd" clip-rule="evenodd" d="M60.4422 97.2378C261.252 97.2378 462.061 97.2378 662.871 97.2378C673.559 97.2378 682.356 107.869 682.356 120.787C682.356 276.714 682.356 432.641 682.356 588.567C682.356 601.599 673.559 612.116 662.871 612.116C462.061 612.116 261.252 612.116 60.4422 612.116C49.7538 612.116 41.0518 601.599 41.0518 588.567C41.0518 432.641 41.0518 276.714 41.0518 120.787C41.0518 107.869 49.7538 97.2378 60.4422 97.2378Z" fill="#F6E6B3"/>
<path fill-rule="evenodd" clip-rule="evenodd" d="M63.942 100.668C262.387 100.668 460.926 100.668 659.371 100.668C669.965 100.668 678.572 111.185 678.572 123.874C678.572 277.743 678.572 431.612 678.572 585.481C678.572 598.17 669.965 608.687 659.371 608.687C460.926 608.687 262.387 608.687 63.942 608.687C53.3482 608.687 44.7407 598.17 44.7407 585.481C44.7407 431.612 44.7407 277.743 44.7407 123.874C44.7407 111.185 53.3482 100.668 63.942 100.668Z" fill="#F6E5AF"/>
<path fill-rule="evenodd" clip-rule="evenodd" d="M67.4415 104.212C263.616 104.212 459.696 104.212 655.871 104.212C666.276 104.212 674.789 114.5 674.789 127.075C674.789 278.772 674.789 430.583 674.789 582.28C674.789 594.855 666.276 605.143 655.871 605.143C459.696 605.143 263.616 605.143 67.4415 605.143C57.0368 605.143 48.5239 594.855 48.5239 582.28C48.5239 430.583 48.5239 278.772 48.5239 127.075C48.5239 114.5 57.0368 104.212 67.4415 104.212Z" fill="#F5E4AC"/>
<path fill-rule="evenodd" clip-rule="evenodd" d="M70.8462 107.641H652.466C662.681 107.641 671.099 117.815 671.099 130.161V579.194C671.099 591.54 662.681 601.714 652.466 601.714H70.8462C60.6307 601.714 52.2124 591.54 52.2124 579.194V130.161C52.2124 117.815 60.6307 107.641 70.8462 107.641Z" fill="#F5E3A9"/>
<path fill-rule="evenodd" clip-rule="evenodd" d="M695.976 605.486C702.502 605.486 707.799 611.888 707.799 619.776C707.799 627.664 702.502 634.18 695.976 634.18C689.449 634.18 684.152 627.664 684.152 619.776C684.152 611.888 689.449 605.486 695.976 605.486Z" fill="white"/>
<path fill-rule="evenodd" clip-rule="evenodd" d="M677.815 620.118C681.409 620.118 684.247 623.548 684.247 627.892C684.247 632.122 681.409 635.551 677.815 635.551C674.315 635.551 671.478 632.122 671.478 627.892C671.478 623.548 674.315 620.118 677.815 620.118Z" fill="white"/>
<path fill-rule="evenodd" clip-rule="evenodd" d="M34.2414 76.0898C44.3623 76.0898 52.5915 86.0353 52.5915 98.2671C52.5915 110.499 44.3623 120.444 34.2414 120.444C24.1204 120.444 15.9858 110.499 15.9858 98.2671C15.9858 86.0353 24.1204 76.0898 34.2414 76.0898Z" fill="white"/>
<path fill-rule="evenodd" clip-rule="evenodd" d="M62.5227 73.4604C68.1034 73.4604 72.6436 78.9477 72.6436 85.6923C72.6436 92.437 68.1034 97.924 62.5227 97.924C56.9421 97.924 52.4019 92.437 52.4019 85.6923C52.4019 78.9477 56.9421 73.4604 62.5227 73.4604Z" fill="white"/>
<path fill-rule="evenodd" clip-rule="evenodd" d="M215.312 166.576C215.312 167.041 215.216 167.506 215.216 167.971C215.216 168.088 215.216 168.088 215.216 168.204C215.119 168.553 215.119 168.901 215.023 169.25C215.023 169.367 214.927 169.483 214.927 169.599C214.831 169.832 214.831 170.064 214.735 170.297C214.638 170.413 214.542 170.529 214.542 170.762C214.446 170.878 214.35 171.111 214.254 171.227C214.254 171.343 214.157 171.459 214.061 171.576C213.965 171.808 213.869 171.924 213.773 172.041C213.676 172.157 213.58 172.273 213.484 172.389C213.388 172.506 213.195 172.622 213.099 172.738C213.003 172.854 212.907 172.971 212.714 173.087C212.618 173.087 212.522 173.203 212.33 173.32C212.233 173.436 212.041 173.552 211.945 173.552C211.752 173.668 211.656 173.785 211.464 173.785C211.271 173.901 211.175 173.901 210.983 174.017C210.79 174.017 210.694 174.133 210.502 174.133C210.309 174.25 210.213 174.25 210.021 174.25C209.828 174.366 209.636 174.366 209.347 174.482C209.251 174.482 209.059 174.482 208.963 174.482C208.674 174.482 208.482 174.598 208.193 174.598C208.097 174.598 207.904 174.598 207.712 174.598C207.423 174.598 207.231 174.598 206.942 174.598C206.75 174.598 206.558 174.598 206.365 174.598C206.173 174.598 205.884 174.598 205.596 174.598H205.018C204.73 174.598 204.441 174.598 204.153 174.482H203.576C203.287 174.366 202.902 174.366 202.614 174.366L202.036 174.25C201.652 174.133 201.267 174.133 200.978 174.017H200.401C200.016 173.901 199.631 173.785 199.247 173.785L198.669 173.668C198.285 173.552 197.9 173.436 197.515 173.32L196.842 173.203C196.457 173.087 195.976 172.971 195.591 172.854H195.11L193.571 172.389L193.186 172.273C181.161 169.134 165.384 163.437 148.934 160.879C146.241 160.414 143.643 160.065 140.95 159.833H140.854C139.988 159.717 139.122 159.717 138.256 159.6H138.16C137.294 159.6 136.429 159.484 135.563 159.484H135.467C117.573 158.903 99.8729 163.437 86.3088 180.179H86.2126L85.8278 180.644V180.76C85.1544 181.458 84.5772 182.272 84 183.086C93.1389 136.348 110.262 122.28 132.003 108.91L131.234 108.096L128.54 105.305H611.46L608.766 108.096L607.997 108.91C629.641 122.28 646.861 136.348 656 183.086C655.423 182.272 654.846 181.458 654.172 180.76V180.644L653.787 180.179H653.691C640.127 163.437 622.427 158.903 604.533 159.484H604.437C603.571 159.484 602.609 159.6 601.744 159.6C600.878 159.717 600.012 159.717 599.146 159.833H599.05C596.357 160.065 593.759 160.414 591.066 160.879H590.969C574.519 163.437 558.743 169.134 546.718 172.273L546.333 172.389L544.89 172.854H544.409C544.024 172.971 543.543 173.087 543.158 173.203L542.485 173.32C542.1 173.436 541.715 173.552 541.331 173.668L540.753 173.785C540.369 173.785 539.984 173.901 539.599 174.017H539.022C538.637 174.133 538.348 174.133 537.964 174.25L537.386 174.366C537.098 174.366 536.713 174.366 536.424 174.482H535.847C535.559 174.598 535.27 174.598 534.885 174.598H534.404C534.116 174.598 533.827 174.598 533.539 174.598C533.442 174.598 533.25 174.598 533.058 174.598C532.769 174.598 532.48 174.598 532.288 174.598C532.096 174.598 531.903 174.598 531.807 174.598C531.518 174.598 531.326 174.482 531.037 174.482C530.941 174.482 530.749 174.482 530.556 174.482C530.364 174.366 530.172 174.366 529.979 174.25C529.787 174.25 529.691 174.25 529.498 174.133C529.306 174.133 529.113 174.017 529.017 174.017C528.825 173.901 528.632 173.901 528.536 173.785C528.344 173.785 528.248 173.668 528.055 173.552C527.959 173.552 527.767 173.436 527.67 173.32C527.478 173.203 527.382 173.087 527.189 173.087C527.093 172.971 526.997 172.854 526.901 172.738C526.708 172.622 526.612 172.506 526.516 172.389C526.42 172.273 526.324 172.157 526.227 172.041C526.131 171.924 526.035 171.808 525.939 171.576C525.843 171.459 525.746 171.343 525.65 171.227C525.65 171.111 525.554 170.878 525.458 170.762C525.362 170.529 525.362 170.413 525.265 170.297C525.169 170.064 525.169 169.832 525.073 169.599C525.073 169.483 524.977 169.367 524.977 169.25C524.881 168.901 524.881 168.553 524.784 168.204C524.784 168.088 524.784 168.088 524.784 167.971C524.688 167.506 524.688 167.041 524.688 166.576V155.647V133.325H524.592L523.63 133.209H523.534V133.092H523.438H523.341H523.245H523.149H523.053H522.957H522.86V132.976H522.764L520.359 132.627L520.263 132.511H520.167H520.071L518.05 132.162H517.954C516.704 131.93 515.357 131.697 514.01 131.581L513.914 131.465H513.818L511.894 131.232H511.798H511.701L511.605 131.116H511.509L509.489 130.883H509.393H509.296L509.2 130.767H509.104H509.008H508.912H508.815H508.719L506.41 130.418H506.314H506.218H506.122C504.775 130.186 503.428 130.07 502.081 129.837H501.985H501.889L499.58 129.488L496.309 129.139L493.904 128.907H493.808L493.712 128.791H493.616C492.173 128.674 490.73 128.558 489.191 128.326H489.095H488.902H488.806L486.401 128.093H486.305H486.209H486.112L486.016 127.977H485.92H485.824H485.728L483.419 127.744H483.323H483.226H483.13H483.034H482.938H482.842L480.34 127.512H480.244H480.148L480.052 127.395C478.513 127.279 476.973 127.163 475.434 127.047H475.338H475.242H475.146H475.049L472.356 126.814L468.7 126.465H468.604L466.007 126.233H465.911H465.814H465.718H465.622C464.083 126.117 462.447 126 460.908 125.884H460.812H460.716H460.62H460.523H460.427L457.445 125.652L454.078 125.419H453.982L450.615 125.186H450.519H450.422H450.326L445.613 124.954H445.516H445.42H445.324L442.149 124.721H441.957L438.494 124.605L434.261 124.373H434.165H434.069H433.972H433.876H433.78H433.684H433.588H433.491L429.74 124.14H429.643H429.547H429.451H429.355L426.276 124.024L422.429 123.908L418.292 123.791L413.097 123.559H413.001H409.923L405.786 123.443L402.323 123.326C400.688 123.326 399.052 123.21 397.417 123.21H397.321H397.224H397.128H397.032H396.936H396.84H396.743H396.647H393.376H393.28L389.625 123.094H389.528H389.432H389.336H389.24H389.144H385.103H385.007H384.911H384.815H384.718H384.622H384.526H384.43H384.334L380.005 122.977H376.83H372.309H372.116H367.499H363.362H359.995H359.899L355.666 123.094H355.57H350.375L346.816 123.21H346.624H343.449H343.353L338.543 123.326H338.447L334.022 123.443L330.174 123.559H326.71L322.478 123.791H322.381H322.285H322.189L318.63 123.908H318.533H318.437H318.341H318.245H318.149H318.052H317.956H317.86H317.764H317.668H317.571L313.724 124.024L310.549 124.14L306.124 124.373H306.028L301.218 124.605L298.235 124.721L294.676 124.954H294.58L291.213 125.186H291.117H291.021H290.924H290.828H290.732H290.636H290.443H290.347L286.595 125.419H286.499H286.403H286.307H286.211H286.114H286.018H285.922H285.826H285.73L282.747 125.652L279.38 125.884H279.284H279.188H279.092H278.996H278.899H278.803L278.707 126L274.763 126.233H274.667H274.57H274.474H274.378H274.282H274.186H274.089L271.3 126.465L267.644 126.814H267.548L265.047 127.047H264.951H264.854C263.219 127.163 261.68 127.279 260.141 127.395H260.044L259.948 127.512H259.852H259.756L257.062 127.744H256.966L253.888 128.093H253.791L251.002 128.326H250.905H250.809H250.713H250.617C249.174 128.558 247.827 128.674 246.48 128.791L246.288 128.907H246.192L243.594 129.139L240.612 129.488L238.111 129.837H238.015H237.919C236.572 130.07 235.225 130.186 233.878 130.418H233.782H233.686H233.59L231.281 130.767H231.185L228.395 131.232H228.299H228.202H228.106H228.01L226.279 131.465H226.182H226.086V131.581H225.99C224.739 131.697 223.393 131.93 222.142 132.162H222.046H221.95H221.853L221.757 132.279L220.122 132.511H220.026H219.929H219.833L219.737 132.627L217.332 132.976H217.236L217.14 133.092H217.043L215.312 133.441V155.647V166.576Z" fill="black" fill-opacity="0.101961"/>
<path fill-rule="evenodd" clip-rule="evenodd" d="M215.312 155.88C215.312 187.155 126.905 113.444 84 172.39C94.4857 123.908 108.627 114.025 132.003 98.2136L96.4097 61.3581C132.292 42.6397 196.168 87.2849 215.312 44.6162V155.88Z" fill="#E54149"/>
<path fill-rule="evenodd" clip-rule="evenodd" d="M86.3088 169.483C85.443 170.413 84.7696 171.343 84 172.39C93.1389 125.652 110.262 111.584 132.003 98.2136C117.862 120.536 96.5059 129.488 86.3088 169.483ZM101.027 66.1249L96.4097 61.3581C132.292 42.6397 196.168 87.2849 215.312 44.6162V51.3595C196.938 92.2842 137.487 52.9872 101.027 66.1249Z" fill="#FF6595"/>
<path fill-rule="evenodd" clip-rule="evenodd" d="M215.312 155.88C215.312 187.155 126.905 113.444 84 172.39C114.399 96.4696 215.312 175.994 215.312 145.068V155.88Z" fill="#CF1922"/>
<path fill-rule="evenodd" clip-rule="evenodd" d="M180.488 31.1299L215.312 34.9666V155.88C207.616 120.536 180.488 154.253 180.488 137.046V31.1299Z" fill="#E54149"/>
<path fill-rule="evenodd" clip-rule="evenodd" d="M180.488 31.1299L215.312 34.8503V155.88C210.406 117.513 181.835 152.044 182.604 131.116L180.488 31.1299Z" fill="#AB0009"/>
<path fill-rule="evenodd" clip-rule="evenodd" d="M524.688 155.88C524.688 187.155 613.095 113.444 655.999 172.39C645.514 123.908 631.372 114.025 607.996 98.2136L643.59 61.3581C607.707 42.6397 543.831 87.2849 524.688 44.6162V155.88Z" fill="#E54149"/>
<path fill-rule="evenodd" clip-rule="evenodd" d="M524.688 155.88C524.688 187.155 613.095 113.444 655.999 172.39C645.514 123.908 631.372 114.025 607.996 98.2136L608.766 97.3997C575.673 100.888 538.54 115.653 524.688 84.8433V155.88Z" fill="url(#paint0_linear_486_107174)"/>
<path fill-rule="evenodd" clip-rule="evenodd" d="M653.691 169.483C654.46 170.413 655.23 171.343 655.999 172.39C646.86 125.652 629.641 111.584 607.996 98.2136C622.137 120.536 643.493 129.488 653.691 169.483ZM638.972 66.1249L643.59 61.3581C607.707 42.6397 543.831 87.2849 524.688 44.6162V51.3595C543.062 92.2842 602.416 52.9872 638.972 66.1249Z" fill="#FF6595"/>
<path fill-rule="evenodd" clip-rule="evenodd" d="M524.688 155.88C524.688 187.155 613.095 113.444 655.999 172.39C625.504 96.4695 524.688 175.994 524.688 145.068V155.88Z" fill="#CF1922"/>
<path fill-rule="evenodd" clip-rule="evenodd" d="M559.512 31.1299L524.688 34.9666V155.88C532.384 120.536 559.512 154.253 559.512 137.046V31.1299Z" fill="#E54149"/>
<path fill-rule="evenodd" clip-rule="evenodd" d="M559.512 31.1299L524.688 34.8503V155.88C529.594 117.513 558.165 152.044 557.396 131.116L559.512 31.1299Z" fill="#AB0009"/>
<path fill-rule="evenodd" clip-rule="evenodd" d="M180.488 31.1295C186.26 -10.3765 553.837 -10.3765 559.609 31.1295V136.232C539.695 104.259 200.305 104.259 180.488 136.232V31.1295Z" fill="#E54149"/>
<path fill-rule="evenodd" clip-rule="evenodd" d="M559.609 73.1009V136.232C539.695 104.259 200.305 104.259 180.488 136.232V73.1009C242.344 46.9416 497.753 46.9416 559.609 73.1009Z" fill="#E01B25"/>
<path fill-rule="evenodd" clip-rule="evenodd" d="M180.584 30.7807C188.088 -10.2602 552.009 -10.2602 559.512 30.7807C512.952 -0.029089 227.144 -0.029089 180.584 30.7807Z" fill="#FF6595"/>
<path fill-rule="evenodd" clip-rule="evenodd" d="M559.609 130.186V136.232C539.695 104.259 200.305 104.259 180.488 136.232V130.186C200.305 98.2134 539.695 98.2134 559.609 130.186Z" fill="#C20F18"/>
<path d="M240.047 30.875L239.25 90.125L253.125 91.0156V76.25L265.688 91.25L282.562 91.4375L262.5 67.625C270.156 60.9688 273.984 54.875 273.984 49.3438C273.984 46.375 272.875 43.5781 270.656 40.9531C264.938 34.1719 256.031 30.7812 243.938 30.7812C242.656 30.7812 241.359 30.8125 240.047 30.875ZM253.125 58.4844V43.4844C258.906 44.3594 261.797 46.5469 261.797 50.0469C261.797 52.8906 258.906 55.7031 253.125 58.4844ZM300.328 61.6719L297.656 50.375L294.984 61.9062L300.328 61.6719ZM292.969 70.625L288.703 89L276.656 87.125L291.75 33.5H303.656L319.688 84.5L306.469 87.875L302.438 70.625H292.969ZM319.359 38.75C319.297 43.25 319.266 47.75 319.266 52.25C319.266 64.2812 319.531 76.3906 320.062 88.5781H332.438C331.375 80.7344 330.844 73.5 330.844 66.875C330.844 65.5938 330.859 64.3281 330.891 63.0781L343.688 89.75L356.062 89.3281C354.781 77.9219 354.141 67 354.141 56.5625C354.141 50.0625 354.391 43.75 354.891 37.625L342.141 37.2031C342.078 39.6406 342.047 41.9688 342.047 44.1875C342.047 52.2812 342.453 58.7031 343.266 63.4531L333.234 39.125L319.359 38.75ZM358.688 32.75C358.438 52 359.562 71.25 362.062 90.5L374.812 89C373.312 81.75 372.438 74.0938 372.188 66.0312L386.062 87.875L399.188 80L380.812 61.625L396.562 35.75L383.062 33.8281L371.812 56.375C371.719 53.875 371.672 51.3594 371.672 48.8281C371.672 43.7656 371.844 38.6406 372.188 33.4531L358.688 32.75ZM399.328 35.0469C399.953 44.0156 400.266 53.0469 400.266 62.1406C400.266 71.2344 399.953 80.375 399.328 89.5625L411.703 91.25L413.578 34.2031L399.328 35.0469ZM414.328 38.75C414.266 43.25 414.234 47.75 414.234 52.25C414.234 64.2812 414.5 76.3906 415.031 88.5781H427.406C426.344 80.7344 425.812 73.5 425.812 66.875C425.812 65.5938 425.828 64.3281 425.859 63.0781L438.656 89.75L451.031 89.3281C449.75 77.9219 449.109 67 449.109 56.5625C449.109 50.0625 449.359 43.75 449.859 37.625L437.109 37.2031C437.047 39.6406 437.016 41.9688 437.016 44.1875C437.016 52.2812 437.422 58.7031 438.234 63.4531L428.203 39.125L414.328 38.75ZM496.172 50C495.266 40.75 490.297 35.5469 481.266 34.3906C479.797 34.2031 478.312 34.1094 476.812 34.1094C469 34.1094 463.047 36.7969 458.953 42.1719C455.266 46.9844 453.422 53.4062 453.422 61.4375C453.422 62.75 453.453 63.9062 453.516 64.9062C454.172 75.2812 458.047 82.0781 465.141 85.2969C470.016 87.5156 474.938 88.625 479.906 88.625C482.156 88.625 484.375 88.4062 486.562 87.9688C493.781 86.5312 497.922 78.125 498.984 62.75L478.547 60.7812L476.156 69.3125L485.766 70.4375C484.016 75.0938 481.422 77.4219 477.984 77.4219C476.703 77.4219 475.297 77.0938 473.766 76.4375C468.641 74.2188 466.078 69.625 466.078 62.6562C466.078 61.7812 466.094 61.1094 466.125 60.6406C466.656 52.5469 469.406 47.7969 474.375 46.3906C475.25 46.1406 476.094 46.0156 476.906 46.0156C480.5 46.0156 483.047 48.625 484.547 53.8438L496.172 50Z" fill="white"/>
</g>
<defs>
<linearGradient id="paint0_linear_486_107174" x1="545.189" y1="129.466" x2="635.408" y2="125.646" gradientUnits="userSpaceOnUse">
<stop stop-color="#AB0009"/>
<stop offset="1" stop-color="#E54149"/>
</linearGradient>
<clipPath id="clip0_486_107174">
<rect width="741" height="695" fill="white"/>
</clipPath>
</defs>
</svg>
