<svg width="75" height="75" viewBox="0 0 75 75" fill="none" xmlns="http://www.w3.org/2000/svg">
<path fill-rule="evenodd" clip-rule="evenodd" d="M12.9623 7.54443C29.7445 4.68119 46.4478 4.60584 62.9148 7.54443C68.1149 8.44862 71.5817 11.764 72.6059 16.8123C75.8363 32.7109 75.7575 48.6848 72.6059 64.5833C71.5817 69.6317 68.1937 73.3991 62.9148 73.9265C46.4478 75.3581 29.7445 75.3581 12.9623 73.9265C7.60466 73.4744 3.82277 69.707 3.19246 64.5833C1.30151 48.6848 0.907562 32.7109 3.19246 16.8123C3.90156 11.764 7.68345 8.37327 12.9623 7.54443Z" fill="black" fill-opacity="0.101961"/>
<path fill-rule="evenodd" clip-rule="evenodd" d="M11.3085 3.92822C28.0906 1.06498 44.794 0.989629 61.2609 3.92822C66.461 4.83241 69.9277 8.14774 70.952 13.1961C74.1824 29.0946 74.1036 45.0685 70.952 60.9671C69.9277 66.0154 66.5398 69.7829 61.2609 70.3103C44.794 71.7419 28.0906 71.6666 11.3085 70.3103C5.95086 69.8582 2.16897 66.0908 1.53866 60.9671C-0.352286 45.0685 -0.667443 29.0946 1.53866 13.1961C2.24776 8.14774 6.02965 4.75706 11.3085 3.92822Z" fill="#E6E6E6"/>
<path fill-rule="evenodd" clip-rule="evenodd" d="M11.3085 2.11927C28.0906 -0.668624 44.794 -0.743973 61.2609 2.11927C66.461 3.0988 69.9277 6.41414 70.952 11.4625C74.1824 27.361 74.1036 43.3349 70.952 59.2335C69.9277 64.2818 66.5398 68.0492 61.2609 68.5013C44.794 70.0083 28.0906 69.933 11.3085 68.5013C5.95086 68.0492 2.16897 64.2818 1.53866 59.2335C-0.352286 43.3349 -0.667443 27.361 1.53866 11.4625C2.24776 6.41414 6.02965 3.02345 11.3085 2.11927Z" fill="white"/>
<path fill-rule="evenodd" clip-rule="evenodd" d="M15.0121 6.79105C30.1396 4.2292 45.0308 4.15386 59.7644 6.79105C64.4918 7.61989 67.6434 10.6338 68.5101 15.1547C71.4253 29.3956 71.3465 43.7118 68.5101 57.9527C67.6434 62.4736 64.5706 65.8643 59.7644 66.3164C45.0308 67.5973 30.1396 67.5973 15.0121 66.3164C10.2059 65.8643 6.81799 62.549 6.26646 57.9527C4.61188 43.7118 4.29673 29.3956 6.26646 15.1547C6.89678 10.5585 10.2847 7.61989 15.0121 6.79105Z" fill="#E6E6E6"/>
<path fill-rule="evenodd" clip-rule="evenodd" d="M13.9076 5.50977C29.0351 2.94792 43.9263 2.94792 58.6599 5.50977C63.3873 6.3386 66.5389 9.35254 67.4056 13.8735C70.3208 28.1143 70.242 42.4306 67.4056 56.6714C66.5389 61.1923 63.4661 64.6584 58.6599 65.0351C43.9263 66.316 29.0351 66.316 13.9076 65.0351C9.10144 64.6584 5.71349 61.2677 5.16197 56.6714C3.50739 42.4306 3.19223 28.1143 5.16197 13.8735C5.79228 9.35254 9.18023 6.3386 13.9076 5.50977Z" fill="#00B0DC"/>
<path fill-rule="evenodd" clip-rule="evenodd" d="M13.9076 2.64652C29.0351 0.0846726 43.9263 0.00932401 58.6599 2.64652C63.3873 3.47536 66.5389 6.4893 67.4056 11.0102C70.3208 25.2511 70.242 39.5673 67.4056 53.8082C66.5389 58.3291 63.4661 61.7198 58.6599 62.1719C43.9263 63.4528 29.0351 63.4528 13.9076 62.1719C9.10144 61.7198 5.71349 58.4045 5.16197 53.8082C3.50739 39.492 3.19223 25.2511 5.16197 11.0102C5.79228 6.41395 9.18023 3.40001 13.9076 2.64652Z" fill="#99FFFF"/>
<path fill-rule="evenodd" clip-rule="evenodd" d="M14.2243 3.02344C29.1155 0.461588 43.8491 0.461588 58.4252 3.02344C63.0737 3.85227 66.1465 6.79087 67.0132 11.2364C69.8496 25.3266 69.8496 39.4168 67.0132 53.507C66.1465 57.9525 63.1525 61.3432 58.4252 61.72C43.8491 63.0009 29.1155 63.0009 14.2243 61.72C9.49691 61.3432 6.10896 58.0279 5.63622 53.507C3.98165 39.4168 3.5877 25.3266 5.63622 11.2364C6.26654 6.79087 9.5757 3.77692 14.2243 3.02344Z" fill="#8BFAFF"/>
<path fill-rule="evenodd" clip-rule="evenodd" d="M14.5399 3.40003C29.1947 0.913531 43.7707 0.913531 58.1104 3.40003C62.6802 4.22887 65.7529 7.16746 66.6196 11.5377C69.456 25.4018 69.3773 39.3413 66.6196 53.2054C65.7529 57.651 62.7589 60.9663 58.1104 61.3431C43.7707 62.624 29.1947 62.624 14.5399 61.3431C9.8913 60.9663 6.58215 57.651 6.03062 53.2054C4.37604 39.3413 4.06089 25.4018 6.03062 11.5377C6.66094 7.09211 9.8913 4.15352 14.5399 3.40003Z" fill="#7DF6FF"/>
<path fill-rule="evenodd" clip-rule="evenodd" d="M14.8552 3.77716C29.3525 1.36601 43.6921 1.29066 57.7954 3.77716C62.3652 4.60599 65.3592 7.46924 66.2259 11.8395C68.9835 25.5529 68.9047 39.191 66.2259 52.9044C65.3592 57.2746 62.444 60.5146 57.7954 60.9667C43.6921 62.1723 29.3525 62.1723 14.8552 60.9667C10.2067 60.59 6.97629 57.35 6.42477 52.9044C4.84898 39.191 4.53383 25.5529 6.42477 11.8395C7.05508 7.46924 10.2854 4.53064 14.8552 3.77716Z" fill="#6FF1FF"/>
<path fill-rule="evenodd" clip-rule="evenodd" d="M15.0907 4.15407C29.4304 1.74291 43.5337 1.74291 57.5582 4.15407C61.9704 4.9829 64.9644 7.84615 65.8311 12.0657C68.5099 25.6284 68.5099 39.1158 65.8311 52.6785C64.9644 56.8981 62.0492 60.138 57.5582 60.5148C43.5337 61.7957 29.4304 61.7957 15.0907 60.5148C10.5997 60.138 7.36936 56.9734 6.81784 52.6785C5.24205 39.1158 4.92689 25.6284 6.81784 12.0657C7.44815 7.7708 10.6785 4.90755 15.0907 4.15407Z" fill="#61ECFF"/>
<path fill-rule="evenodd" clip-rule="evenodd" d="M15.4063 4.53022C29.5096 2.19442 43.4553 2.11907 57.2434 4.53022C61.6556 5.35906 64.5708 8.14695 65.3587 12.3665C68.1163 25.7032 68.0375 39.0399 65.3587 52.3765C64.5708 56.5961 61.7344 59.7607 57.2434 60.1374C43.4553 61.343 29.5096 61.343 15.4063 60.1374C10.9941 59.7607 7.76372 56.5961 7.29098 52.3765C5.71519 39.0399 5.40004 25.7032 7.29098 12.3665C7.8425 8.14695 10.9941 5.28371 15.4063 4.53022Z" fill="#53E8FF"/>
<path fill-rule="evenodd" clip-rule="evenodd" d="M15.7206 4.98219C29.5875 2.57104 43.3756 2.57104 56.9274 4.98219C61.2608 5.73568 64.176 8.52357 64.9639 12.6677C67.6427 25.7784 67.564 38.889 64.9639 52.075C64.176 56.2192 61.3396 59.3838 56.9274 59.7606C43.3756 60.9662 29.5875 60.8908 15.7206 59.7606C11.3084 59.3838 8.15678 56.2945 7.68405 52.075C6.10826 38.889 5.7931 25.7784 7.68405 12.6677C8.31436 8.44823 11.3871 5.66033 15.7206 4.98219Z" fill="#46E3FF"/>
<path fill-rule="evenodd" clip-rule="evenodd" d="M16.0359 5.35879C29.7453 3.02298 43.2971 3.02298 56.6913 5.35879C60.9459 6.11227 63.7823 8.82482 64.5702 12.8936C67.1703 25.8536 67.1703 38.8136 64.5702 51.7735C63.7823 55.8423 61.0247 58.9316 56.6913 59.3837C43.2971 60.5139 29.7453 60.5139 16.0359 59.3837C11.7025 59.007 8.62973 55.9177 8.07821 51.7735C6.58121 38.8136 6.26605 25.8536 8.07821 12.8936C8.70852 8.74947 11.7025 6.03693 16.0359 5.35879Z" fill="#38DFFF"/>
<path fill-rule="evenodd" clip-rule="evenodd" d="M16.352 5.73592C29.825 3.47546 43.1404 3.40012 56.377 5.73592C60.5528 6.48941 63.3893 9.12661 64.1771 13.1954C66.7772 25.9293 66.6984 38.7386 64.1771 51.4725C63.3893 55.5413 60.6316 58.5552 56.377 58.932C43.1404 60.1376 29.825 60.0622 16.352 58.932C12.0186 58.5552 9.02458 55.5413 8.55184 51.4725C7.05484 38.7386 6.73968 25.9293 8.55184 13.1954C9.10337 9.12661 12.0974 6.41406 16.352 5.73592Z" fill="#2ADAFF"/>
<path fill-rule="evenodd" clip-rule="evenodd" d="M16.5889 6.11282C29.9043 3.85237 43.0621 3.85237 56.0624 6.11282C60.2382 6.86631 62.9958 9.50351 63.7837 13.497C66.305 26.0802 66.305 38.588 63.7837 51.1713C62.9958 55.1647 60.317 58.1787 56.0624 58.5554C43.0621 59.6856 29.9043 59.6856 16.5889 58.5554C12.4131 58.1787 9.4191 55.2401 8.94637 51.1713C7.44937 38.588 7.13422 26.0802 8.94637 13.497C9.49789 9.42816 12.4919 6.79096 16.5889 6.11282Z" fill="#1CD5FF"/>
<path fill-rule="evenodd" clip-rule="evenodd" d="M16.9029 6.48996C30.0607 4.30485 42.9821 4.2295 55.8248 6.48996C59.9219 7.24345 62.6007 9.8053 63.3886 13.7234C65.8311 26.1559 65.8311 38.5131 63.3886 50.9456C62.6007 54.7884 59.9219 57.8023 55.8248 58.1791C42.9821 59.3093 30.0607 59.2339 16.9029 58.1791C12.8058 57.8023 9.81181 54.8637 9.33908 50.9456C7.92087 38.5131 7.60571 26.1559 9.33908 13.7234C9.8906 9.8053 12.8058 7.1681 16.9029 6.48996Z" fill="#0ED1FF"/>
<path fill-rule="evenodd" clip-rule="evenodd" d="M17.2181 6.86686C30.1396 4.68175 42.9035 4.68175 55.5098 6.86686C59.528 7.62034 62.2069 10.1822 62.916 14.025C65.4372 26.2314 65.3585 38.4379 62.916 50.6444C62.2069 54.4872 59.6068 57.4258 55.5098 57.7271C42.9035 58.8574 30.1396 58.8574 17.2181 57.7271C13.121 57.4258 10.2058 54.4872 9.7331 50.6444C8.31489 38.4379 8.07852 26.2314 9.7331 14.025C10.2846 10.1068 13.1998 7.545 17.2181 6.86686Z" fill="#00CCFF"/>
<path fill-rule="evenodd" clip-rule="evenodd" d="M13.9093 2.64652C29.0369 0.0846727 43.9281 0.00932419 58.6617 2.64652C63.3891 3.47536 66.5407 6.4893 67.4074 11.0102C68.7468 17.4148 69.4559 23.8948 69.5347 30.3748C41.5644 19.4493 22.6549 48.6091 3.82422 30.2241C3.82422 23.8195 4.29696 17.4148 5.16364 11.0102C5.79396 6.41395 9.18191 3.40001 13.9093 2.64652Z" fill="white" fill-opacity="0.290196"/>
<path fill-rule="evenodd" clip-rule="evenodd" d="M13.4356 4.60547C16.6661 4.60547 19.3449 7.09197 19.3449 10.2566C19.3449 13.3459 16.6661 15.9078 13.4356 15.9078C10.1265 15.9078 7.52637 13.3459 7.52637 10.2566C7.52637 7.09197 10.1265 4.60547 13.4356 4.60547Z" fill="white"/>
<path fill-rule="evenodd" clip-rule="evenodd" d="M22.4176 2.19482C24.0722 2.19482 25.4116 3.47575 25.4116 4.98273C25.4116 6.56505 24.0722 7.77063 22.4176 7.77063C20.8419 7.77063 19.5024 6.56505 19.5024 4.98273C19.5024 3.47575 20.8419 2.19482 22.4176 2.19482Z" fill="white"/>
<path fill-rule="evenodd" clip-rule="evenodd" d="M60.0783 54.0347C62.0481 54.0347 63.6239 55.5416 63.6239 57.4254C63.6239 59.3091 62.0481 60.816 60.0783 60.816C58.1085 60.816 56.5327 59.3091 56.5327 57.4254C56.5327 55.5416 58.1085 54.0347 60.0783 54.0347Z" fill="white"/>
<path fill-rule="evenodd" clip-rule="evenodd" d="M41.1698 14.4759C43.1395 14.8526 44.9517 15.6061 46.6063 16.5857L49.6003 13.7224C50.073 13.2703 50.9397 13.2703 51.4124 13.7224L55.1943 17.2638C55.667 17.7912 55.667 18.5447 55.1943 19.0722L52.2003 21.8601C53.2246 23.4424 54.0125 25.1754 54.4852 26.9838H58.661C59.3701 26.9838 60.0004 27.5865 60.0004 28.2647V33.313C60.0004 33.9912 59.3701 34.5186 58.661 34.5186H54.4852C54.0912 36.4023 53.3034 38.1353 52.2791 39.7177L55.2731 42.5809C55.8246 43.033 55.8246 43.8618 55.2731 44.3139L51.57 47.8553C51.0185 48.3827 50.2306 48.3827 49.7578 47.8553L46.7638 45.0674C45.1881 46.0469 43.2971 46.8004 41.4062 47.2525V51.246C41.4062 51.9241 40.8546 52.5269 40.1455 52.5269H34.7879C34.0788 52.5269 33.5272 51.9241 33.5272 51.246V47.2525C31.5575 46.8758 29.7454 46.1223 28.0908 45.1428L25.0968 48.006C24.6241 48.5334 23.8362 48.5334 23.2846 48.006L19.5815 44.4646C19.03 43.9372 19.03 43.1837 19.5815 42.7316L22.4967 39.8684C21.4725 38.286 20.6846 36.553 20.2906 34.7447H16.036C15.3269 34.7447 14.7754 34.1419 14.7754 33.4637V28.4154C14.7754 27.7372 15.3269 27.2098 16.036 27.2098H20.2119C20.6846 25.3261 21.3937 23.5931 22.418 22.0108L19.424 19.1475C18.9512 18.6954 18.9512 17.9419 19.424 17.4145L23.2058 13.8731C23.6786 13.3457 24.4665 13.3457 25.018 13.8731L27.9332 16.661C29.5878 15.6815 31.3999 14.928 33.3697 14.4759V10.4824C33.3697 9.8043 33.9212 9.27686 34.6303 9.27686H39.9092C40.6183 9.27686 41.1698 9.8043 41.1698 10.4824V14.4759ZM37.3879 23.8191C41.485 23.8191 44.7153 26.9838 44.7153 30.9019C44.7153 34.7447 41.485 37.9093 37.3879 37.9093C33.2909 37.9093 29.9817 34.7447 29.9817 30.9019C29.9817 26.9838 33.2909 23.8191 37.3879 23.8191Z" stroke="#00B0DC" stroke-width="0.507196"/>
<path fill-rule="evenodd" clip-rule="evenodd" d="M41.1698 14.4759C43.1395 14.8526 44.9517 15.6061 46.6063 16.5857L49.6003 13.7224C50.073 13.2703 50.9397 13.2703 51.4124 13.7224L55.1943 17.2638C55.667 17.7912 55.667 18.5447 55.1943 19.0722L52.2003 21.8601C53.2246 23.4424 54.0125 25.1754 54.4852 26.9838H58.661C59.3701 26.9838 60.0004 27.5865 60.0004 28.2647V33.313C60.0004 33.9912 59.3701 34.5186 58.661 34.5186H54.4852C54.0912 36.4023 53.3034 38.1353 52.2791 39.7177L55.2731 42.5809C55.8246 43.033 55.8246 43.8618 55.2731 44.3139L51.57 47.8553C51.0185 48.3827 50.2306 48.3827 49.7578 47.8553L46.7638 45.0674C45.1881 46.0469 43.2971 46.8004 41.4062 47.2525V51.246C41.4062 51.9241 40.8546 52.5269 40.1455 52.5269H34.7879C34.0788 52.5269 33.5272 51.9241 33.5272 51.246V47.2525C31.5575 46.8758 29.7454 46.1223 28.0908 45.1427L25.0968 48.006C24.6241 48.5334 23.8362 48.5334 23.2846 48.006L19.5815 44.4646C19.03 43.9372 19.03 43.1837 19.5815 42.7316L22.4967 39.8684C21.4725 38.286 20.6846 36.553 20.2906 34.7447H16.036C15.3269 34.7447 14.7754 34.1419 14.7754 33.4637V28.4154C14.7754 27.7372 15.3269 27.2098 16.036 27.2098H20.2119C20.6846 25.3261 21.3937 23.5931 22.418 22.0108L19.424 19.1475C18.9512 18.6954 18.9512 17.9419 19.424 17.4145L23.2058 13.8731C23.6786 13.3457 24.4665 13.3457 25.018 13.8731L27.9332 16.661C29.5878 15.6815 31.3999 14.928 33.3697 14.4759V10.4824C33.3697 9.8043 33.9212 9.27686 34.6303 9.27686H39.9092C40.6183 9.27686 41.1698 9.8043 41.1698 10.4824V14.4759ZM37.3879 23.8191C41.485 23.8191 44.7153 26.9838 44.7153 30.9019C44.7153 34.7447 41.485 37.9093 37.3879 37.9093C33.2909 37.9093 29.9817 34.7447 29.9817 30.9019C29.9817 26.9838 33.2909 23.8191 37.3879 23.8191Z" fill="white"/>
<path fill-rule="evenodd" clip-rule="evenodd" d="M60.0004 29.923V33.3137C60.0004 33.9918 59.3701 34.5193 58.661 34.5193H54.4852C54.2488 35.5742 53.9337 36.5537 53.5397 37.4579C53.6185 35.4988 53.7761 34.5193 54.4852 31.1286H58.661C59.3701 31.1286 60.0004 30.6011 60.0004 29.923ZM54.4064 41.7527L55.2731 42.5816C55.8246 43.0337 55.8246 43.8625 55.2731 44.3146L51.57 47.856C51.0185 48.3834 50.2306 48.3834 49.7578 47.856L46.7638 45.0681C45.1881 46.0476 43.2971 46.8011 41.4062 47.2532V43.8625C43.2971 43.4104 45.1881 42.6569 46.7638 41.6774L49.7578 44.5406C50.2306 44.9927 51.0185 44.9927 51.57 44.5406L54.4064 41.7527ZM41.4062 47.9313V51.2467C41.4062 51.9248 40.8546 52.5276 40.1455 52.5276H34.7879C34.0788 52.5276 33.5272 51.9248 33.5272 51.2467V47.9313C33.5272 48.6095 34.1576 49.1369 34.7879 49.1369H40.1455C40.7759 49.1369 41.4062 48.6095 41.4062 47.9313ZM33.5272 47.2532C31.5575 46.8764 29.7454 46.1229 28.0908 45.1434L25.0968 48.0067C24.6241 48.5341 23.8362 48.5341 23.2846 48.0067L19.5815 44.4653C19.03 43.9378 19.03 43.1844 19.5815 42.7323L20.4482 41.9034L23.2846 44.616C23.8362 45.1434 24.6241 45.1434 25.0968 44.616L28.0908 41.7527C29.7454 42.7323 31.5575 43.4858 33.5272 43.8625V47.2532ZM21.3149 37.6839C20.8422 36.7044 20.527 35.7248 20.2906 34.7453H16.036C15.3269 34.7453 14.7754 34.1425 14.7754 33.4644V30.1491C14.7754 30.8272 15.3269 31.3546 16.036 31.3546H20.2906C21.0785 34.7453 21.0785 35.7248 21.3149 37.6839ZM37.3879 23.8198C40.8546 23.8198 43.7698 26.0802 44.5577 29.1695C44.7153 28.6421 44.7153 29.697 44.7153 27.5119C44.7153 25.2514 41.1698 22.1621 37.0728 22.1621C32.9757 22.1621 29.9817 25.2514 29.9817 27.5119C29.9817 29.697 30.0605 28.6421 30.2181 29.1695C31.006 26.0802 33.9212 23.8198 37.3879 23.8198Z" fill="black" fill-opacity="0.101961"/>
</svg>
