<svg width="186" height="75" viewBox="0 0 186 75" fill="none" xmlns="http://www.w3.org/2000/svg">
<path fill-rule="evenodd" clip-rule="evenodd" d="M20.1503 4.11035H179.85C183.204 4.11035 186 8.15558 186 12.9923V65.3164C186 70.1531 183.204 74.1104 179.85 74.1104H20.1503C16.7956 74.1104 14 70.1531 14 65.3164V12.9923C14 8.06764 16.7956 4.11035 20.1503 4.11035Z" fill="black" fill-opacity="0.101961"/>
<path fill-rule="evenodd" clip-rule="evenodd" d="M19.1146 1.11035H177.885C181.221 1.11035 184 5.06764 184 9.90432V62.2284C184 67.0651 181.221 71.1104 177.885 71.1104H19.1146C15.7794 71.1104 13 67.0651 13 62.2284V9.90432C13 5.06764 15.7099 1.11035 19.1146 1.11035Z" fill="#E6E6E6"/>
<path fill-rule="evenodd" clip-rule="evenodd" d="M19.1146 0.110352H177.885C181.221 0.110352 184 4.06764 184 8.90432V61.2284C184 66.0651 181.221 70.1104 177.885 70.1104H19.1146C15.7794 70.1104 13 66.0651 13 61.2284V8.90432C13 4.06764 15.7099 0.110352 19.1146 0.110352Z" fill="white"/>
<path fill-rule="evenodd" clip-rule="evenodd" d="M22.7177 5.11035H175.282C178.42 5.11035 181 8.96685 181 13.6305V56.5902C181 61.2538 178.42 65.1103 175.282 65.1103H22.7177C19.5799 65.1103 17 61.3435 17 56.5902V13.6305C17 8.96685 19.5799 5.11035 22.7177 5.11035Z" fill="#E6E6E6"/>
<path fill-rule="evenodd" clip-rule="evenodd" d="M21.7153 4.11035H174.354C177.491 4.11035 180 7.82944 180 12.434V53.7867C180 58.3027 177.491 62.1104 174.354 62.1104H21.7153C18.5788 62.1104 16 58.3027 16 53.7867V12.434C16 7.82944 18.5091 4.11035 21.7153 4.11035Z" fill="#F1C383"/>
<path fill-rule="evenodd" clip-rule="evenodd" d="M21.5846 2.11035H173.346C176.487 2.11035 179 5.81227 179 10.3075V48.9132C179 53.4084 176.487 57.1104 173.346 57.1104H21.5846C18.5131 57.1104 16 53.4084 16 48.9132V10.3075C16 5.81227 18.5131 2.11035 21.5846 2.11035Z" fill="#FAEECC"/>
<path fill-rule="evenodd" clip-rule="evenodd" d="M22.0394 2.96973C72.0747 2.96973 122.11 2.96973 172.145 2.96973C175.22 2.96973 177.736 6.59167 177.736 11.097C177.736 23.3763 177.736 35.5673 177.736 47.8465C177.736 52.2635 175.22 55.9738 172.145 55.9738C122.11 55.9738 72.0747 55.9738 22.0394 55.9738C19.0345 55.9738 16.5188 52.3519 16.5188 47.8465C16.5188 35.5673 16.5188 23.3763 16.5188 11.097C16.5188 6.59167 18.9647 2.96973 22.0394 2.96973Z" fill="#FAEDC9"/>
<path fill-rule="evenodd" clip-rule="evenodd" d="M22.9478 4.11816C72.4241 4.11816 121.83 4.11816 171.237 4.11816C174.312 4.11816 176.757 7.65176 176.757 12.0687C176.757 23.6413 176.757 35.3021 176.757 46.8746C176.757 51.2916 174.312 54.8252 171.237 54.8252C121.83 54.8252 72.4241 54.8252 22.9478 54.8252C19.9429 54.8252 17.4971 51.2916 17.4971 46.8746C17.4971 35.3021 17.4971 23.6413 17.4971 12.0687C17.4971 7.65176 19.9429 4.11816 22.9478 4.11816Z" fill="#F9ECC6"/>
<path fill-rule="evenodd" clip-rule="evenodd" d="M23.8565 5.17773C72.7038 5.17773 121.551 5.17773 170.329 5.17773C173.334 5.17773 175.779 8.71133 175.779 13.04C175.779 23.9942 175.779 34.9483 175.779 45.9025C175.779 50.2311 173.334 53.7647 170.329 53.7647C121.551 53.7647 72.7038 53.7647 23.8565 53.7647C20.9214 53.7647 18.4756 50.2311 18.4756 45.9025C18.4756 34.9483 18.4756 23.9942 18.4756 13.04C18.4756 8.71133 20.9214 5.17773 23.8565 5.17773Z" fill="#F9EBC2"/>
<path fill-rule="evenodd" clip-rule="evenodd" d="M24.7646 6.23828C72.983 6.23828 121.201 6.23828 169.42 6.23828C172.355 6.23828 174.801 9.77186 174.801 14.0122C174.801 24.3479 174.801 34.5953 174.801 44.8427C174.801 49.1713 172.355 52.7049 169.42 52.7049C121.201 52.7049 72.983 52.7049 24.7646 52.7049C21.8296 52.7049 19.4536 49.1713 19.4536 44.8427C19.4536 34.5953 19.4536 24.3479 19.4536 14.0122C19.4536 9.77186 21.8296 6.23828 24.7646 6.23828Z" fill="#F8EABF"/>
<path fill-rule="evenodd" clip-rule="evenodd" d="M25.6735 7.38672C73.3328 7.38672 120.922 7.38672 168.512 7.38672C171.447 7.38672 173.823 10.832 173.823 15.0723C173.823 24.7014 173.823 34.2421 173.823 43.8712C173.823 48.1115 171.447 51.5568 168.512 51.5568C120.922 51.5568 73.3328 51.5568 25.6735 51.5568C22.8083 51.5568 20.4324 48.1115 20.4324 43.8712C20.4324 34.2421 20.4324 24.7014 20.4324 15.0723C20.4324 10.832 22.8083 7.38672 25.6735 7.38672Z" fill="#F8E9BC"/>
<path fill-rule="evenodd" clip-rule="evenodd" d="M26.5816 8.44727C73.6121 8.44727 120.642 8.44727 167.603 8.44727C170.468 8.44727 172.844 11.8925 172.844 16.0445C172.844 24.9669 172.844 33.9776 172.844 42.9C172.844 47.052 170.468 50.4973 167.603 50.4973C120.642 50.4973 73.6121 50.4973 26.5816 50.4973C23.7165 50.4973 21.4104 47.052 21.4104 42.9C21.4104 33.9776 21.4104 24.9669 21.4104 16.0445C21.4104 11.8925 23.7165 8.44727 26.5816 8.44727Z" fill="#F7E8B9"/>
<path fill-rule="evenodd" clip-rule="evenodd" d="M27.5602 9.50684C73.8918 9.50684 120.293 9.50684 166.695 9.50684C169.56 9.50684 171.866 12.9521 171.866 17.0158C171.866 25.3198 171.866 33.6238 171.866 41.9278C171.866 45.9915 169.56 49.4368 166.695 49.4368C120.293 49.4368 73.8918 49.4368 27.5602 49.4368C24.695 49.4368 22.3889 45.9915 22.3889 41.9278C22.3889 33.6238 22.3889 25.3198 22.3889 17.0158C22.3889 12.8638 24.695 9.50684 27.5602 9.50684Z" fill="#F7E7B6"/>
<path fill-rule="evenodd" clip-rule="evenodd" d="M28.4685 10.6553C74.241 10.6553 120.014 10.6553 165.786 10.6553C168.581 10.6553 170.887 13.9239 170.887 17.9875C170.887 25.6731 170.887 33.2703 170.887 40.9559C170.887 45.0196 168.581 48.2882 165.786 48.2882C120.014 48.2882 74.241 48.2882 28.4685 48.2882C25.6733 48.2882 23.3672 45.0196 23.3672 40.9559C23.3672 33.2703 23.3672 25.6731 23.3672 17.9875C23.3672 13.9239 25.6034 10.6553 28.4685 10.6553Z" fill="#F6E6B3"/>
<path fill-rule="evenodd" clip-rule="evenodd" d="M29.3772 11.7158C74.5207 11.7158 119.734 11.7158 164.878 11.7158C167.673 11.7158 169.909 14.9844 169.909 19.048C169.909 26.0269 169.909 32.9174 169.909 39.8963C169.909 43.9599 167.673 47.2285 164.878 47.2285C119.734 47.2285 74.5207 47.2285 29.3772 47.2285C26.5819 47.2285 24.3457 43.9599 24.3457 39.8963C24.3457 32.9174 24.3457 26.0269 24.3457 19.048C24.3457 14.9844 26.5819 11.7158 29.3772 11.7158Z" fill="#F6E5AF"/>
<path fill-rule="evenodd" clip-rule="evenodd" d="M30.2853 12.7764C74.8 12.7764 119.384 12.7764 163.969 12.7764C166.694 12.7764 168.931 16.045 168.931 20.0203C168.931 26.2924 168.931 32.6529 168.931 38.9251C168.931 42.9004 166.694 46.169 163.969 46.169C119.384 46.169 74.8 46.169 30.2853 46.169C27.5599 46.169 25.3237 42.9004 25.3237 38.9251C25.3237 32.6529 25.3237 26.2924 25.3237 20.0203C25.3237 16.045 27.5599 12.7764 30.2853 12.7764Z" fill="#F5E4AC"/>
<path fill-rule="evenodd" clip-rule="evenodd" d="M30.9038 14.1104H163.096C165.758 14.1104 168 17.2808 168 21.1558V38.0649C168 41.9399 165.758 45.1104 163.096 45.1104H30.9038C28.1717 45.1104 26 41.9399 26 38.0649V21.1558C26 17.2808 28.1717 14.1104 30.9038 14.1104Z" fill="#F5E3A9"/>
<path fill-rule="evenodd" clip-rule="evenodd" d="M67.6073 55.4365C69.6341 55.4365 71.323 57.8918 71.323 60.8809C71.323 63.87 69.6341 66.3254 67.6073 66.3254C65.4961 66.3254 63.8071 63.87 63.8071 60.8809C63.8071 57.8918 65.4961 55.4365 67.6073 55.4365Z" fill="white"/>
<path fill-rule="evenodd" clip-rule="evenodd" d="M53.0426 61.8691C54.1489 61.8691 55 63.2384 55 65.0641C55 66.7757 54.1489 68.145 53.0426 68.145C51.8511 68.145 51 66.7757 51 65.0641C51 63.2384 51.8511 61.8691 53.0426 61.8691Z" fill="white"/>
<path fill-rule="evenodd" clip-rule="evenodd" d="M21.4672 4.11035C23.9635 4.11035 26 7.30022 26 11.1104C26 15.0091 23.9635 18.1104 21.4672 18.1104C19.0365 18.1104 17 15.0091 17 11.1104C17 7.30022 19.0365 4.11035 21.4672 4.11035Z" fill="white"/>
<path fill-rule="evenodd" clip-rule="evenodd" d="M28.5 3.11035C29.8816 3.11035 31 4.85748 31 7.06437C31 9.36323 29.8816 11.1104 28.5 11.1104C27.1184 11.1104 26 9.36323 26 7.06437C26 4.85748 27.1184 3.11035 28.5 3.11035Z" fill="white"/>
<path fill-rule="evenodd" clip-rule="evenodd" d="M55.4428 8.39941H168.302C170.817 8.39941 172.844 10.4264 172.844 12.9601V43.7023C172.844 46.236 170.817 48.263 168.302 48.263H55.4428C52.927 48.263 50.8306 46.236 50.8306 43.7023V12.9601C50.8306 10.4264 52.927 8.39941 55.4428 8.39941Z" fill="#EFB469"/>
<path fill-rule="evenodd" clip-rule="evenodd" d="M57.1201 10.5947H166.555C169.001 10.5947 170.957 12.5372 170.957 14.9865V43.1107C170.957 45.4755 169.001 47.5025 166.555 47.5025H57.1201C54.7441 47.5025 52.7175 45.4755 52.7175 43.1107V14.9865C52.7175 12.5372 54.6742 10.5947 57.1201 10.5947Z" fill="#F1C383"/>
<path fill-rule="evenodd" clip-rule="evenodd" d="M57.3297 13.1289C93.6682 13.1289 130.007 13.1289 166.345 13.1289C168.791 13.1289 170.748 15.0714 170.748 17.4362C170.748 25.9664 170.748 34.4967 170.748 43.1113C170.748 45.4761 168.721 47.4187 166.345 47.4187C130.007 47.4187 93.6682 47.4187 57.3297 47.4187C54.9538 47.4187 52.9971 45.4761 52.9971 43.1113C52.9971 34.4967 52.9971 25.9664 52.9971 17.4362C52.9971 15.0714 54.9538 13.1289 57.3297 13.1289Z" fill="#F1C585"/>
<path fill-rule="evenodd" clip-rule="evenodd" d="M57.5392 15.5781C93.738 15.5781 129.937 15.5781 166.135 15.5781C168.511 15.5781 170.468 17.5206 170.468 19.8854C170.468 27.571 170.468 35.3411 170.468 43.0267C170.468 45.3915 168.511 47.334 166.135 47.334C129.937 47.334 93.738 47.334 57.5392 47.334C55.1632 47.334 53.2065 45.3915 53.2065 43.0267C53.2065 35.3411 53.2065 27.571 53.2065 19.8854C53.2065 17.5206 55.1632 15.5781 57.5392 15.5781Z" fill="#F1C786"/>
<path fill-rule="evenodd" clip-rule="evenodd" d="M57.7494 18.1123C93.8083 18.1123 129.867 18.1123 165.926 18.1123C168.302 18.1123 170.259 19.9704 170.259 22.3351C170.259 29.1761 170.259 36.1016 170.259 43.027C170.259 45.3074 168.302 47.2499 165.926 47.2499C129.867 47.2499 93.8083 47.2499 57.7494 47.2499C55.3734 47.2499 53.4866 45.3074 53.4866 43.027C53.4866 36.1016 53.4866 29.1761 53.4866 22.3351C53.4866 19.9704 55.3734 18.1123 57.7494 18.1123Z" fill="#F2CA88"/>
<path fill-rule="evenodd" clip-rule="evenodd" d="M57.9588 20.6455C93.878 20.6455 129.797 20.6455 165.786 20.6455C168.092 20.6455 169.979 22.5036 169.979 24.7839C169.979 30.8648 169.979 36.8612 169.979 42.9421C169.979 45.2225 168.092 47.0805 165.786 47.0805C129.797 47.0805 93.878 47.0805 57.9588 47.0805C55.6527 47.0805 53.696 45.2225 53.696 42.9421C53.696 36.8612 53.696 30.8648 53.696 24.7839C53.696 22.5036 55.5829 20.6455 57.9588 20.6455Z" fill="#F2CC8A"/>
<path fill-rule="evenodd" clip-rule="evenodd" d="M58.1682 23.0947C93.9477 23.0947 129.727 23.0947 165.576 23.0947C167.882 23.0947 169.769 24.9528 169.769 27.2331C169.769 32.4694 169.769 37.7057 169.769 42.942C169.769 45.1379 167.882 46.9959 165.576 46.9959C129.727 46.9959 93.9477 46.9959 58.1682 46.9959C55.8621 46.9959 53.9753 45.1379 53.9753 42.942C53.9753 37.7057 53.9753 32.4694 53.9753 27.2331C53.9753 24.9528 55.8621 23.0947 58.1682 23.0947Z" fill="#F2CE8B"/>
<path fill-rule="evenodd" clip-rule="evenodd" d="M58.3083 25.6289C94.0179 25.6289 129.658 25.6289 165.367 25.6289C167.603 25.6289 169.49 27.487 169.49 29.6828C169.49 34.0746 169.49 38.4664 169.49 42.8581C169.49 45.1385 167.603 46.912 165.367 46.912C129.658 46.912 94.0179 46.912 58.3083 46.912C56.0721 46.912 54.1853 45.1385 54.1853 42.8581C54.1853 38.4664 54.1853 34.0746 54.1853 29.6828C54.1853 27.487 56.0721 25.6289 58.3083 25.6289Z" fill="#F2D08D"/>
<path fill-rule="evenodd" clip-rule="evenodd" d="M58.5177 28.0771C94.0875 28.0771 129.587 28.0771 165.157 28.0771C167.393 28.0771 169.21 29.9352 169.21 32.1311C169.21 35.6783 169.21 39.2255 169.21 42.8571C169.21 45.053 167.393 46.8266 165.157 46.8266C129.587 46.8266 94.0875 46.8266 58.5177 46.8266C56.2815 46.8266 54.4646 45.053 54.4646 42.8571C54.4646 39.2255 54.4646 35.6783 54.4646 32.1311C54.4646 29.9352 56.2815 28.0771 58.5177 28.0771Z" fill="#F2D28E"/>
<path fill-rule="evenodd" clip-rule="evenodd" d="M58.7275 30.6113C94.1575 30.6113 129.588 30.6113 164.948 30.6113C167.184 30.6113 169.001 32.3849 169.001 34.5808C169.001 37.3679 169.001 40.0705 169.001 42.7731C169.001 44.969 167.184 46.7426 164.948 46.7426C129.588 46.7426 94.1575 46.7426 58.7275 46.7426C56.5611 46.7426 54.6743 44.969 54.6743 42.7731C54.6743 40.0705 54.6743 37.3679 54.6743 34.5808C54.6743 32.3849 56.4912 30.6113 58.7275 30.6113Z" fill="#F2D490"/>
<path fill-rule="evenodd" clip-rule="evenodd" d="M58.9371 33.1455C94.2274 33.1455 129.518 33.1455 164.738 33.1455C166.974 33.1455 168.721 34.9191 168.721 37.0306C168.721 38.9731 168.721 40.8312 168.721 42.7737C168.721 44.8851 166.974 46.6588 164.738 46.6588C129.518 46.6588 94.2274 46.6588 58.9371 46.6588C56.7708 46.6588 54.9539 44.8851 54.9539 42.7737C54.9539 40.8312 54.9539 38.9731 54.9539 37.0306C54.9539 34.9191 56.7708 33.1455 58.9371 33.1455Z" fill="#F3D792"/>
<path fill-rule="evenodd" clip-rule="evenodd" d="M59.1468 35.5947C94.2973 35.5947 129.448 35.5947 164.528 35.5947C166.695 35.5947 168.512 37.3683 168.512 39.4797C168.512 40.5777 168.512 41.6756 168.512 42.6891C168.512 44.8005 166.695 46.5741 164.528 46.5741C129.448 46.5741 94.2973 46.5741 59.1468 46.5741C56.9804 46.5741 55.2334 44.8005 55.2334 42.6891C55.2334 41.6756 55.2334 40.5777 55.2334 39.4797C55.2334 37.3683 56.9804 35.5947 59.1468 35.5947Z" fill="#F3D993"/>
<path fill-rule="evenodd" clip-rule="evenodd" d="M59.356 38.1279H164.388C166.485 38.1279 168.232 39.9015 168.232 41.9285V42.6886C168.232 44.8 166.485 46.4891 164.388 46.4891H59.356C57.1897 46.4891 55.4426 44.8 55.4426 42.6886V41.9285C55.4426 39.8171 57.1897 38.1279 59.356 38.1279Z" fill="#F3DB95"/>
<path d="M18.1033 2.7334H31.3413C32.8122 2.7334 34.1133 3.48549 35.0751 4.64782C36.0368 5.81015 36.6591 7.38271 36.6591 9.16039V18.2539H44.1833C45.6542 18.2539 46.9553 18.9376 47.9171 20.1C48.8788 21.2623 49.5011 22.9032 49.5011 24.6809V40.6116C49.5011 42.3893 48.8788 44.0303 47.9171 45.1926C46.9553 46.3549 45.6542 47.0386 44.1833 47.0386H36.6591V56.1321C36.6591 57.9098 36.0368 59.4824 35.0751 60.6447C34.1133 61.807 32.8122 62.5591 31.3413 62.5591H18.1033C16.6889 62.5591 15.3312 61.807 14.3695 60.6447C13.4077 59.4824 12.842 57.9098 12.842 56.1321V47.0386H5.31783C3.84694 47.0386 2.4892 46.3549 1.52746 45.1926C0.565727 44.0303 0 42.3893 0 40.6116V24.6809C0 22.9032 0.565727 21.2623 1.52746 20.1C2.4892 18.9376 3.84694 18.2539 5.31783 18.2539H12.842V9.16039C12.842 7.38271 13.4077 5.81015 14.3695 4.64782C15.3312 3.48549 16.6889 2.7334 18.1033 2.7334ZM29.927 10.9381H19.5742V22.3562V26.3902H16.1798H6.73215V38.9023H16.1798H19.5742V43.0047V54.3545H29.927V43.0047V38.9023H33.2647H42.7124V26.3902H33.2647H29.927V22.3562V10.9381Z" fill="black" fill-opacity="0.101961"/>
<path d="M18.1033 0H31.3413C32.8122 0 34.1133 0.752095 35.0751 1.91442C36.0368 3.07675 36.6591 4.64931 36.6591 6.42699V15.5205H44.1833C45.6542 15.5205 46.9553 16.2042 47.9171 17.3666C48.8788 18.5289 49.5011 20.1698 49.5011 21.9475V37.8782C49.5011 39.6559 48.8788 41.2969 47.9171 42.4592C46.9553 43.6215 45.6542 44.3052 44.1833 44.3052H36.6591V53.3988C36.6591 55.1764 36.0368 56.749 35.0751 57.9113C34.1133 59.0736 32.8122 59.8257 31.3413 59.8257H18.1033C16.6889 59.8257 15.3312 59.0736 14.3695 57.9113C13.4077 56.749 12.842 55.1764 12.842 53.3988V44.3052H5.31783C3.84694 44.3052 2.4892 43.6215 1.52746 42.4592C0.565727 41.2969 0 39.6559 0 37.8782V21.9475C0 20.1698 0.565727 18.5289 1.52746 17.3666C2.4892 16.2042 3.84694 15.5205 5.31783 15.5205H12.842V6.42699C12.842 4.64931 13.4077 3.07675 14.3695 1.91442C15.3312 0.752095 16.6889 0 18.1033 0ZM29.927 8.20467H19.5742V19.6228V23.6568H16.1798H6.73215V36.1689H16.1798H19.5742V40.2713V51.6894H29.927V40.2713V36.1689H33.2647H42.7124V23.6568H33.2647H29.927V19.6228V8.20467Z" fill="#E6E6E6"/>
<path d="M18.1033 0H31.3413C32.8122 0 34.1133 0.752095 35.0751 1.91442C36.0368 3.00838 36.6591 4.58094 36.6591 6.35862V6.42699V13.0591V15.5205H44.1833C45.6542 15.5205 46.9553 16.2042 47.9171 17.3666C48.8788 18.5289 49.4445 20.1014 49.5011 21.8108V21.9475V35.5536C49.4445 37.2629 48.8788 38.8354 47.9171 39.9978C46.9553 41.1601 45.6542 41.9122 44.1833 41.9122H36.6591V44.3052V51.0741C36.6591 52.7834 36.0368 54.3559 35.0751 55.5183C34.1133 56.6806 32.8122 57.3643 31.3413 57.3643H18.1033C16.6889 57.3643 15.3312 56.6806 14.3695 55.5183C13.4077 54.3559 12.842 52.7834 12.842 51.0741V44.3052V41.9122H5.31783C3.84694 41.9122 2.4892 41.1601 1.52746 39.9978C0.6223 38.8354 0 37.2629 0 35.5536V21.9475V21.8108C0 20.1014 0.6223 18.5289 1.52746 17.3666C2.4892 16.2042 3.84694 15.5205 5.31783 15.5205H12.842V13.0591V6.42699V6.35862C12.842 4.58094 13.4077 3.00838 14.3695 1.91442C15.3312 0.752095 16.6889 0 18.1033 0ZM29.927 5.74327H19.5742V8.20467V19.6228V21.2638H16.1798H6.73215V23.6568V33.7075V36.1689H16.1798H19.5742V40.2713V49.228V51.6894H29.927V49.228V40.2713V36.1689H33.2647H42.7124V33.7075V23.6568V21.2638H33.2647H29.927V19.6228V8.20467V5.74327Z" fill="white"/>
<path fill-rule="evenodd" clip-rule="evenodd" d="M18.1035 3.0752H31.3415C32.4164 3.0752 33.265 4.10078 33.265 5.39986V18.5274H44.1836C45.2584 18.5274 46.107 19.6213 46.107 20.9204V36.8512C46.107 38.1503 45.2584 39.1758 44.1836 39.1758H33.265V52.3717C33.265 53.6708 32.4164 54.6964 31.3415 54.6964H18.1035C17.0852 54.6964 16.18 53.6708 16.18 52.3717V39.1758H5.31801C4.24312 39.1758 3.39453 38.1503 3.39453 36.8512V20.9204C3.39453 19.6213 4.24312 18.5274 5.31801 18.5274H16.18V5.39986C16.18 4.10078 17.0852 3.0752 18.1035 3.0752Z" fill="#BE005B"/>
<path fill-rule="evenodd" clip-rule="evenodd" d="M18.1035 3.0752H31.3415C32.4164 3.0752 33.265 4.10078 33.265 5.39986V15.2455V18.5274H44.1836C45.2584 18.5274 46.107 19.6213 46.107 20.9204V33.5693C46.107 34.8 45.2584 35.894 44.1836 35.894H33.265V39.1758V49.0215C33.265 50.3205 32.4164 51.3461 31.3415 51.3461H18.1035C17.0852 51.3461 16.18 50.3205 16.18 49.0215V39.1758V35.894H5.31801C4.24312 35.894 3.39453 34.8 3.39453 33.5693V20.9204C3.39453 19.6213 4.24312 18.5274 5.31801 18.5274H16.18V15.2455V5.39986C16.18 4.10078 17.0852 3.0752 18.1035 3.0752Z" fill="#FF5DAB"/>
<path fill-rule="evenodd" clip-rule="evenodd" d="M18.1035 3.0752H31.3415C32.4164 3.0752 33.265 4.10078 33.265 5.39985V15.2454V17.7752V18.5273H44.1836C45.2584 18.5273 46.107 19.6213 46.107 20.9203V32.7487C46.107 34.0478 45.2584 35.1417 44.1836 35.1417H33.265V35.8938V39.1757V48.2692C33.265 49.5683 32.4164 50.5939 31.3415 50.5939H18.1035C17.0852 50.5939 16.18 49.5683 16.18 48.2692V39.1757V35.8938V35.1417H5.31801C4.24312 35.1417 3.39453 34.0478 3.39453 32.7487V20.9203C3.39453 19.6213 4.24312 18.5273 5.31801 18.5273H16.18V17.7752V15.2454V5.39985C16.18 4.10078 17.0852 3.0752 18.1035 3.0752Z" fill="#FF208F"/>
<path fill-rule="evenodd" clip-rule="evenodd" d="M46.1068 22.4277V32.7518C46.1068 34.0509 45.2582 35.1448 44.1833 35.1448H33.2647V35.8969V39.1787V48.2722C33.2647 49.5712 32.4161 50.5968 31.3412 50.5968H18.1032C17.0849 50.5968 16.1797 49.5712 16.1797 48.2722V43.281C17.3111 42.6657 18.4426 42.0503 19.5741 41.435C22.1764 39.9992 24.9485 38.3583 27.7206 36.5806C33.4344 32.8886 38.526 29.0598 42.7124 25.5045C43.957 24.4105 45.0885 23.4533 46.1068 22.4277Z" fill="#FE007A"/>
<path fill-rule="evenodd" clip-rule="evenodd" d="M3.39453 32.7488C3.39453 35.0735 3.39453 36.0991 3.39453 32.7488V20.9204C3.39453 19.6213 4.24312 18.5274 5.31801 18.5274H16.18V5.39986C16.18 4.10078 17.0851 3.0752 18.1035 3.0752H31.3415C32.4164 3.0752 33.265 4.10078 33.265 5.39986V15.3139C32.1901 15.9292 31.0586 16.4762 29.9272 17.1599C27.1551 18.6641 24.3265 20.3734 21.3847 22.2195C20.7624 22.6297 20.1966 23.04 19.5743 23.4502C19.4612 23.5186 19.2915 23.5869 19.1783 23.6553C14.5394 26.8004 10.2964 29.9456 6.73232 33.0223C5.99688 33.6377 5.26143 34.3214 4.52599 34.9368C3.84711 34.5949 3.39453 33.7061 3.39453 32.7488Z" fill="#FF3D9A"/>
</svg>
