<svg width="117" height="132" viewBox="0 0 117 132" fill="none" xmlns="http://www.w3.org/2000/svg">
<path fill-rule="evenodd" clip-rule="evenodd" d="M20.0913 13.1514C46.3221 8.12888 72.1851 8.12888 97.803 13.1514C106.015 14.8697 111.409 20.6853 113.002 29.5408C118.028 57.4293 117.905 85.4498 113.002 113.338C111.409 122.194 106.138 128.802 97.803 129.595C72.1851 132.239 46.3221 132.107 20.0913 129.595C11.8789 128.802 5.99538 122.194 5.01479 113.338C2.07302 85.3177 1.46015 57.4293 5.01479 29.5408C6.11795 20.6853 12.0015 14.7375 20.0913 13.1514Z" fill="black" fill-opacity="0.101961"/>
<path fill-rule="evenodd" clip-rule="evenodd" d="M17.6407 6.8072C43.7488 1.78464 69.7344 1.78464 95.3522 6.8072C103.442 8.52545 108.835 14.341 110.429 23.1966C115.454 51.0851 115.332 78.9735 110.429 106.994C108.835 115.718 103.565 122.458 95.3522 123.251C69.7344 125.763 43.7488 125.763 17.6407 123.251C9.30566 122.458 3.42213 115.85 2.44154 106.994C-0.500219 78.9735 -1.11309 51.0851 2.44154 23.1966C3.5447 14.2089 9.42823 8.39328 17.6407 6.8072Z" fill="#E6E6E6"/>
<path fill-rule="evenodd" clip-rule="evenodd" d="M17.6407 3.76692C43.7488 -1.25564 69.7344 -1.25564 95.3522 3.76692C103.442 5.35299 108.835 11.3008 110.429 20.1563C115.454 48.0447 115.332 75.9331 110.429 103.954C108.835 112.677 103.565 119.418 95.3522 120.211C69.7344 122.722 43.7488 122.722 17.6407 120.211C9.30566 119.418 3.42213 112.809 2.44154 103.954C-0.500219 75.9331 -1.11309 48.0447 2.44154 20.1563C3.5447 11.1686 9.42823 5.35299 17.6407 3.76692Z" fill="white"/>
<path fill-rule="evenodd" clip-rule="evenodd" d="M23.4025 11.9612C46.814 7.46729 70.103 7.33512 93.0243 11.9612C100.379 13.4151 105.282 18.702 106.63 26.5002C111.165 51.613 111.043 76.5936 106.63 101.706C105.282 109.637 100.501 115.585 93.0243 116.378C70.103 118.624 46.814 118.624 23.4025 116.378C15.9255 115.585 10.6548 109.637 9.79681 101.706C7.22276 76.5936 6.6099 51.613 9.79681 26.5002C10.7774 18.5698 16.0481 13.2829 23.4025 11.9612Z" fill="#E6E6E6"/>
<path fill-rule="evenodd" clip-rule="evenodd" d="M21.6847 9.71464C45.2188 5.22077 68.3852 5.22077 91.3065 9.71464C98.6609 11.1685 103.564 16.4554 104.912 24.3858C109.447 49.3664 109.325 74.4792 104.912 99.4598C103.564 107.39 98.7835 113.338 91.3065 114.131C68.3852 116.378 45.2188 116.378 21.6847 114.131C14.2077 113.47 8.93705 107.522 8.07904 99.4598C5.50499 74.4792 4.89212 49.3664 8.07904 24.3858C9.05962 16.3233 14.3303 11.1685 21.6847 9.71464Z" fill="#00B0DC"/>
<path fill-rule="evenodd" clip-rule="evenodd" d="M21.6847 4.69236C45.2188 0.198495 68.3852 0.0663224 91.3065 4.69236C98.6609 6.14626 103.564 11.301 104.912 19.2313C109.447 44.3441 109.325 69.3247 104.912 94.4375C103.564 102.368 98.7835 108.316 91.3065 108.976C68.3852 111.356 45.2188 111.223 21.6847 108.976C14.2077 108.316 8.93705 102.368 8.07904 94.4375C5.50499 69.3247 4.89212 44.3441 8.07904 19.2313C9.05962 11.301 14.3303 6.01408 21.6847 4.69236Z" fill="#99FFFF"/>
<path fill-rule="evenodd" clip-rule="evenodd" d="M22.1752 5.35355C45.3416 0.859689 68.2628 0.859689 90.9389 5.35355C98.1708 6.67528 102.951 11.9622 104.299 19.7603C108.712 44.4766 108.712 69.1928 104.299 93.9091C102.951 101.707 98.2933 107.655 90.9389 108.316C68.2628 110.563 45.3416 110.563 22.1752 108.316C14.8208 107.655 9.55012 101.839 8.69211 93.9091C6.11806 69.1928 5.62777 44.4766 8.69211 19.7603C9.79527 11.83 14.9434 6.67528 22.1752 5.35355Z" fill="#8BFAFF"/>
<path fill-rule="evenodd" clip-rule="evenodd" d="M22.6644 6.01414C45.4631 1.65244 68.1392 1.52027 90.4475 6.01414C97.5568 7.33586 102.337 12.4906 103.685 20.2888C107.976 44.6085 107.976 69.0605 103.685 93.3802C102.337 101.046 97.6794 106.862 90.4475 107.655C68.1392 109.902 45.4631 109.77 22.6644 107.655C15.4326 106.994 10.1619 101.178 9.42648 93.3802C6.85244 69.0605 6.36214 44.6085 9.42648 20.2888C10.4071 12.4906 15.4326 7.33586 22.6644 6.01414Z" fill="#7DF6FF"/>
<path fill-rule="evenodd" clip-rule="evenodd" d="M23.0329 6.67533C45.5865 2.31363 67.8948 2.31363 89.9581 6.67533C97.0674 7.99705 101.725 13.1518 103.073 20.6856C107.364 44.7411 107.241 68.7965 103.073 92.8519C101.725 100.518 97.1899 106.201 89.9581 106.994C67.8948 109.109 45.5865 109.109 23.0329 106.994C15.9236 106.201 10.8981 100.518 10.0401 92.8519C7.58863 68.7965 6.97577 44.7411 10.0401 20.6856C11.0207 13.0196 16.0462 7.99705 23.0329 6.67533Z" fill="#6FF1FF"/>
<path fill-rule="evenodd" clip-rule="evenodd" d="M23.5233 7.33567C45.8317 3.10614 67.7723 2.97397 89.5904 7.33567C96.4545 8.65739 101.112 13.68 102.338 21.2138C106.628 44.8727 106.628 68.6638 102.338 92.3227C101.112 99.8565 96.5771 105.54 89.5904 106.201C67.7723 108.448 45.8317 108.316 23.5233 106.201C16.5366 105.54 11.5111 99.9887 10.6531 92.3227C8.20162 68.6638 7.71133 44.8727 10.6531 21.2138C11.6337 13.68 16.5366 8.65739 23.5233 7.33567Z" fill="#61ECFF"/>
<path fill-rule="evenodd" clip-rule="evenodd" d="M24.013 7.99685C45.9537 3.76733 67.6492 3.76733 89.0995 7.99685C95.9637 9.31858 100.499 14.3411 101.725 21.7428C106.015 45.1374 105.892 68.5319 101.725 91.7943C100.499 99.196 96.0862 104.879 89.0995 105.54C67.6492 107.655 45.9537 107.655 24.013 105.54C17.0263 104.879 12.1234 99.3281 11.388 91.7943C8.93648 68.5319 8.44619 45.1374 11.388 21.7428C12.246 14.209 17.1489 9.31858 24.013 7.99685Z" fill="#53E8FF"/>
<path fill-rule="evenodd" clip-rule="evenodd" d="M24.5037 8.65748C46.0767 4.56014 67.527 4.56014 88.6097 8.65748C95.3512 9.97921 99.8864 14.8696 101.112 22.1391C105.28 45.2693 105.157 68.2673 101.112 91.3974C99.8864 98.6669 95.4738 104.086 88.6097 104.879C67.527 106.862 46.0767 106.862 24.5037 104.879C17.6396 104.218 12.7367 98.6669 12.0012 91.3974C9.54976 68.2673 9.05947 45.2693 12.0012 22.1391C12.8592 14.8696 17.7622 9.97921 24.5037 8.65748Z" fill="#46E3FF"/>
<path fill-rule="evenodd" clip-rule="evenodd" d="M24.9945 9.31809C46.3223 5.35291 67.405 5.22073 88.1199 9.31809C94.8615 10.6398 99.2741 15.5302 100.5 22.6675C104.545 45.4012 104.545 68.1349 100.5 90.8686C99.2741 98.0059 94.984 103.425 88.1199 104.086C67.405 106.201 46.3223 106.201 24.9945 104.086C18.253 103.425 13.35 98.1381 12.6146 90.8686C10.2857 68.1349 9.79539 45.4012 12.6146 22.6675C13.5952 15.398 18.253 10.6398 24.9945 9.31809Z" fill="#38DFFF"/>
<path fill-rule="evenodd" clip-rule="evenodd" d="M25.4843 10.1121C46.4443 6.01472 67.1593 6.01472 87.7516 10.1121C94.248 11.3016 98.5381 16.0598 99.8864 23.1972C103.931 45.5343 103.809 68.0037 99.8864 90.3409C98.6607 97.346 94.3706 102.765 87.7516 103.426C67.1593 105.409 46.4443 105.409 25.4843 103.426C18.7427 102.765 14.0849 97.4782 13.3495 90.3409C10.898 68.0037 10.5303 45.5343 13.3495 23.1972C14.2075 16.0598 18.8653 11.3016 25.4843 10.1121Z" fill="#2ADAFF"/>
<path fill-rule="evenodd" clip-rule="evenodd" d="M25.8524 10.7724C46.5673 6.80725 67.0371 6.67508 87.2617 10.7724C93.7581 11.962 97.9256 16.7202 99.274 23.5932C103.196 45.666 103.074 67.7388 99.274 89.8116C98.0482 96.8168 93.8807 102.104 87.2617 102.765C67.0371 104.747 46.5673 104.747 25.8524 102.765C19.356 102.104 14.6982 96.8168 13.9627 89.8116C11.6338 67.7388 11.1435 45.666 13.9627 23.5932C14.8207 16.588 19.4785 11.962 25.8524 10.7724Z" fill="#1CD5FF"/>
<path fill-rule="evenodd" clip-rule="evenodd" d="M26.3427 11.4336C46.6899 7.46842 66.9146 7.46842 86.7715 11.4336C93.1454 12.6232 97.3129 17.2492 98.5386 24.1222C102.461 45.7985 102.461 67.6069 98.5386 89.2832C97.4354 96.1562 93.2679 101.311 86.7715 101.972C66.9146 103.954 46.6899 103.954 26.3427 101.972C19.9688 101.443 15.311 96.2884 14.5756 89.2832C12.3693 67.6069 11.879 45.7985 14.5756 24.1222C15.4336 17.2492 19.9688 12.6232 26.3427 11.4336Z" fill="#0ED1FF"/>
<path fill-rule="evenodd" clip-rule="evenodd" d="M26.8344 12.0942C46.9364 8.26123 66.7934 8.26123 86.4052 12.0942C92.6564 13.2838 96.7013 17.9098 97.9271 24.6507C101.849 46.0626 101.727 67.4746 97.9271 88.7545C96.8239 95.6274 92.779 100.65 86.4052 101.311C66.7934 103.293 46.9364 103.293 26.8344 101.311C20.4605 100.65 15.9253 95.6274 15.1899 88.7545C12.9835 67.3425 12.4932 46.0626 15.1899 24.6507C16.0479 17.7777 20.5831 13.2838 26.8344 12.0942Z" fill="#00CCFF"/>
<path fill-rule="evenodd" clip-rule="evenodd" d="M21.6865 4.69235C45.2206 0.198497 68.387 0.0663243 91.3082 4.69235C98.6626 6.14625 103.566 11.301 104.914 19.2313C106.998 30.5981 108.101 41.9649 108.223 53.3318C64.7098 34.0346 35.2921 85.3174 5.99707 53.0674C5.99707 41.8328 6.73251 30.4659 8.08082 19.2313C9.06141 11.301 14.3321 6.01408 21.6865 4.69235Z" fill="white" fill-opacity="0.290196"/>
<path fill-rule="evenodd" clip-rule="evenodd" d="M20.9498 7.99609C25.9753 7.99609 30.1428 12.4899 30.1428 17.909C30.1428 23.4602 25.9753 27.8218 20.9498 27.8218C15.8018 27.8218 11.7568 23.4602 11.7568 17.909C11.7568 12.4899 15.8018 7.99609 20.9498 7.99609Z" fill="white"/>
<path fill-rule="evenodd" clip-rule="evenodd" d="M34.9234 3.89868C37.4975 3.89868 39.5812 6.01343 39.5812 8.78904C39.5812 11.4325 37.4975 13.6794 34.9234 13.6794C32.4719 13.6794 30.3882 11.4325 30.3882 8.78904C30.3882 6.01343 32.4719 3.89868 34.9234 3.89868Z" fill="white"/>
<path fill-rule="evenodd" clip-rule="evenodd" d="M93.5124 94.834C96.4541 94.834 99.0282 97.4774 99.0282 100.782C99.0282 104.086 96.4541 106.729 93.5124 106.729C90.448 106.729 87.9966 104.086 87.9966 100.782C87.9966 97.4774 90.448 94.834 93.5124 94.834Z" fill="white"/>
<path fill-rule="evenodd" clip-rule="evenodd" d="M40.9285 44.4763H75.6168C77.0877 44.4763 78.1909 45.6659 78.1909 47.1198V88.3576C78.1909 89.8115 77.0877 91.001 75.6168 91.001H38.9674C37.619 91.001 36.5159 89.8115 36.5159 88.3576V47.1198C36.5159 46.0624 37.1288 45.1372 37.9868 44.7407C37.8642 44.6085 37.7416 44.4763 37.7416 44.212L35.4127 37.0747C35.1676 36.2816 35.5353 35.4886 36.1482 35.3564L48.7732 30.7304C48.0378 27.2939 49.7538 23.8574 52.9407 22.6679C56.1276 21.6105 59.4371 23.1966 60.7854 26.3687L73.2879 21.7427C74.0234 21.6105 74.7588 21.8748 74.8814 22.6679L77.2103 29.9374C77.4554 30.5982 77.0877 31.3913 76.3523 31.5234L40.9285 44.4763ZM51.4698 29.673L57.9662 27.4261C57.2308 25.84 55.5148 25.047 53.9213 25.7078C52.3279 26.2365 51.3473 27.9548 51.4698 29.673ZM47.3024 50.4241C48.5281 50.4241 49.5087 51.4815 49.5087 52.8032V80.9559C49.5087 82.2776 48.5281 83.335 47.3024 83.335C46.0766 83.335 45.096 82.2776 45.096 80.9559V52.8032C45.096 51.4815 46.0766 50.4241 47.3024 50.4241ZM57.1082 50.4241C58.334 50.4241 59.3145 51.4815 59.3145 52.8032V80.9559C59.3145 82.2776 58.334 83.335 57.1082 83.335C55.8825 83.335 54.9019 82.2776 54.9019 80.9559V52.8032C54.9019 51.4815 55.8825 50.4241 57.1082 50.4241ZM67.4044 50.4241C68.5076 50.4241 69.6107 51.4815 69.6107 52.8032V80.9559C69.6107 82.2776 68.5076 83.335 67.4044 83.335C66.1787 83.335 65.1981 82.2776 65.1981 80.9559V52.8032C65.1981 51.4815 66.1787 50.4241 67.4044 50.4241Z" stroke="#00B0DC" stroke-width="0.487996" stroke-linecap="round" stroke-linejoin="round"/>
<path fill-rule="evenodd" clip-rule="evenodd" d="M40.9285 44.4763H75.6168C77.0877 44.4763 78.1909 45.6659 78.1909 47.1198V88.3576C78.1909 89.8115 77.0877 91.001 75.6168 91.001H38.9674C37.619 91.001 36.5159 89.8115 36.5159 88.3576V47.1198C36.5159 46.0624 37.1288 45.1372 37.9868 44.7407C37.8642 44.6085 37.7416 44.4763 37.7416 44.212L35.4127 37.0747C35.1676 36.2816 35.5353 35.4886 36.1482 35.3564L48.7732 30.7304C48.0378 27.2939 49.7538 23.8574 52.9407 22.6679C56.1276 21.6105 59.4371 23.1966 60.7854 26.3687L73.2879 21.7427C74.0234 21.6105 74.7588 21.8748 74.8814 22.6679L77.2103 29.9374C77.4554 30.5982 77.0877 31.3913 76.3523 31.5234L40.9285 44.4763ZM51.4698 29.673L57.9662 27.4261C57.2308 25.84 55.5148 25.047 53.9213 25.7078C52.3279 26.2365 51.3473 27.9548 51.4698 29.673ZM47.3024 50.4241C48.5281 50.4241 49.5087 51.4815 49.5087 52.8032V80.9559C49.5087 82.2776 48.5281 83.335 47.3024 83.335C46.0766 83.335 45.096 82.2776 45.096 80.9559V52.8032C45.096 51.4815 46.0766 50.4241 47.3024 50.4241ZM57.1082 50.4241C58.334 50.4241 59.3145 51.4815 59.3145 52.8032V80.9559C59.3145 82.2776 58.334 83.335 57.1082 83.335C55.8825 83.335 54.9019 82.2776 54.9019 80.9559V52.8032C54.9019 51.4815 55.8825 50.4241 57.1082 50.4241ZM67.4044 50.4241C68.5076 50.4241 69.6107 51.4815 69.6107 52.8032V80.9559C69.6107 82.2776 68.5076 83.335 67.4044 83.335C66.1787 83.335 65.1981 82.2776 65.1981 80.9559V52.8032C65.1981 51.4815 66.1787 50.4241 67.4044 50.4241Z" fill="white"/>
<path fill-rule="evenodd" clip-rule="evenodd" d="M78.1901 84.5248V88.3578C78.1901 89.8117 77.0869 91.0012 75.6161 91.0012H38.9666C37.6183 91.0012 36.5151 89.8117 36.5151 88.3578V84.5248C36.5151 85.9787 37.6183 87.0361 38.9666 87.0361H75.6161C76.9644 87.0361 78.1901 85.9787 78.1901 84.5248ZM76.4741 27.5583L77.2095 29.9375C77.4547 30.5983 77.0869 31.3914 76.3515 31.5235L40.9278 44.4765L39.8246 41.04L76.3515 27.6905L76.4741 27.5583Z" fill="black" fill-opacity="0.101961"/>
</svg>
