<svg width="117" height="132" viewBox="0 0 117 132" fill="none" xmlns="http://www.w3.org/2000/svg">
<path fill-rule="evenodd" clip-rule="evenodd" d="M20.4893 13.1514C46.5974 8.12888 72.583 8.12888 98.2009 13.1514C106.291 14.8697 111.684 20.6853 113.277 29.5408C118.303 57.4293 118.18 85.4498 113.277 113.338C111.684 122.194 106.413 128.802 98.2009 129.595C72.583 132.239 46.5974 132.107 20.4893 129.595C12.1543 128.802 6.27078 122.194 5.29019 113.338C2.34843 85.3177 1.85814 57.4293 5.29019 29.5408C6.39335 20.6853 12.2769 14.7375 20.4893 13.1514Z" fill="black" fill-opacity="0.101961"/>
<path fill-rule="evenodd" clip-rule="evenodd" d="M17.9156 6.8072C44.1463 1.78464 70.0093 1.78464 95.6272 6.8072C103.84 8.52545 109.11 14.341 110.704 23.1966C115.729 51.0851 115.729 78.9735 110.704 106.994C109.233 115.718 103.84 122.458 95.6272 123.251C70.0093 125.763 44.1463 125.763 17.9156 123.251C9.58063 122.458 3.69711 115.85 2.71652 106.994C-0.102667 78.9735 -0.715534 51.0851 2.71652 23.1966C3.94226 14.2089 9.70321 8.39328 17.9156 6.8072Z" fill="#E6E6E6"/>
<path fill-rule="evenodd" clip-rule="evenodd" d="M17.9156 3.76692C44.1463 -1.25564 70.0093 -1.25564 95.6272 3.76692C103.84 5.35299 109.11 11.3008 110.704 20.1563C115.729 48.0447 115.729 75.9331 110.704 103.954C109.233 112.677 103.84 119.418 95.6272 120.211C70.0093 122.722 44.1463 122.722 17.9156 120.211C9.58063 119.418 3.69711 112.809 2.71652 103.954C-0.102667 75.9331 -0.715534 48.0447 2.71652 20.1563C3.94226 11.1686 9.70321 5.35299 17.9156 3.76692Z" fill="white"/>
<path fill-rule="evenodd" clip-rule="evenodd" d="M23.6776 11.9612C47.2118 7.46729 70.3781 7.33512 93.422 11.9612C100.776 13.4151 105.557 18.702 106.905 26.5002C111.44 51.613 111.318 76.5936 106.905 101.706C105.557 109.637 100.776 115.585 93.422 116.378C70.3781 118.624 47.2118 118.624 23.6776 116.378C16.2007 115.585 10.93 109.637 10.072 101.706C7.49794 76.5936 7.00765 51.613 10.072 26.5002C11.1751 18.5698 16.3232 13.2829 23.6776 11.9612Z" fill="#E6E6E6"/>
<path fill-rule="evenodd" clip-rule="evenodd" d="M21.9599 9.71464C45.494 5.22077 68.6604 5.22077 91.7042 9.71464C99.0586 11.1685 103.839 16.4554 105.187 24.3858C109.722 49.3664 109.6 74.4792 105.187 99.4598C103.839 107.39 99.0586 113.338 91.7042 114.131C68.6604 116.378 45.494 116.378 21.9599 114.131C14.6055 113.47 9.21223 107.522 8.35421 99.4598C5.78017 74.4792 5.28988 49.3664 8.35421 24.3858C9.45738 16.3233 14.6055 11.1685 21.9599 9.71464Z" fill="#6DC300"/>
<path fill-rule="evenodd" clip-rule="evenodd" d="M21.9599 4.69236C45.494 0.198495 68.6604 0.0663224 91.7042 4.69236C99.0586 6.14626 103.839 11.301 105.187 19.2313C109.722 44.3441 109.6 69.3247 105.187 94.4375C103.839 102.368 99.0586 108.316 91.7042 108.976C68.6604 111.356 45.494 111.223 21.9599 108.976C14.6055 108.316 9.21223 102.368 8.35421 94.4375C5.78017 69.3247 5.28988 44.3441 8.35421 19.2313C9.45738 11.301 14.6055 6.01408 21.9599 4.69236Z" fill="#C9FB06"/>
<path fill-rule="evenodd" clip-rule="evenodd" d="M22.4517 5.35331C45.6181 0.859445 68.5394 0.859445 91.2155 5.35331C98.4473 6.67503 103.228 11.9619 104.576 19.7601C108.989 44.4763 108.989 69.1926 104.576 93.9088C103.228 101.707 98.5699 107.655 91.2155 108.316C68.5394 110.563 45.6181 110.563 22.4517 108.316C15.0973 107.655 9.82668 101.839 9.09124 93.9088C6.5172 69.1926 5.90433 44.4763 9.09124 19.7601C10.0718 11.8298 15.2199 6.67503 22.4517 5.35331Z" fill="#C5F806"/>
<path fill-rule="evenodd" clip-rule="evenodd" d="M22.9427 6.01389C45.7414 1.6522 68.4175 1.52002 90.7259 6.01389C97.9577 7.33562 102.616 12.4903 103.964 20.2885C108.376 44.6083 108.254 69.0602 103.964 93.38C102.616 101.046 97.9577 106.862 90.7259 107.655C68.4175 109.902 45.7414 109.769 22.9427 107.655C15.7109 106.994 10.5628 101.178 9.7048 93.38C7.13076 69.0602 6.64046 44.6083 9.7048 20.2885C10.6854 12.4903 15.7109 7.33562 22.9427 6.01389Z" fill="#C0F605"/>
<path fill-rule="evenodd" clip-rule="evenodd" d="M23.433 6.67508C45.9865 2.31338 68.2949 2.31338 90.3581 6.67508C97.3448 7.99681 102.003 13.1515 103.351 20.6854C107.641 44.7408 107.641 68.7963 103.351 92.8517C102.003 100.518 97.4674 106.201 90.3581 106.994C68.2949 109.109 45.9865 109.109 23.433 106.994C16.2012 106.201 11.1757 100.518 10.3176 92.8517C7.86617 68.7963 7.37588 44.7408 10.3176 20.6854C11.2982 13.0194 16.3237 7.99681 23.433 6.67508Z" fill="#BCF305"/>
<path fill-rule="evenodd" clip-rule="evenodd" d="M23.9232 7.33567C46.109 3.10614 68.0496 2.97397 89.8677 7.33567C96.8544 8.65739 101.39 13.68 102.738 21.2138C106.905 44.8727 106.905 68.6638 102.738 92.3227C101.39 99.8565 96.8544 105.54 89.8677 106.201C68.0496 108.448 46.109 108.316 23.9232 106.201C16.8139 105.54 11.7884 99.9887 11.0529 92.3227C8.4789 68.6638 7.98861 44.8727 11.0529 21.2138C11.911 13.68 16.9365 8.65739 23.9232 7.33567Z" fill="#B7F004"/>
<path fill-rule="evenodd" clip-rule="evenodd" d="M24.2909 7.99685C46.2315 3.76733 67.9271 3.76733 89.3774 7.99685C96.2416 9.31858 100.777 14.3411 102.125 21.7428C106.293 45.1374 106.17 68.5319 102.125 91.7943C100.777 99.196 96.3641 104.879 89.3774 105.54C67.9271 107.655 46.2315 107.655 24.2909 105.54C17.4267 104.879 12.4012 99.3281 11.6658 91.7943C9.21431 68.5319 8.72402 45.1374 11.6658 21.7428C12.6464 14.209 17.4267 9.31858 24.2909 7.99685Z" fill="#B3EE04"/>
<path fill-rule="evenodd" clip-rule="evenodd" d="M24.7816 8.65748C46.4771 4.56014 67.8049 4.56014 88.8876 8.65748C95.7517 9.97921 100.164 14.8696 101.39 22.1391C105.558 45.2693 105.558 68.2673 101.39 91.3974C100.164 98.6669 95.7517 104.086 88.8876 104.879C67.8049 106.862 46.4771 106.862 24.7816 104.879C17.9175 104.218 13.1371 98.6669 12.2791 91.3974C9.95023 68.2673 9.45994 45.2693 12.2791 22.1391C13.2597 14.8696 18.0401 9.97921 24.7816 8.65748Z" fill="#AEEB03"/>
<path fill-rule="evenodd" clip-rule="evenodd" d="M25.2713 9.31784C46.5991 5.35266 67.6817 5.22049 88.5192 9.31784C95.1382 10.6396 99.5509 15.53 100.777 22.6673C104.944 45.401 104.822 68.1347 100.777 90.8684C99.5509 98.0057 95.2608 103.425 88.5192 104.086C67.6817 106.2 46.5991 106.2 25.2713 104.086C18.5297 103.425 13.7494 98.1379 13.0139 90.8684C10.5625 68.1347 10.0722 45.401 13.0139 22.6673C13.8719 15.3978 18.6523 10.6396 25.2713 9.31784Z" fill="#AAE903"/>
<path fill-rule="evenodd" clip-rule="evenodd" d="M25.7621 10.1118C46.7221 6.01448 67.5596 6.01448 88.0294 10.1118C94.6484 11.3014 98.9385 16.0596 100.164 23.1969C104.209 45.5341 104.087 68.0035 100.164 90.3406C98.9385 97.3458 94.6484 102.765 88.0294 103.426C67.5596 105.408 46.7221 105.408 25.7621 103.426C19.1431 102.765 14.3627 97.478 13.6273 90.3406C11.2984 68.0035 10.8081 45.5341 13.6273 23.1969C14.4853 16.0596 19.1431 11.3014 25.7621 10.1118Z" fill="#A5E602"/>
<path fill-rule="evenodd" clip-rule="evenodd" d="M26.2508 10.7724C46.8432 6.80725 67.313 6.67508 87.5376 10.7724C94.034 11.962 98.3241 16.7202 99.5498 23.5932C103.472 45.666 103.472 67.7388 99.5498 89.8116C98.3241 96.8168 94.1566 102.104 87.5376 102.765C67.313 104.747 46.8432 104.747 26.2508 102.765C19.6318 102.104 14.974 96.8168 14.2386 89.8116C11.9097 67.7388 11.4194 45.666 14.2386 23.5932C15.0966 16.588 19.7544 11.962 26.2508 10.7724Z" fill="#A1E302"/>
<path fill-rule="evenodd" clip-rule="evenodd" d="M26.6185 11.4336C47.0883 7.46842 67.1904 7.46842 87.1698 11.4336C93.5437 12.6232 97.7112 17.2492 98.9369 24.1222C102.859 45.7985 102.737 67.6069 98.9369 89.2832C97.7112 96.1562 93.5437 101.311 87.1698 101.972C67.1904 103.954 47.0883 103.954 26.6185 101.972C20.2447 101.443 15.5869 96.2884 14.8515 89.2832C12.6452 67.6069 12.1549 45.7985 14.8515 24.1222C15.7095 17.2492 20.2447 12.6232 26.6185 11.4336Z" fill="#9CE101"/>
<path fill-rule="evenodd" clip-rule="evenodd" d="M27.1087 12.0942C47.2108 8.26123 67.0677 8.26123 86.6795 12.0942C92.9308 13.2838 97.0983 17.9098 98.324 24.6507C102.124 46.0626 102.001 67.4746 98.324 88.7545C97.0983 95.6274 93.0533 100.65 86.6795 101.311C67.0677 103.293 47.2108 103.293 27.1087 101.311C20.7349 100.65 16.1997 95.6274 15.5868 88.7545C13.2579 67.3425 12.8902 46.0626 15.5868 24.6507C16.4448 17.7777 20.8575 13.2838 27.1087 12.0942Z" fill="#98DE01"/>
<path fill-rule="evenodd" clip-rule="evenodd" d="M21.9594 4.69235C45.4936 0.198497 68.66 0.0663243 91.7038 4.69235C99.0582 6.14625 103.839 11.301 105.187 19.2313C107.271 30.5981 108.374 41.9649 108.496 53.3318C64.9828 34.0346 35.5651 85.3174 6.27002 53.0674C6.27002 41.8328 7.00546 30.4659 8.35377 19.2313C9.45693 11.301 14.605 6.01408 21.9594 4.69235Z" fill="white" fill-opacity="0.290196"/>
<path fill-rule="evenodd" clip-rule="evenodd" d="M21.2253 7.99609C26.2508 7.99609 30.4183 12.4899 30.4183 17.909C30.4183 23.4602 26.2508 27.8218 21.2253 27.8218C16.1997 27.8218 12.0322 23.4602 12.0322 17.909C12.0322 12.4899 16.1997 7.99609 21.2253 7.99609Z" fill="white"/>
<path fill-rule="evenodd" clip-rule="evenodd" d="M35.3219 3.89868C37.7734 3.89868 39.8571 6.01343 39.8571 8.78904C39.8571 11.4325 37.7734 13.6794 35.3219 13.6794C32.7478 13.6794 30.6641 11.4325 30.6641 8.78904C30.6641 6.01343 32.7478 3.89868 35.3219 3.89868Z" fill="white"/>
<path fill-rule="evenodd" clip-rule="evenodd" d="M93.7883 94.834C96.8527 94.834 99.3041 97.4774 99.3041 100.782C99.3041 104.086 96.8527 106.729 93.7883 106.729C90.7239 106.729 88.2725 104.086 88.2725 100.782C88.2725 97.4774 90.7239 94.834 93.7883 94.834Z" fill="white"/>
<path fill-rule="evenodd" clip-rule="evenodd" d="M41.2056 44.4763H76.0165C77.3648 44.4763 78.468 45.6659 78.468 47.1198V88.3576C78.468 89.8115 77.3648 91.001 76.0165 91.001H39.2444C37.8961 91.001 36.7929 89.8115 36.7929 88.3576V47.1198C36.7929 46.0624 37.4058 45.1372 38.2638 44.7407C38.1412 44.6085 38.0187 44.4763 38.0187 44.212L35.6898 37.0747C35.5672 36.2816 35.8123 35.4886 36.5478 35.3564L49.0503 30.7304C48.3149 27.2939 50.1535 23.8574 53.2178 22.6679C56.4047 21.6105 59.7142 23.1966 61.1851 26.3687L73.6876 21.7427C74.3005 21.6105 75.0359 21.8748 75.2811 22.6679L77.4874 29.9374C77.7325 30.5982 77.3648 31.3913 76.7519 31.5234L41.2056 44.4763ZM51.8695 29.673L58.3659 27.4261C57.5079 25.84 55.7918 25.047 54.1984 25.7078C52.6049 26.2365 51.6243 27.9548 51.8695 29.673ZM47.5794 50.4241C48.8051 50.4241 49.7857 51.4815 49.7857 52.8032V80.9559C49.7857 82.2776 48.8051 83.335 47.5794 83.335C46.3537 83.335 45.3731 82.2776 45.3731 80.9559V52.8032C45.3731 51.4815 46.3537 50.4241 47.5794 50.4241ZM57.3853 50.4241C58.611 50.4241 59.5916 51.4815 59.5916 52.8032V80.9559C59.5916 82.2776 58.611 83.335 57.3853 83.335C56.1596 83.335 55.179 82.2776 55.179 80.9559V52.8032C55.179 51.4815 56.1596 50.4241 57.3853 50.4241ZM67.6815 50.4241C68.9072 50.4241 69.8878 51.4815 69.8878 52.8032V80.9559C69.8878 82.2776 68.9072 83.335 67.6815 83.335C66.4558 83.335 65.4752 82.2776 65.4752 80.9559V52.8032C65.4752 51.4815 66.4558 50.4241 67.6815 50.4241Z" stroke="#6DC300" stroke-width="0.487996" stroke-linecap="round" stroke-linejoin="round"/>
<path fill-rule="evenodd" clip-rule="evenodd" d="M41.2056 44.4763H76.0165C77.3648 44.4763 78.468 45.6659 78.468 47.1198V88.3576C78.468 89.8115 77.3648 91.001 76.0165 91.001H39.2444C37.8961 91.001 36.7929 89.8115 36.7929 88.3576V47.1198C36.7929 46.0624 37.4058 45.1372 38.2638 44.7407C38.1412 44.6085 38.0187 44.4763 38.0187 44.212L35.6898 37.0747C35.5672 36.2816 35.8123 35.4886 36.5478 35.3564L49.0503 30.7304C48.3149 27.2939 50.1535 23.8574 53.2178 22.6679C56.4047 21.6105 59.7142 23.1966 61.1851 26.3687L73.6876 21.7427C74.3005 21.6105 75.0359 21.8748 75.2811 22.6679L77.4874 29.9374C77.7325 30.5982 77.3648 31.3913 76.7519 31.5234L41.2056 44.4763ZM51.8695 29.673L58.3659 27.4261C57.5079 25.84 55.7918 25.047 54.1984 25.7078C52.6049 26.2365 51.6243 27.9548 51.8695 29.673ZM47.5794 50.4241C48.8051 50.4241 49.7857 51.4815 49.7857 52.8032V80.9559C49.7857 82.2776 48.8051 83.335 47.5794 83.335C46.3537 83.335 45.3731 82.2776 45.3731 80.9559V52.8032C45.3731 51.4815 46.3537 50.4241 47.5794 50.4241ZM57.3853 50.4241C58.611 50.4241 59.5916 51.4815 59.5916 52.8032V80.9559C59.5916 82.2776 58.611 83.335 57.3853 83.335C56.1596 83.335 55.179 82.2776 55.179 80.9559V52.8032C55.179 51.4815 56.1596 50.4241 57.3853 50.4241ZM67.6815 50.4241C68.9072 50.4241 69.8878 51.4815 69.8878 52.8032V80.9559C69.8878 82.2776 68.9072 83.335 67.6815 83.335C66.4558 83.335 65.4752 82.2776 65.4752 80.9559V52.8032C65.4752 51.4815 66.4558 50.4241 67.6815 50.4241Z" fill="white"/>
<path fill-rule="evenodd" clip-rule="evenodd" d="M78.468 84.5248V88.3578C78.468 89.8117 77.3648 91.0012 76.0165 91.0012H39.2444C37.8961 91.0012 36.793 89.8117 36.793 88.3578V84.5248C36.793 85.9787 37.8961 87.0361 39.2444 87.0361H76.0165C77.3648 87.0361 78.468 85.9787 78.468 84.5248ZM76.752 27.5583L77.4874 29.9375C77.7326 30.5983 77.3648 31.3914 76.752 31.5235L41.2056 44.4765L40.225 41.04L76.752 27.6905V27.5583Z" fill="black" fill-opacity="0.101961"/>
</svg>
