<svg width="532" height="150" fill="none" xmlns="http://www.w3.org/2000/svg"><path fill-rule="evenodd" clip-rule="evenodd" d="M45.55 11.278h457.468c6.177 0 11.324 7.808 11.324 17.35v103.227c0 9.716-5.147 17.523-11.324 17.523H45.55c-6.177 0-11.324-7.807-11.324-17.523V28.628c0-9.542 5.147-17.35 11.324-17.35Z" fill="#000" fill-opacity=".102"/><path fill-rule="evenodd" clip-rule="evenodd" d="M42.462 5.727H499.93c6.177 0 11.324 7.807 11.324 17.523v103.227c0 9.542-5.147 17.349-11.324 17.349H42.461c-6.305 0-11.324-7.807-11.324-17.349V23.25c0-9.716 5.019-17.523 11.325-17.523Z" fill="#E6E6E6"/><path fill-rule="evenodd" clip-rule="evenodd" d="M42.462 2.084H499.93c6.177 0 11.324 7.807 11.324 17.523v103.227c0 9.542-5.147 17.349-11.324 17.349H42.461c-6.305 0-11.324-7.807-11.324-17.349V19.607c0-9.716 5.019-17.523 11.325-17.523Z" fill="#fff"/><path fill-rule="evenodd" clip-rule="evenodd" d="M23.975 14h496.257C526.69 14 532 22.344 532 32.433v93.134c0 10.09-5.31 18.433-11.768 18.433H23.975c-6.458 0-11.768-8.343-11.768-18.433V32.433c0-10.09 5.31-18.433 11.768-18.433Z" fill="#E6E6E6"/><path fill-rule="evenodd" clip-rule="evenodd" d="M21.621 12h496.407c6.6 0 11.765 8.338 11.765 18.226v90.548c0 10.083-5.309 18.226-11.765 18.226H21.621C15.165 139 10 130.857 10 120.774V30.226C10 20.338 15.165 12 21.621 12Z" fill="#F1C383"/><path fill-rule="evenodd" clip-rule="evenodd" d="M21.462 7h493.415c6.447 0 11.605 8.131 11.605 18.005v84.991c0 9.873-5.158 18.004-11.605 18.004H21.462C15.158 128 10 119.869 10 109.996v-84.99C10 15.131 15.158 7 21.462 7Z" fill="#FAEECC"/><path fill-rule="evenodd" clip-rule="evenodd" d="M23.517 10h489.305c6.299 0 11.453 7.94 11.453 17.623v80.755c0 9.683-5.154 17.623-11.453 17.623H23.517c-6.3 0-11.31-7.94-11.31-17.623V27.623c0-9.682 5.01-17.622 11.31-17.622Z" fill="#FAEDC9"/><path fill-rule="evenodd" clip-rule="evenodd" d="M24.517 12h487.305c6.321 0 11.349 7.916 11.349 17.568v76.059c0 9.459-5.172 17.374-11.349 17.374H24.517c-6.178 0-11.206-7.915-11.206-17.374v-76.06c0-9.651 5.028-17.566 11.206-17.566Z" fill="#F9ECC6"/><path fill-rule="evenodd" clip-rule="evenodd" d="M26.572 14h483.195c6.173 0 11.197 7.963 11.197 17.478v72.045c0 9.516-5.024 17.478-11.197 17.478H26.572c-6.03 0-11.054-7.962-11.054-17.478V31.478c0-9.515 5.024-17.477 11.053-17.477Z" fill="#F9EBC2"/><path fill-rule="evenodd" clip-rule="evenodd" d="M28.627 17h479.085c6.025 0 11.045 7.696 11.045 16.93v67.141c0 9.427-5.02 16.93-11.045 16.93H28.627c-6.025 0-10.902-7.503-10.902-16.93v-67.14c0-9.235 4.877-16.93 10.901-16.93Z" fill="#F8EABF"/><path fill-rule="evenodd" clip-rule="evenodd" d="M30.682 19h474.975c6.02 0 10.893 7.552 10.893 16.845v63.311c0 9.294-4.873 16.845-10.893 16.845H30.682c-5.877 0-10.75-7.551-10.75-16.845v-63.31c0-9.294 4.873-16.845 10.75-16.845Z" fill="#F8E9BC"/><path fill-rule="evenodd" clip-rule="evenodd" d="M32.737 22h470.865c5.871 0 10.741 7.345 10.741 16.623v58.756c0 9.084-4.87 16.622-10.741 16.622H32.737c-5.872 0-10.597-7.538-10.597-16.622V38.623C22.14 29.345 26.865 22 32.737 22Z" fill="#F7E8B9"/><path fill-rule="evenodd" clip-rule="evenodd" d="M33.736 24h468.866c5.894 0 10.637 7.331 10.637 16.398v54.206c0 9.066-4.743 16.397-10.637 16.397H33.736c-5.75 0-10.493-7.331-10.493-16.397V40.398C23.243 31.33 27.986 24 33.736 24Z" fill="#F7E7B6"/><path fill-rule="evenodd" clip-rule="evenodd" d="M35.791 26h464.756c5.745 0 10.485 7.387 10.485 16.329v50.344c0 8.941-4.74 16.328-10.485 16.328H35.791c-5.745 0-10.34-7.387-10.34-16.328V42.329C25.45 33.387 30.045 26 35.79 26Z" fill="#F6E6B3"/><path fill-rule="evenodd" clip-rule="evenodd" d="M62.021 26.722h412.945c5.147 0 9.265 6.419 9.265 14.226v41.118c0 7.807-4.247 14.4-9.265 14.4H62.021c-5.147 0-9.265-6.593-9.265-14.4V40.948c0-7.807 4.118-14.226 9.265-14.226Z" fill="#F6E5AF"/><path fill-rule="evenodd" clip-rule="evenodd" d="M63.694 28.803h409.599c5.018 0 9.136 6.42 9.136 14.053v37.3c0 7.634-4.118 14.053-9.136 14.053H63.694c-5.019 0-9.136-6.246-9.136-14.053v-37.3c0-7.634 4.117-14.053 9.136-14.053Z" fill="#F5E4AC"/><path fill-rule="evenodd" clip-rule="evenodd" d="M65.367 30.884H471.62c4.89 0 9.007 6.42 9.007 14.053v33.31c0 7.634-4.117 13.88-9.007 13.88H65.367c-5.019 0-9.008-6.246-9.008-13.88v-33.31c0-7.807 3.989-14.053 9.008-14.053Z" fill="#F5E3A9"/><path fill-rule="evenodd" clip-rule="evenodd" d="M491.18 94.729c3.089 0 5.662 3.817 5.662 8.848 0 4.858-2.573 8.848-5.662 8.848-3.217 0-5.791-3.99-5.791-8.848 0-5.031 2.574-8.848 5.791-8.848ZM482.429 103.751c1.673 0 2.96 2.082 2.96 4.684 0 2.602-1.287 4.857-2.96 4.857-1.801 0-3.088-2.255-3.088-4.857 0-2.602 1.287-4.684 3.088-4.684ZM47.609 11.452c4.89 0 8.88 6.072 8.88 13.705 0 7.46-3.99 13.706-8.88 13.706-4.89 0-8.751-6.245-8.751-13.706 0-7.633 3.86-13.705 8.75-13.705ZM61.249 9.717c2.702 0 4.89 3.47 4.89 7.634s-2.188 7.633-4.89 7.633c-2.703 0-4.89-3.47-4.89-7.633 0-4.164 2.188-7.634 4.89-7.634Z" fill="#fff"/><path fill-rule="evenodd" clip-rule="evenodd" d="M91.609 21.209h415.642c5.163 0 9.466 4.64 9.466 10.442v70.384c0 5.801-4.303 10.442-9.466 10.442H91.609c-5.163 0-9.466-4.641-9.466-10.442V31.651c0-5.801 4.303-10.442 9.466-10.442Z" fill="#EFB469"/><path fill-rule="evenodd" clip-rule="evenodd" d="M95.05 26.236H503.81c5.02 0 9.036 4.448 9.036 10.056v64.391c0 5.414-4.159 10.055-9.036 10.055H95.051c-4.877 0-9.036-4.641-9.036-10.055V36.292c0-5.608 4.016-10.056 9.036-10.056Z" fill="#F1C383"/><path fill-rule="evenodd" clip-rule="evenodd" d="M95.481 32.036H503.38c4.876 0 9.035 4.448 9.035 9.862v58.59c0 5.414-4.159 10.055-9.035 10.055H95.481c-4.876 0-9.035-4.447-9.035-10.055v-58.59c0-5.414 4.159-9.862 9.035-9.862Z" fill="#F1C585"/><path fill-rule="evenodd" clip-rule="evenodd" d="M95.912 37.645h407.037c4.876 0 8.892 4.447 8.892 9.861v52.982c0 5.415-4.016 9.862-8.892 9.862H95.911c-4.876 0-8.892-4.447-8.892-9.862V47.506c0-5.414 4.016-9.861 8.892-9.861Z" fill="#F1C786"/><path fill-rule="evenodd" clip-rule="evenodd" d="M96.341 43.445h406.177c4.876 0 8.749 4.254 8.749 9.668v47.375c0 5.22-3.873 9.474-8.749 9.474H96.341c-4.876 0-8.748-4.254-8.748-9.474V53.113c0-5.414 3.872-9.668 8.748-9.668Z" fill="#F2CA88"/><path d="M17.39 26.9c-1.761 20.977-.733 35.59 4.699 47.598 5.285 11.718 15.123 21.845 30.98 33.853 15.856-12.008 25.84-22.135 31.125-33.853 5.433-12.009 6.46-26.62 4.552-47.599-12.333-2.314-23.932-3.617-35.678-3.617C41.47 23.139 29.87 24.44 17.391 26.9ZM6.82 81.007C-.376 65.094-1.404 46.43 1.533 19.376l.587-5.787 5.726-1.302C23.557 8.67 38.24 6.934 53.068 6.934c14.83 0 29.511 1.881 45.221 5.353l5.726 1.302.588 5.787c2.936 27.055 1.908 45.718-5.286 61.632-7.194 16.059-20.115 28.79-41.257 44.126l-4.992 3.472-4.845-3.472C27.081 109.798 14.013 97.067 6.82 81.008Z" fill="#000" fill-opacity=".102"/><path d="M17.39 19.982c-1.761 20.976-.733 35.587 4.699 47.45 5.285 11.863 15.123 21.99 30.98 33.852 15.856-11.863 25.84-21.99 31.125-33.852 5.433-11.863 6.46-26.474 4.552-47.45-12.333-2.46-23.932-3.761-35.678-3.761-11.599 0-23.198 1.157-35.677 3.76ZM6.82 74.087C-.376 58.029-1.404 39.512 1.533 12.459l.587-5.786L7.847 5.37C23.557 1.609 38.24-.127 53.068.018c14.83 0 29.511 1.736 45.221 5.353l5.726 1.302.588 5.786c2.936 27.053 1.908 45.57-5.286 61.628-7.194 16.057-20.115 28.643-41.257 43.978l-4.992 3.616-4.845-3.616C27.081 102.73 14.013 90.145 6.82 74.087Z" fill="#fff"/><path fill-rule="evenodd" clip-rule="evenodd" d="M10.168 10.083c-5.377 51.623 3.488 69.655 42.869 98.739 39.526-29.084 48.391-47.116 42.869-98.74-29.79-6.689-55.802-6.98-85.738 0Z" fill="#E6E6E6"/><path fill-rule="evenodd" clip-rule="evenodd" d="M53.693 108.822c38.942-29.094 47.675-47.132 42.235-98.774-14.604-3.346-28.491-5.092-42.235-5.092v103.866Z" fill="#CCC"/><path fill-rule="evenodd" clip-rule="evenodd" d="M53.005 98.08c-11.186-8.128-19.903-15.53-26.44-22.934C14.798 61.937 9.568 48.293 8.842 28.697c-1.308 37.885 9.878 54.868 44.163 80.125 34.43-25.257 45.471-42.24 44.309-80.125-.727 19.596-5.956 33.24-17.724 46.45-6.682 7.402-15.399 14.805-26.585 22.934Z" fill="#fff"/><path fill-rule="evenodd" clip-rule="evenodd" d="M8.74 35.432c.146 33.45 11.918 49.743 44.328 73.389 32.41-23.646 44.182-39.939 44.328-73.389v-4.758c-.727 19.465-5.96 33.018-17.731 46.139-6.686 7.353-15.406 14.706-26.597 22.924-11.19-8.218-19.911-15.571-26.451-22.924C14.845 63.691 9.613 50.139 8.886 30.673c-.145 1.73-.145 3.316-.145 4.758Z" fill="#999"/><path fill-rule="evenodd" clip-rule="evenodd" d="m51.195 3.966 4.995 1.012-3.04 42.513-1.955-43.525Z" fill="#fff"/><path fill-rule="evenodd" clip-rule="evenodd" d="m52.996 115.435-4.842-3.632c-21.128-15.4-34.186-28.039-41.376-44.165C2.377 57.76.322 46.864.03 33.643c-.293 16.126 1.614 28.765 6.75 40.242 7.189 16.126 20.247 28.766 41.375 44.165l4.842 3.632 4.988-3.632c21.128-15.399 34.04-28.039 41.23-44.165 5.134-11.477 7.188-24.116 6.895-40.242-.293 13.22-2.494 24.117-6.896 33.995-7.19 16.126-20.1 28.766-41.229 44.165l-4.988 3.632Z" fill="#E6E6E6"/></svg>