<svg width="10" height="11" viewBox="0 0 10 11" fill="none" xmlns="http://www.w3.org/2000/svg">
<path fill-rule="evenodd" clip-rule="evenodd" d="M2.0795 1.72895C4.20948 1.34895 6.32946 1.33895 8.41944 1.72895C9.07944 1.84894 9.51943 2.28894 9.64943 2.95893C10.0594 5.06892 10.0494 7.1889 9.64943 9.29888C9.51943 9.96887 9.08943 10.4689 8.41944 10.5389C6.32946 10.7289 4.20948 10.7189 2.0795 10.5389C1.3995 10.4789 0.919508 9.97887 0.839508 9.29888C0.59951 7.1889 0.549511 5.06892 0.839508 2.95893C0.929508 2.28894 1.4095 1.83894 2.0795 1.72895Z" fill="black" fill-opacity="0.101961"/>
<path fill-rule="evenodd" clip-rule="evenodd" d="M1.86948 1.2389C3.99946 0.868905 6.11944 0.858905 8.20942 1.2389C8.86942 1.3689 9.30941 1.8089 9.43941 2.47889C9.84941 4.58887 9.83941 6.70885 9.43941 8.81883C9.30941 9.48883 8.87942 9.98882 8.20942 10.0488C6.11944 10.2488 3.99946 10.2388 1.86948 10.0488C1.18949 9.98882 0.709489 9.48883 0.62949 8.81883C0.389492 6.70885 0.349492 4.58887 0.62949 2.47889C0.719489 1.8089 1.19948 1.3589 1.86948 1.2389Z" fill="#E6E6E6"/>
<path fill-rule="evenodd" clip-rule="evenodd" d="M1.86948 1.00892C3.99946 0.638924 6.11944 0.628925 8.20942 1.00892C8.86942 1.13892 9.30941 1.57892 9.43941 2.24891C9.84941 4.35889 9.83941 6.47887 9.43941 8.58885C9.30941 9.25885 8.87942 9.75884 8.20942 9.81884C6.11944 10.0188 3.99946 10.0088 1.86948 9.81884C1.18949 9.75884 0.709489 9.25885 0.62949 8.58885C0.389492 6.47887 0.349492 4.35889 0.62949 2.24891C0.719489 1.57892 1.19948 1.12892 1.86948 1.00892Z" fill="white"/>
<path fill-rule="evenodd" clip-rule="evenodd" d="M2.33945 1.62894C4.25944 1.28894 6.14942 1.27894 8.0194 1.62894C8.6194 1.73894 9.01939 2.13893 9.12939 2.73893C9.49939 4.62891 9.48939 6.5289 9.12939 8.41888C9.01939 9.01887 8.6294 9.46887 8.0194 9.52887C6.14942 9.69887 4.25944 9.69887 2.33945 9.52887C1.72946 9.46887 1.29946 9.02887 1.22946 8.41888C1.01947 6.5289 0.979466 4.62891 1.22946 2.73893C1.30946 2.12894 1.73946 1.72894 2.33945 1.62894Z" fill="#E6E6E6"/>
<path fill-rule="evenodd" clip-rule="evenodd" d="M2.19944 1.45892C4.11942 1.11892 6.00941 1.11892 7.87939 1.45892C8.47938 1.56892 8.87938 1.96891 8.98938 2.56891C9.35938 4.45889 9.34938 6.35887 8.98938 8.24886C8.87938 8.84885 8.48938 9.30885 7.87939 9.35885C6.00941 9.52884 4.11942 9.52884 2.19944 9.35885C1.58944 9.30885 1.15945 8.85885 1.08945 8.24886C0.879451 6.35887 0.839452 4.45889 1.08945 2.56891C1.16945 1.96891 1.59944 1.56892 2.19944 1.45892Z" fill="#00B0DC"/>
<path fill-rule="evenodd" clip-rule="evenodd" d="M2.19944 1.07895C4.11942 0.738955 6.00941 0.728955 7.87939 1.07895C8.47938 1.18895 8.87938 1.58895 8.98938 2.17894C9.35938 4.07893 9.34938 5.96891 8.98938 7.86889C8.87938 8.46889 8.48938 8.91888 7.87939 8.97888C6.00941 9.14888 4.11942 9.14888 2.19944 8.97888C1.58944 8.91888 1.15945 8.46889 1.08945 7.86889C0.879451 5.96891 0.839452 4.07893 1.08945 2.17894C1.16945 1.57895 1.59944 1.17895 2.19944 1.07895Z" fill="#99FFFF"/>
<path fill-rule="evenodd" clip-rule="evenodd" d="M2.23945 1.1289C4.12944 0.788902 5.99942 0.788902 7.8494 1.1289C8.4394 1.2389 8.82939 1.62889 8.93939 2.21889C9.29939 4.08887 9.29939 5.95886 8.93939 7.82884C8.82939 8.41883 8.4494 8.86883 7.8494 8.91883C5.99942 9.08883 4.12944 9.08883 2.23945 8.91883C1.63946 8.86883 1.20946 8.42883 1.14946 7.82884C0.939463 5.95886 0.889464 4.08887 1.14946 2.21889C1.22946 1.62889 1.64946 1.2289 2.23945 1.1289Z" fill="#8BFAFF"/>
<path fill-rule="evenodd" clip-rule="evenodd" d="M2.27943 1.17887C4.13941 0.848877 5.98939 0.838877 7.80938 1.17887C8.38937 1.28887 8.77937 1.67887 8.88937 2.25886C9.24936 4.09885 9.23936 5.94883 8.88937 7.78882C8.77937 8.36881 8.39937 8.81881 7.80938 8.86881C5.98939 9.0388 4.13941 9.0388 2.27943 8.86881C1.68943 8.81881 1.26943 8.37881 1.19943 7.78882C0.989437 5.94883 0.949437 4.09885 1.19943 2.25886C1.27943 1.66887 1.68943 1.27887 2.27943 1.17887Z" fill="#7DF6FF"/>
<path fill-rule="evenodd" clip-rule="evenodd" d="M2.31944 1.22887C4.15942 0.908873 5.9794 0.898873 7.76939 1.22887C8.34938 1.33887 8.72938 1.71887 8.83938 2.28886C9.18937 4.10884 9.17937 5.92883 8.83938 7.74881C8.72938 8.32881 8.35938 8.7588 7.76939 8.8188C5.9794 8.9788 4.15942 8.9788 2.31944 8.8188C1.72944 8.7688 1.31944 8.33881 1.24944 7.74881C1.04945 5.92883 1.00945 4.10884 1.24944 2.28886C1.32944 1.71887 1.73944 1.32887 2.31944 1.22887Z" fill="#6FF1FF"/>
<path fill-rule="evenodd" clip-rule="evenodd" d="M2.34948 1.27888C4.16947 0.95888 5.95945 0.95888 7.73944 1.27888C8.29943 1.38888 8.67943 1.76887 8.78943 2.32887C9.12942 4.12885 9.12942 5.91884 8.78943 7.71882C8.67943 8.27882 8.30943 8.70881 7.73944 8.75881C5.95945 8.92881 4.16947 8.92881 2.34948 8.75881C1.77949 8.70881 1.36949 8.28882 1.29949 7.71882C1.0995 5.91884 1.0595 4.12885 1.29949 2.32887C1.37949 1.75887 1.78949 1.37888 2.34948 1.27888Z" fill="#61ECFF"/>
<path fill-rule="evenodd" clip-rule="evenodd" d="M2.38942 1.32891C4.1794 1.01892 5.94939 1.00892 7.69937 1.32891C8.25937 1.43891 8.62936 1.80891 8.72936 2.3689C9.07936 4.13889 9.06936 5.90887 8.72936 7.67886C8.62936 8.23885 8.26937 8.65885 7.69937 8.70885C5.94939 8.86885 4.1794 8.86885 2.38942 8.70885C1.82943 8.65885 1.41943 8.23885 1.35943 7.67886C1.15943 5.90887 1.11943 4.13889 1.35943 2.3689C1.42943 1.79891 1.82943 1.42891 2.38942 1.32891Z" fill="#53E8FF"/>
<path fill-rule="evenodd" clip-rule="evenodd" d="M2.42947 1.38892C4.18945 1.06893 5.93944 1.06893 7.65942 1.38892C8.20942 1.48892 8.57941 1.84892 8.67941 2.40891C9.01941 4.1489 9.00941 5.88888 8.67941 7.63887C8.57941 8.18886 8.21942 8.60886 7.65942 8.65886C5.93944 8.81886 4.18945 8.80886 2.42947 8.65886C1.86947 8.60886 1.46948 8.19886 1.40948 7.63887C1.20948 5.88888 1.16948 4.1489 1.40948 2.40891C1.48948 1.84892 1.87947 1.47892 2.42947 1.38892Z" fill="#46E3FF"/>
<path fill-rule="evenodd" clip-rule="evenodd" d="M2.46948 1.4389C4.20947 1.1289 5.92945 1.1189 7.62944 1.4389C8.16943 1.5389 8.52943 1.8989 8.62943 2.43889C8.95942 4.15888 8.95942 5.87886 8.62943 7.59884C8.52943 8.13884 8.17943 8.54884 7.62944 8.59884C5.92945 8.75883 4.20947 8.75883 2.46948 8.59884C1.91949 8.55884 1.52949 8.14884 1.45949 7.59884C1.26949 5.87886 1.22949 4.15888 1.45949 2.43889C1.53949 1.8889 1.91949 1.5289 2.46948 1.4389Z" fill="#38DFFF"/>
<path fill-rule="evenodd" clip-rule="evenodd" d="M2.50948 1.48891C4.21946 1.17891 5.90945 1.17891 7.58943 1.48891C8.11943 1.58891 8.47943 1.9389 8.57943 2.4789C8.90942 4.16888 8.89942 5.86887 8.57943 7.55885C8.47943 8.09885 8.12943 8.49884 7.58943 8.54884C5.90945 8.70884 4.21946 8.69884 2.50948 8.54884C1.95948 8.49884 1.57949 8.09885 1.51949 7.55885C1.32949 5.86887 1.28949 4.16888 1.51949 2.4789C1.58949 1.9389 1.96948 1.57891 2.50948 1.48891Z" fill="#2ADAFF"/>
<path fill-rule="evenodd" clip-rule="evenodd" d="M2.53947 1.5389C4.22945 1.2389 5.89944 1.2389 7.54942 1.5389C8.07942 1.6389 8.42941 1.9889 8.52941 2.51889C8.84941 4.17888 8.84941 5.84886 8.52941 7.51885C8.42941 8.04884 8.08942 8.44884 7.54942 8.49884C5.89944 8.64884 4.22945 8.64884 2.53947 8.49884C2.00947 8.44884 1.62947 8.05884 1.56948 7.51885C1.37948 5.84886 1.33948 4.17888 1.56948 2.51889C1.63947 1.9789 2.01947 1.6289 2.53947 1.5389Z" fill="#1CD5FF"/>
<path fill-rule="evenodd" clip-rule="evenodd" d="M2.57948 1.58888C4.24946 1.29888 5.88945 1.28888 7.51944 1.58888C8.03943 1.68888 8.37943 2.02887 8.47943 2.54887C8.78942 4.19886 8.78942 5.83884 8.47943 7.47883C8.37943 7.99882 8.03943 8.39882 7.51944 8.44882C5.88945 8.58882 4.24946 8.58882 2.57948 8.44882C2.05948 8.39882 1.67949 8.00882 1.61949 7.47883C1.43949 5.83884 1.39949 4.19886 1.61949 2.54887C1.68949 2.02887 2.05948 1.67888 2.57948 1.58888Z" fill="#0ED1FF"/>
<path fill-rule="evenodd" clip-rule="evenodd" d="M2.61947 1.63888C4.25945 1.34889 5.87944 1.34889 7.47942 1.63888C7.98942 1.73888 8.32942 2.07888 8.41941 2.58888C8.73941 4.20886 8.72941 5.82885 8.41941 7.44883C8.32942 7.95883 7.99942 8.33883 7.47942 8.38882C5.87944 8.53882 4.25945 8.53882 2.61947 8.38882C2.09947 8.34883 1.72947 7.95883 1.66947 7.44883C1.48948 5.82885 1.45948 4.20886 1.66947 2.58888C1.73947 2.06888 2.10947 1.72888 2.61947 1.63888Z" fill="#00CCFF"/>
<path fill-rule="evenodd" clip-rule="evenodd" d="M2.19948 1.07895C4.11947 0.738955 6.00945 0.728955 7.87943 1.07895C8.47943 1.18895 8.87942 1.58895 8.98942 2.17894C9.15942 3.03893 9.24942 3.89893 9.25942 4.75892C5.70945 3.29893 3.30947 7.1789 0.919495 4.73892C0.919495 3.88893 0.979494 3.03893 1.08949 2.17894C1.16949 1.57895 1.59949 1.17895 2.19948 1.07895Z" fill="white" fill-opacity="0.290196"/>
<path fill-rule="evenodd" clip-rule="evenodd" d="M2.13946 1.33893C2.54946 1.33893 2.88945 1.66893 2.88945 2.08892C2.88945 2.49892 2.54946 2.83891 2.13946 2.83891C1.71946 2.83891 1.38947 2.49892 1.38947 2.08892C1.38947 1.66893 1.71946 1.33893 2.13946 1.33893Z" fill="white"/>
<path fill-rule="evenodd" clip-rule="evenodd" d="M3.27948 1.01892C3.48948 1.01892 3.65948 1.17892 3.65948 1.38892C3.65948 1.59892 3.48948 1.75891 3.27948 1.75891C3.07948 1.75891 2.90948 1.59892 2.90948 1.38892C2.90948 1.17892 3.07948 1.01892 3.27948 1.01892Z" fill="white"/>
<path fill-rule="evenodd" clip-rule="evenodd" d="M8.05943 7.89886C8.30943 7.89886 8.50943 8.09886 8.50943 8.34886C8.50943 8.59886 8.30943 8.79886 8.05943 8.79886C7.80943 8.79886 7.60944 8.59886 7.60944 8.34886C7.60944 8.09886 7.80943 7.89886 8.05943 7.89886Z" fill="white"/>
<path fill-rule="evenodd" clip-rule="evenodd" d="M5.52944 7.02884C5.33944 7.14884 5.17944 7.17884 5.16944 6.71884V3.08887C5.16944 2.79888 5.26944 2.73888 5.44944 2.83888L7.72942 4.76886C7.83942 4.90886 7.81942 5.04886 7.71942 5.17886L5.52944 7.02884ZM4.30945 7.02884C4.49945 7.14884 4.65945 7.17884 4.65945 6.71884V3.08887C4.66945 2.79888 4.56945 2.73888 4.38945 2.83888L2.10947 4.76886C1.99947 4.90886 2.00947 5.04886 2.11947 5.17886L4.30945 7.02884Z" stroke="#00B0DC" stroke-width="0.542495"/>
<path fill-rule="evenodd" clip-rule="evenodd" d="M5.52944 7.02884C5.33944 7.14884 5.17944 7.17884 5.16944 6.71884V3.08887C5.16944 2.79888 5.26944 2.73888 5.44944 2.83888L7.72942 4.76886C7.83942 4.90886 7.81942 5.04886 7.71942 5.17886L5.52944 7.02884ZM4.30945 7.02884C4.49945 7.14884 4.65945 7.17884 4.65945 6.71884V3.08887C4.66945 2.79888 4.56945 2.73888 4.38945 2.83888L2.10947 4.76886C1.99947 4.90886 2.00947 5.04886 2.11947 5.17886L4.30945 7.02884Z" fill="white"/>
<path fill-rule="evenodd" clip-rule="evenodd" d="M4.30945 6.37885L2.25947 4.64886L2.10947 4.76886C1.99947 4.90886 2.00947 5.04886 2.11947 5.17886L4.30945 7.02884C4.49945 7.14884 4.65945 7.17884 4.65945 6.71885V6.06885C4.65945 6.52885 4.49945 6.49885 4.30945 6.37885Z" fill="black" fill-opacity="0.101961"/>
<path fill-rule="evenodd" clip-rule="evenodd" d="M7.57941 4.64886L5.52943 6.37885C5.33943 6.49885 5.17943 6.52885 5.16943 6.06885V6.71885C5.17943 7.17884 5.33943 7.14884 5.52943 7.02884L7.71941 5.17886C7.81941 5.04886 7.83941 4.90886 7.72941 4.76886L7.57941 4.64886Z" fill="black" fill-opacity="0.101961"/>
</svg>
