<svg width="50" height="50" viewBox="0 0 50 50" fill="none" xmlns="http://www.w3.org/2000/svg">
<path fill-rule="evenodd" clip-rule="evenodd" d="M8.60693 4.99936C19.8429 3.09006 30.9214 3.09006 41.8949 4.99936C45.4127 5.65254 47.7229 7.86331 48.4054 11.2297C50.5581 21.8314 50.5056 32.433 48.4054 43.0849C47.7229 46.4513 45.4652 48.9635 41.8949 49.265C30.9214 50.2699 19.8429 50.2196 8.60693 49.265C5.08913 48.9635 2.5689 46.4513 2.14887 43.0849C0.888757 32.433 0.626234 21.8314 2.14887 11.2297C2.62141 7.86331 5.14163 5.6023 8.60693 4.99936Z" fill="black" fill-opacity="0.101961"/>
<path fill-rule="evenodd" clip-rule="evenodd" d="M7.55642 2.58725C18.7399 0.677948 29.8709 0.677948 40.8444 2.58725C44.3097 3.24043 46.6199 5.4512 47.3025 8.81761C49.4551 19.4193 49.4026 30.0209 47.3025 40.6728C46.6199 43.989 44.3622 46.5515 40.8444 46.8529C29.8709 47.8076 18.7399 47.8076 7.55642 46.8529C3.9861 46.5515 1.46588 44.0392 1.04584 40.6728C-0.21427 30.0209 -0.476793 19.4193 1.04584 8.81761C1.51838 5.40096 4.03861 3.19019 7.55642 2.58725Z" fill="#E6E6E6"/>
<path fill-rule="evenodd" clip-rule="evenodd" d="M7.55642 1.43198C18.7399 -0.477325 29.8709 -0.477325 40.8444 1.43198C44.3097 2.03491 46.6199 4.29593 47.3025 7.66233C49.4551 18.264 49.4026 28.8656 47.3025 39.5175C46.6199 42.8337 44.3622 45.3961 40.8444 45.6976C29.8709 46.6523 18.7399 46.6523 7.55642 45.6976C3.9861 45.3961 1.46588 42.8839 1.04584 39.5175C-0.21427 28.8656 -0.476793 18.264 1.04584 7.66233C1.51838 4.24568 4.03861 2.03491 7.55642 1.43198Z" fill="white"/>
<path fill-rule="evenodd" clip-rule="evenodd" d="M10.0246 4.54722C20.0529 2.8389 30.0288 2.78865 39.8472 4.54722C42.9975 5.09991 45.0976 7.10971 45.6752 10.0741C47.6179 19.6207 47.5654 29.1169 45.6752 38.6634C45.0976 41.6781 43.05 43.9391 39.8472 44.2406C30.0288 45.0948 20.0529 45.0948 10.0246 44.2406C6.82178 43.9391 4.56408 41.6781 4.19655 38.6634C3.09396 29.1169 2.83143 19.6207 4.19655 10.0741C4.61659 7.05946 6.87429 5.04967 10.0246 4.54722Z" fill="#E6E6E6"/>
<path fill-rule="evenodd" clip-rule="evenodd" d="M9.28873 3.69335C19.3171 1.98503 29.293 1.98503 39.1114 3.69335C42.2617 4.24604 44.3619 6.25583 44.9394 9.27052C46.8821 18.7668 46.8296 28.3133 44.9394 37.8096C44.3619 40.8242 42.3142 43.0853 39.1114 43.3867C29.293 44.2409 19.3171 44.2409 9.28873 43.3867C6.08595 43.1355 3.82825 40.8745 3.46071 37.8096C2.35812 28.3133 2.09559 18.7668 3.46071 9.27052C3.88075 6.20559 6.13845 4.24604 9.28873 3.69335Z" fill="#7F7F7F"/>
<path fill-rule="evenodd" clip-rule="evenodd" d="M9.28873 1.73317C19.3171 0.075096 29.293 0.0248513 39.1114 1.73317C42.2617 2.33611 44.3619 4.29566 44.9394 7.31034C46.8821 16.8568 46.8296 26.3531 44.9394 35.8996C44.3619 38.9143 42.3142 41.1753 39.1114 41.4265C29.293 42.3309 19.3171 42.2807 9.28873 41.4265C6.08595 41.1753 3.82825 38.9143 3.46071 35.8996C2.35812 26.3531 2.09559 16.8568 3.46071 7.31034C3.88075 4.29566 6.13845 2.28587 9.28873 1.73317Z" fill="#B2B2B2"/>
<path fill-rule="evenodd" clip-rule="evenodd" d="M9.49885 2.03466C19.4222 0.326338 29.2406 0.326338 38.954 2.03466C42.0518 2.53711 44.0994 4.54689 44.677 7.51133C46.5672 16.9071 46.5672 26.3029 44.677 35.6986C44.0994 38.663 42.1043 40.9241 38.954 41.1753C29.2406 42.0294 19.4222 42.0294 9.49885 41.1753C6.34856 40.9241 4.09086 38.7133 3.72333 35.6986C2.62073 26.3029 2.41071 16.9071 3.72333 7.51133C4.14337 4.49665 6.40107 2.53711 9.49885 2.03466Z" fill="#B0B0B0"/>
<path fill-rule="evenodd" clip-rule="evenodd" d="M9.70878 2.2864C19.4747 0.628319 29.188 0.578074 38.7439 2.2864C41.7892 2.78884 43.8368 4.74839 44.4144 7.71283C46.2521 16.9579 46.2521 26.2532 44.4144 35.4982C43.8368 38.4124 41.8417 40.6232 38.7439 40.9246C29.188 41.7788 19.4747 41.7285 9.70878 40.9246C6.5585 40.6734 4.3533 38.4626 4.03827 35.4982C2.93567 26.2532 2.72565 16.9579 4.03827 7.71283C4.45831 4.74839 6.611 2.78884 9.70878 2.2864Z" fill="#ADADAD"/>
<path fill-rule="evenodd" clip-rule="evenodd" d="M9.86634 2.53653C19.5272 0.878449 29.0831 0.878449 38.5339 2.53653C41.5792 3.03898 43.5744 4.99852 44.1519 7.86248C45.9896 17.007 45.9371 26.1516 44.1519 35.2962C43.5744 38.2103 41.6317 40.3709 38.5339 40.6723C29.0831 41.4763 19.5272 41.4763 9.86634 40.6723C6.82107 40.3709 4.66838 38.2103 4.30084 35.2962C3.25075 26.1516 2.98823 17.007 4.30084 7.86248C4.72088 4.94828 6.87357 3.03898 9.86634 2.53653Z" fill="#ABABAB"/>
<path fill-rule="evenodd" clip-rule="evenodd" d="M10.0764 2.78827C19.6323 1.18043 29.0306 1.13019 38.3764 2.78827C41.3167 3.29071 43.3119 5.20002 43.8369 8.06397C45.6746 17.0578 45.6746 26.1019 43.8369 35.0957C43.3119 37.9596 41.3692 40.1201 38.3764 40.3714C29.0306 41.2255 19.6323 41.1753 10.0764 40.3714C7.08365 40.1201 4.93095 38.0099 4.56342 35.0957C3.51333 26.1019 3.30331 17.0578 4.56342 8.06397C4.98346 5.20002 7.08365 3.29071 10.0764 2.78827Z" fill="#A9A9A9"/>
<path fill-rule="evenodd" clip-rule="evenodd" d="M10.2863 3.03937C19.6847 1.43154 28.978 1.43154 38.1663 3.03937C41.1066 3.54182 42.9968 5.45112 43.5743 8.26483C45.3595 17.1582 45.3595 26.0515 43.5743 34.8946C43.0493 37.7083 41.1591 39.8688 38.1663 40.12C28.978 40.9239 19.6847 40.9239 10.2863 40.12C7.29358 39.8688 5.19339 37.7585 4.87836 34.8946C3.82827 26.0515 3.61825 17.1582 4.87836 8.26483C5.2459 5.40088 7.34608 3.54182 10.2863 3.03937Z" fill="#A7A7A7"/>
<path fill-rule="evenodd" clip-rule="evenodd" d="M10.4965 3.29075C19.7374 1.73316 28.9257 1.73316 37.9565 3.29075C40.8442 3.7932 42.7344 5.65225 43.312 8.41571C45.0971 17.2085 45.0446 25.9511 43.312 34.7439C42.7869 37.5074 40.8967 39.5674 37.9565 39.8689C28.9257 40.6226 19.7374 40.6226 10.4965 39.8689C7.55627 39.6177 5.45609 37.5074 5.14106 34.7439C4.09097 25.9511 3.88095 17.2085 5.14106 8.41571C5.50859 5.65225 7.60878 3.7932 10.4965 3.29075Z" fill="#A4A4A4"/>
<path fill-rule="evenodd" clip-rule="evenodd" d="M10.7065 3.54201C19.8423 2.03466 28.8206 1.98442 37.7464 3.54201C40.6341 4.04445 42.4718 5.90351 43.0494 8.61673C44.782 17.2588 44.782 25.9009 43.0494 34.543C42.5243 37.2563 40.6867 39.3163 37.7464 39.5675C28.8206 40.3714 19.8423 40.3714 10.7065 39.5675C7.81874 39.3163 5.71855 37.3065 5.40352 34.543C4.40593 25.9009 4.19592 17.2588 5.40352 8.61673C5.82356 5.85327 7.81874 4.04445 10.7065 3.54201Z" fill="#A2A2A2"/>
<path fill-rule="evenodd" clip-rule="evenodd" d="M10.8642 3.84348C19.895 2.2859 28.7683 2.2859 37.5891 3.84348C40.3719 4.29569 42.2095 6.1045 42.7871 8.81772C44.5198 17.3091 44.4673 25.8507 42.7871 34.3421C42.2621 37.005 40.4244 39.0651 37.5891 39.3163C28.7683 40.07 19.895 40.07 10.8642 39.3163C8.02896 39.0651 6.03378 37.0553 5.66625 34.3421C4.66866 25.8005 4.51114 17.3091 5.66625 8.81772C6.08629 6.1045 8.08147 4.29569 10.8642 3.84348Z" fill="#A0A0A0"/>
<path fill-rule="evenodd" clip-rule="evenodd" d="M11.0741 4.09523C19.9474 2.58788 28.7157 2.53764 37.3789 4.09523C40.1617 4.54743 41.9468 6.35624 42.5244 8.96897C44.2045 17.3598 44.152 25.7507 42.5244 34.1416C41.9994 36.8046 40.1617 38.8144 37.3789 39.0656C28.7157 39.8193 19.9474 39.8193 11.0741 39.0656C8.29136 38.8144 6.29619 36.8046 5.98116 34.1416C4.98357 25.7507 4.77355 17.3598 5.98116 8.96897C6.34869 6.306 8.29136 4.54743 11.0741 4.09523Z" fill="#9E9E9E"/>
<path fill-rule="evenodd" clip-rule="evenodd" d="M11.2841 4.34584C19.9999 2.8385 28.6631 2.8385 37.1689 4.34584C39.8991 4.79804 41.6843 6.55661 42.2093 9.16934C43.8895 17.4095 43.8895 25.6999 42.2093 33.94C41.7368 36.5527 39.9516 38.5123 37.1689 38.7635C28.6631 39.5172 19.9999 39.5172 11.2841 38.7635C8.55384 38.5625 6.55866 36.603 6.24363 33.94C5.29855 25.6999 5.08853 17.4095 6.24363 9.16934C6.61116 6.55661 8.55384 4.79804 11.2841 4.34584Z" fill="#9B9B9B"/>
<path fill-rule="evenodd" clip-rule="evenodd" d="M11.4943 4.59771C20.105 3.14061 28.6108 3.14061 37.0115 4.59771C39.6892 5.04991 41.4219 6.80848 41.9469 9.37097C43.6271 17.5106 43.5746 25.6001 41.9469 33.7397C41.4744 36.3525 39.6892 38.2618 37.0115 38.513C28.6108 39.2667 20.105 39.2667 11.4943 38.513C8.76402 38.2618 6.82135 36.3525 6.50632 33.7397C5.56124 25.6001 5.35122 17.5106 6.50632 9.37097C6.87386 6.75824 8.81653 5.04991 11.4943 4.59771Z" fill="#999999"/>
<path fill-rule="evenodd" clip-rule="evenodd" d="M9.28944 1.73317C19.3178 0.0750965 29.2937 0.0248518 39.1121 1.73317C42.2624 2.33611 44.3625 4.29565 44.9401 7.31033C45.8327 11.6314 46.3052 15.9524 46.3577 20.2735C27.7186 12.9377 15.1175 32.4327 2.56885 20.173C2.56885 15.9022 2.88388 11.5811 3.46143 7.31033C3.88146 4.29565 6.13916 2.28586 9.28944 1.73317Z" fill="white" fill-opacity="0.290196"/>
<path fill-rule="evenodd" clip-rule="evenodd" d="M8.97397 3.04004C11.1267 3.04004 12.9118 4.74835 12.9118 6.80837C12.9118 8.91864 11.1267 10.5767 8.97397 10.5767C6.76878 10.5767 5.03613 8.91864 5.03613 6.80837C5.03613 4.74835 6.76878 3.04004 8.97397 3.04004Z" fill="white"/>
<path fill-rule="evenodd" clip-rule="evenodd" d="M14.9598 1.48193C16.0624 1.48193 16.9549 2.28585 16.9549 3.34098C16.9549 4.34587 16.0624 5.20003 14.9598 5.20003C13.9097 5.20003 13.0171 4.34587 13.0171 3.34098C13.0171 2.28585 13.9097 1.48193 14.9598 1.48193Z" fill="white"/>
<path fill-rule="evenodd" clip-rule="evenodd" d="M40.0566 36.0508C41.3167 36.0508 42.3668 37.0557 42.3668 38.3118C42.3668 39.5679 41.3167 40.5728 40.0566 40.5728C38.744 40.5728 37.6938 39.5679 37.6938 38.3118C37.6938 37.0557 38.744 36.0508 40.0566 36.0508Z" fill="white"/>
<path fill-rule="evenodd" clip-rule="evenodd" d="M20.2633 24.7958C21.996 24.7958 23.5711 25.1475 24.9362 25.7002C23.6236 20.5249 21.9434 13.7419 20.5783 8.5667C19.8958 6.05446 25.8288 7.36082 28.034 8.71743C30.2392 10.074 31.6568 13.6414 36.7498 12.938C33.967 16.1537 29.8192 13.9429 26.7739 13.4404C25.1462 13.139 24.0961 14.3448 24.3587 15.2995L27.3514 27.2577C28.139 28.0617 28.559 28.9661 28.559 29.971C28.559 32.8349 24.8312 35.1462 20.2633 35.1462C15.6429 35.1462 11.915 32.8349 11.915 29.971C11.915 27.107 15.6429 24.7958 20.2633 24.7958Z" stroke="#7F7F7F" stroke-width="0.507295"/>
<path fill-rule="evenodd" clip-rule="evenodd" d="M20.2633 24.7958C21.996 24.7958 23.5711 25.1475 24.9362 25.7002C23.6236 20.5249 21.9434 13.7419 20.5783 8.5667C19.8958 6.05446 25.8288 7.36082 28.034 8.71743C30.2392 10.074 31.6568 13.6414 36.7498 12.938C33.967 16.1537 29.8192 13.9429 26.7739 13.4404C25.1462 13.139 24.0961 14.3448 24.3587 15.2995L27.3514 27.2577C28.139 28.0617 28.559 28.9661 28.559 29.971C28.559 32.8349 24.8312 35.1462 20.2633 35.1462C15.6429 35.1462 11.915 32.8349 11.915 29.971C11.915 27.107 15.6429 24.7958 20.2633 24.7958Z" fill="white"/>
<path fill-rule="evenodd" clip-rule="evenodd" d="M28.139 28.3125C27.8765 31.0257 24.2537 33.1863 19.8433 33.1863C16.1679 33.1863 13.0701 31.7292 11.9675 29.6691C11.915 29.7696 11.915 29.8701 11.915 29.9706C11.915 31.3774 12.8076 32.6336 14.2778 33.5882C15.4329 34.3419 17.008 34.8946 18.7932 35.0956C19.2657 35.1458 19.7382 35.1458 20.2633 35.1458C24.8312 35.1458 28.5591 32.8345 28.5591 29.9706C28.5591 29.4179 28.4015 28.8652 28.139 28.3125Z" fill="black" fill-opacity="0.101961"/>
<path fill-rule="evenodd" clip-rule="evenodd" d="M29.9767 14.1945C32.3394 14.7974 34.8597 15.0989 36.7498 12.9384C36.0148 13.0389 35.3847 13.0389 34.8072 12.9886C34.2296 12.9384 33.7046 12.8379 33.1795 12.6369C30.9218 12.9384 28.4016 11.833 26.3539 11.4813C25.3563 11.2803 24.5687 11.6823 24.2012 12.2349C23.9387 12.5364 23.8337 12.9886 23.9387 13.3403L24.3062 14.8477C24.4112 14.094 25.1463 13.3906 26.3014 13.3906C26.4589 13.3906 26.6164 13.3906 26.7739 13.4408C27.7715 13.5915 28.8741 13.9433 29.9767 14.1945Z" fill="black" fill-opacity="0.101961"/>
<line y1="-1" x2="36.0471" y2="-1" transform="matrix(0.61065 -0.7919 0.900006 0.435877 13 35.5459)" stroke="#BD2E2E" stroke-width="2"/>
</svg>
