<svg width="84" height="39" viewBox="0 0 84 39" fill="none" xmlns="http://www.w3.org/2000/svg">
<path fill-rule="evenodd" clip-rule="evenodd" d="M4.08019 36.9663L4.00719 35.9811H80.0445L80.008 36.9663L82.9634 37.1488L82.854 38.1341H2.62074V35.9811H4.00719L3.82476 32.8063L4.04366 28.9381L4.77339 25.3254L5.94097 21.9681L7.47338 18.9028L9.40717 16.0564L11.6693 13.502L14.2233 11.203L17.0328 9.15949L20.0976 7.37137L23.3814 5.83871L26.8111 4.598L30.3868 3.5762L34.0719 2.84637L37.83 2.37198L41.6245 2.18952L45.4191 2.2625L49.1772 2.62742L52.8987 3.24779L56.4744 4.12358L59.9406 5.29133L63.2609 6.75101L66.3622 8.46613L69.2446 10.4732L71.8351 12.7357L74.1702 15.3266L76.1405 18.173L77.7824 21.3478L79.0229 24.778L79.8256 28.5367L80.1905 32.5873L80.0445 35.9811H81.4675L82.9634 37.1488L83.1094 32.5873L82.7445 28.3177L81.9053 24.3401L80.5918 20.6544L78.8405 17.2972L76.6878 14.2319L74.2067 11.4585L71.3608 8.97703L68.2594 6.78751L64.9027 4.92641L61.3271 3.35726L57.569 2.11653L53.7015 1.13126L49.688 0.474391L45.638 0.109471L41.5515 0L37.5016 0.218965L33.4516 0.729839L29.5111 1.49618L25.6435 2.59094L21.9219 3.94112L18.4193 5.58326L15.099 7.51735L12.0342 9.74335L9.29769 12.2248L6.85313 14.9982L4.77339 18.027L3.13151 21.3113L1.89101 24.8875L1.12476 28.7192L0.869378 32.8063L1.16129 37.1488L2.62074 38.1341V35.9811L4.08019 36.9663ZM1.16129 37.1488L2.62074 38.1341H1.27072L1.16129 37.1488Z" fill="#2D2D17"/>
<path d="M2.6206 37.0393H81.4674C86.1376 -12.1883 -3.25369 -9.56087 2.6206 37.0393Z" fill="#808048"/>
<path d="M74.7906 14.0129C68.8433 21.1288 51.8408 28.0988 31.8098 31.0546C20.572 32.6968 10.2829 32.8063 2.36538 31.602C2.2924 33.3536 2.37756 35.1661 2.62081 37.0393H81.4676C82.3797 27.4054 79.6797 19.7421 74.7906 14.0129Z" fill="#666633"/>
<path d="M23.8922 9.19596C23.8922 12.2248 30.4597 14.2318 38.5232 13.721C46.6231 13.2101 53.1907 10.3272 53.1907 7.33489C53.1907 4.30607 46.6231 2.26252 38.5232 2.77341C30.4597 3.32079 23.8922 6.16714 23.8922 9.19596Z" fill="#949459"/>
<path d="M9.91817 19.8516C11.3776 21.0193 14.9168 20.0705 17.8357 17.6986C20.7181 15.3631 21.8856 12.5167 20.4262 11.3125C18.9667 10.1447 15.4276 11.0935 12.5452 13.4655C9.62626 15.801 8.45872 18.6839 9.91817 19.8516Z" fill="#949459"/>
<path d="M32.6125 27.369C32.8314 30.0329 35.1665 31.9669 37.7935 31.748C40.4205 31.529 42.3908 29.23 42.1719 26.5661C41.9529 23.9387 39.6178 21.9681 36.9908 22.1871C34.3638 22.4425 32.3936 24.7415 32.6125 27.369Z" stroke="#2D2D17" stroke-width="4"/>
<path d="M32.6125 27.369C32.8314 30.0329 35.1665 31.9669 37.7935 31.748C40.4205 31.529 42.3908 29.23 42.1719 26.5661C41.9529 23.9387 39.6178 21.9681 36.9908 22.1871C34.3638 22.4425 32.3936 24.7415 32.6125 27.369Z" fill="#00CCFF"/>
<path d="M35.0204 27.1865C35.1299 28.5002 36.2609 29.4855 37.6109 29.376C38.9244 29.2665 39.8731 28.0988 39.7636 26.7851C39.6542 25.4714 38.5231 24.4861 37.1731 24.5956C35.8596 24.7051 34.8745 25.8728 35.0204 27.1865Z" fill="#00B0DC"/>
<path d="M33.2693 25.6904C33.3788 26.8581 34.4004 27.7339 35.568 27.6244C36.7355 27.515 37.6112 26.4932 37.5382 25.3254C37.4288 24.1577 36.4071 23.2819 35.2031 23.3913C34.0355 23.4643 33.1599 24.5226 33.2693 25.6904Z" fill="white"/>
<path d="M38.2678 29.1571C38.3043 29.595 38.6692 29.9234 39.1071 29.8869C39.5449 29.8504 39.8733 29.4855 39.8368 29.0476C39.8003 28.6097 39.4354 28.2813 38.9976 28.3178C38.5597 28.3543 38.2313 28.7192 38.2678 29.1571Z" fill="white"/>
<path d="M5.28442 27.369C5.50333 30.0329 7.802 31.9669 10.4655 31.748C13.0925 31.529 15.0262 29.23 14.8073 26.5661C14.5884 23.9387 12.2898 21.9681 9.62629 22.1871C6.99928 22.4425 5.02901 24.7415 5.28442 27.369Z" stroke="#2D2D17" stroke-width="4"/>
<path d="M5.28442 27.369C5.50333 30.0329 7.802 31.9669 10.4655 31.748C13.0925 31.529 15.0262 29.23 14.8073 26.5661C14.5884 23.9387 12.2898 21.9681 9.62629 22.1871C6.99928 22.4425 5.02901 24.7415 5.28442 27.369Z" fill="#00CCFF"/>
<path d="M7.65591 27.1865C7.76537 28.5002 8.93291 29.4855 10.2464 29.376C11.5599 29.2665 12.545 28.0988 12.4355 26.7851C12.3261 25.4714 11.1585 24.4861 9.84506 24.5956C8.53157 24.7051 7.54646 25.8728 7.65591 27.1865Z" fill="#00B0DC"/>
<path d="M5.94122 25.6904C6.01419 26.8581 7.07226 27.7339 8.23983 27.6244C9.40739 27.515 10.2831 26.4932 10.1736 25.3254C10.0642 24.1577 9.04252 23.2819 7.87496 23.3913C6.7074 23.4643 5.83176 24.5226 5.94122 25.6904Z" fill="white"/>
<path d="M10.9031 29.1571C10.9396 29.595 11.3409 29.9234 11.7788 29.8869C12.2166 29.8504 12.5449 29.4855 12.5085 29.0476C12.472 28.6097 12.0706 28.2813 11.6328 28.3178C11.195 28.3543 10.8666 28.7192 10.9031 29.1571Z" fill="white"/>
<path d="M43.0109 33.3536C41.4055 33.3536 40.092 33.755 40.092 34.2659C40.092 34.7768 41.4055 35.1782 43.0109 35.1782C44.6528 35.1782 45.9663 34.7768 45.9663 34.2659C45.9663 33.755 44.6528 33.3536 43.0109 33.3536Z" fill="#949459"/>
<path d="M6.12351 33.3536C4.51813 33.3536 3.20464 33.755 3.20464 34.2659C3.20464 34.7768 4.51813 35.1782 6.12351 35.1782C7.76537 35.1782 9.07886 34.7768 9.07886 34.2659C9.07886 33.755 7.76537 33.3536 6.12351 33.3536Z" fill="#949459"/>
</svg>
