<svg width="83" height="39" viewBox="0 0 83 39" fill="none" xmlns="http://www.w3.org/2000/svg">
<path fill-rule="evenodd" clip-rule="evenodd" d="M3.41587 36.9663L3.34292 35.9811H79.3802L79.3437 36.9663L82.2626 37.1488L82.1532 38.1341H1.95642V35.9811H3.34292L3.12397 32.8063L3.37944 28.9381L4.10916 25.3254L5.24018 21.9681L6.80911 18.9028L8.70638 16.0564L10.9685 13.502L13.5225 11.203L16.3685 9.15949L19.4333 7.37137L22.6806 5.83871L26.1468 4.598L29.7225 3.5762L33.4076 2.84637L37.1656 2.37198L40.9602 2.18952L44.7548 2.2625L48.5129 2.62742L52.198 3.24779L55.8101 4.12358L59.2763 5.29133L62.5601 6.75101L65.6614 8.46613L68.5438 10.4732L71.1708 12.7357L73.4694 15.3266L75.4762 18.173L77.118 21.3478L78.3586 24.778L79.1613 28.5367L79.4896 32.5873L79.3802 35.9811H80.8032L82.2626 37.1488L82.4451 32.5873L82.0802 28.3177L81.2045 24.3401L79.891 20.6544L78.1762 17.2972L76.0235 14.2319L73.5059 11.4585L70.6965 8.97703L67.5587 6.78751L64.202 4.92641L60.6263 3.35726L56.9047 2.11653L53.0007 1.13126L49.0237 0.474391L44.9737 0.109471L40.8873 0L36.8008 0.218965L32.7873 0.729839L28.8103 1.49618L24.9427 2.59094L21.2576 3.94112L17.7185 5.58326L14.3983 7.51735L11.3699 9.74335L8.5969 12.2248L6.15234 14.9982L4.10916 18.027L2.43076 21.3113L1.19027 24.8875L0.460542 28.7192L0.205068 32.8063L0.460542 37.1488L1.95642 38.1341V35.9811L3.41587 36.9663ZM0.460542 37.1488L1.91999 38.1341H0.606452L0.460542 37.1488Z" fill="#2D2D17"/>
<path d="M1.95657 37.0393H80.8033C85.437 -12.1883 -3.9177 -9.56087 1.95657 37.0393Z" fill="#808048"/>
<path d="M74.126 14.0129C68.1788 21.1288 51.1763 28.0988 31.1454 31.0546C19.9076 32.6968 9.58208 32.8063 1.70107 31.602C1.6281 33.3536 1.71321 35.1661 1.95646 37.0393H80.803C81.7152 27.4054 79.0152 19.7421 74.126 14.0129V14.0129Z" fill="#666633"/>
<path d="M23.1915 9.19596C23.1915 12.2248 29.759 14.2318 37.8589 13.721C45.9588 13.2101 52.5264 10.3272 52.5264 7.33489C52.5264 4.30607 45.9588 2.26252 37.8589 2.77341C29.759 3.32079 23.1915 6.16714 23.1915 9.19596Z" fill="#949459"/>
<path d="M9.25383 19.8516C10.7133 21.0193 14.2525 20.0705 17.1348 17.6986C20.0537 15.3631 21.2213 12.5167 19.7618 11.3125C18.3024 10.1447 14.7633 11.0935 11.8444 13.4655C8.96198 15.801 7.79439 18.6839 9.25383 19.8516Z" fill="#949459"/>
<path d="M31.9481 27.369C32.167 30.0329 34.4656 31.9669 37.0926 31.748C39.7561 31.529 41.6898 29.23 41.4709 26.5661C41.252 23.9387 38.9534 21.9681 36.2899 22.1871C33.663 22.4425 31.6927 24.7415 31.9481 27.369V27.369Z" stroke="#2D2D17" stroke-width="4"/>
<path d="M31.9481 27.369C32.167 30.0329 34.4656 31.9669 37.0926 31.748C39.7561 31.529 41.6898 29.23 41.4709 26.5661C41.252 23.9387 38.9534 21.9681 36.2899 22.1871C33.663 22.4425 31.6927 24.7415 31.9481 27.369V27.369Z" fill="#00CCFF"/>
<path d="M34.3195 27.1865C34.429 28.5002 35.5965 29.4855 36.91 29.376C38.2235 29.2665 39.2086 28.0988 39.0991 26.7851C38.9897 25.4714 37.8221 24.4861 36.5087 24.5956C35.1952 24.7051 34.2101 25.8728 34.3195 27.1865Z" fill="#00B0DC"/>
<path d="M32.6047 25.6904C32.6777 26.8581 33.7358 27.7339 34.9034 27.6244C36.071 27.515 36.9467 26.4932 36.8372 25.3254C36.7277 24.1577 35.7061 23.2819 34.5385 23.3913C33.371 23.4643 32.4953 24.5226 32.6047 25.6904Z" fill="white"/>
<path d="M37.5669 29.1571C37.6034 29.595 38.0047 29.9234 38.4425 29.8869C38.8804 29.8504 39.2088 29.4855 39.1723 29.0476C39.1358 28.6097 38.7345 28.2813 38.2966 28.3178C37.8588 28.3543 37.5304 28.7192 37.5669 29.1571Z" fill="white"/>
<path d="M4.58369 27.369C4.8026 30.0329 7.13777 31.9669 9.76475 31.748C12.3917 31.529 14.362 29.23 14.1431 26.5661C13.9241 23.9387 11.589 21.9681 8.96199 22.1871C6.33501 22.4425 4.36477 24.7415 4.58369 27.369Z" stroke="#2D2D17" stroke-width="4"/>
<path d="M4.58369 27.369C4.8026 30.0329 7.13777 31.9669 9.76475 31.748C12.3917 31.529 14.362 29.23 14.1431 26.5661C13.9241 23.9387 11.589 21.9681 8.96199 22.1871C6.33501 22.4425 4.36477 24.7415 4.58369 27.369Z" fill="#00CCFF"/>
<path d="M6.95478 27.1865C7.10072 28.5002 8.23185 29.4855 9.54537 29.376C10.8954 29.2665 11.844 28.0988 11.7346 26.7851C11.6251 25.4714 10.494 24.4861 9.14398 24.5956C7.83046 24.7051 6.84532 25.8728 6.95478 27.1865Z" fill="#00B0DC"/>
<path d="M5.24017 25.6904C5.34963 26.8581 6.37123 27.7339 7.53876 27.6244C8.70629 27.515 9.58191 26.4932 9.50894 25.3254C9.39948 24.1577 8.37793 23.2819 7.17391 23.3913C6.00638 23.4643 5.13072 24.5226 5.24017 25.6904Z" fill="white"/>
<path d="M10.2388 29.1571C10.2753 29.595 10.6402 29.9234 11.078 29.8869C11.5159 29.8504 11.8443 29.4855 11.8078 29.0476C11.7713 28.6097 11.4064 28.2813 10.9686 28.3178C10.5307 28.3543 10.2023 28.7192 10.2388 29.1571Z" fill="white"/>
<path d="M42.3465 33.3536C40.7046 33.3536 39.391 33.755 39.391 34.2659C39.391 34.7768 40.7046 35.1782 42.3465 35.1782C43.9519 35.1782 45.2654 34.7768 45.2654 34.2659C45.2654 33.755 43.9519 33.3536 42.3465 33.3536Z" fill="#949459"/>
<path d="M5.45901 33.3536C3.8536 33.3536 2.54009 33.755 2.54009 34.2659C2.54009 34.7768 3.8536 35.1782 5.45901 35.1782C7.06442 35.1782 8.37793 34.7768 8.37793 34.2659C8.37793 33.755 7.06442 33.3536 5.45901 33.3536Z" fill="#949459"/>
</svg>
