<svg width="102" height="22" viewBox="0 0 102 22" fill="none" xmlns="http://www.w3.org/2000/svg">
<path fill-rule="evenodd" clip-rule="evenodd" d="M1.98182 21.1273L1.94533 21.0178H100.463V21.1273H101.558L101.521 21.2368H1.43449V21.0178H1.94533L1.61694 18.7553L1.94533 16.5293L2.85753 14.4128L4.35354 12.4787L6.39687 10.6906L8.87806 9.04844L11.8336 7.58876L15.154 6.23855L18.8758 5.03433L22.853 4.01256L27.0856 3.13674L31.5736 2.4069L36.2076 1.82304L40.951 1.42161L45.7675 1.12968L50.6569 1.02021L55.5463 1.0567L60.3992 1.27566L65.1791 1.64058L69.8131 2.15145L74.3011 2.80833L78.6067 3.64764L82.6569 4.63292L86.4151 5.80065L89.8085 7.15085L92.837 8.64704L95.4642 10.2892L97.5805 12.1138L99.186 14.1208L100.208 16.2738L100.682 18.6093L100.463 21.0178H101.01L101.558 21.1273L101.777 18.6093L101.302 16.2738L100.281 14.0843L98.6386 12.0773L96.4858 10.2527L93.8952 8.57405L90.8302 7.07787L87.3638 5.72768L83.5691 4.52343L79.4459 3.50166L75.0309 2.66235L70.4334 1.96899L65.6535 1.42161L60.7276 1.0567L55.6922 0.874236L50.6204 0.80127L45.5485 0.947224L40.5497 1.20267L35.6603 1.64058L30.9168 2.22444L26.3193 2.99079L22.0137 3.86658L17.9271 4.92485L14.2053 6.12908L10.8119 7.47929L7.85639 9.01196L5.33872 10.6541L3.29539 12.4422L1.76289 14.4128L0.850685 16.4928L0.522293 18.7553L0.887177 21.1273L1.43449 21.2368V21.0178L1.98182 21.1273ZM0.887177 21.1273L1.43449 21.2368H0.923668L0.887177 21.1273Z" fill="#2D2D17"/>
<path d="M1.4346 21.1272H101.01C106.885 -6.57015 -5.97247 -5.07398 1.4346 21.1272Z" fill="#808048"/>
<path d="M92.5817 8.17256C85.0652 12.1867 63.6102 16.0913 38.2875 17.77C24.0937 18.6823 11.1039 18.7552 1.10619 18.0619C1.0089 19.035 1.11835 20.0568 1.43459 21.1272H101.01C102.142 15.6899 98.7482 11.3839 92.5817 8.17256Z" fill="#666633"/>
<path d="M28.2532 5.47218C28.2532 7.1508 36.536 8.31854 46.7891 8.02661C57.0058 7.73467 65.2886 6.12902 65.2886 4.4139C65.2886 2.73528 57.0058 1.56754 46.7891 1.85947C36.536 2.15141 28.2532 3.75706 28.2532 5.47218Z" fill="#949459"/>
<path d="M10.6659 11.4568C12.4903 12.1137 16.9419 11.5663 20.6272 10.2526C24.276 8.9389 25.7355 7.33326 23.9111 6.67641C22.0502 6.01956 17.5987 6.53044 13.9499 7.88064C10.3011 9.19434 8.80505 10.8 10.6659 11.4568Z" fill="#949459"/>
<path d="M57.2248 17.4416C55.5828 17.4416 54.2692 17.843 54.2692 18.3539C54.2692 18.8282 55.5828 19.2297 57.2248 19.2297C58.8302 19.2297 60.1438 18.8282 60.1438 18.3539C60.1438 17.843 58.8302 17.4416 57.2248 17.4416Z" fill="#949459"/>
<path d="M8.73221 17.4416C7.12674 17.4416 5.81317 17.843 5.81317 18.3539C5.81317 18.8282 7.12674 19.2297 8.73221 19.2297C10.3742 19.2297 11.6877 18.8282 11.6877 18.3539C11.6877 17.843 10.3742 17.4416 8.73221 17.4416Z" fill="#949459"/>
<path d="M55.8382 12.7706L54.0138 11.4933L55.8382 10.2161C56.6044 9.66875 56.8234 8.61048 56.276 7.84414C55.7652 7.1143 54.7071 6.89534 53.9408 7.44272L51.0948 9.4133L48.2487 7.40623C47.4824 6.85885 46.4243 7.04131 45.9135 7.80764C45.3661 8.53748 45.5486 9.59576 46.3148 10.1431L48.1392 11.4204L46.2783 12.6976C45.5121 13.245 45.3297 14.3032 45.8405 15.0331C46.3878 15.7994 47.446 16.0183 48.1757 15.471L51.0583 13.5004L53.9043 15.5075C54.6341 16.0548 55.6922 15.8724 56.2396 15.106C56.7869 14.3762 56.6044 13.3179 55.8382 12.7706Z" fill="black"/>
<path d="M17.4526 12.7706L15.6282 11.4933L17.4891 10.2161C18.2189 9.66875 18.4378 8.61048 17.8905 7.84414C17.3797 7.1143 16.3215 6.89534 15.5553 7.44272L12.7092 9.4133L9.86315 7.40623C9.0969 6.85885 8.03876 7.04131 7.52792 7.80764C6.9806 8.53748 7.16304 9.59576 7.92928 10.1431L9.75368 11.4204L7.8928 12.6976C7.12656 13.245 6.94411 14.3032 7.45494 15.0331C8.00226 15.7994 9.06041 16.0183 9.79017 15.471L12.6727 13.5004L15.5188 15.5075C16.2485 16.0548 17.3067 15.8724 17.854 15.106C18.4013 14.3762 18.2189 13.3179 17.4526 12.7706Z" fill="black"/>
</svg>
