<svg width="119" height="15" viewBox="0 0 119 15" fill="none" xmlns="http://www.w3.org/2000/svg">
<path fill-rule="evenodd" clip-rule="evenodd" d="M1.88723 14.1272L1.85075 14.0177H117.335L117.299 14.1272H118.394L118.357 14.2367H1.33991V14.0177H1.85075L1.48587 12.5216L1.85075 11.0619L2.90891 9.67523L4.66033 8.39801L7.03206 7.19376L9.9511 6.09901L13.381 5.11374L17.2487 4.23793L21.5543 3.43511L26.2248 2.74177L31.1871 2.15789L36.4414 1.6835L41.8781 1.31858L47.4608 1.02665L53.1894 0.844192L58.9545 0.771204L64.7196 0.807687L70.4482 0.91718L76.0674 1.17261L81.5406 1.50104L86.8314 1.97543L91.8302 2.52281L96.5737 3.17966L100.952 3.946L104.929 4.8583L108.469 5.84358L111.497 6.93834L113.942 8.14256L115.839 9.45626L117.043 10.9159L117.554 12.4486L117.335 14.0177H117.846L118.394 14.1272L118.649 12.4486L118.138 10.8795L116.898 9.41978L115 8.06958L112.482 6.86535L109.381 5.73409L105.805 4.71232L101.718 3.80002L97.2669 3.0337L92.4505 2.34035L87.3057 1.79297L81.942 1.31858L76.3593 0.953663L70.6307 0.734721L64.7926 0.588744L58.918 0.552261L53.0435 0.625227L47.2419 0.807687L41.5497 1.09964L36.0035 1.50104L30.6763 1.97543L25.6045 2.5958L20.861 3.28915L16.446 4.09195L12.5053 5.00425L9.0024 6.02604L6.0104 7.1208L3.60217 8.32502L1.85075 9.63872L0.756111 11.0254L0.391228 12.5216L0.792587 14.1272L1.33991 14.2367V14.0177L1.88723 14.1272ZM0.792587 14.1637L1.33991 14.2367H0.829094L0.792587 14.1637Z" fill="#2D2D17"/>
<path d="M1.33999 14.1272H117.846C124.743 -4.33772 -7.30767 -3.31595 1.33999 14.1272Z" fill="#808048"/>
<path d="M107.994 5.47865C99.2008 8.14256 74.097 10.77 44.5052 11.8647C27.8667 12.4851 12.6512 12.5216 0.975006 12.0837C0.877701 12.7405 0.999329 13.4217 1.33988 14.1272H117.846C119.196 10.5145 115.219 7.63167 107.994 5.47865Z" fill="#666633"/>
<path d="M32.7561 3.69054C32.7561 4.82178 42.4619 5.58811 54.43 5.40565C66.398 5.1867 76.0674 4.12843 76.0674 2.99719C76.0674 1.86594 66.398 1.09964 54.43 1.28209C42.4619 1.50104 32.7561 2.55929 32.7561 3.69054Z" fill="#949459"/>
<path d="M12.1405 7.66817C14.2933 8.10608 19.511 7.77765 23.7801 6.86534C28.0857 5.98952 29.8007 4.93125 27.6479 4.49334C25.4951 4.05543 20.2773 4.42036 15.9717 5.29617C11.7026 6.17199 9.98767 7.23027 12.1405 7.66817Z" fill="#949459"/>
<path d="M65.5954 10.4416C63.9534 10.4416 62.6763 10.843 62.6763 11.3539C62.6763 11.8282 63.9534 12.2297 65.5954 12.2297C67.2008 12.2297 68.5144 11.8282 68.5144 11.3539C68.5144 10.843 67.2008 10.4416 65.5954 10.4416Z" fill="#949459"/>
<path d="M13.4904 10.4416C11.8849 10.4416 10.5714 10.843 10.5714 11.3539C10.5714 11.8282 11.8849 12.2297 13.4904 12.2297C15.0959 12.2297 16.4094 11.8282 16.4094 11.3539C16.4094 10.843 15.0959 10.4416 13.4904 10.4416Z" fill="#949459"/>
<path d="M64.2088 5.77057L62.3844 4.49335L64.2453 3.21613C65.0116 2.66875 65.194 1.61048 64.6832 0.844144C64.1358 0.114303 63.0777 -0.104662 62.3114 0.442718L59.4654 2.4133L56.6193 0.406235C55.8531 -0.141146 54.8314 0.0413057 54.2841 0.807638C53.7368 1.53748 53.9192 2.59576 54.6854 3.14314L56.5098 4.42036L54.649 5.69758C53.8827 6.24496 53.7003 7.30324 54.2476 8.03308C54.7584 8.79941 55.8166 9.01834 56.5828 8.47096L59.4289 6.50041L62.2749 8.50747C63.0412 9.05485 64.0629 8.87238 64.6102 8.10604C65.1575 7.3762 64.9751 6.31795 64.2088 5.77057Z" fill="black"/>
<path d="M22.2111 5.77057L20.3502 4.49335L22.2111 3.21613C22.9774 2.66875 23.1598 1.61048 22.649 0.844144C22.1382 0.114303 21.08 -0.104662 20.3137 0.442718L17.4312 2.4133L14.6216 0.406235C13.8554 -0.141146 12.7972 0.0413057 12.2499 0.807638C11.7391 1.53748 11.9215 2.59576 12.6513 3.14314L14.5122 4.42036L12.6513 5.69758C11.885 6.24496 11.7026 7.30324 12.2134 8.03308C12.7243 8.79941 13.7824 9.01834 14.5486 8.47096L17.4312 6.50041L20.2408 8.50747C21.007 9.05485 22.0652 8.87238 22.6125 8.10604C23.1233 7.3762 22.9409 6.31795 22.2111 5.77057Z" fill="black"/>
</svg>
