<svg width="79" height="42" viewBox="0 0 79 42" fill="none" xmlns="http://www.w3.org/2000/svg">
<path fill-rule="evenodd" clip-rule="evenodd" d="M3.31522 40.4331L3.24225 39.3748H75.7446L75.7082 40.4695L78.5178 40.652L78.4448 41.7468H1.92867V39.3748H3.24225L3.05981 35.9081L3.27875 31.675L3.97202 27.6974L5.06667 24.0482L6.5627 20.6544L8.38712 17.5526L10.5399 14.7427L12.9846 12.2248L15.6848 9.99878L18.6039 8.02823L21.7054 6.34958L24.9893 4.9994L28.4192 3.90464L31.9221 3.10181L35.498 2.59092L39.1103 2.37198L42.7591 2.44496L46.335 2.84637L49.8744 3.50322L53.3043 4.4885L56.5883 5.76572L59.7262 7.37138L62.7183 9.23246L65.4549 11.422L67.9361 13.9399L70.1619 16.7498L72.0593 19.8881L73.5918 23.3183L74.796 27.1135L75.5622 31.2371L75.8906 35.6891L75.7446 39.3748H77.1312L78.5178 40.652L78.7002 35.6526L78.3353 30.9816L77.5326 26.6391L76.292 22.625L74.6135 18.9028L72.5702 15.5456L70.1619 12.5167L67.4983 9.77984L64.5062 7.40786L61.2953 5.36432L57.9018 3.64919L54.326 2.2625L50.6041 1.20423L46.8094 0.474391L42.9416 0.0729883L39.0738 0L35.1696 0.218943L31.3383 0.766322L27.5435 1.64214L23.8582 2.80988L20.3188 4.30604L16.9619 6.09416L13.8239 8.21069L10.9048 10.6191L8.27763 13.356L5.9424 16.3849L3.97202 19.7056L2.40302 23.3183L1.23538 27.2595L0.505615 31.4561L0.250198 35.9081L0.505615 40.652L1.92867 41.7468V39.3748L3.31522 40.4331ZM0.505615 40.652L1.89217 41.7103H0.615082L0.505615 40.652Z" fill="#2D2D17"/>
<path d="M1.92863 40.5425H77.1312C81.5828 -13.3925 -3.6541 -10.5097 1.92863 40.5425Z" fill="#808048"/>
<path d="M70.7457 15.3266C65.09 23.0994 48.8892 30.7627 29.7693 33.974C19.0417 35.7986 9.22633 35.908 1.67323 34.5943C1.62458 36.5162 1.70972 38.499 1.92866 40.5425H77.1312C78.0069 29.9599 75.4163 21.5667 70.7457 15.3266Z" fill="#666633"/>
<path d="M22.1797 10.0353C22.1797 13.356 28.4557 15.582 36.1912 14.9982C43.8902 14.4143 50.1663 11.276 50.1663 7.99172C50.1663 4.67096 43.8902 2.44497 36.1912 3.02884C28.4557 3.57621 22.1797 6.71452 22.1797 10.0353Z" fill="#949459"/>
<path d="M8.89787 21.7127C10.2844 22.9899 13.6414 21.9317 16.4145 19.3772C19.1876 16.7863 20.2822 13.648 18.8957 12.3708C17.5091 11.0935 14.1522 12.1518 11.3791 14.7063C8.60596 17.2972 7.51132 20.4355 8.89787 21.7127Z" fill="#949459"/>
<path d="M31.9222 30.8722C32.1412 33.5361 34.4764 35.4701 37.1036 35.2512C39.7307 35.0322 41.7011 32.7332 41.4822 30.0693C41.2632 27.4419 38.928 25.4713 36.3008 25.6903C33.6737 25.9457 31.7033 28.2447 31.9222 30.8722Z" stroke="#2D2D17" stroke-width="4"/>
<path d="M31.9222 30.8722C32.1412 33.5361 34.4764 35.4701 37.1036 35.2512C39.7307 35.0322 41.7011 32.7332 41.4822 30.0693C41.2632 27.4419 38.928 25.4713 36.3008 25.6903C33.6737 25.9457 31.7033 28.2447 31.9222 30.8722Z" fill="#00CCFF"/>
<path d="M34.3304 30.6897C34.4399 32.0034 35.5711 32.9887 36.8846 32.8792C38.2347 32.7697 39.1834 31.602 39.0739 30.2883C38.9645 28.9746 37.8333 27.9893 36.4833 28.0988C35.1697 28.2083 34.1845 29.376 34.3304 30.6897Z" fill="#00B0DC"/>
<path d="M32.5792 29.1936C32.6886 30.3613 33.7103 31.2371 34.8779 31.1276C36.0455 31.0182 36.9213 29.9964 36.8483 28.8286C36.7388 27.6609 35.7171 26.7851 34.513 26.8945C33.3454 26.9675 32.4697 28.0258 32.5792 29.1936Z" fill="white"/>
<path d="M37.5779 32.6603C37.6144 33.0982 37.9793 33.4266 38.4171 33.3901C38.855 33.3536 39.1834 32.9887 39.1469 32.5508C39.1104 32.1129 38.7455 31.7845 38.3077 31.821C37.8698 31.8575 37.5414 32.2224 37.5779 32.6603Z" fill="white"/>
<path d="M4.59221 30.8722C4.81114 33.5361 7.1099 35.4701 9.73707 35.2512C12.4007 35.0322 14.3346 32.7332 14.1157 30.0693C13.8967 27.4419 11.598 25.4713 8.93434 25.6903C6.30717 25.9457 4.37328 28.2447 4.59221 30.8722Z" stroke="#2D2D17" stroke-width="4"/>
<path d="M4.59221 30.8722C4.81114 33.5361 7.1099 35.4701 9.73707 35.2512C12.4007 35.0322 14.3346 32.7332 14.1157 30.0693C13.8967 27.4419 11.598 25.4713 8.93434 25.6903C6.30717 25.9457 4.37328 28.2447 4.59221 30.8722Z" fill="#00CCFF"/>
<path d="M6.96416 30.6897C7.07363 32.0034 8.24125 32.9887 9.55483 32.8792C10.8684 32.7697 11.8536 31.602 11.7441 30.2883C11.6347 28.9746 10.467 27.9893 9.15347 28.0988C7.83988 28.2083 6.8547 29.376 6.96416 30.6897Z" fill="#00B0DC"/>
<path d="M5.24904 29.1936C5.32202 30.3613 6.38018 31.2371 7.54781 31.1276C8.71545 31.0182 9.59119 29.9964 9.48172 28.8286C9.37226 27.6609 8.35056 26.7851 7.18293 26.8945C6.01529 26.9675 5.13957 28.0258 5.24904 29.1936Z" fill="white"/>
<path d="M10.2118 32.6603C10.2483 33.0982 10.6497 33.4266 11.0875 33.3901C11.5254 33.3536 11.8538 32.9887 11.8173 32.5508C11.7808 32.1129 11.3794 31.7845 10.9416 31.821C10.5037 31.8575 10.1753 32.2224 10.2118 32.6603Z" fill="white"/>
<path d="M42.3213 36.8568C40.7158 36.8568 39.4023 37.2583 39.4023 37.7691C39.4023 38.28 40.7158 38.6814 42.3213 38.6814C43.9633 38.6814 45.2769 38.28 45.2769 37.7691C45.2769 37.2583 43.9633 36.8568 42.3213 36.8568Z" fill="#949459"/>
<path d="M5.46813 36.8568C3.82614 36.8568 2.51254 37.2583 2.51254 37.7691C2.51254 38.28 3.82614 38.6814 5.46813 38.6814C7.07362 38.6814 8.38721 38.28 8.38721 37.7691C8.38721 37.2583 7.07362 36.8568 5.46813 36.8568Z" fill="#949459"/>
</svg>
