<svg width="75" height="47" viewBox="0 0 75 47" fill="none" xmlns="http://www.w3.org/2000/svg">
<path fill-rule="evenodd" clip-rule="evenodd" d="M3.90626 44.8121L3.83327 43.6079H72.1742L72.1377 44.8486L74.8013 45.031L74.6919 46.2718H2.5927V43.6079H3.83327L3.65084 39.7762L3.86977 35.0687L4.49006 30.6897L5.54819 26.6391L6.93471 22.9169L8.64962 19.4867L10.6929 16.3849L12.9916 13.575L15.5457 11.0935L18.2823 8.94052L21.2378 7.07942L24.3392 5.54678L27.5501 4.34253L30.8705 3.46673L34.2273 2.88285L37.6571 2.66391L41.0505 2.73689L44.4438 3.1748L47.7641 3.90464L51.0115 4.9994L54.113 6.42257L57.0684 8.17418L59.878 10.2542L62.4686 12.6992L64.8038 15.4726L66.8835 18.5744L68.6714 22.0411L70.1309 25.8728L71.262 30.0693L71.9918 34.5943L72.2837 39.5572L72.1742 43.6079H73.4513L74.8013 45.031L74.9473 39.4843L74.6189 34.3389L73.8526 29.522L72.6486 25.07L71.0796 20.9829L69.1823 17.2242L66.92 13.8669L64.3659 10.8746L61.5929 8.24717L58.5644 5.98466L55.3535 4.0871L51.9602 2.55444L48.4939 1.38669L44.8816 0.583862L41.2694 0.109471L37.5841 0L33.9354 0.255448L30.2867 0.875793L26.7109 1.8246L23.2811 3.1383L19.9242 4.78043L16.7498 6.78749L13.7943 9.12298L11.0578 11.7869L8.54016 14.8157L6.3874 18.173L4.52655 21.8587L3.03056 25.8728L1.89945 30.1788L1.24268 34.8498L0.987267 39.8127L1.24268 45.0675L2.5927 46.2718V43.6079L3.90626 44.8121ZM1.24268 45.0675L2.55622 46.2718H1.35213L1.24268 45.0675Z" fill="#2D2D17"/>
<path d="M2.59263 44.9215H73.4512C77.6473 -14.8157 -2.69805 -11.6045 2.59263 44.9215Z" fill="#808048"/>
<path d="M67.4673 16.9687C62.1036 25.6173 46.8519 34.0835 28.8271 37.6597C18.7201 39.6667 9.45227 39.7762 2.33722 38.353C2.28857 40.4452 2.3737 42.6347 2.59263 44.9215H73.4512C74.2904 33.2076 71.8458 23.9387 67.4673 16.9687Z" fill="#666633"/>
<path d="M21.6758 11.13C21.6758 14.8157 27.5867 17.2607 34.8477 16.6403C42.1452 16.0199 48.0562 12.5167 48.0562 8.86752C48.0562 5.21833 42.1452 2.73688 34.8477 3.35725C27.5867 4.0141 21.6758 7.48083 21.6758 11.13Z" fill="#949459"/>
<path d="M9.16049 24.0482C10.474 25.4713 13.6484 24.3401 16.2391 21.4937C18.8297 18.6109 19.8878 15.1441 18.5743 13.7209C17.2607 12.2978 14.0863 13.4655 11.4957 16.3119C8.86858 19.1583 7.84694 22.625 9.16049 24.0482Z" fill="#949459"/>
<path d="M32.5853 35.2512C32.8042 37.9151 35.1394 39.8492 37.7665 39.6302C40.3936 39.4113 42.3639 37.1123 42.145 34.4484C41.9261 31.8209 39.5909 29.8504 36.9638 30.0693C34.3367 30.3248 32.3664 32.6238 32.5853 35.2512Z" stroke="#2D2D17" stroke-width="4"/>
<path d="M32.5853 35.2512C32.8042 37.9151 35.1394 39.8492 37.7665 39.6302C40.3936 39.4113 42.3639 37.1123 42.145 34.4484C41.9261 31.8209 39.5909 29.8504 36.9638 30.0693C34.3367 30.3248 32.3664 32.6238 32.5853 35.2512Z" fill="#00CCFF"/>
<path d="M34.9933 35.0687C35.1028 36.3824 36.2704 37.3677 37.5839 37.2582C38.8975 37.1488 39.8826 35.981 39.7732 34.6673C39.6637 33.3536 38.4961 32.3683 37.1826 32.4778C35.8325 32.5873 34.8839 33.755 34.9933 35.0687Z" fill="#00B0DC"/>
<path d="M33.2422 33.5726C33.3516 34.7403 34.3733 35.6161 35.5409 35.5067C36.745 35.3972 37.5842 34.3754 37.5112 33.2077C37.4017 32.0399 36.3801 31.1641 35.2125 31.2736C34.0084 31.3466 33.1692 32.4048 33.2422 33.5726Z" fill="white"/>
<path d="M38.2407 37.0393C38.2772 37.4772 38.6786 37.8056 39.1164 37.7691C39.5543 37.7327 39.8462 37.3677 39.8097 36.9298C39.7732 36.4919 39.4083 36.1635 38.9705 36.2C38.5326 36.2365 38.2042 36.6014 38.2407 37.0393Z" fill="white"/>
<path d="M5.25621 35.2512C5.47513 37.9151 7.77383 39.8492 10.4374 39.6302C13.0645 39.4113 15.0348 37.1123 14.8159 34.4484C14.5605 31.8209 12.2618 29.8504 9.6347 30.0693C6.97112 30.3248 5.03728 32.6238 5.25621 35.2512Z" stroke="#2D2D17" stroke-width="4"/>
<path d="M5.25621 35.2512C5.47513 37.9151 7.77383 39.8492 10.4374 39.6302C13.0645 39.4113 15.0348 37.1123 14.8159 34.4484C14.5605 31.8209 12.2618 29.8504 9.6347 30.0693C6.97112 30.3248 5.03728 32.6238 5.25621 35.2512Z" fill="#00CCFF"/>
<path d="M7.62787 35.0687C7.73733 36.3824 8.90492 37.3677 10.2185 37.2582C11.532 37.1488 12.5172 35.981 12.4077 34.6673C12.2982 33.3536 11.1307 32.3683 9.81711 32.4778C8.50357 32.5873 7.51841 33.755 7.62787 35.0687Z" fill="#00B0DC"/>
<path d="M5.91324 33.5726C6.0227 34.7403 7.04435 35.6161 8.21194 35.5067C9.37954 35.3972 10.2552 34.3754 10.1458 33.2077C10.0728 32.0399 9.01467 31.1641 7.84707 31.2736C6.67947 31.3466 5.80378 32.4048 5.91324 33.5726Z" fill="white"/>
<path d="M10.9117 37.0393C10.9481 37.4772 11.313 37.8056 11.7509 37.7691C12.1887 37.7327 12.5171 37.3677 12.4806 36.9298C12.4441 36.4919 12.0428 36.1635 11.6049 36.2C11.2036 36.2365 10.8752 36.6014 10.9117 37.0393Z" fill="white"/>
<path d="M43.0207 41.2359C41.3788 41.2359 40.0652 41.6373 40.0652 42.1482C40.0652 42.659 41.3788 43.0605 43.0207 43.0605C44.6262 43.0605 45.9397 42.659 45.9397 42.1482C45.9397 41.6373 44.6262 41.2359 43.0207 41.2359Z" fill="#949459"/>
<path d="M6.1318 41.2359C4.48987 41.2359 3.17632 41.6373 3.17632 42.1482C3.17632 42.659 4.48987 43.0605 6.1318 43.0605C7.73724 43.0605 9.05078 42.659 9.05078 42.1482C9.05078 41.6373 7.73724 41.2359 6.1318 41.2359Z" fill="#949459"/>
</svg>
