<svg width="85" height="35" viewBox="0 0 85 35" fill="none" xmlns="http://www.w3.org/2000/svg">
<path fill-rule="evenodd" clip-rule="evenodd" d="M3.4996 33.0252L3.42664 32.1494H81.7311L81.6947 33.0617L84.6867 33.1712L84.6137 34.0835H1.96709V32.1494H3.42664L3.20771 29.303L3.46311 25.8363L4.19289 22.625L5.39703 19.6327L6.96601 16.8593L8.97288 14.3413L11.2717 12.0423L13.8988 9.99879L16.8179 8.1742L19.9925 6.56854L23.3494 5.21836L26.8888 4.0871L30.5742 3.1748L34.369 2.51795L38.2368 2.11655L42.141 1.93409L46.0453 2.00705L49.9496 2.33549L53.7444 2.88287L57.4662 3.6857L61.0056 4.70746L64.4355 6.02116L67.6101 7.55383L70.5656 9.34194L73.2658 11.3855L75.6376 13.6845L77.7174 16.2389L79.3959 19.0488L80.673 22.1506L81.5122 25.5079L81.8406 29.1206L81.7311 32.1494H83.1907L84.6867 33.1712L84.8691 29.1206L84.5043 25.2889L83.6286 21.7492L82.2785 18.4649L80.4905 15.4361L78.2647 12.6992L75.674 10.2177L72.7914 7.99174L69.5805 6.05767L66.114 4.37903L62.4287 2.99234L58.5609 1.8611L54.5836 0.985286L50.4604 0.401424L46.3007 0.0729883L42.0681 0L37.8719 0.18246L33.7486 0.620367L29.6619 1.3502L25.6847 2.29901L21.8534 3.50324L18.241 4.9994L14.8111 6.71452L11.673 8.68509L8.82697 10.9111L6.34572 13.3925L4.19289 16.0929L2.47794 19.0488L1.23732 22.2601L0.434586 25.6538L0.179138 29.3395L0.471069 33.2076L1.96709 34.0835V32.1494L3.4996 33.0252ZM0.507545 33.2076L2.00357 34.0835H0.617027L0.507545 33.2076Z" fill="#2D2D17"/>
<path d="M1.96703 33.0982H83.1908C87.9708 -10.9476 -4.0536 -8.57561 1.96703 33.0982Z" fill="#808048"/>
<path d="M76.2944 12.5167C70.1643 18.8663 52.6862 25.1064 32.0701 27.7338C20.4667 29.23 9.88499 29.303 1.71153 28.2447C1.63856 29.8017 1.72368 31.4195 1.96693 33.0982H83.1907C84.1394 24.4861 81.3298 17.6256 76.2944 12.5167Z" fill="#666633"/>
<path d="M23.8604 8.21066C23.8604 10.9111 30.6473 12.6992 38.9667 12.2613C47.3226 11.7869 54.073 9.23244 54.073 6.53204C54.073 3.83164 47.3226 2.00705 38.9667 2.48145C30.6473 2.91935 23.8604 5.51026 23.8604 8.21066Z" fill="#949459"/>
<path d="M9.52027 17.7351C11.0163 18.7933 14.6651 17.9175 17.6207 15.801C20.6127 13.721 21.8168 11.1665 20.3208 10.1083C18.8248 9.04999 15.176 9.9258 12.1839 12.0058C9.19189 14.1224 8.02425 16.6768 9.52027 17.7351Z" fill="#949459"/>
<path d="M31.9612 23.4278C32.1802 26.0917 34.5154 28.0258 37.1426 27.8068C39.7698 27.5879 41.7402 25.2889 41.5212 22.625C41.3023 19.9976 38.967 18.027 36.3398 18.2459C33.7127 18.5014 31.7423 20.8004 31.9612 23.4278Z" stroke="#2D2D17" stroke-width="4"/>
<path d="M31.9612 23.4278C32.1802 26.0917 34.5154 28.0258 37.1426 27.8068C39.7698 27.5879 41.7402 25.2889 41.5212 22.625C41.3023 19.9976 38.967 18.027 36.3398 18.2459C33.7127 18.5014 31.7423 20.8004 31.9612 23.4278Z" fill="#00CCFF"/>
<path d="M34.3691 23.2454C34.4786 24.5591 35.6097 25.5443 36.9598 25.4349C38.2734 25.3254 39.2586 24.1577 39.1126 22.844C39.0031 21.5302 37.872 20.545 36.5219 20.6544C35.2083 20.7639 34.2232 21.9316 34.3691 23.2454Z" fill="#00B0DC"/>
<path d="M32.6177 21.7492C32.7272 22.917 33.7489 23.7928 34.9165 23.6833C36.0841 23.5738 36.9598 22.552 36.8869 21.3843C36.7774 20.2165 35.7557 19.3407 34.5516 19.4502C33.384 19.5232 32.5082 20.5815 32.6177 21.7492Z" fill="white"/>
<path d="M37.6166 25.2159C37.6531 25.6538 38.0545 25.9823 38.4924 25.9458C38.8938 25.9093 39.2222 25.5444 39.1857 25.1065C39.1492 24.6686 38.7843 24.3401 38.3464 24.3766C37.9086 24.4131 37.5801 24.778 37.6166 25.2159Z" fill="white"/>
<path d="M4.63057 23.4278C4.8495 26.0917 7.14824 28.0258 9.81189 27.8068C12.439 27.5879 14.3729 25.2889 14.154 22.625C13.9351 19.9976 11.6363 18.027 8.97264 18.2459C6.34548 18.5014 4.41164 20.8004 4.63057 23.4278Z" stroke="#2D2D17" stroke-width="4"/>
<path d="M4.63057 23.4278C4.8495 26.0917 7.14824 28.0258 9.81189 27.8068C12.439 27.5879 14.3729 25.2889 14.154 22.625C13.9351 19.9976 11.6363 18.027 8.97264 18.2459C6.34548 18.5014 4.41164 20.8004 4.63057 23.4278Z" fill="#00CCFF"/>
<path d="M7.00243 23.2454C7.1119 24.5591 8.27953 25.5443 9.59313 25.4349C10.9067 25.3254 11.8919 24.1577 11.7825 22.844C11.673 21.5302 10.5054 20.545 9.19176 20.6544C7.87816 20.7639 6.89296 21.9316 7.00243 23.2454Z" fill="#00B0DC"/>
<path d="M5.28743 21.7492C5.36041 22.917 6.41858 23.7928 7.58621 23.6833C8.75383 23.5738 9.62952 22.552 9.52005 21.3843C9.41059 20.2165 8.38895 19.3407 7.22132 19.4502C6.0537 19.5232 5.17797 20.5815 5.28743 21.7492Z" fill="white"/>
<path d="M10.2865 25.2159C10.323 25.6538 10.6878 25.9823 11.1257 25.9458C11.5635 25.9093 11.8919 25.5444 11.8554 25.1065C11.8189 24.6686 11.4175 24.3401 10.9797 24.3766C10.5419 24.4131 10.25 24.778 10.2865 25.2159Z" fill="white"/>
<path d="M42.36 29.4125C40.7545 29.4125 39.4409 29.8139 39.4409 30.3248C39.4409 30.8357 40.7545 31.2371 42.36 31.2371C44.002 31.2371 45.3157 30.8357 45.3157 30.3248C45.3157 29.8139 44.002 29.4125 42.36 29.4125Z" fill="#949459"/>
<path d="M5.5065 29.4125C3.86455 29.4125 2.55099 29.8139 2.55099 30.3248C2.55099 30.8357 3.86455 31.2371 5.5065 31.2371C7.11197 31.2371 8.42554 30.8357 8.42554 30.3248C8.42554 29.8139 7.11197 29.4125 5.5065 29.4125Z" fill="#949459"/>
</svg>
