<svg width="47" height="26" viewBox="0 0 47 26" fill="none" xmlns="http://www.w3.org/2000/svg">
<path fill-rule="evenodd" clip-rule="evenodd" d="M3.45162 2.50859C7.90404 1.55899 39.2281 1.55899 43.6019 2.50859C45.0162 2.82512 45.9329 3.96464 46.1948 5.64226C47.0591 10.9917 47.0329 16.3411 46.1948 21.6905C45.9329 23.3998 45.0162 24.6659 43.6019 24.8242C39.2281 25.3306 7.90404 25.299 3.45162 24.8242C2.01114 24.6659 1.01589 23.3998 0.858747 21.6905C0.361124 16.3411 0.256361 10.9917 0.858747 5.64226C1.04208 3.93298 2.03733 2.82512 3.45162 2.50859Z" fill="black" fill-opacity="0.101961"/>
<path fill-rule="evenodd" clip-rule="evenodd" d="M3.00631 1.30566C7.48492 0.356062 38.7828 0.324409 43.1828 1.30566C44.5709 1.62219 45.4876 2.73006 45.7495 4.43934C46.6138 9.78874 46.5876 15.1381 45.7495 20.4876C45.4876 22.1652 44.5971 23.463 43.1828 23.6212C38.7828 24.096 7.48492 24.096 3.00631 23.6212C1.59202 23.463 0.570579 22.1968 0.413434 20.4876C-0.0841885 15.1381 -0.188951 9.78874 0.413434 4.43934C0.596769 2.73006 1.59202 1.62219 3.00631 1.30566Z" fill="#E6E6E6"/>
<path fill-rule="evenodd" clip-rule="evenodd" d="M3.00631 0.73594C7.48492 -0.245313 38.7828 -0.245313 43.1828 0.73594C44.5709 1.02082 45.4876 2.16034 45.7495 3.83796C46.6138 9.18737 46.5876 14.5368 45.7495 19.8862C45.4876 21.5955 44.5971 22.8616 43.1828 23.0199C38.7828 23.5263 7.48492 23.4947 3.00631 23.0199C1.59202 22.8933 0.570579 21.5955 0.413434 19.8862C-0.0841885 14.5368 -0.188951 9.18737 0.413434 3.83796C0.596769 2.16034 1.59202 1.02082 3.00631 0.73594Z" fill="white"/>
<path fill-rule="evenodd" clip-rule="evenodd" d="M4.0016 2.28669C8.00878 1.43205 38.8614 1.4004 42.79 2.28669C44.0472 2.53992 44.8591 3.55283 45.121 5.07219C45.8805 9.88349 45.8543 14.6631 45.121 19.4745C44.8591 20.9938 44.0472 22.1333 42.79 22.2916C38.8614 22.7031 8.00878 22.7031 4.0016 22.2916C2.71826 22.1333 1.82778 20.9938 1.67063 19.4745C1.22539 14.6631 1.14682 9.88349 1.67063 5.07219C1.85397 3.55283 2.74445 2.53992 4.0016 2.28669Z" fill="#E6E6E6"/>
<path fill-rule="evenodd" clip-rule="evenodd" d="M3.71352 1.84362C7.72069 0.988977 38.5733 0.988977 42.5019 1.84362C43.7591 2.1285 44.571 3.1414 44.8067 4.66076C45.5924 9.47207 45.5662 14.2517 44.8067 19.063C44.571 20.5824 43.7591 21.7219 42.5019 21.8485C38.5733 22.2917 7.72069 22.2917 3.71352 21.8485C2.43017 21.7219 1.5135 20.5824 1.38255 19.063C0.937305 14.2517 0.832542 9.47207 1.38255 4.66076C1.53969 3.1414 2.45636 2.1285 3.71352 1.84362Z" fill="#00B0DC"/>
<path fill-rule="evenodd" clip-rule="evenodd" d="M3.71352 0.894211C7.72069 0.00791924 38.5733 0.00791924 42.5019 0.894211C43.7591 1.14744 44.571 2.16034 44.8067 3.6797C45.5924 8.491 45.5662 13.2706 44.8067 18.0819C44.571 19.6013 43.7591 20.7408 42.5019 20.8991C38.5733 21.3106 7.72069 21.3106 3.71352 20.8991C2.43017 20.7408 1.5135 19.6013 1.38255 18.0819C0.937305 13.2706 0.832542 8.491 1.38255 3.6797C1.53969 2.16034 2.45636 1.14744 3.71352 0.894211Z" fill="#99FFFF"/>
<path fill-rule="evenodd" clip-rule="evenodd" d="M3.79182 1.02086C7.74661 0.166223 38.5469 0.166223 42.4231 1.02086C43.654 1.27409 44.466 2.287 44.7017 3.7747C45.4612 8.5227 45.4612 13.239 44.7017 17.987C44.466 19.4747 43.6802 20.6143 42.4231 20.7409C38.5469 21.184 7.74661 21.184 3.79182 20.7409C2.53467 20.6143 1.64418 19.5064 1.48704 17.987C1.0418 13.239 0.963224 8.5227 1.48704 3.7747C1.67037 2.25534 2.53467 1.27409 3.79182 1.02086Z" fill="#8BFAFF"/>
<path fill-rule="evenodd" clip-rule="evenodd" d="M3.87055 1.14733C7.77296 0.292688 38.5208 0.292688 42.3447 1.14733C43.5756 1.40055 44.3613 2.41346 44.5971 3.86951C45.3566 8.5542 45.3304 13.2072 44.5971 17.8919C44.3613 19.348 43.5756 20.4875 42.3447 20.6141C38.5208 21.0256 7.77296 21.0256 3.87055 20.6141C2.6134 20.4875 1.74911 19.3796 1.59196 17.8919C1.17291 13.2072 1.06815 8.5542 1.59196 3.86951C1.7753 2.38181 2.63959 1.40055 3.87055 1.14733Z" fill="#7DF6FF"/>
<path fill-rule="evenodd" clip-rule="evenodd" d="M3.94909 1.27398C7.79912 0.450992 38.4946 0.450992 42.2661 1.27398C43.4708 1.5272 44.2565 2.50845 44.4923 3.9645C45.2256 8.58587 45.2256 13.1756 44.4923 17.797C44.2565 19.253 43.497 20.3609 42.2661 20.4875C38.4946 20.899 7.79912 20.899 3.94909 20.4875C2.71812 20.3609 1.85383 19.253 1.72288 17.797C1.27764 13.1756 1.19906 8.58587 1.72288 3.9645C1.88002 2.50845 2.74431 1.5272 3.94909 1.27398Z" fill="#6FF1FF"/>
<path fill-rule="evenodd" clip-rule="evenodd" d="M4.02733 1.40093C7.82498 0.577945 38.4681 0.577945 42.1872 1.40093C43.3657 1.65416 44.1515 2.63541 44.3872 4.05981C45.1205 8.61788 45.0943 13.1443 44.3872 17.7024C44.1515 19.1268 43.3919 20.203 42.1872 20.3612C38.4681 20.7727 7.82498 20.7411 4.02733 20.3612C2.82256 20.203 1.95827 19.1268 1.82732 17.7024C1.40826 13.1443 1.3035 8.61788 1.82732 4.05981C1.98446 2.60375 2.82256 1.65416 4.02733 1.40093Z" fill="#61ECFF"/>
<path fill-rule="evenodd" clip-rule="evenodd" d="M4.1061 1.5273C7.85137 0.73597 38.4421 0.704317 42.1088 1.5273C43.2874 1.78053 44.0469 2.73013 44.2826 4.15452C44.9898 8.61764 44.9898 13.1124 44.2826 17.6072C44.0469 18.9999 43.2874 20.0761 42.1088 20.2027C38.4421 20.6142 7.85137 20.6142 4.1061 20.2027C2.92752 20.0761 2.06323 19.0316 1.93227 17.6072C1.51322 13.1124 1.43465 8.61764 1.93227 4.15452C2.08942 2.73013 2.92752 1.78053 4.1061 1.5273Z" fill="#53E8FF"/>
<path fill-rule="evenodd" clip-rule="evenodd" d="M4.18486 1.65405C7.87775 0.862713 38.4161 0.862713 42.0304 1.65405C43.1828 1.90727 43.9423 2.85687 44.178 4.24962C44.8852 8.64944 44.859 13.0809 44.178 17.4807C43.9423 18.9051 43.209 19.9497 42.0304 20.0763C38.4161 20.4878 7.87775 20.4878 4.18486 20.0763C3.00628 19.9497 2.16818 18.9051 2.03723 17.4807C1.64437 13.0809 1.5396 8.64944 2.03723 4.24962C2.19437 2.82522 3.03247 1.90727 4.18486 1.65405Z" fill="#46E3FF"/>
<path fill-rule="evenodd" clip-rule="evenodd" d="M4.26337 1.78042C7.90387 1.02074 38.3898 0.989088 41.9518 1.78042C43.1042 2.03365 43.8375 2.95159 44.047 4.34434C44.7542 8.68084 44.7542 13.049 44.047 17.3855C43.8375 18.7782 43.1042 19.8228 41.9518 19.9494C38.3898 20.3292 7.90387 20.3292 4.26337 19.9494C3.11098 19.8228 2.29907 18.7782 2.16811 17.3855C1.74906 13.049 1.67049 8.68084 2.16811 4.34434C2.29907 2.95159 3.11098 2.03365 4.26337 1.78042Z" fill="#38DFFF"/>
<path fill-rule="evenodd" clip-rule="evenodd" d="M4.34164 1.93871C7.92977 1.14738 38.3633 1.14738 41.8729 1.93871C42.9991 2.16029 43.7324 3.07823 43.942 4.43932C44.6491 8.7125 44.6229 13.0173 43.942 17.2905C43.7324 18.6516 42.9991 19.6962 41.8729 19.8228C38.3633 20.2026 7.92977 20.2026 4.34164 19.8228C3.21544 19.6962 2.40353 18.6833 2.27258 17.2905C1.87972 13.0173 1.77496 8.7125 2.27258 4.43932C2.42972 3.07823 3.21544 2.16029 4.34164 1.93871Z" fill="#2ADAFF"/>
<path fill-rule="evenodd" clip-rule="evenodd" d="M4.42038 2.06558C7.95613 1.3059 38.3373 1.27424 41.7945 2.06558C42.8945 2.28715 43.6278 3.2051 43.8374 4.53454C44.5183 8.74443 44.5183 12.986 43.8374 17.1959C43.6278 18.5253 42.9207 19.5382 41.7945 19.6648C38.3373 20.0447 7.95613 20.0447 4.42038 19.6648C3.29419 19.5699 2.50846 18.557 2.37751 17.1959C1.98465 12.986 1.90608 8.74443 2.37751 4.53454C2.53466 3.17344 3.32038 2.28715 4.42038 2.06558Z" fill="#1CD5FF"/>
<path fill-rule="evenodd" clip-rule="evenodd" d="M4.49917 2.19183C7.98254 1.43215 38.3114 1.43215 41.7161 2.19183C42.8162 2.4134 43.5233 3.29969 43.7328 4.62913C44.3876 8.77571 44.3876 12.9539 43.7328 17.1005C43.5233 18.4299 42.8162 19.4112 41.7161 19.5378C38.3114 19.9177 7.98254 19.9177 4.49917 19.5378C3.39917 19.4112 2.61344 18.4299 2.48249 17.1005C2.08963 12.9539 2.01106 8.77571 2.48249 4.62913C2.63964 3.29969 3.42536 2.4134 4.49917 2.19183Z" fill="#0ED1FF"/>
<path fill-rule="evenodd" clip-rule="evenodd" d="M4.57789 2.31869C8.00887 1.59067 38.2853 1.55902 41.6377 2.31869C42.7115 2.54027 43.4187 3.42656 43.6282 4.72434C44.283 8.80762 44.283 12.9225 43.6282 17.0058C43.4187 18.3036 42.7377 19.2849 41.6377 19.4115C38.2853 19.7913 8.00887 19.7597 4.57789 19.4115C3.50408 19.2849 2.71836 18.3036 2.5874 17.0058C2.22073 12.9225 2.14216 8.80762 2.5874 4.72434C2.74455 3.39491 3.50408 2.54027 4.57789 2.31869Z" fill="#00CCFF"/>
<path fill-rule="evenodd" clip-rule="evenodd" d="M3.71327 0.894212C7.72044 0.00791888 38.5731 0.00791888 42.5017 0.894212C43.7588 1.14744 44.5707 2.16035 44.8065 3.67971C45.1731 5.86378 45.3565 8.01621 45.3826 10.2003C37.9445 6.5285 6.01805 16.341 1.01562 10.1686C1.01562 8.01621 1.14658 5.83213 1.38229 3.67971C1.53944 2.16035 2.45611 1.14744 3.71327 0.894212Z" fill="white" fill-opacity="0.290196"/>
<path fill-rule="evenodd" clip-rule="evenodd" d="M3.92303 1.81201C5.10161 1.81201 6.04448 2.98318 6.04448 4.40757C6.04448 5.83195 5.10161 6.97147 3.92303 6.97147C2.74445 6.97147 1.77539 5.83195 1.77539 4.40757C1.77539 2.98318 2.74445 1.81201 3.92303 1.81201Z" fill="white"/>
<path fill-rule="evenodd" clip-rule="evenodd" d="M7.17067 1.1792C7.74687 1.1792 8.2183 1.74896 8.2183 2.44534C8.2183 3.14172 7.74687 3.71149 7.17067 3.71149C6.59448 3.71149 6.12305 3.14172 6.12305 2.44534C6.12305 1.74896 6.59448 1.1792 7.17067 1.1792Z" fill="white"/>
<path fill-rule="evenodd" clip-rule="evenodd" d="M42.8424 17.1641C43.5496 17.1641 44.1258 17.8604 44.1258 18.7151C44.1258 19.5697 43.5496 20.2661 42.8424 20.2661C42.1353 20.2661 41.5591 19.5697 41.5591 18.7151C41.5591 17.8604 42.1353 17.1641 42.8424 17.1641Z" fill="white"/>
<path d="M15.185 11.8464C15.3683 12.6061 15.7612 13.0176 16.3898 13.0493C16.9659 13.1126 17.3588 12.7327 17.5683 11.9414L19.3755 11.6565C18.9041 13.9039 18.0136 15.0434 16.6517 15.0434C16.2326 15.0434 15.7612 14.9168 15.2374 14.6952C14.2945 14.0305 13.7969 12.7644 13.7969 10.8968C13.7969 10.7069 13.8231 10.5487 13.8231 10.3587C13.9016 8.17465 14.7921 6.90852 16.4421 6.56033C18.0136 6.52868 18.9302 7.82647 19.166 10.517L15.185 11.8464ZM15.6564 9.06095C15.4207 9.40913 15.2897 9.82063 15.2636 10.2954L17.6731 9.47244C17.4112 8.87103 17.0445 8.55449 16.6517 8.55449C16.2326 8.55449 15.8921 8.74441 15.6564 9.06095ZM19.4803 8.55449L20.9731 6.87687L22.6493 9.37748C23.2517 8.55449 23.8017 7.73151 24.3517 6.94017L26.0541 8.64945C25.3208 9.47244 24.5874 10.3271 23.8803 11.1817L26.0803 14.4737L24.4303 15.7715C23.8541 14.7269 23.2255 13.7456 22.5969 12.7644C21.8636 13.6823 21.1565 14.6319 20.4493 15.6132L19.166 13.7773C19.9517 12.8593 20.685 11.9414 21.3922 11.0235C20.7636 10.1688 20.135 9.34583 19.4803 8.55449ZM26.447 9.82063C26.5517 10.8968 26.5779 11.9414 26.5779 12.9543C26.5779 13.8089 26.5517 14.6319 26.4994 15.4233L28.1494 15.2333C28.2541 13.3658 28.3327 11.4666 28.3851 9.53575L26.447 9.82063ZM26.5517 6.78191C26.4208 7.06679 26.3684 7.28836 26.3684 7.54159C26.3684 7.73151 26.3946 7.92143 26.4994 8.07969C26.7089 8.49119 26.9708 8.68111 27.3113 8.71276C27.6256 8.77607 27.9137 8.58615 28.1756 8.23796C28.3589 7.98473 28.4375 7.69985 28.4375 7.44663C28.4375 7.32001 28.4113 7.1934 28.3851 7.09844C28.2803 6.68695 28.0446 6.43372 27.6779 6.27545C27.5994 6.2438 27.5208 6.2438 27.416 6.2438C27.1279 6.2438 26.866 6.43372 26.5517 6.78191ZM28.3589 10.7069L28.3065 8.77607L29.3803 8.68111L29.4327 5.51577L31.0042 5.38916L30.847 8.52284L32.3399 8.36457L32.4446 10.2954L30.7946 10.4537C30.7946 10.6753 30.7946 10.8968 30.7946 11.0868C30.7946 12.891 30.978 13.8089 31.3708 13.8723C31.7899 13.9356 32.1042 13.5557 32.2875 12.7011L33.4137 12.891C33.3351 14.1255 33.047 14.9168 32.5232 15.2333C32.1565 15.4549 31.7113 15.5815 31.2137 15.5815C31.0042 15.5815 30.7946 15.5499 30.5851 15.5182C29.7994 15.3916 29.3803 13.7456 29.3541 10.612L28.3589 10.7069Z" stroke="#00B0DC" stroke-width="0.541595" stroke-linecap="round" stroke-linejoin="round"/>
<path d="M15.185 11.8464C15.3683 12.6061 15.7612 13.0176 16.3898 13.0493C16.9659 13.1126 17.3588 12.7327 17.5683 11.9414L19.3755 11.6565C18.9041 13.9039 18.0136 15.0434 16.6517 15.0434C16.2326 15.0434 15.7612 14.9168 15.2374 14.6952C14.2945 14.0305 13.7969 12.7644 13.7969 10.8968C13.7969 10.7069 13.8231 10.5487 13.8231 10.3587C13.9016 8.17465 14.7921 6.90852 16.4421 6.56033C18.0136 6.52868 18.9302 7.82647 19.166 10.517L15.185 11.8464ZM15.6564 9.06095C15.4207 9.40913 15.2897 9.82063 15.2636 10.2954L17.6731 9.47244C17.4112 8.87103 17.0445 8.55449 16.6517 8.55449C16.2326 8.55449 15.8921 8.74441 15.6564 9.06095ZM19.4803 8.55449L20.9731 6.87687L22.6493 9.37748C23.2517 8.55449 23.8017 7.73151 24.3517 6.94017L26.0541 8.64945C25.3208 9.47244 24.5874 10.3271 23.8803 11.1817L26.0803 14.4737L24.4303 15.7715C23.8541 14.7269 23.2255 13.7456 22.5969 12.7644C21.8636 13.6823 21.1565 14.6319 20.4493 15.6132L19.166 13.7773C19.9517 12.8593 20.685 11.9414 21.3922 11.0235C20.7636 10.1688 20.135 9.34583 19.4803 8.55449ZM26.447 9.82063C26.5517 10.8968 26.5779 11.9414 26.5779 12.9543C26.5779 13.8089 26.5517 14.6319 26.4994 15.4233L28.1494 15.2333C28.2541 13.3658 28.3327 11.4666 28.3851 9.53575L26.447 9.82063ZM26.5517 6.78191C26.4208 7.06679 26.3684 7.28836 26.3684 7.54159C26.3684 7.73151 26.3946 7.92143 26.4994 8.07969C26.7089 8.49119 26.9708 8.68111 27.3113 8.71276C27.6256 8.77607 27.9137 8.58615 28.1756 8.23796C28.3589 7.98473 28.4375 7.69985 28.4375 7.44663C28.4375 7.32001 28.4113 7.1934 28.3851 7.09844C28.2803 6.68695 28.0446 6.43372 27.6779 6.27545C27.5994 6.2438 27.5208 6.2438 27.416 6.2438C27.1279 6.2438 26.866 6.43372 26.5517 6.78191ZM28.3589 10.7069L28.3065 8.77607L29.3803 8.68111L29.4327 5.51577L31.0042 5.38916L30.847 8.52284L32.3399 8.36457L32.4446 10.2954L30.7946 10.4537C30.7946 10.6753 30.7946 10.8968 30.7946 11.0868C30.7946 12.891 30.978 13.8089 31.3708 13.8723C31.7899 13.9356 32.1042 13.5557 32.2875 12.7011L33.4137 12.891C33.3351 14.1255 33.047 14.9168 32.5232 15.2333C32.1565 15.4549 31.7113 15.5815 31.2137 15.5815C31.0042 15.5815 30.7946 15.5499 30.5851 15.5182C29.7994 15.3916 29.3803 13.7456 29.3541 10.612L28.3589 10.7069Z" fill="white"/>
</svg>
