<svg width="89" height="87" viewBox="0 0 89 87" fill="none" xmlns="http://www.w3.org/2000/svg">
<path d="M7.17139 35.6496L7.90115 37.4378L8.6674 39.2624L9.79853 37.9487L10.9297 36.6714L9.03229 36.1605L7.17139 35.6496Z" stroke="#FFB413" stroke-width="4"/>
<path d="M7.17139 35.6496L7.90115 37.4378L8.6674 39.2624L9.79853 37.9487L10.9297 36.6714L9.03229 36.1605L7.17139 35.6496Z" fill="#FFE7AD"/>
<path d="M9.90802 37.8392L10.9297 36.6714L9.03229 36.1605L7.17139 35.6496L9.90802 37.8392Z" fill="white"/>
<path d="M11.6229 47.7649L13.0459 46.4147L11.4404 45.7944L9.83502 45.2105L10.0175 47.1445L10.1999 49.0786L11.6229 47.7649Z" stroke="#FFB413" stroke-width="4"/>
<path d="M11.6229 47.7649L13.0459 46.4147L11.4404 45.7944L9.83502 45.2105L10.0175 47.1445L10.1999 49.0786L11.6229 47.7649Z" fill="#FFE7AD"/>
<path d="M10.1999 49.0786L11.6229 47.7649L13.0459 46.4147L11.5864 45.8674L10.1999 49.0786Z" fill="white"/>
<path d="M7.17121 43.4224L9.0686 43.8602L8.70372 42.2181L8.33883 40.5395L6.80633 41.7437L5.2738 42.9479L7.17121 43.4224Z" stroke="#FFB413" stroke-width="4"/>
<path d="M7.17121 43.4224L9.0686 43.8602L8.70372 42.2181L8.33883 40.5395L6.80633 41.7437L5.2738 42.9479L7.17121 43.4224Z" fill="#FFE7AD"/>
<path d="M5.2738 42.948L7.17121 43.4224L9.0686 43.8602L8.74022 42.3276L5.2738 42.948Z" fill="white"/>
<path d="M19.5042 33.6791L12.9729 35.2847C9.98084 36.051 8.15644 39.0799 8.8862 42.0722C9.61596 45.0645 12.681 46.9256 15.673 46.1593L22.2043 44.5536C25.1963 43.7873 27.0207 40.722 26.291 37.7297C25.5247 34.7739 22.4598 32.9128 19.5042 33.6791Z" stroke="#004621" stroke-width="4"/>
<path d="M19.5042 33.6791L12.9729 35.2847C9.98084 36.051 8.15644 39.0799 8.8862 42.0722C9.61596 45.0645 12.681 46.9256 15.673 46.1593L22.2043 44.5536C25.1963 43.7873 27.0207 40.722 26.291 37.7297C25.5247 34.7739 22.4598 32.9128 19.5042 33.6791Z" fill="#009B4C"/>
<path d="M8.74026 40.3205C8.69161 40.9044 8.74025 41.4883 8.8862 42.0722C9.61596 45.0645 12.681 46.9255 15.673 46.1592L22.2043 44.5536C25.1963 43.7872 27.0207 40.722 26.291 37.7296C26.145 37.1458 25.8896 36.5984 25.5977 36.124C25.4153 38.4595 23.7368 40.5395 21.3651 41.1599L14.8338 42.7655C12.4256 43.3858 9.98085 42.2911 8.74026 40.3205Z" fill="#007E3C"/>
<path d="M34.5006 64.5512C25.2691 64.5512 17.7526 72.0686 17.7526 81.3011H51.2122C51.2122 72.0686 43.7321 64.5512 34.5006 64.5512V64.5512Z" stroke="#004621" stroke-width="4"/>
<path d="M34.5006 64.5512C25.2691 64.5512 17.7526 72.0686 17.7526 81.3011H51.2122C51.2122 72.0686 43.7321 64.5512 34.5006 64.5512Z" fill="#009B4C"/>
<path d="M17.9715 78.6735H50.8107C50.8837 78.6735 50.9445 78.6735 50.9932 78.6735C50.7986 77.3355 50.4458 76.0705 49.935 74.8784H24.7218C24.7218 71.7401 25.561 68.8208 27.057 66.3029C22.3136 68.6748 18.8472 73.2363 17.9715 78.6735Z" fill="#007E3C"/>
<path d="M50.8108 78.6735H17.7527C16.2932 78.6735 15.089 79.8413 15.089 81.301V81.9579C15.089 83.4176 16.2932 84.5853 17.7527 84.5853H50.8108C52.2704 84.5853 53.438 83.4176 53.438 81.9579V81.301C53.438 79.8413 52.2704 78.6735 50.8108 78.6735Z" stroke="#004621" stroke-width="4"/>
<path d="M50.8108 78.6735H17.7527C16.2932 78.6735 15.0891 79.8413 15.0891 81.301V81.9579C15.0891 83.4176 16.2932 84.5853 17.7527 84.5853H50.8108C52.2704 84.5853 53.438 83.4176 53.438 81.9579V81.301C53.438 79.8413 52.2704 78.6735 50.8108 78.6735Z" fill="#007E3C"/>
<path d="M16.8769 80.0968V79.4399C16.8769 79.2209 16.9013 79.002 16.9499 78.783C15.8918 79.1115 15.089 80.1333 15.089 81.301V81.9579C15.089 83.4176 16.2931 84.5853 17.7527 84.5853H50.8108C52.0149 84.5853 53.0731 83.746 53.365 82.6147C53.1217 82.7121 52.8542 82.7607 52.5622 82.7607H19.5041C18.0446 82.7607 16.8769 81.5565 16.8769 80.0968Z" fill="#00662F"/>
<path d="M70.7698 2.91634H33.2601C24.503 2.91634 17.3878 10.0688 17.3878 18.7903V59.4059C17.3878 68.164 24.503 75.3164 33.2601 75.3164H70.7698C79.5269 75.3164 86.6421 68.164 86.6421 59.4059V18.7903C86.6421 10.0688 79.5269 2.91634 70.7698 2.91634Z" stroke="#004621" stroke-width="4"/>
<path d="M70.7698 2.91634H33.2601C24.503 2.91634 17.3878 10.0688 17.3878 18.7903V59.4059C17.3878 68.164 24.503 75.3164 33.2601 75.3164H70.7698C79.5269 75.3164 86.6421 68.164 86.6421 59.4059V18.7903C86.6421 10.0688 79.5269 2.91634 70.7698 2.91634Z" fill="#009B4C"/>
<path d="M19.7231 10.5067C18.2271 12.9151 17.3879 15.7615 17.3879 18.7903V27.9133C18.7015 28.6431 20.234 29.0445 21.8394 29.0445C27.0573 29.0445 31.2534 24.848 31.2534 19.6661C31.2534 14.4843 27.0573 10.2512 21.8394 10.2512C21.1097 10.2512 20.4043 10.3364 19.7231 10.5067Z" fill="#007E3C"/>
<path d="M57.2693 10.2512C52.0515 10.2512 47.8554 14.4843 47.8554 19.6661C47.8554 24.848 52.0515 29.0445 57.2693 29.0445C62.4506 29.0445 66.6467 24.848 66.6467 19.6661C66.6467 14.4843 62.4506 10.2512 57.2693 10.2512Z" fill="#007E3C"/>
<path d="M17.3879 29.4459V59.4059C17.3879 68.164 24.503 75.3164 33.2602 75.3164L72.3389 75.2434C67.6684 74.2581 68.6901 59.4424 69.4198 45.32C69.8577 36.5984 62.2682 29.4459 53.5475 29.4459H17.3879Z" fill="#00B457"/>
<path d="M49.7162 18.8269C49.9352 21.4543 52.2704 23.4249 54.8975 23.2059C57.5247 22.987 59.495 20.6515 59.2761 18.0241C59.0572 15.3966 56.7219 13.4261 54.0948 13.645C51.4677 13.864 49.4973 16.1994 49.7162 18.8269Z" stroke="#004621" stroke-width="4"/>
<path d="M49.7162 18.8269C49.9352 21.4543 52.2704 23.4249 54.8975 23.2059C57.5247 22.987 59.495 20.6515 59.2761 18.0241C59.0572 15.3966 56.7219 13.4261 54.0948 13.645C51.4677 13.864 49.4973 16.1994 49.7162 18.8269Z" fill="#00CCFF"/>
<path d="M52.1244 18.6444C52.2338 19.9581 53.365 20.9069 54.715 20.7974C56.0286 20.6879 57.0138 19.5567 56.9043 18.2065C56.7583 16.8928 55.6272 15.9075 54.3136 16.0534C52.9636 16.1629 52.0149 17.2942 52.1244 18.6444Z" fill="#00B0DC"/>
<path d="M50.373 17.1117C50.4824 18.316 51.5041 19.1553 52.6717 19.0823C53.8758 18.9729 54.715 17.9511 54.6421 16.7833C54.5326 15.5791 53.5109 14.7397 52.3433 14.8127C51.1392 14.9222 50.3 15.944 50.373 17.1117Z" fill="white"/>
<path d="M55.3718 20.6149C55.4083 21.0528 55.8097 21.3812 56.2475 21.3448C56.6854 21.3083 56.9773 20.9069 56.9408 20.469C56.9043 20.0311 56.5394 19.7392 56.1016 19.7756C55.6637 19.8121 55.3353 20.1771 55.3718 20.6149Z" fill="white"/>
<path d="M19.6501 18.8269C19.869 21.4543 22.2042 23.4249 24.8314 23.2059C27.4585 22.987 29.4289 20.6515 29.2099 18.0241C28.991 15.3966 26.6558 13.4261 24.0286 13.645C21.365 13.864 19.4311 16.1994 19.6501 18.8269Z" stroke="#004621" stroke-width="4"/>
<path d="M19.6501 18.8269C19.869 21.4543 22.2042 23.4249 24.8314 23.2059C27.4585 22.987 29.4289 20.6515 29.2099 18.0241C28.991 15.3966 26.6558 13.4261 24.0286 13.645C21.365 13.864 19.4311 16.1994 19.6501 18.8269Z" fill="#00CCFF"/>
<path d="M22.0218 18.6444C22.1312 19.9581 23.2989 20.9069 24.6124 20.7974C25.9625 20.6879 26.9112 19.5567 26.8017 18.2065C26.6923 16.8928 25.5246 15.9075 24.2111 16.0534C22.8975 16.1629 21.9123 17.2942 22.0218 18.6444Z" fill="#00B0DC"/>
<path d="M20.307 17.1117C20.4164 18.316 21.4381 19.1553 22.6057 19.0823C23.7733 18.9729 24.649 17.9511 24.5396 16.7833C24.4666 15.5791 23.4085 14.7397 22.2408 14.8127C21.0732 14.9222 20.1975 15.944 20.307 17.1117Z" fill="white"/>
<path d="M25.3057 20.6149C25.3422 21.0528 25.7071 21.3812 26.1449 21.3448C26.5828 21.3083 26.9112 20.9069 26.8747 20.469C26.8382 20.0311 26.4733 19.7392 26.0354 19.7756C25.5976 19.8121 25.2692 20.1771 25.3057 20.6149Z" fill="white"/>
<path d="M59.0937 25.7602C57.4882 25.7602 56.1746 26.1617 56.1746 26.6361C56.1746 27.147 57.4882 27.5484 59.0937 27.5484C60.7356 27.5484 62.0127 27.147 62.0127 26.6361C62.0127 26.1617 60.7356 25.7602 59.0937 25.7602Z" fill="#FF99CC"/>
<path d="M20.4528 25.7602C18.8473 25.7602 17.5338 26.1617 17.5338 26.6361C17.5338 27.147 18.8473 27.5484 20.4528 27.5484C22.0583 27.5484 23.3718 27.147 23.3718 26.6361C23.3718 26.1617 22.0583 25.7602 20.4528 25.7602Z" fill="#FF99CC"/>
<path d="M72.3388 75.2433C80.3662 74.4405 86.6421 67.6165 86.6421 59.4058V18.7903C86.6421 13.426 83.9785 8.68208 79.8918 5.79921C80.0621 6.72368 80.1472 7.68464 80.1472 8.68208V49.2976C80.1472 56.45 75.3673 62.5077 68.836 64.5147C69.0184 70.4629 69.9306 74.7324 72.3388 75.2433Z" fill="#007E3C"/>
<path d="M26.7288 65.1715C23.3719 65.1715 20.1975 64.1133 17.6433 62.2887C18.9934 69.6601 25.4883 75.3164 33.2602 75.3164L72.3389 75.2434C69.9307 74.7325 69.0185 70.4629 68.836 64.5147C67.3765 64.9526 65.844 65.1715 64.275 65.1715H26.7288Z" fill="#009B4C"/>
<path d="M80.3298 18.3159C77.9945 18.3159 76.0971 22.2571 76.0971 27.1105C76.0971 31.964 77.9945 35.9051 80.3298 35.9051C82.665 35.9051 84.5259 31.964 84.5259 27.1105C84.5259 22.2571 82.665 18.3159 80.3298 18.3159Z" stroke="#00662F" stroke-width="4"/>
<path d="M80.3298 18.3159C77.9945 18.3159 76.0971 22.2571 76.0971 27.1105C76.0971 31.964 77.9945 35.9051 80.3298 35.9051C82.665 35.9051 84.5259 31.964 84.5259 27.1105C84.5259 22.2571 82.665 18.3159 80.3298 18.3159Z" fill="#007E3C"/>
<path d="M79.3809 21.6366C77.9214 21.6366 76.7538 24.0816 76.7538 27.1105C76.7538 30.1393 77.9214 32.5843 79.3809 32.5843C80.8039 32.5843 82.0081 30.1393 82.0081 27.1105C82.0081 24.0816 80.8039 21.6366 79.3809 21.6366Z" fill="#00662F"/>
<path d="M70.3684 6.09114C69.4562 6.09114 68.69 6.82102 68.69 7.7698C68.69 8.6821 69.4562 9.44841 70.3684 9.44841C71.3171 9.44841 72.0469 8.6821 72.0469 7.7698C72.0469 6.82102 71.3171 6.09114 70.3684 6.09114Z" fill="#00662F"/>
<path d="M42.8199 7.11293C42.0537 7.11293 41.4699 7.73327 41.4699 8.46311C41.4699 9.19294 42.0537 9.77684 42.8199 9.77684C43.5497 9.77684 44.1335 9.19294 44.1335 8.46311C44.1335 7.73327 43.5497 7.11293 42.8199 7.11293Z" fill="#00662F"/>
<path d="M31.9101 8.0617C31.1074 8.0617 30.4506 8.71856 30.4506 9.5214C30.4506 10.3242 31.1074 10.9811 31.9101 10.9811C32.7128 10.9811 33.3696 10.3242 33.3696 9.5214C33.3696 8.71856 32.7128 8.0617 31.9101 8.0617Z" fill="#00662F"/>
<path d="M40.3754 24.5196C40.0835 24.5196 39.8281 24.7751 39.8281 25.1035C39.8281 25.3954 40.0835 25.6508 40.3754 25.6508C40.7038 25.6508 40.9592 25.3954 40.9592 25.1035C40.9592 24.7751 40.7038 24.5196 40.3754 24.5196Z" fill="#00662F"/>
<path d="M76.2796 49.0786C75.9147 49.0786 75.5863 49.407 75.5863 49.772C75.5863 50.1734 75.9147 50.4654 76.2796 50.4654C76.6445 50.4654 76.9729 50.1734 76.9729 49.772C76.9729 49.407 76.6445 49.0786 76.2796 49.0786Z" fill="#00662F"/>
<path d="M80.6945 58.9315C79.089 58.9315 77.8484 60.2087 77.8484 61.7779C77.8484 63.347 79.089 64.6242 80.6945 64.6242C82.2635 64.6242 83.5405 63.347 83.5405 61.7779C83.5405 60.2087 82.2635 58.9315 80.6945 58.9315Z" fill="#00662F"/>
<path d="M71.463 22.8774C70.9887 22.8774 70.5873 23.2788 70.5873 23.7532C70.5873 24.2276 70.9887 24.629 71.463 24.629C71.9374 24.629 72.3022 24.2276 72.3022 23.7532C72.3022 23.2788 71.9374 22.8774 71.463 22.8774Z" fill="#00662F"/>
<path d="M72.5577 38.0581C72.2293 38.0581 71.9739 38.3135 71.9739 38.6785C71.9739 39.0069 72.2293 39.2624 72.5577 39.2624C72.9226 39.2624 73.178 39.0069 73.178 38.6785C73.178 38.3135 72.9226 38.0581 72.5577 38.0581Z" fill="#00662F"/>
<path d="M21.511 36.4524V59.0774C21.511 67.3611 28.2978 74.1851 36.6171 74.1486H37.4563C29.21 74.1121 22.4962 67.3246 22.4962 59.0774V36.4524H21.511Z" fill="#009B4C"/>
<path d="M27.0208 36.4524V59.0774C27.0208 67.3611 33.844 74.1851 42.1268 74.1486H42.9661C34.7562 74.1121 28.0059 67.3246 28.0059 59.0774V36.4524H27.0208Z" fill="#009B4C"/>
<path d="M32.4573 36.4524V59.0774C32.4573 67.3611 39.2441 74.1851 47.5633 74.1486H48.4026C40.1563 74.1121 33.4425 67.3246 33.4425 59.0774V36.4524H32.4573Z" fill="#009B4C"/>
<path d="M38.0036 36.4524V59.0774C38.0036 67.3611 44.7903 74.1851 53.0731 74.1486H53.9124C45.666 74.1121 38.9522 67.3246 38.9522 59.0774V36.4524H38.0036Z" fill="#009B4C"/>
<path d="M43.4039 36.4524V59.0774C43.4039 67.3611 50.1906 74.1851 58.5099 74.1486H59.3491C51.1028 74.1121 44.389 67.3246 44.389 59.0774V36.4524H43.4039Z" fill="#009B4C"/>
<path d="M48.9134 36.4524V59.0774C48.9134 67.3611 55.7367 74.1851 64.0194 74.1486H64.8586C56.6124 74.1121 49.8986 67.3246 49.8986 59.0774V36.4524H48.9134Z" fill="#009B4C"/>
<path d="M54.934 36.4524V59.0774C54.934 67.3611 61.7208 74.1851 70.0035 74.1486H70.8428C62.5965 74.1121 55.8827 67.3246 55.8827 59.0774V36.4524H54.934Z" fill="#009B4C"/>
<path d="M55.4814 36.0511L56.2841 37.8391L57.1233 39.5907L58.218 38.277L59.2761 36.9268L57.3787 36.489L55.4814 36.0511Z" stroke="#FFB413" stroke-width="4"/>
<path d="M55.4814 36.0511L56.2841 37.8391L57.1233 39.5907L58.218 38.277L59.2761 36.9268L57.3787 36.489L55.4814 36.0511Z" fill="#FFE7AD"/>
<path d="M58.2909 38.1676L59.2761 36.9268L57.3787 36.489L55.4814 36.0511L58.2909 38.1676Z" fill="white"/>
<path d="M60.3708 47.9838L61.7573 46.5971L60.1154 46.0497L58.5099 45.5023L58.7288 47.4364L58.9842 49.3705L60.3708 47.9838Z" stroke="#FFB413" stroke-width="4"/>
<path d="M60.3708 47.9838L61.7573 46.5971L60.1154 46.0497L58.5099 45.5023L58.7288 47.4364L58.9842 49.3705L60.3708 47.9838Z" fill="#FFE7AD"/>
<path d="M58.9843 49.3705L60.3708 47.9838L61.7573 46.5971L60.2613 46.0863L58.9843 49.3705Z" fill="white"/>
<path d="M55.7733 43.8238L57.6707 44.2251L57.2693 42.5466L56.8314 40.868L55.3354 42.1452L53.8759 43.4224L55.7733 43.8238Z" stroke="#FFB413" stroke-width="4"/>
<path d="M55.7733 43.8238L57.6707 44.2251L57.2693 42.5466L56.8314 40.868L55.3354 42.1452L53.8759 43.4224L55.7733 43.8238Z" fill="#FFE7AD"/>
<path d="M53.8759 43.4224L55.7733 43.8238L57.6707 44.2251L57.3058 42.6926L53.8759 43.4224Z" fill="white"/>
<path d="M67.7414 33.6425L61.283 35.5037C58.3274 36.343 56.576 39.4448 57.4517 42.4371C58.291 45.393 61.3924 47.1081 64.348 46.2688L70.8064 44.4077C73.7984 43.5684 75.5133 40.43 74.6741 37.4742C73.7984 34.5183 70.6969 32.8032 67.7414 33.6425Z" stroke="#004621" stroke-width="4"/>
<path d="M67.7414 33.6425L61.283 35.5037C58.3274 36.343 56.576 39.4448 57.4517 42.4371C58.291 45.393 61.3924 47.1081 64.348 46.2688L70.8064 44.4077C73.7984 43.5684 75.5133 40.43 74.6741 37.4742C73.7984 34.5183 70.6969 32.8032 67.7414 33.6425Z" fill="#009B4C"/>
<path d="M57.2328 40.649C57.1963 41.2329 57.2693 41.8533 57.4518 42.4371C58.291 45.393 61.3925 47.1081 64.348 46.2688L70.8064 44.4077C73.7984 43.5683 75.5133 40.43 74.6741 37.4742C74.5038 36.8903 74.2484 36.3551 73.9078 35.8685C73.8349 38.2405 72.2294 40.3571 69.8577 41.0504L63.3993 42.9115C61.0276 43.6048 58.5464 42.6196 57.2328 40.649Z" fill="#007E3C"/>
<path d="M68.9452 59.4788C59.8962 57.6177 51.0295 63.4199 49.2051 72.4699L81.9349 79.2209C83.7958 70.1709 77.9942 61.3399 68.9452 59.4788Z" stroke="#004621" stroke-width="4"/>
<path d="M68.9452 59.4788C59.8962 57.6177 51.0295 63.4199 49.2051 72.4699L81.9349 79.2209C83.7958 70.1709 77.9942 61.3399 68.9452 59.4788Z" fill="#009B4C"/>
<path d="M49.935 69.952L82.081 76.557C82.1539 76.5814 82.2148 76.5935 82.2634 76.5935C82.3364 75.2555 82.2391 73.9539 81.9715 72.6889L57.2691 67.58C57.8894 64.5147 59.3489 61.8143 61.3193 59.6613C56.1745 61.048 51.8689 64.8066 49.935 69.952Z" fill="#007E3C"/>
<path d="M82.081 76.557L49.6796 69.9155C48.2566 69.6235 46.8701 70.5358 46.5782 71.959L46.4322 72.6159C46.1403 74.0391 47.0525 75.4258 48.512 75.7177L80.8769 82.3957C82.2999 82.6877 83.723 81.7388 84.0149 80.3157L84.1243 79.6953C84.4162 78.2721 83.504 76.849 82.081 76.557V76.557Z" stroke="#004621" stroke-width="4"/>
<path d="M82.081 76.557L49.6796 69.9155C48.2566 69.6235 46.8701 70.5358 46.5782 71.959L46.4322 72.6159C46.1403 74.0391 47.0525 75.4258 48.512 75.7177L80.8769 82.3957C82.2999 82.6877 83.723 81.7388 84.0149 80.3157L84.1243 79.6953C84.4162 78.2721 83.504 76.849 82.081 76.557Z" fill="#007E3C"/>
<path d="M48.5484 71.1562L48.6579 70.4994C48.7066 70.2804 48.7795 70.0736 48.8768 69.879C47.7822 69.9885 46.797 70.7913 46.5781 71.959L46.4321 72.6159C46.1402 74.0391 47.0524 75.4258 48.512 75.7177L80.8769 82.3958C82.081 82.6512 83.2486 82.0309 83.7959 80.9726C83.5283 80.9969 83.2607 80.9848 82.9932 80.9361L50.5918 74.2581C49.1688 73.9661 48.2565 72.5794 48.5484 71.1562Z" fill="#00662F"/>
</svg>
