<svg width="126" height="33" viewBox="0 0 126 33" fill="none" xmlns="http://www.w3.org/2000/svg">
<path d="M5.15332 10.134L33.7234 27.5042C38.5034 19.6219 36.0222 9.33121 28.1043 4.55077C20.2229 -0.266166 9.93325 2.2517 5.15332 10.134V10.134Z" stroke="#999999" stroke-width="4"/>
<path d="M5.15332 10.134L33.7234 27.5042C38.5034 19.6219 36.0222 9.33121 28.1043 4.55077C20.2229 -0.266166 9.93325 2.2517 5.15332 10.134V10.134Z" fill="#E6E6E6"/>
<path d="M33.5408 9.87853C33.5408 12.7979 32.7381 15.7538 31.1326 18.4177L9.56818 5.31702C8.51002 6.08335 7.56132 6.99571 6.68561 8.01748C6.73426 8.04181 6.79507 8.07823 6.86805 8.12689L34.9274 25.1688C37.0072 20.0599 36.3869 14.3671 33.5408 9.87853V9.87853Z" fill="#CCCCCC"/>
<path d="M3.21937 9.00282L2.89097 9.5502C2.12472 10.7909 2.52609 12.4331 3.76669 13.1994L32.0084 30.3506C33.249 31.117 34.891 30.7155 35.6572 29.4748L35.9856 28.9274C36.7519 27.6867 36.3505 26.0445 35.1099 25.2782L6.86817 8.12696C5.62758 7.36063 3.98561 7.76209 3.21937 9.00282Z" stroke="#999999" stroke-width="4"/>
<path d="M3.21937 9.00282L2.89097 9.5502C2.12472 10.7909 2.52609 12.4331 3.76669 13.1994L32.0084 30.3506C33.249 31.117 34.891 30.7155 35.6572 29.4748L35.9856 28.9274C36.7519 27.6867 36.3505 26.0445 35.1099 25.2782L6.86817 8.12696C5.62758 7.36063 3.98561 7.76209 3.21937 9.00282Z" fill="#E6E6E6"/>
<path d="M31.4611 27.8691L3.21932 10.6813C2.97607 10.5353 2.76932 10.365 2.59904 10.1704C2.27065 11.3017 2.70849 12.5789 3.76664 13.1993L32.0084 30.3506C33.249 31.1169 34.8909 30.7154 35.6572 29.4747L35.9856 28.9273C36.6059 27.9056 36.4599 26.6284 35.7301 25.7891C35.6572 26.008 35.5599 26.2148 35.4383 26.4094L35.1099 26.9568C34.3436 28.234 32.7016 28.6354 31.4611 27.8691Z" fill="#CCCCCC"/>
<path d="M22.0106 2.9816C19.6024 2.39773 17.0847 2.90856 16.355 4.11278C15.6252 5.31701 16.9753 6.7402 19.3835 7.32407C21.7917 7.90793 24.3094 7.3971 25.0391 6.19288C25.7689 4.98866 24.4188 3.56546 22.0106 2.9816Z" fill="white"/>
<path d="M103.489 16.812H19.639V26.2999H103.489V16.812Z" fill="black"/>
<path fill-rule="evenodd" clip-rule="evenodd" d="M20.2959 17.0674L62.3302 18.7095L63.1694 18.8555L62.841 18.746L62.3302 18.7095L63.1694 18.8555L73.7144 23.3805L102.649 24.3294L104.109 20.6072L104.291 19.8408L104.364 19.111L104.328 18.3811L104.182 17.6513L103.927 16.958L103.598 16.2281L103.124 15.5347L102.576 14.8778L101.956 14.1845L101.226 13.5277L100.387 12.9073L99.475 12.287L98.4898 11.6666L97.4317 11.0827L96.264 10.4988L95.0235 9.95141L93.7099 9.40402L92.3233 8.9297L90.8638 8.41875L89.3678 7.94434L87.7623 7.50645L86.1204 7.10509L84.4054 6.74017L82.654 6.37525L80.8296 6.04677L78.9322 5.75481L76.9984 5.46294L75.028 5.24396L72.9847 5.02497L70.9414 4.87903L68.8251 4.7331L66.6722 4.62361L64.483 4.58708L62.3302 4.55064H60.2139L58.0976 4.62361L56.0177 4.69657L53.9744 4.80607L51.9311 4.98853L49.9607 5.17099L47.9904 5.38989L46.093 5.64541L44.2321 5.90083L42.4077 6.22923L40.6198 6.55771L38.9049 6.92263L37.2629 7.32399L35.6574 7.76188L34.0884 8.19986L32.5924 8.67418L31.2059 9.18513L29.8558 9.69598L28.5787 10.2434L27.3746 10.8273L26.2435 11.4111L25.1854 11.995L24.2366 12.6154L23.361 13.2722L22.5947 13.9291L21.9014 14.6224L21.3176 15.3158L20.8068 16.0091L20.4419 16.739L20.2959 17.0674ZM64.5924 3.7113H62.3302H60.0679L57.8421 3.74774L55.6164 3.85724L53.4636 3.96673L51.3108 4.14919L49.1945 4.33165L47.1147 4.58708L45.1078 4.84251L43.1375 5.13446L41.2036 5.46294L39.3062 5.82787L37.4818 6.22923L35.7304 6.63068L34.0154 7.10509L32.3735 7.57942L30.8045 8.09036L29.3085 8.60122L27.8854 9.1486L26.5354 9.73251L25.2583 10.3163L24.0542 10.9368L22.9595 11.5936L21.9379 12.2504L21.0257 12.9438L20.1865 13.6371L19.4567 14.367L18.8364 15.0968L18.3256 15.8632L17.8877 16.6295L17.5958 17.4323L17.4499 17.8337L18.6905 17.9067L61.4909 19.5854L72.0725 24.0739L72.9117 24.2199L103.598 25.2417L104.802 25.3146L104.985 24.8767L106.627 20.7166L106.809 19.9138L106.882 19.1475L106.846 18.3811L106.7 17.6148L106.408 16.8485L106.043 16.0821L105.568 15.3523L104.985 14.6224L104.328 13.9291L103.525 13.2357L102.686 12.5424L101.701 11.8855L100.643 11.2286L99.5115 10.6083L98.2709 10.0245L96.9938 9.44055L95.6073 8.85664L94.1113 8.30926L92.5788 7.79841L90.9733 7.32399L89.2948 6.84957L87.5434 6.41169L85.719 6.01033L83.8581 5.60888L81.9242 5.28048L79.9174 4.952L77.8741 4.66005L75.7943 4.44115L73.6415 4.22216L71.4157 4.0397L69.1899 3.89376L66.8912 3.78427L64.5924 3.7113ZM72.4009 24.2199L72.0725 24.0739L72.9117 24.2199H72.4009Z" fill="#999999"/>
<path d="M66.7818 4.18584C42.9187 3.31003 21.4638 9.25819 18.8731 17.4325L62.1844 19.1477L73.0943 23.7822L103.744 24.804L105.386 20.6438C107.977 12.433 90.6815 5.09815 66.7818 4.18584V4.18584Z" fill="#E6E6E6"/>
<path fill-rule="evenodd" clip-rule="evenodd" d="M107.247 26.081L107.356 25.6066H73.6048L61.8192 21.483L60.907 21.337H18.8727L17.6321 21.7749V29.2558L18.1065 29.6207L24.054 31.2263L24.8203 31.2993H100.46L101.336 31.1899L106.043 29.5842L106.408 29.3287L107.247 26.081ZM25.2946 30.4235L20.1863 29.0368V22.2128H60.3961L72.1817 26.3364L73.0939 26.4459H72.5466L72.1817 26.3364L73.0939 26.4459H104.62L103.963 29.0733L99.9491 30.4235H25.2946ZM61.4543 21.337L61.8192 21.4464L60.907 21.337H61.4543ZM17.6321 21.337H18.9092L17.6321 21.7749V21.337ZM17.6321 29.4747V29.2558L18.1065 29.6207L17.6321 29.4747ZM24.4189 31.2628L24.0905 31.1899L24.8568 31.2628H24.4189ZM101.007 31.2628H100.46L101.372 31.1533L101.007 31.2628ZM106.408 29.4382L106.079 29.5477L106.444 29.2558L106.408 29.4382Z" fill="#999999"/>
<path d="M105.167 29.2558L105.97 26.0445H73.0575L60.907 21.775H18.8729V29.2558L24.8204 30.8615H100.46L105.167 29.2558Z" fill="#E6E6E6"/>
<path d="M24.8203 30.8615H100.46L105.167 29.2557H18.8728L24.8203 30.8615Z" fill="#B3B3B3"/>
<path d="M77.3997 23.9279L101.92 24.7307L103.744 24.8038L105.386 20.6437C107.101 15.2064 100.059 10.134 88.1271 7.06873C94.9504 10.353 93.272 14.659 85.8649 19.403C83.5661 20.8626 80.7201 22.3953 77.3997 23.9279Z" fill="#CCCCCC"/>
<path d="M72.9845 27.8691C72.1088 28.3069 70.7588 28.8178 69.8466 29.2557H104.693L105.97 25.9351H103.489H76.5968C75.4536 26.5676 74.2494 27.2123 72.9845 27.8691V27.8691Z" fill="#CCCCCC"/>
<path d="M55.3973 5.49945C46.6767 5.93736 39.1602 7.72547 38.5763 9.51358C38.029 11.3017 44.6334 12.433 53.354 11.9951C62.1111 11.5936 69.6276 9.80557 70.175 8.01746C70.7588 6.22935 64.118 5.09804 55.3973 5.49945Z" fill="white"/>
<path d="M28.5056 11.2287C24.6014 12.141 22.2297 13.6006 23.2513 14.5129C24.2365 15.4252 28.1772 15.4252 32.0814 14.5129C36.0222 13.5642 38.3574 12.1045 37.3722 11.1923C36.3871 10.28 32.4099 10.2799 28.5056 11.2287Z" fill="white"/>
<path d="M38.7589 13.7831C30.5855 13.7831 23.9447 16.4106 23.9447 19.6218C23.9447 22.8696 30.5855 25.4971 38.7589 25.4971C46.9322 25.4971 53.573 22.8696 53.573 19.6218C53.573 16.4106 46.9322 13.7831 38.7589 13.7831Z" fill="black" stroke="#999999" stroke-width="4"/>
<path d="M89.1123 27.6135L120.419 15.9362C117.208 7.28762 107.575 2.87207 98.9276 6.11984C90.2799 9.33111 85.8649 18.965 89.1123 27.6135Z" stroke="#999999" stroke-width="4"/>
<path d="M89.1123 27.6135L120.419 15.9362C117.208 7.28762 107.575 2.87207 98.9276 6.11984C90.2799 9.33111 85.8649 18.965 89.1123 27.6135Z" fill="#E6E6E6"/>
<path d="M106.48 5.13458C108.779 6.95918 110.604 9.40415 111.698 12.36L88.0539 21.1546C88.0174 22.4683 88.1269 23.7819 88.3823 25.0956C88.4553 25.0713 88.5161 25.047 88.5648 25.0227L119.324 13.5277C116.624 8.74728 111.771 5.68196 106.48 5.13458V5.13458Z" fill="#CCCCCC"/>
<path d="M86.9959 28.4165L87.2513 29.0369C87.7622 30.3871 89.2947 31.117 90.6447 30.6061L121.623 19.0381C122.973 18.5272 123.666 16.9945 123.156 15.6443L122.937 15.024C122.426 13.6373 120.893 12.9439 119.543 13.4548L88.5649 25.0228C87.2148 25.5336 86.4851 27.0663 86.9959 28.4165V28.4165Z" stroke="#999999" stroke-width="4"/>
<path d="M86.9959 28.4165L87.2513 29.0369C87.7622 30.3871 89.2947 31.117 90.6447 30.6061L121.623 19.0381C122.973 18.5272 123.666 16.9945 123.156 15.6443L122.937 15.024C122.426 13.6373 120.893 12.9439 119.543 13.4548L88.5649 25.0228C87.2148 25.5336 86.4851 27.0663 86.9959 28.4165V28.4165Z" fill="#E6E6E6"/>
<path d="M119.324 17.9068L88.346 29.4747C88.0784 29.5721 87.8109 29.6329 87.5433 29.6572C88.2365 30.606 89.5136 31.0074 90.6448 30.606L121.623 19.0381C122.973 18.5272 123.666 16.9945 123.156 15.6443L122.937 15.024C122.535 13.8927 121.441 13.2359 120.309 13.3089C120.455 13.4791 120.565 13.6737 120.638 13.8927L120.857 14.513C121.368 15.8632 120.674 17.3959 119.324 17.9068V17.9068Z" fill="#CCCCCC"/>
<path d="M93.9286 9.91512C91.9947 11.4478 90.7906 13.7833 91.3014 15.097C91.7758 16.4107 93.7461 16.2282 95.68 14.6955C97.6503 13.1629 98.8179 10.8639 98.3071 9.5502C97.8328 8.23649 95.8624 8.38245 93.9286 9.91512Z" fill="white"/>
<path d="M47.6252 21.191L45.217 20.4977L48.0996 20.0598C49.2672 19.8774 49.7415 19.403 49.1212 19.0381C48.4644 18.6731 47.0049 18.5271 45.8008 18.7096L41.3493 19.3664L37.6275 18.3082C36.6424 18.0163 35.1099 18.0527 34.1977 18.3447C33.2855 18.6366 33.3949 19.111 34.3801 19.403L36.7883 20.0963L33.9058 20.5342C32.7381 20.7166 32.2638 21.1546 32.8841 21.5195C33.5044 21.8845 35.0004 22.0304 36.168 21.8479L40.6195 21.191L44.3413 22.2494C45.363 22.5413 46.8955 22.5413 47.8077 22.2494C48.6834 21.9209 48.6104 21.4465 47.6252 21.191V21.191Z" fill="#600000"/>
</svg>
