<svg width="79" height="72" viewBox="0 0 79 72" fill="none" xmlns="http://www.w3.org/2000/svg">
<path d="M5.13788 66.4813H38.5952C38.5952 57.2489 31.1156 49.7681 21.8848 49.7681C12.6539 49.7681 5.13788 57.2489 5.13788 66.4813Z" stroke="#999999" stroke-width="4"/>
<path d="M5.13788 66.4813H38.5952C38.5952 57.2489 31.1156 49.7681 21.8848 49.7681C12.6539 49.7681 5.13788 57.2489 5.13788 66.4813Z" fill="#E6E6E6"/>
<path d="M29.291 51.4831C30.7869 54.001 31.6626 56.9204 31.6626 60.0587H6.41451C5.94019 61.263 5.57533 62.5402 5.35641 63.8539C5.42939 63.8539 5.50235 63.8539 5.57532 63.8539H38.376C37.5368 58.4166 34.0707 53.8551 29.291 51.4831V51.4831Z" fill="#CCCCCC"/>
<path d="M2.91202 66.4813V67.1381C2.91202 68.5978 4.11607 69.8021 5.5755 69.8021H38.6315C40.0545 69.8021 41.2585 68.5978 41.2585 67.1381V66.4813C41.2585 65.0216 40.0545 63.8539 38.6315 63.8539H5.5755C4.11607 63.8539 2.91202 65.0216 2.91202 66.4813Z" stroke="#999999" stroke-width="4"/>
<path d="M2.91202 66.4813V67.1381C2.91202 68.5978 4.11607 69.8021 5.5755 69.8021H38.6315C40.0545 69.8021 41.2585 68.5978 41.2585 67.1381V66.4813C41.2585 65.0216 40.0545 63.8539 38.6315 63.8539H5.5755C4.11607 63.8539 2.91202 65.0216 2.91202 66.4813Z" fill="#E6E6E6"/>
<path d="M36.8437 67.941H3.78768C3.52012 67.941 3.25258 67.8923 2.98502 67.795C3.31339 68.9628 4.33498 69.8021 5.57549 69.8021H38.6315C40.0545 69.8021 41.2585 68.5978 41.2585 67.1381V66.4813C41.2585 65.3136 40.4923 64.2918 39.3977 63.9634C39.4707 64.1823 39.5072 64.4013 39.5072 64.6202V65.2771C39.5072 66.7367 38.3032 67.941 36.8437 67.941V67.941Z" fill="#CCCCCC"/>
<path d="M15.8645 51.5926C13.4929 52.3224 11.5957 54.0741 11.5957 55.4972C11.5957 56.8839 13.4929 57.4313 15.8645 56.665C18.1996 55.8986 20.0969 54.147 20.0969 52.7603C20.0969 51.3372 18.1996 50.8262 15.8645 51.5926Z" fill="white"/>
<path d="M73.804 37.5432H2.80277V57.2853H73.804V37.5432Z" fill="black"/>
<path d="M38.814 2C18.4915 2 1.99994 18.4944 1.99994 38.8569L38.887 39.0759L49.2854 49.4761L75.3727 49.2206L75.6646 38.8569C75.6646 18.4944 59.173 2 38.814 2V2Z" stroke="#999999" stroke-width="4"/>
<path d="M38.814 2C18.4915 2 1.99994 18.4944 1.99994 38.8569L38.887 39.0759L49.2854 49.4761L75.3727 49.2206L75.6646 38.8569C75.6646 18.4944 59.173 2 38.814 2V2Z" fill="#E6E6E6"/>
<path d="M75.2267 60.5696L75.9199 52.5779H48.0449L37.7559 42.0682H2.18231V60.5696L7.21736 64.4742H71.2133L75.2267 60.5696Z" stroke="#999999" stroke-width="4"/>
<path d="M75.2267 60.5696L75.9199 52.5779H48.0449L37.7559 42.0682H2.18231V60.5696L7.21736 64.4742H71.2133L75.2267 60.5696Z" fill="#E6E6E6"/>
<path d="M7.21723 64.4742H71.2131L75.2266 60.5696H2.18218L7.21723 64.4742Z" fill="#B3B3B3"/>
<path d="M52.934 49.4395L73.8038 49.2206H75.3727L75.6646 38.8569C75.6646 25.3549 68.3674 13.5315 57.5677 7.10895C64.1351 14.5168 63.8432 25.2089 58.8811 37.5432C57.3487 41.3748 55.3421 45.3524 52.934 49.4395Z" fill="#CCCCCC"/>
<path d="M47.9718 57.2853C47.2421 58.38 46.4881 59.4748 45.7098 60.5696H75.2267L75.9199 52.5778H73.8038H51.0367C50.0637 54.1348 49.0421 55.704 47.9718 57.2853V57.2853Z" fill="#CCCCCC"/>
<path d="M29.5833 6.26961C22.3592 8.05771 16.4849 13.1301 16.4849 17.5821C16.4849 22.0341 22.3592 24.1871 29.5833 22.3625C36.8075 20.5744 42.6816 15.5021 42.6816 11.05C42.6816 6.59803 36.8075 4.44501 29.5833 6.26961Z" fill="white"/>
<path d="M8.45787 22.691C5.39309 25.2819 3.82419 29.15 4.88227 31.3031C5.97684 33.4196 9.29703 33.0547 12.3253 30.4273C15.3901 27.7998 16.9955 23.9682 15.9009 21.8152C14.8429 19.6622 11.4862 20.0636 8.45787 22.691Z" fill="white"/>
<path d="M19.0023 26.4131C12.07 26.4131 6.45124 32.8722 6.45124 40.8275C6.45124 48.8192 12.07 55.2783 19.0023 55.2783C25.9346 55.2783 31.5168 48.8192 31.5168 40.8275C31.5168 32.8722 25.9346 26.4131 19.0023 26.4131Z" fill="black" stroke="#999999" stroke-width="4"/>
<path d="M21.2278 32.4343C17.2144 32.4343 13.9306 36.193 13.9306 40.8275C13.9306 45.4619 17.2144 49.2571 21.2278 49.2571C25.2777 49.2571 28.5249 45.4619 28.5249 40.8275C28.5249 36.193 25.2777 32.4343 21.2278 32.4343Z" fill="#BA0000"/>
<path d="M19.1848 37.3243C17.397 37.3243 15.9375 38.9664 15.9375 41.0099C15.9375 43.0535 17.397 44.7321 19.1848 44.7321C20.9361 44.7321 22.3955 43.0535 22.3955 41.0099C22.3955 38.9664 20.9361 37.3243 19.1848 37.3243Z" fill="#600000"/>
<path d="M18.8198 34.4048C17.5064 34.4048 15.974 35.6456 15.4267 37.1783C14.8794 38.6745 15.4997 39.9152 16.8496 39.9152C18.1631 39.9152 19.6954 38.6745 20.2427 37.1783C20.79 35.6456 20.1333 34.4048 18.8198 34.4048Z" fill="white"/>
<path d="M24.8397 39.5867C22.7235 39.5867 20.3155 41.5573 19.4398 43.9658C18.5641 46.4107 19.5857 48.3448 21.6654 48.3448C23.7816 48.3448 26.1897 46.4107 27.0653 43.9658C27.941 41.5573 26.9194 39.5867 24.8397 39.5867Z" fill="white"/>
<path d="M31.8455 59.8397L65.011 63.9998C66.142 54.8404 59.6476 46.4838 50.4897 45.3161C41.3318 44.1848 32.9766 50.6803 31.8455 59.8397Z" stroke="#999999" stroke-width="4"/>
<path d="M31.8455 59.8397L65.011 63.9998C66.142 54.8404 59.6476 46.4838 50.4897 45.3161C41.3318 44.1848 32.9766 50.6803 31.8455 59.8397Z" fill="#E6E6E6"/>
<path d="M57.6408 47.9798C58.8083 50.6437 59.3191 53.6361 58.9178 56.7744L33.8886 53.6361C33.2683 54.7673 32.7211 56.0081 32.3562 57.2853C32.4292 57.2853 32.5022 57.2853 32.5751 57.2853L65.1204 61.3359C64.9744 55.8621 62.092 50.8992 57.6408 47.9798Z" fill="#CCCCCC"/>
<path d="M29.6201 59.5843L29.5471 60.2412C29.3646 61.7009 30.3863 63.0146 31.8457 63.1971L64.6463 67.2841C66.0692 67.4666 67.4192 66.4084 67.6016 64.9852L67.6746 64.3283C67.857 62.9051 66.7989 61.5549 65.376 61.3725L32.5754 57.2853C31.116 57.1029 29.8025 58.1611 29.6201 59.5843Z" stroke="#999999" stroke-width="4"/>
<path d="M29.6201 59.5843L29.5471 60.2412C29.3646 61.7009 30.3863 63.0146 31.8457 63.1971L64.6463 67.2841C66.0692 67.4666 67.4192 66.4084 67.6016 64.9852L67.6746 64.3283C67.857 62.9051 66.7989 61.5549 65.376 61.3725L32.5754 57.2853C31.116 57.1029 29.8025 58.1611 29.6201 59.5843Z" fill="#E6E6E6"/>
<path d="M63.1139 65.2406L30.3133 61.1535C30.0457 61.1048 29.7903 61.0318 29.5471 60.9345C29.693 62.0658 30.6052 63.0511 31.8457 63.197L64.6463 67.2841C66.0692 67.4666 67.4192 66.4448 67.6016 64.9851L67.6746 64.3283C67.8205 63.1605 67.1638 62.0658 66.1422 61.5914C66.1665 61.8103 66.1665 62.0415 66.1422 62.2847L66.0692 62.9416C65.8868 64.3647 64.5368 65.3865 63.1139 65.2406V65.2406Z" fill="#CCCCCC"/>
<path d="M44.2872 46.4107C41.8792 46.8486 39.763 48.3448 39.5805 49.768C39.3981 51.1547 41.2224 51.8845 43.667 51.4466C46.1115 50.9722 48.1912 49.4761 48.3737 48.0894C48.5561 46.7027 46.7318 45.9363 44.2872 46.4107Z" fill="white"/>
</svg>
