<svg width="99" height="66" viewBox="0 0 99 66" fill="none" xmlns="http://www.w3.org/2000/svg">
<path d="M86.8723 30.6896H15.8666V52.9497H86.8723V30.6896Z" fill="black"/>
<path d="M64.7607 47.403L85.5224 49.3371L87.0914 49.483L88.4779 39.7033C89.901 26.9676 83.9534 15.1077 73.8827 7.95526C79.6478 15.6186 78.1883 25.6903 71.9488 36.7839C69.9785 40.2141 67.5703 43.7903 64.7607 47.403Z" fill="#CCCCCC"/>
<path d="M61.0389 52.9498C60.3092 53.9959 59.5551 55.042 58.7767 56.0881H88.259L88.9888 48.4977H86.8725H64.1039C63.1309 49.9818 62.1093 51.4658 61.0389 52.9498V52.9498Z" fill="#CCCCCC"/>
<path d="M23.3832 17.6256C20.0993 19.7786 18.0925 23.2818 18.9317 25.3983C19.7709 27.5148 23.1278 27.5149 26.4117 25.3619C29.7321 23.1724 31.739 19.7056 30.8997 17.5891C30.0605 15.4725 26.7036 15.4726 23.3832 17.6256Z" fill="white"/>
<path d="M4.44599 49.4101L36.4095 59.263C39.1461 50.4684 34.1837 41.0899 25.3901 38.353C16.56 35.6526 7.18259 40.579 4.44599 49.4101V49.4101Z" stroke="#999999" stroke-width="4"/>
<path d="M4.44599 49.4101L36.4095 59.263C39.1461 50.4684 34.1837 41.0899 25.3901 38.353C16.56 35.6526 7.18259 40.579 4.44599 49.4101V49.4101Z" fill="#E6E6E6"/>
<path d="M31.958 42.2211C32.6513 45.0675 32.6148 48.0964 31.6661 51.0887L7.58401 43.6443C6.74479 44.6661 6.01503 45.7609 5.43122 46.9651C5.5042 46.9651 5.56501 46.9773 5.61366 47.0016L36.9933 56.7084C37.7596 51.2711 35.7892 45.8703 31.958 42.2211Z" fill="#CCCCCC"/>
<path d="M2.32973 48.7533L2.1108 49.3737C1.70943 50.7604 2.47567 52.2565 3.86222 52.6944L35.4609 62.4377C36.8474 62.8756 38.3434 62.1094 38.7813 60.6862L38.9637 60.0658C39.4016 58.6791 38.5988 57.1829 37.2123 56.7815L5.61365 47.0018C4.22711 46.6004 2.7311 47.3666 2.32973 48.7533V48.7533Z" stroke="#999999" stroke-width="4"/>
<path d="M2.32973 48.7533L2.1108 49.3737C1.70943 50.7604 2.47567 52.2565 3.86222 52.6944L35.4609 62.4377C36.8474 62.8756 38.3434 62.1094 38.7813 60.6862L38.9637 60.0658C39.4016 58.6791 38.5988 57.1829 37.2123 56.7815L5.61365 47.0018C4.22711 46.6004 2.7311 47.3666 2.32973 48.7533V48.7533Z" fill="#E6E6E6"/>
<path d="M34.3297 60.1752L2.73101 50.3953C2.46343 50.3223 2.22018 50.2129 2.00125 50.0669C1.96476 51.2346 2.69453 52.3294 3.86214 52.6943L35.4608 62.4377C36.8473 62.8756 38.3434 62.1094 38.7812 60.6862L38.9636 60.0657C39.292 58.971 38.8542 57.7668 37.942 57.1099C37.9177 57.3289 37.8812 57.5599 37.8325 57.8032L37.6136 58.4236C37.2122 59.8103 35.7162 60.5766 34.3297 60.1752V60.1752Z" fill="#CCCCCC"/>
<path d="M19.0777 38.3165C16.5965 38.353 14.2612 39.4843 13.8599 40.798C13.422 42.1482 15.1005 43.2064 17.5816 43.2064C20.0628 43.1699 22.3981 42.0386 22.7994 40.7249C23.2373 39.3747 21.5588 38.3165 19.0777 38.3165Z" fill="white"/>
<path fill-rule="evenodd" clip-rule="evenodd" d="M16.4504 31.3465L51.9898 35.2147L52.7195 35.5796L52.4276 35.2511L51.9898 35.2147L52.7195 35.5796L61.6591 46.0893L86.1426 48.3518L87.3832 39.5937L87.5656 37.8786L87.6021 36.127L87.5656 34.4119L87.4561 32.7332L87.2372 31.0546L86.9453 29.4124L86.5439 27.8068L86.1061 26.2012L85.5588 24.6321L84.9385 23.0994L84.2452 21.6032L83.4789 20.1435L82.6397 18.7204L81.7275 17.3337L80.7423 15.9835L79.6842 14.7063L78.5895 13.429L77.4219 12.2612L76.1813 11.13L74.9043 10.0353L73.5542 9.01349L72.1677 8.02822L70.7081 7.15236L69.2121 6.31312L67.6796 5.54676L66.0742 4.85344L64.4322 4.19657L62.7537 3.64919L61.0388 3.17478L59.2874 2.77333L57.4995 2.48147L55.6751 2.22595L53.8507 2.11655L52.0263 2.04349L50.2384 2.08002L48.4504 2.18952L46.6625 2.40841L44.9476 2.66393L43.2327 3.02885L41.5542 3.46673L39.8758 3.97758L38.2703 4.59793L36.7013 5.2548L35.1688 5.98464L33.6363 6.75101L32.1768 7.62678L30.7902 8.5756L29.4037 9.56087L28.1266 10.6191L26.8495 11.7139L25.6454 12.8817L24.5143 14.0858L23.4197 15.363L22.398 16.7133L21.4493 18.0635L20.5736 19.4867L19.7709 20.9463L19.0411 22.479L18.3843 24.0117L17.8005 25.6173L17.2897 27.2595L16.8883 28.9016L16.5599 30.6167L16.4504 31.3465ZM53.9601 0.072966L52.0263 0L50.1289 0.0364385L48.2315 0.145932L46.3706 0.364919L44.5097 0.693311L42.6853 1.05823L40.8974 1.53264L39.1825 2.08002L37.4675 2.70037L35.7891 3.39377L34.1471 4.16004L32.5417 4.99938L31.0092 5.91167L29.5132 6.89694L28.0536 7.95526L26.6671 9.08645L25.3535 10.2542L24.0764 11.495L22.8723 12.7722L21.7047 14.1224L20.6466 15.5455L19.6249 17.0052L18.7127 18.5014L17.837 20.0706L17.0707 21.6762L16.341 23.3183L15.7572 24.997L15.2098 26.7121L14.772 28.5001L14.4071 30.2883L14.1517 32.1129L14.0422 33.1347L15.1004 33.2441L51.333 37.1852L60.2726 47.6949L61.0023 48.0964L86.9818 50.4684L88.0035 50.5778L88.1494 49.5925L89.536 39.8492V39.8126L89.6819 37.988L89.7549 36.1634L89.7184 34.3389L89.5724 32.5508L89.3535 30.7627L89.0616 29.0111L88.6238 27.296L88.1494 25.6173L87.5656 23.9387L86.9088 22.333L86.1791 20.7274L85.3763 19.1583L84.4641 17.6621L83.5154 16.2024L82.4573 14.7792L81.3626 13.429L80.195 12.0788L78.9544 10.8381L77.6409 9.63383L76.2908 8.46611L74.8678 7.40788L73.3718 6.38609L71.8393 5.40082L70.2703 4.52496L68.6283 3.72216L66.9134 2.95579L65.1984 2.29901L63.4105 1.7151L61.5861 1.20425L59.7252 0.802805L57.8279 0.474413L55.894 0.218898L53.9601 0.072966ZM60.5645 48.0599L60.2726 47.7315L61.0023 48.0964L60.5645 48.0599ZM89.536 39.8492V39.8857V39.8492Z" fill="#999999"/>
<path d="M55.7844 1.24071C35.57 -0.839338 17.399 13.0277 15.2462 32.2225L51.8802 36.2001L61.1117 47.0747L87.0911 49.4832L88.4777 39.7034C90.667 20.545 76.0353 3.28426 55.7844 1.24071V1.24071Z" fill="#E6E6E6"/>
<path fill-rule="evenodd" clip-rule="evenodd" d="M90.0468 52.4389L90.1562 51.3076H61.5496L51.5884 41.6738L50.8222 41.3454H15.2463L14.1517 42.3671V59.9198L14.5895 60.7226L19.6249 64.4448L20.2817 64.6638H84.2817L85.0479 64.3718L89.0251 60.6496L89.3535 59.9928L90.0468 52.4389ZM20.6466 62.6567L16.3045 59.4454V43.4254H50.3478L60.3455 53.0958L61.1118 53.3878H60.6374L60.3455 53.0958L61.1118 53.3878H87.7845L87.2372 59.4819L83.8438 62.6567H20.6466ZM51.26 41.3818L51.5884 41.6738L50.8222 41.3818H51.26ZM14.1517 41.3818H15.2098L14.1517 42.4036V41.3818ZM14.1517 60.4306V59.9563L14.5531 60.7591L14.1517 60.4306ZM19.9168 64.6638L19.6249 64.4448L20.2817 64.6638H19.9168ZM84.7195 64.6638H84.2817L85.0479 64.3718L84.7195 64.6638ZM89.2805 60.3942L89.0251 60.6496L89.317 59.9928L89.2805 60.3942Z" fill="#999999"/>
<path d="M88.2588 59.9198L88.9885 52.3295H61.1117L50.8221 42.3671H15.2462V59.9198L20.2816 63.642H84.2816L88.2588 59.9198Z" fill="#E6E6E6"/>
<path d="M20.2818 63.642H84.2818L88.259 59.9197H15.2465L20.2818 63.642Z" fill="#B3B3B3"/>
<path d="M46.1518 4.30604C38.7812 5.25484 32.3958 9.45137 31.9215 13.648C31.4471 17.8445 37.0298 20.472 44.4369 19.4867C51.8074 18.5379 58.1928 14.3414 58.6672 10.1448C59.1415 5.94818 53.5589 3.32076 46.1518 4.30604Z" fill="white"/>
<path d="M32.0674 23.6833C25.1347 23.6833 19.5155 29.814 19.5155 37.3678C19.5155 44.9217 25.1347 51.0523 32.0674 51.0523C38.9636 51.0523 44.5828 44.9217 44.5828 37.3678C44.5828 29.814 38.9636 23.6833 32.0674 23.6833Z" fill="black" stroke="#999999" stroke-width="4"/>
<path d="M94.2431 55.9056L95.2647 54.3729L95.0823 53.4606L94.8269 52.5848L94.535 51.709L94.2066 50.8697L93.8417 50.0669L93.4403 49.2641L92.966 48.4977L92.4916 47.7679L91.9808 47.0381L91.4335 46.3448L90.8862 45.6879L90.2659 45.0676L89.6456 44.4837L88.9888 43.8999L88.2955 43.3889L87.6022 42.8781L86.8725 42.4402L86.1062 42.0022L85.34 41.6009L84.5373 41.2359L83.7345 40.944L82.8953 40.652L82.0561 40.3966L81.2168 40.2142L80.3411 40.0682L79.4654 39.9587L78.5897 39.8858L77.6775 39.8492H76.7653L75.8896 39.9222L74.9774 40.0317L74.0652 40.1776L74.576 42.8051L75.3423 42.6591L76.1085 42.5496L76.9113 42.5132L77.6775 42.4766L78.4438 42.5132L79.21 42.5861L79.9398 42.6591L80.6695 42.8051L81.3993 42.9876L82.129 43.17L82.8223 43.4254L83.5156 43.6809L84.2089 44.0093L84.8656 44.3377L85.4859 44.7027L86.1062 45.104L86.7265 45.5054L87.3103 45.9799L87.8577 46.4543L88.405 46.9651L88.9158 47.476L89.4267 48.0599L89.8645 48.6438L90.3024 49.2276L90.7402 49.8844L91.1051 50.5413L91.4335 51.1982L91.7619 51.8915L92.0538 52.6213L92.2727 53.3512L92.4916 54.1175L92.6741 54.8838L93.6958 53.3146L94.2431 55.9056ZM94.2431 55.9056L95.5566 55.6501L95.3012 54.3729L94.2431 55.9056ZM60.9295 59.8467L59.8713 61.3793L61.4403 62.4375L94.2431 55.9056L93.7322 53.2782L60.9295 59.8467ZM59.8713 61.4158L60.1268 62.7295L61.4403 62.4375L59.8713 61.4158ZM74.0287 40.2142L73.1165 40.3966L72.2408 40.652L71.4016 40.944L70.5259 41.2724L69.7231 41.6373L68.9204 42.0387L68.1541 42.5132L67.4244 42.9876L66.7311 43.4984L66.0378 44.0458L65.381 44.5932L64.7607 45.2135L64.1404 45.8338L63.5931 46.4907L63.0458 47.1841L62.5715 47.8774L62.0971 48.6072L61.6593 49.3736L61.2944 50.1399L60.9295 50.9427L60.6011 51.7456L60.3092 52.5848L60.0903 53.4241L59.8713 54.2634L59.7254 55.1392L59.6159 56.0151L59.543 56.8908L59.5065 57.8031L59.543 58.7154L59.6159 59.6277L59.7254 60.54L59.8713 61.4158L62.462 60.9049L62.316 60.1386L62.2431 59.3723L62.1701 58.5695V57.8031L62.2066 57.0368L62.2431 56.307L62.3525 55.5407L62.4985 54.8108L62.6444 54.081L62.8634 53.3512L63.0823 52.6578L63.3742 51.9645L63.6661 51.2711L63.9945 50.6143L64.3594 49.9939L64.7607 49.3736L65.1986 48.7532L65.6365 48.1694L66.1108 47.622L66.6216 47.0746L67.169 46.5637L67.7163 46.0528L68.3001 45.6149L68.9204 45.1771L69.5407 44.7756L70.1975 44.3742L70.8907 44.0458L71.584 43.7174L72.2773 43.4254L73.007 43.2065L73.7733 42.9876L74.5395 42.8051L74.0287 40.2142Z" fill="#999999"/>
<path d="M61.1848 61.1604L93.9875 54.6284C92.1631 45.5784 83.3695 39.7032 74.3205 41.4913C65.235 43.3159 59.3604 52.1104 61.1848 61.1604Z" fill="#E6E6E6"/>
<path d="M81.91 41.7468C83.8804 43.8998 85.3034 46.6002 85.9237 49.702L61.1848 54.6285C60.9173 55.8935 60.8078 57.195 60.8565 58.5331C60.9294 58.5331 61.0024 58.521 61.0754 58.4966L93.2578 52.074C91.3604 46.9286 87.0549 43.1335 81.91 41.7468V41.7468Z" fill="#CCCCCC"/>
<path d="M93.7321 53.3513L93.2213 50.7239L60.7835 57.2194L61.3308 59.8103L93.7321 53.3513ZM97.8553 53.8621L97.8188 53.6432L97.7823 53.4608L97.7093 53.2783L97.6364 53.0959L97.5634 52.9134L97.4539 52.7309L97.3809 52.5849L97.2715 52.4025L97.162 52.2565L97.0161 52.1106L96.9066 51.9646L96.7607 51.8187L96.6147 51.6726L96.4687 51.5632L96.3228 51.4537L96.1768 51.3442L96.0309 51.2348L95.8485 51.1253L95.7025 51.0523L95.5201 50.9793L95.3376 50.9064L95.1552 50.8334L94.9727 50.7969L94.7903 50.7603L94.5714 50.7239L94.3889 50.6874H94.2065L93.9876 50.6509H93.8051L93.6227 50.6874H93.4038L93.1848 50.7239L93.7321 53.3513L93.8051 53.3148H93.8416H93.9146H93.9876H94.0605H94.097H94.17L94.243 53.3513H94.316L94.3524 53.3878H94.4254L94.4984 53.4243H94.5349L94.6079 53.4608L94.6443 53.4972L94.7173 53.5337L94.7538 53.5703L94.8268 53.6067L94.8633 53.6432L94.8998 53.7162L94.9727 53.7527L95.0092 53.7892L95.0457 53.8621L95.0822 53.8987L95.1187 53.9352L95.1552 54.0082V54.0811L95.1917 54.1176L95.2282 54.1906V54.2636L95.2646 54.3001V54.3731L97.8553 53.8621ZM95.4106 55.0299L98.0012 54.519L97.8553 53.8621L95.2646 54.3731L95.4106 55.0299ZM94.8998 59.19L95.0822 59.1534L95.3011 59.0805L95.4836 59.044L95.666 58.971L95.8485 58.8616L96.0309 58.7885L96.1768 58.6791L96.3593 58.5696L96.5052 58.4601L96.6512 58.3506L96.7971 58.2411L96.9431 58.0952L97.0526 57.9493L97.1985 57.8033L97.308 57.6573L97.4174 57.5113L97.5269 57.3288L97.5999 57.1829L97.7093 57.0005L97.7823 56.818L97.8553 56.6721L97.9283 56.4896L97.9648 56.3071L98.0012 56.0882L98.0377 55.9057L98.0742 55.7232V55.5043V55.3218V55.1393V54.9204L98.0377 54.738L98.0012 54.519L95.4106 55.0299L95.4471 55.1029V55.1759V55.2488V55.3218V55.3583V55.4313L95.4106 55.5043V55.5773V55.6138L95.3741 55.6867V55.7598L95.3376 55.7962L95.3011 55.8692V55.9057L95.2646 55.9787L95.2282 56.0152L95.1917 56.0882L95.1552 56.1247L95.1187 56.1977L95.0457 56.2341L95.0092 56.2706L94.9727 56.3071L94.8998 56.3436L94.8633 56.3801L94.8268 56.4166L94.7538 56.4531L94.6808 56.4896L94.6443 56.526H94.5714L94.4984 56.5626L94.4619 56.599H94.3889L94.8998 59.19ZM61.9511 63.0581L62.4619 65.649L94.8998 59.19L94.3889 56.599L61.9511 63.0581ZM57.7915 62.5107L57.8279 62.7296L57.9009 62.9121L57.9374 63.0945L58.0104 63.3135L58.0834 63.4595L58.1928 63.6419L58.3023 63.8244L58.4117 63.9704L58.5212 64.1529L58.6307 64.2988L58.7401 64.4447L58.8861 64.5542L59.032 64.7002L59.178 64.8096L59.3239 64.9557L59.4699 65.0651L59.6523 65.1381L59.7983 65.2476L59.9807 65.3206L60.1267 65.3935L60.3091 65.4665L60.4916 65.5395L60.674 65.6125L60.8929 65.649L61.0754 65.6855H61.2578L61.4403 65.7219H61.6592H61.8416H62.0605L62.243 65.6855L62.4619 65.649L61.9511 63.0581H61.8781H61.8051H61.7322H61.6592H61.6227H61.5497H61.4767H61.4038L61.3673 63.0216H61.2943L61.2213 62.985H61.1848L61.1119 62.9486L61.0389 62.9121L61.0024 62.8756L60.9294 62.8391L60.8929 62.8026L60.8564 62.7662L60.7835 62.7296L60.747 62.6932L60.7105 62.6567L60.674 62.5837L60.601 62.5472L60.5645 62.4742V62.4377L60.5281 62.3647L60.4916 62.3283L60.4551 62.2552L60.4186 62.2188V62.1458L60.3821 62.0728V61.9998L57.7915 62.5107ZM60.2726 61.3795L57.6455 61.8903L57.7915 62.5107L60.3821 61.9998L60.2726 61.3795ZM60.7835 57.2194L60.601 57.2559L60.4186 57.3288L60.2361 57.4019L60.0172 57.4749L59.8348 57.5478L59.6888 57.6208L59.5064 57.7303L59.3604 57.8398L59.178 57.9493L59.032 58.0587L58.8861 58.2047L58.7401 58.3142L58.6307 58.4601L58.4847 58.6061L58.3753 58.7521L58.2658 58.9345L58.1563 59.0805L58.0834 59.2629L58.0104 59.4089L57.9009 59.5914L57.8644 59.7739L57.7915 59.9563L57.7185 60.1388L57.682 60.3212L57.6455 60.5037V60.7226L57.609 60.905V61.0875V61.3065V61.4889L57.6455 61.7078L57.682 61.8903L60.2726 61.3795V61.3065V61.2335L60.2361 61.197V61.124L60.2726 61.0511V60.978V60.9416V60.8686L60.3091 60.7955V60.7226L60.3456 60.6861V60.6131L60.3821 60.5401L60.4186 60.5037L60.4551 60.4306L60.4916 60.3942L60.5281 60.3212L60.5645 60.2847L60.601 60.2482L60.6375 60.1752L60.674 60.1388L60.747 60.1022L60.7835 60.0657L60.82 60.0293L60.8929 59.9928L60.9294 59.9563L61.0024 59.9198H61.0754L61.1119 59.8833L61.1848 59.8468H61.2578L61.3308 59.8103L60.7835 57.2194Z" fill="#999999"/>
<path d="M58.9956 61.5985L59.1051 62.2552C59.397 63.6784 60.7836 64.6273 62.2066 64.3353L94.6444 57.8762C96.0675 57.5843 97.0162 56.1976 96.7243 54.7744L96.5783 54.1176C96.3229 52.6944 94.8999 51.7456 93.4768 52.0375L61.0755 58.4966C59.6524 58.7886 58.7037 60.1753 58.9956 61.5985V61.5985Z" fill="#E6E6E6"/>
<path d="M92.5646 56.4165L60.1268 62.8756C59.8592 62.9243 59.5916 62.9364 59.324 62.9121C59.8349 63.9339 61.0025 64.5908 62.2066 64.3353L94.6444 57.8762C96.0675 57.5842 97.0162 56.1976 96.7243 54.7744L96.5783 54.1176C96.3594 52.9498 95.4107 52.1105 94.2796 52.001C94.3769 52.1957 94.4498 52.4146 94.4985 52.6579L94.608 53.2783C94.8999 54.7014 93.9877 56.1246 92.5646 56.4165V56.4165Z" fill="#CCCCCC"/>
<path d="M68.7742 44.4472C66.585 45.6514 65.0525 47.7679 65.3444 49.1181C65.5998 50.5048 67.6066 50.6508 69.7594 49.4466C71.9122 48.2423 73.4447 46.1623 73.1528 44.7756C72.8974 43.3889 70.927 43.2429 68.7742 44.4472Z" fill="white"/>
<path d="M39.5474 40.9805L37.5041 39.3384L39.9487 38.3166C40.9704 37.9152 41.3353 36.8569 40.8245 35.9811C40.2772 35.1053 39.0366 34.7404 38.0514 35.1783L34.2566 36.784L31.1187 34.266C30.2794 33.6091 28.9659 33.6092 28.1996 34.3025C27.4334 34.9959 27.5063 36.1271 28.3456 36.784L30.3889 38.4261L27.9442 39.4478C26.959 39.8492 26.5576 40.9075 27.105 41.7833C27.6158 42.6591 28.8564 42.9875 29.8781 42.5861L33.6363 40.9805L36.8108 43.4984C37.65 44.1553 38.9636 44.1552 39.6933 43.4619C40.4596 42.7685 40.3866 41.6374 39.5474 40.9805V40.9805Z" fill="#600000"/>
</svg>
