<svg width="116" height="49" viewBox="0 0 116 49" fill="none" xmlns="http://www.w3.org/2000/svg">
<path d="M4.62582 25.6174L33.2324 42.9875C38.0123 35.1053 35.4947 24.8146 27.6133 20.0342C19.7319 15.2172 9.44224 17.7351 4.62582 25.6174Z" stroke="#999999" stroke-width="4"/>
<path d="M4.62582 25.6174L33.2324 42.9875C38.0123 35.1053 35.4947 24.8146 27.6133 20.0342C19.7319 15.2172 9.44224 17.7351 4.62582 25.6174Z" fill="#E6E6E6"/>
<path d="M33.05 25.3619C33.05 28.2813 32.2473 31.2372 30.6054 33.9011L9.07744 20.8004C8.01929 21.5667 7.03411 22.4791 6.1584 23.5009C6.23138 23.5252 6.29219 23.5616 6.34084 23.6103L34.4001 40.6522C36.4799 35.5433 35.8961 29.8505 33.05 25.3619V25.3619Z" fill="#CCCCCC"/>
<path d="M2.72846 24.4862L2.36358 25.0336C1.63382 26.2743 2.03519 27.9165 3.27578 28.6828L31.5175 45.834C32.7581 46.6004 34.4 46.1989 35.1663 44.9582L35.4946 44.4108C36.2609 43.1701 35.8595 41.5279 34.619 40.7616L6.34078 23.6104C5.10018 22.844 3.45822 23.2455 2.72846 24.4862Z" stroke="#999999" stroke-width="4"/>
<path d="M2.72846 24.4862L2.36358 25.0336C1.63382 26.2743 2.03519 27.9165 3.27578 28.6828L31.5175 45.834C32.7581 46.6004 34.4 46.1989 35.1663 44.9582L35.4946 44.4108C36.2609 43.1701 35.8595 41.5279 34.619 40.7616L6.34078 23.6104C5.10018 22.844 3.45822 23.2455 2.72846 24.4862Z" fill="#E6E6E6"/>
<path d="M30.9702 43.3525L2.72847 26.1647C2.48521 26.0187 2.27844 25.8484 2.10817 25.6538C1.77977 26.7851 2.21764 28.0623 3.27579 28.6827L31.5175 45.834C32.7581 46.6003 34.4001 46.1988 35.1663 44.9581L35.4947 44.4107C36.115 43.389 35.969 42.1118 35.2028 41.2725C35.1541 41.4914 35.069 41.6982 34.9474 41.8928L34.619 42.4402C33.8527 43.7174 32.2108 44.1188 30.9702 43.3525Z" fill="#CCCCCC"/>
<path d="M21.5196 18.465C19.1114 17.8811 16.5573 18.392 15.8275 19.5962C15.0978 20.8004 16.4843 22.2236 18.856 22.8075C21.2642 23.3913 23.8184 22.8805 24.5481 21.6763C25.2779 20.4721 23.9279 19.0489 21.5196 18.465Z" fill="white"/>
<path d="M95.4443 22.3696H16.9951V38.5721H95.4443V22.3696Z" fill="black"/>
<path fill-rule="evenodd" clip-rule="evenodd" d="M17.652 22.8075L56.9131 25.6173L57.7158 25.9093L57.4239 25.6539L56.9131 25.6173L57.7158 25.9093L67.6041 33.5726L94.6417 35.2147L96.0283 28.8286L96.2107 27.588L96.2472 26.3107L96.2107 25.07L96.0647 23.8293L95.8458 22.625L95.5174 21.4208L95.1161 20.253L94.6052 19.0853L93.9849 17.954L93.2917 16.8228L92.5254 15.7281L91.6862 14.6697L90.774 13.6115L89.7523 12.6263L88.6577 11.641L87.5265 10.6922L86.2859 9.81639L85.0089 8.94053L83.6223 8.1012L82.2358 7.29839L80.7398 6.56855L79.2073 5.87524L77.6018 5.21837L75.9598 4.59802L74.2449 4.05064L72.4935 3.5397L70.6691 3.06538L68.8082 2.66393L66.9108 2.33554L64.9769 2.04359L63.0066 1.8246L60.9998 1.64214L58.9564 1.53264L56.9496 1.49621L54.9427 1.53264L52.9724 1.6057L51.0385 1.75163L49.1046 1.97062L47.2438 2.22604L45.3829 2.55444L43.5585 2.91936L41.7706 3.35724L40.0191 3.83166L38.3042 4.3426L36.6622 4.92641L35.0568 5.54676L33.4878 6.24016L31.9918 6.97L30.5323 7.73628L29.1457 8.53917L27.8321 9.37841L26.5551 10.2907L25.3509 11.203L24.2563 12.1518L23.1981 13.1736L22.213 14.1954L21.3373 15.2537L20.498 16.3849L19.7683 17.4797L19.148 18.6474L18.6007 19.8517L18.1263 21.0558L17.7614 22.2966L17.652 22.8075ZM59.1024 0.0365276L56.9496 0H54.8698L52.7534 0.109494L50.7101 0.255426L48.6668 0.474413L46.66 0.766367L44.6896 1.09476L42.7557 1.49621L40.8584 1.93409L38.9975 2.44494L37.2096 3.02885L35.4581 3.6492L33.7432 4.30607L32.1012 5.03591L30.4958 5.76575L28.9633 6.60508L27.5038 7.44441L26.0807 8.35671L24.7672 9.30545L23.4901 10.2907L22.2859 11.3125L21.1913 12.3708L20.1332 13.4656L19.1845 14.5968L18.3452 15.7645L17.579 16.9688L16.8857 18.173L16.3019 19.4502L15.7911 20.7274L15.4262 22.0412L15.1343 23.3549L14.9883 24.1212L16.1925 24.1942L56.1833 27.0406L66.0716 34.7403L66.8743 34.9958L95.5539 36.7474L96.685 36.8204L96.8675 36.0906L98.4 29.0111V28.9747L98.5824 27.6244L98.6189 26.3107L98.5824 24.997L98.4365 23.6833L98.2175 22.3696L97.8527 21.1289L97.4148 19.8517L96.8675 18.6474L96.2472 17.4066L95.5174 16.2389L94.6782 15.0712L93.8025 13.9399L92.8173 12.8452L91.7227 11.7869L90.5915 10.7651L89.3509 9.74333L88.0739 8.7946L86.6873 7.8823L85.2643 7.00644L83.7683 6.16719L82.1993 5.3643L80.5573 4.63446L78.8424 3.94115L77.091 3.28428L75.3031 2.70046L73.4422 2.15308L71.5083 1.67867L69.5379 1.24078L67.5311 0.87586L65.4878 0.547379L63.3715 0.328481L61.2552 0.146021L59.1024 0.0365276ZM66.3635 34.9593L66.0716 34.7403L66.8743 34.9958L66.3635 34.9593ZM98.3635 29.0111V28.9747V29.0111Z" fill="#999999"/>
<path d="M61.1092 0.912488C38.7786 -0.620168 18.7101 9.48808 16.3019 23.4644L56.8037 26.3838L66.9838 34.266L95.6634 36.0176L97.1959 28.9382C99.6041 14.9618 83.4399 2.40865 61.1092 0.912488Z" fill="#E6E6E6"/>
<path fill-rule="evenodd" clip-rule="evenodd" d="M98.9472 38.1707L99.0566 37.3679H67.4945L56.4751 30.3613L55.5994 30.1059H16.3018L15.1342 30.8723V43.6445L15.572 44.2283L21.1547 46.9288L21.8845 47.0747H92.5983L93.401 46.8922L97.816 44.1553L98.1809 43.7175L98.9472 38.1707ZM22.2858 45.5786L17.5059 43.243V31.5656H55.125L66.108 38.6086L66.9837 38.8276H66.4728L66.108 38.6086L66.9837 38.8276H96.466L95.8457 43.2796L92.0874 45.5786H22.2858ZM56.1102 30.0695L56.4386 30.3249L55.5994 30.0695H56.1102ZM15.1342 30.0695H16.3383L15.1342 30.8357V30.0695ZM15.1342 43.9364V43.5715L15.6085 44.1553L15.1342 43.9364ZM21.4466 47.0383L21.1547 46.8922L21.8845 47.0383H21.4466ZM93.0361 47.0383H92.5253L93.3645 46.8193L93.0361 47.0383ZM98.1079 43.9364L97.7796 44.1189L98.1444 43.6445L98.1079 43.9364Z" fill="#999999"/>
<path d="M96.9768 43.6445L97.7795 38.1341H66.9836L55.5994 30.8721H16.3018V43.6445L21.8844 46.3448H92.5982L96.9768 43.6445Z" fill="#E6E6E6"/>
<path d="M21.8847 46.3448H92.5985L96.9771 43.6445H16.302L21.8847 46.3448Z" fill="#B3B3B3"/>
<path d="M71.0338 34.5215L93.9483 35.9082L95.6633 36.0176L97.1958 28.9382C98.8012 19.6328 92.2334 10.9842 81.0681 5.80237C87.4535 11.3856 85.848 18.684 78.9518 26.7852C76.799 29.3031 74.1353 31.894 71.0338 34.5215Z" fill="#CCCCCC"/>
<path d="M66.9109 41.236C66.1081 41.9658 64.8311 42.8781 63.9553 43.6445H96.5757L97.7798 37.9882H95.4446H70.3043C69.234 39.0587 68.1028 40.1412 66.9109 41.236Z" fill="#CCCCCC"/>
<path d="M50.4548 3.13832C42.318 3.83166 35.2758 6.89697 34.7285 9.9623C34.2177 12.9911 40.4206 14.9252 48.5574 14.1954C56.7307 13.5021 63.7729 10.4367 64.2838 7.40786C64.8311 4.34253 58.6281 2.44497 50.4548 3.13832Z" fill="white"/>
<path d="M25.3145 12.8452C21.6657 14.4144 19.4399 16.9688 20.3886 18.5014C21.3008 20.0341 25.0226 20.0341 28.6714 18.465C32.3202 16.8959 34.546 14.3415 33.5973 12.8088C32.6851 11.2762 28.9633 11.2761 25.3145 12.8452Z" fill="white"/>
<path d="M34.9108 17.2608C27.2483 17.2608 21.0454 21.7128 21.0454 27.2231C21.0454 32.7333 27.2483 37.1854 34.9108 37.1854C42.5368 37.1854 48.7397 32.7333 48.7397 27.2231C48.7397 21.7128 42.5368 17.2608 34.9108 17.2608Z" fill="black" stroke="#999999" stroke-width="4"/>
<path d="M79.6817 43.0969L111.025 31.4196C107.777 22.771 98.1446 18.3555 89.497 21.6032C80.8493 24.8145 76.4708 34.4484 79.6817 43.0969Z" stroke="#999999" stroke-width="4"/>
<path d="M79.6817 43.0969L111.025 31.4196C107.777 22.771 98.1446 18.3555 89.497 21.6032C80.8493 24.8145 76.4708 34.4484 79.6817 43.0969Z" fill="#E6E6E6"/>
<path d="M97.05 20.618C99.3488 22.4426 101.173 24.8876 102.268 27.8434L78.6236 36.638C78.5871 37.9517 78.6965 39.2653 78.952 40.579C79.0249 40.5547 79.0857 40.5304 79.1344 40.5061L109.894 29.0111C107.194 24.2307 102.341 21.1654 97.05 20.618V20.618Z" fill="#CCCCCC"/>
<path d="M77.6018 43.8999L77.8207 44.5203C78.3315 45.8705 79.864 46.6004 81.2141 46.0895L112.192 34.5215C113.542 34.0106 114.272 32.4779 113.761 31.1277L113.506 30.5074C112.995 29.1207 111.463 28.4273 110.113 28.9382L79.1343 40.5062C77.7842 41.017 77.091 42.5497 77.6018 43.8999V43.8999Z" stroke="#999999" stroke-width="4"/>
<path d="M77.6018 43.8999L77.8207 44.5203C78.3315 45.8705 79.864 46.6004 81.2141 46.0895L112.192 34.5215C113.542 34.0106 114.272 32.4779 113.761 31.1277L113.506 30.5074C112.995 29.1207 111.463 28.4273 110.113 28.9382L79.1343 40.5062C77.7842 41.017 77.091 42.5497 77.6018 43.8999V43.8999Z" fill="#E6E6E6"/>
<path d="M109.894 33.3902L78.9153 44.9581C78.6478 45.0555 78.3923 45.1163 78.1491 45.1406C78.8059 46.0894 80.0829 46.4908 81.2141 46.0894L112.192 34.5215C113.542 34.0106 114.272 32.4779 113.761 31.1277L113.506 30.5074C113.105 29.3761 112.01 28.7193 110.879 28.7922C111.025 28.9625 111.134 29.1571 111.207 29.3761L111.426 29.9964C111.937 31.3466 111.244 32.8793 109.894 33.3902V33.3902Z" fill="#CCCCCC"/>
<path d="M84.4981 25.3985C82.5643 26.9312 81.3967 29.2667 81.871 30.5804C82.3454 31.8941 84.3157 31.7116 86.2861 30.1789C88.2199 28.6463 89.3876 26.3473 88.9132 25.0336C88.4024 23.7199 86.432 23.8659 84.4981 25.3985V25.3985Z" fill="white"/>
<path d="M43.1936 29.8504L40.9314 28.6462L43.6315 27.9163C44.7261 27.5879 45.164 26.8216 44.5802 26.2012C43.9964 25.5809 42.6098 25.3254 41.5152 25.6173L37.319 26.7851L33.8527 24.9606C32.904 24.4862 31.4809 24.4861 30.6417 24.997C29.8025 25.5079 29.8755 26.3108 30.7877 26.7851L33.0499 27.9893L30.3498 28.7191C29.2552 29.0475 28.8173 29.8139 29.4011 30.4343C29.9849 31.0546 31.3715 31.31 32.4661 31.0181L36.6622 29.8504L40.1286 31.675C41.0773 32.1494 42.5003 32.1493 43.3396 31.6384C44.1788 31.1276 44.1058 30.3248 43.1936 29.8504Z" fill="#600000"/>
</svg>
