<svg width="87" height="72" viewBox="0 0 87 72" fill="none" xmlns="http://www.w3.org/2000/svg">
<path d="M5.20506 66.4813H38.6296C38.6296 57.2489 31.1492 49.7681 21.9173 49.7681C12.6854 49.7681 5.20506 57.2489 5.20506 66.4813Z" stroke="#999999" stroke-width="4"/>
<path d="M5.20506 66.4813H38.6296C38.6296 57.2489 31.1492 49.7681 21.9173 49.7681C12.6854 49.7681 5.20506 57.2489 5.20506 66.4813Z" fill="#E6E6E6"/>
<path d="M29.3248 51.4831C30.8574 54.001 31.6967 56.9204 31.6967 60.0587H6.48227C5.97141 61.263 5.60652 62.5402 5.38758 63.8539C5.46056 63.8539 5.53354 63.8539 5.60652 63.8539H38.4473C37.5715 58.4166 34.105 53.8551 29.3248 51.4831Z" fill="#CCCCCC"/>
<path d="M2.94276 66.4813V67.1381C2.94276 68.5978 4.14692 69.8021 5.60651 69.8021H38.6662C40.1258 69.8021 41.2935 68.5978 41.2935 67.1381V66.4813C41.2935 65.0216 40.1258 63.8539 38.6662 63.8539H5.60651C4.14692 63.8539 2.94276 65.0216 2.94276 66.4813Z" stroke="#999999" stroke-width="4"/>
<path d="M2.94276 66.4813V67.1381C2.94276 68.5978 4.14692 69.8021 5.60651 69.8021H38.6662C40.1258 69.8021 41.2935 68.5978 41.2935 67.1381V66.4813C41.2935 65.0216 40.1258 63.8539 38.6662 63.8539H5.60651C4.14692 63.8539 2.94276 65.0216 2.94276 66.4813Z" fill="#E6E6E6"/>
<path d="M36.8782 67.941H3.85499C3.56308 67.941 3.29549 67.8923 3.05223 67.795C3.34414 68.9628 4.36586 69.8021 5.60651 69.8021H38.6662C40.1258 69.8021 41.2935 68.5978 41.2935 67.1381V66.4813C41.2935 65.3136 40.5272 64.2918 39.469 63.9634C39.5176 64.1823 39.542 64.4013 39.542 64.6202V65.2771C39.542 66.7367 38.3378 67.941 36.8782 67.941V67.941Z" fill="#CCCCCC"/>
<path d="M15.8967 51.5926C13.5614 52.3224 11.6274 54.0741 11.6274 55.4972C11.6274 56.8839 13.5614 57.4313 15.8967 56.665C18.2685 55.8986 20.166 54.147 20.166 52.7603C20.166 51.3372 18.2685 50.8262 15.8967 51.5926Z" fill="white"/>
<path d="M79.6445 37.5432H8.63551V57.2853H79.6445V37.5432Z" fill="black"/>
<path d="M44.6506 1.99998C24.2894 1.99998 7.79602 18.4944 7.79602 38.8569L44.6871 39.0759L55.1232 49.4761L81.2133 49.2206L81.4688 38.8569C81.4688 18.4944 64.9754 1.99998 44.6506 1.99998V1.99998Z" stroke="#999999" stroke-width="4"/>
<path d="M44.6506 1.99998C24.2894 1.99998 7.79602 18.4944 7.79602 38.8569L44.6871 39.0759L55.1232 49.4761L81.2133 49.2206L81.4688 38.8569C81.4688 18.4944 64.9754 1.99998 44.6506 1.99998V1.99998Z" fill="#E6E6E6"/>
<path d="M81.0312 60.5696L81.761 52.5779H53.8828L43.5927 42.0682H8.01524V60.5696L13.0508 64.4742H77.0538L81.0312 60.5696Z" stroke="#999999" stroke-width="4"/>
<path d="M81.0312 60.5696L81.761 52.5779H53.8828L43.5927 42.0682H8.01524V60.5696L13.0508 64.4742H77.0538L81.0312 60.5696Z" fill="#E6E6E6"/>
<path d="M13.0507 64.4742H77.0536L81.031 60.5696H8.0151L13.0507 64.4742Z" fill="#B3B3B3"/>
<path d="M58.7721 49.4395L79.6443 49.2206H81.2133L81.4688 38.8569C81.4688 25.3549 74.2073 13.5315 63.3698 7.10895C69.9745 14.5168 69.6826 25.2089 64.72 37.5432C63.1509 41.3748 61.144 45.3524 58.7721 49.4395V49.4395Z" fill="#CCCCCC"/>
<path d="M53.8096 57.2853C53.0798 58.38 52.3257 59.4748 51.5472 60.5696H81.0309L81.7607 52.5778H79.6443H56.8747C55.9017 54.1348 54.88 55.704 53.8096 57.2853Z" fill="#CCCCCC"/>
<path d="M35.419 6.26961C28.1575 8.05771 22.3192 13.1301 22.3192 17.5821C22.3192 22.0341 28.1575 24.1871 35.419 22.3625C42.644 20.5744 48.5188 15.5021 48.5188 11.05C48.5188 6.59803 42.644 4.44501 35.419 6.26961Z" fill="white"/>
<path d="M14.2551 22.691C11.2265 25.2819 9.62093 29.15 10.7156 31.3031C11.7738 33.4196 15.1309 33.0547 18.1595 30.4273C21.1882 27.7998 22.7937 23.9682 21.7355 21.8152C20.6408 19.6622 17.3203 20.0636 14.2551 22.691Z" fill="white"/>
<path d="M24.8368 26.4131C17.9037 26.4131 12.2843 32.8722 12.2843 40.8275C12.2843 48.8192 17.9037 55.2783 24.8368 55.2783C31.7334 55.2783 37.3528 48.8192 37.3528 40.8275C37.3528 32.8722 31.7334 26.4131 24.8368 26.4131Z" fill="black" stroke="#999999" stroke-width="4"/>
<path d="M27.0626 32.4343C23.0488 32.4343 19.7647 36.193 19.7647 40.8275C19.7647 45.4619 23.0488 49.2571 27.0626 49.2571C31.0765 49.2571 34.3606 45.4619 34.3606 40.8275C34.3606 36.193 31.0765 32.4343 27.0626 32.4343Z" fill="#BA0000"/>
<path d="M24.9829 37.3243C23.2314 37.3243 21.7718 38.9664 21.7718 41.0099C21.7718 43.0535 23.2314 44.7321 24.9829 44.7321C26.7709 44.7321 28.2305 43.0535 28.2305 41.0099C28.2305 38.9664 26.7709 37.3243 24.9829 37.3243Z" fill="#600000"/>
<path d="M24.6544 34.4048C23.3042 34.4048 21.8082 35.6456 21.2608 37.1783C20.7135 38.6745 21.3338 39.9152 22.6474 39.9152C23.9975 39.9152 25.4936 38.6745 26.041 37.1783C26.5883 35.6456 25.968 34.4048 24.6544 34.4048Z" fill="white"/>
<path d="M30.6387 39.5867C28.5223 39.5867 26.1139 41.5573 25.2747 43.9658C24.3989 46.4107 25.3841 48.3448 27.5005 48.3448C29.6169 48.3448 32.0253 46.4107 32.8645 43.9658C33.7403 41.5573 32.7551 39.5867 30.6387 39.5867Z" fill="white"/>
<path d="M48.628 66.4813H82.0891C82.0891 57.2489 74.5722 49.7681 65.3403 49.7681C56.1084 49.7681 48.628 57.2489 48.628 66.4813Z" stroke="#999999" stroke-width="4"/>
<path d="M48.628 66.4813H82.0891C82.0891 57.2489 74.5722 49.7681 65.3403 49.7681C56.1084 49.7681 48.628 57.2489 48.628 66.4813Z" fill="#E6E6E6"/>
<path d="M72.7844 51.4831C74.2805 54.001 75.1562 56.9204 75.1562 60.0587H49.9054C49.3945 61.2508 49.0418 62.5158 48.8472 63.8539C48.9201 63.8539 48.981 63.8539 49.0296 63.8539H81.8704C81.0311 58.4166 77.5281 53.8551 72.7844 51.4831Z" fill="#CCCCCC"/>
<path d="M46.4022 66.4813V67.1381C46.4022 68.5978 47.5699 69.8021 49.0295 69.8021H82.0892C83.5488 69.8021 84.7529 68.5978 84.7529 67.1381V66.4813C84.7529 65.0216 83.5488 63.8539 82.0892 63.8539H49.0295C47.5699 63.8539 46.4022 65.0216 46.4022 66.4813Z" stroke="#999999" stroke-width="4"/>
<path d="M46.4022 66.4813V67.1381C46.4022 68.5978 47.5699 69.8021 49.0295 69.8021H82.0892C83.5488 69.8021 84.7529 68.5978 84.7529 67.1381V66.4813C84.7529 65.0216 83.5488 63.8539 82.0892 63.8539H49.0295C47.5699 63.8539 46.4022 65.0216 46.4022 66.4813Z" fill="#E6E6E6"/>
<path d="M80.3377 67.941H47.278C47.0104 67.941 46.7428 67.8923 46.4752 67.795C46.7671 68.9628 47.8253 69.8021 49.0295 69.8021H82.0892C83.5488 69.8021 84.7529 68.5978 84.7529 67.1381V66.4813C84.7529 65.3136 83.9502 64.2918 82.892 63.9634C82.9406 64.1823 82.9649 64.4013 82.9649 64.6202V65.2771C82.9649 66.7367 81.7973 67.941 80.3377 67.941V67.941Z" fill="#CCCCCC"/>
<path d="M59.3196 51.5926C56.9842 52.3224 55.0868 54.0741 55.0868 55.4972C55.0868 56.8839 56.9842 57.4313 59.3196 56.665C61.6914 55.8986 63.5889 54.147 63.5889 52.7603C63.5889 51.3372 61.6914 50.8262 59.3196 51.5926Z" fill="white"/>
</svg>
