<svg width="59" height="32" viewBox="0 0 59 32" fill="none" xmlns="http://www.w3.org/2000/svg">
<path fill-rule="evenodd" clip-rule="evenodd" d="M4.30067 3.15235C9.91557 1.98009 49.1412 1.9484 54.5987 3.15235C56.3566 3.56422 57.5111 4.95827 57.8521 7.08101C58.9279 13.7661 58.9017 20.4828 57.8521 27.1679C57.5111 29.2906 56.3828 30.8748 54.5987 31.0649C49.1412 31.6985 9.91557 31.6668 4.30067 31.0649C2.54273 30.8748 1.25708 29.2906 1.07341 27.1679C0.443705 20.4828 0.312516 13.7661 1.07341 7.08101C1.30955 4.95827 2.54273 3.53254 4.30067 3.15235Z" fill="black" fill-opacity="0.101961"/>
<path fill-rule="evenodd" clip-rule="evenodd" d="M3.74989 1.63184C9.36479 0.459578 48.5904 0.427895 54.0741 1.63184C55.8058 2.04372 56.9603 3.43776 57.3014 5.5605C58.3771 12.2456 58.3509 18.9623 57.3014 25.6474C56.9603 27.7701 55.832 29.3543 54.0741 29.5444C48.5904 30.178 9.36479 30.1463 3.74989 29.5444C1.99195 29.3543 0.732535 27.7701 0.522633 25.6474C-0.107076 18.9623 -0.238265 12.2456 0.522633 5.5605C0.758773 3.43776 2.01819 2.01203 3.74989 1.63184Z" fill="#E6E6E6"/>
<path fill-rule="evenodd" clip-rule="evenodd" d="M3.74989 0.902959C9.36479 -0.300986 48.5904 -0.300986 54.0741 0.902959C55.8058 1.31483 56.9603 2.70888 57.3014 4.83162C58.3771 11.5167 58.3509 18.2017 57.3014 24.9185C56.9603 27.0412 55.832 28.6254 54.0741 28.8155C48.5904 29.4174 9.36479 29.4174 3.74989 28.8155C1.99195 28.6254 0.732535 27.0412 0.522633 24.9185C-0.107076 18.2017 -0.238265 11.5167 0.522633 4.83162C0.758773 2.70888 2.01819 1.28315 3.74989 0.902959Z" fill="white"/>
<path fill-rule="evenodd" clip-rule="evenodd" d="M5.00945 2.8672C10.0209 1.78998 48.6692 1.7583 53.5757 2.8672C55.15 3.21571 56.1995 4.48302 56.4881 6.3523C57.4589 12.372 57.4327 18.3601 56.4881 24.3798C56.1995 26.2808 55.1762 27.7065 53.5757 27.8966C48.6692 28.4352 10.0209 28.4352 5.00945 27.8966C3.40894 27.7065 2.28071 26.2808 2.09704 24.3798C1.54605 18.3601 1.41486 12.372 2.09704 6.3523C2.30695 4.45134 3.43518 3.18403 5.00945 2.8672Z" fill="#E6E6E6"/>
<path fill-rule="evenodd" clip-rule="evenodd" d="M4.64177 2.32891C9.6532 1.25169 48.3016 1.25169 53.2081 2.32891C54.7823 2.67742 55.8319 3.94473 56.1205 5.84569C57.0913 11.8337 57.065 17.8535 56.1205 23.8415C55.8319 25.7425 54.8086 27.1682 53.2081 27.3583C48.3016 27.8969 9.6532 27.8969 4.64177 27.3583C3.04126 27.1999 1.91303 25.7742 1.72937 23.8415C1.17837 17.8535 1.04718 11.8337 1.72937 5.84569C1.93927 3.91304 3.0675 2.67742 4.64177 2.32891Z" fill="#CC191C"/>
<path fill-rule="evenodd" clip-rule="evenodd" d="M4.64177 1.12452C9.6532 0.0473081 48.3016 0.0156254 53.2081 1.12452C54.7823 1.47303 55.8319 2.74034 56.1205 4.60962C57.0913 10.6293 57.065 16.6174 56.1205 22.6371C55.8319 24.5381 54.8086 25.9638 53.2081 26.1539C48.3016 26.6925 9.6532 26.6925 4.64177 26.1539C3.04126 25.9638 1.91303 24.5381 1.72937 22.6371C1.17837 16.6174 1.04718 10.6293 1.72937 4.60962C1.93927 2.70866 3.0675 1.44135 4.64177 1.12452Z" fill="#FF6595"/>
<path fill-rule="evenodd" clip-rule="evenodd" d="M4.74685 1.28301C9.7058 0.205794 48.2755 0.205794 53.1295 1.28301C54.6775 1.63152 55.7008 2.86715 55.9894 4.73643C56.934 10.6611 56.934 16.5858 55.9894 22.5105C55.7008 24.3797 54.7037 25.8055 53.1295 25.9639C48.2755 26.5025 9.7058 26.5025 4.74685 25.9639C3.17258 25.8055 2.04435 24.4114 1.86068 22.5105C1.30969 16.5858 1.20474 10.6611 1.86068 4.73643C2.07058 2.83546 3.17258 1.59984 4.74685 1.28301Z" fill="#FD628E"/>
<path fill-rule="evenodd" clip-rule="evenodd" d="M4.82536 1.44158C9.73184 0.39605 48.249 0.364368 53.0243 1.44158C54.5461 1.79009 55.5694 3.02572 55.858 4.86332C56.8026 10.6929 56.7763 16.5543 55.858 22.3839C55.5694 24.2215 54.5724 25.6472 53.0243 25.8056C48.249 26.3442 9.73184 26.3125 4.82536 25.8056C3.27733 25.6472 2.17534 24.2532 2.01791 22.3839C1.46691 16.5543 1.36196 10.6929 2.01791 4.86332C2.22781 2.99404 3.30356 1.75841 4.82536 1.44158Z" fill="#FA5E87"/>
<path fill-rule="evenodd" clip-rule="evenodd" d="M4.93047 1.60007C9.75824 0.554535 48.1967 0.554535 52.9195 1.60007C54.4413 1.94858 55.4384 3.15252 55.727 4.95844C56.6453 10.7247 56.6191 16.491 55.727 22.2572C55.4384 24.0948 54.4676 25.4572 52.9195 25.6473C48.1967 26.1542 9.75824 26.1542 4.93047 25.6473C3.40867 25.4572 2.30668 24.0948 2.14926 22.2572C1.59826 16.491 1.49331 10.7247 2.14926 4.95844C2.35916 3.12084 3.43491 1.91689 4.93047 1.60007Z" fill="#F85B80"/>
<path fill-rule="evenodd" clip-rule="evenodd" d="M5.03547 1.75843C9.81076 0.744585 48.1705 0.744585 52.8409 1.75843C54.3102 2.10694 55.3072 3.27921 55.5958 5.08512C56.4879 10.788 56.4879 16.4592 55.5958 22.1304C55.3072 23.9364 54.3364 25.2987 52.8409 25.4571C48.1705 25.9957 9.81076 25.9641 5.03547 25.4571C3.53991 25.2987 2.46416 23.968 2.2805 22.1304C1.75574 16.4592 1.65079 10.788 2.2805 5.08512C2.4904 3.27921 3.53991 2.07526 5.03547 1.75843Z" fill="#F65879"/>
<path fill-rule="evenodd" clip-rule="evenodd" d="M5.14048 1.91652C9.83705 0.934355 48.1443 0.902673 52.736 1.91652C54.2053 2.26503 55.1761 3.43729 55.4385 5.21153C56.3568 10.8194 56.3305 16.4272 55.4385 22.0351C55.1761 23.7776 54.2315 25.14 52.736 25.2984C48.1443 25.8053 9.83705 25.8053 5.14048 25.2984C3.64492 25.14 2.5954 23.8093 2.41174 22.0351C1.91322 16.4272 1.80827 10.8194 2.41174 5.21153C2.62164 3.40561 3.67116 2.23335 5.14048 1.91652Z" fill="#F35572"/>
<path fill-rule="evenodd" clip-rule="evenodd" d="M5.24533 2.075C9.86319 1.09284 48.118 1.09284 52.6309 2.075C54.074 2.42351 55.0448 3.56409 55.3071 5.30664C56.1992 10.8511 56.173 16.3639 55.3071 21.9084C55.0448 23.651 54.1002 24.9816 52.6309 25.14C48.118 25.647 9.86319 25.6153 5.24533 25.14C3.77601 24.9816 2.7265 23.651 2.56907 21.9084C2.04431 16.3639 1.93936 10.8511 2.56907 5.30664C2.75273 3.56409 3.80225 2.39183 5.24533 2.075Z" fill="#F1516C"/>
<path fill-rule="evenodd" clip-rule="evenodd" d="M5.35034 2.26515C9.88949 1.28299 48.0918 1.25131 52.5522 2.26515C53.9691 2.58198 54.9137 3.72256 55.176 5.43343C56.0419 10.8829 56.0419 16.3323 55.176 21.7817C54.9137 23.4926 53.9953 24.7916 52.5522 24.95C48.0918 25.4569 9.88949 25.4569 5.35034 24.95C3.90725 24.8233 2.85774 23.5243 2.70031 21.7817C2.20179 16.3323 2.09684 10.8829 2.70031 5.43343C2.91021 3.69088 3.90725 2.5503 5.35034 2.26515Z" fill="#EE4E65"/>
<path fill-rule="evenodd" clip-rule="evenodd" d="M5.42921 2.42364C9.94212 1.44147 48.0395 1.44147 52.4475 2.42364C53.8381 2.74046 54.7826 3.84936 55.045 5.56023C55.9109 10.9146 55.8846 16.3007 55.045 21.6551C54.7826 23.3659 53.8643 24.6333 52.4475 24.7917C48.0395 25.2669 9.94212 25.2669 5.42921 24.7917C4.01236 24.6333 2.98909 23.3659 2.83166 21.6551C2.33314 16.3007 2.22819 10.9146 2.83166 5.56023C3.04156 3.84936 4.0386 2.70878 5.42921 2.42364Z" fill="#EC4B5E"/>
<path fill-rule="evenodd" clip-rule="evenodd" d="M5.53396 2.582C9.96816 1.63152 48.0131 1.63152 52.3423 2.582C53.7329 2.89883 54.6512 4.00773 54.9136 5.65523C55.7532 10.9463 55.7532 16.2373 54.9136 21.5283C54.6512 23.2075 53.7591 24.4748 52.3423 24.6332C48.0131 25.1084 9.96816 25.1084 5.53396 24.6332C4.14335 24.4748 3.14631 23.2392 2.98889 21.5283C2.49037 16.2373 2.38542 10.9463 2.98889 5.65523C3.17255 3.97604 4.14335 2.86715 5.53396 2.582Z" fill="#EA4857"/>
<path fill-rule="evenodd" clip-rule="evenodd" d="M5.63909 2.74058C9.99457 1.82178 47.987 1.7901 52.2375 2.74058C53.6019 3.05741 54.5202 4.13462 54.7826 5.78213C55.596 11.0098 55.596 16.2058 54.7826 21.4017C54.5202 23.0492 53.6281 24.3165 52.2375 24.4433C47.987 24.9185 9.99457 24.9185 5.63909 24.4433C4.24848 24.3165 3.27768 23.0809 3.12025 21.4017C2.62173 16.2058 2.54302 11.0098 3.12025 5.78213C3.30392 4.13462 4.27472 3.02573 5.63909 2.74058Z" fill="#E74450"/>
<path fill-rule="evenodd" clip-rule="evenodd" d="M5.74408 2.89906C10.0471 1.98026 47.9608 1.98026 52.1589 2.89906C53.497 3.21589 54.3891 4.2931 54.6252 5.90892C55.4649 11.0415 55.4386 16.1741 54.6252 21.3068C54.3891 22.9226 53.5232 24.1265 52.1589 24.2849C47.9608 24.7602 10.0471 24.7602 5.74408 24.2849C4.37971 24.1582 3.40891 22.9226 3.25148 21.3068C2.7792 16.1741 2.67425 11.0415 3.25148 5.90892C3.43515 4.26142 4.40595 3.18421 5.74408 2.89906Z" fill="#E54149"/>
<path fill-rule="evenodd" clip-rule="evenodd" d="M4.64201 1.12452C9.65344 0.0473081 48.3018 0.0156254 53.2083 1.12452C54.7826 1.47303 55.8321 2.74034 56.1207 4.60963C56.5667 7.33434 56.8029 10.0591 56.8291 12.7838C47.5147 8.15809 7.55441 20.451 1.25732 12.7204C1.28356 10.0274 1.41475 7.33434 1.72961 4.60963C1.93951 2.70866 3.06774 1.44135 4.64201 1.12452Z" fill="white" fill-opacity="0.290196"/>
<path fill-rule="evenodd" clip-rule="evenodd" d="M4.90428 2.29688C6.3736 2.29688 7.58054 3.7226 7.58054 5.52852C7.58054 7.30275 6.3736 8.72848 4.90428 8.72848C3.43497 8.72848 2.22803 7.30275 2.22803 5.52852C2.22803 3.7226 3.43497 2.29688 4.90428 2.29688Z" fill="white"/>
<path fill-rule="evenodd" clip-rule="evenodd" d="M8.97108 1.47314C9.70574 1.47314 10.3092 2.17017 10.3092 3.05728C10.3092 3.9444 9.70574 4.6731 8.97108 4.6731C8.26265 4.6731 7.65918 3.9444 7.65918 3.05728C7.65918 2.17017 8.26265 1.47314 8.97108 1.47314Z" fill="white"/>
<path fill-rule="evenodd" clip-rule="evenodd" d="M53.6542 21.4966C54.5463 21.4966 55.281 22.352 55.281 23.4292C55.281 24.5065 54.5463 25.3936 53.6542 25.3936C52.7884 25.3936 52.0537 24.5065 52.0537 23.4292C52.0537 22.352 52.7884 21.4966 53.6542 21.4966Z" fill="white"/>
<path d="M16.7402 13.3398C16.3105 10.4948 15.2168 8.95182 13.459 8.71094C13.1725 8.67188 12.8763 8.65234 12.5703 8.65234C11.1315 8.65234 10.0117 9.14714 9.21094 10.1367C8.46875 11.0547 8.09766 12.2493 8.09766 13.7207C8.09766 14.0072 8.11719 14.3327 8.15625 14.6973C8.29297 15.9668 8.46875 16.8978 8.68359 17.4902C9.04818 18.4993 9.64062 19.1992 10.4609 19.5898C10.9102 19.8047 11.8802 19.9382 13.3711 19.9902C14.862 20.0423 16.0143 18.7793 16.8281 16.2012L14.0938 16.0059C13.6836 16.8392 13.2083 17.2559 12.668 17.2559C12.4141 17.2559 12.1406 17.1582 11.8477 16.9629C11.0404 16.429 10.6367 15.6055 10.6367 14.4922C10.6367 14.3815 10.6432 14.2448 10.6562 14.082C10.7604 12.7539 11.3333 12.0508 12.375 11.9727C13.4167 11.8945 14.0156 12.4382 14.1719 13.6035L16.7402 13.3398ZM20.0312 8.91602C19.901 10.765 19.8359 12.4382 19.8359 13.9355C19.8359 15.4264 19.901 16.7448 20.0312 17.8906L23.7812 17.4219L23.7031 20.3125L17.4531 20.4688L17.0625 8.75L20.0312 8.91602ZM24.3867 15.3223C24.4388 13.6556 24.8424 12.2103 25.5977 10.9863C26.5026 9.51497 27.7266 8.7793 29.2695 8.7793C30.8776 8.7793 32.0397 9.1862 32.7559 10C33.3353 10.6641 33.7943 11.862 34.1328 13.5938C34.263 14.2643 34.3281 14.9023 34.3281 15.5078C34.3281 16.7904 34.0156 17.8646 33.3906 18.7305C32.4792 19.9935 31.0957 20.5957 29.2402 20.5371C27.3848 20.4785 26.112 20.0065 25.4219 19.1211C24.6797 18.1771 24.3346 16.9108 24.3867 15.3223ZM30.7441 12.666C30.2363 12.1842 29.7578 11.9434 29.3086 11.9434C28.7617 11.9434 28.2572 12.3079 27.7949 13.0371C27.3783 13.6947 27.1699 14.3359 27.1699 14.9609C27.1699 15.5534 27.3587 16.1556 27.7363 16.7676C28.1595 17.4577 28.6478 17.8027 29.2012 17.8027C29.7806 17.8027 30.3438 17.4512 30.8906 16.748C31.4049 16.084 31.6621 15.4492 31.6621 14.8438C31.6621 14.1341 31.3561 13.4082 30.7441 12.666ZM34.0938 18.9258L35.3926 16.0156C37.0137 17.0833 38.2702 17.6172 39.1621 17.6172C39.4876 17.6172 39.7936 17.5228 40.0801 17.334C40.4056 17.1257 40.5684 16.8685 40.5684 16.5625C40.5684 16.1003 39.9661 15.7161 38.7617 15.4102C37.0039 14.9609 35.819 14.0397 35.207 12.6465C35.0052 12.1908 34.9043 11.7611 34.9043 11.3574C34.9043 10.3158 35.4316 9.52799 36.4863 8.99414C37.3132 8.57747 38.2995 8.36914 39.4453 8.36914C40.4609 8.36914 41.6523 8.5026 43.0195 8.76953L42.0918 11.543C41.0632 11.0807 40.2233 10.8496 39.5723 10.8496C39.2793 10.8496 38.9863 10.9212 38.6934 11.0645C38.3418 11.2337 38.166 11.4583 38.166 11.7383C38.166 12.0052 38.3971 12.2852 38.8594 12.5781C39.1849 12.7865 39.8034 13.0697 40.7148 13.4277C41.5026 13.7402 42.0625 14.043 42.3945 14.3359C42.8958 14.7786 43.1628 15.3711 43.1953 16.1133C43.2539 17.3438 42.6875 18.4538 41.4961 19.4434C40.9883 19.8665 40.2461 20.0781 39.2695 20.0781C37.9609 20.0781 36.2357 19.694 34.0938 18.9258ZM43.4688 8.33008L43.2148 20.0586L49.9531 20.1562L50.0215 17.1094H45.9102V15.5469L49.6504 15.625L49.7285 13.125H45.9102V11.4844L50.4023 11.5625L50.3926 8.41797L43.4688 8.33008Z" fill="white"/>
</svg>
