<svg width="75" height="75" viewBox="0 0 75 75" fill="none" xmlns="http://www.w3.org/2000/svg">
<path fill-rule="evenodd" clip-rule="evenodd" d="M12.9184 7.49904C29.7835 4.63509 46.4121 4.63509 62.8832 7.49904C68.1634 8.47881 71.631 11.795 72.5767 16.8446C75.8079 32.747 75.8079 48.6495 72.5767 64.6273C71.631 69.6769 68.2422 73.4453 62.8832 73.8975C46.4121 75.4048 29.7835 75.3295 12.9184 73.8975C7.55937 73.4453 3.77655 69.6769 3.14608 64.6273C1.33347 48.6495 0.93943 32.747 3.14608 16.8446C3.93417 11.795 7.63818 8.40344 12.9184 7.49904Z" fill="black" fill-opacity="0.101961"/>
<path fill-rule="evenodd" clip-rule="evenodd" d="M11.2633 3.88088C28.1285 1.01692 44.7572 1.01692 61.2283 3.88088C66.5085 4.86065 69.9761 8.17681 71.0006 13.2264C74.153 29.1289 74.153 45.0314 71.0006 61.0092C69.9761 65.9835 66.5873 69.8272 61.2283 70.2794C44.7572 71.7114 28.1285 71.7114 11.2633 70.2794C5.9043 69.8272 2.12146 66.0588 1.5698 61.0092C-0.321618 45.0314 -0.715663 29.1289 1.5698 13.2264C2.27908 8.10144 5.98311 4.78528 11.2633 3.88088Z" fill="#E6E6E6"/>
<path fill-rule="evenodd" clip-rule="evenodd" d="M11.2633 2.14796C28.1285 -0.715988 44.7572 -0.715988 61.2283 2.14796C66.5085 3.05237 69.9761 6.44389 71.0006 11.4935C74.153 27.396 74.153 43.2984 71.0006 59.2763C69.9761 64.2505 66.5873 68.0942 61.2283 68.5464C44.7572 69.9784 28.1285 69.9784 11.2633 68.5464C5.9043 68.0942 2.12146 64.3259 1.5698 59.2763C-0.321618 43.2984 -0.715663 27.396 1.5698 11.4935C2.27908 6.36852 5.98311 3.05237 11.2633 2.14796Z" fill="white"/>
<path fill-rule="evenodd" clip-rule="evenodd" d="M14.9679 6.82035C30.0993 4.25786 45.073 4.18249 59.8103 6.82035C64.5389 7.64938 67.6124 10.6641 68.5581 15.1107C71.3953 29.4305 71.3953 43.6749 68.5581 57.9947C67.6124 62.5167 64.6177 65.9082 59.8103 66.3604C45.073 67.6417 30.0993 67.6417 14.9679 66.3604C10.2394 65.9082 6.7718 62.5167 6.29895 57.9947C4.56515 43.6749 4.24991 29.4305 6.29895 15.1107C6.92942 10.5887 10.2394 7.57402 14.9679 6.82035Z" fill="#E6E6E6"/>
<path fill-rule="evenodd" clip-rule="evenodd" d="M13.8635 5.54003C28.9948 2.97754 43.9685 2.97754 58.7058 5.54003C63.4344 6.36907 66.5079 9.38375 67.4536 13.9058C70.2908 28.1502 70.2908 42.4699 67.4536 56.7143C66.5079 61.2364 63.5132 64.6279 58.7058 65.0801C43.9685 66.3613 28.9948 66.3613 13.8635 65.0801C9.13491 64.7032 5.66731 61.3117 5.19446 56.7143C3.46066 42.4699 3.14542 28.1502 5.19446 13.9058C5.82493 9.30838 9.13491 6.36907 13.8635 5.54003Z" fill="#6DC300"/>
<path fill-rule="evenodd" clip-rule="evenodd" d="M13.8635 2.59976C28.9948 0.112644 43.9685 0.0372769 58.7058 2.59976C63.4344 3.50416 66.5079 6.44348 67.4536 10.9655C70.2908 25.2853 70.2908 39.5297 67.4536 53.8494C66.5079 58.3714 63.5132 61.763 58.7058 62.1398C43.9685 63.4964 28.9948 63.421 13.8635 62.1398C9.13491 61.763 5.66731 58.3714 5.19446 53.8494C3.46066 39.5297 3.14542 25.2853 5.19446 10.9655C5.82493 6.44348 9.13491 3.4288 13.8635 2.59976Z" fill="#C9FB06"/>
<path fill-rule="evenodd" clip-rule="evenodd" d="M14.1792 3.05174C29.0741 0.489263 43.8114 0.489263 58.3911 3.05174C63.0408 3.80541 66.1143 6.8201 66.9812 11.2668C69.8972 25.3604 69.8184 39.454 66.9812 53.5477C66.1143 57.9943 63.1196 61.3858 58.3911 61.7627C43.8114 63.0439 29.0741 63.0439 14.1792 61.7627C9.4507 61.3858 6.14073 58.0697 5.58907 53.5477C3.93408 39.454 3.61884 25.3604 5.58907 11.2668C6.21954 6.74473 9.52951 3.80541 14.1792 3.05174Z" fill="#C5F806"/>
<path fill-rule="evenodd" clip-rule="evenodd" d="M14.495 3.42886C29.2322 0.941745 43.7331 0.866378 58.0763 3.42886C62.7261 4.18253 65.7208 7.12185 66.5877 11.5685C69.4248 25.4361 69.346 39.379 66.5877 53.2465C65.7208 57.6178 62.8049 60.934 58.0763 61.3862C43.7331 62.6674 29.2322 62.5921 14.495 61.3862C9.84524 61.0094 6.53526 57.6932 5.9836 53.2465C4.32861 39.379 4.01337 25.4361 5.9836 11.5685C6.61407 7.12185 9.92405 4.18253 14.495 3.42886Z" fill="#C0F605"/>
<path fill-rule="evenodd" clip-rule="evenodd" d="M14.8095 3.80479C29.3104 1.31767 43.6536 1.31767 57.8392 3.80479C62.3313 4.55846 65.3261 7.49779 66.193 11.7937C68.9513 25.5106 68.9513 39.2274 66.193 52.9442C65.3261 57.3155 62.4101 60.5563 57.8392 61.0085C43.6536 62.2144 29.3104 62.2144 14.8095 61.0085C10.2386 60.5563 6.92862 57.3155 6.45577 52.9442C4.80078 39.2274 4.48554 25.5106 6.45577 11.7937C7.00743 7.42242 10.2386 4.55846 14.8095 3.80479Z" fill="#BCF305"/>
<path fill-rule="evenodd" clip-rule="evenodd" d="M15.1248 4.18191C29.3893 1.77016 43.5749 1.69479 57.5241 4.18191C62.0162 4.93558 64.9321 7.79954 65.799 12.0955C68.5574 25.5862 68.4786 39.1523 65.799 52.643C64.9321 56.9389 62.095 60.1797 57.5241 60.5566C43.5749 61.8378 29.3893 61.7624 15.1248 60.5566C10.5539 60.1797 7.32275 57.0143 6.8499 52.643C5.27372 39.1523 4.95848 25.5862 6.8499 12.0955C7.48037 7.79954 10.6327 4.93558 15.1248 4.18191Z" fill="#B7F004"/>
<path fill-rule="evenodd" clip-rule="evenodd" d="M15.4406 4.55881C29.5474 2.14706 43.4177 2.14706 57.2093 4.55881C61.6226 5.31248 64.5385 8.17644 65.4054 12.397C68.0849 25.737 68.0849 39.077 65.4054 52.3416C64.5385 56.5622 61.7014 59.803 57.2093 60.1798C43.4177 61.3857 29.4685 61.3857 15.4406 60.1798C10.9484 59.803 7.79609 56.6375 7.24443 52.3416C5.66825 39.077 5.35301 25.737 7.24443 12.397C7.8749 8.10107 11.0273 5.31248 15.4406 4.55881Z" fill="#B3EE04"/>
<path fill-rule="evenodd" clip-rule="evenodd" d="M15.6771 4.93588C29.6263 2.5995 43.339 2.5995 56.973 4.93588C61.3074 5.68955 64.1446 8.47813 65.0115 12.6233C67.6122 25.8126 67.6122 38.9264 65.0115 52.1157C64.1446 56.2609 61.3863 59.3509 56.973 59.8031C43.339 60.9336 29.6263 60.9336 15.6771 59.8031C11.3426 59.4263 8.19024 56.2609 7.63857 52.1157C6.1412 38.9264 5.82597 25.8126 7.63857 12.6233C8.26904 8.47813 11.3426 5.68955 15.6771 4.93588Z" fill="#AEEB03"/>
<path fill-rule="evenodd" clip-rule="evenodd" d="M15.992 5.31301C29.7048 3.05199 43.26 2.97662 56.6575 5.31301C60.9132 6.06668 63.7503 8.85527 64.6172 12.9251C67.2179 25.8883 67.1391 38.8514 64.6172 51.8146C63.7503 55.8844 60.992 58.9745 56.6575 59.3513C43.26 60.5572 29.7048 60.5572 15.992 59.3513C11.6575 58.9745 8.58398 55.9598 8.11113 51.8146C6.53495 38.8514 6.21971 25.8883 8.11113 12.9251C8.66279 8.7799 11.7363 6.06668 15.992 5.31301Z" fill="#AAE903"/>
<path fill-rule="evenodd" clip-rule="evenodd" d="M16.3079 5.76498C29.7842 3.4286 43.1817 3.4286 56.3428 5.76498C60.5985 6.44329 63.3568 9.15651 64.1449 13.2263C66.7456 25.9634 66.7456 38.7758 64.1449 51.5129C63.3568 55.5073 60.6773 58.5974 56.3428 58.9742C43.1817 60.1047 29.7842 60.1047 16.3079 58.9742C12.0522 58.5974 8.97862 55.5827 8.50576 51.5129C7.00839 38.7004 6.69316 25.9634 8.50576 13.2263C9.05743 9.15651 12.0522 6.44329 16.3079 5.76498Z" fill="#A5E602"/>
<path fill-rule="evenodd" clip-rule="evenodd" d="M16.6232 6.14211C29.9419 3.88109 43.103 3.80573 56.1065 6.14211C60.2046 6.82041 62.9629 9.53363 63.751 13.4527C66.2729 26.039 66.2729 38.6253 63.751 51.2117C62.9629 55.2061 60.2834 58.2208 56.1065 58.5976C43.103 59.7281 29.9419 59.7281 16.6232 58.5976C12.3675 58.2208 9.37277 55.2061 8.89992 51.2117C7.48136 38.6253 7.16612 26.039 8.89992 13.4527C9.53039 9.45826 12.4463 6.82041 16.6232 6.14211Z" fill="#A1E302"/>
<path fill-rule="evenodd" clip-rule="evenodd" d="M16.9381 6.51803C30.0204 4.25701 42.9451 4.25701 55.791 6.51803C59.889 7.19633 62.5685 9.83418 63.3566 13.7533C65.8785 26.1135 65.7997 38.5491 63.3566 50.9093C62.5685 54.8284 59.9678 57.7677 55.791 58.1445C42.9451 59.275 30.0204 59.275 16.9381 58.1445C12.7612 57.843 9.84532 54.9037 9.37246 50.9093C7.87509 38.5491 7.55985 26.1135 9.37246 13.7533C9.92412 9.83418 12.8401 7.19633 16.9381 6.51803Z" fill="#9CE101"/>
<path fill-rule="evenodd" clip-rule="evenodd" d="M17.253 6.89607C30.0989 4.71042 42.8659 4.71042 55.4754 6.89607C59.4947 7.57438 62.1742 10.2122 62.9623 14.056C65.4053 26.2655 65.4053 38.3996 62.9623 50.6091C62.1742 54.5282 59.5735 57.3921 55.4754 57.769C42.8659 58.8995 30.0989 58.8995 17.253 57.769C13.1549 57.3921 10.239 54.5282 9.76613 50.6091C8.34757 38.3996 8.03233 26.2655 9.76613 14.056C10.3178 10.1369 13.1549 7.57438 17.253 6.89607Z" fill="#98DE01"/>
<path fill-rule="evenodd" clip-rule="evenodd" d="M13.8639 2.59976C28.9953 0.112645 43.9691 0.0372777 58.7064 2.59976C63.4349 3.50416 66.5085 6.44348 67.4542 10.9655C68.7151 17.4471 69.4244 23.9286 69.582 30.4102C41.526 19.4066 22.6906 48.649 3.77637 30.2595C3.85518 23.8533 4.24922 17.3717 5.19493 10.9655C5.82541 6.44348 9.13539 3.42879 13.8639 2.59976Z" fill="white" fill-opacity="0.290196"/>
<path fill-rule="evenodd" clip-rule="evenodd" d="M13.3921 4.56006C16.7021 4.56006 19.3028 7.12252 19.3028 10.2126C19.3028 13.378 16.7021 15.8651 13.3921 15.8651C10.1609 15.8651 7.48145 13.378 7.48145 10.2126C7.48145 7.12252 10.1609 4.56006 13.3921 4.56006Z" fill="white"/>
<path fill-rule="evenodd" clip-rule="evenodd" d="M22.454 2.22314C24.0302 2.22314 25.3699 3.42901 25.3699 5.01172C25.3699 6.51905 24.0302 7.80029 22.454 7.80029C20.799 7.80029 19.5381 6.51905 19.5381 5.01172C19.5381 3.42901 20.799 2.22314 22.454 2.22314Z" fill="white"/>
<path fill-rule="evenodd" clip-rule="evenodd" d="M60.0467 54.0759C62.0169 54.0759 63.593 55.5833 63.593 57.4674C63.593 59.3516 62.0169 60.859 60.0467 60.859C58.1553 60.859 56.5791 59.3516 56.5791 57.4674C56.5791 55.5833 58.1553 54.0759 60.0467 54.0759Z" fill="white"/>
<path fill-rule="evenodd" clip-rule="evenodd" d="M30.3361 37.1936C32.9368 37.1936 35.3799 37.7212 37.3501 38.5502C35.3799 30.7874 32.858 20.6129 30.8877 12.85C29.7844 9.08169 38.7686 11.0412 42.0786 13.0761C45.3098 15.1111 47.5164 20.4621 55.1609 19.407C50.9052 24.2305 44.6793 20.9143 40.1872 20.1607C37.6653 19.7085 36.0891 21.5173 36.562 22.9492L40.9753 40.8866C42.1574 42.0925 42.8667 43.4491 42.8667 44.9564C42.8667 49.2524 37.2713 52.7192 30.3361 52.7192C23.4797 52.7192 17.8843 49.2524 17.8843 44.9564C17.8843 40.6605 23.4797 37.1936 30.3361 37.1936Z" stroke="#6DC300" stroke-width="0.507295"/>
<path fill-rule="evenodd" clip-rule="evenodd" d="M30.3361 37.1936C32.9368 37.1936 35.3799 37.7212 37.3501 38.5502C35.3799 30.7874 32.858 20.6129 30.8877 12.85C29.7844 9.08169 38.7686 11.0412 42.0786 13.0761C45.3098 15.1111 47.5164 20.4621 55.1609 19.407C50.9052 24.2305 44.6793 20.9143 40.1872 20.1607C37.6653 19.7085 36.0891 21.5173 36.562 22.9492L40.9753 40.8866C42.1574 42.0925 42.8667 43.4491 42.8667 44.9564C42.8667 49.2524 37.2713 52.7192 30.3361 52.7192C23.4797 52.7192 17.8843 49.2524 17.8843 44.9564C17.8843 40.6605 23.4797 37.1936 30.3361 37.1936Z" fill="white"/>
<path fill-rule="evenodd" clip-rule="evenodd" d="M42.2363 42.469C41.8423 46.5388 36.4044 49.7796 29.7056 49.7796C24.189 49.7796 19.5393 47.594 17.8843 44.5039C17.8843 44.6546 17.8843 44.8054 17.8843 44.9561C17.8843 47.0664 19.224 48.9506 21.3519 50.3826C23.1645 51.5131 25.5288 52.3421 28.2083 52.6436C28.9176 52.719 29.6268 52.719 30.3361 52.719C37.2713 52.719 42.8668 49.2521 42.8668 44.9561C42.8668 44.1271 42.6303 43.298 42.2363 42.469Z" fill="black" fill-opacity="0.101961"/>
<path fill-rule="evenodd" clip-rule="evenodd" d="M44.9941 21.2917C48.5405 22.1961 52.3233 22.6483 55.1605 19.4076C54.0571 19.5583 53.0326 19.5583 52.1657 19.4829C51.2988 19.4076 50.5107 19.2568 49.8015 18.9554C46.4127 19.4076 42.551 17.7495 39.5563 17.2219C38.0589 16.9204 36.8768 17.5234 36.2463 18.3524C35.8523 18.8046 35.7735 19.4829 35.9311 20.0105L36.4828 22.2715C36.5616 21.141 37.7437 20.0859 39.4775 20.0859C39.7139 20.0859 39.9503 20.0859 40.1868 20.1612C41.6053 20.3873 43.2603 20.9149 44.9941 21.2917Z" fill="black" fill-opacity="0.101961"/>
</svg>
