<svg width="75" height="75" viewBox="0 0 75 75" fill="none" xmlns="http://www.w3.org/2000/svg">
<path fill-rule="evenodd" clip-rule="evenodd" d="M12.934 7.49871C29.7946 4.71011 46.4189 4.63475 62.8856 7.49871C68.1644 8.47849 71.5523 11.7947 72.5765 16.8443C75.8068 32.7468 75.8068 48.7247 72.5765 64.6272C71.6311 69.6768 68.1644 73.4452 62.8856 73.8974C46.4189 75.4048 29.7946 75.3294 12.934 73.8974C7.57637 73.4452 3.79454 69.6768 3.16423 64.6272C1.35211 48.7247 0.958168 32.7468 3.16423 16.8443C3.87333 11.7947 7.65515 8.40312 12.934 7.49871Z" fill="black" fill-opacity="0.101961"/>
<path fill-rule="evenodd" clip-rule="evenodd" d="M11.2801 3.88201C28.1408 1.09342 44.7651 1.01805 61.2318 3.88201C66.5106 4.86179 69.9773 8.17795 70.9227 13.2276C74.153 29.1301 74.153 45.108 70.9227 61.0105C69.9773 66.0601 66.5894 69.8285 61.2318 70.2807C44.7651 71.7881 28.1408 71.7127 11.2801 70.2807C5.92256 69.8285 2.14073 66.0601 1.51043 61.0105C-0.3017 45.108 -0.695641 29.1301 1.51043 13.2276C2.29831 8.17795 6.00134 4.78642 11.2801 3.88201Z" fill="#E6E6E6"/>
<path fill-rule="evenodd" clip-rule="evenodd" d="M11.2801 2.14797C28.1408 -0.715991 44.7651 -0.715991 61.2318 2.14797C66.5106 3.12775 69.9773 6.44392 70.9227 11.4935C74.153 27.3961 74.153 43.2986 70.9227 59.2765C69.9773 64.2508 66.5894 68.0945 61.2318 68.5467C44.7651 69.9787 28.1408 69.9787 11.2801 68.5467C5.92256 68.0945 2.14073 64.3262 1.51043 59.2765C-0.3017 43.2986 -0.695641 27.3961 1.51043 11.4935C2.29831 6.36855 6.00134 3.05238 11.2801 2.14797Z" fill="white"/>
<path fill-rule="evenodd" clip-rule="evenodd" d="M14.9828 6.82035C30.1101 4.25786 45.0011 4.18249 59.8132 6.82035C64.5405 7.64939 67.6133 10.6641 68.4799 15.1108C71.3951 29.4306 71.3951 43.675 68.4799 57.9949C67.6133 62.5169 64.5405 65.9084 59.8132 66.3606C45.0011 67.6419 30.1101 67.6419 14.9828 66.3606C10.2555 65.9084 6.78888 62.5169 6.31615 57.9949C4.58281 43.675 4.26766 29.4306 6.31615 15.1108C6.94645 10.5887 10.2555 7.57403 14.9828 6.82035Z" fill="#E6E6E6"/>
<path fill-rule="evenodd" clip-rule="evenodd" d="M13.8803 5.54003C29.0076 2.97754 43.8986 2.97754 58.7107 5.54003C63.438 6.36908 66.5107 9.38377 67.4562 13.9058C70.2926 28.1503 70.2926 42.4701 67.4562 56.7145C66.5107 61.2366 63.438 64.6281 58.7107 65.0803C43.8986 66.3616 29.0076 66.3616 13.8803 65.0803C9.15301 64.7035 5.68634 61.3119 5.21361 56.7145C3.48027 42.4701 3.16512 28.1503 5.21361 13.9058C5.84391 9.30841 9.15301 6.36908 13.8803 5.54003Z" fill="#6DC300"/>
<path fill-rule="evenodd" clip-rule="evenodd" d="M13.8803 2.67484C29.0076 0.112352 43.8986 0.0369844 58.7107 2.67484C63.438 3.50388 66.5107 6.51858 67.4562 10.9653C70.2926 25.2851 70.2926 39.5295 67.4562 53.8493C66.5107 58.3713 63.438 61.7629 58.7107 62.2151C43.8986 63.4963 29.0076 63.4963 13.8803 62.2151C9.15301 61.7629 5.68634 58.3713 5.21361 53.8493C3.48027 39.5295 3.16512 25.2851 5.21361 10.9653C5.84391 6.44321 9.15301 3.42852 13.8803 2.67484Z" fill="#C9FB06"/>
<path fill-rule="evenodd" clip-rule="evenodd" d="M14.1956 3.05175C29.0866 0.489261 43.82 0.489261 58.3958 3.05175C63.0443 3.88079 66.117 6.82011 66.9837 11.2668C69.82 25.3605 69.82 39.4541 66.9837 53.5478C66.117 57.9945 63.123 61.386 58.3958 61.7628C43.82 63.0441 29.0866 63.0441 14.1956 61.7628C9.46836 61.386 6.15926 58.0699 5.60775 53.5478C3.9532 39.4541 3.63805 25.3605 5.60775 11.2668C6.23805 6.74474 9.54715 3.80542 14.1956 3.05175Z" fill="#C5F806"/>
<path fill-rule="evenodd" clip-rule="evenodd" d="M14.5114 3.42887C29.2448 0.941742 43.7418 0.866375 58.0812 3.42887C62.7297 4.25791 65.7236 7.12188 66.5903 11.5686C69.4267 25.4362 69.3479 39.3792 66.5903 53.2468C65.7236 57.6181 62.7297 61.0097 58.0812 61.3865C43.7418 62.6678 29.2448 62.5924 14.5114 61.3865C9.86289 61.0097 6.55379 57.6935 6.00228 53.2468C4.34773 39.3792 4.03258 25.4362 6.00228 11.5686C6.63258 7.12188 9.94168 4.18255 14.5114 3.42887Z" fill="#C0F605"/>
<path fill-rule="evenodd" clip-rule="evenodd" d="M14.8268 3.8048C29.3238 1.31767 43.6632 1.31767 57.845 3.8048C62.336 4.63384 65.3299 7.49781 66.1966 11.7938C68.9542 25.5106 68.9542 39.2275 66.1966 52.9444C65.3299 57.3157 62.4148 60.5565 57.845 61.0088C43.6632 62.2146 29.3238 62.2146 14.8268 61.0088C10.257 60.5565 6.94794 57.3157 6.39643 52.9444C4.82067 39.2275 4.50551 25.5106 6.39643 11.7938C7.02673 7.42244 10.257 4.55847 14.8268 3.8048Z" fill="#BCF305"/>
<path fill-rule="evenodd" clip-rule="evenodd" d="M15.141 4.18284C29.4017 1.77108 43.5835 1.77108 57.529 4.18284C62.02 5.01188 64.9351 7.80048 65.8018 12.0964C68.5594 25.6626 68.4806 39.1533 65.8018 52.6441C64.9351 56.9401 62.02 60.1809 57.529 60.5577C43.5835 61.839 29.4017 61.7636 15.141 60.5577C10.5713 60.1809 7.34102 57.0154 6.8683 52.6441C5.29253 39.1533 4.89859 25.6626 6.8683 12.0964C7.41981 7.80048 10.6501 4.93652 15.141 4.18284Z" fill="#B7F004"/>
<path fill-rule="evenodd" clip-rule="evenodd" d="M15.3778 4.55899C29.4809 2.2226 43.4264 2.14723 57.2143 4.55899C61.6264 5.38803 64.5416 8.17663 65.4082 12.3972C68.087 25.7372 68.0083 39.0773 65.4082 52.4173C64.5416 56.5625 61.7052 59.8033 57.2143 60.1802C43.4264 61.386 29.4809 61.386 15.3778 60.1802C10.9657 59.8033 7.73537 56.6379 7.26264 52.4173C5.68688 39.0773 5.37173 25.7372 7.26264 12.3972C7.89294 8.10126 10.9657 5.31266 15.3778 4.55899Z" fill="#B3EE04"/>
<path fill-rule="evenodd" clip-rule="evenodd" d="M15.6932 4.93589C29.6387 2.59949 43.3478 2.59949 56.9781 4.93589C61.3115 5.76493 64.1478 8.47817 65.0145 12.6234C67.6145 25.8127 67.6145 38.9267 65.0145 52.116C64.1478 56.2612 61.3115 59.4267 56.9781 59.8035C43.3478 61.0094 29.6387 60.934 15.6932 59.8035C11.281 59.4267 8.20832 56.2612 7.6568 52.116C6.15983 38.9267 5.84467 25.8127 7.6568 12.6234C8.2871 8.47817 11.3598 5.68957 15.6932 4.93589Z" fill="#AEEB03"/>
<path fill-rule="evenodd" clip-rule="evenodd" d="M16.0081 5.38809C29.7173 3.0517 43.2688 2.97633 56.6628 5.38809C60.9173 6.14176 63.7537 8.85499 64.5416 12.9248C67.2204 25.888 67.1416 38.8512 64.5416 51.8144C63.7537 55.8843 60.9961 58.9743 56.6628 59.3512C43.2688 60.5571 29.7173 60.5571 16.0081 59.3512C11.6748 58.9743 8.60207 55.9596 8.12934 51.8144C6.55358 38.8512 6.23842 25.888 8.12934 12.9248C8.68085 8.77963 11.7536 6.0664 16.0081 5.38809Z" fill="#AAE903"/>
<path fill-rule="evenodd" clip-rule="evenodd" d="M16.3235 5.76499C29.7963 3.4286 43.1903 3.4286 56.3479 5.76499C60.6024 6.51866 63.36 9.15653 64.1479 13.2264C66.7479 25.9635 66.6691 38.7759 64.1479 51.513C63.36 55.5829 60.6024 58.5976 56.3479 58.9744C43.1903 60.1049 29.7963 60.1049 16.3235 58.9744C12.069 58.5976 8.99623 55.5829 8.5235 51.513C7.02653 38.7759 6.71137 25.9635 8.5235 13.2264C9.07502 9.15653 12.069 6.4433 16.3235 5.76499Z" fill="#A5E602"/>
<path fill-rule="evenodd" clip-rule="evenodd" d="M16.6378 6.14206C29.953 3.88103 43.0318 3.88103 56.0319 6.14206C60.2076 6.89573 62.9652 9.53359 63.7531 13.4527C66.2743 26.0391 66.2743 38.6254 63.7531 51.2118C62.9652 55.2062 60.2864 58.2209 56.0319 58.5978C43.0318 59.7283 29.953 59.7283 16.6378 58.5978C12.3833 58.2209 9.38933 55.2816 8.9166 51.2118C7.41962 38.6254 7.18326 26.0391 8.9166 13.4527C9.46811 9.45822 12.4621 6.82036 16.6378 6.14206Z" fill="#A1E302"/>
<path fill-rule="evenodd" clip-rule="evenodd" d="M16.9532 6.51919C30.032 4.33353 42.9532 4.25816 55.7957 6.51919C59.8927 7.27286 62.5715 9.83535 63.3593 13.7545C65.8806 26.1901 65.8018 38.5503 63.3593 50.9106C62.5715 54.8297 59.8927 57.8444 55.7957 58.1458C42.9532 59.2764 30.032 59.2764 16.9532 58.1458C12.7774 57.8444 9.78347 54.905 9.31074 50.9106C7.89255 38.5503 7.5774 26.1901 9.31074 13.7545C9.94104 9.83535 12.8562 7.19749 16.9532 6.51919Z" fill="#9CE101"/>
<path fill-rule="evenodd" clip-rule="evenodd" d="M17.189 6.89657C30.1102 4.71091 42.8739 4.71091 55.48 6.89657C59.4982 7.65024 62.177 10.2127 62.9648 14.0565C65.4073 26.266 65.4073 38.4755 62.9648 50.6097C62.177 54.5288 59.577 57.3928 55.48 57.7696C42.8739 58.9001 30.1102 58.9001 17.189 57.7696C13.1708 57.4681 10.2556 54.5288 9.78291 50.6097C8.36472 38.4755 8.04957 26.266 9.78291 14.0565C10.3344 10.1374 13.1708 7.57487 17.189 6.89657Z" fill="#98DE01"/>
<path fill-rule="evenodd" clip-rule="evenodd" d="M13.8793 2.67485C29.0066 0.11235 43.8976 0.0369826 58.7097 2.67485C63.437 3.50389 66.5098 6.51859 67.4552 10.9653C68.7158 17.4469 69.4249 23.9285 69.5825 30.4101C41.5339 19.4065 22.7036 48.6491 3.79443 30.2594C3.87322 23.8531 4.26716 17.4469 5.21262 10.9653C5.84292 6.44323 9.15202 3.42852 13.8793 2.67485Z" fill="white" fill-opacity="0.290196"/>
<path fill-rule="evenodd" clip-rule="evenodd" d="M13.4076 4.63428C16.6379 4.63428 19.3167 7.12142 19.3167 10.2115C19.3167 13.377 16.6379 15.8641 13.4076 15.8641C10.1773 15.8641 7.49854 13.377 7.49854 10.2115C7.49854 7.12142 10.1773 4.63428 13.4076 4.63428Z" fill="white"/>
<path fill-rule="evenodd" clip-rule="evenodd" d="M22.4686 2.22314C24.0443 2.22314 25.3837 3.42902 25.3837 5.01173C25.3837 6.59444 24.0443 7.80031 22.4686 7.80031C20.814 7.80031 19.4746 6.59444 19.4746 5.01173C19.4746 3.42902 20.814 2.22314 22.4686 2.22314Z" fill="white"/>
<path fill-rule="evenodd" clip-rule="evenodd" d="M60.0494 54.0762C62.0191 54.0762 63.5948 55.5835 63.5948 57.4677C63.5948 59.3519 62.0191 60.8592 60.0494 60.8592C58.0797 60.8592 56.5039 59.3519 56.5039 57.4677C56.5039 55.5835 58.0797 54.0762 60.0494 54.0762Z" fill="white"/>
<path fill-rule="evenodd" clip-rule="evenodd" d="M24.4379 30.3355C23.65 30.5616 22.8621 30.637 21.9954 30.637C17.3469 30.637 13.4863 26.6425 13.4863 22.5727C13.4863 18.5029 16.3227 15.7143 19.7894 14.7345C20.0257 13.3779 21.05 12.3228 22.547 12.3228H49.2561C50.7531 12.3228 51.6198 13.3779 51.8561 14.6591C55.4804 15.5635 58.6319 18.4275 58.6319 22.5727C58.6319 26.6425 54.8501 30.637 50.1228 30.637C49.4137 30.637 48.7046 30.5616 47.9955 30.4109C47.2076 33.7271 42.0076 36.2142 38.7773 36.6664V45.6351C41.1409 45.6351 42.7167 45.6351 43.2682 48.5744H46.9713C49.8076 48.6498 49.8076 52.7196 46.9713 52.7196V52.795C39.5652 52.795 32.2379 52.795 24.9106 52.795H24.5954V52.7196C22.153 52.4182 22.153 48.9513 24.5954 48.6498V48.5744H24.9106H28.5348C29.1652 45.5597 30.5833 45.6351 33.1046 45.6351V36.5157C29.8742 35.9127 25.3833 33.501 24.4379 30.3355ZM20.656 17.4477C18.3712 18.0507 16.4803 19.8595 16.4803 22.5727C16.4803 25.2106 19.0015 27.7731 21.9954 27.7731C22.547 27.7731 23.0985 27.6977 23.65 27.547C23.4136 26.6425 20.7348 17.5231 20.656 17.4477ZM48.7046 27.6223C49.1773 27.6977 49.6501 27.7731 50.1228 27.7731C53.1955 27.7731 55.6379 25.2106 55.6379 22.5727C55.6379 19.8595 53.6682 17.8999 51.2258 17.3724L48.7046 27.6223Z" stroke="#6DC300" stroke-width="0.507196" stroke-linecap="round" stroke-linejoin="round"/>
<path fill-rule="evenodd" clip-rule="evenodd" d="M24.4379 30.3355C23.65 30.5616 22.8621 30.637 21.9954 30.637C17.3469 30.637 13.4863 26.6425 13.4863 22.5727C13.4863 18.5029 16.3227 15.7143 19.7894 14.7345C20.0257 13.3779 21.05 12.3228 22.547 12.3228H49.2561C50.7531 12.3228 51.6198 13.3779 51.8561 14.6591C55.4804 15.5635 58.6319 18.4275 58.6319 22.5727C58.6319 26.6425 54.8501 30.637 50.1228 30.637C49.4137 30.637 48.7046 30.5616 47.9955 30.4109C47.2076 33.7271 42.0076 36.2142 38.7773 36.6664V45.6351C41.1409 45.6351 42.7167 45.6351 43.2682 48.5744H46.9713C49.8076 48.6498 49.8076 52.7196 46.9713 52.7196V52.795C39.5652 52.795 32.2379 52.795 24.9106 52.795H24.5954V52.7196C22.153 52.4182 22.153 48.9513 24.5954 48.6498V48.5744H24.9106H28.5348C29.1652 45.5597 30.5833 45.6351 33.1046 45.6351V36.5157C29.8742 35.9127 25.3833 33.501 24.4379 30.3355ZM20.656 17.4477C18.3712 18.0507 16.4803 19.8595 16.4803 22.5727C16.4803 25.2106 19.0015 27.7731 21.9954 27.7731C22.547 27.7731 23.0985 27.6977 23.65 27.547C23.4136 26.6425 20.7348 17.5231 20.656 17.4477ZM48.7046 27.6223C49.1773 27.6977 49.6501 27.7731 50.1228 27.7731C53.1955 27.7731 55.6379 25.2106 55.6379 22.5727C55.6379 19.8595 53.6682 17.8999 51.2258 17.3724L48.7046 27.6223Z" fill="white"/>
<path fill-rule="evenodd" clip-rule="evenodd" d="M24.4379 28.6776C23.65 28.9037 22.8621 29.0544 21.9954 29.0544C17.5833 29.0544 13.9591 25.5122 13.5651 21.6685C13.5651 21.9699 13.4863 22.2714 13.4863 22.5729C13.4863 26.6427 17.3469 30.6372 21.9954 30.6372C22.8621 30.6372 23.65 30.5618 24.4379 30.3357C25.3833 33.5011 29.8742 35.9129 33.1046 36.5158V34.9331C29.8742 34.3302 25.3833 31.843 24.4379 28.6776Z" fill="black" fill-opacity="0.101961"/>
<path fill-rule="evenodd" clip-rule="evenodd" d="M47.9956 28.753C47.2077 32.0692 42.0077 34.5563 38.7773 35.0839V36.6666C42.0077 36.2144 47.2077 33.7273 47.9956 30.4111C48.7046 30.5618 49.4137 30.6372 50.1228 30.6372C54.8501 30.6372 58.632 26.6427 58.632 22.5729C58.632 22.2714 58.5532 21.9699 58.5532 21.6685C58.1592 25.5122 54.535 29.0545 50.1228 29.0545C49.4137 29.0545 48.7046 28.9791 47.9956 28.753Z" fill="black" fill-opacity="0.101961"/>
<path fill-rule="evenodd" clip-rule="evenodd" d="M23.6502 25.9644C23.4138 24.9847 20.735 15.8652 20.6562 15.8652C18.3714 16.4682 16.4805 18.277 16.4805 20.9148C16.4805 21.2163 16.5593 21.4424 16.5593 21.6685C16.9532 19.4829 18.6077 17.9755 20.6562 17.4479C20.735 17.5233 22.3896 23.1759 23.2562 26.0398C23.335 26.0398 23.4926 25.9644 23.6502 25.9644Z" fill="black" fill-opacity="0.101961"/>
<path fill-rule="evenodd" clip-rule="evenodd" d="M52.2505 17.6742C53.9839 18.3525 55.2445 19.7845 55.5597 21.6687C55.6384 21.4426 55.6384 21.2165 55.6384 20.915C55.6384 18.9555 54.6142 17.3728 53.1172 16.4683C52.4869 16.1669 51.9354 15.9408 51.2263 15.79L50.4384 19.0308L48.7051 25.9647C48.7839 26.04 48.9414 26.04 49.099 26.1154L50.9111 18.7294L51.2263 17.3728C51.6202 17.4481 51.9354 17.5989 52.2505 17.6742Z" fill="black" fill-opacity="0.101961"/>
<path fill-rule="evenodd" clip-rule="evenodd" d="M43.0323 51.1367H28.1413H24.911H24.5959C23.7292 50.986 23.1777 50.5338 22.8625 49.8555C22.3898 50.986 23.0201 52.4933 24.5959 52.7194V52.7948H24.911H46.9717V52.7194C48.7838 52.7194 49.4141 51.0613 48.9414 49.8555C48.705 50.5338 47.9959 51.1367 46.9717 51.1367H43.0323Z" fill="black" fill-opacity="0.101961"/>
</svg>
