<svg width="297" height="274" viewBox="0 0 297 274" fill="none" xmlns="http://www.w3.org/2000/svg">
<path fill-rule="evenodd" clip-rule="evenodd" d="M14.333 73.2349H285.031C291.22 73.2349 296.27 78.3344 296.27 84.5824V262.652C296.27 268.9 291.22 274 285.031 274H14.333C8.1446 274 3.09375 268.9 3.09375 262.652V84.5824C3.09375 78.3344 8.1446 73.2349 14.333 73.2349Z" fill="black" fill-opacity="0.101961"/>
<path fill-rule="evenodd" clip-rule="evenodd" d="M11.2393 69.6514H281.892C288.08 69.6514 293.131 74.7509 293.131 80.9989V259.069C293.131 265.317 288.08 270.416 281.892 270.416H11.2393C5.05085 270.416 0 265.317 0 259.069V80.9989C0 74.7509 5.05085 69.6514 11.2393 69.6514Z" fill="#E6E6E6"/>
<path fill-rule="evenodd" clip-rule="evenodd" d="M11.2393 67.3081H281.892C288.08 67.3081 293.131 72.4076 293.131 78.6557V256.725C293.131 262.973 288.08 268.073 281.892 268.073H11.2393C5.05085 268.073 0 262.973 0 256.725V78.6557C0 72.4076 5.05085 67.3081 11.2393 67.3081Z" fill="white"/>
<path fill-rule="evenodd" clip-rule="evenodd" d="M18.2467 74.8892H276.34C282.165 74.8892 286.897 79.713 286.897 85.5936V250.662C286.897 256.542 282.165 261.366 276.34 261.366H18.2467C12.4223 261.366 7.68994 256.542 7.68994 250.662V85.5936C7.68994 79.713 12.4223 74.8892 18.2467 74.8892Z" fill="#E6E6E6"/>
<path fill-rule="evenodd" clip-rule="evenodd" d="M15.835 73.5103H274.247C280.026 73.5103 284.758 78.2882 284.758 84.1228V247.767C284.758 253.601 280.026 258.379 274.247 258.379H15.835C10.0561 258.379 5.32373 253.601 5.32373 247.767V84.1228C5.32373 78.2882 10.0561 73.5103 15.835 73.5103Z" fill="#F1C383"/>
<path fill-rule="evenodd" clip-rule="evenodd" d="M15.6529 70.7075H272.063C277.751 70.7075 282.392 75.3936 282.392 81.1822V241.61C282.392 247.399 277.751 252.085 272.063 252.085H15.6529C9.96505 252.085 5.32373 247.399 5.32373 241.61V81.1822C5.32373 75.3936 9.96505 70.7075 15.6529 70.7075Z" fill="#FAEECC"/>
<path fill-rule="evenodd" clip-rule="evenodd" d="M17.3368 72.0859C101.7 72.0859 186.017 72.0859 270.38 72.0859C276.022 72.0859 280.618 76.772 280.618 82.4228C280.618 135.072 280.618 187.721 280.618 240.37C280.618 246.067 276.022 250.707 270.38 250.707C186.017 250.707 101.7 250.707 17.3368 250.707C11.74 250.707 7.09863 246.067 7.09863 240.37C7.09863 187.721 7.09863 135.072 7.09863 82.4228C7.09863 76.726 11.74 72.0859 17.3368 72.0859Z" fill="#FAEDC9"/>
<path fill-rule="evenodd" clip-rule="evenodd" d="M19.0202 73.5103C102.245 73.5103 185.471 73.5103 268.696 73.5103C274.247 73.5103 278.797 78.1044 278.797 83.7093C278.797 135.485 278.797 187.308 278.797 239.084C278.797 244.735 274.247 249.329 268.696 249.329C185.471 249.329 102.245 249.329 19.0202 249.329C13.4688 249.329 8.91846 244.735 8.91846 239.084C8.91846 187.308 8.91846 135.485 8.91846 83.7093C8.91846 78.1044 13.4688 73.5103 19.0202 73.5103Z" fill="#F9ECC6"/>
<path fill-rule="evenodd" clip-rule="evenodd" d="M20.704 74.8887C102.792 74.8887 184.925 74.8887 267.012 74.8887C272.518 74.8887 277.023 79.4369 277.023 84.9499C277.023 135.899 277.023 186.894 277.023 237.844C277.023 243.357 272.518 247.905 267.012 247.905C184.925 247.905 102.792 247.905 20.704 247.905C15.1982 247.905 10.6934 243.357 10.6934 237.844C10.6934 186.894 10.6934 135.899 10.6934 84.9499C10.6934 79.4369 15.1982 74.8887 20.704 74.8887Z" fill="#F9EBC2"/>
<path fill-rule="evenodd" clip-rule="evenodd" d="M22.3874 76.2666C103.383 76.2666 184.378 76.2666 265.374 76.2666C270.789 76.2666 275.203 80.7689 275.203 86.2359C275.203 136.358 275.203 186.435 275.203 236.557C275.203 242.024 270.789 246.526 265.374 246.526C184.378 246.526 103.383 246.526 22.3874 246.526C16.927 246.526 12.5132 242.024 12.5132 236.557C12.5132 186.435 12.5132 136.358 12.5132 86.2359C12.5132 80.7689 16.927 76.2666 22.3874 76.2666Z" fill="#F8EABF"/>
<path fill-rule="evenodd" clip-rule="evenodd" d="M24.0262 77.6909C103.93 77.6909 183.788 77.6909 263.691 77.6909C269.061 77.6909 273.429 82.1013 273.429 87.4765C273.429 136.772 273.429 186.021 273.429 235.317C273.429 240.692 269.061 245.148 263.691 245.148C183.788 245.148 103.93 245.148 24.0262 245.148C18.7024 245.148 14.2886 240.692 14.2886 235.317C14.2886 186.021 14.2886 136.772 14.2886 87.4765C14.2886 82.1013 18.7024 77.6909 24.0262 77.6909Z" fill="#F8E9BC"/>
<path fill-rule="evenodd" clip-rule="evenodd" d="M25.7096 79.0693C104.475 79.0693 183.241 79.0693 262.007 79.0693C267.286 79.0693 271.608 83.4338 271.608 88.763C271.608 137.185 271.608 185.608 271.608 234.03C271.608 239.36 267.286 243.724 262.007 243.724C183.241 243.724 104.475 243.724 25.7096 243.724C20.4312 243.724 16.1084 239.36 16.1084 234.03C16.1084 185.608 16.1084 137.185 16.1084 88.763C16.1084 83.4338 20.4312 79.0693 25.7096 79.0693Z" fill="#F7E8B9"/>
<path fill-rule="evenodd" clip-rule="evenodd" d="M27.3929 80.4468C105.021 80.4468 182.695 80.4468 260.323 80.4468C265.556 80.4468 269.833 84.7653 269.833 90.0026C269.833 137.598 269.833 185.194 269.833 232.789C269.833 238.027 265.556 242.345 260.323 242.345C182.695 242.345 105.021 242.345 27.3929 242.345C22.16 242.345 17.9282 238.027 17.9282 232.789C17.9282 185.194 17.9282 137.598 17.9282 90.0026C17.9282 84.7653 22.16 80.4468 27.3929 80.4468Z" fill="#F7E7B6"/>
<path fill-rule="evenodd" clip-rule="evenodd" d="M29.0768 81.8257C105.613 81.8257 182.149 81.8257 258.686 81.8257C263.827 81.8257 268.014 86.0983 268.014 91.2897C268.014 138.012 268.014 184.781 268.014 231.503C268.014 236.695 263.827 240.967 258.686 240.967C182.149 240.967 105.613 240.967 29.0768 240.967C23.9349 240.967 19.7031 236.695 19.7031 231.503C19.7031 184.781 19.7031 138.012 19.7031 91.2897C19.7031 86.0983 23.9349 81.8257 29.0768 81.8257Z" fill="#F6E6B3"/>
<path fill-rule="evenodd" clip-rule="evenodd" d="M30.7146 83.2495C106.159 83.2495 181.557 83.2495 257.002 83.2495C262.052 83.2495 266.239 87.4302 266.239 92.5757C266.239 138.471 266.239 184.367 266.239 230.263C266.239 235.362 262.052 239.543 257.002 239.543C181.557 239.543 106.159 239.543 30.7146 239.543C25.6637 239.543 21.5229 235.362 21.5229 230.263C21.5229 184.367 21.5229 138.471 21.5229 92.5757C21.5229 87.4302 25.6637 83.2495 30.7146 83.2495Z" fill="#F6E5AF"/>
<path fill-rule="evenodd" clip-rule="evenodd" d="M32.3985 84.6279C106.705 84.6279 181.012 84.6279 255.318 84.6279C260.324 84.6279 264.419 88.7627 264.419 93.8163C264.419 138.885 264.419 183.908 264.419 228.976C264.419 234.03 260.324 238.165 255.318 238.165C181.012 238.165 106.705 238.165 32.3985 238.165C27.3931 238.165 23.2979 234.03 23.2979 228.976C23.2979 183.908 23.2979 138.885 23.2979 93.8163C23.2979 88.7627 27.3931 84.6279 32.3985 84.6279Z" fill="#F5E4AC"/>
<path fill-rule="evenodd" clip-rule="evenodd" d="M34.0818 86.0063H253.634C258.594 86.0063 262.644 90.0952 262.644 95.1028V227.69C262.644 232.698 258.594 236.787 253.634 236.787H34.0818C29.1219 236.787 25.1177 232.698 25.1177 227.69V95.1028C25.1177 90.0952 29.1219 86.0063 34.0818 86.0063Z" fill="#F5E3A9"/>
<path fill-rule="evenodd" clip-rule="evenodd" d="M273.838 237.017C276.978 237.017 279.526 239.589 279.526 242.759C279.526 245.975 276.978 248.548 273.838 248.548C270.698 248.548 268.15 245.975 268.15 242.759C268.15 239.589 270.698 237.017 273.838 237.017Z" fill="white"/>
<path fill-rule="evenodd" clip-rule="evenodd" d="M265.101 242.897C266.83 242.897 268.195 244.321 268.195 246.021C268.195 247.721 266.83 249.099 265.101 249.099C263.417 249.099 262.052 247.721 262.052 246.021C262.052 244.321 263.417 242.897 265.101 242.897Z" fill="white"/>
<path fill-rule="evenodd" clip-rule="evenodd" d="M18.8381 93.9082H267.058C271.289 93.9082 274.793 97.3998 274.793 101.672V232.882C274.793 237.154 271.289 240.646 267.058 240.646H18.8381C14.5608 240.646 11.1025 237.154 11.1025 232.882V101.672C11.1025 97.3998 14.5608 93.9082 18.8381 93.9082Z" fill="#EFB469"/>
<path fill-rule="evenodd" clip-rule="evenodd" d="M21.7955 97.6289H264.1C268.195 97.6289 271.517 101.029 271.517 105.163V231.778C271.517 235.913 268.195 239.313 264.1 239.313H21.7955C17.7002 239.313 14.333 235.913 14.333 231.778V105.163C14.333 101.029 17.7002 97.6289 21.7955 97.6289Z" fill="#F1C383"/>
<path fill-rule="evenodd" clip-rule="evenodd" d="M22.1606 99.0537C102.656 99.0537 183.196 99.0537 263.737 99.0537C267.786 99.0537 271.108 102.407 271.108 106.496C271.108 148.211 271.108 189.972 271.108 231.687C271.108 235.776 267.786 239.13 263.737 239.13C183.196 239.13 102.656 239.13 22.1606 239.13C18.1108 239.13 14.7891 235.776 14.7891 231.687C14.7891 189.972 14.7891 148.211 14.7891 106.496C14.7891 102.407 18.1108 99.0537 22.1606 99.0537Z" fill="#F1C585"/>
<path fill-rule="evenodd" clip-rule="evenodd" d="M22.4792 100.523C102.792 100.523 183.105 100.523 263.373 100.523C267.377 100.523 270.653 103.831 270.653 107.874C270.653 149.13 270.653 190.385 270.653 231.641C270.653 235.684 267.377 238.991 263.373 238.991C183.105 238.991 102.792 238.991 22.4792 238.991C18.475 238.991 15.1987 235.684 15.1987 231.641C15.1987 190.385 15.1987 149.13 15.1987 107.874C15.1987 103.831 18.475 100.523 22.4792 100.523Z" fill="#F1C786"/>
<path fill-rule="evenodd" clip-rule="evenodd" d="M22.8433 101.948C102.929 101.948 182.969 101.948 263.054 101.948C267.013 101.948 270.244 105.21 270.244 109.207C270.244 150.003 270.244 190.799 270.244 231.549C270.244 235.546 267.013 238.854 263.054 238.854C182.969 238.854 102.929 238.854 22.8433 238.854C18.8845 238.854 15.6538 235.546 15.6538 231.549C15.6538 190.799 15.6538 150.003 15.6538 109.207C15.6538 105.21 18.8845 101.948 22.8433 101.948Z" fill="#F2CA88"/>
<path fill-rule="evenodd" clip-rule="evenodd" d="M23.2075 103.372C103.02 103.372 182.878 103.372 262.69 103.372C266.604 103.372 269.834 106.634 269.834 110.585C269.834 150.876 269.834 191.167 269.834 231.503C269.834 235.454 266.604 238.67 262.69 238.67C182.878 238.67 103.02 238.67 23.2075 238.67C19.2942 238.67 16.0635 235.454 16.0635 231.503C16.0635 191.167 16.0635 150.876 16.0635 110.585C16.0635 106.634 19.2942 103.372 23.2075 103.372Z" fill="#F2CC8A"/>
<path fill-rule="evenodd" clip-rule="evenodd" d="M23.5251 104.843C103.156 104.843 182.74 104.843 262.371 104.843C266.239 104.843 269.378 108.013 269.378 111.918C269.378 151.749 269.378 191.581 269.378 231.412C269.378 235.317 266.239 238.533 262.371 238.533C182.74 238.533 103.156 238.533 23.5251 238.533C19.6573 238.533 16.5176 235.317 16.5176 231.412C16.5176 191.581 16.5176 151.749 16.5176 111.918C16.5176 108.013 19.6573 104.843 23.5251 104.843Z" fill="#F2CE8B"/>
<path fill-rule="evenodd" clip-rule="evenodd" d="M23.8897 106.266C103.247 106.266 182.65 106.266 262.008 106.266C265.83 106.266 268.97 109.436 268.97 113.295C268.97 152.621 268.97 191.993 268.97 231.365C268.97 235.224 265.83 238.394 262.008 238.394C182.65 238.394 103.247 238.394 23.8897 238.394C20.0674 238.394 16.9277 235.224 16.9277 231.365C16.9277 191.993 16.9277 152.621 16.9277 113.295C16.9277 109.436 20.0674 106.266 23.8897 106.266Z" fill="#F2D08D"/>
<path fill-rule="evenodd" clip-rule="evenodd" d="M24.2543 107.691C103.384 107.691 182.514 107.691 261.644 107.691C265.421 107.691 268.515 110.815 268.515 114.628C268.515 153.495 268.515 192.407 268.515 231.274C268.515 235.087 265.421 238.211 261.644 238.211C182.514 238.211 103.384 238.211 24.2543 238.211C20.4775 238.211 17.3833 235.087 17.3833 231.274C17.3833 192.407 17.3833 153.495 17.3833 114.628C17.3833 110.815 20.4775 107.691 24.2543 107.691Z" fill="#F2D28E"/>
<path fill-rule="evenodd" clip-rule="evenodd" d="M24.572 109.161C103.474 109.161 182.377 109.161 261.325 109.161C265.056 109.161 268.105 112.239 268.105 115.96C268.105 154.413 268.105 192.82 268.105 231.228C268.105 234.995 265.056 238.073 261.325 238.073C182.377 238.073 103.474 238.073 24.572 238.073C20.8407 238.073 17.792 234.995 17.792 231.228C17.792 192.82 17.792 154.413 17.792 115.96C17.792 112.239 20.8407 109.161 24.572 109.161Z" fill="#F2D490"/>
<path fill-rule="evenodd" clip-rule="evenodd" d="M24.9365 110.585C103.611 110.585 182.286 110.585 260.961 110.585C264.647 110.585 267.65 113.618 267.65 117.339C267.65 155.287 267.65 193.234 267.65 231.136C267.65 234.858 264.647 237.89 260.961 237.89C182.286 237.89 103.611 237.89 24.9365 237.89C21.2508 237.89 18.2476 234.858 18.2476 231.136C18.2476 193.234 18.2476 155.287 18.2476 117.339C18.2476 113.618 21.2508 110.585 24.9365 110.585Z" fill="#F3D792"/>
<path fill-rule="evenodd" clip-rule="evenodd" d="M25.2552 112.009C103.703 112.009 182.15 112.009 260.597 112.009C264.238 112.009 267.241 115.041 267.241 118.67C267.241 156.159 267.241 193.601 267.241 231.089C267.241 234.765 264.238 237.751 260.597 237.751C182.15 237.751 103.703 237.751 25.2552 237.751C21.6604 237.751 18.6572 234.765 18.6572 231.089C18.6572 193.601 18.6572 156.159 18.6572 118.67C18.6572 115.041 21.6604 112.009 25.2552 112.009Z" fill="#F3D993"/>
<path fill-rule="evenodd" clip-rule="evenodd" d="M25.6183 113.479H260.278C263.873 113.479 266.785 116.419 266.785 120.049V230.998C266.785 234.627 263.873 237.613 260.278 237.613H25.6183C22.0235 237.613 19.1113 234.627 19.1113 230.998V120.049C19.1113 116.419 22.0235 113.479 25.6183 113.479Z" fill="#F3DB95"/>
<path d="M105.273 28.1371C103.306 50.0883 104.453 65.3784 110.517 77.9435C116.416 90.2059 127.396 100.803 145.095 113.368C162.794 100.803 173.938 90.2059 179.837 77.9435C185.901 65.3784 187.048 50.0883 184.917 28.1371C171.152 25.7149 158.205 24.3524 145.095 24.3524C132.149 24.201 119.202 25.5635 105.273 28.1371ZM93.4735 84.756C85.4434 68.1034 84.2963 48.5744 87.5739 20.2649L88.2294 14.2094L94.6206 12.8469C112.156 9.06225 128.543 7.24561 145.095 7.24561C161.647 7.24561 178.035 9.21364 195.57 12.8469L201.961 14.2094L202.616 20.2649C205.894 48.5744 204.747 68.1034 196.717 84.756C188.687 101.56 174.265 114.882 150.667 130.929L145.095 134.562L139.687 130.929C116.089 114.882 101.503 101.56 93.4735 84.756Z" fill="black" fill-opacity="0.101961"/>
<path d="M105.273 20.8988C103.306 42.8484 104.453 58.1375 110.517 70.5504C116.416 82.9634 127.396 93.5597 145.095 105.973C162.794 93.5597 173.938 82.9634 179.837 70.5504C185.901 58.1375 187.048 42.8484 184.917 20.8988C171.152 18.3253 158.205 16.963 145.095 16.963C132.149 16.963 119.202 18.174 105.273 20.8988ZM93.4735 77.5138C85.4434 60.7109 84.2963 41.3347 87.5739 13.0272L88.2294 6.97207L94.6206 5.60968C112.156 1.67387 128.543 -0.142652 145.095 0.0087247C161.647 0.0087247 178.035 1.82525 195.57 5.60968L201.961 6.97207L202.616 13.0272C205.894 41.3347 204.747 60.7109 196.717 77.5138C188.687 94.3166 174.265 107.486 150.667 123.532L145.095 127.317L139.687 123.532C116.089 107.486 101.503 94.3166 93.4735 77.5138Z" fill="white"/>
<path fill-rule="evenodd" clip-rule="evenodd" d="M97.2112 10.5402C91.2098 64.5591 101.104 83.4277 145.06 113.861C189.178 83.4277 199.072 64.5591 192.909 10.5402C159.658 3.5406 130.624 3.23627 97.2112 10.5402Z" fill="#E6E6E6"/>
<path fill-rule="evenodd" clip-rule="evenodd" d="M145.792 113.861C189.258 83.4169 199.006 64.5416 192.934 10.5035C176.634 7.00242 161.133 5.17578 145.792 5.17578V113.861Z" fill="#CCCCCC"/>
<path fill-rule="evenodd" clip-rule="evenodd" d="M145.025 102.621C132.539 94.1153 122.81 86.3689 115.513 78.6226C102.379 64.8007 96.5413 50.5231 95.7306 30.0181C94.2712 69.6611 106.757 87.4322 145.025 113.861C183.454 87.4322 195.778 69.6611 194.481 30.0181C193.67 50.5231 187.833 64.8007 174.698 78.6226C167.239 86.3689 157.51 94.1153 145.025 102.621Z" fill="white"/>
<path fill-rule="evenodd" clip-rule="evenodd" d="M95.6177 37.0657C95.7799 72.068 108.92 89.1165 145.095 113.86C181.27 89.1165 194.41 72.068 194.572 37.0657C194.572 35.4061 194.572 33.8974 194.572 32.0869C193.761 52.4546 187.921 66.6366 174.781 80.3659C167.319 88.0604 157.586 95.7549 145.095 104.355C132.604 95.7549 122.871 88.0604 115.571 80.3659C102.431 66.6366 96.591 52.4546 95.7799 32.0869C95.6177 33.8974 95.6177 35.557 95.6177 37.0657Z" fill="#999999"/>
<path fill-rule="evenodd" clip-rule="evenodd" d="M143.004 4.13965L148.579 5.19882L145.186 49.6839L143.004 4.13965Z" fill="white"/>
<path fill-rule="evenodd" clip-rule="evenodd" d="M145.014 120.781L139.61 116.981C116.027 100.867 101.452 87.6409 93.4275 70.7668C88.5145 60.4295 86.2218 49.0281 85.8942 35.1943C85.5667 52.0685 87.6957 65.2941 93.4275 77.3036C101.452 94.1777 116.027 107.403 139.61 123.517L145.014 127.318L150.582 123.517C174.165 107.403 188.576 94.1777 196.601 77.3036C202.333 65.2941 204.625 52.0685 204.298 35.1943C203.97 49.0281 201.514 60.4295 196.601 70.7668C188.576 87.6409 174.165 100.867 150.582 116.981L145.014 120.781Z" fill="#E6E6E6"/>
<path fill-rule="evenodd" clip-rule="evenodd" d="M88.4397 74.2575C88.4397 74.3896 88.4045 74.5217 88.4045 74.6537C88.4045 74.6867 88.4045 74.6867 88.4045 74.7198C88.3692 74.8188 88.3692 74.9178 88.334 75.0169C88.334 75.0499 88.2988 75.0829 88.2988 75.1159C88.2636 75.182 88.2636 75.248 88.2284 75.314C88.1932 75.3471 88.1579 75.3801 88.1579 75.4461C88.1227 75.4791 88.0875 75.5452 88.0523 75.5782C88.0523 75.6112 88.0171 75.6442 87.9818 75.6772C87.9466 75.7433 87.9114 75.7763 87.8762 75.8093C87.841 75.8423 87.8058 75.8753 87.7705 75.9083C87.7353 75.9414 87.6649 75.9744 87.6297 76.0074C87.5944 76.0404 87.5592 76.0734 87.4888 76.1064C87.4536 76.1064 87.4184 76.1395 87.3479 76.1725C87.3127 76.2055 87.2423 76.2385 87.207 76.2385C87.1366 76.2715 87.1014 76.3045 87.031 76.3045C86.9605 76.3376 86.9253 76.3376 86.8549 76.3706C86.7844 76.3706 86.7492 76.4036 86.6788 76.4036C86.6083 76.4366 86.5731 76.4366 86.5027 76.4366C86.4323 76.4696 86.3618 76.4696 86.2562 76.5026C86.2209 76.5026 86.1505 76.5026 86.1153 76.5026C86.0096 76.5026 85.9392 76.5357 85.8335 76.5357C85.7983 76.5357 85.7279 76.5357 85.6575 76.5357C85.5518 76.5357 85.4814 76.5357 85.3757 76.5357C85.3053 76.5357 85.2348 76.5357 85.1644 76.5357C85.094 76.5357 84.9883 76.5357 84.8827 76.5357H84.6714C84.5657 76.5357 84.46 76.5357 84.3544 76.5026H84.1431C84.0374 76.4696 83.8966 76.4696 83.7909 76.4696L83.5796 76.4366C83.4387 76.4036 83.2979 76.4036 83.1922 76.3706H82.9809C82.84 76.3376 82.6992 76.3045 82.5583 76.3045L82.347 76.2715C82.2061 76.2385 82.0652 76.2055 81.9244 76.1725L81.6778 76.1395C81.537 76.1064 81.3609 76.0734 81.22 76.0404H81.0439L80.4804 75.9083L80.3396 75.8753C75.9373 74.9839 70.1616 73.3661 64.1393 72.6397C63.1532 72.5077 62.2023 72.4086 61.2162 72.3426H61.181C60.864 72.3096 60.5471 72.3096 60.2301 72.2765H60.1949C59.8779 72.2765 59.561 72.2435 59.244 72.2435H59.2088C52.6582 72.0784 46.1781 73.3661 41.2124 78.1204H41.1772L41.0363 78.2525V78.2855C40.7898 78.4836 40.5785 78.7147 40.3672 78.9458C43.7129 65.6733 49.9817 61.6783 57.9409 57.8814L57.6592 57.6503L56.6731 56.8579H233.467L232.481 57.6503L232.199 57.8814C240.123 61.6783 246.427 65.6733 249.773 78.9458C249.562 78.7147 249.35 78.4836 249.104 78.2855V78.2525L248.963 78.1204H248.928C243.962 73.3661 237.482 72.0784 230.931 72.2435H230.896C230.579 72.2435 230.227 72.2765 229.91 72.2765C229.593 72.3096 229.276 72.3096 228.959 72.3426H228.924C227.938 72.4086 226.987 72.5077 226.001 72.6397H225.966C219.943 73.3661 214.168 74.9839 209.765 75.8753L209.625 75.9083L209.096 76.0404H208.92C208.779 76.0734 208.603 76.1064 208.462 76.1395L208.216 76.1725C208.075 76.2055 207.934 76.2385 207.793 76.2715L207.582 76.3045C207.441 76.3045 207.3 76.3376 207.159 76.3706H206.948C206.807 76.4036 206.702 76.4036 206.561 76.4366L206.349 76.4696C206.244 76.4696 206.103 76.4696 205.997 76.5026H205.786C205.68 76.5357 205.575 76.5357 205.434 76.5357H205.258C205.152 76.5357 205.046 76.5357 204.941 76.5357C204.905 76.5357 204.835 76.5357 204.765 76.5357C204.659 76.5357 204.553 76.5357 204.483 76.5357C204.412 76.5357 204.342 76.5357 204.307 76.5357C204.201 76.5357 204.131 76.5026 204.025 76.5026C203.99 76.5026 203.919 76.5026 203.849 76.5026C203.778 76.4696 203.708 76.4696 203.638 76.4366C203.567 76.4366 203.532 76.4366 203.461 76.4036C203.391 76.4036 203.321 76.3706 203.285 76.3706C203.215 76.3376 203.145 76.3376 203.109 76.3045C203.039 76.3045 203.004 76.2715 202.933 76.2385C202.898 76.2385 202.828 76.2055 202.792 76.1725C202.722 76.1395 202.687 76.1064 202.616 76.1064C202.581 76.0734 202.546 76.0404 202.511 76.0074C202.44 75.9744 202.405 75.9414 202.37 75.9083C202.334 75.8753 202.299 75.8423 202.264 75.8093C202.229 75.7763 202.194 75.7433 202.158 75.6772C202.123 75.6442 202.088 75.6112 202.053 75.5782C202.053 75.5452 202.018 75.4791 201.982 75.4461C201.947 75.3801 201.947 75.3471 201.912 75.314C201.877 75.248 201.877 75.182 201.841 75.1159C201.841 75.0829 201.806 75.0499 201.806 75.0169C201.771 74.9178 201.771 74.8188 201.736 74.7198C201.736 74.6867 201.736 74.6867 201.736 74.6537C201.701 74.5217 201.701 74.3896 201.701 74.2575V71.154V64.8148H201.665L201.313 64.7818H201.278V64.7488H201.243H201.208H201.172H201.137H201.102H201.067H201.031V64.7158H200.996L200.116 64.6168L200.081 64.5837H200.045H200.01L199.271 64.4847H199.235C198.777 64.4187 198.284 64.3526 197.791 64.3196L197.756 64.2866H197.721L197.017 64.2206H196.981H196.946L196.911 64.1875H196.876L196.136 64.1215H196.101H196.066L196.03 64.0885H195.995H195.96H195.925H195.89H195.854L195.009 63.9894H194.974H194.939H194.904C194.41 63.9234 193.917 63.8904 193.424 63.8244H193.389H193.354L192.509 63.7253L191.311 63.6263L190.431 63.5602H190.396L190.36 63.5272H190.325C189.797 63.4942 189.269 63.4612 188.705 63.3951H188.67H188.6H188.564L187.684 63.3291H187.649H187.613H187.578L187.543 63.2961H187.508H187.473H187.437L186.592 63.2301H186.557H186.522H186.486H186.451H186.416H186.381L185.465 63.164H185.43H185.395L185.359 63.131C184.796 63.098 184.232 63.065 183.669 63.032H183.634H183.599H183.563H183.528L182.542 62.9659L181.204 62.8669H181.169L180.218 62.8009H180.182H180.147H180.112H180.077C179.513 62.7678 178.915 62.7348 178.351 62.7018H178.316H178.281H178.245H178.21H178.175L177.083 62.6358L175.851 62.5697H175.815L174.583 62.5037H174.548H174.512H174.477L172.751 62.4377H172.716H172.681H172.646L171.484 62.3716H171.413L170.145 62.3386L168.596 62.2726H168.56H168.525H168.49H168.455H168.42H168.384H168.349H168.314L166.94 62.2066H166.905H166.87H166.835H166.8L165.673 62.1735L164.264 62.1405L162.75 62.1075L160.848 62.0415H160.813H159.686L158.171 62.0085L156.903 61.9754C156.305 61.9754 155.706 61.9424 155.107 61.9424H155.072H155.037H155.002H154.966H154.931H154.896H154.861H154.825H153.628H153.593L152.255 61.9094H152.219H152.184H152.149H152.114H152.078H150.599H150.564H150.529H150.494H150.458H150.423H150.388H150.353H150.318L148.733 61.8764H147.571H145.915H145.845H144.154H142.64H141.407H141.372L139.823 61.9094H139.787H137.886L136.583 61.9424H136.512H135.35H135.315L133.554 61.9754H133.519L131.899 62.0085L130.49 62.0415H129.222L127.672 62.1075H127.637H127.602H127.567L126.264 62.1405H126.229H126.193H126.158H126.123H126.088H126.052H126.017H125.982H125.947H125.912H125.876L124.468 62.1735L123.305 62.2066L121.685 62.2726H121.65L119.889 62.3386L118.798 62.3716L117.494 62.4377H117.459L116.227 62.5037H116.191H116.156H116.121H116.086H116.051H116.015H115.945H115.91L114.536 62.5697H114.501H114.466H114.431H114.395H114.36H114.325H114.29H114.254H114.219L113.127 62.6358L111.895 62.7018H111.86H111.824H111.789H111.754H111.719H111.684L111.648 62.7348L110.204 62.8009H110.169H110.134H110.099H110.063H110.028H109.993H109.958L108.937 62.8669L107.598 62.9659H107.563L106.647 63.032H106.612H106.577C105.978 63.065 105.415 63.098 104.851 63.131H104.816L104.781 63.164H104.746H104.71L103.724 63.2301H103.689L102.562 63.3291H102.527L101.506 63.3951H101.47H101.435H101.4H101.365C100.836 63.4612 100.343 63.4942 99.8503 63.5272L99.7799 63.5602H99.7446L98.7938 63.6263L97.702 63.7253L96.7863 63.8244H96.7511H96.7159C96.2228 63.8904 95.7298 63.9234 95.2367 63.9894H95.2015H95.1663H95.1311L94.2859 64.0885H94.2506L93.2293 64.2206H93.1941H93.1589H93.1237H93.0884L92.4545 64.2866H92.4193H92.3841V64.3196H92.3489C91.891 64.3526 91.398 64.4187 90.9402 64.4847H90.9049H90.8697H90.8345L90.7993 64.5177L90.2006 64.5837H90.1654H90.1301H90.0949L90.0597 64.6168L89.1793 64.7158H89.144L89.1088 64.7488H89.0736L88.4397 64.8479V71.154V74.2575Z" fill="black" fill-opacity="0.101961"/>
<path fill-rule="evenodd" clip-rule="evenodd" d="M88.4402 71.2202C88.4402 80.1016 56.0749 59.1692 40.3677 75.9085C44.2064 62.1407 49.3835 59.3343 57.9414 54.8441L44.9108 44.3779C58.0471 39.0623 81.4318 51.7405 88.4402 39.6235V71.2202Z" fill="#E54149"/>
<path fill-rule="evenodd" clip-rule="evenodd" d="M41.2129 75.0831C40.8959 75.3472 40.6494 75.6113 40.3677 75.9085C43.7134 62.6359 49.9822 58.6409 57.9414 54.8441C52.7644 61.1832 44.946 63.7255 41.2129 75.0831ZM46.6013 45.7316L44.9108 44.3779C58.0471 39.0623 81.4318 51.7405 88.4402 39.6235V41.5385C81.7135 53.1602 59.9488 42.0007 46.6013 45.7316Z" fill="#FF6595"/>
<path fill-rule="evenodd" clip-rule="evenodd" d="M88.4402 71.22C88.4402 80.1014 56.0749 59.169 40.3677 75.9083C51.4965 54.3486 88.4402 76.9318 88.4402 68.1495V71.22Z" fill="#CF1922"/>
<path fill-rule="evenodd" clip-rule="evenodd" d="M75.6909 35.7935L88.4398 36.883V71.22C85.6224 61.183 75.6909 70.7578 75.6909 65.8713V35.7935Z" fill="#E54149"/>
<path fill-rule="evenodd" clip-rule="evenodd" d="M75.6909 35.7935L88.4398 36.85V71.22C86.6437 60.3246 76.184 70.1304 76.4657 64.1875L75.6909 35.7935Z" fill="#AB0009"/>
<path fill-rule="evenodd" clip-rule="evenodd" d="M201.701 71.2202C201.701 80.1016 234.066 59.1692 249.773 75.9085C245.934 62.1407 240.757 59.3343 232.199 54.8441L245.23 44.3779C232.094 39.0623 208.709 51.7405 201.701 39.6235V71.2202Z" fill="#E54149"/>
<path fill-rule="evenodd" clip-rule="evenodd" d="M201.701 71.2199C201.701 80.1013 234.066 59.1689 249.773 75.9082C245.934 62.1404 240.757 59.334 232.199 54.8438L232.481 54.6126C220.366 55.6031 206.772 59.7962 201.701 51.0469V71.2199Z" fill="url(#paint0_linear_486_107092)"/>
<path fill-rule="evenodd" clip-rule="evenodd" d="M248.928 75.0831C249.21 75.3472 249.491 75.6113 249.773 75.9085C246.427 62.6359 240.123 58.6409 232.199 54.8441C237.376 61.1832 245.195 63.7255 248.928 75.0831ZM243.54 45.7316L245.23 44.3779C232.094 39.0623 208.709 51.7405 201.701 39.6235V41.5385C208.427 53.1602 230.157 42.0007 243.54 45.7316Z" fill="#FF6595"/>
<path fill-rule="evenodd" clip-rule="evenodd" d="M201.701 71.2205C201.701 80.1019 234.066 59.1695 249.773 75.9088C238.609 54.3491 201.701 76.9323 201.701 68.1499V71.2205Z" fill="#CF1922"/>
<path fill-rule="evenodd" clip-rule="evenodd" d="M214.45 35.7935L201.701 36.883V71.22C204.518 61.183 214.45 70.7578 214.45 65.8713V35.7935Z" fill="#E54149"/>
<path fill-rule="evenodd" clip-rule="evenodd" d="M214.45 35.7935L201.701 36.85V71.22C203.497 60.3246 213.957 70.1304 213.675 64.1875L214.45 35.7935Z" fill="#AB0009"/>
<path fill-rule="evenodd" clip-rule="evenodd" d="M75.6904 35.7937C77.8035 24.0069 212.371 24.0069 214.484 35.7937V65.6405C207.194 56.561 82.9453 56.561 75.6904 65.6405V35.7937Z" fill="#E54149"/>
<path fill-rule="evenodd" clip-rule="evenodd" d="M214.484 47.7126V65.6405C207.194 56.561 82.9453 56.561 75.6904 65.6405V47.7126C98.3356 40.2839 191.839 40.2839 214.484 47.7126Z" fill="#E01B25"/>
<path fill-rule="evenodd" clip-rule="evenodd" d="M75.7256 35.6947C78.4726 24.0399 211.702 24.0399 214.449 35.6947C197.404 26.9454 92.7711 26.9454 75.7256 35.6947Z" fill="#FF6595"/>
<path fill-rule="evenodd" clip-rule="evenodd" d="M214.484 63.9229V65.6398C207.194 56.5603 82.9453 56.5603 75.6904 65.6398V63.9229C82.9453 54.8434 207.194 54.8434 214.484 63.9229Z" fill="#C20F18"/>
<path d="M87.6328 45.4453L87.1875 43.5625L86.7422 45.4844L87.6328 45.4453ZM86.4062 46.9375L85.6953 50L83.6875 49.6875L86.2031 40.75H88.1875L90.8594 49.25L88.6562 49.8125L87.9844 46.9375H86.4062ZM90.8047 41.625C90.7943 42.375 90.7891 43.125 90.7891 43.875C90.7891 45.8802 90.8333 47.8984 90.9219 49.9297H92.9844C92.8073 48.6224 92.7188 47.4167 92.7188 46.3125C92.7188 46.099 92.7214 45.888 92.7266 45.6797L94.8594 50.125L96.9219 50.0547C96.7083 48.1536 96.6016 46.3333 96.6016 44.5938C96.6016 43.5104 96.6432 42.4583 96.7266 41.4375L94.6016 41.3672C94.5911 41.7734 94.5859 42.1615 94.5859 42.5312C94.5859 43.8802 94.6536 44.9505 94.7891 45.7422L93.1172 41.6875L90.8047 41.625ZM97.5078 41.0078C97.612 42.5026 97.6641 44.0078 97.6641 45.5234C97.6641 47.0391 97.612 48.5625 97.5078 50.0938L99.5703 50.375L99.8828 40.8672L97.5078 41.0078ZM100.266 41.6875L99.875 49.8906L101.969 50.0234L102.172 45.2812L102.758 48.3359H104.727L105.453 45.5547V50.2344L107.688 50.375C107.641 47.4792 107.464 44.5833 107.156 41.6875L104.859 41.7578L103.812 45.2812L102.758 41.5547L100.266 41.6875ZM111.508 45.4453L111.062 43.5625L110.617 45.4844L111.508 45.4453ZM110.281 46.9375L109.57 50L107.562 49.6875L110.078 40.75H112.062L114.734 49.25L112.531 49.8125L111.859 46.9375H110.281ZM117.047 41.1328C116.943 42.612 116.891 43.9505 116.891 45.1484C116.891 46.3411 116.943 47.3958 117.047 48.3125L120.047 47.9375L119.984 50.25L114.984 50.375L114.672 41L117.047 41.1328ZM120.188 49.1406L121.227 46.8125C122.523 47.6667 123.529 48.0938 124.242 48.0938C124.503 48.0938 124.747 48.0182 124.977 47.8672C125.237 47.7005 125.367 47.4948 125.367 47.25C125.367 46.8802 124.885 46.5729 123.922 46.3281C122.516 45.9688 121.568 45.2318 121.078 44.1172C120.917 43.7526 120.836 43.4089 120.836 43.0859C120.836 42.2526 121.258 41.6224 122.102 41.1953C122.763 40.862 123.552 40.6953 124.469 40.6953C125.281 40.6953 126.234 40.8021 127.328 41.0156L126.586 43.2344C125.763 42.8646 125.091 42.6797 124.57 42.6797C124.336 42.6797 124.102 42.737 123.867 42.8516C123.586 42.987 123.445 43.1667 123.445 43.3906C123.445 43.6042 123.63 43.8281 124 44.0625C124.26 44.2292 124.755 44.4557 125.484 44.7422C126.115 44.9922 126.562 45.2344 126.828 45.4688C127.229 45.8229 127.443 46.2969 127.469 46.8906C127.516 47.875 127.062 48.763 126.109 49.5547C125.703 49.8932 125.109 50.0625 124.328 50.0625C123.281 50.0625 121.901 49.7552 120.188 49.1406ZM131.812 41.5938L133.797 49.8594C134.115 49.8177 134.427 49.7969 134.734 49.7969C135.281 49.7969 135.81 49.862 136.32 49.9922L139.062 41.0625L136.938 40.9375L135.422 45.9922L134.25 40.9375L131.812 41.5938ZM139.172 49.1406L140.211 46.8125C141.508 47.6667 142.513 48.0938 143.227 48.0938C143.487 48.0938 143.732 48.0182 143.961 47.8672C144.221 47.7005 144.352 47.4948 144.352 47.25C144.352 46.8802 143.87 46.5729 142.906 46.3281C141.5 45.9688 140.552 45.2318 140.062 44.1172C139.901 43.7526 139.82 43.4089 139.82 43.0859C139.82 42.2526 140.242 41.6224 141.086 41.1953C141.747 40.862 142.536 40.6953 143.453 40.6953C144.266 40.6953 145.219 40.8021 146.312 41.0156L145.57 43.2344C144.747 42.8646 144.076 42.6797 143.555 42.6797C143.32 42.6797 143.086 42.737 142.852 42.8516C142.57 42.987 142.43 43.1667 142.43 43.3906C142.43 43.6042 142.615 43.8281 142.984 44.0625C143.245 44.2292 143.74 44.4557 144.469 44.7422C145.099 44.9922 145.547 45.2344 145.812 45.4688C146.214 45.8229 146.427 46.2969 146.453 46.8906C146.5 47.875 146.047 48.763 145.094 49.5547C144.688 49.8932 144.094 50.0625 143.312 50.0625C142.266 50.0625 140.885 49.7552 139.172 49.1406ZM151.188 41.6875L150.797 49.8906L152.891 50.0234L153.094 45.2812L153.68 48.3359H155.648L156.375 45.5547V50.2344L158.609 50.375C158.562 47.4792 158.385 44.5833 158.078 41.6875L155.781 41.7578L154.734 45.2812L153.68 41.5547L151.188 41.6875ZM158.953 46.2578C158.995 44.9245 159.318 43.7682 159.922 42.7891C160.646 41.612 161.625 41.0234 162.859 41.0234C164.146 41.0234 165.076 41.349 165.648 42C166.112 42.5312 166.479 43.4896 166.75 44.875C166.854 45.4115 166.906 45.9219 166.906 46.4062C166.906 47.4323 166.656 48.2917 166.156 48.9844C165.427 49.9948 164.32 50.4766 162.836 50.4297C161.352 50.3828 160.333 50.0052 159.781 49.2969C159.188 48.5417 158.911 47.5286 158.953 46.2578ZM164.039 44.1328C163.633 43.7474 163.25 43.5547 162.891 43.5547C162.453 43.5547 162.049 43.8464 161.68 44.4297C161.346 44.9557 161.18 45.4688 161.18 45.9688C161.18 46.4427 161.331 46.9245 161.633 47.4141C161.971 47.9661 162.362 48.2422 162.805 48.2422C163.268 48.2422 163.719 47.9609 164.156 47.3984C164.568 46.8672 164.773 46.3594 164.773 45.875C164.773 45.3073 164.529 44.7266 164.039 44.1328ZM166.852 41.625C166.841 42.375 166.836 43.125 166.836 43.875C166.836 45.8802 166.88 47.8984 166.969 49.9297H169.031C168.854 48.6224 168.766 47.4167 168.766 46.3125C168.766 46.099 168.768 45.888 168.773 45.6797L170.906 50.125L172.969 50.0547C172.755 48.1536 172.648 46.3333 172.648 44.5938C172.648 43.5104 172.69 42.4583 172.773 41.4375L170.648 41.3672C170.638 41.7734 170.633 42.1615 170.633 42.5312C170.633 43.8802 170.701 44.9505 170.836 45.7422L169.164 41.6875L166.852 41.625ZM173.219 49.1406L174.258 46.8125C175.555 47.6667 176.56 48.0938 177.273 48.0938C177.534 48.0938 177.779 48.0182 178.008 47.8672C178.268 47.7005 178.398 47.4948 178.398 47.25C178.398 46.8802 177.917 46.5729 176.953 46.3281C175.547 45.9688 174.599 45.2318 174.109 44.1172C173.948 43.7526 173.867 43.4089 173.867 43.0859C173.867 42.2526 174.289 41.6224 175.133 41.1953C175.794 40.862 176.583 40.6953 177.5 40.6953C178.312 40.6953 179.266 40.8021 180.359 41.0156L179.617 43.2344C178.794 42.8646 178.122 42.6797 177.602 42.6797C177.367 42.6797 177.133 42.737 176.898 42.8516C176.617 42.987 176.477 43.1667 176.477 43.3906C176.477 43.6042 176.661 43.8281 177.031 44.0625C177.292 44.2292 177.786 44.4557 178.516 44.7422C179.146 44.9922 179.594 45.2344 179.859 45.4688C180.26 45.8229 180.474 46.2969 180.5 46.8906C180.547 47.875 180.094 48.763 179.141 49.5547C178.734 49.8932 178.141 50.0625 177.359 50.0625C176.312 50.0625 174.932 49.7552 173.219 49.1406ZM183.414 43.2812L183.539 50.1953L185.594 50.4375L185.469 43.1562L188.141 43.0391L188.195 40.9922C185.773 41.1536 183.13 41.375 180.266 41.6562L180.391 43.7578L183.414 43.2812ZM188.359 40.6641L188.156 50.0469L193.547 50.125L193.602 47.6875H190.312V46.4375L193.305 46.5L193.367 44.5H190.312V43.1875L193.906 43.25L193.898 40.7344L188.359 40.6641ZM194.211 40.3125L194.078 50.1875L196.391 50.3359V47.875L198.484 50.375L201.297 50.4062L197.953 46.4375C199.229 45.3281 199.867 44.3125 199.867 43.3906C199.867 42.8958 199.682 42.4297 199.312 41.9922C198.359 40.862 196.875 40.2969 194.859 40.2969C194.646 40.2969 194.43 40.3021 194.211 40.3125ZM196.391 44.9141V42.4141C197.354 42.5599 197.836 42.9245 197.836 43.5078C197.836 43.9818 197.354 44.4505 196.391 44.9141ZM200.438 49.1406L201.477 46.8125C202.773 47.6667 203.779 48.0938 204.492 48.0938C204.753 48.0938 204.997 48.0182 205.227 47.8672C205.487 47.7005 205.617 47.4948 205.617 47.25C205.617 46.8802 205.135 46.5729 204.172 46.3281C202.766 45.9688 201.818 45.2318 201.328 44.1172C201.167 43.7526 201.086 43.4089 201.086 43.0859C201.086 42.2526 201.508 41.6224 202.352 41.1953C203.013 40.862 203.802 40.6953 204.719 40.6953C205.531 40.6953 206.484 40.8021 207.578 41.0156L206.836 43.2344C206.013 42.8646 205.341 42.6797 204.82 42.6797C204.586 42.6797 204.352 42.737 204.117 42.8516C203.836 42.987 203.695 43.1667 203.695 43.3906C203.695 43.6042 203.88 43.8281 204.25 44.0625C204.51 44.2292 205.005 44.4557 205.734 44.7422C206.365 44.9922 206.812 45.2344 207.078 45.4688C207.479 45.8229 207.693 46.2969 207.719 46.8906C207.766 47.875 207.312 48.763 206.359 49.5547C205.953 49.8932 205.359 50.0625 204.578 50.0625C203.531 50.0625 202.151 49.7552 200.438 49.1406Z" fill="white"/>
<defs>
<linearGradient id="paint0_linear_486_107092" x1="209.206" y1="63.7189" x2="242.196" y2="61.9182" gradientUnits="userSpaceOnUse">
<stop stop-color="#AB0009"/>
<stop offset="1" stop-color="#E54149"/>
</linearGradient>
</defs>
</svg>
