<svg width="81" height="72" viewBox="0 0 81 72" fill="none" xmlns="http://www.w3.org/2000/svg">
<path d="M4.32865 59.0005L37.4244 63.8539C38.7745 54.7309 32.4254 46.2283 23.3031 44.8781C14.1808 43.5644 5.67875 49.8775 4.32865 59.0005Z" stroke="#999999" stroke-width="4"/>
<path d="M4.32865 59.0005L37.4244 63.8539C38.7745 54.7309 32.4254 46.2283 23.3031 44.8781C14.1808 43.5644 5.67875 49.8775 4.32865 59.0005Z" fill="#E6E6E6"/>
<path d="M30.3816 47.688C31.5127 50.3884 31.9506 53.3807 31.5127 56.4825L6.51764 52.8333C5.86084 53.9646 5.31349 55.1688 4.91211 56.4461C4.98509 56.4461 5.0581 56.4582 5.13108 56.4825L37.6064 61.2265C37.5335 55.7162 34.7603 50.7168 30.3816 47.688V47.688Z" fill="#CCCCCC"/>
<path d="M2.13907 58.7085L2.02958 59.3653C1.81065 60.7885 2.83234 62.1387 4.25542 62.3576L36.9863 67.1381C38.4094 67.357 39.7595 66.3353 39.9785 64.9121L40.0879 64.2553C40.2703 62.8321 39.2851 61.4453 37.8256 61.2629L5.13117 56.4825C3.6716 56.2635 2.32151 57.2488 2.13907 58.7085Z" stroke="#999999" stroke-width="4"/>
<path d="M2.13907 58.7085L2.02958 59.3653C1.81065 60.7885 2.83234 62.1387 4.25542 62.3576L36.9863 67.1381C38.4094 67.357 39.7595 66.3353 39.9785 64.9121L40.0879 64.2553C40.2703 62.8321 39.2851 61.4453 37.8256 61.2629L5.13117 56.4825C3.6716 56.2635 2.32151 57.2488 2.13907 58.7085Z" fill="#E6E6E6"/>
<path d="M35.4903 65.0581L2.79599 60.2777C2.50408 60.2291 2.24866 60.1439 2.02973 60.0223C2.13919 61.19 3.05141 62.1753 4.25556 62.3577L36.9864 67.1381C38.4094 67.357 39.7596 66.3353 39.9785 64.9121L40.088 64.2553C40.2339 63.0876 39.6136 61.9928 38.5919 61.4819C38.6162 61.7009 38.6162 61.932 38.5919 62.1753L38.4824 62.7957C38.3 64.2553 36.9499 65.2406 35.4903 65.0581V65.0581Z" fill="#CCCCCC"/>
<path d="M17.0628 45.8269C14.6545 46.2283 12.5016 47.6879 12.2827 49.0746C12.1003 50.4613 13.8882 51.2642 16.333 50.8628C18.7778 50.4613 20.9306 49.0017 21.113 47.615C21.332 46.1918 19.5075 45.4255 17.0628 45.8269Z" fill="white"/>
<path d="M76.6135 37.5432H5.60552V57.2853H76.6135V37.5432Z" fill="black"/>
<path d="M41.6201 2C21.2591 2 4.76601 18.4944 4.76601 38.8569L41.6566 39.0759L52.0925 49.4761L78.1823 49.2206L78.4377 38.8569C78.4377 18.4944 61.9446 2 41.6201 2V2Z" stroke="#999999" stroke-width="4"/>
<path d="M41.6201 2C21.2591 2 4.76601 18.4944 4.76601 38.8569L41.6566 39.0759L52.0925 49.4761L78.1823 49.2206L78.4377 38.8569C78.4377 18.4944 61.9446 2 41.6201 2V2Z" fill="#E6E6E6"/>
<path d="M78.0002 60.5696L78.73 52.5779H50.8522L40.5622 42.0682H4.98518V60.5696L10.0207 64.4742H74.0229L78.0002 60.5696Z" stroke="#999999" stroke-width="4"/>
<path d="M78.0002 60.5696L78.73 52.5779H50.8522L40.5622 42.0682H4.98518V60.5696L10.0207 64.4742H74.0229L78.0002 60.5696Z" fill="#E6E6E6"/>
<path d="M10.0207 64.4742H74.0229L78.0002 60.5696H4.98521L10.0207 64.4742Z" fill="#B3B3B3"/>
<path d="M55.7417 49.4395L76.6135 49.2206H78.1826L78.438 38.8569C78.438 25.3549 71.1766 13.5315 60.3394 7.10895C66.9439 14.5168 66.652 25.2089 61.6895 37.5432C60.1204 41.3748 58.1135 45.3524 55.7417 49.4395V49.4395Z" fill="#CCCCCC"/>
<path d="M50.7792 57.2853C50.0494 58.38 49.2953 59.4748 48.5169 60.5696H78.0002L78.73 52.5778H76.6136H53.8443C52.8713 54.1348 51.8496 55.704 50.7792 57.2853V57.2853Z" fill="#CCCCCC"/>
<path d="M32.3887 6.26961C25.1273 8.05771 19.289 13.1301 19.289 17.5821C19.289 22.0341 25.1273 24.1871 32.3887 22.3625C39.6135 20.5744 45.4883 15.5021 45.4883 11.05C45.4883 6.59803 39.6135 4.44501 32.3887 6.26961Z" fill="white"/>
<path d="M11.2247 22.691C8.19608 25.2819 6.59056 29.15 7.68524 31.3031C8.74343 33.4196 12.1004 33.0547 15.129 30.4273C18.1577 27.7998 19.7632 23.9682 18.705 21.8152C17.6103 19.6622 14.2898 20.0636 11.2247 22.691Z" fill="white"/>
<path d="M21.8067 26.4131C14.8737 26.4131 9.25434 32.8722 9.25434 40.8275C9.25434 48.8192 14.8737 55.2783 21.8067 55.2783C28.7031 55.2783 34.3225 48.8192 34.3225 40.8275C34.3225 32.8722 28.7031 26.4131 21.8067 26.4131Z" fill="black" stroke="#999999" stroke-width="4"/>
<path d="M24.0325 32.4343C20.0187 32.4343 16.7347 36.193 16.7347 40.8275C16.7347 45.4619 20.0187 49.2571 24.0325 49.2571C28.0463 49.2571 31.3303 45.4619 31.3303 40.8275C31.3303 36.193 28.0463 32.4343 24.0325 32.4343Z" fill="#BA0000"/>
<path d="M21.9527 37.3243C20.2012 37.3243 18.7417 38.9664 18.7417 41.0099C18.7417 43.0535 20.2012 44.7321 21.9527 44.7321C23.7406 44.7321 25.2002 43.0535 25.2002 41.0099C25.2002 38.9664 23.7406 37.3243 21.9527 37.3243Z" fill="#600000"/>
<path d="M21.6241 34.4048C20.274 34.4048 18.778 35.6456 18.2306 37.1783C17.6833 38.6745 18.3036 39.9152 19.6172 39.9152C20.9673 39.9152 22.4634 38.6745 23.0107 37.1783C23.558 35.6456 22.9377 34.4048 21.6241 34.4048Z" fill="white"/>
<path d="M27.6088 39.5867C25.5288 39.5867 23.084 41.5573 22.2448 43.9658C21.369 46.4107 22.3543 48.3448 24.4707 48.3448C26.5871 48.3448 28.9953 46.4107 29.8711 43.9658C30.7103 41.5573 29.7251 39.5867 27.6088 39.5867V39.5867Z" fill="white"/>
<path d="M36.1833 66.4448H69.644C69.644 57.2124 62.1638 49.6951 52.9319 49.6951C43.7001 49.6951 36.1833 57.2124 36.1833 66.4448Z" stroke="#999999" stroke-width="4"/>
<path d="M36.1833 66.4448H69.644C69.644 57.2124 62.1638 49.6951 52.9319 49.6951C43.7001 49.6951 36.1833 57.2124 36.1833 66.4448Z" fill="#E6E6E6"/>
<path d="M60.339 51.4466C61.835 53.9645 62.7108 56.8839 62.7108 60.0222H37.4603C36.9859 61.2264 36.621 62.5037 36.4021 63.8174C36.4751 63.8174 36.548 63.8174 36.621 63.8174H69.4248C68.5856 58.3801 65.0826 53.8186 60.339 51.4466V51.4466Z" fill="#CCCCCC"/>
<path d="M33.9576 66.4448V67.1017C33.9576 68.5614 35.1617 69.7656 36.6213 69.7656H69.6806C71.1037 69.7656 72.3079 68.5614 72.3079 67.1017V66.4448C72.3079 64.9852 71.1037 63.8174 69.6806 63.8174H36.6213C35.1617 63.8174 33.9576 64.9852 33.9576 66.4448Z" stroke="#999999" stroke-width="4"/>
<path d="M33.9576 66.4448V67.1017C33.9576 68.5614 35.1617 69.7656 36.6213 69.7656H69.6806C71.1037 69.7656 72.3079 68.5614 72.3079 67.1017V66.4448C72.3079 64.9852 71.1037 63.8174 69.6806 63.8174H36.6213C35.1617 63.8174 33.9576 64.9852 33.9576 66.4448Z" fill="#E6E6E6"/>
<path d="M67.8927 67.9045H34.8333C34.5657 67.9045 34.2982 67.8559 34.0306 67.7586C34.359 68.8898 35.3807 69.7656 36.6213 69.7656H69.6806C71.1037 69.7656 72.3079 68.5614 72.3079 67.1017V66.4448C72.3079 65.2771 71.5416 64.2553 70.4469 63.9269C70.5199 64.1458 70.5564 64.3648 70.5564 64.5837V65.2406C70.5564 66.7003 69.3522 67.9045 67.8927 67.9045V67.9045Z" fill="#CCCCCC"/>
<path d="M46.9113 51.556C44.5395 52.2859 42.642 54.0375 42.642 55.4607C42.642 56.8473 44.5395 57.3948 46.9113 56.6284C49.2466 55.8621 51.144 54.1104 51.144 52.7238C51.144 51.3006 49.2466 50.7897 46.9113 51.556Z" fill="white"/>
</svg>
