<svg width="81" height="72" viewBox="0 0 81 72" fill="none" xmlns="http://www.w3.org/2000/svg">
<path d="M4.22565 66.4813H37.6833C37.6833 57.2489 30.1672 49.7681 20.9362 49.7681C11.7053 49.7681 4.22565 57.2489 4.22565 66.4813V66.4813Z" stroke="#999999" stroke-width="4"/>
<path d="M4.22565 66.4813H37.6833C37.6833 57.2489 30.1672 49.7681 20.9362 49.7681C11.7053 49.7681 4.22565 57.2489 4.22565 66.4813V66.4813Z" fill="#E6E6E6"/>
<path d="M28.3796 51.4831C29.8755 54.001 30.7147 56.9204 30.7147 60.0587H5.50278C4.99198 61.263 4.66359 62.5402 4.44468 63.8539C4.51765 63.8539 4.57846 63.8539 4.62711 63.8539H37.4646C36.5889 58.4166 33.1228 53.8551 28.3796 51.4831Z" fill="#CCCCCC"/>
<path d="M2.00006 66.4813V67.1381C2.00006 68.5978 3.1676 69.8021 4.62704 69.8021H37.6834C39.1429 69.8021 40.3469 68.5978 40.3469 67.1381V66.4813C40.3469 65.0216 39.1429 63.8539 37.6834 63.8539H4.62704C3.1676 63.8539 2.00006 65.0216 2.00006 66.4813Z" stroke="#999999" stroke-width="4"/>
<path d="M2.00006 66.4813V67.1381C2.00006 68.5978 3.1676 69.8021 4.62704 69.8021H37.6834C39.1429 69.8021 40.3469 68.5978 40.3469 67.1381V66.4813C40.3469 65.0216 39.1429 63.8539 37.6834 63.8539H4.62704C3.1676 63.8539 2.00006 65.0216 2.00006 66.4813Z" fill="#E6E6E6"/>
<path d="M35.9321 67.941H2.87566C2.58377 67.941 2.3162 67.8923 2.07296 67.795C2.36485 68.9628 3.42295 69.8021 4.62699 69.8021H37.6834C39.1429 69.8021 40.3469 68.5978 40.3469 67.1381V66.4813C40.3469 65.3136 39.5442 64.2918 38.4861 63.9634C38.5348 64.1823 38.5591 64.4013 38.5591 64.6202V65.2771C38.5591 66.7367 37.3916 67.941 35.9321 67.941V67.941Z" fill="#CCCCCC"/>
<path d="M14.9159 51.5926C12.5808 52.3224 10.6835 54.0741 10.6835 55.4972C10.6835 56.8839 12.5808 57.4313 14.9159 56.665C17.2875 55.8986 19.1848 54.147 19.1848 52.7603C19.1848 51.3372 17.2875 50.8262 14.9159 51.5926Z" fill="white"/>
<path d="M75.9941 37.5432H4.99216V57.2853H75.9941V37.5432Z" fill="black"/>
<path d="M41.0036 2C20.6444 2 4.18917 18.4944 4.18917 38.8569L41.0766 39.0759L51.4751 49.4761L77.5627 49.2206L77.8181 38.8569C77.8181 18.4944 61.3264 2 41.0036 2V2Z" stroke="#999999" stroke-width="4"/>
<path d="M41.0036 2C20.6444 2 4.18917 18.4944 4.18917 38.8569L41.0766 39.0759L51.4751 49.4761L77.5627 49.2206L77.8181 38.8569C77.8181 18.4944 61.3264 2 41.0036 2V2Z" fill="#E6E6E6"/>
<path d="M77.3804 60.5696L78.1101 52.5779H50.2347L39.9457 42.0682H4.37174V60.5696L9.40681 64.4742H73.4034L77.3804 60.5696Z" stroke="#999999" stroke-width="4"/>
<path d="M77.3804 60.5696L78.1101 52.5779H50.2347L39.9457 42.0682H4.37174V60.5696L9.40681 64.4742H73.4034L77.3804 60.5696Z" fill="#E6E6E6"/>
<path d="M9.4068 64.4742H73.4034L77.3804 60.5696H4.37173L9.4068 64.4742Z" fill="#B3B3B3"/>
<path d="M55.1238 49.4395L75.9938 49.2206H77.5627L77.8181 38.8569C77.8181 25.3549 70.5574 13.5315 59.721 7.10895C66.325 14.5168 66.0331 25.2089 61.071 37.5432C59.5021 41.3748 57.5318 45.3524 55.1238 49.4395V49.4395Z" fill="#CCCCCC"/>
<path d="M50.1618 57.2853C49.432 58.38 48.678 59.4748 47.8996 60.5696H77.3804L78.1101 52.5778H75.9939H53.2266C52.2536 54.1348 51.232 55.704 50.1618 57.2853Z" fill="#CCCCCC"/>
<path d="M31.7731 6.26961C24.5123 8.05771 18.6745 13.1301 18.6745 17.5821C18.6745 22.0341 24.5123 24.1871 31.7731 22.3625C38.9973 20.5744 44.8716 15.5021 44.8716 11.05C44.8716 6.59803 38.9973 4.44501 31.7731 6.26961Z" fill="white"/>
<path d="M10.6472 22.691C7.58241 25.2819 5.97703 29.15 7.07161 31.3031C8.12971 33.4196 11.4864 33.0547 14.5148 30.4273C17.5796 27.7998 19.1485 23.9682 18.0904 21.8152C16.9958 19.6622 13.6756 20.0636 10.6472 22.691Z" fill="white"/>
<path d="M21.1916 26.4131C14.2592 26.4131 8.64033 32.8722 8.64033 40.8275C8.64033 48.8192 14.2592 55.2783 21.1916 55.2783C28.0874 55.2783 33.7063 48.8192 33.7063 40.8275C33.7063 32.8722 28.0874 26.4131 21.1916 26.4131Z" fill="black" stroke="#999999" stroke-width="4"/>
<path d="M23.4174 32.4343C19.4039 32.4343 16.1201 36.193 16.1201 40.8275C16.1201 45.4619 19.4039 49.2571 23.4174 49.2571C27.4673 49.2571 30.7146 45.4619 30.7146 40.8275C30.7146 36.193 27.4673 32.4343 23.4174 32.4343Z" fill="#BA0000"/>
<path d="M21.3377 37.3243C19.5864 37.3243 18.127 38.9664 18.127 41.0099C18.127 43.0535 19.5864 44.7321 21.3377 44.7321C23.1255 44.7321 24.585 43.0535 24.585 41.0099C24.585 38.9664 23.1255 37.3243 21.3377 37.3243Z" fill="#600000"/>
<path d="M21.0093 34.4048C19.6593 34.4048 18.1633 35.6456 17.616 37.1783C17.0687 38.6745 17.689 39.9152 19.039 39.9152C20.3525 39.9152 21.8484 38.6745 22.3957 37.1783C22.943 35.6456 22.3228 34.4048 21.0093 34.4048V34.4048Z" fill="white"/>
<path d="M26.993 39.5867C24.9133 39.5867 22.5052 41.5573 21.6295 43.9658C20.7538 46.4107 21.7389 48.3448 23.8552 48.3448C25.9714 48.3448 28.3795 46.4107 29.2551 43.9658C30.0943 41.5573 29.1092 39.5867 26.993 39.5867V39.5867Z" fill="white"/>
<path d="M39.2523 57.9787L71.9075 65.1311C73.8777 56.1176 68.1859 47.2135 59.1373 45.2429C50.1252 43.2723 41.2226 48.9651 39.2523 57.9787Z" stroke="#999999" stroke-width="4"/>
<path d="M39.2523 57.9787L71.9075 65.1311C73.8777 56.1176 68.1859 47.2135 59.1373 45.2429C50.1252 43.2723 41.2226 48.9651 39.2523 57.9787Z" fill="#E6E6E6"/>
<path d="M66.0331 48.4907C66.9453 51.2641 67.1642 54.3295 66.5074 57.3948L41.8793 51.994C41.1253 53.0644 40.505 54.22 40.0185 55.4607C40.0671 55.485 40.128 55.4972 40.2009 55.4972L72.2722 62.5037C72.6006 57.0299 70.1925 51.8115 66.0331 48.4907V48.4907Z" fill="#CCCCCC"/>
<path d="M37.0633 57.5408L36.9174 58.1611C36.589 59.5843 37.5011 61.0076 38.9241 61.336L71.2142 68.3789C72.6372 68.6709 74.0602 67.795 74.3885 66.3719L74.5345 65.715C74.8264 64.2918 73.9142 62.8686 72.4913 62.5767L40.2011 55.4973C38.7782 55.2053 37.3552 56.1176 37.0633 57.5408Z" stroke="#999999" stroke-width="4"/>
<path d="M37.0633 57.5408L36.9174 58.1611C36.589 59.5843 37.5011 61.0076 38.9241 61.336L71.2142 68.3789C72.6372 68.6709 74.0602 67.795 74.3885 66.3719L74.5345 65.715C74.8264 64.2918 73.9142 62.8686 72.4913 62.5767L40.2011 55.4973C38.7782 55.2053 37.3552 56.1176 37.0633 57.5408Z" fill="#E6E6E6"/>
<path d="M69.9007 66.1894L37.6105 59.1464C37.343 59.0735 37.0876 58.9761 36.8443 58.8545C36.9173 60.0222 37.7565 61.044 38.924 61.336L71.2142 68.3789C72.6372 68.6709 74.0602 67.795 74.3885 66.3719L74.5345 65.715C74.7534 64.5473 74.2061 63.416 73.2575 62.8686C73.2575 63.0876 73.2331 63.3065 73.1845 63.5255L73.0385 64.1823C72.7467 65.6055 71.3237 66.5178 69.9007 66.1894Z" fill="#CCCCCC"/>
<path d="M52.8617 45.7173C50.4171 45.9728 48.1915 47.25 47.8631 48.6367C47.5712 50.0235 49.3226 50.9358 51.8036 50.6803C54.2482 50.4614 56.4738 49.1476 56.8022 47.7609C57.0941 46.4107 55.3428 45.4984 52.8617 45.7173Z" fill="white"/>
</svg>
