<svg width="79" height="72" viewBox="0 0 79 72" fill="none" xmlns="http://www.w3.org/2000/svg">
<path d="M11.9241 66.4813H45.345C45.345 57.2489 37.8654 49.7681 28.6346 49.7681C19.4037 49.7681 11.9241 57.2489 11.9241 66.4813Z" stroke="#999999" stroke-width="4"/>
<path d="M11.9241 66.4813H45.345C45.345 57.2489 37.8654 49.7681 28.6346 49.7681C19.4037 49.7681 11.9241 57.2489 11.9241 66.4813Z" fill="#E6E6E6"/>
<path d="M36.0409 51.4831C37.5369 54.001 38.4125 56.9204 38.4125 60.0587H13.201C12.6902 61.263 12.3253 62.5402 12.1064 63.8539C12.1794 63.8539 12.2523 63.8539 12.3253 63.8539H45.1624C44.2867 58.4166 40.8206 53.8551 36.0409 51.4831Z" fill="#CCCCCC"/>
<path d="M9.66216 66.4813V67.1381C9.66216 68.5978 10.8662 69.8021 12.3256 69.8021H45.3816C46.841 69.8021 48.0085 68.5978 48.0085 67.1381V66.4813C48.0085 65.0216 46.841 63.8539 45.3816 63.8539H12.3256C10.8662 63.8539 9.66216 65.0216 9.66216 66.4813Z" stroke="#999999" stroke-width="4"/>
<path d="M9.66216 66.4813V67.1381C9.66216 68.5978 10.8662 69.8021 12.3256 69.8021H45.3816C46.841 69.8021 48.0085 68.5978 48.0085 67.1381V66.4813C48.0085 65.0216 46.841 63.8539 45.3816 63.8539H12.3256C10.8662 63.8539 9.66216 65.0216 9.66216 66.4813Z" fill="#E6E6E6"/>
<path d="M43.5938 67.941H10.5378C10.2703 67.941 10.0149 67.8923 9.77165 67.795C10.0635 68.9628 11.0851 69.8021 12.3256 69.8021H45.3816C46.841 69.8021 48.0085 68.5978 48.0085 67.1381V66.4813C48.0085 65.3136 47.2423 64.2918 46.1843 63.9634C46.2329 64.1823 46.2572 64.4013 46.2572 64.6202V65.2771C46.2572 66.7367 45.0532 67.941 43.5938 67.941V67.941Z" fill="#CCCCCC"/>
<path d="M22.6147 51.5926C20.2431 52.3224 18.3458 54.0741 18.3458 55.4972C18.3458 56.8839 20.2431 57.4313 22.6147 56.665C24.9498 55.8986 26.8835 54.147 26.8835 52.7603C26.8835 51.3372 24.9498 50.8262 22.6147 51.5926Z" fill="white"/>
<path d="M73.8037 37.5432H2.80258V57.2853H73.8037V37.5432Z" fill="black"/>
<path d="M38.8139 2C18.4549 2 1.99996 18.4944 1.99996 38.8569L38.8869 39.0759L49.2853 49.4761L75.3725 49.2206L75.6279 38.8569C75.6279 18.4944 59.1364 2 38.8139 2V2Z" stroke="#999999" stroke-width="4"/>
<path d="M38.8139 2C18.4549 2 1.99996 18.4944 1.99996 38.8569L38.8869 39.0759L49.2853 49.4761L75.3725 49.2206L75.6279 38.8569C75.6279 18.4944 59.1364 2 38.8139 2V2Z" fill="#E6E6E6"/>
<path d="M75.1902 60.5696L75.9199 52.5779H48.0448L37.7559 42.0682H2.18228V60.5696L7.21728 64.4742H71.2133L75.1902 60.5696Z" stroke="#999999" stroke-width="4"/>
<path d="M75.1902 60.5696L75.9199 52.5779H48.0448L37.7559 42.0682H2.18228V60.5696L7.21728 64.4742H71.2133L75.1902 60.5696Z" fill="#E6E6E6"/>
<path d="M7.2173 64.4742H71.2132L75.1902 60.5696H2.1823L7.2173 64.4742Z" fill="#B3B3B3"/>
<path d="M52.9341 49.4395L73.8039 49.2206H75.3728L75.6282 38.8569C75.6282 25.3549 68.3675 13.5315 57.5313 7.10895C64.1352 14.5168 63.8433 25.2089 58.8812 37.5432C57.3123 41.3748 55.3421 45.3524 52.9341 49.4395V49.4395Z" fill="#CCCCCC"/>
<path d="M47.9718 57.2853C47.2421 58.38 46.488 59.4748 45.7097 60.5696H75.1902L75.9199 52.5778H73.8037H51.0366C50.0636 54.1348 49.0421 55.704 47.9718 57.2853V57.2853Z" fill="#CCCCCC"/>
<path d="M29.5831 6.26961C22.359 8.05771 16.4848 13.1301 16.4848 17.5821C16.4848 22.0341 22.359 24.1871 29.5831 22.3625C36.8072 20.5744 42.6814 15.5021 42.6814 11.05C42.6814 6.59803 36.8072 4.44501 29.5831 6.26961Z" fill="white"/>
<path d="M8.4578 22.691C5.39299 25.2819 3.82407 29.15 4.88217 31.3031C5.94026 33.4196 9.29697 33.0547 12.3253 30.4273C15.3901 27.7998 16.959 23.9682 15.9009 21.8152C14.8428 19.6622 11.4861 20.0636 8.4578 22.691Z" fill="white"/>
<path d="M19.0023 26.4131C12.07 26.4131 6.45121 32.8722 6.45121 40.8275C6.45121 48.8192 12.07 55.2783 19.0023 55.2783C25.8981 55.2783 31.5168 48.8192 31.5168 40.8275C31.5168 32.8722 25.8981 26.4131 19.0023 26.4131Z" fill="black" stroke="#999999" stroke-width="4"/>
<path d="M21.2276 32.4343C17.2142 32.4343 13.9304 36.193 13.9304 40.8275C13.9304 45.4619 17.2142 49.2571 21.2276 49.2571C25.2776 49.2571 28.5249 45.4619 28.5249 40.8275C28.5249 36.193 25.2776 32.4343 21.2276 32.4343Z" fill="#BA0000"/>
<path d="M19.1846 37.3243C17.3968 37.3243 15.9374 38.9664 15.9374 41.0099C15.9374 43.0535 17.3968 44.7321 19.1846 44.7321C20.9359 44.7321 22.3953 43.0535 22.3953 41.0099C22.3953 38.9664 20.9359 37.3243 19.1846 37.3243Z" fill="#600000"/>
<path d="M18.8198 34.4048C17.5063 34.4048 15.9739 35.6456 15.4266 37.1783C14.8793 38.6745 15.4996 39.9152 16.8495 39.9152C18.1631 39.9152 19.659 38.6745 20.2063 37.1783C20.7536 35.6456 20.1333 34.4048 18.8198 34.4048V34.4048Z" fill="white"/>
<path d="M24.8034 39.5867C22.7237 39.5867 20.3156 41.5573 19.4399 43.9658C18.5643 46.4107 19.5494 48.3448 21.6656 48.3448C23.7817 48.3448 26.1898 46.4107 27.0655 43.9658C27.9046 41.5573 26.9195 39.5867 24.8034 39.5867V39.5867Z" fill="white"/>
<path d="M25.6059 66.4448H59.0266C59.0266 57.2124 51.5471 49.6951 42.3163 49.6951C33.0855 49.6951 25.6059 57.2124 25.6059 66.4448Z" stroke="#999999" stroke-width="4"/>
<path d="M25.6059 66.4448H59.0266C59.0266 57.2124 51.5471 49.6951 42.3163 49.6951C33.0855 49.6951 25.6059 57.2124 25.6059 66.4448Z" fill="#E6E6E6"/>
<path d="M49.7231 51.4466C51.219 53.9645 52.0946 56.8839 52.0946 60.0222H26.8831C26.3723 61.2264 26.0074 62.5037 25.7885 63.8174C25.8615 63.8174 25.9345 63.8174 26.0074 63.8174H58.8445C57.9688 58.3801 54.5027 53.8186 49.7231 51.4466Z" fill="#CCCCCC"/>
<path d="M23.344 66.4448V67.1017C23.344 68.5614 24.548 69.7656 26.0074 69.7656H59.0634C60.5229 69.7656 61.6904 68.5614 61.6904 67.1017V66.4448C61.6904 64.9852 60.5229 63.8174 59.0634 63.8174H26.0074C24.548 63.8174 23.344 64.9852 23.344 66.4448Z" stroke="#999999" stroke-width="4"/>
<path d="M23.344 66.4448V67.1017C23.344 68.5614 24.548 69.7656 26.0074 69.7656H59.0634C60.5229 69.7656 61.6904 68.5614 61.6904 67.1017V66.4448C61.6904 64.9852 60.5229 63.8174 59.0634 63.8174H26.0074C24.548 63.8174 23.344 64.9852 23.344 66.4448Z" fill="#E6E6E6"/>
<path d="M57.2757 67.9045H24.2562C23.9644 67.9045 23.6968 67.8559 23.4535 67.7586C23.7454 68.8898 24.767 69.7656 26.0075 69.7656H59.0634C60.5229 69.7656 61.6904 68.5614 61.6904 67.1017V66.4448C61.6904 65.2771 60.9242 64.2553 59.8662 63.9269C59.9148 64.1458 59.9391 64.3648 59.9391 64.5837V65.2406C59.9391 66.7003 58.7351 67.9045 57.2757 67.9045V67.9045Z" fill="#CCCCCC"/>
<path d="M36.2964 51.556C33.9248 52.2859 32.0275 54.0375 32.0275 55.4607C32.0275 56.8473 33.9248 57.3948 36.2964 56.6284C38.6314 55.8621 40.5652 54.1104 40.5652 52.7238C40.5652 51.3006 38.6314 50.7897 36.2964 51.556Z" fill="white"/>
</svg>
