<svg width="100" height="169" viewBox="0 0 100 169" fill="none" xmlns="http://www.w3.org/2000/svg">
<path fill-rule="evenodd" clip-rule="evenodd" d="M16.1594 22.0464H86.7957C89.6243 22.0464 91.9291 25.0851 91.9291 28.7569V162.175C91.9291 165.879 89.6243 168.886 86.7957 168.886H16.1594C13.357 168.886 11.0522 165.879 11.0522 162.175V28.7569C11.0522 25.0851 13.357 22.0464 16.1594 22.0464Z" fill="black" fill-opacity="0.101961"/>
<path fill-rule="evenodd" clip-rule="evenodd" d="M14.7454 19.957H85.3817C88.2103 19.957 90.515 22.9641 90.515 26.6359V160.086C90.515 163.758 88.2103 166.765 85.3817 166.765H14.7454C11.943 166.765 9.63818 163.758 9.63818 160.086V26.6359C9.63818 22.9641 11.943 19.957 14.7454 19.957Z" fill="#E6E6E6"/>
<path fill-rule="evenodd" clip-rule="evenodd" d="M14.7454 18.5645H85.3817C88.2103 18.5645 90.515 21.5715 90.515 25.2433V158.694C90.515 162.365 88.2103 165.372 85.3817 165.372H14.7454C11.943 165.372 9.63818 162.365 9.63818 158.694V25.2433C9.63818 21.5715 11.943 18.5645 14.7454 18.5645Z" fill="white"/>
<path fill-rule="evenodd" clip-rule="evenodd" d="M17.9669 23.0273H82.8412C85.5126 23.0273 87.6603 25.8761 87.6603 29.358V155.117C87.6603 158.567 85.4865 161.416 82.8412 161.416H17.9669C15.2954 161.416 13.1216 158.567 13.1216 155.117V29.358C13.1216 25.8761 15.2954 23.0273 17.9669 23.0273Z" fill="#E6E6E6"/>
<path fill-rule="evenodd" clip-rule="evenodd" d="M16.8407 22.2046H81.8984C84.5437 22.2046 86.6913 25.0217 86.6913 28.4719V153.376C86.6913 156.826 84.5437 159.675 81.8984 159.675H16.8407C14.2217 159.675 12.0479 156.826 12.0479 153.376V28.4719C12.0479 25.0217 14.2217 22.2046 16.8407 22.2046Z" fill="#F1C383"/>
<path fill-rule="evenodd" clip-rule="evenodd" d="M16.7884 20.5586H80.9032C83.496 20.5586 85.6175 23.3441 85.6175 26.7626V149.767C85.6175 153.186 83.496 155.94 80.9032 155.94H16.7884C14.1693 155.94 12.0479 153.186 12.0479 149.767V26.7626C12.0479 23.3441 14.1693 20.5586 16.7884 20.5586Z" fill="#FAEECC"/>
<path fill-rule="evenodd" clip-rule="evenodd" d="M17.5477 21.3818C38.3955 21.3818 59.2695 21.3818 80.1434 21.3818C82.7101 21.3818 84.8054 24.1357 84.8054 27.4909C84.8054 68.0071 84.8054 108.523 84.8054 149.04C84.8054 152.395 82.7101 155.117 80.1434 155.117C59.2695 155.117 38.3955 155.117 17.5477 155.117C14.981 155.117 12.8857 152.395 12.8857 149.04C12.8857 108.523 12.8857 68.0071 12.8857 27.4909C12.8857 24.1357 14.981 21.3818 17.5477 21.3818Z" fill="#FAEDC9"/>
<path fill-rule="evenodd" clip-rule="evenodd" d="M18.3073 22.2051C38.6575 22.2051 59.0076 22.2051 79.384 22.2051C81.8983 22.2051 83.9674 24.9273 83.9674 28.2509C83.9674 68.2606 83.9674 108.27 83.9674 148.28C83.9674 151.604 81.8983 154.294 79.384 154.294C59.0076 154.294 38.6575 154.294 18.3073 154.294C15.7668 154.294 13.6978 151.604 13.6978 148.28C13.6978 108.27 13.6978 68.2606 13.6978 28.2509C13.6978 24.9273 15.7668 22.2051 18.3073 22.2051Z" fill="#F9ECC6"/>
<path fill-rule="evenodd" clip-rule="evenodd" d="M19.0669 23.0278C38.9195 23.0278 58.772 23.0278 78.6246 23.0278C81.1127 23.0278 83.1555 25.7184 83.1555 28.9786C83.1555 68.5136 83.1555 108.017 83.1555 147.52C83.1555 150.812 81.1127 153.471 78.6246 153.471C58.772 153.471 38.9195 153.471 19.0669 153.471C16.5526 153.471 14.5098 150.812 14.5098 147.52C14.5098 108.017 14.5098 68.5136 14.5098 28.9786C14.5098 25.7184 16.5526 23.0278 19.0669 23.0278Z" fill="#F9EBC2"/>
<path fill-rule="evenodd" clip-rule="evenodd" d="M19.8263 23.8506C39.155 23.8506 58.5099 23.8506 77.8386 23.8506C80.3268 23.8506 82.3434 26.5095 82.3434 29.7381C82.3434 68.7666 82.3434 107.763 82.3434 146.792C82.3434 150.021 80.3268 152.648 77.8386 152.648C58.5099 152.648 39.155 152.648 19.8263 152.648C17.3643 152.648 15.3477 150.021 15.3477 146.792C15.3477 107.763 15.3477 68.7666 15.3477 29.7381C15.3477 26.5095 17.3643 23.8506 19.8263 23.8506Z" fill="#F8EABF"/>
<path fill-rule="evenodd" clip-rule="evenodd" d="M20.5859 24.6738C39.417 24.6738 58.2481 24.6738 77.0792 24.6738C79.5149 24.6738 81.5316 27.3011 81.5316 30.498C81.5316 68.9884 81.5316 107.51 81.5316 146.033C81.5316 149.23 79.5149 151.825 77.0792 151.825C58.2481 151.825 39.417 151.825 20.5859 151.825C18.1502 151.825 16.1597 149.23 16.1597 146.033C16.1597 107.51 16.1597 68.9884 16.1597 30.498C16.1597 27.3011 18.1502 24.6738 20.5859 24.6738Z" fill="#F8E9BC"/>
<path fill-rule="evenodd" clip-rule="evenodd" d="M21.3455 25.4966C39.679 25.4966 58.0125 25.4966 76.3198 25.4966C78.7293 25.4966 80.6936 28.0922 80.6936 31.2258C80.6936 69.2414 80.6936 107.257 80.6936 145.304C80.6936 148.438 78.7293 151.002 76.3198 151.002C58.0125 151.002 39.679 151.002 21.3455 151.002C18.936 151.002 16.9717 148.438 16.9717 145.304C16.9717 107.257 16.9717 69.2414 16.9717 31.2258C16.9717 28.0922 18.936 25.4966 21.3455 25.4966Z" fill="#F7E8B9"/>
<path fill-rule="evenodd" clip-rule="evenodd" d="M22.1047 26.3198C39.9405 26.3198 57.7502 26.3198 75.5599 26.3198C77.9432 26.3198 79.8813 28.8837 79.8813 31.9858C79.8813 69.4949 79.8813 107.036 79.8813 144.545C79.8813 147.647 77.9432 150.179 75.5599 150.179C57.7502 150.179 39.9405 150.179 22.1047 150.179C19.7475 150.179 17.7832 147.647 17.7832 144.545C17.7832 107.036 17.7832 69.4949 17.7832 31.9858C17.7832 28.8837 19.7475 26.3198 22.1047 26.3198Z" fill="#F7E7B6"/>
<path fill-rule="evenodd" clip-rule="evenodd" d="M22.8645 27.1426C40.1765 27.1426 57.4886 27.1426 74.8006 27.1426C77.1578 27.1426 79.0697 29.6748 79.0697 32.7136C79.0697 69.7479 79.0697 106.782 79.0697 143.785C79.0697 146.855 77.1578 149.388 74.8006 149.388C57.4886 149.388 40.1765 149.388 22.8645 149.388C20.5335 149.388 18.6216 146.855 18.6216 143.785C18.6216 106.782 18.6216 69.7479 18.6216 32.7136C18.6216 29.6748 20.5335 27.1426 22.8645 27.1426Z" fill="#F6E6B3"/>
<path fill-rule="evenodd" clip-rule="evenodd" d="M23.6241 27.9658C40.4385 27.9658 57.2268 27.9658 74.0412 27.9658C76.346 27.9658 78.2317 30.4348 78.2317 33.4735C78.2317 70.0014 78.2317 106.529 78.2317 143.057C78.2317 146.064 76.346 148.565 74.0412 148.565C57.2268 148.565 40.4385 148.565 23.6241 148.565C21.3193 148.565 19.4336 146.064 19.4336 143.057C19.4336 106.529 19.4336 70.0014 19.4336 33.4735C19.4336 30.4348 21.3193 27.9658 23.6241 27.9658Z" fill="#F6E5AF"/>
<path fill-rule="evenodd" clip-rule="evenodd" d="M24.4094 28.7886C40.7 28.7886 56.9907 28.7886 73.2813 28.7886C75.5598 28.7886 77.4194 31.2259 77.4194 34.2329C77.4194 70.2544 77.4194 106.276 77.4194 142.297C77.4194 145.273 75.5598 147.742 73.2813 147.742C56.9907 147.742 40.7 147.742 24.4094 147.742C22.1047 147.742 20.2451 145.273 20.2451 142.297C20.2451 106.276 20.2451 70.2544 20.2451 34.2329C20.2451 31.2259 22.1047 28.7886 24.4094 28.7886Z" fill="#F5E4AC"/>
<path fill-rule="evenodd" clip-rule="evenodd" d="M25.1692 29.6113H72.522C74.7744 29.6113 76.6078 32.017 76.6078 34.9607V141.537C76.6078 144.481 74.7744 146.918 72.522 146.918H25.1692C22.9168 146.918 21.0835 144.481 21.0835 141.537V34.9607C21.0835 32.017 22.9168 29.6113 25.1692 29.6113Z" fill="#F5E3A9"/>
<path fill-rule="evenodd" clip-rule="evenodd" d="M81.5841 146.666C83.0246 146.666 84.177 148.185 84.177 150.052C84.177 151.952 83.0246 153.471 81.5841 153.471C80.1436 153.471 78.9912 151.952 78.9912 150.052C78.9912 148.185 80.1436 146.666 81.5841 146.666Z" fill="white"/>
<path fill-rule="evenodd" clip-rule="evenodd" d="M77.603 150.147C78.3887 150.147 79.0173 150.97 79.0173 151.983C79.0173 152.996 78.3887 153.787 77.603 153.787C76.8434 153.787 76.2148 152.996 76.2148 151.983C76.2148 150.97 76.8434 150.147 77.603 150.147Z" fill="white"/>
<path fill-rule="evenodd" clip-rule="evenodd" d="M17.1288 22.1411C19.355 22.1411 21.1621 24.4835 21.1621 27.3956C21.1621 30.3077 19.355 32.65 17.1288 32.65C14.9287 32.65 13.1216 30.3077 13.1216 27.3956C13.1216 24.4835 14.9287 22.1411 17.1288 22.1411Z" fill="white"/>
<path fill-rule="evenodd" clip-rule="evenodd" d="M23.3361 21.5083C24.567 21.5083 25.5623 22.8061 25.5623 24.3888C25.5623 26.0031 24.567 27.3009 23.3361 27.3009C22.1051 27.3009 21.1099 26.0031 21.1099 24.3888C21.1099 22.8061 22.1051 21.5083 23.3361 21.5083Z" fill="white"/>
<path fill-rule="evenodd" clip-rule="evenodd" d="M19.3477 32H77.0981C79.5077 32 81.4458 34.7855 81.4458 38.2357V143.515C81.4458 146.965 79.5077 149.782 77.0981 149.782H19.3477C16.9643 149.782 15 146.965 15 143.515V38.2357C15 34.7855 16.9643 32 19.3477 32Z" fill="#EFB469"/>
<path fill-rule="evenodd" clip-rule="evenodd" d="M20.9713 34.9756H75.4741C77.7789 34.9756 79.6908 37.6978 79.6908 41.0214V142.66C79.6908 145.952 77.7789 148.674 75.4741 148.674H20.9713C18.6665 148.674 16.7808 145.984 16.7808 142.66V41.0214C16.7808 37.6978 18.6665 34.9756 20.9713 34.9756Z" fill="#F1C383"/>
<path fill-rule="evenodd" clip-rule="evenodd" d="M22.8645 35.8791C22.8645 36.0057 22.8645 36.1007 22.8645 36.1956V36.2273C22.8383 36.3222 22.8383 36.3855 22.8383 36.4488C22.8121 36.4805 22.8121 36.5122 22.8121 36.5438C22.7859 36.6071 22.7859 36.6388 22.7859 36.6704C22.7597 36.7021 22.7597 36.7337 22.7335 36.7654C22.7335 36.8287 22.7073 36.8603 22.7073 36.892C22.6811 36.9236 22.6811 36.9553 22.6549 36.9553C22.6288 36.987 22.6288 37.0503 22.6026 37.0819C22.6026 37.0819 22.5764 37.1136 22.5502 37.1452C22.524 37.1452 22.524 37.1769 22.4978 37.2085C22.4716 37.2402 22.4454 37.2402 22.4192 37.2718C22.4192 37.3035 22.393 37.3351 22.3668 37.3351C22.3407 37.3668 22.3145 37.3668 22.2883 37.3984C22.2621 37.3984 22.2359 37.4301 22.2097 37.4301C22.1835 37.4617 22.1573 37.4617 22.1311 37.4934C22.1049 37.4934 22.0788 37.4934 22.0264 37.5251C22.0002 37.5251 21.974 37.5251 21.9478 37.5567C21.9216 37.5567 21.8954 37.5567 21.843 37.5884C21.8168 37.5884 21.7907 37.5884 21.7645 37.5884C21.7121 37.5884 21.6859 37.62 21.6335 37.62C21.6073 37.62 21.5811 37.62 21.5549 37.62C21.5026 37.62 21.4764 37.62 21.424 37.62C21.3978 37.62 21.3454 37.62 21.3192 37.62C21.2668 37.62 21.2406 37.62 21.1883 37.62H21.0835C21.0311 37.62 20.9787 37.5884 20.9264 37.5884H20.8216C20.7692 37.5884 20.7168 37.5567 20.6645 37.5567L20.5597 37.5251C20.5073 37.5251 20.4287 37.5251 20.3764 37.4934L20.2716 37.4617C20.2192 37.4617 20.1406 37.4617 20.0883 37.4301L19.9835 37.3984C19.9049 37.3984 19.8264 37.3668 19.774 37.3351L19.6692 37.3035C19.5906 37.3035 19.5121 37.2718 19.4335 37.2402H19.3549L19.093 37.1452L19.0406 37.1136C16.9454 36.4172 14.1954 35.2144 11.3144 34.6446C10.8429 34.5497 10.3715 34.4863 9.92627 34.423H9.90008C9.74294 34.423 9.61198 34.3914 9.45484 34.3914C9.29769 34.3914 9.14055 34.3597 8.98341 34.3597H8.95722C5.84052 34.2331 2.77621 35.2144 0.39286 38.8228L0.314288 38.9178V38.9495C0.209526 39.1077 0.104763 39.266 0 39.4559C1.57144 29.3902 4.58337 26.3515 8.35483 23.471L8.22388 23.2811L7.75244 22.6797H91.9031L91.4317 23.2811L91.3007 23.471C95.0722 26.3515 98.0841 29.3902 99.6818 39.4559C99.577 39.266 99.4722 39.1077 99.3675 38.9495L99.3413 38.9178L99.2889 38.8228H99.2627C96.9055 35.2144 93.815 34.2331 90.6984 34.3597H90.6722C90.515 34.3597 90.3841 34.3914 90.2269 34.3914C90.0698 34.3914 89.9126 34.423 89.7555 34.423C89.2841 34.4863 88.8126 34.5497 88.3674 34.6446H88.3412C85.4864 35.2144 82.7364 36.4172 80.6411 37.1136L80.5626 37.1452L80.3007 37.2402H80.2221C80.1435 37.2718 80.0649 37.3035 80.0126 37.3035L79.9078 37.3351C79.8292 37.3668 79.7506 37.3984 79.6983 37.3984L79.5935 37.4301C79.5149 37.4617 79.4625 37.4617 79.384 37.4617L79.2792 37.4934C79.2268 37.5251 79.1745 37.5251 79.0959 37.5251L78.9911 37.5567C78.9387 37.5567 78.8864 37.5884 78.834 37.5884H78.7292C78.6768 37.5884 78.6244 37.62 78.5721 37.62H78.4935C78.4411 37.62 78.3887 37.62 78.3364 37.62C78.3102 37.62 78.284 37.62 78.2316 37.62C78.2054 37.62 78.153 37.62 78.1006 37.62C78.0744 37.62 78.0483 37.62 78.0221 37.62C77.9697 37.62 77.9435 37.5884 77.8911 37.5884C77.8649 37.5884 77.8387 37.5884 77.8125 37.5884C77.7863 37.5567 77.734 37.5567 77.7078 37.5567C77.6816 37.5251 77.6554 37.5251 77.6292 37.5251C77.603 37.4934 77.5768 37.4934 77.5244 37.4934C77.4982 37.4617 77.4721 37.4617 77.4459 37.4301C77.4197 37.4301 77.3935 37.3984 77.3673 37.3984C77.3411 37.3668 77.3411 37.3668 77.3149 37.3351C77.2887 37.3351 77.2625 37.3035 77.2363 37.2718C77.2102 37.2402 77.184 37.2402 77.184 37.2085C77.1578 37.1769 77.1316 37.1452 77.1054 37.1452C77.0792 37.1136 77.0792 37.0819 77.053 37.0819C77.053 37.0503 77.0268 36.987 77.0006 36.9553C77.0006 36.9553 76.9744 36.9236 76.9744 36.892C76.9482 36.8603 76.9482 36.8287 76.9221 36.7654C76.9221 36.7337 76.8959 36.7021 76.8959 36.6704C76.8697 36.6388 76.8697 36.6071 76.8697 36.5438C76.8435 36.5122 76.8435 36.4805 76.8435 36.4488C76.8173 36.3855 76.8173 36.3222 76.8173 36.2273C76.8173 36.2273 76.8173 36.1956 76.7911 36.1956C76.7911 36.1007 76.7911 36.0057 76.7911 35.8791V33.5367V28.7255H76.7649L76.6078 28.6938H76.5816H76.5554V28.6621H76.5292H76.503H76.4768H76.4506L76.0316 28.5672H76.0054L75.6387 28.4722H75.6125C75.403 28.4406 75.1673 28.3773 74.9316 28.3456H74.9054V28.314L74.5649 28.2507H74.5387H74.5125H74.4863L74.1458 28.1874H74.1196H74.0935H74.0673H74.0411V28.1557H74.0149L73.622 28.0924H73.5958H73.5696H73.5435C73.3339 28.0607 73.0982 27.9974 72.8625 27.9658H72.8363H72.8101L72.4173 27.9025L71.8411 27.8075L71.422 27.7759V27.7442H71.3958H71.3696C71.1339 27.7126 70.872 27.6809 70.6101 27.6492H70.5839H70.5577H70.5315L70.1125 27.5859H70.0863H70.0601H70.0339H70.0077L69.5887 27.5226H69.5625H69.5363H69.5101L69.0648 27.4593H69.0387H69.0125C68.7506 27.4277 68.4887 27.396 68.2006 27.3644H68.1744H68.1482L67.6767 27.3011L67.022 27.2378L66.5505 27.2061H66.5243H66.4982C66.2363 27.1744 65.9482 27.1428 65.6601 27.1111H65.6339H65.6077L65.0577 27.0795L64.4815 27.0162H64.4553L63.8791 26.9845H63.8529H63.8267L63.0148 26.9212H62.9886H62.9624L62.4124 26.8896H62.3862L61.7838 26.8263L61.0243 26.7946H60.9981H60.9719H60.9457H60.9195H60.8934L60.2386 26.763H60.2124H60.1862L59.6362 26.7313L58.9814 26.6996L58.2481 26.668L57.3314 26.6363L56.7814 26.6047L56.0743 26.573H55.4719C55.1838 26.573 54.8957 26.5414 54.6076 26.5414H54.5814H54.5552H54.529H54.5028H54.4766H53.9004L53.2457 26.5097H53.2195H53.1933H53.1671H52.4599H52.4338H52.4076H52.3814H52.3552H52.329H51.5695H51.0195L50.2337 26.4781H50.2076H49.3956L48.6885 26.5097H48.0861H47.3266H47.3004H46.4099L45.7813 26.5414H45.7551H45.2051H45.1789L44.3408 26.573H43.5551L42.9003 26.6047L42.298 26.6363L41.5384 26.668H41.5122H40.8837V26.6996H40.8575H40.8313H40.8051H40.7789H40.7527H40.7265H40.7003L40.0456 26.7313L39.4694 26.763L38.7098 26.7946H38.6836L37.8455 26.8579L37.3217 26.8896L36.7193 26.9212H36.6932L36.117 26.9529H36.0908H36.0646H36.0384H36.0122H35.986L35.9598 26.9845L35.305 27.0162H35.2789H35.2527H35.2265H35.2003H35.1741H35.1479L34.6241 27.0795L34.0479 27.1111H34.0217H33.9955H33.9693V27.1428H33.9431H33.9169L33.236 27.2061H33.2098H33.1836H33.1574H33.1312L32.6336 27.2378L32.005 27.3011H31.9788L31.5336 27.3644H31.5074C31.2455 27.396 30.9574 27.4277 30.6955 27.4593H30.6693H30.6431H30.6169L30.1455 27.5226L29.6217 27.5859H29.5955L29.0979 27.6492H29.0717H29.0455H29.0193C28.7836 27.6809 28.5479 27.7126 28.3121 27.7442H28.2859H28.2598L27.8145 27.8392L27.2907 27.9025L26.8455 27.9658H26.8193C26.5835 27.9974 26.3478 28.0607 26.1121 28.0924H26.0859H26.0597L25.6669 28.1557H25.6407L25.1693 28.2507H25.1431H25.1169V28.2823H25.0907L24.7764 28.314V28.3456H24.7502C24.5145 28.3773 24.2788 28.4406 24.0692 28.4722H24.0431H24.0169L23.7288 28.5355H23.7026L23.6764 28.5672H23.6502L23.2311 28.6621H23.205H23.1788L22.8645 28.7255V33.5367V35.8791Z" fill="black" fill-opacity="0.101961"/>
<path fill-rule="evenodd" clip-rule="evenodd" d="M22.8645 33.6001C22.8645 40.3106 7.46435 24.4523 0 37.1453C1.80716 26.6997 4.29527 24.5473 8.35483 21.1604L2.14764 13.2154C8.40721 9.19544 19.5383 18.818 22.8645 9.60693V33.6001Z" fill="#E54149"/>
<path fill-rule="evenodd" clip-rule="evenodd" d="M0.39286 36.5122C0.261907 36.7021 0.130953 36.9237 0 37.1453C1.57144 27.0795 4.58337 24.0408 8.35483 21.1604C5.8929 25.9717 2.17383 27.9025 0.39286 36.5122ZM2.95955 14.26L2.14764 13.2154C8.40721 9.19544 19.5383 18.818 22.8645 9.60693V11.063C19.6692 19.8943 9.32388 11.4112 2.95955 14.26Z" fill="#FF6595"/>
<path fill-rule="evenodd" clip-rule="evenodd" d="M22.8645 33.6002C22.8645 40.3107 7.46435 24.4523 0 37.1453C5.29052 20.7805 22.8645 37.905 22.8645 31.2261V33.6002Z" fill="#CF1922"/>
<path fill-rule="evenodd" clip-rule="evenodd" d="M16.8145 6.69482L22.8645 7.54946V33.6001C21.5288 25.9717 16.8145 33.2203 16.8145 29.5169V6.69482Z" fill="#E54149"/>
<path fill-rule="evenodd" clip-rule="evenodd" d="M16.8145 6.69482L22.8645 7.48616V33.6001C22.0264 25.307 17.0502 32.7455 17.1811 28.2507L16.8145 6.69482Z" fill="#AB0009"/>
<path fill-rule="evenodd" clip-rule="evenodd" d="M76.791 33.6001C76.791 40.3106 92.1911 24.4523 99.6817 37.1453C97.8483 26.6997 95.3602 24.5473 91.3007 21.1604L97.5079 13.2154C91.2483 9.19544 80.1172 18.818 76.791 9.60693V33.6001Z" fill="#E54149"/>
<path fill-rule="evenodd" clip-rule="evenodd" d="M99.2626 36.5122C99.4198 36.7021 99.5507 36.9237 99.6817 37.1453C98.084 27.0795 95.0721 24.0408 91.3007 21.1604C93.7626 25.9717 97.5079 27.9025 99.2626 36.5122ZM96.6959 14.26L97.5079 13.2154C91.2483 9.19544 80.1172 18.818 76.791 9.60693V11.063C79.9863 19.8943 90.3316 11.4112 96.6959 14.26Z" fill="#FF6595"/>
<path fill-rule="evenodd" clip-rule="evenodd" d="M76.791 33.6002C76.791 40.3107 92.1911 24.4523 99.6817 37.1453C94.365 20.7805 76.791 37.905 76.791 31.2261V33.6002Z" fill="#CF1922"/>
<path fill-rule="evenodd" clip-rule="evenodd" d="M82.8673 6.69482L76.791 7.54946V33.6001C78.1267 25.9717 82.8673 33.2203 82.8673 29.5169V6.69482Z" fill="#E54149"/>
<path fill-rule="evenodd" clip-rule="evenodd" d="M82.8673 6.69482L76.791 7.48616V33.6001C77.6553 25.307 82.6315 32.7455 82.5006 28.2507L82.8673 6.69482Z" fill="#AB0009"/>
<path fill-rule="evenodd" clip-rule="evenodd" d="M16.8145 6.69467C17.8097 -2.23156 81.8721 -2.23156 82.8674 6.69467V29.3584C79.4102 22.458 20.2716 22.458 16.8145 29.3584V6.69467Z" fill="#E54149"/>
<path fill-rule="evenodd" clip-rule="evenodd" d="M82.8674 15.7477V29.3586C79.4102 22.4582 20.2716 22.4582 16.8145 29.3586V15.7477C27.5788 10.1134 72.0768 10.1134 82.8674 15.7477Z" fill="#E01B25"/>
<path fill-rule="evenodd" clip-rule="evenodd" d="M16.8145 6.63126C18.124 -2.2 81.5578 -2.2 82.8674 6.63126C74.7483 0.0157258 24.9336 0.0157258 16.8145 6.63126Z" fill="#FF6595"/>
<path fill-rule="evenodd" clip-rule="evenodd" d="M82.8674 28.029V29.3585C79.4102 22.458 20.2716 22.458 16.8145 29.3585V28.029C20.2716 21.1602 79.4102 21.1602 82.8674 28.029Z" fill="#C20F18"/>
<path d="M31.5073 7.29626L31.6121 18.09L33.6288 17.9634L33.3931 13.7535C35.6193 13.1205 36.7455 12.0442 36.7455 10.5565C36.7455 10.2084 36.6669 9.82852 36.5621 9.44868C36.0645 7.83436 34.9645 7.04303 33.2621 7.04303C32.7383 7.04303 32.1359 7.13799 31.5073 7.29626ZM33.3145 11.3795L33.2097 9.25876C34.1788 9.54364 34.6764 9.86017 34.7026 10.2084C34.7288 10.5565 34.2573 10.968 33.3145 11.3795ZM37.0859 11.3795L39.0241 11.7594C39.4955 10.7465 39.9407 10.24 40.4384 10.3033C41.0145 10.335 41.355 10.5882 41.4598 10.9997C41.4598 11.063 41.486 11.6328 41.486 12.6773C40.9622 12.4557 40.4645 12.3291 39.9931 12.3291C39.6264 12.3291 39.2598 12.3924 38.8931 12.5507C38.1336 12.8356 37.7669 13.532 37.7669 14.6398C37.7669 14.7348 37.7669 14.8614 37.7931 15.0513C37.8979 16.4441 39.1812 17.1721 41.6693 17.267L41.6955 17.7102L43.6598 17.5519L43.7122 14.3866C43.7384 13.0572 43.6336 11.886 43.3979 10.8731C42.9527 8.87892 41.9312 7.89767 40.3598 7.89767C40.0455 7.89767 39.705 7.96098 39.3645 8.02428C38.3693 8.30916 37.6098 9.41703 37.0859 11.3795ZM41.5384 14.0701L41.5907 15.6527C40.3598 15.3678 39.7574 14.9564 39.8098 14.4816C39.836 14.1334 40.0979 13.9751 40.6217 13.9751C40.8836 13.9751 41.1979 14.0068 41.5384 14.0701ZM49.1599 17.4253L49.3956 7.80271H47.6146V13.7535C47.1694 14.6398 46.8289 15.083 46.5408 15.083C46.0432 15.083 45.8074 13.532 45.8074 10.4616C45.8074 9.6386 45.8074 8.65735 45.8598 7.54948L44.0265 7.64444C44.0003 12.3291 44.2098 15.3362 44.6812 16.6656C44.917 17.3303 45.2836 17.6469 45.8074 17.6469C46.3313 17.6469 47.0122 17.2987 47.8503 16.634L47.9289 17.5519L49.1599 17.4253ZM49.4218 17.0455L50.3384 14.5765C51.4646 15.4628 52.3551 15.9376 52.9837 15.9376C53.2194 15.9376 53.4289 15.8426 53.6385 15.6844C53.8742 15.5261 53.9789 15.3045 53.9789 15.0197C53.9789 14.6398 53.5599 14.3233 52.6956 14.0701C51.4646 13.6902 50.6527 12.8989 50.2075 11.6961C50.0765 11.3162 49.998 10.968 49.998 10.6199C49.998 9.92348 50.3122 9.29041 50.9146 8.78396C51.4123 8.30916 52.1718 8.08759 53.1932 8.08759C53.9266 8.08759 54.7647 8.2142 55.7337 8.43577L55.0789 10.7781C54.3456 10.3983 53.7432 10.1767 53.298 10.1767C53.0623 10.1767 52.8527 10.24 52.6432 10.3666C52.4075 10.4932 52.2765 10.6832 52.2765 10.9364C52.2765 11.158 52.4599 11.3795 52.7742 11.6328C52.9837 11.8227 53.4289 12.0442 54.0837 12.3608C54.6337 12.614 55.0266 12.8672 55.2885 13.1205C55.629 13.5003 55.8123 14.0068 55.8385 14.6398C55.8647 15.6844 55.4718 16.634 54.6337 17.4886C54.2932 17.8368 53.7694 18.0267 53.0885 18.0267C52.1456 18.0267 50.9408 17.7102 49.4218 17.0455ZM58.1956 13.8485C58.4314 14.7664 58.9028 15.2412 59.6623 15.3045C60.3433 15.3362 60.8147 14.893 61.0504 13.9751L63.1981 13.5953C62.6481 16.2858 61.5742 17.6469 59.9504 17.6469C59.4528 17.6469 58.9028 17.5203 58.2742 17.2354C57.148 16.4441 56.5718 14.9247 56.5718 12.709C56.5718 12.519 56.5718 12.2975 56.598 12.0759C56.7028 9.48033 57.7504 7.99263 59.7147 7.54948C61.5742 7.51783 62.6481 9.06884 62.9362 12.2658L58.1956 13.8485ZM58.7718 10.5565C58.5099 10.9364 58.3528 11.4428 58.3266 12.0126L61.1814 11.0313C60.8409 10.3033 60.4218 9.95513 59.9504 9.95513C59.4528 9.95513 59.0599 10.1451 58.7718 10.5565ZM63.3552 17.6469L63.0409 6.15674C66.1838 7.2013 67.8862 8.53073 68.1481 10.2084C68.2267 10.8098 68.2791 11.3795 68.2791 11.9493C68.2791 12.8356 68.1481 13.5953 67.8862 14.1967C67.4671 15.1779 65.9481 16.3174 63.3552 17.6469ZM65.0576 9.86017L65.11 13.3737C65.9219 13.0888 66.3671 12.5507 66.4195 11.7594C66.4719 10.968 66.0267 10.335 65.0576 9.86017Z" stroke="#911315" stroke-width="0.643994" stroke-linecap="round" stroke-linejoin="round"/>
<path d="M31.5073 7.29626L31.6121 18.09L33.6288 17.9634L33.3931 13.7535C35.6193 13.1205 36.7455 12.0442 36.7455 10.5565C36.7455 10.2084 36.6669 9.82852 36.5621 9.44868C36.0645 7.83436 34.9645 7.04303 33.2621 7.04303C32.7383 7.04303 32.1359 7.13799 31.5073 7.29626ZM33.3145 11.3795L33.2097 9.25876C34.1788 9.54364 34.6764 9.86017 34.7026 10.2084C34.7288 10.5565 34.2573 10.968 33.3145 11.3795ZM37.0859 11.3795L39.0241 11.7594C39.4955 10.7465 39.9407 10.24 40.4384 10.3033C41.0145 10.335 41.355 10.5882 41.4598 10.9997C41.4598 11.063 41.486 11.6328 41.486 12.6773C40.9622 12.4557 40.4645 12.3291 39.9931 12.3291C39.6264 12.3291 39.2598 12.3924 38.8931 12.5507C38.1336 12.8356 37.7669 13.532 37.7669 14.6398C37.7669 14.7348 37.7669 14.8614 37.7931 15.0513C37.8979 16.4441 39.1812 17.1721 41.6693 17.267L41.6955 17.7102L43.6598 17.5519L43.7122 14.3866C43.7384 13.0572 43.6336 11.886 43.3979 10.8731C42.9527 8.87892 41.9312 7.89767 40.3598 7.89767C40.0455 7.89767 39.705 7.96098 39.3645 8.02428C38.3693 8.30916 37.6098 9.41703 37.0859 11.3795ZM41.5384 14.0701L41.5907 15.6527C40.3598 15.3678 39.7574 14.9564 39.8098 14.4816C39.836 14.1334 40.0979 13.9751 40.6217 13.9751C40.8836 13.9751 41.1979 14.0068 41.5384 14.0701ZM49.1599 17.4253L49.3956 7.80271H47.6146V13.7535C47.1694 14.6398 46.8289 15.083 46.5408 15.083C46.0432 15.083 45.8074 13.532 45.8074 10.4616C45.8074 9.6386 45.8074 8.65735 45.8598 7.54948L44.0265 7.64444C44.0003 12.3291 44.2098 15.3362 44.6812 16.6656C44.917 17.3303 45.2836 17.6469 45.8074 17.6469C46.3313 17.6469 47.0122 17.2987 47.8503 16.634L47.9289 17.5519L49.1599 17.4253ZM49.4218 17.0455L50.3384 14.5765C51.4646 15.4628 52.3551 15.9376 52.9837 15.9376C53.2194 15.9376 53.4289 15.8426 53.6385 15.6844C53.8742 15.5261 53.9789 15.3045 53.9789 15.0197C53.9789 14.6398 53.5599 14.3233 52.6956 14.0701C51.4646 13.6902 50.6527 12.8989 50.2075 11.6961C50.0765 11.3162 49.998 10.968 49.998 10.6199C49.998 9.92348 50.3122 9.29041 50.9146 8.78396C51.4123 8.30916 52.1718 8.08759 53.1932 8.08759C53.9266 8.08759 54.7647 8.2142 55.7337 8.43577L55.0789 10.7781C54.3456 10.3983 53.7432 10.1767 53.298 10.1767C53.0623 10.1767 52.8527 10.24 52.6432 10.3666C52.4075 10.4932 52.2765 10.6832 52.2765 10.9364C52.2765 11.158 52.4599 11.3795 52.7742 11.6328C52.9837 11.8227 53.4289 12.0442 54.0837 12.3608C54.6337 12.614 55.0266 12.8672 55.2885 13.1205C55.629 13.5003 55.8123 14.0068 55.8385 14.6398C55.8647 15.6844 55.4718 16.634 54.6337 17.4886C54.2932 17.8368 53.7694 18.0267 53.0885 18.0267C52.1456 18.0267 50.9408 17.7102 49.4218 17.0455ZM58.1956 13.8485C58.4314 14.7664 58.9028 15.2412 59.6623 15.3045C60.3433 15.3362 60.8147 14.893 61.0504 13.9751L63.1981 13.5953C62.6481 16.2858 61.5742 17.6469 59.9504 17.6469C59.4528 17.6469 58.9028 17.5203 58.2742 17.2354C57.148 16.4441 56.5718 14.9247 56.5718 12.709C56.5718 12.519 56.5718 12.2975 56.598 12.0759C56.7028 9.48033 57.7504 7.99263 59.7147 7.54948C61.5742 7.51783 62.6481 9.06884 62.9362 12.2658L58.1956 13.8485ZM58.7718 10.5565C58.5099 10.9364 58.3528 11.4428 58.3266 12.0126L61.1814 11.0313C60.8409 10.3033 60.4218 9.95513 59.9504 9.95513C59.4528 9.95513 59.0599 10.1451 58.7718 10.5565ZM63.3552 17.6469L63.0409 6.15674C66.1838 7.2013 67.8862 8.53073 68.1481 10.2084C68.2267 10.8098 68.2791 11.3795 68.2791 11.9493C68.2791 12.8356 68.1481 13.5953 67.8862 14.1967C67.4671 15.1779 65.9481 16.3174 63.3552 17.6469ZM65.0576 9.86017L65.11 13.3737C65.9219 13.0888 66.3671 12.5507 66.4195 11.7594C66.4719 10.968 66.0267 10.335 65.0576 9.86017Z" fill="white"/>
</svg>
