<svg width="75" height="75" viewBox="0 0 75 75" fill="none" xmlns="http://www.w3.org/2000/svg">
<path fill-rule="evenodd" clip-rule="evenodd" d="M12.934 7.52689C29.7946 4.66291 46.4189 4.66291 62.8856 7.52689C68.1644 8.4313 71.5523 11.8228 72.5765 16.7971C75.8068 32.7751 75.8068 48.6777 72.5765 64.5802C71.6311 69.6299 68.1644 73.4736 62.8856 73.9258C46.4189 75.3578 29.7946 75.3578 12.934 73.9258C7.57637 73.4736 3.79454 69.7053 3.16423 64.5802C1.35211 48.6777 0.958168 32.7751 3.16423 16.7971C3.87333 11.7475 7.65515 8.4313 12.934 7.52689Z" fill="black" fill-opacity="0.101961"/>
<path fill-rule="evenodd" clip-rule="evenodd" d="M11.2801 3.91019C28.1408 1.04621 44.7651 1.04621 61.2318 3.91019C66.5106 4.8146 69.9773 8.20614 70.9227 13.1804C74.153 29.1584 74.153 45.0609 70.9227 60.9635C69.9773 66.0132 66.5894 69.8569 61.2318 70.3091C44.7651 71.7411 28.1408 71.7411 11.2801 70.3091C5.92256 69.8569 2.14073 66.0885 1.51043 60.9635C-0.3017 45.0609 -0.695641 29.1584 1.51043 13.1804C2.29831 8.13078 6.00134 4.8146 11.2801 3.91019Z" fill="#E6E6E6"/>
<path fill-rule="evenodd" clip-rule="evenodd" d="M11.2801 2.17633C28.1408 -0.687639 44.7651 -0.763006 61.2318 2.17633C66.5106 3.08075 69.9773 6.47229 70.9227 11.4466C74.153 27.4245 74.153 43.3271 70.9227 59.2297C69.9773 64.2793 66.5894 68.1231 61.2318 68.5753C44.7651 70.0073 28.1408 70.0073 11.2801 68.5753C5.92256 68.1231 2.14073 64.3547 1.51043 59.2297C-0.3017 43.3271 -0.695641 27.4245 1.51043 11.4466C2.29831 6.39693 6.00134 3.08075 11.2801 2.17633Z" fill="white"/>
<path fill-rule="evenodd" clip-rule="evenodd" d="M14.9828 6.77344C30.1101 4.21094 45.0011 4.21094 59.8132 6.77344C64.5405 7.60248 67.6133 10.6172 68.4799 15.1393C71.3951 29.3838 71.3951 43.7036 68.4799 57.9481C67.6133 62.4702 64.5405 65.9371 59.8132 66.3139C45.0011 67.5952 30.1101 67.5952 14.9828 66.3139C10.2555 65.9371 6.78888 62.5455 6.31615 57.9481C4.58281 43.7036 4.26766 29.3838 6.31615 15.1393C6.94645 10.6172 10.2555 7.60248 14.9828 6.77344Z" fill="#E6E6E6"/>
<path fill-rule="evenodd" clip-rule="evenodd" d="M13.8803 5.56841C29.0076 3.0059 43.8986 2.93054 58.7107 5.56841C63.438 6.39745 66.5107 9.33679 67.4562 13.8589C70.2926 28.1787 70.2926 42.4232 67.4562 56.7431C66.5107 61.2651 63.438 64.6567 58.7107 65.1089C43.8986 66.3901 29.0076 66.3901 13.8803 65.1089C9.15301 64.6567 5.68634 61.2651 5.21361 56.7431C3.48027 42.4232 3.16512 28.1787 5.21361 13.8589C5.84391 9.33679 9.15301 6.32208 13.8803 5.56841Z" fill="#6DC300"/>
<path fill-rule="evenodd" clip-rule="evenodd" d="M13.8803 2.62793C29.0076 0.0654292 43.8986 0.0654292 58.7107 2.62793C63.438 3.45698 66.5107 6.47168 67.4562 10.9937C70.2926 25.2382 70.2926 39.5581 67.4562 53.8026C66.5107 58.3247 63.438 61.7162 58.7107 62.1684C43.8986 63.4497 29.0076 63.4497 13.8803 62.1684C9.15301 61.7916 5.68634 58.4 5.21361 53.8026C3.48027 39.5581 3.16512 25.2382 5.21361 10.9937C5.84391 6.39632 9.15301 3.45698 13.8803 2.62793Z" fill="#C9FB06"/>
<path fill-rule="evenodd" clip-rule="evenodd" d="M14.1956 3.00505C29.0866 0.517913 43.82 0.442545 58.3958 3.00505C63.0443 3.83409 66.117 6.77343 66.9837 11.2955C69.82 25.3139 69.82 39.4076 66.9837 53.5014C66.117 57.9481 63.123 61.3397 58.3958 61.7919C43.82 63.0731 29.0866 62.9977 14.1956 61.7919C9.46836 61.3397 6.15926 58.0235 5.60775 53.5014C3.9532 39.4076 3.63805 25.3139 5.60775 11.2955C6.23805 6.77343 9.54715 3.83409 14.1956 3.00505Z" fill="#C5F806"/>
<path fill-rule="evenodd" clip-rule="evenodd" d="M14.5114 3.38195C29.2448 0.894818 43.7418 0.894818 58.0812 3.38195C62.7297 4.211 65.7236 7.15034 66.5903 11.5217C69.4267 25.4647 69.3479 39.3324 66.5903 53.2754C65.7236 57.6467 62.7297 60.9629 58.0812 61.3397C43.7418 62.621 29.2448 62.621 14.5114 61.3397C9.86289 60.9629 6.55379 57.7221 6.00228 53.2754C4.34773 39.3324 4.03258 25.4647 6.00228 11.5217C6.63258 7.07497 9.94168 4.211 14.5114 3.38195Z" fill="#C0F605"/>
<path fill-rule="evenodd" clip-rule="evenodd" d="M14.8268 3.83415C29.3238 1.34701 43.6632 1.27165 57.845 3.83415C62.336 4.58783 65.3299 7.4518 66.1966 11.8231C68.9542 25.5401 68.9542 39.257 66.1966 52.9739C65.3299 57.2699 62.4148 60.5861 57.845 60.9629C43.6632 62.2442 29.3238 62.1688 14.8268 60.9629C10.257 60.5861 6.94794 57.3453 6.39643 52.9739C4.82067 39.257 4.50551 25.5401 6.39643 11.8231C7.02673 7.4518 10.257 4.58783 14.8268 3.83415Z" fill="#BCF305"/>
<path fill-rule="evenodd" clip-rule="evenodd" d="M15.141 4.21154C29.4017 1.72441 43.5835 1.72441 57.529 4.21154C62.02 4.96522 64.9351 7.82919 65.8018 12.1251C68.5594 25.616 68.4806 39.1068 65.8018 52.673C64.9351 56.9689 62.02 60.2097 57.529 60.5866C43.5835 61.7925 29.4017 61.7925 15.141 60.5866C10.5713 60.2097 7.34102 56.9689 6.8683 52.673C5.29253 39.1068 4.89859 25.616 6.8683 12.1251C7.41981 7.75382 10.6501 4.96522 15.141 4.21154Z" fill="#B7F004"/>
<path fill-rule="evenodd" clip-rule="evenodd" d="M15.3778 4.58812C29.4809 2.17635 43.4264 2.17635 57.2143 4.58812C61.6264 5.3418 64.5416 8.13041 65.4082 12.351C68.087 25.6911 68.0083 39.0312 65.4082 52.3713C64.5416 56.5919 61.7052 59.7573 57.2143 60.1342C43.4264 61.4154 29.4809 61.34 15.3778 60.1342C10.9657 59.7573 7.73537 56.6672 7.26264 52.3713C5.68688 39.0312 5.37173 25.6911 7.26264 12.351C7.89294 8.13041 10.9657 5.3418 15.3778 4.58812Z" fill="#B3EE04"/>
<path fill-rule="evenodd" clip-rule="evenodd" d="M15.6932 4.96427C29.6387 2.62787 43.3478 2.5525 56.9781 4.96427C61.3115 5.71794 64.1478 8.50655 65.0145 12.6518C67.6145 25.7658 67.6145 38.9551 65.0145 52.0691C64.1478 56.2143 61.3115 59.3797 56.9781 59.7566C43.3478 60.9625 29.6387 60.9625 15.6932 59.7566C11.281 59.3797 8.20832 56.2897 7.6568 52.0691C6.15983 38.9551 5.84467 25.7658 7.6568 12.6518C8.2871 8.43118 11.3598 5.71794 15.6932 4.96427Z" fill="#AEEB03"/>
<path fill-rule="evenodd" clip-rule="evenodd" d="M16.0081 5.34117C29.7173 3.00477 43.2688 3.00477 56.6628 5.34117C60.9173 6.09484 63.7537 8.80808 64.5416 12.9533C67.2204 25.9166 67.1416 38.8044 64.5416 51.7677C63.7537 55.9129 60.9961 59.003 56.6628 59.3798C43.2688 60.5103 29.7173 60.5103 16.0081 59.3798C11.6748 59.003 8.60207 55.9129 8.12934 51.7677C6.55358 38.8044 6.23842 25.9166 8.12934 12.9533C8.68085 8.80808 11.7536 6.09484 16.0081 5.34117Z" fill="#AAE903"/>
<path fill-rule="evenodd" clip-rule="evenodd" d="M16.3235 5.71829C29.7963 3.45726 43.1903 3.38189 56.3479 5.71829C60.6024 6.47197 63.36 9.18521 64.1479 13.1797C66.7479 25.9922 66.6691 38.7294 64.1479 51.5419C63.36 55.5364 60.6024 58.6264 56.3479 59.0033C43.1903 60.1338 29.7963 60.1338 16.3235 59.0033C12.069 58.6264 8.99623 55.6117 8.5235 51.5419C7.02653 38.7294 6.71137 25.9922 8.5235 13.1797C9.07502 9.10984 12.069 6.47197 16.3235 5.71829Z" fill="#A5E602"/>
<path fill-rule="evenodd" clip-rule="evenodd" d="M16.6378 6.09519C29.953 3.83416 43.0318 3.83416 56.0319 6.09519C60.2076 6.84887 62.9652 9.48674 63.7531 13.4812C66.2743 26.0676 66.2743 38.654 63.7531 51.2405C62.9652 55.1596 60.2864 58.1743 56.0319 58.5511C43.0318 59.6816 29.953 59.6816 16.6378 58.5511C12.3833 58.1743 9.38933 55.2349 8.9166 51.2405C7.41962 38.654 7.18326 26.0676 8.9166 13.4812C9.46811 9.48674 12.4621 6.84887 16.6378 6.09519Z" fill="#A1E302"/>
<path fill-rule="evenodd" clip-rule="evenodd" d="M16.9532 6.54734C30.032 4.2863 42.9532 4.2863 55.7957 6.54734C59.8927 7.22565 62.5715 9.86352 63.3593 13.7826C65.8806 26.1429 65.8018 38.5033 63.3593 50.9389C62.5715 54.858 59.8927 57.7974 55.7957 58.1742C42.9532 59.3047 30.032 59.3047 16.9532 58.1742C12.7774 57.7974 9.78347 54.858 9.31074 50.9389C7.89255 38.5033 7.5774 26.1429 9.31074 13.7826C9.94104 9.78815 12.8562 7.22565 16.9532 6.54734Z" fill="#9CE101"/>
<path fill-rule="evenodd" clip-rule="evenodd" d="M17.189 6.92495C30.1102 4.73929 42.8739 4.66392 55.48 6.92495C59.4982 7.60326 62.177 10.1658 62.9648 14.0095C65.4073 26.2191 65.4073 38.4286 62.9648 50.6382C62.177 54.482 59.577 57.4213 55.48 57.7981C42.8739 58.8533 30.1102 58.8533 17.189 57.7981C13.1708 57.4213 10.2556 54.5573 9.78291 50.6382C8.36472 38.4286 8.04957 26.2191 9.78291 14.0095C10.3344 10.1658 13.1708 7.60326 17.189 6.92495Z" fill="#98DE01"/>
<path fill-rule="evenodd" clip-rule="evenodd" d="M13.8793 2.62793C29.0066 0.0654301 43.8976 0.0654301 58.7097 2.62793C63.437 3.45697 66.5098 6.47168 67.4552 10.9937C68.7158 17.4753 69.4249 23.8816 69.5825 30.3632C41.5339 19.4349 22.7036 48.6775 3.79443 30.2878C3.87322 23.8062 4.26716 17.4 5.21262 10.9937C5.84292 6.39631 9.15202 3.45697 13.8793 2.62793Z" fill="white" fill-opacity="0.290196"/>
<path fill-rule="evenodd" clip-rule="evenodd" d="M13.4076 4.58789C16.6379 4.58789 19.3167 7.1504 19.3167 10.2405C19.3167 13.3306 16.6379 15.8931 13.4076 15.8931C10.1773 15.8931 7.49854 13.3306 7.49854 10.2405C7.49854 7.1504 10.1773 4.58789 13.4076 4.58789Z" fill="white"/>
<path fill-rule="evenodd" clip-rule="evenodd" d="M22.4686 2.17676C24.0443 2.17676 25.3837 3.458 25.3837 4.96534C25.3837 6.54805 24.0443 7.8293 22.4686 7.8293C20.814 7.8293 19.4746 6.54805 19.4746 4.96534C19.4746 3.458 20.814 2.17676 22.4686 2.17676Z" fill="white"/>
<path fill-rule="evenodd" clip-rule="evenodd" d="M60.0494 54.1045C62.0191 54.1045 63.5948 55.6119 63.5948 57.4207C63.5948 59.3049 62.0191 60.8123 60.0494 60.8123C58.0797 60.8123 56.5039 59.3049 56.5039 57.4207C56.5039 55.6119 58.0797 54.1045 60.0494 54.1045Z" fill="white"/>
<path d="M26.4864 50.1857C24.7531 50.864 23.0985 51.2409 21.5228 50.7133C19.7894 50.035 18.6076 48.5276 18.6076 45.4376H18.5288V15.8934H18.6076C18.5288 13.7831 19.3167 12.3512 20.6561 11.5975C21.9955 10.8438 23.5712 10.8438 25.3834 11.5975H25.5409L25.6985 11.7482L54.2198 27.5001L54.4562 27.5754L54.6137 27.7262C55.9531 28.8567 56.5047 30.0626 56.4259 31.3438V31.4192C56.3471 32.6251 55.638 33.7556 54.4562 34.66L54.2986 34.8107L54.141 34.9615L26.7228 50.035L26.5652 50.1104L26.4864 50.1857ZM23.2561 46.1912C23.3349 46.2666 23.8076 46.0405 24.4379 45.8144L50.9895 31.1931L23.5712 16.0442V45.4376C23.5712 46.0405 23.0985 46.1912 23.2561 46.1912ZM23.1773 15.6673C23.0985 15.7427 23.1773 15.7427 23.2561 15.7427C23.2561 15.6673 23.2561 15.6673 23.1773 15.6673Z" fill="#6DC300"/>
<path fill-rule="evenodd" clip-rule="evenodd" d="M25.5417 48.0001C23.1781 48.9045 21.1296 49.206 21.0508 45.4376V15.8934C21.0508 13.4817 22.3114 12.9541 24.4387 13.7831L52.9599 29.535C54.3781 30.6655 54.1418 31.796 52.8812 32.8512L25.5417 48.0001Z" fill="white"/>
<path fill-rule="evenodd" clip-rule="evenodd" d="M27.8266 43.6284C25.4629 44.5329 23.4144 44.8343 23.4144 41.0659V13.4813C23.0205 13.406 22.7841 13.406 22.469 13.4813C22.075 13.4813 21.6811 13.7074 21.4447 14.0843C21.2084 14.4611 21.0508 15.0641 21.0508 15.8931V45.4373C21.0508 46.7185 21.2871 47.5476 21.7599 47.9998C22.075 48.3766 22.5478 48.6027 23.1781 48.5274C23.8084 48.5274 24.675 48.3012 25.5417 47.9998L52.8811 32.8509C54.1418 31.8711 54.3781 30.7406 53.1175 29.6854L27.8266 43.6284Z" fill="black" fill-opacity="0.101961"/>
</svg>
