<svg width="75" height="75" viewBox="0 0 75 75" fill="none" xmlns="http://www.w3.org/2000/svg">
<path fill-rule="evenodd" clip-rule="evenodd" d="M12.9623 7.5276C29.7445 4.66365 46.4478 4.66365 62.836 7.5276C68.1149 8.43201 71.5816 11.8235 72.6059 16.7978C75.8363 32.7756 75.7575 48.6781 72.6059 64.5805C71.5816 69.6301 68.1937 73.4738 62.836 73.9261C46.4478 75.358 29.7445 75.358 12.9623 73.9261C7.60466 73.4738 3.82277 69.7055 3.19245 64.5805C1.30151 48.6781 0.907563 32.7756 3.19245 16.7978C3.90156 11.7482 7.68345 8.43201 12.9623 7.5276Z" fill="black" fill-opacity="0.101961"/>
<path fill-rule="evenodd" clip-rule="evenodd" d="M11.3085 3.90993C28.0907 1.04598 44.794 1.04598 61.261 3.90993C66.4611 4.81433 69.9278 8.20585 70.9521 13.1801C74.1825 29.1579 74.1037 45.0604 70.9521 60.9628C69.9278 66.0124 66.5399 69.8561 61.261 70.3083C44.794 71.7403 28.0907 71.7403 11.3085 70.3083C5.95086 69.8561 2.16897 66.0878 1.53866 60.9628C-0.352286 45.0604 -0.667444 29.1579 1.53866 13.1801C2.24776 8.13048 6.02965 4.81433 11.3085 3.90993Z" fill="#E6E6E6"/>
<path fill-rule="evenodd" clip-rule="evenodd" d="M11.3085 2.17632C28.0907 -0.687633 44.794 -0.763 61.261 2.17632C66.4611 3.08072 69.9278 6.47224 70.9521 11.4465C74.1825 27.4243 74.1037 43.3268 70.9521 59.2292C69.9278 64.2788 66.5399 68.1226 61.261 68.5748C44.794 70.0067 28.0907 70.0067 11.3085 68.5748C5.95086 68.1226 2.16897 64.3542 1.53866 59.2292C-0.352286 43.3268 -0.667444 27.4243 1.53866 11.4465C2.24776 6.39688 6.02965 3.08072 11.3085 2.17632Z" fill="white"/>
<path fill-rule="evenodd" clip-rule="evenodd" d="M15.0121 6.77367C30.1396 4.21119 45.0308 4.21119 59.7645 6.77367C64.4918 7.60271 67.6434 10.6174 68.5101 15.1394C71.4253 29.3838 71.3465 43.7036 68.5101 57.9479C67.6434 62.47 64.5706 65.9369 59.7645 66.3137C45.0308 67.5949 30.1396 67.5949 15.0121 66.3137C10.2059 65.9369 6.81799 62.5453 6.26646 57.9479C4.61188 43.7036 4.29673 29.3838 6.26646 15.1394C6.89678 10.6174 10.2847 7.60271 15.0121 6.77367Z" fill="#E6E6E6"/>
<path fill-rule="evenodd" clip-rule="evenodd" d="M13.9091 5.5679C29.0366 3.00542 43.9278 2.93005 58.6614 5.5679C63.3888 6.39694 66.5404 9.33626 67.407 13.8583C70.3223 28.178 70.2435 42.4224 67.407 56.7422C66.5404 61.2642 63.4676 64.6557 58.6614 65.1079C43.9278 66.3891 29.0366 66.3891 13.9091 65.1079C9.1029 64.6557 5.71496 61.2642 5.16343 56.7422C3.50886 42.4224 3.1937 28.178 5.16343 13.8583C5.79375 9.33626 9.18169 6.32157 13.9091 5.5679Z" fill="#00B0DC"/>
<path fill-rule="evenodd" clip-rule="evenodd" d="M13.9091 2.62865C29.0366 0.0661666 43.9278 0.0661666 58.6614 2.62865C63.3888 3.45769 66.5404 6.47237 67.407 10.9944C70.3223 25.2388 70.2435 39.5585 67.407 53.8029C66.5404 58.3249 63.4676 61.7165 58.6614 62.1687C43.9278 63.4499 29.0366 63.4499 13.9091 62.1687C9.1029 61.7918 5.71496 58.4003 5.16343 53.8029C3.50886 39.5585 3.1937 25.2388 5.16343 10.9944C5.79375 6.397 9.18169 3.45769 13.9091 2.62865Z" fill="#99FFFF"/>
<path fill-rule="evenodd" clip-rule="evenodd" d="M14.2243 3.00528C29.1155 0.518162 43.8491 0.442795 58.4251 3.00528C63.0737 3.83432 66.1465 6.77363 67.0131 11.2957C69.8496 25.3139 69.8496 39.4076 67.0131 53.5012C66.1465 57.9479 63.1525 61.3394 58.4251 61.7916C43.8491 63.0729 29.1155 62.9975 14.2243 61.7916C9.4969 61.3394 6.10896 58.0233 5.63622 53.5012C3.98165 39.4076 3.5877 25.3139 5.63622 11.2957C6.26654 6.77363 9.57569 3.83432 14.2243 3.00528Z" fill="#8BFAFF"/>
<path fill-rule="evenodd" clip-rule="evenodd" d="M14.5399 3.38218C29.1947 0.895067 43.7707 0.895067 58.1104 3.38218C62.6802 4.21122 65.753 7.15054 66.6197 11.5218C69.4561 25.4648 69.3773 39.3323 66.6197 53.2752C65.753 57.6465 62.759 60.9627 58.1104 61.3395C43.7707 62.6208 29.1947 62.6208 14.5399 61.3395C9.8913 60.9627 6.58215 57.7219 6.03062 53.2752C4.37604 39.3323 4.06089 25.4648 6.03062 11.5218C6.66094 7.07517 9.8913 4.21122 14.5399 3.38218Z" fill="#7DF6FF"/>
<path fill-rule="evenodd" clip-rule="evenodd" d="M14.8554 3.83462C29.3527 1.34751 43.6136 1.27214 57.7956 3.83462C62.3654 4.58829 65.3594 7.45225 66.2261 11.8235C68.9837 25.5404 68.905 39.2572 66.2261 52.974C65.3594 57.2699 62.4442 60.5861 57.7956 60.9629C43.6136 62.2442 29.3527 62.1688 14.8554 60.9629C10.2068 60.5861 6.97648 57.3453 6.42496 52.974C4.84917 39.2572 4.45522 25.5404 6.42496 11.8235C7.05527 7.45225 10.2856 4.58829 14.8554 3.83462Z" fill="#6FF1FF"/>
<path fill-rule="evenodd" clip-rule="evenodd" d="M15.0907 4.21104C29.4304 1.72392 43.5337 1.72392 57.5582 4.21104C61.9704 4.96471 64.9644 7.82866 65.8311 12.1246C68.5099 25.6153 68.5099 39.106 65.8311 52.6721C64.9644 56.968 62.0492 60.2088 57.5582 60.5856C43.5337 61.7915 29.4304 61.7915 15.0907 60.5856C10.5997 60.2088 7.36936 56.968 6.81784 52.6721C5.24205 39.106 4.92689 25.6153 6.81784 12.1246C7.44815 7.75329 10.6785 4.96471 15.0907 4.21104Z" fill="#61ECFF"/>
<path fill-rule="evenodd" clip-rule="evenodd" d="M15.4063 4.58786C29.5096 2.17612 43.4553 2.17612 57.2434 4.58786C61.6557 5.34154 64.5709 8.13012 65.3588 12.3507C68.1164 25.6907 68.0376 39.0307 65.3588 52.3707C64.5709 56.5912 61.7344 59.7566 57.2434 60.1335C43.4553 61.4147 29.5096 61.3393 15.4063 60.1335C10.9153 59.7566 7.76372 56.6666 7.29098 52.3707C5.71519 39.0307 5.40004 25.6907 7.29098 12.3507C7.84251 8.13012 10.9941 5.34154 15.4063 4.58786Z" fill="#53E8FF"/>
<path fill-rule="evenodd" clip-rule="evenodd" d="M15.7206 4.96499C29.5875 2.62861 43.3756 2.55324 56.9274 4.96499C61.2608 5.71866 64.176 8.50724 64.9639 12.6524C67.6428 25.7663 67.564 38.9556 64.9639 52.0694C64.176 56.2146 61.3396 59.38 56.9274 59.7569C43.3756 60.9628 29.5875 60.9628 15.7206 59.7569C11.3084 59.38 8.15678 56.29 7.68405 52.0694C6.10826 38.9556 5.7931 25.7663 7.68405 12.6524C8.31436 8.43187 11.3871 5.71866 15.7206 4.96499Z" fill="#46E3FF"/>
<path fill-rule="evenodd" clip-rule="evenodd" d="M16.0359 5.3414C29.7453 3.00502 43.2971 3.00502 56.6913 5.3414C60.9459 6.09507 63.7823 8.80829 64.5702 12.9535C67.1703 25.9166 67.1703 38.8044 64.5702 51.7676C63.7823 55.9128 61.0247 59.0028 56.6913 59.3796C43.2971 60.5102 29.7453 60.5102 16.0359 59.3796C11.7025 59.0028 8.62973 55.9128 8.07821 51.7676C6.58121 38.8044 6.26605 25.9166 8.07821 12.9535C8.70852 8.80829 11.7025 6.09507 16.0359 5.3414Z" fill="#38DFFF"/>
<path fill-rule="evenodd" clip-rule="evenodd" d="M16.352 5.71852C29.825 3.45751 43.1404 3.38214 56.377 5.71852C60.5528 6.4722 63.3893 9.18541 64.1772 13.1799C66.7772 25.9923 66.6984 38.7293 64.1772 51.5418C63.3893 55.5362 60.6316 58.6263 56.377 59.0031C43.1404 60.1336 29.825 60.1336 16.352 59.0031C12.0186 58.6263 9.02458 55.6116 8.55184 51.5418C7.05484 38.7293 6.73968 25.9923 8.55184 13.1799C9.10337 9.11005 12.0974 6.4722 16.352 5.71852Z" fill="#2ADAFF"/>
<path fill-rule="evenodd" clip-rule="evenodd" d="M16.5875 6.09566C29.9029 3.83465 43.0607 3.83465 56.061 6.09566C60.2368 6.84933 62.9944 9.48718 63.7823 13.4816C66.3036 26.068 66.3036 38.6543 63.7823 51.2406C62.9944 55.1597 60.3156 58.1744 56.061 58.5512C43.0607 59.6817 29.9029 59.6817 16.5875 58.5512C12.4116 58.1744 9.41764 55.235 8.94491 51.2406C7.44791 38.6543 7.13275 26.068 8.94491 13.4816C9.49643 9.48718 12.4904 6.84933 16.5875 6.09566Z" fill="#1CD5FF"/>
<path fill-rule="evenodd" clip-rule="evenodd" d="M16.9029 6.54757C30.0607 4.28655 42.9821 4.28655 55.8248 6.54757C59.8431 7.22587 62.6007 9.86372 63.3886 13.7828C65.8311 26.143 65.8311 38.5032 63.3886 50.9388C62.6007 54.8579 59.9219 57.7972 55.8248 58.1741C42.9821 59.3046 30.0607 59.3046 16.9029 58.1741C12.8058 57.7972 9.81181 54.8579 9.33908 50.9388C7.92087 38.5032 7.60571 26.143 9.33908 13.7828C9.8906 9.78835 12.8058 7.22587 16.9029 6.54757Z" fill="#0ED1FF"/>
<path fill-rule="evenodd" clip-rule="evenodd" d="M17.2181 6.9247C30.1395 4.73905 42.9034 4.66368 55.5097 6.9247C59.528 7.603 62.2068 10.1655 62.9159 14.0092C65.4372 26.2187 65.3584 38.4281 62.9159 50.6376C62.2068 54.4813 59.6068 57.4207 55.5097 57.7975C42.9034 58.8526 30.1395 58.8526 17.2181 57.7975C13.121 57.4207 10.2058 54.5567 9.7331 50.6376C8.31489 38.4281 8.07852 26.2187 9.7331 14.0092C10.2846 10.1655 13.1998 7.603 17.2181 6.9247Z" fill="#00CCFF"/>
<path fill-rule="evenodd" clip-rule="evenodd" d="M13.9093 2.62865C29.0368 0.0661675 43.928 0.0661675 58.6616 2.62865C63.389 3.45768 66.5406 6.47236 67.4072 10.9944C68.7467 17.4759 69.4558 23.8821 69.5346 30.3637C41.5643 19.4355 22.6549 48.6779 3.82422 30.2883C3.82422 23.8068 4.29696 17.4006 5.16364 10.9944C5.79395 6.397 9.1819 3.45768 13.9093 2.62865Z" fill="white" fill-opacity="0.290196"/>
<path fill-rule="evenodd" clip-rule="evenodd" d="M13.4356 4.58813C16.6659 4.58813 19.3448 7.15062 19.3448 10.2407C19.3448 13.3307 16.6659 15.8932 13.4356 15.8932C10.1264 15.8932 7.52637 13.3307 7.52637 10.2407C7.52637 7.15062 10.1264 4.58813 13.4356 4.58813Z" fill="white"/>
<path fill-rule="evenodd" clip-rule="evenodd" d="M22.4176 2.17603C24.0722 2.17603 25.4116 3.45726 25.4116 4.96459C25.4116 6.54729 24.0722 7.82852 22.4176 7.82852C20.8419 7.82852 19.5024 6.54729 19.5024 4.96459C19.5024 3.45726 20.8419 2.17603 22.4176 2.17603Z" fill="white"/>
<path fill-rule="evenodd" clip-rule="evenodd" d="M60.0797 54.1045C62.0494 54.1045 63.6252 55.6118 63.6252 57.4207C63.6252 59.3049 62.0494 60.8122 60.0797 60.8122C58.11 60.8122 56.5342 59.3049 56.5342 57.4207C56.5342 55.6118 58.11 54.1045 60.0797 54.1045Z" fill="white"/>
<path d="M26.4356 50.1854C24.781 50.8637 23.1264 51.2406 21.5506 50.713C19.7385 50.0347 18.6354 48.5274 18.5566 45.4373V15.8934C18.5566 13.7831 19.2657 12.3512 20.684 11.5975C21.9446 10.8438 23.5992 10.8438 25.4113 11.5975H25.4901L25.7265 11.7482L54.2482 27.4999L54.4058 27.5753L54.5634 27.726C55.9816 28.8565 56.5331 30.0624 56.4543 31.3437V31.419C56.3755 32.6249 55.6664 33.7554 54.4846 34.6598L54.327 34.8105L54.0907 34.9613L26.7507 50.0347L26.5932 50.1101L26.4356 50.1854ZM23.284 46.191C23.3628 46.2663 23.8355 46.0402 24.4658 45.8141L50.9391 31.1929L23.5204 16.0441V45.4373C23.5204 46.0402 23.0476 46.191 23.284 46.191ZM23.2052 15.6673C23.1264 15.7427 23.2052 15.7427 23.284 15.7427C23.284 15.6673 23.284 15.6673 23.2052 15.6673Z" fill="#00B0DC"/>
<path fill-rule="evenodd" clip-rule="evenodd" d="M25.4908 47.9996C23.1271 48.904 21.0786 49.2054 21.0786 45.4371V15.8932C21.0786 13.4814 22.2605 12.9538 24.4666 13.7829L52.9883 29.5346C54.4065 30.6651 54.1702 31.7956 52.9095 32.8508L25.4908 47.9996Z" fill="white"/>
<path fill-rule="evenodd" clip-rule="evenodd" d="M27.8545 43.6282C25.4908 44.5326 23.4423 44.8341 23.4423 41.0657V13.4813C23.0483 13.406 22.7332 13.406 22.4968 13.4813C22.0241 13.4813 21.7089 13.7074 21.4726 14.0843C21.2362 14.4611 21.0786 15.064 21.0786 15.8931V45.437C21.0786 46.7183 21.315 47.5473 21.7089 47.9995C22.1029 48.3763 22.5756 48.6024 23.1271 48.5271C23.8362 48.5271 24.7029 48.301 25.4908 47.9995L52.9095 32.8507C54.1701 31.8709 54.4065 30.7404 53.1459 29.6853L27.8545 43.6282Z" fill="black" fill-opacity="0.101961"/>
</svg>
