<svg width="1000" height="200" viewBox="0 0 1000 200" fill="none" xmlns="http://www.w3.org/2000/svg">
<path fill-rule="evenodd" clip-rule="evenodd" d="M26.8839 7.62085H978.936C990.577 7.62085 1000 14.2254 1000 22.3541V185.267C1000 193.395 990.577 200 978.936 200H26.8839C15.2431 200 5.81958 193.395 5.81958 185.267V22.3541C5.81958 14.2254 15.2431 7.62085 26.8839 7.62085Z" fill="black" fill-opacity="0.101961"/>
<path fill-rule="evenodd" clip-rule="evenodd" d="M21.0643 3.04822H973.116C984.757 3.04822 994.181 9.65278 994.181 17.7815V180.694C994.181 188.823 984.757 195.427 973.116 195.427H21.0643C9.42351 195.427 0 188.823 0 180.694V17.7815C0 9.65278 9.42351 3.04822 21.0643 3.04822Z" fill="#E6E6E6"/>
<path fill-rule="evenodd" clip-rule="evenodd" d="M21.0643 0H973.116C984.757 0 994.181 6.60456 994.181 14.7333V177.646C994.181 185.775 984.757 192.379 973.116 192.379H21.0643C9.42351 192.379 0 185.775 0 177.646V14.7333C0 6.60456 9.42351 0 21.0643 0Z" fill="white"/>
<path fill-rule="evenodd" clip-rule="evenodd" d="M34.0918 9.82263H962.862C973.672 9.82263 982.541 16.0885 982.541 23.7091V169.856C982.541 177.477 973.672 183.743 962.862 183.743H34.0918C23.2825 183.743 14.4133 177.477 14.4133 169.856V23.7091C14.4133 16.0885 23.2825 9.82263 34.0918 9.82263Z" fill="#E6E6E6"/>
<path fill-rule="evenodd" clip-rule="evenodd" d="M29.6561 7.95886H958.981C969.79 7.95886 978.382 14.2247 978.382 21.8454V165.96C978.382 173.581 969.79 179.847 958.981 179.847H29.6561C18.8467 179.847 9.97754 173.581 9.97754 165.96V21.8454C9.97754 14.2247 18.8467 7.95886 29.6561 7.95886Z" fill="#F1C383"/>
<path fill-rule="evenodd" clip-rule="evenodd" d="M29.3789 4.4032H954.823C965.356 4.4032 974.225 10.4997 974.225 17.951V158.171C974.225 165.622 965.356 171.719 954.823 171.719H29.3789C18.5696 171.719 9.97754 165.622 9.97754 158.171V17.951C9.97754 10.4997 18.5696 4.4032 29.3789 4.4032Z" fill="#FAEECC"/>
<path fill-rule="evenodd" clip-rule="evenodd" d="M32.4274 6.26575C338.692 6.26575 645.233 6.26575 951.774 6.26575C962.306 6.26575 970.621 12.1929 970.621 19.6442C970.621 65.1988 970.621 110.753 970.621 156.477C970.621 163.759 962.029 169.856 951.774 169.856C645.233 169.856 338.692 169.856 32.4274 169.856C21.8952 169.856 13.3032 163.759 13.3032 156.477C13.3032 110.753 13.3032 65.1988 13.3032 19.6442C13.3032 12.1929 21.8952 6.26575 32.4274 6.26575Z" fill="#FAEDC9"/>
<path fill-rule="evenodd" clip-rule="evenodd" d="M35.4762 7.95886C339.8 7.95886 644.124 7.95886 948.448 7.95886C958.98 7.95886 967.295 13.886 967.295 21.168C967.295 65.7065 967.295 110.245 967.295 154.783C967.295 162.065 958.98 167.993 948.448 167.993C644.124 167.993 339.8 167.993 35.4762 167.993C25.2212 167.993 16.6292 162.065 16.6292 154.783C16.6292 110.245 16.6292 65.7065 16.6292 21.168C16.6292 13.886 25.2212 7.95886 35.4762 7.95886Z" fill="#F9ECC6"/>
<path fill-rule="evenodd" clip-rule="evenodd" d="M38.5247 9.82263C340.909 9.82263 643.292 9.82263 945.399 9.82263C955.654 9.82263 963.969 15.7498 963.969 22.8624C963.969 66.3848 963.969 109.738 963.969 153.091C963.969 160.373 955.654 166.3 945.399 166.3C643.292 166.3 340.909 166.3 38.5247 166.3C28.2697 166.3 19.9548 160.373 19.9548 153.091C19.9548 109.738 19.9548 66.3848 19.9548 22.8624C19.9548 15.7498 28.2697 9.82263 38.5247 9.82263Z" fill="#F9EBC2"/>
<path fill-rule="evenodd" clip-rule="evenodd" d="M41.8506 11.6851C342.017 11.6851 642.184 11.6851 942.35 11.6851C952.328 11.6851 960.643 17.4429 960.643 24.5555C960.643 66.8924 960.643 109.229 960.643 151.566C960.643 158.679 952.328 164.437 942.35 164.437C642.184 164.437 342.017 164.437 41.8506 164.437C31.5956 164.437 23.2808 158.679 23.2808 151.566C23.2808 109.229 23.2808 66.8924 23.2808 24.5555C23.2808 17.4429 31.5956 11.6851 41.8506 11.6851Z" fill="#F8EABF"/>
<path fill-rule="evenodd" clip-rule="evenodd" d="M44.8996 13.3782C342.849 13.3782 641.075 13.3782 939.302 13.3782C949.28 13.3782 957.317 19.136 957.317 26.0793C957.317 67.4001 957.317 108.721 957.317 149.872C957.317 156.816 949.28 162.574 939.302 162.574C641.075 162.574 342.849 162.574 44.8996 162.574C34.9218 162.574 26.6069 156.816 26.6069 149.872C26.6069 108.721 26.6069 67.4001 26.6069 26.0793C26.6069 19.136 34.9218 13.3782 44.8996 13.3782Z" fill="#F8E9BC"/>
<path fill-rule="evenodd" clip-rule="evenodd" d="M47.9479 15.2419C343.957 15.2419 639.966 15.2419 935.975 15.2419C945.953 15.2419 953.991 20.8304 953.991 27.7737C953.991 67.9091 953.991 108.045 953.991 148.18C953.991 155.123 945.953 160.881 935.975 160.881C639.966 160.881 343.957 160.881 47.9479 160.881C38.2472 160.881 29.9324 155.123 29.9324 148.18C29.9324 108.045 29.9324 67.9091 29.9324 27.7737C29.9324 20.8304 37.9701 15.2419 47.9479 15.2419Z" fill="#F7E8B9"/>
<path fill-rule="evenodd" clip-rule="evenodd" d="M50.9971 17.1045C345.066 17.1045 639.135 17.1045 932.927 17.1045C942.628 17.1045 950.665 22.693 950.665 29.4669C950.665 68.4169 950.665 107.536 950.665 146.656C950.665 153.429 942.628 159.018 932.927 159.018C639.135 159.018 345.066 159.018 50.9971 159.018C41.2964 159.018 33.5359 153.429 33.5359 146.656C33.5359 107.536 33.5359 68.4169 33.5359 29.4669C33.5359 22.693 41.2964 17.1045 50.9971 17.1045Z" fill="#F7E7B6"/>
<path fill-rule="evenodd" clip-rule="evenodd" d="M54.3228 18.7975C346.175 18.7975 638.026 18.7975 929.878 18.7975C939.301 18.7975 947.339 24.386 947.339 31.1599C947.339 69.0938 947.339 107.028 947.339 144.962C947.339 151.735 939.301 157.155 929.878 157.155C638.026 157.155 346.175 157.155 54.3228 157.155C44.6221 157.155 36.8616 151.735 36.8616 144.962C36.8616 107.028 36.8616 69.0938 36.8616 31.1599C36.8616 24.386 44.6221 18.7975 54.3228 18.7975Z" fill="#F6E6B3"/>
<path fill-rule="evenodd" clip-rule="evenodd" d="M57.3716 20.66C347.006 20.66 636.918 20.66 926.829 20.66C936.253 20.66 944.013 26.0792 944.013 32.6837C944.013 69.6015 944.013 106.519 944.013 143.268C944.013 150.042 936.253 155.461 926.829 155.461C636.918 155.461 347.006 155.461 57.3716 155.461C47.948 155.461 40.1875 150.042 40.1875 143.268C40.1875 106.519 40.1875 69.6015 40.1875 32.6837C40.1875 26.0792 47.948 20.66 57.3716 20.66Z" fill="#F6E5AF"/>
<path fill-rule="evenodd" clip-rule="evenodd" d="M60.4201 22.5227C348.114 22.5227 635.809 22.5227 923.503 22.5227C932.926 22.5227 940.687 27.7725 940.687 34.377C940.687 70.1094 940.687 105.842 940.687 141.744C940.687 148.179 932.926 153.598 923.503 153.598C635.809 153.598 348.114 153.598 60.4201 153.598C50.9966 153.598 43.5132 148.179 43.5132 141.744C43.5132 105.842 43.5132 70.1094 43.5132 34.377C43.5132 27.7725 50.9966 22.5227 60.4201 22.5227Z" fill="#F5E4AC"/>
<path fill-rule="evenodd" clip-rule="evenodd" d="M63.4688 24.2169H920.454C929.601 24.2169 937.361 29.4667 937.361 36.0713V140.051C937.361 146.486 929.601 151.736 920.454 151.736H63.4688C54.3225 151.736 46.8391 146.486 46.8391 140.051V36.0713C46.8391 29.4667 54.3225 24.2169 63.4688 24.2169Z" fill="#F5E3A9"/>
<path fill-rule="evenodd" clip-rule="evenodd" d="M954.546 149.196C960.367 149.196 965.078 152.583 965.078 156.647C965.078 160.881 960.367 164.098 954.546 164.098C948.726 164.098 944.014 160.881 944.014 156.647C944.014 152.583 948.726 149.196 954.546 149.196Z" fill="white"/>
<path fill-rule="evenodd" clip-rule="evenodd" d="M938.193 156.816C941.519 156.816 944.013 158.678 944.013 160.88C944.013 163.081 941.519 164.944 938.193 164.944C935.144 164.944 932.649 163.081 932.649 160.88C932.649 158.678 935.144 156.816 938.193 156.816Z" fill="white"/>
<path fill-rule="evenodd" clip-rule="evenodd" d="M30.7659 7.79053C39.9122 7.79053 47.1185 13.0403 47.1185 19.3062C47.1185 25.7414 39.9122 30.8218 30.7659 30.8218C21.6195 30.8218 14.4133 25.7414 14.4133 19.3062C14.4133 13.0403 21.6195 7.79053 30.7659 7.79053Z" fill="white"/>
<path fill-rule="evenodd" clip-rule="evenodd" d="M55.9855 6.43542C60.9744 6.43542 65.1318 9.31434 65.1318 12.8706C65.1318 16.2576 60.9744 19.1365 55.9855 19.1365C50.9965 19.1365 46.8391 16.2576 46.8391 12.8706C46.8391 9.31434 50.9965 6.43542 55.9855 6.43542Z" fill="white"/>
<path fill-rule="evenodd" clip-rule="evenodd" d="M61.5304 18.6281H242.517C255.267 18.6281 265.799 25.402 265.799 33.7V142.76C265.799 151.058 255.267 158.001 242.517 158.001H61.5304C48.5038 158.001 38.2488 151.227 38.2488 142.76V33.7C38.2488 25.402 48.5038 18.6281 61.5304 18.6281Z" fill="#EFB469"/>
<path fill-rule="evenodd" clip-rule="evenodd" d="M70.1215 25.7405H233.647C246.119 25.7405 256.097 32.345 256.097 40.4737V140.728C256.097 148.687 246.119 155.292 233.647 155.292H70.1215C57.6492 155.292 47.6714 148.687 47.6714 140.728V40.4737C47.6714 32.345 57.6492 25.7405 70.1215 25.7405Z" fill="#F1C383"/>
<path fill-rule="evenodd" clip-rule="evenodd" d="M71.2313 28.619C125.001 28.619 178.77 28.619 232.817 28.619C245.012 28.619 254.99 35.0542 254.99 43.0136C254.99 75.5283 254.99 108.043 254.99 140.558C254.99 148.517 245.012 154.952 232.817 154.952C178.77 154.952 125.001 154.952 71.2313 154.952C59.0362 154.952 49.0583 148.517 49.0583 140.558C49.0583 108.043 49.0583 75.5283 49.0583 43.0136C49.0583 35.0542 59.0362 28.619 71.2313 28.619Z" fill="#F1C585"/>
<path fill-rule="evenodd" clip-rule="evenodd" d="M72.0643 31.3291C125.279 31.3291 178.495 31.3291 231.71 31.3291C243.905 31.3291 253.605 37.7643 253.605 45.7237C253.605 77.2223 253.605 108.89 253.605 140.389C253.605 148.348 243.905 154.784 231.71 154.784C178.495 154.784 125.279 154.784 72.0643 154.784C60.1463 154.784 50.1685 148.348 50.1685 140.389C50.1685 108.89 50.1685 77.2223 50.1685 45.7237C50.1685 37.7643 60.1463 31.3291 72.0643 31.3291Z" fill="#F1C786"/>
<path fill-rule="evenodd" clip-rule="evenodd" d="M73.1711 34.2079C125.555 34.2079 178.216 34.2079 230.599 34.2079C242.517 34.2079 252.495 40.6431 252.495 48.2638C252.495 78.9157 252.495 109.568 252.495 140.22C252.495 148.01 242.517 154.445 230.599 154.445C178.216 154.445 125.555 154.445 73.1711 154.445C61.2532 154.445 51.5525 148.01 51.5525 140.22C51.5525 109.568 51.5525 78.9157 51.5525 48.2638C51.5525 40.6431 61.2532 34.2079 73.1711 34.2079Z" fill="#F2CA88"/>
<path fill-rule="evenodd" clip-rule="evenodd" d="M74.2808 37.0864C126.11 37.0864 177.939 37.0864 229.769 37.0864C241.41 37.0864 251.11 43.3523 251.11 50.9729C251.11 80.7782 251.11 110.414 251.11 140.219C251.11 147.84 241.41 154.106 229.769 154.106C177.939 154.106 126.11 154.106 74.2808 154.106C62.3628 154.106 52.6621 147.84 52.6621 140.219C52.6621 110.414 52.6621 80.7782 52.6621 50.9729C52.6621 43.3523 62.3628 37.0864 74.2808 37.0864Z" fill="#F2CC8A"/>
<path fill-rule="evenodd" clip-rule="evenodd" d="M75.1102 39.7965C126.385 39.7965 177.383 39.7965 228.658 39.7965C240.299 39.7965 250 46.0624 250 53.5137C250 82.4721 250 111.261 250 140.05C250 147.671 240.299 153.768 228.658 153.768C177.383 153.768 126.385 153.768 75.1102 153.768C63.4694 153.768 54.0459 147.671 54.0459 140.05C54.0459 111.261 54.0459 82.4721 54.0459 53.5137C54.0459 46.0624 63.4694 39.7965 75.1102 39.7965Z" fill="#F2CE8B"/>
<path fill-rule="evenodd" clip-rule="evenodd" d="M76.2198 42.6753C126.663 42.6753 177.107 42.6753 227.55 42.6753C239.191 42.6753 248.615 48.7718 248.615 56.2231C248.615 84.1655 248.615 111.939 248.615 139.881C248.615 147.332 239.191 153.598 227.55 153.598C177.107 153.598 126.663 153.598 76.2198 153.598C64.579 153.598 55.1555 147.332 55.1555 139.881C55.1555 111.939 55.1555 84.1655 55.1555 56.2231C55.1555 48.7718 64.579 42.6753 76.2198 42.6753Z" fill="#F2D08D"/>
<path fill-rule="evenodd" clip-rule="evenodd" d="M77.3299 45.3844C126.942 45.3844 176.831 45.3844 226.72 45.3844C238.084 45.3844 247.23 51.4809 247.23 58.9322C247.23 85.8585 247.23 112.785 247.23 139.711C247.23 147.162 238.084 153.259 226.72 153.259C176.831 153.259 126.942 153.259 77.3299 153.259C65.9662 153.259 56.5427 147.162 56.5427 139.711C56.5427 112.785 56.5427 85.8585 56.5427 58.9322C56.5427 51.4809 65.9662 45.3844 77.3299 45.3844Z" fill="#F2D28E"/>
<path fill-rule="evenodd" clip-rule="evenodd" d="M78.1623 48.2631C127.497 48.2631 176.555 48.2631 225.613 48.2631C236.976 48.2631 246.123 54.1902 246.123 61.4722C246.123 87.5517 246.123 113.631 246.123 139.711C246.123 146.993 236.976 152.92 225.613 152.92C176.555 152.92 127.497 152.92 78.1623 152.92C67.0759 152.92 57.6523 146.993 57.6523 139.711C57.6523 113.631 57.6523 87.5517 57.6523 61.4722C57.6523 54.1902 67.0759 48.2631 78.1623 48.2631Z" fill="#F2D490"/>
<path fill-rule="evenodd" clip-rule="evenodd" d="M79.269 50.9733C127.772 50.9733 176.276 50.9733 224.779 50.9733C235.866 50.9733 244.735 56.9004 244.735 64.1824C244.735 89.2459 244.735 114.309 244.735 139.542C244.735 146.655 235.866 152.582 224.779 152.582C176.276 152.582 127.772 152.582 79.269 152.582C68.1825 152.582 59.0361 146.655 59.0361 139.542C59.0361 114.309 59.0361 89.2459 59.0361 64.1824C59.0361 56.9004 68.1825 50.9733 79.269 50.9733Z" fill="#F3D792"/>
<path fill-rule="evenodd" clip-rule="evenodd" d="M80.3756 53.8518C128.047 53.8518 175.719 53.8518 223.668 53.8518C234.478 53.8518 243.624 59.6096 243.624 66.7222C243.624 90.939 243.624 115.156 243.624 139.372C243.624 146.485 234.478 152.412 223.668 152.412C175.719 152.412 128.047 152.412 80.3756 152.412C69.2891 152.412 60.4199 146.485 60.4199 139.372C60.4199 115.156 60.4199 90.939 60.4199 66.7222C60.4199 59.6096 69.2891 53.8518 80.3756 53.8518Z" fill="#F3D993"/>
<path fill-rule="evenodd" clip-rule="evenodd" d="M81.2081 56.562H222.561C233.37 56.562 242.239 62.3198 242.239 69.4324V139.204C242.239 146.316 233.37 152.074 222.561 152.074H81.2081C70.3987 152.074 61.5295 146.316 61.5295 139.204V69.4324C61.5295 62.3198 70.3987 56.562 81.2081 56.562Z" fill="#F3DB95"/>
<path fill-rule="evenodd" clip-rule="evenodd" d="M309.591 68.2473H932.375C945.401 68.2473 955.656 75.0212 955.656 83.4886V142.76C955.656 151.058 945.124 158.002 932.375 158.002H309.591C296.842 158.002 286.31 151.228 286.31 142.76V83.4886C286.31 75.0212 296.842 68.2473 309.591 68.2473Z" fill="#EFB469"/>
<path fill-rule="evenodd" clip-rule="evenodd" d="M318.46 75.5292H923.782C936.254 75.5292 946.232 82.1337 946.232 90.0931V140.728C946.232 148.687 935.977 155.292 923.782 155.292H318.46C305.988 155.292 296.01 148.687 296.01 140.728V90.0931C296.01 82.1337 305.988 75.5292 318.46 75.5292Z" fill="#F1C383"/>
<path fill-rule="evenodd" clip-rule="evenodd" d="M319.293 78.408C520.513 78.408 721.732 78.408 922.675 78.408C934.87 78.408 944.848 84.8432 944.848 92.8025C944.848 108.721 944.848 124.64 944.848 140.559C944.848 148.518 934.87 154.953 922.675 154.953C721.732 154.953 520.513 154.953 319.293 154.953C307.098 154.953 297.12 148.518 297.12 140.559C297.12 124.64 297.12 108.721 297.12 92.8025C297.12 84.8432 307.098 78.408 319.293 78.408Z" fill="#F1C585"/>
<path fill-rule="evenodd" clip-rule="evenodd" d="M320.403 81.1171C520.791 81.1171 721.179 81.1171 921.844 81.1171C933.762 81.1171 943.74 87.5523 943.74 95.3423C943.74 110.414 943.74 125.486 943.74 140.389C943.74 148.348 933.762 154.783 921.844 154.783C721.179 154.783 520.791 154.783 320.403 154.783C308.208 154.783 298.507 148.348 298.507 140.389C298.507 125.486 298.507 110.414 298.507 95.3423C298.507 87.5523 308.208 81.1171 320.403 81.1171Z" fill="#F1C786"/>
<path fill-rule="evenodd" clip-rule="evenodd" d="M321.509 83.9968C521.066 83.9968 720.9 83.9968 920.734 83.9968C932.652 83.9968 942.352 90.2627 942.352 98.0527C942.352 112.109 942.352 126.164 942.352 140.22C942.352 148.01 932.652 154.445 920.734 154.445C720.9 154.445 521.066 154.445 321.509 154.445C309.591 154.445 299.613 148.01 299.613 140.22C299.613 126.164 299.613 112.109 299.613 98.0527C299.613 90.2627 309.314 83.9968 321.509 83.9968Z" fill="#F2CA88"/>
<path fill-rule="evenodd" clip-rule="evenodd" d="M322.342 86.7059C521.622 86.7059 720.624 86.7059 919.626 86.7059C931.544 86.7059 941.245 92.9718 941.245 100.592C941.245 113.802 941.245 127.011 941.245 140.22C941.245 147.84 931.544 154.106 919.626 154.106C720.624 154.106 521.622 154.106 322.342 154.106C310.701 154.106 301 147.84 301 140.22C301 127.011 301 113.802 301 100.592C301 92.9718 310.701 86.7059 322.342 86.7059Z" fill="#F2CC8A"/>
<path fill-rule="evenodd" clip-rule="evenodd" d="M323.448 89.5845C521.896 89.5845 720.344 89.5845 918.793 89.5845C930.433 89.5845 939.857 95.681 939.857 103.302C939.857 115.495 939.857 127.857 939.857 140.05C939.857 147.671 930.433 153.767 918.793 153.767C720.344 153.767 521.896 153.767 323.448 153.767C311.807 153.767 302.107 147.671 302.107 140.05C302.107 127.857 302.107 115.495 302.107 103.302C302.107 95.681 311.807 89.5845 323.448 89.5845Z" fill="#F2CE8B"/>
<path fill-rule="evenodd" clip-rule="evenodd" d="M324.281 92.2948C522.175 92.2948 720.069 92.2948 917.685 92.2948C929.326 92.2948 938.75 98.3913 938.75 106.012C938.75 117.189 938.75 128.535 938.75 139.882C938.75 147.333 929.326 153.599 917.685 153.599C720.069 153.599 522.175 153.599 324.281 153.599C312.917 153.599 303.494 147.333 303.494 139.882C303.494 128.535 303.494 117.189 303.494 106.012C303.494 98.3913 312.917 92.2948 324.281 92.2948Z" fill="#F2D08D"/>
<path fill-rule="evenodd" clip-rule="evenodd" d="M325.391 95.1733C522.453 95.1733 719.515 95.1733 916.578 95.1733C927.941 95.1733 937.365 101.101 937.365 108.552C937.365 119.051 937.365 129.382 937.365 139.712C937.365 147.163 927.941 153.26 916.578 153.26C719.515 153.26 522.453 153.26 325.391 153.26C314.027 153.26 304.604 147.163 304.604 139.712C304.604 129.382 304.604 119.051 304.604 108.552C304.604 101.101 314.027 95.1733 325.391 95.1733Z" fill="#F2D28E"/>
<path fill-rule="evenodd" clip-rule="evenodd" d="M326.497 97.8824C522.728 97.8824 719.236 97.8824 915.744 97.8824C926.83 97.8824 936.254 103.979 936.254 111.261C936.254 120.744 936.254 130.228 936.254 139.711C936.254 146.993 926.83 152.92 915.744 152.92C719.236 152.92 522.728 152.92 326.497 152.92C315.134 152.92 305.987 146.993 305.987 139.711C305.987 130.228 305.987 120.744 305.987 111.261C305.987 103.81 315.134 97.8824 326.497 97.8824Z" fill="#F2D490"/>
<path fill-rule="evenodd" clip-rule="evenodd" d="M327.33 100.762C523.284 100.762 718.96 100.762 914.637 100.762C925.723 100.762 934.87 106.689 934.87 113.802C934.87 122.439 934.87 130.906 934.87 139.543C934.87 146.655 925.723 152.583 914.637 152.583C718.96 152.583 523.284 152.583 327.33 152.583C316.244 152.583 307.375 146.655 307.375 139.543C307.375 130.906 307.375 122.439 307.375 113.802C307.375 106.689 316.244 100.762 327.33 100.762Z" fill="#F3D792"/>
<path fill-rule="evenodd" clip-rule="evenodd" d="M328.437 103.471C523.559 103.471 718.681 103.471 913.526 103.471C924.612 103.471 933.482 109.398 933.482 116.511C933.482 124.132 933.482 131.752 933.482 139.373C933.482 146.486 924.612 152.413 913.526 152.413C718.681 152.413 523.559 152.413 328.437 152.413C317.627 152.413 308.481 146.486 308.481 139.373C308.481 131.752 308.481 124.132 308.481 116.511C308.481 109.398 317.627 103.471 328.437 103.471Z" fill="#F3D993"/>
<path fill-rule="evenodd" clip-rule="evenodd" d="M329.546 106.351H912.696C923.505 106.351 932.374 112.109 932.374 119.052V139.204C932.374 146.317 923.505 152.075 912.696 152.075H329.546C318.737 152.075 309.868 146.317 309.868 139.204V119.052C309.868 112.109 318.737 106.351 329.546 106.351Z" fill="#F3DB95"/>
<path fill-rule="evenodd" clip-rule="evenodd" d="M589.004 17.6129H934.978C944.695 17.6129 952.329 21.6773 952.329 26.5883V51.1438C952.329 56.0549 944.695 59.9499 934.978 59.9499H589.004C579.634 59.9499 572 56.0549 572 51.1438V26.5883C572 21.6773 579.634 17.6129 589.004 17.6129Z" fill="#EFB469"/>
<path fill-rule="evenodd" clip-rule="evenodd" d="M595.599 22.0162H928.734C937.757 22.0162 945.391 25.9112 945.391 30.4836V49.7893C945.391 54.531 937.757 58.426 928.734 58.426H595.599C586.577 58.426 578.943 54.531 578.943 49.7893V30.4836C578.943 25.7419 586.577 22.0162 595.599 22.0162Z" fill="#F1C383"/>
<path fill-rule="evenodd" clip-rule="evenodd" d="M596.29 23.5397C706.988 23.5397 817.339 23.5397 928.037 23.5397C937.059 23.5397 944.347 27.4347 944.347 32.1764C944.347 37.9342 944.347 43.8614 944.347 49.7886C944.347 54.5303 937.059 58.256 928.037 58.256C817.339 58.256 706.988 58.256 596.29 58.256C587.268 58.256 579.98 54.5303 579.98 49.7886C579.98 43.8614 579.98 37.9342 579.98 32.1764C579.98 27.4347 587.268 23.5397 596.29 23.5397Z" fill="#F1C585"/>
<path fill-rule="evenodd" clip-rule="evenodd" d="M596.985 25.2328C706.989 25.2328 817.34 25.2328 927.344 25.2328C936.019 25.2328 943.307 28.9584 943.307 33.7002C943.307 38.95 943.307 44.3691 943.307 49.7882C943.307 54.3606 936.019 58.0863 927.344 58.0863C817.34 58.0863 706.989 58.0863 596.985 58.0863C588.31 58.0863 581.022 54.3606 581.022 49.7882C581.022 44.3691 581.022 38.95 581.022 33.7002C581.022 28.9584 588.31 25.2328 596.985 25.2328Z" fill="#F1C786"/>
<path fill-rule="evenodd" clip-rule="evenodd" d="M597.676 26.9269C707.333 26.9269 816.99 26.9269 926.647 26.9269C935.322 26.9269 942.61 30.6525 942.61 35.2249C942.61 39.9667 942.61 44.8777 942.61 49.6195C942.61 54.1919 935.322 57.9175 926.647 57.9175C816.99 57.9175 707.333 57.9175 597.676 57.9175C589.001 57.9175 581.713 54.1919 581.713 49.6195C581.713 44.8777 581.713 39.9667 581.713 35.2249C581.713 30.6525 589.001 26.9269 597.676 26.9269Z" fill="#F2CA88"/>
<path fill-rule="evenodd" clip-rule="evenodd" d="M598.718 28.4504C707.681 28.4504 816.644 28.4504 925.606 28.4504C934.282 28.4504 941.569 32.1761 941.569 36.7485C941.569 40.9822 941.569 45.2159 941.569 49.6189C941.569 54.022 934.282 57.7476 925.606 57.7476C816.644 57.7476 707.681 57.7476 598.718 57.7476C590.042 57.7476 582.755 54.022 582.755 49.6189C582.755 45.2159 582.755 40.9822 582.755 36.7485C582.755 32.1761 589.695 28.4504 598.718 28.4504Z" fill="#F2CC8A"/>
<path fill-rule="evenodd" clip-rule="evenodd" d="M599.413 30.1445C708.029 30.1445 816.298 30.1445 924.914 30.1445C933.589 30.1445 940.529 33.8702 940.529 38.2732C940.529 41.9989 940.529 45.7245 940.529 49.4502C940.529 53.8532 933.589 57.5789 924.914 57.5789C816.298 57.5789 708.029 57.5789 599.413 57.5789C590.738 57.5789 583.797 54.0226 583.797 49.4502C583.797 45.7245 583.797 41.9989 583.797 38.2732C583.797 33.8702 590.738 30.1445 599.413 30.1445Z" fill="#F2CE8B"/>
<path fill-rule="evenodd" clip-rule="evenodd" d="M600.108 31.8378C708.029 31.8378 816.298 31.8378 924.22 31.8378C932.896 31.8378 939.836 35.3941 939.836 39.7971C939.836 43.0147 939.836 46.2323 939.836 49.4499C939.836 53.853 932.896 57.4093 924.22 57.4093C816.298 57.4093 708.029 57.4093 600.108 57.4093C591.432 57.4093 584.492 53.853 584.492 49.4499C584.492 46.2323 584.492 43.0147 584.492 39.7971C584.492 35.3941 591.432 31.8378 600.108 31.8378Z" fill="#F2D08D"/>
<path fill-rule="evenodd" clip-rule="evenodd" d="M600.803 33.5308C708.378 33.5308 815.952 33.5308 923.527 33.5308C931.856 33.5308 938.796 37.0871 938.796 41.3208C938.796 44.0303 938.796 46.7399 938.796 49.2801C938.796 53.6831 931.856 57.2395 923.527 57.2395C815.952 57.2395 708.378 57.2395 600.803 57.2395C592.474 57.2395 585.534 53.6831 585.534 49.2801C585.534 46.7399 585.534 44.0303 585.534 41.3208C585.534 37.0871 592.474 33.5308 600.803 33.5308Z" fill="#F2D28E"/>
<path fill-rule="evenodd" clip-rule="evenodd" d="M601.498 35.0554C708.725 35.0554 815.606 35.0554 922.834 35.0554C931.162 35.0554 937.756 38.6117 937.756 43.0148C937.756 45.0469 937.756 47.0791 937.756 49.2806C937.756 53.5143 931.162 57.0706 922.834 57.0706C815.606 57.0706 708.725 57.0706 601.498 57.0706C593.169 57.0706 586.576 53.5143 586.576 49.2806C586.576 47.0791 586.576 45.0469 586.576 43.0148C586.576 38.6117 593.169 35.0554 601.498 35.0554Z" fill="#F2D490"/>
<path fill-rule="evenodd" clip-rule="evenodd" d="M602.188 36.7485C708.722 36.7485 815.602 36.7485 922.136 36.7485C930.117 36.7485 937.058 40.3048 937.058 44.5385C937.058 46.0627 937.058 47.5868 937.058 49.1109C937.058 53.3446 930.117 56.9009 922.136 56.9009C815.602 56.9009 708.722 56.9009 602.188 56.9009C594.206 56.9009 587.266 53.3446 587.266 49.1109C587.266 47.5868 587.266 46.0627 587.266 44.5385C587.266 40.3048 594.206 36.7485 602.188 36.7485Z" fill="#F3D792"/>
<path fill-rule="evenodd" clip-rule="evenodd" d="M602.883 38.4425C709.07 38.4425 815.256 38.4425 921.443 38.4425C929.425 38.4425 936.018 41.8295 936.018 46.0632C936.018 47.0792 936.018 48.0953 936.018 49.1114C936.018 53.3451 929.425 56.7321 921.443 56.7321C815.256 56.7321 709.07 56.7321 602.883 56.7321C594.902 56.7321 588.308 53.3451 588.308 49.1114C588.308 48.0953 588.308 47.0792 588.308 46.0632C588.308 41.8295 594.902 38.4425 602.883 38.4425Z" fill="#F3D993"/>
<path fill-rule="evenodd" clip-rule="evenodd" d="M603.925 40.1357H920.403C928.385 40.1357 934.978 43.5227 934.978 47.587V48.9418C934.978 53.1755 928.385 56.5625 920.403 56.5625H603.925C595.944 56.5625 589.351 53.1755 589.351 48.9418V47.587C589.351 43.5227 595.944 40.1357 603.925 40.1357Z" fill="#F3DB95"/>
<path fill-rule="evenodd" clip-rule="evenodd" d="M300.92 17.6129H543.884C550.686 17.6129 556 21.6773 556 26.5883V51.1438C556 56.0549 550.686 59.9499 543.884 59.9499H300.92C294.33 59.9499 288.803 56.0549 288.803 51.1438V26.5883C288.803 21.6773 294.33 17.6129 300.92 17.6129Z" fill="#EFB469"/>
<path fill-rule="evenodd" clip-rule="evenodd" d="M305.383 22.0162H539.42C545.797 22.0162 551.111 25.9112 551.111 30.4836V49.7893C551.111 54.531 545.797 58.426 539.42 58.426H305.383C299.006 58.426 293.905 54.531 293.905 49.7893V30.4836C293.905 25.7419 299.006 22.0162 305.383 22.0162Z" fill="#F1C383"/>
<path fill-rule="evenodd" clip-rule="evenodd" d="M306.022 23.5397C383.609 23.5397 461.196 23.5397 538.995 23.5397C545.372 23.5397 550.474 27.4347 550.474 32.1764C550.474 37.9342 550.474 43.8614 550.474 49.7886C550.474 54.5303 545.372 58.256 538.995 58.256C461.196 58.256 383.609 58.256 306.022 58.256C299.645 58.256 294.543 54.5303 294.543 49.7886C294.543 43.8614 294.543 37.9342 294.543 32.1764C294.543 27.4347 299.645 23.5397 306.022 23.5397Z" fill="#F1C585"/>
<path fill-rule="evenodd" clip-rule="evenodd" d="M306.448 25.2328C383.822 25.2328 461.197 25.2328 538.358 25.2328C544.735 25.2328 549.837 28.9584 549.837 33.7002C549.837 38.95 549.837 44.3691 549.837 49.7882C549.837 54.3606 544.735 58.0863 538.358 58.0863C461.197 58.0863 383.822 58.0863 306.448 58.0863C300.283 58.0863 295.182 54.3606 295.182 49.7882C295.182 44.3691 295.182 38.95 295.182 33.7002C295.182 28.9584 300.283 25.2328 306.448 25.2328Z" fill="#F1C786"/>
<path fill-rule="evenodd" clip-rule="evenodd" d="M307.086 26.9269C384.035 26.9269 460.984 26.9269 537.934 26.9269C544.098 26.9269 549.2 30.6525 549.2 35.2249C549.2 39.9667 549.2 44.8777 549.2 49.6195C549.2 54.1919 544.098 57.9175 537.934 57.9175C460.984 57.9175 384.035 57.9175 307.086 57.9175C300.921 57.9175 295.82 54.1919 295.82 49.6195C295.82 44.8777 295.82 39.9667 295.82 35.2249C295.82 30.6525 300.921 26.9269 307.086 26.9269Z" fill="#F2CA88"/>
<path fill-rule="evenodd" clip-rule="evenodd" d="M307.512 28.4504C384.248 28.4504 460.773 28.4504 537.297 28.4504C543.461 28.4504 548.563 32.1761 548.563 36.7485C548.563 40.9822 548.563 45.2159 548.563 49.6189C548.563 54.022 543.461 57.7476 537.297 57.7476C460.773 57.7476 384.248 57.7476 307.512 57.7476C301.347 57.7476 296.458 54.022 296.458 49.6189C296.458 45.2159 296.458 40.9822 296.458 36.7485C296.458 32.1761 301.347 28.4504 307.512 28.4504Z" fill="#F2CC8A"/>
<path fill-rule="evenodd" clip-rule="evenodd" d="M308.147 30.1445C384.246 30.1445 460.558 30.1445 536.87 30.1445C542.822 30.1445 547.923 33.8702 547.923 38.2732C547.923 41.9989 547.923 45.7245 547.923 49.4502C547.923 53.8532 542.822 57.5789 536.87 57.5789C460.558 57.5789 384.246 57.5789 308.147 57.5789C301.983 57.5789 297.094 54.0226 297.094 49.4502C297.094 45.7245 297.094 41.9989 297.094 38.2732C297.094 33.8702 301.983 30.1445 308.147 30.1445Z" fill="#F2CE8B"/>
<path fill-rule="evenodd" clip-rule="evenodd" d="M308.573 31.8378C384.459 31.8378 460.346 31.8378 536.445 31.8378C542.397 31.8378 547.286 35.3941 547.286 39.7971C547.286 43.0147 547.286 46.2323 547.286 49.4499C547.286 53.853 542.397 57.4093 536.445 57.4093C460.346 57.4093 384.459 57.4093 308.573 57.4093C302.621 57.4093 297.732 53.853 297.732 49.4499C297.732 46.2323 297.732 43.0147 297.732 39.7971C297.732 35.3941 302.621 31.8378 308.573 31.8378Z" fill="#F2D08D"/>
<path fill-rule="evenodd" clip-rule="evenodd" d="M308.999 33.5308C384.673 33.5308 460.347 33.5308 535.808 33.5308C541.76 33.5308 546.436 37.0871 546.436 41.3208C546.436 44.0303 546.436 46.7399 546.436 49.2801C546.436 53.6831 541.76 57.2395 535.808 57.2395C460.347 57.2395 384.673 57.2395 308.999 57.2395C303.26 57.2395 298.371 53.6831 298.371 49.2801C298.371 46.7399 298.371 44.0303 298.371 41.3208C298.371 37.0871 303.26 33.5308 308.999 33.5308Z" fill="#F2D28E"/>
<path fill-rule="evenodd" clip-rule="evenodd" d="M309.634 35.0554C384.883 35.0554 460.132 35.0554 535.381 35.0554C541.12 35.0554 545.796 38.6117 545.796 43.0148C545.796 45.0469 545.796 47.0791 545.796 49.2806C545.796 53.5143 541.12 57.0706 535.381 57.0706C460.132 57.0706 384.883 57.0706 309.634 57.0706C303.895 57.0706 299.006 53.5143 299.006 49.2806C299.006 47.0791 299.006 45.0469 299.006 43.0148C299.006 38.6117 303.895 35.0554 309.634 35.0554Z" fill="#F2D490"/>
<path fill-rule="evenodd" clip-rule="evenodd" d="M310.06 36.7485C385.096 36.7485 459.92 36.7485 534.744 36.7485C540.483 36.7485 545.159 40.3048 545.159 44.5385C545.159 46.0627 545.159 47.5868 545.159 49.1109C545.159 53.3446 540.483 56.9009 534.744 56.9009C459.92 56.9009 385.096 56.9009 310.06 56.9009C304.321 56.9009 299.645 53.3446 299.645 49.1109C299.645 47.5868 299.645 46.0627 299.645 44.5385C299.645 40.3048 304.321 36.7485 310.06 36.7485Z" fill="#F3D792"/>
<path fill-rule="evenodd" clip-rule="evenodd" d="M310.699 38.4425C385.097 38.4425 459.708 38.4425 534.319 38.4425C539.846 38.4425 544.522 41.8295 544.522 46.0632C544.522 47.0792 544.522 48.0953 544.522 49.1114C544.522 53.3451 539.846 56.7321 534.319 56.7321C459.708 56.7321 385.097 56.7321 310.699 56.7321C304.959 56.7321 300.283 53.3451 300.283 49.1114C300.283 48.0953 300.283 47.0792 300.283 46.0632C300.283 41.8295 304.959 38.4425 310.699 38.4425Z" fill="#F3D993"/>
<path fill-rule="evenodd" clip-rule="evenodd" d="M311.124 40.1357H533.682C539.421 40.1357 543.885 43.5227 543.885 47.587V48.9418C543.885 53.1755 539.421 56.5625 533.682 56.5625H311.124C305.598 56.5625 300.921 53.1755 300.921 48.9418V47.587C300.921 43.5227 305.598 40.1357 311.124 40.1357Z" fill="#F3DB95"/>
<path d="M85.8259 58.0244C82.4572 77.646 84.3521 91.222 94.2479 102.465C103.933 113.495 122.04 122.935 151.096 134.071C179.941 122.935 198.048 113.495 207.733 102.465C217.629 91.222 219.524 77.646 216.155 58.1305C193.627 55.7971 172.361 54.6304 151.096 54.6304C129.831 54.6304 108.355 55.6911 85.8259 58.0244ZM66.4555 108.616C53.4015 93.6614 51.5066 76.3732 56.7703 51.0243L58.0336 45.6151L68.3504 44.4484C96.985 40.9484 123.935 39.3574 151.096 39.3574C178.046 39.4635 204.996 41.1605 233.42 44.4484L244.158 45.6151L245.211 51.0243C250.475 76.3732 248.58 93.6614 235.526 108.616C222.261 123.571 198.469 135.45 159.939 149.769L151.096 153.056L142.042 149.769C103.512 135.45 79.7201 123.571 66.4555 108.616Z" fill="black" fill-opacity="0.101961"/>
<path d="M85.8259 51.6614C82.4572 71.283 84.3521 84.859 94.2479 96.1016C103.933 107.132 122.04 116.466 151.096 127.708C179.941 116.466 198.048 107.132 207.733 96.1016C217.629 84.859 219.524 71.283 216.155 51.6614C193.627 49.4341 172.361 48.2674 151.096 48.2674C129.831 48.1613 108.355 49.328 85.8259 51.6614ZM66.4555 102.253C53.4015 87.2984 51.5066 69.9041 56.7703 44.6613L58.0336 39.2521L68.3504 37.9793C96.985 34.5853 123.935 32.9944 151.096 32.9944C178.046 32.9944 204.996 34.6914 233.42 37.9793L244.158 39.2521L245.211 44.6613C250.475 69.9041 248.58 87.2984 235.526 102.253C222.261 117.208 198.469 128.981 159.939 143.299L151.096 146.693L142.042 143.299C103.512 128.981 79.7201 117.208 66.4555 102.253Z" fill="white"/>
<path fill-rule="evenodd" clip-rule="evenodd" d="M71.9269 42.9634C61.8206 90.7976 78.2434 107.662 151.093 134.708C223.943 107.662 240.155 90.7976 230.259 42.9634C175.096 36.5997 127.091 36.3875 71.9269 42.9634Z" fill="#E6E6E6"/>
<path fill-rule="evenodd" clip-rule="evenodd" d="M151.096 134.708C223.945 107.662 240.158 90.798 230.262 42.9638C202.68 39.782 176.783 38.191 151.096 38.085V134.708Z" fill="#CCCCCC"/>
<path fill-rule="evenodd" clip-rule="evenodd" d="M151.097 124.738C130.464 117.102 114.252 110.208 102.04 103.314C80.3533 91.0104 70.6681 78.2829 69.4048 60.1462C67.0887 95.359 87.7225 111.162 151.097 134.708C214.472 111.162 235.106 95.359 232.58 60.0402C231.316 78.2829 221.631 91.0104 199.945 103.314C187.733 110.208 171.731 117.102 151.097 124.738Z" fill="white"/>
<path fill-rule="evenodd" clip-rule="evenodd" d="M69.1951 65.8731C69.4056 97.1615 91.3026 112.541 151.098 134.708C210.894 112.541 232.581 97.1615 232.791 65.8731C232.791 64.4943 232.791 63.0094 232.581 61.5245C231.317 79.6612 221.632 92.3887 199.946 104.692C187.734 111.586 171.732 118.48 151.098 126.117C130.465 118.48 114.252 111.586 102.041 104.692C80.3541 92.3887 70.6689 79.6612 69.4056 61.5245C69.1951 63.0094 69.1951 64.4943 69.1951 65.8731Z" fill="#999999"/>
<path fill-rule="evenodd" clip-rule="evenodd" d="M148.572 37.2373L154.678 38.0858L151.098 77.8593L148.572 37.2373Z" fill="white"/>
<path fill-rule="evenodd" clip-rule="evenodd" d="M151.096 140.86L142.042 137.466C103.512 123.254 79.7199 111.375 66.4553 96.4201C58.4545 87.1927 54.6646 77.1167 54.033 64.8135C53.6119 79.8744 57.1912 91.6473 66.4553 102.254C79.7199 117.208 103.512 128.981 142.042 143.3L151.096 146.694L159.939 143.3C198.469 128.981 222.261 117.208 235.526 102.254C244.79 91.6473 248.58 79.8744 247.948 64.8135C247.527 77.1167 243.526 87.1927 235.526 96.4201C222.261 111.375 198.469 123.254 159.939 137.466L151.096 140.86Z" fill="#E6E6E6"/>
<path d="M322.178 58.5313L306.499 63.5072C304.672 64.1117 302.694 64.2977 300.867 64.1117C299.497 63.9722 298.203 63.6467 297.137 63.1816C296.072 62.7166 295.159 62.1121 294.55 61.3215C293.636 60.2984 293.18 59.0428 293.56 57.6477L296.452 47.0914L283.362 39.2787C281.992 38.4417 281.078 37.3721 280.698 36.3025C280.469 35.5584 280.545 34.7679 280.85 34.0238V33.9773C281.23 33.2333 281.839 32.5357 282.829 31.8847C284.123 31.0941 285.873 30.536 288.08 30.257L288.309 30.2105L306.118 28.5829L306.499 28.0248C309.315 23.6535 314.034 16.4454 322.102 16.4919C330.093 16.5849 334.812 23.5605 337.704 27.9783L338.161 28.5829L355.971 30.2105L356.199 30.257C358.406 30.536 360.157 31.0941 361.45 31.8847C362.44 32.4892 363.049 33.2333 363.429 34.0238C363.734 34.7679 363.81 35.5584 363.582 36.3025C363.201 37.3721 362.288 38.4417 360.918 39.2787L347.903 47.0914L350.719 57.6477C351.1 59.0428 350.719 60.2984 349.806 61.3215C349.121 62.1121 348.207 62.7166 347.142 63.1816C346.076 63.6467 344.782 63.9722 343.412 64.1117C341.586 64.2977 339.607 64.1117 337.78 63.5072L322.178 58.5313Z" fill="black" fill-opacity="0.101961"/>
<path d="M322.178 57.0898L306.499 62.0657C304.672 62.6703 302.694 62.8098 300.867 62.6703C299.497 62.5307 298.203 62.2052 297.137 61.7402C296.072 61.2751 295.159 60.6241 294.55 59.88C293.636 58.8569 293.18 57.5548 293.56 56.2062V56.1597L296.452 45.6034L283.362 37.7908C281.992 36.9537 281.078 35.9306 280.698 34.861C280.469 34.117 280.545 33.3264 280.85 32.5358C281.23 31.7918 281.839 31.0477 282.829 30.4432C284.123 29.6526 285.873 29.0481 288.08 28.8155L288.309 28.769L306.118 27.1414L306.499 26.5834C309.315 22.212 314.034 14.9574 322.102 15.0504C330.093 15.0969 334.812 22.119 337.704 26.4904L338.161 27.1414L355.971 28.769L356.199 28.8155C358.406 29.0481 360.157 29.6526 361.45 30.4432C362.44 31.0477 363.049 31.7918 363.429 32.5358C363.734 33.3264 363.81 34.0705 363.582 34.861C363.201 35.9306 362.288 36.9537 360.918 37.7908L347.903 45.6034L350.719 56.1597V56.2062C351.1 57.5548 350.719 58.8569 349.806 59.88C349.121 60.6241 348.207 61.2751 347.142 61.7402C346.076 62.2052 344.782 62.5307 343.412 62.6703C341.586 62.8098 339.607 62.6703 337.78 62.0657L322.178 57.0898Z" fill="white"/>
<path d="M322.176 53.6485L304.214 59.3685C301.169 60.345 297.897 58.9034 298.429 56.6713L301.778 44.5338L286.861 35.6051C284.73 34.3495 285.034 32.2568 289.068 31.7918L309.618 29.8851C311.52 27.5134 316.239 18.0267 322.1 18.0732C327.96 18.1197 332.603 27.3274 334.658 29.8851L355.284 31.7918C359.241 32.2568 359.622 34.3495 357.415 35.6051L342.573 44.5338L345.846 56.6713C346.379 58.9034 343.106 60.345 340.062 59.3685L322.176 53.6485Z" fill="#FFE00F"/>
<path fill-rule="evenodd" clip-rule="evenodd" d="M322.175 51.2772L304.213 56.9972C301.93 57.7412 299.494 57.0902 298.657 55.7881L298.429 56.6717C297.896 58.9038 301.169 60.3454 304.213 59.3689L322.175 53.6489L340.061 59.3689C343.105 60.3454 346.378 58.9038 345.845 56.6717L345.617 55.7881C344.78 57.0902 342.344 57.7412 340.061 56.9972L322.175 51.2772Z" fill="#DCB000"/>
<path fill-rule="evenodd" clip-rule="evenodd" d="M341.966 42.4883L342.575 44.5345L357.416 35.6058C358.862 34.7687 359.167 33.6061 358.101 32.7225C357.949 32.9085 357.721 33.0946 357.416 33.2341L341.966 42.4883Z" fill="#DCB000"/>
<path fill-rule="evenodd" clip-rule="evenodd" d="M302.313 42.4883L286.862 33.2341C286.558 33.0946 286.33 32.9085 286.177 32.7225C285.112 33.6061 285.416 34.7687 286.862 35.6058L301.78 44.5345L302.313 42.4883Z" fill="#DCB000"/>
<path fill-rule="evenodd" clip-rule="evenodd" d="M306.501 60.6708C304.674 61.2754 302.695 61.4614 300.869 61.2754C299.499 61.1359 298.205 60.8569 297.139 60.3918C296.074 59.9268 295.161 59.2757 294.552 58.5317C294.019 57.9271 293.638 57.2296 293.486 56.4855C293.258 57.7411 293.638 58.9037 294.552 59.8803C295.161 60.6243 296.074 61.2754 297.139 61.7404C298.205 62.2055 299.499 62.531 300.869 62.6705C302.695 62.81 304.674 62.6705 306.501 62.066L322.18 57.0901L337.782 62.066C339.609 62.6705 341.588 62.81 343.414 62.6705C344.784 62.531 346.078 62.2055 347.144 61.7404C348.209 61.2754 349.123 60.6243 349.808 59.8803C350.645 58.9037 351.025 57.7411 350.797 56.4855C350.645 57.2296 350.34 57.9271 349.808 58.5317C349.123 59.2757 348.209 59.9268 347.144 60.3453C346.078 60.8569 344.784 61.1359 343.414 61.2754C341.588 61.4614 339.609 61.2754 337.782 60.7174L322.18 55.7415L306.501 60.6708Z" fill="#E6E6E6"/>
<path fill-rule="evenodd" clip-rule="evenodd" d="M334.657 29.8851C332.602 27.3274 327.959 18.1197 322.099 18.0732C316.238 18.0267 311.519 27.5134 309.616 29.8851L289.067 31.7918C287.697 31.9313 286.707 32.3033 286.175 32.7218L286.86 33.2334L295.003 38.1163C302.386 35.9771 311.595 33.9309 321.718 32.3963C327.731 31.4662 333.515 30.7687 338.995 30.3036L334.657 29.8851Z" fill="#FFF71F"/>
<path fill-rule="evenodd" clip-rule="evenodd" d="M343.184 46.9514C338.769 47.928 333.898 48.8116 328.875 49.6021C318.219 51.2763 308.097 52.1598 299.649 52.3458L298.659 55.7871C299.496 57.0892 301.932 57.7403 304.215 56.9962L322.177 51.2763L340.063 56.9962C342.346 57.7403 344.782 57.0892 345.619 55.7871L343.184 46.9514Z" fill="#F7C600"/>
<ellipse cx="610.561" cy="40.0665" rx="40.5607" ry="24.2209" fill="#E6E6E6"/>
<ellipse cx="611.575" cy="40.6572" rx="41.5747" ry="24.8116" fill="black" fill-opacity="0.1"/>
<ellipse cx="611.575" cy="38.8851" rx="41.5747" ry="24.2209" fill="white"/>
<path d="M614.468 58.2707V56.7259C614.468 55.766 613.137 54.9904 611.489 54.9904C609.841 54.9904 608.51 55.766 608.51 56.7259V58.2707C598.933 57.7769 590.503 54.9256 584.944 50.7217C581.14 47.8453 578.681 44.3357 578.118 40.5148H580.687C582.332 40.5148 583.663 39.7376 583.663 38.7793C583.663 37.8193 582.332 37.0437 580.687 37.0437H578.134C579.6 27.6898 592.44 20.2253 608.51 19.3952V20.8326C608.51 21.7925 609.841 22.5682 611.489 22.5682C613.137 22.5682 614.468 21.7925 614.468 20.8326V19.3952C621.706 19.769 628.289 21.4888 633.472 24.1209C639.797 27.3327 644.038 31.9029 644.844 37.0437H642.294C640.646 37.0437 639.315 37.8193 639.315 38.7793C639.315 39.7376 640.646 40.5148 642.294 40.5148H644.86C643.477 49.92 630.598 57.439 614.468 58.2707ZM611.489 15.8456C589.695 15.8456 572.03 26.1354 572.03 38.8337C572.03 51.5305 589.695 61.8219 611.489 61.8219C633.283 61.8219 650.948 51.5305 650.948 38.8337C650.948 26.1354 633.283 15.8456 611.489 15.8456Z" fill="#DCB000"/>
<path d="M614.468 58.2707V56.7259C614.468 55.766 613.137 54.9904 611.489 54.9904C609.841 54.9904 608.51 55.766 608.51 56.7259V58.2707C598.933 57.7769 590.503 54.9256 584.944 50.7217C581.14 47.8453 578.681 44.3357 578.118 40.5148H580.687C582.332 40.5148 583.663 39.7376 583.663 38.7793C583.663 37.8193 582.332 37.0437 580.687 37.0437H578.134C579.6 27.6898 592.44 20.2253 608.51 19.3952V20.8326C608.51 21.7925 609.841 22.5682 611.489 22.5682C613.137 22.5682 614.468 21.7925 614.468 20.8326V19.3952C621.706 19.769 628.289 21.4888 633.472 24.1209C639.797 27.3327 644.038 31.9029 644.844 37.0437H642.294C640.646 37.0437 639.315 37.8193 639.315 38.7793C639.315 39.7376 640.646 40.5148 642.294 40.5148H644.86C643.477 49.92 630.598 57.439 614.468 58.2707Z" fill="#FFE00F"/>
<path d="M629.226 27.634L611.588 38.4029L611.487 38.3997C611.267 38.3997 611.052 38.4126 610.843 38.4366L596.077 31.9384C595.101 31.5105 593.701 31.6195 592.955 32.1948C592.213 32.7653 592.402 33.5842 593.393 34.0184L608.15 40.5151C608.293 41.515 609.732 42.3035 611.487 42.3035C613.338 42.3035 614.837 41.4285 614.837 40.3516C614.837 40.3003 614.832 40.249 614.823 40.1994L632.461 29.4304C633.311 28.908 633.28 28.0875 632.386 27.5907C631.495 27.0924 630.081 27.1164 629.226 27.634Z" fill="#DCB000"/>
<path d="M196.387 120.172L176.26 117.374L167.044 128.58L138.307 91.1378L167.65 82.7294L196.387 120.172Z" fill="#4F8AD0"/>
<path d="M107.613 120.172L127.738 117.374L136.954 128.58L165.692 91.1374L136.35 82.729L107.613 120.172" fill="#58ADE4"/>
<path d="M154.987 112.866L152.002 108.977L156.842 102.671C158.155 102.602 159.447 102.502 160.729 102.372L154.987 112.866" fill="#417FC7"/>
<path d="M202 72.57C202 89.2559 179.863 102.782 152.555 102.782C125.248 102.782 103.111 89.2559 103.111 72.57C103.111 55.8843 125.248 42.3579 152.555 42.3579C179.863 42.3579 202 55.8843 202 72.57" fill="#8F9295"/>
<path d="M200.89 71.2121C200.89 87.898 178.753 101.425 151.445 101.425C124.137 101.425 102 87.898 102 71.2121C102 54.5264 124.137 41 151.445 41C178.753 41 200.89 54.5264 200.89 71.2121" fill="#C2D1D1"/>
<path d="M188.944 71.2124C188.944 83.8675 172.155 94.1263 151.445 94.1263C130.733 94.1263 113.944 83.8675 113.944 71.2124C113.944 58.5575 130.733 48.2984 151.445 48.2984C172.155 48.2984 188.944 58.5575 188.944 71.2124" fill="#BBBCBD"/>
<path d="M154.136 95.3097L156.402 93.928C173.123 92.579 186.371 84.4981 188.609 74.2862L190.878 72.9028C190.448 85.174 174.228 95.0699 154.136 95.3097V95.3097ZM148.006 95.0801C144.171 94.7436 140.527 94.0527 137.161 93.0637L137.93 92.5938C141.583 93.4563 145.512 93.9793 149.613 94.0996L148.006 95.0801V95.0801ZM151.443 94.1264C151.015 94.1264 150.591 94.1223 150.169 94.1134C150.471 94.1197 150.775 94.1235 151.079 94.1253H151.08C151.099 94.1254 151.118 94.1255 151.139 94.1257C151.139 94.1257 151.141 94.1257 151.142 94.1257C151.159 94.1257 151.18 94.1258 151.197 94.1259C151.199 94.1259 151.201 94.1259 151.202 94.1259C151.221 94.1261 151.24 94.1261 151.257 94.1262C151.259 94.1262 151.262 94.1262 151.262 94.1262C151.281 94.1262 151.298 94.1263 151.317 94.1263C151.319 94.1263 151.321 94.1263 151.324 94.1263C151.343 94.1263 151.36 94.1263 151.381 94.1264C151.381 94.1264 151.383 94.1264 151.384 94.1264C151.403 94.1264 151.424 94.1264 151.443 94.1264C151.444 94.1264 151.444 94.1264 151.444 94.1264C151.443 94.1264 151.443 94.1264 151.443 94.1264V94.1264ZM151.444 94.1264C151.462 94.1264 151.479 94.1264 151.496 94.1264C151.479 94.1264 151.463 94.1264 151.446 94.1264H151.444ZM151.513 94.1264C151.527 94.1263 151.539 94.1263 151.554 94.1263C151.54 94.1263 151.527 94.1263 151.513 94.1264ZM151.583 94.1263C151.592 94.1263 151.601 94.1263 151.609 94.1262C151.601 94.1263 151.592 94.1263 151.583 94.1263ZM151.64 94.1261H151.642H151.64ZM136.263 92.1713C136.262 92.1708 136.26 92.1701 136.256 92.1695C136.26 92.1701 136.262 92.1708 136.263 92.1713ZM136.212 92.1572C136.2 92.1541 136.188 92.151 136.177 92.1478C136.189 92.1511 136.2 92.154 136.212 92.1572ZM136.162 92.1436C134.143 91.5928 132.221 90.9361 130.408 90.1852L130.111 90.3664C129.541 90.0903 128.985 89.8039 128.441 89.5084L128.625 89.3971C130.939 90.4826 133.467 91.4078 136.162 92.1436V92.1436ZM126.137 88.1225C126.069 88.084 126 88.0455 125.931 88.0067L125.93 88.0062C126 88.0452 126.069 88.0838 126.137 88.1225ZM188.904 70.1416C188.716 67.6345 187.868 65.2324 186.464 62.9987L187.236 62.5268C188.85 64.5864 189.972 66.8154 190.516 69.1591L188.904 70.1416V70.1416ZM182.538 58.3991C182.126 58.0265 181.697 57.6619 181.25 57.3054L181.436 57.1925C181.92 57.525 182.387 57.8661 182.838 58.2157L182.538 58.3991" fill="#E5EAE9"/>
<path d="M151.443 94.1265C151.46 94.1265 151.477 94.1265 151.496 94.1265C151.477 94.1265 151.46 94.1265 151.443 94.1265ZM151.383 94.1265C151.382 94.1265 151.38 94.1265 151.38 94.1265C151.38 94.1265 151.382 94.1265 151.383 94.1265ZM151.511 94.1265C151.527 94.1264 151.544 94.1264 151.561 94.1264C151.559 94.1264 151.556 94.1264 151.554 94.1264C151.539 94.1264 151.527 94.1264 151.511 94.1265ZM151.322 94.1264C151.32 94.1264 151.319 94.1264 151.317 94.1263C151.317 94.1264 151.32 94.1264 151.322 94.1264ZM151.574 94.1263C151.586 94.1263 151.602 94.1263 151.614 94.1263C151.612 94.1263 151.61 94.1263 151.608 94.1263C151.6 94.1263 151.591 94.1263 151.583 94.1263C151.579 94.1263 151.576 94.1263 151.574 94.1263ZM151.262 94.1263C151.261 94.1263 151.259 94.1263 151.257 94.1263C151.259 94.1263 151.261 94.1263 151.262 94.1263ZM151.632 94.1262C151.648 94.1262 151.658 94.126 151.672 94.126C151.661 94.126 151.653 94.1262 151.643 94.1262H151.639C151.637 94.1262 151.636 94.1262 151.632 94.1262V94.1262ZM151.201 94.1259C151.201 94.1259 151.198 94.1259 151.196 94.1259C151.199 94.1259 151.201 94.1259 151.201 94.1259ZM151.706 94.1259C151.712 94.1259 151.719 94.1258 151.726 94.1258C151.719 94.1258 151.712 94.1259 151.706 94.1259ZM151.141 94.1257C151.14 94.1257 151.138 94.1257 151.138 94.1257C151.138 94.1257 151.14 94.1257 151.141 94.1257ZM151.08 94.1254H151.078C151.08 94.1254 151.08 94.1254 151.08 94.1254ZM156.4 93.928V93.9277C173.12 92.5781 186.367 84.4971 188.608 74.2869V74.2863C186.37 84.4981 173.123 92.5791 156.4 93.928V93.928ZM136.667 92.2787C136.531 92.2434 136.396 92.2075 136.263 92.1714C136.261 92.1708 136.258 92.1702 136.256 92.1696C136.243 92.1655 136.226 92.1614 136.21 92.1572C136.2 92.1541 136.19 92.1511 136.176 92.148C136.171 92.1465 136.166 92.1451 136.161 92.1437C133.466 91.4079 130.938 90.4827 128.623 89.3971L128.624 89.3967C131.083 90.5505 133.779 91.5219 136.667 92.2787V92.2787ZM127.837 89.0167C127.256 88.7291 126.69 88.4309 126.137 88.1226C126.067 88.0838 125.999 88.0453 125.929 88.0062C125.926 88.0032 125.921 88.0004 125.917 87.9974C126.538 88.35 127.179 88.6902 127.837 89.0167V89.0167ZM188.941 71.459C188.941 71.4575 188.941 71.4539 188.941 71.4523C188.941 71.4545 188.941 71.4568 188.941 71.459ZM188.941 71.4199C188.941 71.4145 188.941 71.4105 188.941 71.4051C188.941 71.41 188.941 71.4149 188.941 71.4199ZM188.942 71.3892C188.942 71.383 188.942 71.3771 188.942 71.371C188.942 71.3771 188.942 71.3831 188.942 71.3892ZM188.942 71.3541C188.942 71.3457 188.942 71.338 188.942 71.3294C188.942 71.3377 188.942 71.3458 188.942 71.3541ZM188.942 71.318C188.942 71.3095 188.942 71.2988 188.942 71.2904C188.942 71.2995 188.942 71.3088 188.942 71.318ZM188.942 71.2858C188.942 71.2748 188.942 71.2647 188.942 71.254C188.942 71.2645 188.942 71.2751 188.942 71.2858ZM188.942 71.2453C188.942 71.2344 188.942 71.2235 188.942 71.2125C188.942 71.2235 188.942 71.2344 188.942 71.2453ZM188.942 71.2125C188.942 71.2012 188.942 71.1902 188.942 71.1788C188.942 71.1901 188.942 71.2014 188.942 71.2125ZM188.903 70.1423C188.714 67.6351 187.867 65.2328 186.462 62.9993V62.9989C187.867 65.2325 188.714 67.6346 188.903 70.1418V70.1423ZM186.169 62.5492C186.167 62.5453 186.164 62.5412 186.162 62.5374C186.164 62.5413 186.167 62.5452 186.169 62.5492ZM186.155 62.5277C184.43 59.9562 181.962 57.6187 178.91 55.6161C178.921 55.6212 178.929 55.6262 178.938 55.6313C179.751 56.1664 180.523 56.7253 181.247 57.3063L181.249 57.3055C181.696 57.6621 182.124 58.0266 182.538 58.3992L182.536 58.3993C183.961 59.6886 185.178 61.0704 186.155 62.5277Z" fill="#E3E4E4"/>
<path d="M117.276 72.5698C117.276 59.915 134.068 49.6559 154.779 49.6559C161.755 49.6559 168.283 50.8213 173.877 52.8487C167.62 49.9899 159.857 48.2984 151.446 48.2984C130.734 48.2984 113.944 58.5571 113.944 71.212C113.944 79.6049 121.329 86.9424 132.346 90.9338C123.198 86.7552 117.276 80.0852 117.276 72.5698" fill="#8F9295"/>
<path d="M107.607 85.2017C105.787 83.0779 104.37 80.8067 103.415 78.4233C104.37 80.8058 105.788 83.0783 107.607 85.2014V85.2017ZM103.415 78.4222C103.414 78.4181 103.413 78.4142 103.41 78.4102C103.411 78.4139 103.414 78.4183 103.415 78.4222Z" fill="#F8F9F9"/>
<path d="M107.607 85.2014C105.788 83.0783 104.37 80.8058 103.415 78.4233C103.415 78.4229 103.415 78.4225 103.415 78.4222C103.414 78.4183 103.412 78.4139 103.41 78.4101C103.255 78.0207 103.112 77.6281 102.982 77.2328L113.959 70.5381C113.949 70.763 113.942 70.9863 113.942 71.2128C113.942 74.1143 114.824 76.8888 116.435 79.4425C116.493 79.5329 116.551 79.6231 116.609 79.7129L107.607 85.2014" fill="#E5EAE9"/>
<path d="M116.608 79.7129C116.551 79.623 116.493 79.5329 116.435 79.4425C116.493 79.5328 116.551 79.6229 116.608 79.7127" fill="#E3E4E4"/>
<path d="M174.425 44.4552C171.103 43.3871 167.56 42.544 163.843 41.9576C167.56 42.543 171.105 43.3861 174.427 44.4542L174.425 44.4552Z" fill="#F8F9F9"/>
<path d="M165.426 49.944C161.982 49.098 158.284 48.555 154.424 48.3694C154.422 48.3694 154.422 48.3694 154.422 48.3694C154.341 48.3655 154.264 48.3615 154.183 48.3585C154.182 48.3585 154.18 48.3585 154.177 48.3576C154.164 48.3576 154.148 48.3566 154.133 48.3566C154.133 48.3556 154.13 48.3556 154.128 48.3556C154.067 48.3536 154.007 48.3506 153.944 48.3487C153.941 48.3477 153.938 48.3477 153.934 48.3477C153.92 48.3477 153.907 48.3467 153.892 48.3457C153.891 48.3457 153.886 48.3457 153.883 48.3457C153.87 48.3457 153.855 48.3447 153.842 48.3437H153.841C153.795 48.3428 153.749 48.3408 153.703 48.3388C153.7 48.3388 153.697 48.3388 153.69 48.3388C153.679 48.3378 153.666 48.3378 153.655 48.3368C153.648 48.3368 153.644 48.3368 153.637 48.3368C153.626 48.3358 153.614 48.3358 153.602 48.3358C153.597 48.3349 153.593 48.3349 153.589 48.3349C153.548 48.3339 153.506 48.3319 153.467 48.3309C153.461 48.3309 153.454 48.3309 153.448 48.3299C153.437 48.3299 153.425 48.3299 153.414 48.3289C153.406 48.3289 153.401 48.3289 153.393 48.3289C153.383 48.3279 153.372 48.3279 153.362 48.3279C153.354 48.327 153.346 48.327 153.338 48.327C153.33 48.327 153.317 48.326 153.307 48.326C153.301 48.326 153.295 48.326 153.288 48.325C153.269 48.325 153.248 48.324 153.228 48.324C153.22 48.323 153.214 48.323 153.206 48.323C153.196 48.323 153.185 48.322 153.175 48.322C153.167 48.322 153.159 48.322 153.151 48.321C153.139 48.321 153.131 48.321 153.122 48.321C153.112 48.32 153.104 48.3201 153.096 48.3201C153.086 48.3201 153.076 48.3191 153.067 48.3191C153.059 48.3191 153.049 48.3191 153.039 48.3181C153.023 48.3181 153.007 48.3181 152.991 48.3171C152.981 48.3171 152.971 48.3171 152.963 48.3171C152.954 48.3161 152.944 48.3161 152.934 48.3161C152.925 48.3161 152.916 48.3151 152.907 48.3151C152.899 48.3151 152.889 48.3151 152.881 48.3151C152.871 48.3141 152.862 48.3141 152.852 48.3141C152.842 48.3141 152.834 48.3131 152.824 48.3131C152.815 48.3131 152.805 48.3131 152.794 48.3131C152.786 48.3122 152.779 48.3122 152.771 48.3122C152.755 48.3122 152.736 48.3112 152.719 48.3112C152.711 48.3112 152.703 48.3112 152.695 48.3102C152.685 48.3102 152.674 48.3102 152.664 48.3102C152.655 48.3102 152.647 48.3102 152.639 48.3092C152.627 48.3092 152.619 48.3092 152.61 48.3092C152.6 48.3092 152.592 48.3082 152.584 48.3082C152.571 48.3082 152.563 48.3082 152.551 48.3082C152.543 48.3082 152.537 48.3072 152.529 48.3072C152.511 48.3072 152.493 48.3072 152.475 48.3062C152.471 48.3062 152.466 48.3062 152.459 48.3062C152.445 48.3062 152.433 48.3062 152.419 48.3062C152.412 48.3052 152.406 48.3052 152.399 48.3052C152.388 48.3052 152.375 48.3052 152.364 48.3052C152.356 48.3052 152.349 48.3043 152.343 48.3043C152.33 48.3043 152.319 48.3043 152.307 48.3043C152.299 48.3043 152.293 48.3043 152.286 48.3043C152.272 48.3033 152.257 48.3033 152.243 48.3033C152.236 48.3033 152.23 48.3033 152.223 48.3033C152.207 48.3023 152.191 48.3023 152.177 48.3023C152.172 48.3023 152.164 48.3023 152.157 48.3023C152.146 48.3023 152.135 48.3023 152.122 48.3023C152.114 48.3013 152.107 48.3013 152.099 48.3013C152.088 48.3013 152.076 48.3013 152.063 48.3013C152.057 48.3013 152.051 48.3013 152.044 48.3013C152.03 48.3013 152.015 48.3003 152 48.3003C151.996 48.3003 151.992 48.3003 151.989 48.3003C151.97 48.3003 151.95 48.3003 151.933 48.3003C151.928 48.3003 151.925 48.3003 151.92 48.3003C151.905 48.3003 151.891 48.2993 151.876 48.2993C151.871 48.2993 151.863 48.2993 151.857 48.2993C151.844 48.2993 151.832 48.2993 151.819 48.2993C151.813 48.2993 151.807 48.2993 151.8 48.2993C151.787 48.2993 151.774 48.2993 151.761 48.2993C151.755 48.2993 151.748 48.2993 151.744 48.2993C151.726 48.2983 151.708 48.2983 151.689 48.2983C151.685 48.2983 151.681 48.2983 151.679 48.2983C151.677 48.2983 151.679 48.2983 151.677 48.2983C151.676 48.2983 151.674 48.2983 151.672 48.2983C151.66 48.2983 151.647 48.2983 151.634 48.2983C151.629 48.2983 151.624 48.2983 151.619 48.2983C151.616 48.2983 151.614 48.2983 151.611 48.2983C151.601 48.2983 151.588 48.2983 151.577 48.2983C151.572 48.2983 151.566 48.2983 151.561 48.2983C151.559 48.2983 151.558 48.2983 151.555 48.2983C151.543 48.2983 151.532 48.2983 151.519 48.2983C151.513 48.2983 151.509 48.2983 151.503 48.2983C151.501 48.2983 151.501 48.2983 151.5 48.2983C151.482 48.2983 151.464 48.2983 151.445 48.2983C151.429 48.2983 151.414 48.2983 151.399 48.2983C151.07 48.2983 150.743 48.3013 150.416 48.3062L161.394 41.6121C162.219 41.7148 163.037 41.8303 163.844 41.9576C167.56 42.544 171.103 43.3871 174.427 44.4542L165.426 49.944" fill="#E5EAE9"/>
<path d="M165.426 49.9435C162.809 49.3009 160.047 48.8337 157.181 48.5648C157.178 48.5648 157.176 48.5638 157.174 48.5638C157.157 48.5629 157.142 48.561 157.126 48.56C157.125 48.5591 157.121 48.5591 157.118 48.5591C157.103 48.5572 157.089 48.5562 157.075 48.5543C157.07 48.5543 157.067 48.5543 157.064 48.5543C157.046 48.5524 157.029 48.5505 157.014 48.5495C157.012 48.5495 157.011 48.5486 157.011 48.5486C156.975 48.5457 156.939 48.5429 156.903 48.5391C156.898 48.5391 156.895 48.5391 156.89 48.5381C156.878 48.5371 156.864 48.5362 156.851 48.5343C156.847 48.5343 156.839 48.5333 156.833 48.5333C156.822 48.5324 156.809 48.5314 156.798 48.5305C156.792 48.5295 156.787 48.5295 156.781 48.5286C156.769 48.5276 156.758 48.5267 156.745 48.5257C156.739 48.5248 156.733 48.5248 156.727 48.5238C156.714 48.5228 156.702 48.5219 156.689 48.5209C156.684 48.52 156.68 48.52 156.675 48.519C156.658 48.5181 156.641 48.5162 156.624 48.5152C156.619 48.5143 156.614 48.5143 156.61 48.5143C156.597 48.5133 156.583 48.5114 156.572 48.5105C156.564 48.5105 156.557 48.5095 156.55 48.5085C156.539 48.5085 156.53 48.5076 156.521 48.5066C156.513 48.5057 156.503 48.5047 156.496 48.5047C156.486 48.5038 156.477 48.5028 156.468 48.5019C156.46 48.5019 156.452 48.5009 156.444 48.5C156.435 48.499 156.424 48.499 156.413 48.4981C156.407 48.4971 156.399 48.4962 156.391 48.4962C156.382 48.4952 156.371 48.4942 156.36 48.4933C156.349 48.4923 156.34 48.4914 156.329 48.4914C156.316 48.4895 156.304 48.4885 156.29 48.4876C156.282 48.4876 156.274 48.4866 156.266 48.4857C156.257 48.4857 156.248 48.4847 156.238 48.4838C156.23 48.4828 156.223 48.4828 156.215 48.4819C156.205 48.4809 156.195 48.4809 156.185 48.4799C156.179 48.479 156.17 48.478 156.162 48.478C156.152 48.4771 156.143 48.4761 156.134 48.4761C156.126 48.4752 156.118 48.4742 156.109 48.4742C156.099 48.4733 156.09 48.4723 156.081 48.4714C156.073 48.4714 156.065 48.4704 156.057 48.4704C156.043 48.4685 156.029 48.4675 156.015 48.4666C156.009 48.4666 156.003 48.4656 155.995 48.4656C155.981 48.4647 155.968 48.4637 155.954 48.4628C155.948 48.4618 155.94 48.4609 155.934 48.4609C155.923 48.4599 155.914 48.459 155.903 48.459C155.895 48.458 155.887 48.4571 155.879 48.4571C155.87 48.4561 155.861 48.4552 155.85 48.4552C155.842 48.4542 155.834 48.4533 155.826 48.4533C155.817 48.4523 155.806 48.4513 155.797 48.4513C155.789 48.4504 155.783 48.4504 155.775 48.4494C155.762 48.4485 155.753 48.4475 155.74 48.4475C155.734 48.4466 155.73 48.4466 155.723 48.4456C155.705 48.4447 155.686 48.4437 155.67 48.4418C155.667 48.4418 155.664 48.4418 155.661 48.4418C155.647 48.4409 155.633 48.4399 155.617 48.4389C155.613 48.438 155.606 48.438 155.6 48.437C155.589 48.437 155.577 48.4361 155.564 48.4351C155.558 48.4342 155.552 48.4342 155.547 48.4342C155.533 48.4332 155.524 48.4323 155.511 48.4313C155.505 48.4313 155.499 48.4304 155.492 48.4304C155.481 48.4294 155.467 48.4285 155.456 48.4275C155.45 48.4275 155.444 48.4275 155.439 48.4265C155.422 48.4256 155.408 48.4246 155.391 48.4237C155.389 48.4237 155.388 48.4237 155.386 48.4237C155.369 48.4227 155.35 48.4208 155.333 48.4199C155.33 48.4199 155.327 48.4199 155.325 48.4199C155.31 48.4189 155.294 48.418 155.279 48.417C155.275 48.4161 155.271 48.4161 155.268 48.4161C155.254 48.4151 155.238 48.4142 155.224 48.4132C155.221 48.4132 155.216 48.4132 155.211 48.4122C155.197 48.4113 155.183 48.4113 155.169 48.4103C155.165 48.4094 155.162 48.4094 155.158 48.4094C155.141 48.4084 155.124 48.4075 155.107 48.4065C155.107 48.4065 155.107 48.4065 155.105 48.4065C155.068 48.4037 155.03 48.4018 154.993 48.3999C154.974 48.3989 154.957 48.398 154.938 48.396C154.937 48.396 154.934 48.396 154.931 48.396C154.915 48.3951 154.899 48.3941 154.884 48.3932C154.881 48.3932 154.879 48.3932 154.876 48.3932C154.859 48.3922 154.842 48.3913 154.826 48.3903C154.825 48.3903 154.823 48.3903 154.821 48.3903C154.746 48.3856 154.673 48.3817 154.597 48.3779H154.595C154.537 48.3751 154.481 48.3722 154.423 48.3693C158.284 48.5553 161.982 49.0978 165.426 49.9435V49.9435ZM154.422 48.3693C154.342 48.3655 154.263 48.3617 154.182 48.3589C154.263 48.3617 154.341 48.3655 154.422 48.3693ZM154.177 48.3579C154.163 48.3579 154.147 48.357 154.133 48.356C154.147 48.357 154.163 48.3579 154.177 48.3579ZM154.129 48.356C154.066 48.3531 154.005 48.3512 153.944 48.3484C154.005 48.3512 154.066 48.3531 154.129 48.356ZM153.934 48.3484C153.919 48.3474 153.907 48.3465 153.893 48.3465C153.907 48.3465 153.919 48.3474 153.934 48.3484ZM153.882 48.3465C153.868 48.3455 153.856 48.3446 153.841 48.3446C153.856 48.3446 153.87 48.3455 153.882 48.3465ZM153.84 48.3446C153.795 48.3426 153.748 48.3407 153.704 48.3388C153.748 48.3407 153.795 48.3426 153.84 48.3446ZM153.69 48.3388C153.679 48.3379 153.667 48.3379 153.654 48.3379C153.667 48.3379 153.679 48.3379 153.69 48.3388ZM153.637 48.3369C153.625 48.336 153.612 48.336 153.601 48.336C153.614 48.336 153.625 48.336 153.637 48.3369ZM153.587 48.335C153.548 48.3341 153.508 48.3322 153.467 48.3312C153.506 48.3322 153.548 48.3341 153.587 48.335ZM153.447 48.3303C153.436 48.3303 153.425 48.3293 153.414 48.3293C153.425 48.3293 153.437 48.3303 153.447 48.3303ZM153.394 48.3283C153.383 48.3283 153.372 48.3283 153.361 48.3274C153.372 48.3283 153.383 48.3283 153.394 48.3283ZM153.337 48.3274C153.328 48.3264 153.317 48.3264 153.308 48.3264C153.317 48.3264 153.33 48.3264 153.337 48.3274ZM153.288 48.3255C153.269 48.3245 153.249 48.3245 153.228 48.3236C153.249 48.3245 153.269 48.3245 153.288 48.3255ZM153.205 48.3236C153.195 48.3226 153.185 48.3226 153.175 48.3226C153.185 48.3226 153.195 48.3226 153.205 48.3236ZM153.15 48.3217C153.139 48.3217 153.131 48.3207 153.121 48.3207C153.131 48.3207 153.139 48.3217 153.15 48.3217ZM153.094 48.3198C153.085 48.3198 153.075 48.3198 153.066 48.3198C153.075 48.3198 153.086 48.3198 153.094 48.3198ZM153.038 48.3188C153.022 48.3179 153.007 48.3179 152.991 48.3179C153.007 48.3179 153.022 48.3179 153.038 48.3188ZM152.963 48.3169C152.954 48.3169 152.943 48.316 152.933 48.316C152.943 48.316 152.954 48.3169 152.963 48.3169ZM152.907 48.315C152.897 48.315 152.89 48.315 152.88 48.315C152.89 48.315 152.897 48.315 152.907 48.315ZM152.852 48.314C152.843 48.314 152.833 48.314 152.824 48.3131C152.833 48.314 152.843 48.314 152.852 48.314ZM152.794 48.3131C152.787 48.3131 152.779 48.3121 152.771 48.3121C152.779 48.3121 152.787 48.3131 152.794 48.3131ZM152.72 48.3112C152.712 48.3112 152.704 48.3112 152.695 48.3112C152.702 48.3112 152.712 48.3112 152.72 48.3112ZM152.663 48.3102C152.654 48.3102 152.646 48.3102 152.638 48.3093C152.646 48.3102 152.654 48.3102 152.663 48.3102ZM152.609 48.3093C152.601 48.3093 152.592 48.3093 152.582 48.3083C152.592 48.3093 152.599 48.3093 152.609 48.3093ZM152.551 48.3083C152.543 48.3083 152.535 48.3074 152.529 48.3074C152.537 48.3074 152.543 48.3083 152.551 48.3083ZM152.476 48.3064C152.47 48.3064 152.464 48.3064 152.459 48.3064C152.465 48.3064 152.47 48.3064 152.476 48.3064ZM152.42 48.3055C152.412 48.3055 152.404 48.3055 152.398 48.3055C152.406 48.3055 152.412 48.3055 152.42 48.3055ZM152.364 48.3055C152.356 48.3045 152.35 48.3045 152.342 48.3045C152.35 48.3045 152.356 48.3045 152.364 48.3055ZM152.308 48.3045C152.301 48.3045 152.292 48.3036 152.286 48.3036C152.294 48.3036 152.3 48.3045 152.308 48.3045ZM152.244 48.3036C152.236 48.3036 152.228 48.3036 152.222 48.3036C152.228 48.3036 152.236 48.3036 152.244 48.3036ZM152.177 48.3026C152.17 48.3026 152.162 48.3026 152.156 48.3026C152.162 48.3026 152.17 48.3026 152.177 48.3026ZM152.12 48.3016C152.114 48.3016 152.106 48.3016 152.099 48.3016C152.106 48.3016 152.113 48.3016 152.12 48.3016ZM152.063 48.3016C152.056 48.3016 152.05 48.3016 152.044 48.3016C152.05 48.3016 152.056 48.3016 152.063 48.3016ZM152 48.3007C151.996 48.3007 151.992 48.3007 151.988 48.3007C151.992 48.3007 151.996 48.3007 152 48.3007ZM151.933 48.2997C151.927 48.2997 151.922 48.2997 151.919 48.2997C151.924 48.2997 151.927 48.2997 151.933 48.2997ZM151.875 48.2997C151.869 48.2997 151.863 48.2997 151.857 48.2997C151.863 48.2997 151.871 48.2997 151.875 48.2997ZM151.819 48.2997C151.813 48.2997 151.807 48.2997 151.8 48.2997C151.807 48.2997 151.813 48.2997 151.819 48.2997ZM151.76 48.2988C151.755 48.2988 151.749 48.2988 151.744 48.2988C151.749 48.2988 151.755 48.2988 151.76 48.2988ZM151.688 48.2988C151.685 48.2988 151.682 48.2988 151.677 48.2988C151.68 48.2988 151.685 48.2988 151.688 48.2988ZM151.634 48.2988C151.63 48.2988 151.626 48.2988 151.623 48.2988C151.621 48.2988 151.619 48.2988 151.619 48.2988C151.624 48.2988 151.629 48.2988 151.634 48.2988V48.2988ZM151.576 48.2988C151.574 48.2988 151.571 48.2988 151.568 48.2988C151.565 48.2988 151.563 48.2988 151.56 48.2988C151.566 48.2988 151.571 48.2988 151.576 48.2988ZM151.518 48.2988C151.516 48.2988 151.513 48.2988 151.51 48.2988C151.509 48.2988 151.506 48.2988 151.502 48.2988C151.509 48.2988 151.512 48.2988 151.518 48.2988Z" fill="#E3E4E4"/>
<path d="M165.424 49.9445C162.809 49.3018 160.047 48.8337 157.181 48.5648C160.047 48.8337 162.809 49.3009 165.426 49.9435L165.424 49.9445ZM157.174 48.5639C157.159 48.5629 157.142 48.561 157.126 48.5601C157.142 48.561 157.157 48.5629 157.174 48.5639ZM157.118 48.5591C157.103 48.5572 157.089 48.5562 157.075 48.5543C157.089 48.5562 157.103 48.5572 157.118 48.5591ZM157.064 48.5543C157.046 48.5524 157.029 48.5505 157.014 48.5496C157.029 48.5505 157.046 48.5524 157.064 48.5543ZM157.011 48.5486C156.975 48.5458 156.939 48.5429 156.903 48.5391C156.939 48.5429 156.975 48.5458 157.011 48.5486ZM156.89 48.5381C156.876 48.5372 156.864 48.5362 156.851 48.5343C156.864 48.5362 156.878 48.5372 156.89 48.5381ZM156.833 48.5334C156.822 48.5324 156.809 48.5315 156.798 48.5305C156.809 48.5315 156.822 48.5324 156.833 48.5334ZM156.781 48.5286C156.769 48.5276 156.758 48.5267 156.745 48.5257C156.758 48.5267 156.769 48.5276 156.781 48.5286ZM156.727 48.5238C156.714 48.5229 156.702 48.5219 156.689 48.521C156.702 48.5219 156.714 48.5229 156.727 48.5238ZM156.675 48.5191C156.656 48.5181 156.641 48.5162 156.624 48.5153C156.641 48.5162 156.658 48.5181 156.675 48.5191ZM156.61 48.5143C156.597 48.5124 156.585 48.5114 156.572 48.5105C156.583 48.5114 156.597 48.5133 156.61 48.5143ZM156.55 48.5086C156.539 48.5086 156.53 48.5076 156.521 48.5067C156.53 48.5076 156.539 48.5086 156.55 48.5086ZM156.496 48.5048C156.486 48.5038 156.477 48.5029 156.468 48.5019C156.477 48.5029 156.486 48.5038 156.496 48.5048ZM156.444 48.5C156.435 48.499 156.424 48.499 156.413 48.4981C156.424 48.499 156.435 48.499 156.444 48.5ZM156.391 48.4962C156.382 48.4952 156.371 48.4943 156.36 48.4933C156.371 48.4943 156.382 48.4952 156.391 48.4962ZM156.329 48.4914C156.316 48.4895 156.304 48.4886 156.29 48.4876C156.304 48.4886 156.316 48.4895 156.329 48.4914ZM156.266 48.4857C156.257 48.4857 156.248 48.4847 156.238 48.4838C156.248 48.4847 156.257 48.4857 156.266 48.4857ZM156.215 48.4819C156.205 48.4809 156.194 48.4809 156.185 48.48C156.194 48.4809 156.205 48.4809 156.215 48.4819ZM156.162 48.4781C156.152 48.4771 156.143 48.4762 156.134 48.4762C156.143 48.4762 156.152 48.4771 156.162 48.4781ZM156.109 48.4742C156.099 48.4733 156.09 48.4723 156.081 48.4714C156.09 48.4723 156.099 48.4733 156.109 48.4742ZM156.057 48.4704C156.043 48.4685 156.029 48.4676 156.015 48.4666C156.029 48.4676 156.043 48.4685 156.057 48.4704ZM155.995 48.4657C155.981 48.4647 155.968 48.4638 155.954 48.4628C155.968 48.4638 155.981 48.4647 155.995 48.4657ZM155.934 48.4609C155.923 48.4599 155.914 48.459 155.903 48.459C155.914 48.459 155.923 48.4599 155.934 48.4609ZM155.879 48.4571C155.87 48.4561 155.861 48.4552 155.85 48.4552C155.861 48.4552 155.87 48.4561 155.879 48.4571ZM155.826 48.4533C155.817 48.4523 155.806 48.4514 155.797 48.4514C155.806 48.4514 155.817 48.4523 155.826 48.4533ZM155.775 48.4495C155.764 48.4485 155.753 48.4476 155.74 48.4476C155.753 48.4476 155.762 48.4485 155.775 48.4495ZM155.723 48.4456C155.705 48.4447 155.687 48.4437 155.67 48.4418C155.686 48.4437 155.705 48.4447 155.723 48.4456ZM155.661 48.4418C155.647 48.4409 155.633 48.4399 155.617 48.439C155.633 48.4399 155.647 48.4409 155.661 48.4418ZM155.6 48.4371C155.589 48.4371 155.577 48.4361 155.564 48.4352C155.577 48.4361 155.589 48.4371 155.6 48.4371ZM155.547 48.4342C155.533 48.4333 155.524 48.4323 155.511 48.4313C155.524 48.4323 155.533 48.4333 155.547 48.4342ZM155.492 48.4304C155.481 48.4294 155.467 48.4285 155.456 48.4275C155.467 48.4285 155.481 48.4294 155.492 48.4304ZM155.439 48.4266C155.422 48.4256 155.408 48.4247 155.391 48.4237C155.408 48.4247 155.422 48.4256 155.439 48.4266ZM155.386 48.4237C155.369 48.4228 155.35 48.4209 155.333 48.4199C155.35 48.4209 155.369 48.4228 155.386 48.4237ZM155.325 48.4199C155.31 48.419 155.294 48.418 155.279 48.417C155.294 48.418 155.31 48.419 155.325 48.4199ZM155.268 48.4161C155.254 48.4151 155.238 48.4142 155.224 48.4132C155.238 48.4142 155.254 48.4151 155.268 48.4161ZM155.211 48.4123C155.197 48.4113 155.183 48.4113 155.169 48.4104C155.183 48.4113 155.197 48.4113 155.211 48.4123ZM155.158 48.4094C155.141 48.4085 155.124 48.4075 155.107 48.4066C155.124 48.4075 155.141 48.4085 155.158 48.4094ZM155.105 48.4066C155.068 48.4037 155.03 48.4018 154.993 48.3999C155.03 48.4018 155.068 48.4037 155.105 48.4066ZM154.993 48.3999C154.974 48.3989 154.957 48.398 154.938 48.3961C154.957 48.398 154.974 48.3989 154.993 48.3999ZM154.931 48.3961C154.915 48.3951 154.899 48.3942 154.884 48.3932C154.899 48.3942 154.915 48.3951 154.931 48.3961ZM154.876 48.3932C154.859 48.3922 154.842 48.3913 154.826 48.3903C154.842 48.3913 154.859 48.3922 154.876 48.3932ZM154.821 48.3903C154.746 48.3856 154.672 48.3818 154.597 48.378C154.673 48.3818 154.746 48.3856 154.821 48.3903ZM154.595 48.378C153.631 48.3293 152.659 48.3026 151.677 48.2988C151.682 48.2988 151.685 48.2988 151.688 48.2988C151.707 48.2988 151.726 48.2988 151.744 48.2988C151.749 48.2988 151.755 48.2988 151.76 48.2988C151.774 48.2988 151.788 48.2988 151.8 48.2998C151.807 48.2998 151.813 48.2998 151.819 48.2998C151.832 48.2998 151.844 48.2998 151.857 48.2998C151.863 48.2998 151.869 48.2998 151.875 48.2998C151.891 48.2998 151.905 48.2998 151.919 48.2998C151.922 48.2998 151.927 48.2998 151.933 48.2998C151.95 48.3007 151.969 48.3007 151.988 48.3007C151.992 48.3007 151.995 48.3007 152 48.3007C152.016 48.3007 152.03 48.3007 152.044 48.3017C152.05 48.3017 152.056 48.3017 152.063 48.3017C152.075 48.3017 152.088 48.3017 152.098 48.3017C152.106 48.3017 152.114 48.3017 152.12 48.3017C152.133 48.3017 152.145 48.3026 152.156 48.3026C152.162 48.3026 152.17 48.3026 152.176 48.3026C152.192 48.3026 152.206 48.3026 152.222 48.3036C152.228 48.3036 152.236 48.3036 152.244 48.3036C152.258 48.3036 152.272 48.3036 152.286 48.3036C152.292 48.3036 152.301 48.3045 152.308 48.3045C152.318 48.3045 152.331 48.3045 152.342 48.3045C152.35 48.3045 152.356 48.3045 152.364 48.3055C152.375 48.3055 152.387 48.3055 152.398 48.3055C152.404 48.3055 152.412 48.3055 152.42 48.3055C152.434 48.3064 152.445 48.3064 152.459 48.3064C152.464 48.3064 152.47 48.3064 152.476 48.3064C152.493 48.3074 152.51 48.3074 152.529 48.3074C152.535 48.3074 152.543 48.3084 152.551 48.3084C152.562 48.3084 152.571 48.3084 152.582 48.3084C152.592 48.3093 152.601 48.3093 152.609 48.3093C152.618 48.3093 152.627 48.3093 152.638 48.3093C152.646 48.3103 152.654 48.3103 152.663 48.3103C152.674 48.3103 152.684 48.3103 152.695 48.3112C152.704 48.3112 152.712 48.3112 152.719 48.3112C152.735 48.3122 152.754 48.3122 152.771 48.3122C152.779 48.3122 152.787 48.3131 152.794 48.3131C152.804 48.3131 152.815 48.3131 152.824 48.3131C152.833 48.3141 152.843 48.3141 152.852 48.3141C152.86 48.3141 152.871 48.315 152.88 48.315C152.89 48.315 152.897 48.315 152.907 48.315C152.916 48.316 152.925 48.316 152.933 48.316C152.943 48.316 152.954 48.3169 152.963 48.3169C152.971 48.3169 152.98 48.3169 152.991 48.3179C153.007 48.3179 153.022 48.3179 153.038 48.3188C153.049 48.3188 153.058 48.3188 153.066 48.3198C153.075 48.3198 153.085 48.3198 153.094 48.3198C153.103 48.3207 153.111 48.3207 153.121 48.3207C153.131 48.3207 153.139 48.3217 153.15 48.3217C153.158 48.3217 153.167 48.3217 153.175 48.3227C153.184 48.3227 153.195 48.3227 153.205 48.3236C153.213 48.3236 153.219 48.3236 153.228 48.3236C153.248 48.3246 153.269 48.3246 153.287 48.3255C153.294 48.3255 153.3 48.3255 153.308 48.3265C153.317 48.3265 153.328 48.3265 153.337 48.3274C153.345 48.3274 153.353 48.3274 153.361 48.3274C153.372 48.3284 153.383 48.3284 153.394 48.3284C153.401 48.3293 153.406 48.3293 153.414 48.3293C153.425 48.3293 153.436 48.3303 153.447 48.3303C153.454 48.3303 153.461 48.3312 153.467 48.3312C153.507 48.3322 153.548 48.3341 153.587 48.335C153.593 48.335 153.596 48.335 153.601 48.336C153.612 48.336 153.625 48.336 153.637 48.337C153.643 48.337 153.648 48.337 153.654 48.3379C153.667 48.3379 153.679 48.3379 153.69 48.3389C153.696 48.3389 153.699 48.3389 153.704 48.3389C153.748 48.3408 153.795 48.3427 153.84 48.3446H153.841C153.855 48.3446 153.868 48.3455 153.882 48.3465C153.887 48.3465 153.89 48.3465 153.893 48.3465C153.907 48.3465 153.919 48.3474 153.933 48.3484C153.938 48.3484 153.94 48.3484 153.944 48.3484C154.005 48.3513 154.066 48.3532 154.129 48.356C154.13 48.356 154.132 48.356 154.133 48.356C154.147 48.357 154.163 48.3579 154.177 48.3579C154.18 48.3579 154.182 48.3579 154.182 48.3589C154.263 48.3617 154.342 48.3656 154.422 48.3694C154.422 48.3694 154.422 48.3694 154.423 48.3694C154.481 48.3722 154.537 48.3751 154.595 48.378V48.378ZM150.415 48.3064C150.742 48.3017 151.069 48.2988 151.399 48.2988C151.069 48.2988 150.742 48.3017 150.415 48.3064ZM151.671 48.2988C151.655 48.2988 151.64 48.2988 151.623 48.2988C151.626 48.2988 151.63 48.2988 151.633 48.2988C151.646 48.2988 151.658 48.2988 151.671 48.2988ZM151.612 48.2988C151.598 48.2988 151.582 48.2988 151.568 48.2988C151.571 48.2988 151.574 48.2988 151.576 48.2988C151.588 48.2988 151.601 48.2988 151.612 48.2988ZM151.554 48.2988C151.54 48.2988 151.526 48.2988 151.51 48.2988C151.513 48.2988 151.516 48.2988 151.518 48.2988C151.53 48.2988 151.543 48.2988 151.554 48.2988ZM151.499 48.2988C151.481 48.2979 151.462 48.2979 151.443 48.2979C151.445 48.2979 151.445 48.2979 151.445 48.2979C151.463 48.2979 151.481 48.2979 151.499 48.2988Z" fill="#D7D7D7"/>
<path d="M120.111 94.5862C119.303 94.1812 118.517 93.7608 117.754 93.326C118.517 93.7602 119.306 94.1815 120.113 94.5862H120.111" fill="#D7D7D7"/>
<path d="M120.111 94.5864C119.305 94.1818 118.517 93.7605 117.753 93.3263C116.99 92.8919 116.251 92.4433 115.536 91.981L123.992 86.8245C124.615 87.2326 125.261 87.6272 125.931 88.0068C126.728 88.531 127.567 89.0318 128.44 89.5084L120.111 94.5864Z" fill="#E5EAE9"/>
<path d="M128.625 89.3966C128.359 89.2721 128.096 89.1454 127.838 89.0167C128.098 89.1453 128.359 89.2718 128.625 89.396V89.3966Z" fill="#E3E4E4"/>
<path d="M128.442 89.5079C127.568 89.0313 126.731 88.5305 125.933 88.0064C126.001 88.0451 126.069 88.0836 126.139 88.1221C126.937 88.5681 127.767 88.9936 128.625 89.3966L128.442 89.5079" fill="#F0F2F2"/>
<path d="M128.624 89.3971C127.766 88.994 126.935 88.5686 126.137 88.1226C126.69 88.4309 127.256 88.7291 127.838 89.0167C128.097 89.1454 128.359 89.2721 128.625 89.3966L128.624 89.3971" fill="#EFF0EF"/>
<path d="M181.436 57.1924C180.646 56.65 179.817 56.1306 178.948 55.6362C178.338 55.2342 177.705 54.8458 177.051 54.4713L185.507 49.3134C187.018 50.191 188.44 51.128 189.76 52.1158L181.436 57.1924" fill="#E5EAE9"/>
<path d="M178.947 55.6365C178.944 55.6347 178.94 55.6331 178.939 55.6313C178.331 55.2315 177.7 54.8449 177.047 54.4721L177.049 54.4717C177.705 54.8461 178.337 55.2344 178.947 55.6365" fill="#E3E4E4"/>
<path d="M181.249 57.3055C180.524 56.7269 179.756 56.1699 178.947 55.6365C179.816 56.1309 180.645 56.6502 181.435 57.1926L181.249 57.3055" fill="#F0F2F2"/>
<path d="M181.249 57.306C180.524 56.725 179.752 56.1662 178.94 55.631C178.941 55.6327 178.945 55.6344 178.948 55.6362C179.757 56.1695 180.526 56.7266 181.25 57.3052L181.249 57.306Z" fill="#EFF0EF"/>
<path d="M128.89 98.1064C126.41 97.3272 124.051 96.426 121.837 95.4125V95.4117C124.054 96.4253 126.411 97.3272 128.891 98.1056L128.89 98.1064Z" fill="#D7D7D7"/>
<path d="M128.89 98.106C126.41 97.3275 124.052 96.4256 121.836 95.4121L130.112 90.3665C132.278 91.4167 134.642 92.3238 137.16 93.0638L128.89 98.106V98.106ZM137.93 92.5938C137.835 92.5712 137.738 92.5483 137.643 92.5251C137.738 92.5482 137.835 92.5713 137.93 92.5938Z" fill="#E5EAE9"/>
<path d="M137.931 92.5938C137.836 92.5712 137.739 92.5481 137.644 92.525C137.316 92.4456 136.99 92.3635 136.667 92.2786C137.085 92.3881 137.506 92.4931 137.932 92.5936L137.931 92.5938" fill="#E3E4E4"/>
<path d="M137.16 93.0637C134.641 92.3238 132.278 91.4166 130.111 90.3664L130.408 90.1852C132.22 90.9361 134.143 91.5928 136.161 92.1436C136.167 92.1452 136.171 92.1463 136.176 92.1479C136.188 92.151 136.199 92.1542 136.211 92.1572C136.226 92.1614 136.242 92.1655 136.256 92.1696C136.258 92.1702 136.261 92.1707 136.263 92.1713C136.718 92.2946 137.178 92.4128 137.643 92.5251C137.738 92.5482 137.835 92.5712 137.93 92.5938L137.16 93.0637" fill="#F0F2F2"/>
<path d="M137.645 92.5247C137.181 92.4124 136.719 92.2941 136.265 92.1709C136.398 92.2071 136.533 92.2429 136.668 92.2782C136.992 92.363 137.317 92.4452 137.645 92.5247V92.5247ZM136.258 92.1691C136.244 92.1651 136.228 92.161 136.213 92.1568C136.228 92.161 136.244 92.1651 136.258 92.1691ZM136.178 92.1475C136.173 92.146 136.169 92.1447 136.162 92.1432C136.167 92.1447 136.173 92.146 136.178 92.1475Z" fill="#EFF0EF"/>
<path d="M194.547 56.3994C193.528 55.2938 192.398 54.2317 191.165 53.2181C192.399 54.2311 193.528 55.2935 194.547 56.3994Z" fill="#F8F9F9"/>
<path d="M187.238 62.5267C186.032 60.9868 184.552 59.5416 182.839 58.2155L191.11 53.1716C191.129 53.1869 191.148 53.2024 191.165 53.2179C192.399 54.2315 193.528 55.2936 194.547 56.3993C194.877 56.757 195.194 57.1192 195.502 57.4859L187.238 62.5267Z" fill="#E5EAE9"/>
<path d="M186.463 62.9988C186.368 62.848 186.272 62.6979 186.17 62.5485C186.272 62.6976 186.368 62.8481 186.463 62.9987V62.9988ZM186.164 62.5368C186.162 62.5336 186.159 62.5303 186.157 62.527C186.159 62.5306 186.16 62.5333 186.164 62.5368Z" fill="#E3E4E4"/>
<path d="M186.463 62.9985C185.438 61.3677 184.115 59.8255 182.539 58.3988L182.839 58.2155C184.553 59.5416 186.031 60.9868 187.237 62.5267L186.463 62.9985Z" fill="#F0F2F2"/>
<path d="M186.461 62.9992C186.368 62.8485 186.27 62.6981 186.169 62.5491C186.167 62.5451 186.164 62.5412 186.162 62.5373C186.159 62.5338 186.157 62.5311 186.155 62.5276C185.179 61.0703 183.963 59.6886 182.537 58.3992L182.538 58.3991C184.115 59.8258 185.437 61.3679 186.463 62.9989L186.461 62.9993" fill="#EFF0EF"/>
<path d="M144.582 101.136C142.735 100.98 140.92 100.761 139.144 100.483C140.92 100.76 142.737 100.98 144.582 101.136Z" fill="#D7D7D7"/>
<path d="M144.583 101.136C142.737 100.98 140.922 100.76 139.146 100.483L148.006 95.0798C149.764 95.2347 151.56 95.3141 153.389 95.3141C153.638 95.3141 153.887 95.3125 154.136 95.3094L144.583 101.136ZM150.17 94.1131C149.985 94.1093 149.8 94.1048 149.614 94.0992H149.615C149.785 94.1041 149.955 94.1085 150.125 94.1121C150.14 94.1124 150.156 94.1127 150.17 94.1131" fill="#E5EAE9"/>
<path d="M151.497 94.1262C151.501 94.1262 151.506 94.1262 151.512 94.1262C151.506 94.1262 151.501 94.1262 151.497 94.1262ZM151.562 94.1261C151.566 94.1261 151.571 94.126 151.575 94.126C151.569 94.126 151.568 94.1261 151.562 94.1261ZM151.614 94.1259C151.62 94.1259 151.628 94.1259 151.634 94.1259C151.628 94.1259 151.62 94.1259 151.614 94.1259ZM151.673 94.1259C151.684 94.1258 151.696 94.1258 151.708 94.1257C151.697 94.1258 151.684 94.1258 151.673 94.1259ZM151.727 94.1256C153.309 94.1184 154.87 94.0509 156.402 93.9275C154.87 94.0514 153.309 94.1184 151.727 94.1256ZM150.124 94.1122C149.954 94.1087 149.784 94.1043 149.614 94.0994V94.0988C149.784 94.1042 149.954 94.1086 150.124 94.1122Z" fill="#E3E4E4"/>
<path d="M153.387 95.3143C151.559 95.3143 149.765 95.2349 148.007 95.08L149.614 94.0994C149.799 94.1049 149.984 94.1095 150.169 94.1133C150.591 94.1221 151.017 94.1263 151.443 94.1263C151.444 94.1263 151.444 94.1263 151.444 94.1263C151.462 94.1263 151.479 94.1263 151.497 94.1263C151.5 94.1263 151.509 94.1263 151.513 94.1263C151.527 94.1262 151.541 94.1262 151.554 94.1262C151.565 94.1262 151.574 94.1261 151.584 94.1261C151.593 94.1261 151.601 94.1261 151.61 94.126C151.62 94.126 151.629 94.126 151.64 94.1259C151.64 94.1259 151.641 94.1259 151.643 94.1259C153.255 94.1209 154.844 94.0535 156.402 93.9279L154.135 95.3096C153.885 95.3128 153.637 95.3143 153.387 95.3143" fill="#F0F2F2"/>
<path d="M151.444 94.1262C151.444 94.1262 151.444 94.1262 151.446 94.1262C151.444 94.1262 151.444 94.1262 151.444 94.1262ZM151.497 94.1262C151.501 94.1262 151.506 94.1262 151.512 94.1262H151.513C151.509 94.1262 151.5 94.1262 151.497 94.1262ZM151.554 94.1261C151.557 94.1261 151.558 94.1261 151.561 94.1261C151.568 94.1261 151.569 94.126 151.575 94.126C151.577 94.126 151.581 94.126 151.584 94.126C151.574 94.126 151.565 94.1261 151.554 94.1261ZM151.61 94.1259C151.611 94.1259 151.611 94.1259 151.614 94.1259C151.62 94.1259 151.628 94.1259 151.634 94.1259C151.637 94.1259 151.638 94.1259 151.64 94.1259C151.629 94.1259 151.62 94.1259 151.61 94.1259V94.1259ZM151.643 94.1259C151.653 94.1259 151.662 94.1259 151.673 94.1259C151.683 94.1258 151.697 94.1258 151.707 94.1257C151.713 94.1257 151.72 94.1256 151.727 94.1256C153.309 94.1184 154.87 94.0514 156.402 93.9278V93.9279C154.844 94.0535 153.255 94.1209 151.643 94.1259" fill="#EFF0EF"/>
<path d="M190.878 72.9027C190.884 72.736 190.887 72.5683 190.887 72.4007C190.887 71.3004 190.759 70.218 190.515 69.159L199.371 63.7579C199.821 64.8425 200.177 65.9509 200.427 67.0796V67.0812L190.878 72.9027" fill="#E5EAE9"/>
<path d="M188.606 74.2882C188.811 73.3625 188.924 72.4182 188.941 71.459C188.924 72.4176 188.811 73.3601 188.608 74.287L188.606 74.2882ZM188.941 71.4524C188.941 71.4415 188.941 71.4307 188.941 71.42C188.941 71.4307 188.941 71.4415 188.941 71.4524ZM188.941 71.4052C188.941 71.3999 188.941 71.3944 188.942 71.3892C188.941 71.3945 188.941 71.3997 188.941 71.4052ZM188.942 71.371C188.942 71.3654 188.942 71.3598 188.942 71.3541C188.942 71.3595 188.942 71.3656 188.942 71.371ZM188.942 71.3294C188.942 71.3256 188.942 71.3217 188.942 71.318C188.942 71.3218 188.942 71.3256 188.942 71.3294ZM188.942 71.2904C188.942 71.2889 188.942 71.2873 188.942 71.2858C188.942 71.2873 188.942 71.2888 188.942 71.2904ZM188.942 71.254C188.942 71.2511 188.942 71.2482 188.942 71.2453C188.942 71.2484 188.942 71.251 188.942 71.254ZM188.942 71.1788C188.942 70.8322 188.929 70.4871 188.901 70.1435L188.903 70.1423C188.929 70.486 188.942 70.8315 188.942 71.1788" fill="#E3E4E4"/>
<path d="M188.609 74.2864C188.829 73.2813 188.944 72.2547 188.944 71.2127C188.944 70.8536 188.93 70.4971 188.904 70.1419L190.514 69.1593C190.76 70.2182 190.887 71.3006 190.887 72.4009C190.887 72.5684 190.885 72.7362 190.878 72.903L188.609 74.2864Z" fill="#F0F2F2"/>
<path d="M188.608 74.2867C188.811 73.3599 188.925 72.4173 188.941 71.4588C188.941 71.4566 188.941 71.4543 188.941 71.4521C188.941 71.4413 188.941 71.4304 188.941 71.4197C188.941 71.4147 188.941 71.4098 188.941 71.4048C188.941 71.3994 188.941 71.3943 188.943 71.389C188.943 71.3828 188.943 71.3768 188.943 71.3708C188.943 71.3652 188.943 71.3592 188.943 71.3539C188.943 71.3456 188.943 71.3374 188.943 71.3292C188.943 71.3254 188.943 71.3216 188.943 71.3177C188.943 71.3085 188.943 71.2993 188.943 71.2901C188.943 71.2886 188.943 71.2869 188.943 71.2855C188.943 71.2748 188.943 71.2643 188.943 71.2538C188.943 71.2508 188.943 71.2481 188.943 71.2449C188.943 71.2341 188.943 71.2233 188.943 71.2123C188.943 71.2011 188.943 71.1897 188.943 71.1786C188.943 70.8311 188.929 70.4857 188.903 70.1421L188.905 70.1416C188.931 70.4968 188.944 70.8532 188.944 71.2123C188.944 72.2543 188.83 73.281 188.61 74.2861L188.608 74.2867Z" fill="#EFF0EF"/>
<path d="M170.286 80.8712L169.582 85.9642H138.202V81.0022C139.221 80.5279 140.909 79.785 143.257 78.7739C148.998 76.2776 153.177 74.221 155.791 72.6042C158.406 70.9877 159.713 69.5053 159.713 68.1572C159.713 67.1713 159.193 66.3567 158.151 65.7137C157.11 65.0707 155.71 64.7494 153.953 64.7494C149.868 64.7494 147.497 66.3783 146.845 69.6365L138.202 68.4569C140.142 62.8272 145.525 60.0121 154.351 60.0121C159.295 60.0121 163.089 60.8049 165.735 62.3899C168.381 63.9756 169.702 65.8667 169.702 68.0635C169.702 70.3357 168.319 72.3639 165.552 74.149C162.783 75.9343 157.692 78.1749 150.275 80.8712H170.286" fill="#8F9295"/>
<path d="M168.042 79.7743L167.337 84.8674H135.956V79.9053C136.979 79.431 138.665 78.6881 141.015 77.677C146.753 75.1807 150.932 73.1241 153.548 71.5073C156.161 69.8908 157.47 68.4085 157.47 67.0604C157.47 66.0744 156.948 65.2598 155.908 64.6169C154.866 63.9739 153.464 63.6525 151.708 63.6525C147.622 63.6525 145.253 65.2815 144.6 68.5397L135.956 67.36C137.897 61.7304 143.282 58.9152 152.107 58.9152C157.052 58.9152 160.845 59.7081 163.49 61.2931C166.136 62.8788 167.46 64.7697 167.46 66.9667C167.46 69.2388 166.076 71.2671 163.307 73.0521C160.539 74.8374 155.447 77.0779 148.03 79.7743H168.042" fill="#C2D1D1"/>
<path d="M136.698 67.4622L135.959 67.3607C135.959 67.3607 135.959 67.3607 135.959 67.3598L136.701 67.4613L136.698 67.4622Z" fill="#E3E4E4"/>
<path d="M136.699 67.4618L135.957 67.3605C137.789 62.0446 142.694 59.2361 150.669 58.9433L136.699 67.4618" fill="#E5EAE9"/>
<path d="M152.075 72.3719C152.61 72.0709 153.101 71.7827 153.544 71.5072C156.161 69.8921 157.467 68.4086 157.467 67.0595C157.467 66.851 157.445 66.6481 157.395 66.4561L157.398 66.4543C157.445 66.6487 157.47 66.8507 157.47 67.0606C157.47 68.4086 156.161 69.891 153.547 71.5073C153.103 71.7828 152.61 72.0709 152.075 72.3719" fill="#E3E4E4"/>
<path d="M167.165 65.236C167.165 65.2358 167.165 65.2354 167.165 65.2352C167.165 65.2354 167.165 65.2358 167.165 65.236ZM167.16 65.2212C167.158 65.2183 167.157 65.2157 167.157 65.2127C167.157 65.2156 167.158 65.2184 167.16 65.2212ZM167.154 65.208C167.154 65.2046 167.152 65.201 167.151 65.1976C167.152 65.201 167.154 65.2046 167.154 65.208ZM167.151 65.1967C167.069 64.9754 166.973 64.7577 166.862 64.5436C166.973 64.7577 167.069 64.9754 167.151 65.1967ZM166.862 64.5431C166.86 64.5401 166.857 64.5372 166.855 64.5341C166.857 64.5372 166.86 64.5402 166.862 64.5431ZM166.852 64.527C166.851 64.5254 166.851 64.5237 166.849 64.522C166.851 64.5237 166.851 64.5254 166.852 64.527Z" fill="#D7D7D7"/>
<path d="M136.054 84.8662H135.959V79.9057C136.976 79.4315 138.665 78.6884 141.017 77.6764C145.78 75.606 149.467 73.8377 152.076 72.3714C152.611 72.0704 153.103 71.7823 153.548 71.5069C156.162 69.8905 157.471 68.4081 157.471 67.06C157.471 66.8502 157.446 66.6481 157.399 66.4538L164.623 62.0519C165.637 62.8125 166.38 63.6358 166.849 64.522C166.85 64.5236 166.85 64.5252 166.852 64.527C166.854 64.5293 166.855 64.5317 166.857 64.5341C166.857 64.5372 166.86 64.54 166.861 64.543C166.861 64.5432 166.861 64.5434 166.861 64.5436C166.973 64.7576 167.069 64.9753 167.151 65.1966C167.151 65.1969 167.151 65.1972 167.151 65.1975C167.152 65.2009 167.154 65.2045 167.154 65.2079C167.155 65.2096 167.155 65.2112 167.157 65.2126C167.157 65.2156 167.158 65.2182 167.16 65.2211C167.162 65.2257 167.163 65.2304 167.165 65.2351C167.165 65.2353 167.165 65.2357 167.165 65.2359C167.231 65.4196 167.284 65.6059 167.328 65.7947L136.054 84.8662Z" fill="#E5EAE9"/>
<path d="M148.097 79.7506C152.87 78.0138 156.675 76.4663 159.517 75.1083C156.677 76.467 152.871 78.014 148.097 79.7506ZM164.572 72.1437V72.1434C164.572 72.1436 164.572 72.1436 164.572 72.1437ZM164.573 72.1424C166.275 70.7662 167.225 69.2576 167.421 67.6166L167.423 67.6161C167.228 69.2587 166.278 70.7678 164.573 72.1424" fill="#D7D7D7"/>
<path d="M150.602 84.8665H139.126L167.423 67.616C167.225 69.2576 166.275 70.7662 164.573 72.1423C164.573 72.1426 164.573 72.1431 164.572 72.1434V72.1437C164.188 72.4529 163.765 72.7551 163.306 73.0507C162.331 73.6804 161.068 74.3662 159.517 75.1082C156.675 76.4662 152.87 78.0138 148.097 79.7506C148.075 79.7585 148.053 79.7666 148.031 79.7745H158.954L150.602 84.8665" fill="#E5EAE9"/>
<path d="M167.336 84.8667H164.755L167.574 83.1475L167.336 84.8667Z" fill="#E5EAE9"/>
</svg>
