<svg width="1000" height="200" viewBox="0 0 1000 200" fill="none" xmlns="http://www.w3.org/2000/svg">
<path fill-rule="evenodd" clip-rule="evenodd" d="M26.8839 7.62085H978.936C990.577 7.62085 1000 14.2254 1000 22.3541V185.267C1000 193.395 990.577 200 978.936 200H26.8839C15.2431 200 5.81958 193.395 5.81958 185.267V22.3541C5.81958 14.2254 15.2431 7.62085 26.8839 7.62085Z" fill="black" fill-opacity="0.101961"/>
<path fill-rule="evenodd" clip-rule="evenodd" d="M21.0643 3.04822H973.116C984.757 3.04822 994.181 9.65278 994.181 17.7815V180.694C994.181 188.823 984.757 195.427 973.116 195.427H21.0643C9.42351 195.427 0 188.823 0 180.694V17.7815C0 9.65278 9.42351 3.04822 21.0643 3.04822Z" fill="#E6E6E6"/>
<path fill-rule="evenodd" clip-rule="evenodd" d="M21.0643 0H973.116C984.757 0 994.181 6.60456 994.181 14.7333V177.646C994.181 185.775 984.757 192.379 973.116 192.379H21.0643C9.42351 192.379 0 185.775 0 177.646V14.7333C0 6.60456 9.42351 0 21.0643 0Z" fill="white"/>
<path fill-rule="evenodd" clip-rule="evenodd" d="M34.0918 9.82263H962.862C973.672 9.82263 982.541 16.0885 982.541 23.7091V169.856C982.541 177.477 973.672 183.743 962.862 183.743H34.0918C23.2825 183.743 14.4133 177.477 14.4133 169.856V23.7091C14.4133 16.0885 23.2825 9.82263 34.0918 9.82263Z" fill="#E6E6E6"/>
<path fill-rule="evenodd" clip-rule="evenodd" d="M29.6561 7.95886H958.981C969.79 7.95886 978.382 14.2247 978.382 21.8454V165.96C978.382 173.581 969.79 179.847 958.981 179.847H29.6561C18.8467 179.847 9.97754 173.581 9.97754 165.96V21.8454C9.97754 14.2247 18.8467 7.95886 29.6561 7.95886Z" fill="#F1C383"/>
<path fill-rule="evenodd" clip-rule="evenodd" d="M29.3789 4.4032H954.823C965.356 4.4032 974.225 10.4997 974.225 17.951V158.171C974.225 165.622 965.356 171.719 954.823 171.719H29.3789C18.5696 171.719 9.97754 165.622 9.97754 158.171V17.951C9.97754 10.4997 18.5696 4.4032 29.3789 4.4032Z" fill="#FAEECC"/>
<path fill-rule="evenodd" clip-rule="evenodd" d="M32.4274 6.26575C338.692 6.26575 645.233 6.26575 951.774 6.26575C962.306 6.26575 970.621 12.1929 970.621 19.6442C970.621 65.1988 970.621 110.753 970.621 156.477C970.621 163.759 962.029 169.856 951.774 169.856C645.233 169.856 338.692 169.856 32.4274 169.856C21.8952 169.856 13.3032 163.759 13.3032 156.477C13.3032 110.753 13.3032 65.1988 13.3032 19.6442C13.3032 12.1929 21.8952 6.26575 32.4274 6.26575Z" fill="#FAEDC9"/>
<path fill-rule="evenodd" clip-rule="evenodd" d="M35.4762 7.95886C339.8 7.95886 644.124 7.95886 948.448 7.95886C958.98 7.95886 967.295 13.886 967.295 21.168C967.295 65.7065 967.295 110.245 967.295 154.783C967.295 162.065 958.98 167.993 948.448 167.993C644.124 167.993 339.8 167.993 35.4762 167.993C25.2212 167.993 16.6292 162.065 16.6292 154.783C16.6292 110.245 16.6292 65.7065 16.6292 21.168C16.6292 13.886 25.2212 7.95886 35.4762 7.95886Z" fill="#F9ECC6"/>
<path fill-rule="evenodd" clip-rule="evenodd" d="M38.5247 9.82263C340.909 9.82263 643.292 9.82263 945.399 9.82263C955.654 9.82263 963.969 15.7498 963.969 22.8624C963.969 66.3848 963.969 109.738 963.969 153.091C963.969 160.373 955.654 166.3 945.399 166.3C643.292 166.3 340.909 166.3 38.5247 166.3C28.2697 166.3 19.9548 160.373 19.9548 153.091C19.9548 109.738 19.9548 66.3848 19.9548 22.8624C19.9548 15.7498 28.2697 9.82263 38.5247 9.82263Z" fill="#F9EBC2"/>
<path fill-rule="evenodd" clip-rule="evenodd" d="M41.8506 11.6851C342.017 11.6851 642.184 11.6851 942.35 11.6851C952.328 11.6851 960.643 17.4429 960.643 24.5555C960.643 66.8924 960.643 109.229 960.643 151.566C960.643 158.679 952.328 164.437 942.35 164.437C642.184 164.437 342.017 164.437 41.8506 164.437C31.5956 164.437 23.2808 158.679 23.2808 151.566C23.2808 109.229 23.2808 66.8924 23.2808 24.5555C23.2808 17.4429 31.5956 11.6851 41.8506 11.6851Z" fill="#F8EABF"/>
<path fill-rule="evenodd" clip-rule="evenodd" d="M44.8996 13.3782C342.849 13.3782 641.075 13.3782 939.302 13.3782C949.28 13.3782 957.317 19.136 957.317 26.0793C957.317 67.4001 957.317 108.721 957.317 149.872C957.317 156.816 949.28 162.574 939.302 162.574C641.075 162.574 342.849 162.574 44.8996 162.574C34.9218 162.574 26.6069 156.816 26.6069 149.872C26.6069 108.721 26.6069 67.4001 26.6069 26.0793C26.6069 19.136 34.9218 13.3782 44.8996 13.3782Z" fill="#F8E9BC"/>
<path fill-rule="evenodd" clip-rule="evenodd" d="M47.9479 15.2419C343.957 15.2419 639.966 15.2419 935.975 15.2419C945.953 15.2419 953.991 20.8304 953.991 27.7737C953.991 67.9091 953.991 108.045 953.991 148.18C953.991 155.123 945.953 160.881 935.975 160.881C639.966 160.881 343.957 160.881 47.9479 160.881C38.2472 160.881 29.9324 155.123 29.9324 148.18C29.9324 108.045 29.9324 67.9091 29.9324 27.7737C29.9324 20.8304 37.9701 15.2419 47.9479 15.2419Z" fill="#F7E8B9"/>
<path fill-rule="evenodd" clip-rule="evenodd" d="M50.9971 17.1045C345.066 17.1045 639.135 17.1045 932.927 17.1045C942.628 17.1045 950.665 22.693 950.665 29.4669C950.665 68.4169 950.665 107.536 950.665 146.656C950.665 153.429 942.628 159.018 932.927 159.018C639.135 159.018 345.066 159.018 50.9971 159.018C41.2964 159.018 33.5359 153.429 33.5359 146.656C33.5359 107.536 33.5359 68.4169 33.5359 29.4669C33.5359 22.693 41.2964 17.1045 50.9971 17.1045Z" fill="#F7E7B6"/>
<path fill-rule="evenodd" clip-rule="evenodd" d="M54.3228 18.7975C346.175 18.7975 638.026 18.7975 929.878 18.7975C939.301 18.7975 947.339 24.386 947.339 31.1599C947.339 69.0938 947.339 107.028 947.339 144.962C947.339 151.735 939.301 157.155 929.878 157.155C638.026 157.155 346.175 157.155 54.3228 157.155C44.6221 157.155 36.8616 151.735 36.8616 144.962C36.8616 107.028 36.8616 69.0938 36.8616 31.1599C36.8616 24.386 44.6221 18.7975 54.3228 18.7975Z" fill="#F6E6B3"/>
<path fill-rule="evenodd" clip-rule="evenodd" d="M57.3716 20.66C347.006 20.66 636.918 20.66 926.829 20.66C936.253 20.66 944.013 26.0792 944.013 32.6837C944.013 69.6015 944.013 106.519 944.013 143.268C944.013 150.042 936.253 155.461 926.829 155.461C636.918 155.461 347.006 155.461 57.3716 155.461C47.948 155.461 40.1875 150.042 40.1875 143.268C40.1875 106.519 40.1875 69.6015 40.1875 32.6837C40.1875 26.0792 47.948 20.66 57.3716 20.66Z" fill="#F6E5AF"/>
<path fill-rule="evenodd" clip-rule="evenodd" d="M60.4201 22.5227C348.114 22.5227 635.809 22.5227 923.503 22.5227C932.926 22.5227 940.687 27.7725 940.687 34.377C940.687 70.1094 940.687 105.842 940.687 141.744C940.687 148.179 932.926 153.598 923.503 153.598C635.809 153.598 348.114 153.598 60.4201 153.598C50.9966 153.598 43.5132 148.179 43.5132 141.744C43.5132 105.842 43.5132 70.1094 43.5132 34.377C43.5132 27.7725 50.9966 22.5227 60.4201 22.5227Z" fill="#F5E4AC"/>
<path fill-rule="evenodd" clip-rule="evenodd" d="M63.4688 24.2169H920.454C929.601 24.2169 937.361 29.4667 937.361 36.0713V140.051C937.361 146.486 929.601 151.736 920.454 151.736H63.4688C54.3225 151.736 46.8391 146.486 46.8391 140.051V36.0713C46.8391 29.4667 54.3225 24.2169 63.4688 24.2169Z" fill="#F5E3A9"/>
<path fill-rule="evenodd" clip-rule="evenodd" d="M954.546 149.196C960.367 149.196 965.078 152.583 965.078 156.647C965.078 160.881 960.367 164.098 954.546 164.098C948.726 164.098 944.014 160.881 944.014 156.647C944.014 152.583 948.726 149.196 954.546 149.196Z" fill="white"/>
<path fill-rule="evenodd" clip-rule="evenodd" d="M938.193 156.816C941.519 156.816 944.013 158.678 944.013 160.88C944.013 163.081 941.519 164.944 938.193 164.944C935.144 164.944 932.649 163.081 932.649 160.88C932.649 158.678 935.144 156.816 938.193 156.816Z" fill="white"/>
<path fill-rule="evenodd" clip-rule="evenodd" d="M30.7659 7.79053C39.9122 7.79053 47.1185 13.0403 47.1185 19.3062C47.1185 25.7414 39.9122 30.8218 30.7659 30.8218C21.6195 30.8218 14.4133 25.7414 14.4133 19.3062C14.4133 13.0403 21.6195 7.79053 30.7659 7.79053Z" fill="white"/>
<path fill-rule="evenodd" clip-rule="evenodd" d="M55.9855 6.43542C60.9744 6.43542 65.1318 9.31434 65.1318 12.8706C65.1318 16.2576 60.9744 19.1365 55.9855 19.1365C50.9965 19.1365 46.8391 16.2576 46.8391 12.8706C46.8391 9.31434 50.9965 6.43542 55.9855 6.43542Z" fill="white"/>
<path fill-rule="evenodd" clip-rule="evenodd" d="M61.5304 18.6281H242.517C255.267 18.6281 265.799 25.402 265.799 33.7V142.76C265.799 151.058 255.267 158.001 242.517 158.001H61.5304C48.5038 158.001 38.2488 151.227 38.2488 142.76V33.7C38.2488 25.402 48.5038 18.6281 61.5304 18.6281Z" fill="#EFB469"/>
<path fill-rule="evenodd" clip-rule="evenodd" d="M70.1215 25.7405H233.647C246.119 25.7405 256.097 32.345 256.097 40.4737V140.728C256.097 148.687 246.119 155.292 233.647 155.292H70.1215C57.6492 155.292 47.6714 148.687 47.6714 140.728V40.4737C47.6714 32.345 57.6492 25.7405 70.1215 25.7405Z" fill="#F1C383"/>
<path fill-rule="evenodd" clip-rule="evenodd" d="M71.2313 28.619C125.001 28.619 178.77 28.619 232.817 28.619C245.012 28.619 254.99 35.0542 254.99 43.0136C254.99 75.5283 254.99 108.043 254.99 140.558C254.99 148.517 245.012 154.952 232.817 154.952C178.77 154.952 125.001 154.952 71.2313 154.952C59.0362 154.952 49.0583 148.517 49.0583 140.558C49.0583 108.043 49.0583 75.5283 49.0583 43.0136C49.0583 35.0542 59.0362 28.619 71.2313 28.619Z" fill="#F1C585"/>
<path fill-rule="evenodd" clip-rule="evenodd" d="M72.0643 31.3291C125.279 31.3291 178.495 31.3291 231.71 31.3291C243.905 31.3291 253.605 37.7643 253.605 45.7237C253.605 77.2223 253.605 108.89 253.605 140.389C253.605 148.348 243.905 154.784 231.71 154.784C178.495 154.784 125.279 154.784 72.0643 154.784C60.1463 154.784 50.1685 148.348 50.1685 140.389C50.1685 108.89 50.1685 77.2223 50.1685 45.7237C50.1685 37.7643 60.1463 31.3291 72.0643 31.3291Z" fill="#F1C786"/>
<path fill-rule="evenodd" clip-rule="evenodd" d="M73.1711 34.2079C125.555 34.2079 178.216 34.2079 230.599 34.2079C242.517 34.2079 252.495 40.6431 252.495 48.2638C252.495 78.9157 252.495 109.568 252.495 140.22C252.495 148.01 242.517 154.445 230.599 154.445C178.216 154.445 125.555 154.445 73.1711 154.445C61.2532 154.445 51.5525 148.01 51.5525 140.22C51.5525 109.568 51.5525 78.9157 51.5525 48.2638C51.5525 40.6431 61.2532 34.2079 73.1711 34.2079Z" fill="#F2CA88"/>
<path fill-rule="evenodd" clip-rule="evenodd" d="M74.2808 37.0864C126.11 37.0864 177.939 37.0864 229.769 37.0864C241.41 37.0864 251.11 43.3523 251.11 50.9729C251.11 80.7782 251.11 110.414 251.11 140.219C251.11 147.84 241.41 154.106 229.769 154.106C177.939 154.106 126.11 154.106 74.2808 154.106C62.3628 154.106 52.6621 147.84 52.6621 140.219C52.6621 110.414 52.6621 80.7782 52.6621 50.9729C52.6621 43.3523 62.3628 37.0864 74.2808 37.0864Z" fill="#F2CC8A"/>
<path fill-rule="evenodd" clip-rule="evenodd" d="M75.1102 39.7965C126.385 39.7965 177.383 39.7965 228.658 39.7965C240.299 39.7965 250 46.0624 250 53.5137C250 82.4721 250 111.261 250 140.05C250 147.671 240.299 153.768 228.658 153.768C177.383 153.768 126.385 153.768 75.1102 153.768C63.4694 153.768 54.0459 147.671 54.0459 140.05C54.0459 111.261 54.0459 82.4721 54.0459 53.5137C54.0459 46.0624 63.4694 39.7965 75.1102 39.7965Z" fill="#F2CE8B"/>
<path fill-rule="evenodd" clip-rule="evenodd" d="M76.2198 42.6753C126.663 42.6753 177.107 42.6753 227.55 42.6753C239.191 42.6753 248.615 48.7718 248.615 56.2231C248.615 84.1655 248.615 111.939 248.615 139.881C248.615 147.332 239.191 153.598 227.55 153.598C177.107 153.598 126.663 153.598 76.2198 153.598C64.579 153.598 55.1555 147.332 55.1555 139.881C55.1555 111.939 55.1555 84.1655 55.1555 56.2231C55.1555 48.7718 64.579 42.6753 76.2198 42.6753Z" fill="#F2D08D"/>
<path fill-rule="evenodd" clip-rule="evenodd" d="M77.3299 45.3844C126.942 45.3844 176.831 45.3844 226.72 45.3844C238.084 45.3844 247.23 51.4809 247.23 58.9322C247.23 85.8585 247.23 112.785 247.23 139.711C247.23 147.162 238.084 153.259 226.72 153.259C176.831 153.259 126.942 153.259 77.3299 153.259C65.9662 153.259 56.5427 147.162 56.5427 139.711C56.5427 112.785 56.5427 85.8585 56.5427 58.9322C56.5427 51.4809 65.9662 45.3844 77.3299 45.3844Z" fill="#F2D28E"/>
<path fill-rule="evenodd" clip-rule="evenodd" d="M78.1623 48.2631C127.497 48.2631 176.555 48.2631 225.613 48.2631C236.976 48.2631 246.123 54.1902 246.123 61.4722C246.123 87.5517 246.123 113.631 246.123 139.711C246.123 146.993 236.976 152.92 225.613 152.92C176.555 152.92 127.497 152.92 78.1623 152.92C67.0759 152.92 57.6523 146.993 57.6523 139.711C57.6523 113.631 57.6523 87.5517 57.6523 61.4722C57.6523 54.1902 67.0759 48.2631 78.1623 48.2631Z" fill="#F2D490"/>
<path fill-rule="evenodd" clip-rule="evenodd" d="M79.269 50.9733C127.772 50.9733 176.276 50.9733 224.779 50.9733C235.866 50.9733 244.735 56.9004 244.735 64.1824C244.735 89.2459 244.735 114.309 244.735 139.542C244.735 146.655 235.866 152.582 224.779 152.582C176.276 152.582 127.772 152.582 79.269 152.582C68.1825 152.582 59.0361 146.655 59.0361 139.542C59.0361 114.309 59.0361 89.2459 59.0361 64.1824C59.0361 56.9004 68.1825 50.9733 79.269 50.9733Z" fill="#F3D792"/>
<path fill-rule="evenodd" clip-rule="evenodd" d="M80.3756 53.8518C128.047 53.8518 175.719 53.8518 223.668 53.8518C234.478 53.8518 243.624 59.6096 243.624 66.7222C243.624 90.939 243.624 115.156 243.624 139.372C243.624 146.485 234.478 152.412 223.668 152.412C175.719 152.412 128.047 152.412 80.3756 152.412C69.2891 152.412 60.4199 146.485 60.4199 139.372C60.4199 115.156 60.4199 90.939 60.4199 66.7222C60.4199 59.6096 69.2891 53.8518 80.3756 53.8518Z" fill="#F3D993"/>
<path fill-rule="evenodd" clip-rule="evenodd" d="M81.2081 56.562H222.561C233.37 56.562 242.239 62.3198 242.239 69.4324V139.204C242.239 146.316 233.37 152.074 222.561 152.074H81.2081C70.3987 152.074 61.5295 146.316 61.5295 139.204V69.4324C61.5295 62.3198 70.3987 56.562 81.2081 56.562Z" fill="#F3DB95"/>
<path fill-rule="evenodd" clip-rule="evenodd" d="M309.591 68.2473H932.375C945.401 68.2473 955.656 75.0212 955.656 83.4886V142.76C955.656 151.058 945.124 158.002 932.375 158.002H309.591C296.842 158.002 286.31 151.228 286.31 142.76V83.4886C286.31 75.0212 296.842 68.2473 309.591 68.2473Z" fill="#EFB469"/>
<path fill-rule="evenodd" clip-rule="evenodd" d="M318.46 75.5292H923.782C936.254 75.5292 946.232 82.1337 946.232 90.0931V140.728C946.232 148.687 935.977 155.292 923.782 155.292H318.46C305.988 155.292 296.01 148.687 296.01 140.728V90.0931C296.01 82.1337 305.988 75.5292 318.46 75.5292Z" fill="#F1C383"/>
<path fill-rule="evenodd" clip-rule="evenodd" d="M319.293 78.408C520.513 78.408 721.732 78.408 922.675 78.408C934.87 78.408 944.848 84.8432 944.848 92.8025C944.848 108.721 944.848 124.64 944.848 140.559C944.848 148.518 934.87 154.953 922.675 154.953C721.732 154.953 520.513 154.953 319.293 154.953C307.098 154.953 297.12 148.518 297.12 140.559C297.12 124.64 297.12 108.721 297.12 92.8025C297.12 84.8432 307.098 78.408 319.293 78.408Z" fill="#F1C585"/>
<path fill-rule="evenodd" clip-rule="evenodd" d="M320.403 81.1171C520.791 81.1171 721.179 81.1171 921.844 81.1171C933.762 81.1171 943.74 87.5523 943.74 95.3423C943.74 110.414 943.74 125.486 943.74 140.389C943.74 148.348 933.762 154.783 921.844 154.783C721.179 154.783 520.791 154.783 320.403 154.783C308.208 154.783 298.507 148.348 298.507 140.389C298.507 125.486 298.507 110.414 298.507 95.3423C298.507 87.5523 308.208 81.1171 320.403 81.1171Z" fill="#F1C786"/>
<path fill-rule="evenodd" clip-rule="evenodd" d="M321.509 83.9968C521.066 83.9968 720.9 83.9968 920.734 83.9968C932.652 83.9968 942.352 90.2627 942.352 98.0527C942.352 112.109 942.352 126.164 942.352 140.22C942.352 148.01 932.652 154.445 920.734 154.445C720.9 154.445 521.066 154.445 321.509 154.445C309.591 154.445 299.613 148.01 299.613 140.22C299.613 126.164 299.613 112.109 299.613 98.0527C299.613 90.2627 309.314 83.9968 321.509 83.9968Z" fill="#F2CA88"/>
<path fill-rule="evenodd" clip-rule="evenodd" d="M322.342 86.7059C521.622 86.7059 720.624 86.7059 919.626 86.7059C931.544 86.7059 941.245 92.9718 941.245 100.592C941.245 113.802 941.245 127.011 941.245 140.22C941.245 147.84 931.544 154.106 919.626 154.106C720.624 154.106 521.622 154.106 322.342 154.106C310.701 154.106 301 147.84 301 140.22C301 127.011 301 113.802 301 100.592C301 92.9718 310.701 86.7059 322.342 86.7059Z" fill="#F2CC8A"/>
<path fill-rule="evenodd" clip-rule="evenodd" d="M323.448 89.5845C521.896 89.5845 720.344 89.5845 918.793 89.5845C930.433 89.5845 939.857 95.681 939.857 103.302C939.857 115.495 939.857 127.857 939.857 140.05C939.857 147.671 930.433 153.767 918.793 153.767C720.344 153.767 521.896 153.767 323.448 153.767C311.807 153.767 302.107 147.671 302.107 140.05C302.107 127.857 302.107 115.495 302.107 103.302C302.107 95.681 311.807 89.5845 323.448 89.5845Z" fill="#F2CE8B"/>
<path fill-rule="evenodd" clip-rule="evenodd" d="M324.281 92.2948C522.175 92.2948 720.069 92.2948 917.685 92.2948C929.326 92.2948 938.75 98.3913 938.75 106.012C938.75 117.189 938.75 128.535 938.75 139.882C938.75 147.333 929.326 153.599 917.685 153.599C720.069 153.599 522.175 153.599 324.281 153.599C312.917 153.599 303.494 147.333 303.494 139.882C303.494 128.535 303.494 117.189 303.494 106.012C303.494 98.3913 312.917 92.2948 324.281 92.2948Z" fill="#F2D08D"/>
<path fill-rule="evenodd" clip-rule="evenodd" d="M325.391 95.1733C522.453 95.1733 719.515 95.1733 916.578 95.1733C927.941 95.1733 937.365 101.101 937.365 108.552C937.365 119.051 937.365 129.382 937.365 139.712C937.365 147.163 927.941 153.26 916.578 153.26C719.515 153.26 522.453 153.26 325.391 153.26C314.027 153.26 304.604 147.163 304.604 139.712C304.604 129.382 304.604 119.051 304.604 108.552C304.604 101.101 314.027 95.1733 325.391 95.1733Z" fill="#F2D28E"/>
<path fill-rule="evenodd" clip-rule="evenodd" d="M326.497 97.8824C522.728 97.8824 719.236 97.8824 915.744 97.8824C926.83 97.8824 936.254 103.979 936.254 111.261C936.254 120.744 936.254 130.228 936.254 139.711C936.254 146.993 926.83 152.92 915.744 152.92C719.236 152.92 522.728 152.92 326.497 152.92C315.134 152.92 305.987 146.993 305.987 139.711C305.987 130.228 305.987 120.744 305.987 111.261C305.987 103.81 315.134 97.8824 326.497 97.8824Z" fill="#F2D490"/>
<path fill-rule="evenodd" clip-rule="evenodd" d="M327.33 100.762C523.284 100.762 718.96 100.762 914.637 100.762C925.723 100.762 934.87 106.689 934.87 113.802C934.87 122.439 934.87 130.906 934.87 139.543C934.87 146.655 925.723 152.583 914.637 152.583C718.96 152.583 523.284 152.583 327.33 152.583C316.244 152.583 307.375 146.655 307.375 139.543C307.375 130.906 307.375 122.439 307.375 113.802C307.375 106.689 316.244 100.762 327.33 100.762Z" fill="#F3D792"/>
<path fill-rule="evenodd" clip-rule="evenodd" d="M328.437 103.471C523.559 103.471 718.681 103.471 913.526 103.471C924.612 103.471 933.482 109.398 933.482 116.511C933.482 124.132 933.482 131.752 933.482 139.373C933.482 146.486 924.612 152.413 913.526 152.413C718.681 152.413 523.559 152.413 328.437 152.413C317.627 152.413 308.481 146.486 308.481 139.373C308.481 131.752 308.481 124.132 308.481 116.511C308.481 109.398 317.627 103.471 328.437 103.471Z" fill="#F3D993"/>
<path fill-rule="evenodd" clip-rule="evenodd" d="M329.546 106.351H912.696C923.505 106.351 932.374 112.109 932.374 119.052V139.204C932.374 146.317 923.505 152.075 912.696 152.075H329.546C318.737 152.075 309.868 146.317 309.868 139.204V119.052C309.868 112.109 318.737 106.351 329.546 106.351Z" fill="#F3DB95"/>
<path fill-rule="evenodd" clip-rule="evenodd" d="M589.004 17.6129H934.978C944.695 17.6129 952.329 21.6773 952.329 26.5883V51.1438C952.329 56.0549 944.695 59.9499 934.978 59.9499H589.004C579.634 59.9499 572 56.0549 572 51.1438V26.5883C572 21.6773 579.634 17.6129 589.004 17.6129Z" fill="#EFB469"/>
<path fill-rule="evenodd" clip-rule="evenodd" d="M595.599 22.0162H928.734C937.757 22.0162 945.391 25.9112 945.391 30.4836V49.7893C945.391 54.531 937.757 58.426 928.734 58.426H595.599C586.577 58.426 578.943 54.531 578.943 49.7893V30.4836C578.943 25.7419 586.577 22.0162 595.599 22.0162Z" fill="#F1C383"/>
<path fill-rule="evenodd" clip-rule="evenodd" d="M596.29 23.5397C706.988 23.5397 817.339 23.5397 928.037 23.5397C937.059 23.5397 944.347 27.4347 944.347 32.1764C944.347 37.9342 944.347 43.8614 944.347 49.7886C944.347 54.5303 937.059 58.256 928.037 58.256C817.339 58.256 706.988 58.256 596.29 58.256C587.268 58.256 579.98 54.5303 579.98 49.7886C579.98 43.8614 579.98 37.9342 579.98 32.1764C579.98 27.4347 587.268 23.5397 596.29 23.5397Z" fill="#F1C585"/>
<path fill-rule="evenodd" clip-rule="evenodd" d="M596.985 25.2328C706.989 25.2328 817.34 25.2328 927.344 25.2328C936.019 25.2328 943.307 28.9584 943.307 33.7002C943.307 38.95 943.307 44.3691 943.307 49.7882C943.307 54.3606 936.019 58.0863 927.344 58.0863C817.34 58.0863 706.989 58.0863 596.985 58.0863C588.31 58.0863 581.022 54.3606 581.022 49.7882C581.022 44.3691 581.022 38.95 581.022 33.7002C581.022 28.9584 588.31 25.2328 596.985 25.2328Z" fill="#F1C786"/>
<path fill-rule="evenodd" clip-rule="evenodd" d="M597.676 26.9269C707.333 26.9269 816.99 26.9269 926.647 26.9269C935.322 26.9269 942.61 30.6525 942.61 35.2249C942.61 39.9667 942.61 44.8777 942.61 49.6195C942.61 54.1919 935.322 57.9175 926.647 57.9175C816.99 57.9175 707.333 57.9175 597.676 57.9175C589.001 57.9175 581.713 54.1919 581.713 49.6195C581.713 44.8777 581.713 39.9667 581.713 35.2249C581.713 30.6525 589.001 26.9269 597.676 26.9269Z" fill="#F2CA88"/>
<path fill-rule="evenodd" clip-rule="evenodd" d="M598.718 28.4504C707.681 28.4504 816.644 28.4504 925.606 28.4504C934.282 28.4504 941.569 32.1761 941.569 36.7485C941.569 40.9822 941.569 45.2159 941.569 49.6189C941.569 54.022 934.282 57.7476 925.606 57.7476C816.644 57.7476 707.681 57.7476 598.718 57.7476C590.042 57.7476 582.755 54.022 582.755 49.6189C582.755 45.2159 582.755 40.9822 582.755 36.7485C582.755 32.1761 589.695 28.4504 598.718 28.4504Z" fill="#F2CC8A"/>
<path fill-rule="evenodd" clip-rule="evenodd" d="M599.413 30.1445C708.029 30.1445 816.298 30.1445 924.914 30.1445C933.589 30.1445 940.529 33.8702 940.529 38.2732C940.529 41.9989 940.529 45.7245 940.529 49.4502C940.529 53.8532 933.589 57.5789 924.914 57.5789C816.298 57.5789 708.029 57.5789 599.413 57.5789C590.738 57.5789 583.797 54.0226 583.797 49.4502C583.797 45.7245 583.797 41.9989 583.797 38.2732C583.797 33.8702 590.738 30.1445 599.413 30.1445Z" fill="#F2CE8B"/>
<path fill-rule="evenodd" clip-rule="evenodd" d="M600.108 31.8378C708.029 31.8378 816.298 31.8378 924.22 31.8378C932.896 31.8378 939.836 35.3941 939.836 39.7971C939.836 43.0147 939.836 46.2323 939.836 49.4499C939.836 53.853 932.896 57.4093 924.22 57.4093C816.298 57.4093 708.029 57.4093 600.108 57.4093C591.432 57.4093 584.492 53.853 584.492 49.4499C584.492 46.2323 584.492 43.0147 584.492 39.7971C584.492 35.3941 591.432 31.8378 600.108 31.8378Z" fill="#F2D08D"/>
<path fill-rule="evenodd" clip-rule="evenodd" d="M600.803 33.5308C708.378 33.5308 815.952 33.5308 923.527 33.5308C931.856 33.5308 938.796 37.0871 938.796 41.3208C938.796 44.0303 938.796 46.7399 938.796 49.2801C938.796 53.6831 931.856 57.2395 923.527 57.2395C815.952 57.2395 708.378 57.2395 600.803 57.2395C592.474 57.2395 585.534 53.6831 585.534 49.2801C585.534 46.7399 585.534 44.0303 585.534 41.3208C585.534 37.0871 592.474 33.5308 600.803 33.5308Z" fill="#F2D28E"/>
<path fill-rule="evenodd" clip-rule="evenodd" d="M601.498 35.0554C708.725 35.0554 815.606 35.0554 922.834 35.0554C931.162 35.0554 937.756 38.6117 937.756 43.0148C937.756 45.0469 937.756 47.0791 937.756 49.2806C937.756 53.5143 931.162 57.0706 922.834 57.0706C815.606 57.0706 708.725 57.0706 601.498 57.0706C593.169 57.0706 586.576 53.5143 586.576 49.2806C586.576 47.0791 586.576 45.0469 586.576 43.0148C586.576 38.6117 593.169 35.0554 601.498 35.0554Z" fill="#F2D490"/>
<path fill-rule="evenodd" clip-rule="evenodd" d="M602.188 36.7485C708.722 36.7485 815.602 36.7485 922.136 36.7485C930.117 36.7485 937.058 40.3048 937.058 44.5385C937.058 46.0627 937.058 47.5868 937.058 49.1109C937.058 53.3446 930.117 56.9009 922.136 56.9009C815.602 56.9009 708.722 56.9009 602.188 56.9009C594.206 56.9009 587.266 53.3446 587.266 49.1109C587.266 47.5868 587.266 46.0627 587.266 44.5385C587.266 40.3048 594.206 36.7485 602.188 36.7485Z" fill="#F3D792"/>
<path fill-rule="evenodd" clip-rule="evenodd" d="M602.883 38.4425C709.07 38.4425 815.256 38.4425 921.443 38.4425C929.425 38.4425 936.018 41.8295 936.018 46.0632C936.018 47.0792 936.018 48.0953 936.018 49.1114C936.018 53.3451 929.425 56.7321 921.443 56.7321C815.256 56.7321 709.07 56.7321 602.883 56.7321C594.902 56.7321 588.308 53.3451 588.308 49.1114C588.308 48.0953 588.308 47.0792 588.308 46.0632C588.308 41.8295 594.902 38.4425 602.883 38.4425Z" fill="#F3D993"/>
<path fill-rule="evenodd" clip-rule="evenodd" d="M603.925 40.1357H920.403C928.385 40.1357 934.978 43.5227 934.978 47.587V48.9418C934.978 53.1755 928.385 56.5625 920.403 56.5625H603.925C595.944 56.5625 589.351 53.1755 589.351 48.9418V47.587C589.351 43.5227 595.944 40.1357 603.925 40.1357Z" fill="#F3DB95"/>
<path fill-rule="evenodd" clip-rule="evenodd" d="M300.92 17.6129H543.884C550.686 17.6129 556 21.6773 556 26.5883V51.1438C556 56.0549 550.686 59.9499 543.884 59.9499H300.92C294.33 59.9499 288.803 56.0549 288.803 51.1438V26.5883C288.803 21.6773 294.33 17.6129 300.92 17.6129Z" fill="#EFB469"/>
<path fill-rule="evenodd" clip-rule="evenodd" d="M305.383 22.0162H539.42C545.797 22.0162 551.111 25.9112 551.111 30.4836V49.7893C551.111 54.531 545.797 58.426 539.42 58.426H305.383C299.006 58.426 293.905 54.531 293.905 49.7893V30.4836C293.905 25.7419 299.006 22.0162 305.383 22.0162Z" fill="#F1C383"/>
<path fill-rule="evenodd" clip-rule="evenodd" d="M306.022 23.5397C383.609 23.5397 461.196 23.5397 538.995 23.5397C545.372 23.5397 550.474 27.4347 550.474 32.1764C550.474 37.9342 550.474 43.8614 550.474 49.7886C550.474 54.5303 545.372 58.256 538.995 58.256C461.196 58.256 383.609 58.256 306.022 58.256C299.645 58.256 294.543 54.5303 294.543 49.7886C294.543 43.8614 294.543 37.9342 294.543 32.1764C294.543 27.4347 299.645 23.5397 306.022 23.5397Z" fill="#F1C585"/>
<path fill-rule="evenodd" clip-rule="evenodd" d="M306.448 25.2328C383.822 25.2328 461.197 25.2328 538.358 25.2328C544.735 25.2328 549.837 28.9584 549.837 33.7002C549.837 38.95 549.837 44.3691 549.837 49.7882C549.837 54.3606 544.735 58.0863 538.358 58.0863C461.197 58.0863 383.822 58.0863 306.448 58.0863C300.283 58.0863 295.182 54.3606 295.182 49.7882C295.182 44.3691 295.182 38.95 295.182 33.7002C295.182 28.9584 300.283 25.2328 306.448 25.2328Z" fill="#F1C786"/>
<path fill-rule="evenodd" clip-rule="evenodd" d="M307.086 26.9269C384.035 26.9269 460.984 26.9269 537.934 26.9269C544.098 26.9269 549.2 30.6525 549.2 35.2249C549.2 39.9667 549.2 44.8777 549.2 49.6195C549.2 54.1919 544.098 57.9175 537.934 57.9175C460.984 57.9175 384.035 57.9175 307.086 57.9175C300.921 57.9175 295.82 54.1919 295.82 49.6195C295.82 44.8777 295.82 39.9667 295.82 35.2249C295.82 30.6525 300.921 26.9269 307.086 26.9269Z" fill="#F2CA88"/>
<path fill-rule="evenodd" clip-rule="evenodd" d="M307.512 28.4504C384.248 28.4504 460.773 28.4504 537.297 28.4504C543.461 28.4504 548.563 32.1761 548.563 36.7485C548.563 40.9822 548.563 45.2159 548.563 49.6189C548.563 54.022 543.461 57.7476 537.297 57.7476C460.773 57.7476 384.248 57.7476 307.512 57.7476C301.347 57.7476 296.458 54.022 296.458 49.6189C296.458 45.2159 296.458 40.9822 296.458 36.7485C296.458 32.1761 301.347 28.4504 307.512 28.4504Z" fill="#F2CC8A"/>
<path fill-rule="evenodd" clip-rule="evenodd" d="M308.147 30.1445C384.246 30.1445 460.558 30.1445 536.87 30.1445C542.822 30.1445 547.923 33.8702 547.923 38.2732C547.923 41.9989 547.923 45.7245 547.923 49.4502C547.923 53.8532 542.822 57.5789 536.87 57.5789C460.558 57.5789 384.246 57.5789 308.147 57.5789C301.983 57.5789 297.094 54.0226 297.094 49.4502C297.094 45.7245 297.094 41.9989 297.094 38.2732C297.094 33.8702 301.983 30.1445 308.147 30.1445Z" fill="#F2CE8B"/>
<path fill-rule="evenodd" clip-rule="evenodd" d="M308.573 31.8378C384.459 31.8378 460.346 31.8378 536.445 31.8378C542.397 31.8378 547.286 35.3941 547.286 39.7971C547.286 43.0147 547.286 46.2323 547.286 49.4499C547.286 53.853 542.397 57.4093 536.445 57.4093C460.346 57.4093 384.459 57.4093 308.573 57.4093C302.621 57.4093 297.732 53.853 297.732 49.4499C297.732 46.2323 297.732 43.0147 297.732 39.7971C297.732 35.3941 302.621 31.8378 308.573 31.8378Z" fill="#F2D08D"/>
<path fill-rule="evenodd" clip-rule="evenodd" d="M308.999 33.5308C384.673 33.5308 460.347 33.5308 535.808 33.5308C541.76 33.5308 546.436 37.0871 546.436 41.3208C546.436 44.0303 546.436 46.7399 546.436 49.2801C546.436 53.6831 541.76 57.2395 535.808 57.2395C460.347 57.2395 384.673 57.2395 308.999 57.2395C303.26 57.2395 298.371 53.6831 298.371 49.2801C298.371 46.7399 298.371 44.0303 298.371 41.3208C298.371 37.0871 303.26 33.5308 308.999 33.5308Z" fill="#F2D28E"/>
<path fill-rule="evenodd" clip-rule="evenodd" d="M309.634 35.0554C384.883 35.0554 460.132 35.0554 535.381 35.0554C541.12 35.0554 545.796 38.6117 545.796 43.0148C545.796 45.0469 545.796 47.0791 545.796 49.2806C545.796 53.5143 541.12 57.0706 535.381 57.0706C460.132 57.0706 384.883 57.0706 309.634 57.0706C303.895 57.0706 299.006 53.5143 299.006 49.2806C299.006 47.0791 299.006 45.0469 299.006 43.0148C299.006 38.6117 303.895 35.0554 309.634 35.0554Z" fill="#F2D490"/>
<path fill-rule="evenodd" clip-rule="evenodd" d="M310.06 36.7485C385.096 36.7485 459.92 36.7485 534.744 36.7485C540.483 36.7485 545.159 40.3048 545.159 44.5385C545.159 46.0627 545.159 47.5868 545.159 49.1109C545.159 53.3446 540.483 56.9009 534.744 56.9009C459.92 56.9009 385.096 56.9009 310.06 56.9009C304.321 56.9009 299.645 53.3446 299.645 49.1109C299.645 47.5868 299.645 46.0627 299.645 44.5385C299.645 40.3048 304.321 36.7485 310.06 36.7485Z" fill="#F3D792"/>
<path fill-rule="evenodd" clip-rule="evenodd" d="M310.699 38.4425C385.097 38.4425 459.708 38.4425 534.319 38.4425C539.846 38.4425 544.522 41.8295 544.522 46.0632C544.522 47.0792 544.522 48.0953 544.522 49.1114C544.522 53.3451 539.846 56.7321 534.319 56.7321C459.708 56.7321 385.097 56.7321 310.699 56.7321C304.959 56.7321 300.283 53.3451 300.283 49.1114C300.283 48.0953 300.283 47.0792 300.283 46.0632C300.283 41.8295 304.959 38.4425 310.699 38.4425Z" fill="#F3D993"/>
<path fill-rule="evenodd" clip-rule="evenodd" d="M311.124 40.1357H533.682C539.421 40.1357 543.885 43.5227 543.885 47.587V48.9418C543.885 53.1755 539.421 56.5625 533.682 56.5625H311.124C305.598 56.5625 300.921 53.1755 300.921 48.9418V47.587C300.921 43.5227 305.598 40.1357 311.124 40.1357Z" fill="#F3DB95"/>
<path d="M85.8259 58.0244C82.4572 77.646 84.3521 91.222 94.2479 102.465C103.933 113.495 122.04 122.935 151.096 134.071C179.941 122.935 198.048 113.495 207.733 102.465C217.629 91.222 219.524 77.646 216.155 58.1305C193.627 55.7971 172.361 54.6304 151.096 54.6304C129.831 54.6304 108.355 55.6911 85.8259 58.0244ZM66.4555 108.616C53.4015 93.6614 51.5066 76.3732 56.7703 51.0243L58.0336 45.6151L68.3504 44.4484C96.985 40.9484 123.935 39.3574 151.096 39.3574C178.046 39.4635 204.996 41.1605 233.42 44.4484L244.158 45.6151L245.211 51.0243C250.475 76.3732 248.58 93.6614 235.526 108.616C222.261 123.571 198.469 135.45 159.939 149.769L151.096 153.056L142.042 149.769C103.512 135.45 79.7201 123.571 66.4555 108.616Z" fill="black" fill-opacity="0.101961"/>
<path d="M85.8259 51.6614C82.4572 71.283 84.3521 84.859 94.2479 96.1016C103.933 107.132 122.04 116.466 151.096 127.708C179.941 116.466 198.048 107.132 207.733 96.1016C217.629 84.859 219.524 71.283 216.155 51.6614C193.627 49.4341 172.361 48.2674 151.096 48.2674C129.831 48.1613 108.355 49.328 85.8259 51.6614ZM66.4555 102.253C53.4015 87.2984 51.5066 69.9041 56.7703 44.6613L58.0336 39.2521L68.3504 37.9793C96.985 34.5853 123.935 32.9944 151.096 32.9944C178.046 32.9944 204.996 34.6914 233.42 37.9793L244.158 39.2521L245.211 44.6613C250.475 69.9041 248.58 87.2984 235.526 102.253C222.261 117.208 198.469 128.981 159.939 143.299L151.096 146.693L142.042 143.299C103.512 128.981 79.7201 117.208 66.4555 102.253Z" fill="white"/>
<path fill-rule="evenodd" clip-rule="evenodd" d="M71.9269 42.9634C61.8206 90.7976 78.2434 107.662 151.093 134.708C223.943 107.662 240.155 90.7976 230.259 42.9634C175.096 36.5997 127.091 36.3875 71.9269 42.9634Z" fill="#E6E6E6"/>
<path fill-rule="evenodd" clip-rule="evenodd" d="M151.096 134.708C223.945 107.662 240.158 90.798 230.262 42.9638C202.68 39.782 176.783 38.191 151.096 38.085V134.708Z" fill="#CCCCCC"/>
<path fill-rule="evenodd" clip-rule="evenodd" d="M151.097 124.738C130.464 117.102 114.252 110.208 102.04 103.314C80.3533 91.0104 70.6681 78.2829 69.4048 60.1462C67.0887 95.359 87.7225 111.162 151.097 134.708C214.472 111.162 235.106 95.359 232.58 60.0402C231.316 78.2829 221.631 91.0104 199.945 103.314C187.733 110.208 171.731 117.102 151.097 124.738Z" fill="white"/>
<path fill-rule="evenodd" clip-rule="evenodd" d="M69.1951 65.8731C69.4056 97.1615 91.3026 112.541 151.098 134.708C210.894 112.541 232.581 97.1615 232.791 65.8731C232.791 64.4943 232.791 63.0094 232.581 61.5245C231.317 79.6612 221.632 92.3887 199.946 104.692C187.734 111.586 171.732 118.48 151.098 126.117C130.465 118.48 114.252 111.586 102.041 104.692C80.3541 92.3887 70.6689 79.6612 69.4056 61.5245C69.1951 63.0094 69.1951 64.4943 69.1951 65.8731Z" fill="#999999"/>
<path fill-rule="evenodd" clip-rule="evenodd" d="M148.572 37.2373L154.678 38.0858L151.098 77.8593L148.572 37.2373Z" fill="white"/>
<path fill-rule="evenodd" clip-rule="evenodd" d="M151.096 140.86L142.042 137.466C103.512 123.254 79.7199 111.375 66.4553 96.4201C58.4545 87.1927 54.6646 77.1167 54.033 64.8135C53.6119 79.8744 57.1912 91.6473 66.4553 102.254C79.7199 117.208 103.512 128.981 142.042 143.3L151.096 146.694L159.939 143.3C198.469 128.981 222.261 117.208 235.526 102.254C244.79 91.6473 248.58 79.8744 247.948 64.8135C247.527 77.1167 243.526 87.1927 235.526 96.4201C222.261 111.375 198.469 123.254 159.939 137.466L151.096 140.86Z" fill="#E6E6E6"/>
<path d="M322.178 58.5313L306.499 63.5072C304.672 64.1117 302.694 64.2977 300.867 64.1117C299.497 63.9722 298.203 63.6467 297.137 63.1816C296.072 62.7166 295.159 62.1121 294.55 61.3215C293.636 60.2984 293.18 59.0428 293.56 57.6477L296.452 47.0914L283.362 39.2787C281.992 38.4417 281.078 37.3721 280.698 36.3025C280.469 35.5584 280.545 34.7679 280.85 34.0238V33.9773C281.23 33.2333 281.839 32.5357 282.829 31.8847C284.123 31.0941 285.873 30.536 288.08 30.257L288.309 30.2105L306.118 28.5829L306.499 28.0248C309.315 23.6535 314.034 16.4454 322.102 16.4919C330.093 16.5849 334.812 23.5605 337.704 27.9783L338.161 28.5829L355.971 30.2105L356.199 30.257C358.406 30.536 360.157 31.0941 361.45 31.8847C362.44 32.4892 363.049 33.2333 363.429 34.0238C363.734 34.7679 363.81 35.5584 363.582 36.3025C363.201 37.3721 362.288 38.4417 360.918 39.2787L347.903 47.0914L350.719 57.6477C351.1 59.0428 350.719 60.2984 349.806 61.3215C349.121 62.1121 348.207 62.7166 347.142 63.1816C346.076 63.6467 344.782 63.9722 343.412 64.1117C341.586 64.2977 339.607 64.1117 337.78 63.5072L322.178 58.5313Z" fill="black" fill-opacity="0.101961"/>
<path d="M322.178 57.0898L306.499 62.0657C304.672 62.6703 302.694 62.8098 300.867 62.6703C299.497 62.5307 298.203 62.2052 297.137 61.7402C296.072 61.2751 295.159 60.6241 294.55 59.88C293.636 58.8569 293.18 57.5548 293.56 56.2062V56.1597L296.452 45.6034L283.362 37.7908C281.992 36.9537 281.078 35.9306 280.698 34.861C280.469 34.117 280.545 33.3264 280.85 32.5358C281.23 31.7918 281.839 31.0477 282.829 30.4432C284.123 29.6526 285.873 29.0481 288.08 28.8155L288.309 28.769L306.118 27.1414L306.499 26.5834C309.315 22.212 314.034 14.9574 322.102 15.0504C330.093 15.0969 334.812 22.119 337.704 26.4904L338.161 27.1414L355.971 28.769L356.199 28.8155C358.406 29.0481 360.157 29.6526 361.45 30.4432C362.44 31.0477 363.049 31.7918 363.429 32.5358C363.734 33.3264 363.81 34.0705 363.582 34.861C363.201 35.9306 362.288 36.9537 360.918 37.7908L347.903 45.6034L350.719 56.1597V56.2062C351.1 57.5548 350.719 58.8569 349.806 59.88C349.121 60.6241 348.207 61.2751 347.142 61.7402C346.076 62.2052 344.782 62.5307 343.412 62.6703C341.586 62.8098 339.607 62.6703 337.78 62.0657L322.178 57.0898Z" fill="white"/>
<path d="M322.176 53.6485L304.214 59.3685C301.169 60.345 297.897 58.9034 298.429 56.6713L301.778 44.5338L286.861 35.6051C284.73 34.3495 285.034 32.2568 289.068 31.7918L309.618 29.8851C311.52 27.5134 316.239 18.0267 322.1 18.0732C327.96 18.1197 332.603 27.3274 334.658 29.8851L355.284 31.7918C359.241 32.2568 359.622 34.3495 357.415 35.6051L342.573 44.5338L345.846 56.6713C346.379 58.9034 343.106 60.345 340.062 59.3685L322.176 53.6485Z" fill="#FFE00F"/>
<path fill-rule="evenodd" clip-rule="evenodd" d="M322.175 51.2772L304.213 56.9972C301.93 57.7412 299.494 57.0902 298.657 55.7881L298.429 56.6717C297.896 58.9038 301.169 60.3454 304.213 59.3689L322.175 53.6489L340.061 59.3689C343.105 60.3454 346.378 58.9038 345.845 56.6717L345.617 55.7881C344.78 57.0902 342.344 57.7412 340.061 56.9972L322.175 51.2772Z" fill="#DCB000"/>
<path fill-rule="evenodd" clip-rule="evenodd" d="M341.966 42.4883L342.575 44.5345L357.416 35.6058C358.862 34.7687 359.167 33.6061 358.101 32.7225C357.949 32.9085 357.721 33.0946 357.416 33.2341L341.966 42.4883Z" fill="#DCB000"/>
<path fill-rule="evenodd" clip-rule="evenodd" d="M302.313 42.4883L286.862 33.2341C286.558 33.0946 286.33 32.9085 286.177 32.7225C285.112 33.6061 285.416 34.7687 286.862 35.6058L301.78 44.5345L302.313 42.4883Z" fill="#DCB000"/>
<path fill-rule="evenodd" clip-rule="evenodd" d="M306.501 60.6708C304.674 61.2754 302.695 61.4614 300.869 61.2754C299.499 61.1359 298.205 60.8569 297.139 60.3918C296.074 59.9268 295.161 59.2757 294.552 58.5317C294.019 57.9271 293.638 57.2296 293.486 56.4855C293.258 57.7411 293.638 58.9037 294.552 59.8803C295.161 60.6243 296.074 61.2754 297.139 61.7404C298.205 62.2055 299.499 62.531 300.869 62.6705C302.695 62.81 304.674 62.6705 306.501 62.066L322.18 57.0901L337.782 62.066C339.609 62.6705 341.588 62.81 343.414 62.6705C344.784 62.531 346.078 62.2055 347.144 61.7404C348.209 61.2754 349.123 60.6243 349.808 59.8803C350.645 58.9037 351.025 57.7411 350.797 56.4855C350.645 57.2296 350.34 57.9271 349.808 58.5317C349.123 59.2757 348.209 59.9268 347.144 60.3453C346.078 60.8569 344.784 61.1359 343.414 61.2754C341.588 61.4614 339.609 61.2754 337.782 60.7174L322.18 55.7415L306.501 60.6708Z" fill="#E6E6E6"/>
<path fill-rule="evenodd" clip-rule="evenodd" d="M334.657 29.8851C332.602 27.3274 327.959 18.1197 322.099 18.0732C316.238 18.0267 311.519 27.5134 309.616 29.8851L289.067 31.7918C287.697 31.9313 286.707 32.3033 286.175 32.7218L286.86 33.2334L295.003 38.1163C302.386 35.9771 311.595 33.9309 321.718 32.3963C327.731 31.4662 333.515 30.7687 338.995 30.3036L334.657 29.8851Z" fill="#FFF71F"/>
<path fill-rule="evenodd" clip-rule="evenodd" d="M343.184 46.9514C338.769 47.928 333.898 48.8116 328.875 49.6021C318.219 51.2763 308.097 52.1598 299.649 52.3458L298.659 55.7871C299.496 57.0892 301.932 57.7403 304.215 56.9962L322.177 51.2763L340.063 56.9962C342.346 57.7403 344.782 57.0892 345.619 55.7871L343.184 46.9514Z" fill="#F7C600"/>
<ellipse cx="610.561" cy="40.0665" rx="40.5607" ry="24.2209" fill="#E6E6E6"/>
<ellipse cx="611.575" cy="40.6572" rx="41.5747" ry="24.8116" fill="black" fill-opacity="0.1"/>
<ellipse cx="611.575" cy="38.8851" rx="41.5747" ry="24.2209" fill="white"/>
<path d="M614.468 58.2707V56.7259C614.468 55.766 613.137 54.9904 611.489 54.9904C609.841 54.9904 608.51 55.766 608.51 56.7259V58.2707C598.933 57.7769 590.503 54.9256 584.944 50.7217C581.14 47.8453 578.681 44.3357 578.118 40.5148H580.687C582.332 40.5148 583.663 39.7376 583.663 38.7793C583.663 37.8193 582.332 37.0437 580.687 37.0437H578.134C579.6 27.6898 592.44 20.2253 608.51 19.3952V20.8326C608.51 21.7925 609.841 22.5682 611.489 22.5682C613.137 22.5682 614.468 21.7925 614.468 20.8326V19.3952C621.706 19.769 628.289 21.4888 633.472 24.1209C639.797 27.3327 644.038 31.9029 644.844 37.0437H642.294C640.646 37.0437 639.315 37.8193 639.315 38.7793C639.315 39.7376 640.646 40.5148 642.294 40.5148H644.86C643.477 49.92 630.598 57.439 614.468 58.2707ZM611.489 15.8456C589.695 15.8456 572.03 26.1354 572.03 38.8337C572.03 51.5305 589.695 61.8219 611.489 61.8219C633.283 61.8219 650.948 51.5305 650.948 38.8337C650.948 26.1354 633.283 15.8456 611.489 15.8456Z" fill="#DCB000"/>
<path d="M614.468 58.2707V56.7259C614.468 55.766 613.137 54.9904 611.489 54.9904C609.841 54.9904 608.51 55.766 608.51 56.7259V58.2707C598.933 57.7769 590.503 54.9256 584.944 50.7217C581.14 47.8453 578.681 44.3357 578.118 40.5148H580.687C582.332 40.5148 583.663 39.7376 583.663 38.7793C583.663 37.8193 582.332 37.0437 580.687 37.0437H578.134C579.6 27.6898 592.44 20.2253 608.51 19.3952V20.8326C608.51 21.7925 609.841 22.5682 611.489 22.5682C613.137 22.5682 614.468 21.7925 614.468 20.8326V19.3952C621.706 19.769 628.289 21.4888 633.472 24.1209C639.797 27.3327 644.038 31.9029 644.844 37.0437H642.294C640.646 37.0437 639.315 37.8193 639.315 38.7793C639.315 39.7376 640.646 40.5148 642.294 40.5148H644.86C643.477 49.92 630.598 57.439 614.468 58.2707Z" fill="#FFE00F"/>
<path d="M629.226 27.634L611.588 38.4029L611.487 38.3997C611.267 38.3997 611.052 38.4126 610.843 38.4366L596.077 31.9384C595.101 31.5105 593.701 31.6195 592.955 32.1948C592.213 32.7653 592.402 33.5842 593.393 34.0184L608.15 40.5151C608.293 41.515 609.732 42.3035 611.487 42.3035C613.338 42.3035 614.837 41.4285 614.837 40.3516C614.837 40.3003 614.832 40.249 614.823 40.1994L632.461 29.4304C633.311 28.908 633.28 28.0875 632.386 27.5907C631.495 27.0924 630.081 27.1164 629.226 27.634Z" fill="#DCB000"/>
<path d="M196.387 121.172L176.26 118.374L167.043 129.58L138.309 92.1376L167.65 83.7295L196.387 121.172Z" fill="#4F8AD0"/>
<path d="M107.612 121.172L127.738 118.374L136.955 129.58L165.691 92.1377L136.351 83.7296L107.612 121.172Z" fill="#58ADE4"/>
<path d="M154.987 113.866L152.002 109.977L156.844 103.67C158.155 103.602 159.449 103.502 160.73 103.372L154.987 113.866Z" fill="#417FC7"/>
<path d="M202 73.5701C202 90.2559 179.864 103.782 152.556 103.782C125.247 103.782 103.111 90.2559 103.111 73.5701C103.111 56.8843 125.247 43.3579 152.556 43.3579C179.864 43.3579 202 56.8843 202 73.5701Z" fill="#BB2223"/>
<path d="M200.888 72.2124C200.888 88.8981 178.752 102.425 151.444 102.425C124.137 102.425 102 88.8981 102 72.2124C102 55.5266 124.137 42 151.444 42C178.752 42 200.888 55.5266 200.888 72.2124" fill="#EE532E"/>
<path d="M188.945 72.2122C188.945 84.8674 172.155 95.1262 151.444 95.1262C130.733 95.1262 113.946 84.8674 113.946 72.2122C113.946 59.5574 130.733 49.2984 151.444 49.2984C172.155 49.2984 188.945 59.5574 188.945 72.2122Z" fill="#E63D20"/>
<path d="M154.136 96.3097L156.401 94.9279C173.124 93.5789 186.369 85.498 188.611 75.2861L190.879 73.9027C190.448 86.1739 174.227 96.0698 154.136 96.3097V96.3097ZM148.005 96.08C144.174 95.7434 140.528 95.0526 137.162 94.0636L137.933 93.5936C137.933 93.5939 137.933 93.5941 137.936 93.5943C137.941 93.5959 137.949 93.5975 137.954 93.5989C137.962 93.6007 137.97 93.6027 137.978 93.6046C137.988 93.607 137.999 93.6094 138.009 93.6118C138.015 93.613 138.02 93.6144 138.025 93.6154C138.038 93.6185 138.052 93.6217 138.065 93.6248C138.068 93.6256 138.07 93.626 138.073 93.6267C138.089 93.6304 138.107 93.6343 138.12 93.6378L138.123 93.6381C141.722 94.4741 145.584 94.9812 149.616 95.0994L148.005 96.08V96.08ZM151.445 95.1264C151.015 95.1264 150.59 95.1222 150.167 95.1133C150.431 95.1186 150.693 95.1223 150.959 95.1244C150.981 95.1246 150.999 95.1248 151.018 95.1249H151.02C151.041 95.1251 151.06 95.1251 151.078 95.1252C151.078 95.1252 151.081 95.1252 151.084 95.1252C151.102 95.1254 151.118 95.1254 151.136 95.1256C151.139 95.1256 151.142 95.1256 151.144 95.1256C151.16 95.1257 151.179 95.1257 151.197 95.1259C151.2 95.1259 151.202 95.1259 151.205 95.1259C151.221 95.1259 151.239 95.126 151.255 95.126C151.258 95.126 151.26 95.126 151.263 95.126C151.282 95.126 151.297 95.126 151.313 95.126C151.316 95.126 151.321 95.1262 151.324 95.1262C151.342 95.1262 151.361 95.1262 151.377 95.1264C151.379 95.1264 151.382 95.1264 151.385 95.1264C151.406 95.1264 151.424 95.1264 151.445 95.1264V95.1264ZM151.445 95.1264C151.461 95.1264 151.48 95.1264 151.495 95.1264C151.48 95.1264 151.461 95.1264 151.445 95.1264ZM151.514 95.1264C151.527 95.1262 151.543 95.1262 151.556 95.1262C151.543 95.1262 151.527 95.1262 151.514 95.1264ZM151.583 95.126C151.593 95.126 151.601 95.126 151.612 95.126C151.601 95.126 151.593 95.126 151.583 95.126ZM151.641 95.126C151.643 95.126 151.646 95.126 151.649 95.126C151.646 95.126 151.643 95.126 151.641 95.126ZM136.143 93.138C136.143 93.1379 136.14 93.1377 136.14 93.1376L136.143 93.138ZM136.09 93.1238C136.085 93.1222 136.08 93.1206 136.074 93.1192C136.08 93.1206 136.085 93.1224 136.09 93.1238ZM136.043 93.1108C134.068 92.5666 132.185 91.9212 130.408 91.185L130.113 91.3664C129.542 91.0902 128.985 90.8038 128.444 90.5083L128.626 90.397C130.907 91.4669 133.392 92.3803 136.043 93.1108V93.1108ZM126.052 89.0738C126.013 89.0513 125.973 89.0288 125.933 89.0062C125.933 89.006 125.933 89.0062 125.933 89.0058C125.97 89.0283 126.013 89.0513 126.052 89.0738ZM188.904 71.1416C188.716 68.6343 187.866 66.2323 186.464 63.9986L187.238 63.5269C188.848 65.5862 189.97 67.8154 190.514 70.159L188.904 71.1416ZM182.538 59.3989C182.127 59.0264 181.696 58.6618 181.25 58.3053L181.435 58.1924C181.918 58.5248 182.388 58.8661 182.839 59.2156L182.538 59.3989" fill="#F17251"/>
<path d="M151.445 95.1263C151.461 95.1263 151.479 95.1263 151.497 95.1263C151.497 95.1263 151.497 95.1263 151.495 95.1263C151.479 95.1263 151.461 95.1263 151.445 95.1263ZM151.384 95.1263C151.382 95.1263 151.379 95.1263 151.377 95.1263C151.379 95.1263 151.382 95.1263 151.384 95.1263ZM151.511 95.1263C151.526 95.1262 151.545 95.1262 151.563 95.1262C151.56 95.1262 151.558 95.1262 151.555 95.1262C151.542 95.1262 151.526 95.1262 151.513 95.1263C151.513 95.1263 151.513 95.1263 151.511 95.1263ZM151.324 95.1262C151.321 95.1262 151.316 95.1262 151.313 95.1262C151.319 95.1262 151.321 95.1262 151.324 95.1262ZM151.576 95.1262C151.587 95.1262 151.603 95.1262 151.613 95.126H151.61C151.6 95.1262 151.592 95.1262 151.582 95.1262C151.579 95.1262 151.576 95.1262 151.576 95.1262V95.1262ZM151.264 95.126C151.261 95.126 151.258 95.126 151.256 95.126C151.258 95.126 151.261 95.126 151.264 95.126ZM151.634 95.126C151.647 95.126 151.658 95.1259 151.674 95.1259C151.663 95.1259 151.655 95.126 151.647 95.126C151.645 95.126 151.642 95.126 151.639 95.126C151.637 95.126 151.637 95.126 151.634 95.126ZM151.203 95.1259C151.2 95.1259 151.198 95.1259 151.195 95.1259C151.198 95.1259 151.2 95.1259 151.203 95.1259ZM151.708 95.1259C151.713 95.1259 151.718 95.1257 151.726 95.1257C151.721 95.1257 151.713 95.1259 151.708 95.1259ZM151.143 95.1257C151.143 95.1257 151.137 95.1257 151.137 95.1255C151.137 95.1257 151.143 95.1257 151.143 95.1257ZM151.082 95.1252C151.08 95.1252 151.08 95.1252 151.077 95.1252C151.08 95.1252 151.08 95.1252 151.082 95.1252ZM151.019 95.1249H151.016C151.019 95.1249 151.019 95.1249 151.019 95.1249ZM156.402 94.928V94.9277C173.12 93.5782 186.367 85.4968 188.609 75.2867V75.2862C186.369 85.4979 173.123 93.579 156.402 94.928V94.928ZM138.122 93.6382V93.6379C138.122 93.6379 138.122 93.6381 138.122 93.6382ZM138.072 93.6268C138.07 93.626 138.067 93.6255 138.064 93.6247C138.067 93.6255 138.07 93.626 138.072 93.6268ZM138.025 93.6154C138.02 93.6145 138.014 93.613 138.009 93.6119C138.014 93.613 138.02 93.6145 138.025 93.6154ZM137.978 93.6045C137.97 93.6026 137.962 93.6008 137.954 93.599C137.962 93.6008 137.97 93.6026 137.978 93.6045ZM137.935 93.5944C137.933 93.5941 137.933 93.5941 137.933 93.5937C137.933 93.5939 137.933 93.5941 137.935 93.5944ZM136.64 93.2719C136.474 93.2281 136.309 93.1832 136.143 93.138L136.14 93.1375C136.125 93.133 136.106 93.1285 136.09 93.1238C136.085 93.1224 136.08 93.1206 136.075 93.1192C136.064 93.1163 136.054 93.1135 136.043 93.1107C133.391 92.3802 130.905 91.4669 128.626 90.397V90.3965C131.076 91.5467 133.767 92.5161 136.64 93.2719V93.2719ZM127.793 89.9949C127.199 89.6989 126.615 89.3916 126.05 89.0738C126.011 89.0515 125.972 89.0284 125.932 89.0059C125.927 89.0032 125.922 89.0001 125.919 88.9974C126.526 89.3423 127.152 89.6748 127.793 89.9949ZM188.943 72.4127C188.943 72.4105 188.943 72.4089 188.943 72.4066C188.943 72.4086 188.943 72.4106 188.943 72.4127ZM188.943 72.3877C188.943 72.383 188.943 72.3784 188.943 72.3737C188.943 72.3784 188.943 72.383 188.943 72.3877ZM188.943 72.3511C188.943 72.344 188.943 72.3366 188.943 72.3295C188.943 72.3368 188.943 72.3438 188.943 72.3511ZM188.943 72.3173C188.943 72.309 188.943 72.2997 188.943 72.2913C188.943 72.3 188.943 72.3087 188.943 72.3173ZM188.943 72.2844C188.943 72.2743 188.943 72.2642 188.943 72.2541C188.943 72.2642 188.943 72.2743 188.943 72.2844ZM188.943 72.2449C188.943 72.2341 188.943 72.2232 188.943 72.2125C188.943 72.2232 188.943 72.2341 188.943 72.2449ZM188.903 71.1421C188.714 68.6348 187.865 66.2325 186.461 63.9991L186.464 63.9987C187.868 66.2324 188.714 68.6345 188.903 71.1416V71.1421V71.1421ZM186.143 63.5104C184.419 60.9453 181.954 58.6143 178.91 56.6158C178.921 56.621 178.929 56.6263 178.939 56.6314C179.751 57.1665 180.522 57.7252 181.25 58.3061V58.3053C181.694 58.6619 182.125 59.0264 182.537 59.399V59.3992C183.957 60.6833 185.168 62.0593 186.143 63.5104Z" fill="#EB5A44"/>
<path d="M117.278 73.5703C117.278 60.9157 134.068 50.6567 154.776 50.6567C161.752 50.6567 168.282 51.8219 173.876 53.849C167.62 50.991 159.855 49.2988 151.444 49.2988C130.733 49.2988 113.944 59.5577 113.944 72.2126C113.944 80.6054 121.331 87.9428 132.346 91.9342C123.199 87.7556 117.278 81.0857 117.278 73.5703" fill="#BB2223"/>
<path d="M107.607 86.2014C105.752 84.034 104.313 81.7127 103.359 79.2757C104.315 81.7121 105.755 84.034 107.609 86.2012L107.607 86.2014Z" fill="white"/>
<path d="M107.608 86.2014C105.753 84.0343 104.313 81.7123 103.359 79.2759C103.223 78.9304 103.099 78.5828 102.983 78.2328L113.958 71.5385C113.949 71.7627 113.943 71.9867 113.943 72.2125C113.943 75.0785 114.803 77.8203 116.376 80.3479C116.453 80.4707 116.529 80.5913 116.61 80.7131L107.608 86.2014" fill="#F17251"/>
<path d="M116.61 80.7131C116.529 80.5914 116.453 80.4707 116.376 80.3479C116.453 80.4701 116.529 80.5918 116.61 80.7129V80.7131" fill="#EB5A44"/>
<path d="M174.427 45.4548C171.104 44.387 167.556 43.5438 163.841 42.9576C167.559 43.5427 171.104 44.3861 174.427 45.4542V45.4548Z" fill="white"/>
<path d="M165.424 50.9441C162.064 50.1191 158.466 49.5824 154.708 49.3844V49.3843C154.67 49.3824 154.632 49.3804 154.594 49.3786C154.553 49.3764 154.513 49.3744 154.469 49.3723C154.469 49.3722 154.469 49.3722 154.469 49.3722C154.454 49.3714 154.439 49.3706 154.424 49.37C154.421 49.3699 154.419 49.3697 154.416 49.3697C154.355 49.3668 154.294 49.3638 154.231 49.3612C154.228 49.361 154.228 49.361 154.226 49.3609C154.213 49.3602 154.198 49.3595 154.185 49.359C154.18 49.3589 154.177 49.3587 154.175 49.3585C154.162 49.3579 154.144 49.3573 154.134 49.3568C154.129 49.3567 154.127 49.3565 154.122 49.3564C154.078 49.3544 154.033 49.3525 153.99 49.3506C153.987 49.3506 153.987 49.3505 153.984 49.3505C153.972 49.35 153.959 49.3494 153.944 49.3489C153.941 49.3488 153.936 49.3486 153.931 49.3483C153.918 49.3478 153.906 49.3472 153.893 49.3467C153.888 49.3466 153.883 49.3464 153.88 49.3463C153.868 49.3458 153.852 49.3452 153.84 49.3447C153.837 49.3447 153.835 49.3446 153.832 49.3444C153.804 49.3433 153.779 49.3424 153.748 49.3413C153.746 49.3412 153.743 49.3412 153.741 49.341C153.731 49.3405 153.718 49.3401 153.705 49.3398C153.7 49.3395 153.695 49.3393 153.69 49.3391C153.677 49.3387 153.664 49.3382 153.654 49.3377C153.647 49.3376 153.642 49.3373 153.634 49.3371C153.624 49.3367 153.611 49.3364 153.601 49.3359C153.596 49.3357 153.591 49.3356 153.583 49.3354C153.545 49.334 153.507 49.3328 153.466 49.3315C153.459 49.3312 153.454 49.3311 153.446 49.3308C153.436 49.3305 153.423 49.3301 153.416 49.3298C153.408 49.3295 153.4 49.3294 153.393 49.3291C153.38 49.3287 153.37 49.3284 153.36 49.3281C153.352 49.3278 153.345 49.3277 153.337 49.3274C153.327 49.327 153.317 49.3267 153.306 49.3266C153.296 49.3261 153.284 49.3258 153.273 49.3255C153.258 49.325 153.243 49.3246 153.23 49.3242C153.22 49.3239 153.213 49.3238 153.205 49.3235C153.192 49.3232 153.185 49.323 153.174 49.3227C153.167 49.3224 153.157 49.3222 153.146 49.3219C153.139 49.3218 153.129 49.3215 153.121 49.3211C153.111 49.321 153.101 49.3207 153.093 49.3205C153.083 49.3202 153.075 49.3199 153.065 49.3197C153.055 49.3194 153.045 49.3191 153.035 49.319C153.02 49.3185 153.007 49.3182 152.992 49.3179C152.981 49.3176 152.971 49.3174 152.961 49.3171C152.951 49.317 152.943 49.3166 152.936 49.3165C152.926 49.3162 152.915 49.316 152.905 49.3159C152.895 49.3156 152.887 49.3154 152.88 49.3152C152.87 49.3149 152.86 49.3148 152.849 49.3145C152.842 49.3143 152.832 49.314 152.824 49.3139C152.811 49.3137 152.801 49.3134 152.791 49.3132C152.783 49.3131 152.776 49.3129 152.771 49.3128C152.753 49.3123 152.735 49.312 152.717 49.3117C152.71 49.3115 152.702 49.3114 152.695 49.3112C152.684 49.3111 152.674 49.3108 152.662 49.3106C152.654 49.3104 152.646 49.3103 152.639 49.3101C152.626 49.31 152.616 49.3097 152.608 49.3095C152.598 49.3094 152.59 49.3092 152.583 49.309C152.57 49.3089 152.56 49.3087 152.55 49.3084C152.542 49.3083 152.532 49.3081 152.527 49.3081C152.509 49.3078 152.491 49.3075 152.474 49.3072C152.469 49.307 152.466 49.307 152.458 49.3069C152.446 49.3067 152.43 49.3066 152.418 49.3062C152.41 49.3061 152.405 49.3061 152.397 49.3059C152.387 49.3058 152.375 49.3056 152.362 49.3055C152.354 49.3053 152.349 49.3052 152.339 49.3052C152.329 49.305 152.316 49.3049 152.306 49.3047C152.298 49.3045 152.293 49.3044 152.286 49.3044C152.27 49.3042 152.255 49.3039 152.24 49.3038C152.235 49.3038 152.227 49.3036 152.222 49.3036C152.207 49.3033 152.192 49.3031 152.177 49.303C152.169 49.303 152.164 49.3028 152.156 49.3028C152.144 49.3025 152.131 49.3024 152.121 49.3024C152.113 49.3022 152.105 49.3022 152.098 49.3021C152.085 49.3019 152.075 49.3019 152.062 49.3018C152.055 49.3016 152.047 49.3016 152.042 49.3016C152.027 49.3014 152.014 49.3013 151.999 49.3011C151.996 49.3011 151.991 49.3011 151.986 49.301C151.968 49.3008 151.951 49.3007 151.93 49.3005C151.925 49.3005 151.923 49.3005 151.918 49.3005C151.905 49.3004 151.89 49.3002 151.877 49.3002C151.869 49.3002 151.862 49.3 151.854 49.3C151.844 49.3 151.831 49.2999 151.818 49.2999C151.813 49.2997 151.806 49.2997 151.801 49.2997C151.785 49.2996 151.773 49.2996 151.76 49.2994C151.755 49.2994 151.747 49.2994 151.742 49.2994C151.725 49.2993 151.707 49.2993 151.689 49.2991C151.686 49.2991 151.679 49.2991 151.676 49.2991C151.674 49.2991 151.671 49.2991 151.669 49.2991C151.656 49.2991 151.646 49.299 151.633 49.299C151.628 49.299 151.623 49.299 151.618 49.299C151.615 49.299 151.613 49.299 151.61 49.299C151.6 49.299 151.587 49.2988 151.575 49.2988C151.57 49.2988 151.565 49.2988 151.559 49.2988C151.557 49.2988 151.554 49.2988 151.554 49.2988C151.542 49.2988 151.529 49.2988 151.519 49.2988C151.511 49.2988 151.509 49.2988 151.501 49.2988H151.499C151.478 49.2986 151.46 49.2986 151.443 49.2986C151.427 49.2986 151.412 49.2986 151.397 49.2988C151.069 49.299 150.742 49.3017 150.414 49.3072L161.391 42.6129C162.217 42.7155 163.032 42.8306 163.842 42.9578C167.557 43.544 171.101 44.3873 174.425 45.4551L165.424 50.9441" fill="#F17251"/>
<path d="M165.425 50.9441C162.911 50.3265 160.263 49.8705 157.513 49.5972C157.511 49.5969 157.506 49.5964 157.503 49.5961C157.491 49.5947 157.476 49.5934 157.461 49.592C157.456 49.5915 157.451 49.5909 157.446 49.5905C157.434 49.5893 157.424 49.5882 157.411 49.587C157.404 49.5864 157.399 49.5858 157.391 49.5852C157.381 49.5841 157.369 49.5829 157.357 49.5818C157.352 49.5812 157.347 49.5806 157.339 49.5802C157.327 49.579 157.314 49.5777 157.302 49.5765C157.292 49.5756 157.282 49.5745 157.272 49.5736C157.26 49.5726 157.25 49.5715 157.24 49.5705C157.23 49.5695 157.22 49.5688 157.21 49.5677C157.202 49.5671 157.198 49.5664 157.188 49.5656C157.178 49.5648 157.168 49.5638 157.158 49.5629C157.15 49.5623 157.145 49.5615 157.138 49.5609C157.128 49.56 157.118 49.5591 157.108 49.5582C157.101 49.5575 157.093 49.5569 157.088 49.5563C157.076 49.5553 157.066 49.5544 157.056 49.5533C157.048 49.5528 157.046 49.5524 157.041 49.5521C156.984 49.5468 156.927 49.5416 156.867 49.5365C156.865 49.5363 156.862 49.536 156.86 49.5357C156.847 49.5346 156.832 49.5334 156.82 49.5322C156.817 49.5321 156.813 49.5317 156.81 49.5314C156.798 49.5302 156.783 49.529 156.77 49.528C156.768 49.5277 156.765 49.5275 156.763 49.5272C156.686 49.5207 156.609 49.514 156.532 49.5076C156.532 49.5076 156.529 49.5076 156.529 49.5075C156.514 49.5062 156.5 49.5049 156.485 49.5038C156.485 49.5037 156.482 49.5035 156.482 49.5035C156.465 49.5021 156.452 49.5009 156.435 49.4997C156.435 49.4997 156.435 49.4997 156.432 49.4996C156.355 49.4932 156.276 49.487 156.199 49.4809C156.199 49.4809 156.196 49.4809 156.196 49.4807C156.182 49.4797 156.167 49.4785 156.149 49.4773C156.149 49.4773 156.149 49.4773 156.149 49.4771C156.07 49.471 155.99 49.4651 155.911 49.4593C155.896 49.4583 155.881 49.4572 155.866 49.4562C155.864 49.456 155.861 49.456 155.861 49.4559C155.846 49.4548 155.831 49.4537 155.816 49.4527C155.816 49.4525 155.814 49.4524 155.811 49.4524C155.737 49.4469 155.657 49.4416 155.583 49.4364C155.578 49.4363 155.575 49.4361 155.573 49.4358C155.561 49.4349 155.546 49.4341 155.533 49.4332C155.531 49.4329 155.526 49.4328 155.523 49.4325C155.508 49.4317 155.496 49.4308 155.484 49.4299C155.481 49.4298 155.476 49.4294 155.474 49.4293C155.461 49.4284 155.446 49.4275 155.431 49.4266C155.387 49.4237 155.344 49.4209 155.297 49.4181C155.295 49.4178 155.29 49.4176 155.285 49.4173C155.275 49.4167 155.262 49.4159 155.253 49.4152C155.245 49.4149 155.24 49.4146 155.233 49.4141C155.223 49.4134 155.213 49.4127 155.203 49.4121C155.195 49.4118 155.188 49.4112 155.181 49.4109C155.171 49.4103 155.161 49.4097 155.148 49.409C155.143 49.4086 155.136 49.4082 155.131 49.4079C155.118 49.4071 155.108 49.4065 155.099 49.4059C155.091 49.4056 155.084 49.405 155.076 49.4047C155.059 49.4036 155.039 49.4024 155.022 49.4015C155.014 49.4011 155.007 49.4005 154.999 49.4002C154.989 49.3995 154.979 49.3991 154.969 49.3985C154.962 49.398 154.954 49.3976 154.947 49.3971C154.937 49.3967 154.927 49.3961 154.92 49.3956C154.91 49.3951 154.9 49.3947 154.892 49.3941C154.885 49.3936 154.875 49.3932 154.868 49.3927C154.858 49.3921 154.848 49.3916 154.838 49.3912C154.83 49.3907 154.823 49.3903 154.815 49.3898C154.803 49.3892 154.796 49.3888 154.786 49.3883C154.778 49.3879 154.768 49.3874 154.761 49.3869C154.746 49.3862 154.726 49.3851 154.711 49.3842C158.467 49.5823 162.066 50.119 165.425 50.9439V50.9441V50.9441ZM154.709 49.3842C154.706 49.3841 154.704 49.3839 154.699 49.3838C154.686 49.383 154.671 49.3822 154.656 49.3815C154.651 49.3812 154.646 49.3809 154.639 49.3806C154.627 49.38 154.617 49.3794 154.604 49.3788C154.602 49.3786 154.599 49.3784 154.597 49.3783C154.634 49.3803 154.671 49.3822 154.709 49.3842V49.3842ZM154.597 49.3783C154.592 49.3781 154.587 49.378 154.584 49.3777C154.572 49.3771 154.562 49.3766 154.55 49.376C154.545 49.3757 154.537 49.3754 154.532 49.3751C154.517 49.3745 154.505 49.3739 154.495 49.3733C154.49 49.373 154.483 49.3727 154.478 49.3725C154.475 49.3724 154.473 49.3722 154.47 49.3721C154.512 49.3742 154.555 49.3762 154.597 49.3783ZM154.47 49.3721C154.455 49.3713 154.44 49.3706 154.425 49.3698C154.44 49.3706 154.455 49.3713 154.47 49.3721ZM154.418 49.3695C154.383 49.3678 154.348 49.3663 154.314 49.3646C154.314 49.3646 154.311 49.3645 154.306 49.3643C154.291 49.3636 154.276 49.363 154.259 49.3622C154.256 49.3621 154.254 49.3619 154.249 49.3617C154.244 49.3614 154.239 49.3611 154.232 49.361C154.294 49.3637 154.356 49.3666 154.418 49.3695ZM154.227 49.3607C154.219 49.3604 154.212 49.3599 154.204 49.3596C154.199 49.3595 154.197 49.3595 154.194 49.3593C154.192 49.3592 154.189 49.359 154.184 49.3589C154.197 49.3595 154.214 49.3601 154.227 49.3607V49.3607ZM154.174 49.3584C154.165 49.358 154.152 49.3575 154.142 49.3569C154.14 49.3567 154.137 49.3567 154.135 49.3566C154.147 49.3572 154.162 49.3578 154.174 49.3584V49.3584ZM154.122 49.3561C154.078 49.3542 154.035 49.3523 153.991 49.3505C154.035 49.3523 154.08 49.3542 154.122 49.3561ZM153.986 49.3504C153.971 49.3498 153.961 49.3493 153.946 49.3487C153.961 49.3493 153.971 49.3498 153.986 49.3504ZM153.931 49.3481C153.926 49.3479 153.921 49.3478 153.916 49.3475C153.914 49.3475 153.914 49.3475 153.911 49.3473C153.906 49.3472 153.899 49.3469 153.894 49.3467C153.906 49.3472 153.921 49.3476 153.931 49.3481V49.3481ZM153.879 49.3461C153.866 49.3457 153.854 49.3452 153.842 49.3446C153.854 49.3451 153.866 49.3457 153.879 49.3461ZM153.832 49.3443C153.804 49.3432 153.777 49.3422 153.75 49.3411C153.78 49.3423 153.804 49.3432 153.832 49.3443ZM153.742 49.341C153.73 49.3405 153.717 49.34 153.707 49.3396C153.717 49.34 153.73 49.3405 153.742 49.341ZM153.69 49.339C153.678 49.3385 153.665 49.3381 153.655 49.3376C153.665 49.3381 153.678 49.3385 153.69 49.339ZM153.635 49.337C153.623 49.3366 153.613 49.3363 153.601 49.3358C153.613 49.3363 153.623 49.3366 153.635 49.337ZM153.583 49.3352C153.546 49.334 153.506 49.3326 153.469 49.3314C153.506 49.3326 153.546 49.334 153.583 49.3352ZM153.447 49.3306C153.437 49.3303 153.424 49.33 153.414 49.3297C153.424 49.33 153.437 49.3303 153.447 49.3306ZM153.392 49.329C153.382 49.3287 153.372 49.3284 153.362 49.3281C153.372 49.3284 153.382 49.3287 153.392 49.329ZM153.337 49.3273C153.327 49.327 153.318 49.3265 153.308 49.3264C153.318 49.3265 153.327 49.327 153.337 49.3273ZM153.273 49.3253C153.26 49.325 153.245 49.3244 153.231 49.3241C153.245 49.3244 153.26 49.325 153.273 49.3253ZM153.206 49.3234C153.193 49.323 153.186 49.3227 153.176 49.3224C153.186 49.3227 153.193 49.323 153.206 49.3234ZM153.149 49.3218C153.139 49.3215 153.129 49.3214 153.121 49.3211C153.129 49.3212 153.141 49.3215 153.149 49.3218ZM153.094 49.3203C153.084 49.32 153.074 49.3199 153.067 49.3196C153.077 49.3199 153.084 49.32 153.094 49.3203ZM153.037 49.3188C153.022 49.3185 153.007 49.3182 152.995 49.3177C153.009 49.3182 153.019 49.3185 153.037 49.3188ZM152.962 49.317C152.952 49.3168 152.942 49.3165 152.935 49.3164C152.945 49.3165 152.952 49.3168 152.962 49.317ZM152.905 49.3158C152.898 49.3155 152.888 49.3152 152.88 49.315C152.89 49.3153 152.898 49.3155 152.905 49.3158ZM152.851 49.3144C152.841 49.3142 152.833 49.3141 152.826 49.3138C152.833 49.3139 152.843 49.3142 152.851 49.3144ZM152.791 49.313C152.786 49.3129 152.778 49.3127 152.771 49.3126C152.778 49.3127 152.783 49.3129 152.791 49.313ZM152.719 49.3115C152.711 49.3114 152.704 49.3112 152.697 49.3111C152.701 49.3112 152.711 49.3114 152.719 49.3115ZM152.662 49.3104C152.654 49.3103 152.647 49.3101 152.639 49.31C152.647 49.3101 152.654 49.3103 152.662 49.3104ZM152.61 49.3094C152.6 49.3092 152.59 49.3091 152.582 49.3089C152.592 49.3091 152.6 49.3092 152.61 49.3094ZM152.55 49.3083C152.543 49.3082 152.535 49.308 152.528 49.308C152.535 49.308 152.543 49.3082 152.55 49.3083ZM152.475 49.307C152.47 49.307 152.465 49.3068 152.461 49.3068C152.465 49.3068 152.468 49.307 152.475 49.307ZM152.421 49.3062C152.411 49.306 152.406 49.3059 152.398 49.3059C152.406 49.3059 152.411 49.306 152.421 49.3062ZM152.364 49.3053C152.356 49.3053 152.349 49.3051 152.341 49.305C152.349 49.3051 152.356 49.3053 152.364 49.3053ZM152.307 49.3045C152.299 49.3044 152.292 49.3042 152.287 49.3042C152.294 49.3042 152.299 49.3044 152.307 49.3045ZM152.242 49.3036C152.234 49.3036 152.23 49.3035 152.222 49.3035C152.23 49.3035 152.234 49.3036 152.242 49.3036ZM152.177 49.3029C152.17 49.3029 152.162 49.3027 152.157 49.3027C152.162 49.3027 152.17 49.3029 152.177 49.3029ZM152.12 49.3023C152.113 49.3021 152.108 49.3021 152.1 49.3019C152.108 49.3021 152.113 49.3021 152.12 49.3023ZM152.063 49.3016C152.056 49.3015 152.051 49.3015 152.043 49.3015C152.048 49.3015 152.056 49.3015 152.063 49.3016ZM152.001 49.301C151.996 49.301 151.994 49.301 151.986 49.3009C151.991 49.301 151.996 49.301 152.001 49.301ZM151.931 49.3004C151.929 49.3004 151.924 49.3004 151.917 49.3003C151.924 49.3004 151.926 49.3004 151.931 49.3004ZM151.877 49.3C151.869 49.3 151.864 49.3 151.857 49.3C151.862 49.3 151.869 49.3 151.877 49.3ZM151.82 49.2997C151.812 49.2997 151.807 49.2997 151.8 49.2995C151.805 49.2997 151.812 49.2997 151.82 49.2997ZM151.76 49.2994C151.755 49.2994 151.75 49.2994 151.745 49.2992C151.75 49.2994 151.755 49.2994 151.76 49.2994ZM151.688 49.2991C151.686 49.2991 151.681 49.2991 151.678 49.2991C151.681 49.2991 151.686 49.2991 151.688 49.2991ZM151.633 49.2989C151.628 49.2989 151.626 49.2989 151.623 49.2989C151.621 49.2989 151.621 49.2988 151.618 49.2988C151.623 49.2989 151.628 49.2989 151.633 49.2989ZM151.576 49.2988C151.574 49.2988 151.571 49.2988 151.569 49.2988C151.566 49.2988 151.564 49.2988 151.561 49.2988C151.566 49.2988 151.571 49.2988 151.576 49.2988V49.2988ZM151.519 49.2986C151.517 49.2986 151.514 49.2986 151.512 49.2986C151.509 49.2986 151.507 49.2986 151.502 49.2986C151.509 49.2986 151.512 49.2986 151.519 49.2986" fill="#EB5A44"/>
<path d="M165.422 50.9448C162.911 50.3266 160.263 49.8705 157.513 49.5971C160.263 49.8705 162.911 50.3265 165.425 50.9441L165.422 50.9448ZM157.503 49.5961C157.491 49.5947 157.476 49.5933 157.461 49.592C157.476 49.5933 157.491 49.5947 157.503 49.5961ZM157.446 49.5905C157.434 49.5892 157.424 49.5882 157.411 49.587C157.424 49.5882 157.434 49.5892 157.446 49.5905ZM157.391 49.5852C157.381 49.5841 157.369 49.583 157.357 49.5818C157.369 49.5829 157.381 49.5841 157.391 49.5852ZM157.339 49.5801C157.327 49.5788 157.314 49.5777 157.302 49.5765C157.314 49.5777 157.327 49.5789 157.339 49.5801ZM157.272 49.5736C157.26 49.5726 157.25 49.5715 157.24 49.5704C157.25 49.5715 157.26 49.5726 157.272 49.5736ZM157.21 49.5677C157.203 49.5671 157.195 49.5663 157.188 49.5656C157.198 49.5663 157.203 49.5671 157.21 49.5677ZM157.158 49.5628C157.15 49.5622 157.145 49.5615 157.138 49.5609C157.145 49.5615 157.15 49.5622 157.158 49.5628ZM157.108 49.5581C157.101 49.5575 157.093 49.5569 157.088 49.5563C157.093 49.5569 157.101 49.5575 157.108 49.5581ZM157.056 49.5533C157.051 49.5528 157.046 49.5524 157.041 49.5521C157.046 49.5524 157.049 49.5528 157.056 49.5533ZM156.867 49.5364C156.865 49.5363 156.862 49.536 156.86 49.5357C156.862 49.536 156.865 49.5363 156.867 49.5364ZM156.82 49.5322C156.818 49.532 156.813 49.5317 156.81 49.5314C156.813 49.5317 156.818 49.532 156.82 49.5322ZM156.77 49.5279C156.768 49.5276 156.765 49.5275 156.763 49.5272C156.765 49.5275 156.768 49.5276 156.77 49.5279ZM156.532 49.5076C156.532 49.5076 156.529 49.5076 156.529 49.5074C156.529 49.5076 156.532 49.5076 156.532 49.5076ZM156.485 49.5038C156.485 49.5036 156.482 49.5035 156.482 49.5035C156.482 49.5035 156.485 49.5036 156.485 49.5038ZM156.435 49.4997C156.435 49.4997 156.435 49.4997 156.433 49.4995C156.435 49.4997 156.435 49.4997 156.435 49.4997ZM156.199 49.4809L156.197 49.4807C156.197 49.4809 156.199 49.4809 156.199 49.4809ZM156.149 49.4772V49.4771C156.149 49.4772 156.149 49.4772 156.149 49.4772ZM155.866 49.4561C155.864 49.456 155.861 49.456 155.861 49.4558C155.861 49.456 155.864 49.456 155.866 49.4561ZM155.816 49.4526C155.816 49.4525 155.814 49.4523 155.812 49.4523C155.814 49.4523 155.816 49.4525 155.816 49.4526ZM155.583 49.4364C155.578 49.4363 155.576 49.4361 155.573 49.4358C155.576 49.4361 155.578 49.4363 155.583 49.4364ZM155.533 49.4332C155.531 49.4329 155.526 49.4328 155.523 49.4325C155.526 49.4328 155.531 49.4329 155.533 49.4332ZM155.484 49.4299C155.479 49.4297 155.476 49.4296 155.474 49.4293C155.476 49.4294 155.481 49.4297 155.484 49.4299ZM155.297 49.418C155.295 49.4177 155.29 49.4176 155.285 49.4173C155.29 49.4176 155.295 49.4177 155.297 49.418ZM155.253 49.4152C155.245 49.4149 155.24 49.4144 155.233 49.4141C155.24 49.4145 155.245 49.4149 155.253 49.4152ZM155.203 49.4121C155.193 49.4117 155.188 49.4114 155.181 49.4109C155.188 49.4112 155.195 49.4118 155.203 49.4121ZM155.148 49.4089C155.143 49.4086 155.136 49.4082 155.131 49.4079C155.136 49.4082 155.143 49.4086 155.148 49.4089ZM155.099 49.4059C155.091 49.4056 155.084 49.405 155.076 49.4047C155.084 49.405 155.091 49.4056 155.099 49.4059ZM155.022 49.4015C155.014 49.401 155.007 49.4006 154.999 49.4001C155.007 49.4004 155.014 49.401 155.022 49.4015ZM154.969 49.3985C154.962 49.398 154.955 49.3975 154.947 49.3971C154.955 49.3975 154.962 49.398 154.969 49.3985ZM154.92 49.3956C154.91 49.3951 154.9 49.3947 154.892 49.3941C154.9 49.3947 154.91 49.3951 154.92 49.3956ZM154.868 49.3927C154.858 49.3921 154.848 49.3916 154.838 49.3912C154.848 49.3916 154.858 49.3921 154.868 49.3927ZM154.815 49.3898C154.803 49.3892 154.796 49.3887 154.786 49.3883C154.796 49.3887 154.803 49.3892 154.815 49.3898ZM154.761 49.3869C154.746 49.386 154.728 49.3851 154.711 49.3842C154.726 49.3851 154.746 49.3862 154.761 49.3869ZM154.699 49.3837C154.686 49.383 154.671 49.3822 154.656 49.3815C154.671 49.3822 154.686 49.383 154.699 49.3837ZM154.639 49.3806C154.627 49.3799 154.617 49.3793 154.604 49.3787C154.617 49.3793 154.627 49.3799 154.639 49.3806ZM154.584 49.3777C154.572 49.3771 154.562 49.3766 154.55 49.376C154.562 49.3766 154.572 49.3771 154.584 49.3777ZM154.532 49.3751C154.517 49.3745 154.505 49.3739 154.495 49.3733C154.505 49.3739 154.517 49.3745 154.532 49.3751ZM154.478 49.3725C154.423 49.3698 154.368 49.3672 154.314 49.3646C154.348 49.3663 154.383 49.3678 154.418 49.3695C154.42 49.3696 154.423 49.3698 154.425 49.3698C154.44 49.3705 154.455 49.3713 154.47 49.372C154.473 49.3722 154.475 49.3724 154.478 49.3725V49.3725ZM154.306 49.3643C154.291 49.3635 154.276 49.3629 154.259 49.3622C154.276 49.3629 154.291 49.3635 154.306 49.3643ZM154.249 49.3617C154.234 49.361 154.219 49.3604 154.204 49.3596C154.212 49.3599 154.219 49.3604 154.227 49.3607C154.229 49.3608 154.229 49.3608 154.232 49.361C154.239 49.3611 154.244 49.3614 154.249 49.3617V49.3617ZM154.194 49.3593C154.177 49.3585 154.16 49.3578 154.142 49.3569C154.152 49.3575 154.165 49.3579 154.175 49.3584C154.18 49.3585 154.182 49.3587 154.184 49.3588C154.189 49.359 154.192 49.3591 154.194 49.3593V49.3593ZM154.142 49.3569C154.068 49.3537 153.991 49.3505 153.916 49.3475C153.921 49.3478 153.926 49.3479 153.931 49.3481C153.936 49.3484 153.941 49.3485 153.946 49.3487C153.961 49.3493 153.971 49.3497 153.986 49.3503C153.988 49.3503 153.988 49.3503 153.991 49.3505C154.035 49.3523 154.078 49.3541 154.122 49.3561C154.127 49.3563 154.132 49.3564 154.135 49.3566C154.137 49.3567 154.14 49.3567 154.142 49.3569ZM153.911 49.3473C153.174 49.318 152.428 49.3018 151.678 49.299C151.681 49.299 151.686 49.299 151.688 49.299C151.705 49.299 151.725 49.2992 151.745 49.2992C151.75 49.2993 151.755 49.2993 151.76 49.2993C151.773 49.2993 151.787 49.2995 151.8 49.2995C151.807 49.2996 151.812 49.2996 151.82 49.2996C151.832 49.2998 151.845 49.2998 151.857 49.3C151.864 49.3 151.869 49.3 151.877 49.3C151.892 49.3001 151.904 49.3003 151.917 49.3003C151.924 49.3004 151.929 49.3004 151.932 49.3004C151.951 49.3006 151.969 49.3007 151.986 49.3009C151.994 49.301 151.996 49.301 152.001 49.301C152.013 49.3012 152.028 49.3013 152.043 49.3015C152.051 49.3015 152.056 49.3015 152.063 49.3016C152.076 49.3018 152.086 49.3018 152.1 49.3019C152.108 49.3021 152.113 49.3021 152.12 49.3022C152.133 49.3022 152.145 49.3024 152.158 49.3027C152.163 49.3027 152.17 49.3028 152.177 49.3028C152.192 49.303 152.207 49.3031 152.222 49.3034C152.23 49.3034 152.235 49.3036 152.242 49.3036C152.257 49.3037 152.269 49.304 152.287 49.3042C152.292 49.3042 152.299 49.3044 152.307 49.3045C152.319 49.3047 152.329 49.3048 152.341 49.305C152.349 49.3051 152.356 49.3053 152.364 49.3053C152.374 49.3054 152.389 49.3057 152.398 49.3059C152.406 49.3059 152.411 49.306 152.421 49.3062C152.433 49.3063 152.446 49.3065 152.461 49.3068C152.466 49.3068 152.471 49.3069 152.476 49.3069C152.493 49.3074 152.51 49.3077 152.528 49.308C152.535 49.308 152.543 49.3081 152.55 49.3083C152.56 49.3084 152.572 49.3086 152.582 49.3089C152.59 49.3091 152.6 49.3092 152.61 49.3094C152.617 49.3095 152.627 49.3098 152.639 49.31C152.647 49.3101 152.654 49.3103 152.662 49.3104C152.674 49.3106 152.684 49.3109 152.697 49.311C152.704 49.3112 152.711 49.3113 152.719 49.3115C152.736 49.3119 152.754 49.3122 152.771 49.3126C152.779 49.3127 152.786 49.3129 152.791 49.313C152.803 49.3133 152.813 49.3135 152.826 49.3138C152.833 49.3141 152.841 49.3142 152.851 49.3144C152.861 49.3145 152.87 49.3148 152.88 49.315C152.888 49.3151 152.898 49.3154 152.905 49.3157C152.915 49.3159 152.925 49.316 152.935 49.3163C152.942 49.3165 152.952 49.3168 152.962 49.3169C152.972 49.3173 152.982 49.3174 152.995 49.3177C153.007 49.3182 153.022 49.3185 153.037 49.3188C153.047 49.3191 153.054 49.3194 153.067 49.3195C153.074 49.3198 153.084 49.32 153.094 49.3203C153.104 49.3206 153.111 49.3207 153.121 49.321C153.129 49.3213 153.139 49.3215 153.149 49.3218C153.156 49.322 153.169 49.3223 153.176 49.3224C153.186 49.3227 153.193 49.323 153.206 49.3233C153.213 49.3236 153.221 49.3238 153.231 49.3241C153.246 49.3244 153.26 49.325 153.273 49.3253C153.285 49.3256 153.295 49.3259 153.308 49.3264C153.318 49.3265 153.328 49.327 153.337 49.3273C153.345 49.3274 153.355 49.3277 153.362 49.328C153.372 49.3283 153.382 49.3286 153.392 49.3289C153.4 49.3292 153.407 49.3294 153.414 49.3297C153.424 49.33 153.437 49.3303 153.447 49.3306C153.454 49.3309 153.462 49.3312 153.469 49.3314C153.506 49.3326 153.546 49.3339 153.583 49.3352C153.591 49.3353 153.596 49.3356 153.601 49.3358C153.613 49.3362 153.623 49.3365 153.636 49.337C153.643 49.3371 153.648 49.3374 153.655 49.3376C153.665 49.3381 153.678 49.3385 153.69 49.339C153.695 49.3391 153.7 49.3393 153.708 49.3396C153.717 49.34 153.73 49.3405 153.742 49.3409C153.745 49.3409 153.747 49.3411 153.75 49.3411C153.777 49.3421 153.804 49.3432 153.832 49.3443C153.837 49.3444 153.839 49.3446 153.842 49.3446C153.854 49.3452 153.867 49.3456 153.879 49.3461C153.884 49.3462 153.889 49.3466 153.894 49.3467C153.899 49.3469 153.906 49.3472 153.911 49.3473V49.3473ZM150.416 49.3071C150.742 49.3016 151.07 49.2989 151.4 49.2986C151.07 49.2989 150.742 49.3022 150.416 49.3071ZM151.671 49.299C151.653 49.2989 151.641 49.2989 151.623 49.2989C151.626 49.2989 151.628 49.2989 151.633 49.2989C151.646 49.2989 151.658 49.2989 151.671 49.299ZM151.611 49.2987C151.596 49.2987 151.581 49.2987 151.569 49.2987C151.571 49.2987 151.574 49.2987 151.576 49.2987C151.589 49.2987 151.599 49.2987 151.611 49.2987V49.2987ZM151.554 49.2987C151.542 49.2986 151.527 49.2986 151.512 49.2986C151.514 49.2986 151.517 49.2986 151.519 49.2986C151.532 49.2986 151.542 49.2986 151.554 49.2987V49.2987ZM151.499 49.2986C151.479 49.2984 151.462 49.2984 151.445 49.2984C151.462 49.2984 151.479 49.2984 151.499 49.2986Z" fill="#CA3F32"/>
<path d="M120.113 95.5862C119.303 95.18 118.514 94.7583 117.748 94.322C118.514 94.7577 119.303 95.1804 120.113 95.5862Z" fill="#CA3F32"/>
<path d="M120.114 95.5864C119.303 95.1805 118.513 94.7578 117.748 94.3223C116.988 93.889 116.252 93.4418 115.538 92.981L123.994 87.8244C124.614 88.2324 125.262 88.6269 125.932 89.0063C126.729 89.5305 127.567 90.0318 128.442 90.5084L120.114 95.5864" fill="#F17251"/>
<path d="M128.625 90.3965C128.347 90.2651 128.069 90.131 127.794 89.9948C128.069 90.131 128.347 90.2647 128.627 90.3959L128.625 90.3965Z" fill="#EB5A44"/>
<path d="M128.442 90.5083C127.568 90.0317 126.73 89.5305 125.931 89.0063C125.971 89.0288 126.012 89.0514 126.05 89.0738C126.877 89.538 127.735 89.9793 128.625 90.3971L128.442 90.5083" fill="#F48F74"/>
<path d="M128.625 90.3971C127.735 89.9793 126.877 89.538 126.05 89.0738C126.615 89.3917 127.197 89.699 127.794 89.995C128.067 90.1311 128.345 90.2652 128.625 90.3965V90.3971" fill="#EF7967"/>
<path d="M181.435 58.1925C180.647 57.6501 179.815 57.1312 178.949 56.6367C178.338 56.2346 177.703 55.846 177.048 55.4714L185.506 50.3136C187.017 51.1912 188.439 52.1281 189.759 53.1159L181.435 58.1925Z" fill="#F17251"/>
<path d="M178.948 56.6367C178.945 56.635 178.94 56.6331 178.937 56.6314C178.332 56.2316 177.7 55.8449 177.048 55.4719V55.4715C177.705 55.846 178.337 56.2345 178.948 56.6367Z" fill="#EB5A44"/>
<path d="M181.25 58.3054C180.525 57.7267 179.758 57.1703 178.947 56.6368C179.817 57.1312 180.646 57.6501 181.433 58.1926L181.25 58.3054" fill="#F48F74"/>
<path d="M181.251 58.306C180.523 57.725 179.754 57.1664 178.941 56.6312C178.943 56.633 178.946 56.6349 178.948 56.6366C179.759 57.17 180.525 57.7264 181.251 58.3052V58.306" fill="#EF7967"/>
<path d="M128.889 99.1067C126.41 98.3275 124.05 97.4263 121.836 96.4127L121.838 96.4119C124.053 97.4255 126.41 98.3275 128.891 99.1059L128.889 99.1067" fill="#CA3F32"/>
<path d="M128.892 99.1058C126.41 98.3274 124.053 97.4255 121.84 96.4119L130.112 91.3664C132.281 92.4167 134.643 93.3237 137.162 94.0636L128.892 99.1058V99.1058ZM137.9 93.586C137.898 93.5857 137.898 93.5854 137.896 93.5853C137.898 93.5854 137.898 93.5857 137.9 93.586Z" fill="#F17251"/>
<path d="M137.932 93.5938C137.92 93.5911 137.911 93.5887 137.899 93.586C137.899 93.5858 137.897 93.5855 137.895 93.5853C137.476 93.4854 137.054 93.3808 136.642 93.2719C137.068 93.3838 137.499 93.4912 137.932 93.5936V93.5938Z" fill="#EB5A44"/>
<path d="M137.161 94.0636C134.642 93.3237 132.28 92.4167 130.11 91.3665L130.409 91.1851C132.185 91.9212 134.067 92.5666 136.042 93.1107C136.054 93.1134 136.063 93.1166 136.072 93.1192C136.079 93.1208 136.084 93.1223 136.091 93.1239C136.107 93.1287 136.123 93.1328 136.14 93.1376C136.14 93.1378 136.142 93.1379 136.142 93.138C136.718 93.2959 137.304 93.4449 137.895 93.5853C137.897 93.5855 137.899 93.5858 137.899 93.586C137.909 93.5884 137.922 93.5913 137.932 93.5937L137.161 94.0636Z" fill="#F48F74"/>
<path d="M137.932 93.5938C137.923 93.5913 137.909 93.5884 137.899 93.586C137.911 93.5887 137.92 93.5911 137.932 93.5938ZM137.895 93.5853C137.304 93.4449 136.719 93.2959 136.142 93.1381C136.309 93.1833 136.473 93.228 136.642 93.2719C137.054 93.3808 137.476 93.4854 137.895 93.5853ZM136.14 93.1376C136.123 93.1328 136.107 93.1287 136.091 93.1239C136.107 93.1284 136.123 93.1331 136.14 93.1376ZM136.073 93.1192C136.063 93.1166 136.054 93.1134 136.042 93.1108C136.054 93.1136 136.063 93.1164 136.073 93.1192Z" fill="#EF7967"/>
<path d="M194.556 57.4075C193.517 56.2825 192.364 55.2012 191.11 54.1716C192.367 55.2009 193.517 56.2817 194.556 57.4075Z" fill="white"/>
<path d="M187.235 63.5271C186.029 61.9872 184.551 60.5418 182.838 59.2159L191.107 54.172C192.364 55.2015 193.517 56.2829 194.555 57.4079C194.881 57.763 195.196 58.1224 195.5 58.4863L187.235 63.5271" fill="#F17251"/>
<path d="M186.461 63.9993C186.359 63.8354 186.252 63.6726 186.142 63.5105C186.252 63.6723 186.359 63.8356 186.461 63.9993Z" fill="#EB5A44"/>
<path d="M186.465 63.9985C185.439 62.3677 184.114 60.8256 182.538 59.3989L182.839 59.2156C184.551 60.5416 186.031 61.9869 187.237 63.5268L186.465 63.9985" fill="#F48F74"/>
<path d="M186.461 63.9991C186.359 63.8355 186.252 63.6721 186.145 63.5104C185.17 62.0593 183.957 60.6833 182.536 59.3992V59.3989C184.114 60.8257 185.436 62.3678 186.463 63.9987L186.461 63.9991" fill="#EF7967"/>
<path d="M144.556 102.134C142.723 101.978 140.925 101.761 139.165 101.486C140.925 101.76 142.725 101.978 144.556 102.134Z" fill="#CA3F32"/>
<path d="M144.583 102.136C144.573 102.135 144.566 102.135 144.556 102.134C142.726 101.978 140.927 101.76 139.167 101.486C139.159 101.484 139.152 101.484 139.147 101.483L148.007 96.08C149.765 96.2349 151.561 96.3144 153.387 96.3144C153.638 96.3144 153.887 96.3128 154.136 96.3095L144.583 102.136V102.136ZM150.166 95.1132C149.982 95.1095 149.799 95.1049 149.615 95.0995C149.784 95.1043 149.956 95.1088 150.125 95.1123C150.139 95.1126 150.154 95.1131 150.166 95.1132" fill="#F17251"/>
<path d="M151.497 95.1262C151.502 95.1262 151.507 95.1262 151.512 95.1262C151.507 95.1262 151.502 95.1262 151.497 95.1262ZM151.563 95.1261C151.568 95.1261 151.57 95.1259 151.575 95.1259C151.57 95.1259 151.568 95.1261 151.563 95.1261ZM151.614 95.1259C151.623 95.1259 151.628 95.1259 151.636 95.1258C151.628 95.1259 151.621 95.1259 151.614 95.1259ZM151.674 95.1258C151.687 95.1256 151.696 95.1256 151.708 95.1256C151.696 95.1256 151.687 95.1256 151.674 95.1258ZM151.726 95.1255C153.311 95.1184 154.871 95.0508 156.403 94.9274C154.871 95.0513 153.311 95.1184 151.726 95.1255ZM150.125 95.1123C149.955 95.1087 149.785 95.1043 149.615 95.0994V95.0988C149.785 95.1041 149.955 95.1086 150.125 95.1123Z" fill="#EB5A44"/>
<path d="M153.387 96.3143C151.561 96.3143 149.763 96.2349 148.005 96.08L149.613 95.0995C149.797 95.1049 149.982 95.1095 150.167 95.1132C150.589 95.1221 151.017 95.1262 151.444 95.1262C151.461 95.1262 151.478 95.1262 151.495 95.1262C151.5 95.1262 151.507 95.1262 151.515 95.1262C151.527 95.1262 151.541 95.1262 151.556 95.1262C151.566 95.1262 151.573 95.1261 151.583 95.1261C151.592 95.1261 151.602 95.1261 151.609 95.1261C151.619 95.1261 151.631 95.1261 151.638 95.1259C151.643 95.1259 151.646 95.1259 151.648 95.1259C153.258 95.1207 154.844 95.0535 156.401 94.9278L154.135 96.3096C153.887 96.3127 153.637 96.3143 153.387 96.3143" fill="#F48F74"/>
<path d="M151.495 95.1263C151.498 95.1263 151.498 95.1263 151.498 95.1263C151.502 95.1263 151.505 95.1263 151.512 95.1263C151.512 95.1263 151.512 95.1263 151.515 95.1263C151.507 95.1263 151.5 95.1263 151.495 95.1263V95.1263ZM151.556 95.1263C151.558 95.1263 151.561 95.1263 151.563 95.1263C151.568 95.1263 151.57 95.1262 151.575 95.1262C151.578 95.1262 151.58 95.1262 151.583 95.1262C151.573 95.1262 151.566 95.1263 151.556 95.1263V95.1263ZM151.609 95.1262C151.612 95.1262 151.612 95.1262 151.614 95.1262C151.621 95.1262 151.629 95.1262 151.634 95.126C151.636 95.126 151.636 95.126 151.638 95.126C151.631 95.1262 151.619 95.1262 151.609 95.1262ZM151.648 95.126C151.655 95.126 151.665 95.126 151.672 95.126C151.685 95.1259 151.697 95.1259 151.709 95.1259C151.714 95.1259 151.721 95.1257 151.726 95.1257C153.309 95.1186 154.869 95.0516 156.401 94.9279C154.844 95.0536 153.258 95.1209 151.648 95.126" fill="#EF7967"/>
<path d="M190.877 73.9027C190.882 73.736 190.888 73.5683 190.888 73.4007C190.888 72.3005 190.758 71.2181 190.512 70.1592L199.37 64.758C199.818 65.8425 200.174 66.9508 200.425 68.0796V68.0811L190.877 73.9027" fill="#F17251"/>
<path d="M188.606 75.288C188.814 74.3475 188.927 73.3878 188.943 72.4128C188.927 73.3863 188.816 74.3457 188.609 75.2867L188.606 75.288V75.288ZM188.943 72.4066C188.943 72.4004 188.943 72.394 188.943 72.3877C188.943 72.3938 188.943 72.4005 188.943 72.4066ZM188.943 72.3737C188.943 72.366 188.943 72.3586 188.943 72.3511C188.943 72.3588 188.943 72.366 188.943 72.3737ZM188.943 72.3296C188.943 72.3255 188.943 72.3215 188.943 72.3174C188.943 72.322 188.943 72.3251 188.943 72.3296ZM188.943 72.2913C188.943 72.2889 188.943 72.2867 188.943 72.2844C188.943 72.2867 188.943 72.2889 188.943 72.2913ZM188.943 72.2541C188.943 72.251 188.943 72.2481 188.943 72.2449C188.943 72.2481 188.943 72.251 188.943 72.2541ZM188.943 72.2125C188.943 71.8545 188.929 71.4981 188.901 71.1432L188.903 71.1421C188.929 71.497 188.943 71.8535 188.943 72.2125Z" fill="#EB5A44"/>
<path d="M188.609 75.2861C188.83 74.2811 188.944 73.2544 188.944 72.2125C188.944 71.8534 188.931 71.4968 188.902 71.1416L190.515 70.1591C190.76 71.2181 190.887 72.3004 190.887 73.4007C190.887 73.5683 190.885 73.7359 190.879 73.9027L188.609 75.2861" fill="#F48F74"/>
<path d="M188.608 75.2865C188.816 74.3455 188.929 73.3863 188.942 72.4126C188.942 72.4106 188.942 72.4085 188.942 72.4064C188.942 72.4003 188.942 72.3938 188.942 72.3877C188.942 72.3828 188.942 72.3782 188.942 72.3735C188.942 72.3658 188.945 72.3586 188.945 72.3509C188.945 72.3437 188.945 72.3366 188.945 72.3295C188.945 72.3249 188.945 72.322 188.945 72.3173C188.945 72.3086 188.945 72.2998 188.945 72.2911C188.945 72.2887 188.945 72.2866 188.945 72.2842C188.945 72.2743 188.945 72.2642 188.945 72.254C188.945 72.251 188.945 72.2479 188.945 72.2449C188.945 72.2341 188.945 72.2232 188.945 72.2123C188.945 71.8535 188.932 71.4968 188.903 71.142V71.1416C188.932 71.4967 188.945 71.8532 188.945 72.2123C188.945 73.2543 188.829 74.281 188.611 75.286L188.608 75.2865Z" fill="#EF7967"/>
<path d="M148.494 71.3199H152.905C155.418 71.3199 157.124 71.0018 158.024 70.3651C158.921 69.7285 159.371 69.048 159.371 68.3243C159.371 67.5128 158.876 66.792 157.886 66.1616C156.893 65.5313 155.511 65.2159 153.734 65.2159C150.341 65.2159 148.205 66.3084 147.33 68.4927L138.657 67.65C139.371 65.6778 141.103 64.0455 143.852 62.7536C146.597 61.4617 149.984 60.8155 154.008 60.8155C158.218 60.8155 161.756 61.4279 164.629 62.652C167.497 63.876 168.932 65.5502 168.932 67.6738C168.932 70.4595 166.541 72.3645 161.761 73.3891C167.378 74.3 170.188 76.3205 170.188 79.4517C170.188 81.6971 168.753 83.5433 165.883 84.9901C163.013 86.4375 159.055 87.1608 154.008 87.1608C149.168 87.1608 145.332 86.4169 142.502 84.9288C139.673 83.4407 137.971 81.5947 137.401 79.3902L146.287 78.6037C147.144 81.2376 149.638 82.5546 153.764 82.5546C155.684 82.5546 157.243 82.2438 158.436 81.6211C159.633 80.9988 160.231 80.1646 160.231 79.119C160.231 78.0111 159.683 77.1831 158.59 76.6354C157.496 76.0877 155.408 75.8138 152.322 75.8138H148.494V71.3199" fill="#BB2223"/>
<path d="M146.699 70.2231H151.11C153.622 70.2231 155.329 69.9051 156.227 69.2683C157.128 68.6318 157.576 67.9513 157.576 67.2274C157.576 66.4162 157.08 65.6953 156.089 65.0649C155.098 64.4345 153.717 64.1191 151.938 64.1191C148.545 64.1191 146.411 65.2117 145.535 67.3959L136.86 66.5532C137.576 64.581 139.307 62.9488 142.057 61.6568C144.804 60.365 148.19 59.7189 152.213 59.7189C156.422 59.7189 159.96 60.3312 162.833 61.5553C165.703 62.7794 167.137 64.4535 167.137 66.577C167.137 69.3628 164.747 71.2679 159.965 72.2923C165.583 73.2031 168.393 75.2238 168.393 78.3549C168.393 80.6003 166.959 82.4466 164.089 83.8934C161.216 85.3407 157.258 86.0641 152.213 86.0641C147.372 86.0641 143.536 85.3201 140.708 83.8321C137.878 82.344 136.177 80.4979 135.604 78.2934L144.492 77.507C145.35 80.1409 147.842 81.4579 151.968 81.4579C153.887 81.4579 155.446 81.147 156.642 80.5244C157.836 79.9021 158.434 79.0679 158.434 78.0221C158.434 76.9143 157.888 76.0864 156.795 75.5387C155.702 74.9909 153.612 74.7172 150.527 74.7172H146.699V70.2231" fill="#EE532E"/>
<path d="M139.056 66.7687L136.859 66.5546C137.045 66.043 137.3 65.5546 137.621 65.089C137.3 65.5542 137.045 66.0424 136.862 66.5533L139.056 66.7667C139.056 66.7673 139.056 66.768 139.056 66.7687" fill="#EB5A44"/>
<path d="M139.423 66.8041L139.058 66.7684C139.058 66.7677 139.058 66.767 139.058 66.7664L139.425 66.8021L139.423 66.8041" fill="#CA3F32"/>
<path d="M139.425 66.8022L139.056 66.7665L136.861 66.5531C137.046 66.0423 137.3 65.5541 137.621 65.0889C138.543 63.7575 140.021 62.6138 142.055 61.657C144.525 60.4973 147.502 59.8582 151 59.7402L139.425 66.8022" fill="#F17251"/>
<path d="M148.493 74.7177H146.696V73.9801L146.698 73.9793V74.7171H148.493V74.7177" fill="#EB5A44"/>
<path d="M154.068 74.8823C153.09 74.7724 151.912 74.7177 150.529 74.7177H148.493V74.7169H150.529C151.91 74.7169 153.09 74.7718 154.071 74.8814L154.068 74.8823Z" fill="#CA3F32"/>
<path d="M152.971 70.1534L152.973 70.1523C153.324 70.1237 153.65 70.0859 153.955 70.0389C153.65 70.0862 153.324 70.1243 152.971 70.1534ZM156.909 68.6907C156.909 68.6898 156.911 68.6888 156.911 68.6879C156.911 68.6889 156.909 68.6898 156.909 68.6907ZM156.911 68.6865C157.186 68.3978 157.376 68.1002 157.481 67.7944C157.376 68.1002 157.189 68.3975 156.911 68.6865Z" fill="#EB5A44"/>
<path d="M154.07 74.8817C153.09 74.772 151.907 74.7173 150.528 74.7173H148.492H146.696V73.9794L152.972 70.1533C153.324 70.1244 153.651 70.0861 153.955 70.0389C154.966 69.8828 155.724 69.6253 156.228 69.2691C156.495 69.0804 156.722 68.8876 156.909 68.6907C156.909 68.6898 156.911 68.6888 156.911 68.6879C156.911 68.6875 156.911 68.687 156.911 68.6865C157.188 68.3976 157.378 68.1002 157.48 67.7944C157.532 67.6473 157.562 67.4981 157.575 67.347L165.046 62.7926C166.44 63.8371 167.136 65.0985 167.136 66.5765C167.136 66.6945 167.131 66.8096 167.124 66.9221L154.07 74.8817" fill="#F17251"/>
<path d="M144.686 78.017C144.613 77.8529 144.549 77.6827 144.493 77.5069L140.305 77.8774L140.307 77.8766L144.495 77.5062C144.552 77.6826 144.615 77.8528 144.686 78.017" fill="#EB5A44"/>
<path d="M140.024 83.4482C138.416 82.5104 137.229 81.4354 136.456 80.2262L140.306 77.8772L144.494 77.5067C144.551 77.6824 144.615 77.8526 144.686 78.0168C144.993 78.7191 145.43 79.3117 146.005 79.7985L140.024 83.4482" fill="#F17251"/>
<path d="M152.977 70.1519L157.575 67.3465C157.524 68.0267 157.076 68.6684 156.228 69.2688C155.573 69.7323 154.487 70.0285 152.977 70.1519Z" fill="#BB2223"/>
<path d="M151.948 81.4576C151.945 81.4576 151.943 81.4576 151.94 81.4576C151.943 81.4576 151.945 81.4576 151.948 81.4576ZM151.924 81.4576C151.921 81.4576 151.919 81.4576 151.916 81.4576C151.919 81.4576 151.921 81.4576 151.924 81.4576ZM151.902 81.4576C151.9 81.4576 151.897 81.4576 151.892 81.4576C151.897 81.4576 151.9 81.4576 151.902 81.4576ZM151.88 81.4575C151.878 81.4575 151.873 81.4573 151.868 81.4573C151.873 81.4573 151.878 81.4575 151.88 81.4575ZM151.861 81.4573C151.854 81.4573 151.852 81.4573 151.847 81.4573C151.852 81.4573 151.854 81.4573 151.861 81.4573ZM151.842 81.4572C150.178 81.446 148.783 81.2173 147.659 80.7706C147.659 80.7701 147.659 80.7692 147.656 80.7684C148.78 81.2157 150.175 81.446 151.842 81.4572" fill="#EB5A44"/>
<path d="M147.659 80.7708C147.625 80.7571 147.591 80.7433 147.557 80.729V80.7283C147.591 80.7419 147.623 80.7553 147.657 80.7685C147.657 80.7693 147.657 80.77 147.659 80.7708V80.7708ZM156.783 75.5325C156.656 75.4714 156.52 75.4126 156.365 75.3565L156.367 75.3562C156.518 75.4114 156.656 75.4703 156.783 75.5325" fill="#CA3F32"/>
<path d="M163.81 73.2388C163.612 73.1679 163.411 73.0995 163.201 73.0338C163.201 73.0336 163.201 73.0336 163.201 73.0335C163.411 73.0994 163.614 73.1679 163.81 73.2388" fill="#EB5A44"/>
<path d="M163.199 73.0338C162.549 72.829 161.838 72.6483 161.064 72.4918V72.491H161.069C161.84 72.6478 162.552 72.8287 163.201 73.0337L163.199 73.0338Z" fill="#CA3F32"/>
<path d="M150.343 86.0236C146.89 85.8754 144.009 85.3023 141.698 84.3041L147.557 80.7291C147.592 80.7433 147.624 80.7572 147.659 80.7709C148.783 81.2174 150.176 81.4462 151.841 81.4573C151.843 81.4573 151.843 81.4573 151.846 81.4575C151.851 81.4575 151.853 81.4575 151.858 81.4575C151.863 81.4575 151.866 81.4575 151.868 81.4575C151.873 81.4575 151.876 81.4576 151.881 81.4576C151.883 81.4576 151.888 81.4576 151.891 81.4576C151.896 81.4576 151.898 81.4576 151.901 81.4576C151.906 81.4576 151.911 81.4576 151.916 81.4578C151.918 81.4578 151.921 81.4578 151.923 81.4578C151.928 81.4578 151.933 81.4578 151.938 81.4578C151.94 81.4578 151.945 81.4578 151.948 81.4578C151.953 81.4578 151.96 81.4578 151.968 81.4578C153.89 81.4578 155.448 81.148 156.641 80.5256C157.84 79.9031 158.436 79.0668 158.436 78.0221C158.436 76.9143 157.887 76.086 156.794 75.5376C156.789 75.5359 156.786 75.5342 156.784 75.5326C156.656 75.4703 156.519 75.4114 156.367 75.3562L161.065 72.4916C161.836 72.6481 162.55 72.8289 163.199 73.0338C163.409 73.0997 163.611 73.168 163.809 73.2388C165.481 73.8425 166.694 74.6272 167.451 75.5925L150.343 86.0236" fill="#F17251"/>
</svg>
