<svg width="23" height="11" viewBox="0 0 23 11" fill="none" xmlns="http://www.w3.org/2000/svg">
<path fill-rule="evenodd" clip-rule="evenodd" d="M1.68638 1.09972C3.88833 0.690729 19.2711 0.679675 21.4216 1.09972C22.1007 1.24342 22.5534 1.72979 22.6872 2.4704C23.1091 4.80277 23.0988 7.14618 22.6872 9.47855C22.5534 10.2192 22.111 10.7719 21.4216 10.8382C19.2711 11.0593 3.88833 11.0482 1.68638 10.8382C0.996987 10.7719 0.492803 10.2192 0.420777 9.47855C0.173829 7.14618 0.122382 4.80277 0.420777 2.4704C0.513382 1.72979 0.996987 1.23237 1.68638 1.09972Z" fill="black" fill-opacity="0.101961"/>
<path fill-rule="evenodd" clip-rule="evenodd" d="M1.48085 0.569205C3.67251 0.160212 19.0553 0.149158 21.2058 0.569205C21.8952 0.712905 22.3376 1.19927 22.4714 1.93988C22.8932 4.27225 22.8829 6.61567 22.4714 8.94803C22.3479 9.68864 21.8952 10.2413 21.2058 10.3077C19.0553 10.5287 3.67251 10.5177 1.48085 10.3077C0.781166 10.2413 0.287272 9.68864 0.204956 8.94803C-0.041991 6.61567 -0.0934384 4.27225 0.204956 1.93988C0.297561 1.19927 0.791456 0.701851 1.48085 0.569205Z" fill="#E6E6E6"/>
<path fill-rule="evenodd" clip-rule="evenodd" d="M1.48085 0.315035C3.67251 -0.105012 19.0553 -0.105012 21.2058 0.315035C21.8952 0.458735 22.3376 0.945105 22.4714 1.68571C22.8932 4.01808 22.8829 6.35044 22.4714 8.69386C22.3479 9.43447 21.8952 9.98716 21.2058 10.0535C19.0553 10.2635 3.67251 10.2635 1.48085 10.0535C0.781166 9.98716 0.287272 9.43447 0.204956 8.69386C-0.041991 6.35044 -0.0934384 4.01808 0.204956 1.68571C0.297561 0.945105 0.791456 0.447681 1.48085 0.315035Z" fill="white"/>
<path fill-rule="evenodd" clip-rule="evenodd" d="M1.96462 1.00039C3.92991 0.624558 19.0863 0.613504 21.0104 1.00039C21.6278 1.12198 22.0394 1.56414 22.1526 2.21631C22.5333 4.31655 22.523 6.40573 22.1526 8.50596C22.0394 9.16919 21.6381 9.66661 21.0104 9.73294C19.0863 9.92085 3.92991 9.92085 1.96462 9.73294C1.33696 9.66661 0.894514 9.16919 0.822487 8.50596C0.606408 6.40573 0.554961 4.31655 0.822487 2.21631C0.904803 1.55308 1.34725 1.11093 1.96462 1.00039Z" fill="#E6E6E6"/>
<path fill-rule="evenodd" clip-rule="evenodd" d="M1.82009 0.812391C3.78538 0.43656 18.9418 0.43656 20.8762 0.812391C21.4833 0.933984 21.8948 1.37614 22.008 2.03937C22.3887 4.12855 22.3784 6.22878 22.008 8.31796C21.8948 8.9812 21.4936 9.47862 20.8762 9.54494C18.9418 9.73286 3.78538 9.73286 1.82009 9.54494C1.19243 9.48967 0.749982 8.99225 0.677956 8.31796C0.461877 6.22878 0.41043 4.12855 0.677956 2.03937C0.760272 1.36508 1.20272 0.933984 1.82009 0.812391Z" fill="#6DC300"/>
<path fill-rule="evenodd" clip-rule="evenodd" d="M1.82009 0.392479C3.78538 0.0166477 18.9418 0.00559386 20.8762 0.392479C21.4833 0.514071 21.8948 0.956226 22.008 1.6084C22.3887 3.70864 22.3784 5.79782 22.008 7.89805C21.8948 8.56128 21.4936 9.0587 20.8762 9.12503C18.9418 9.31294 3.78538 9.31294 1.82009 9.12503C1.19243 9.0587 0.749982 8.56128 0.677956 7.89805C0.461877 5.79782 0.41043 3.70864 0.677956 1.6084C0.760272 0.945172 1.20272 0.503018 1.82009 0.392479Z" fill="#C9FB06"/>
<path fill-rule="evenodd" clip-rule="evenodd" d="M1.86143 0.447645C3.80614 0.0718137 18.9317 0.0718137 20.8352 0.447645C21.4423 0.569237 21.8436 1.00034 21.9568 1.65252C22.3272 3.71959 22.3272 5.78666 21.9568 7.85373C21.8436 8.50591 21.4526 9.00333 20.8352 9.0586C18.9317 9.24652 3.80614 9.24652 1.86143 9.0586C1.24406 9.00333 0.801612 8.51696 0.729585 7.85373C0.513507 5.78666 0.472349 3.71959 0.729585 1.65252C0.811901 0.989284 1.24406 0.558183 1.86143 0.447645Z" fill="#C5F806"/>
<path fill-rule="evenodd" clip-rule="evenodd" d="M1.89208 0.502841C3.81621 0.138064 18.9212 0.12701 20.7938 0.502841C21.3906 0.624434 21.7919 1.05553 21.9051 1.69666C22.2755 3.73057 22.2652 5.77553 21.9051 7.80944C21.7919 8.45057 21.4009 8.94799 20.7938 9.00326C18.9212 9.19118 3.81621 9.18012 1.89208 9.00326C1.285 8.94799 0.852846 8.46162 0.791109 7.80944C0.57503 5.77553 0.533872 3.73057 0.791109 1.69666C0.873425 1.04448 1.29529 0.61338 1.89208 0.502841Z" fill="#C0F605"/>
<path fill-rule="evenodd" clip-rule="evenodd" d="M1.93355 0.558251C3.82681 0.193474 18.9112 0.193474 20.753 0.558251C21.3498 0.679844 21.7408 1.09989 21.854 1.72996C22.2141 3.74176 22.2038 5.75357 21.854 7.76537C21.7408 8.4065 21.3601 8.88181 20.753 8.94813C18.9112 9.125 3.82681 9.125 1.93355 8.94813C1.33676 8.88181 0.914893 8.4065 0.842867 7.76537C0.626788 5.75357 0.58563 3.74176 0.842867 1.72996C0.925182 1.08884 1.34705 0.66879 1.93355 0.558251Z" fill="#BCF305"/>
<path fill-rule="evenodd" clip-rule="evenodd" d="M1.97464 0.613437C3.84732 0.259714 18.8905 0.259714 20.7221 0.613437C21.2983 0.73503 21.6893 1.14402 21.8025 1.77409C22.1523 3.76379 22.1523 5.74243 21.8025 7.72107C21.6893 8.35114 21.3086 8.82645 20.7221 8.88172C18.8905 9.06964 3.84732 9.05859 1.97464 8.88172C1.38814 8.82645 0.966273 8.36219 0.894247 7.72107C0.688457 5.74243 0.647299 3.76379 0.894247 1.77409C0.976562 1.14402 1.38814 0.723976 1.97464 0.613437Z" fill="#B7F004"/>
<path fill-rule="evenodd" clip-rule="evenodd" d="M2.01559 0.668879C3.8574 0.326209 18.88 0.315155 20.6807 0.668879C21.2569 0.790471 21.6376 1.19946 21.7405 1.81848C22.1006 3.77501 22.0903 5.73155 21.7405 7.68808C21.6376 8.29605 21.2672 8.77136 20.6807 8.82663C18.88 9.00349 3.8574 9.00349 2.01559 8.82663C1.42909 8.77136 1.01751 8.3071 0.95577 7.68808C0.749981 5.73155 0.708823 3.77501 0.95577 1.81848C1.0278 1.18841 1.43938 0.779417 2.01559 0.668879Z" fill="#B3EE04"/>
<path fill-rule="evenodd" clip-rule="evenodd" d="M2.05705 0.724043C3.868 0.381374 18.8701 0.381374 20.6398 0.724043C21.2058 0.845636 21.5865 1.24357 21.6894 1.85154C22.0392 3.78596 22.0289 5.70933 21.6894 7.64376C21.5865 8.25172 21.2161 8.71598 20.6398 8.77125C18.8701 8.94811 3.868 8.93706 2.05705 8.77125C1.48084 8.71598 1.06926 8.25172 1.00753 7.64376C0.801739 5.70933 0.760581 3.78596 1.00753 1.85154C1.07955 1.24357 1.49113 0.834582 2.05705 0.724043Z" fill="#AEEB03"/>
<path fill-rule="evenodd" clip-rule="evenodd" d="M2.09815 0.790461C3.87822 0.447791 18.8597 0.436737 20.6089 0.790461C21.1645 0.900999 21.535 1.29894 21.6378 1.89585C21.9774 3.79711 21.9774 5.69838 21.6378 7.59964C21.535 8.19655 21.1748 8.64976 20.6089 8.70503C18.8597 8.88189 3.87822 8.88189 2.09815 8.70503C1.53222 8.66081 1.12065 8.2076 1.05891 7.59964C0.863409 5.69838 0.822252 3.79711 1.05891 1.89585C1.14123 1.28788 1.53222 0.889946 2.09815 0.790461Z" fill="#AAE903"/>
<path fill-rule="evenodd" clip-rule="evenodd" d="M2.12884 0.845625C3.89862 0.502956 18.8389 0.502956 20.5676 0.845625C21.1232 0.956164 21.4833 1.34305 21.5862 1.93996C21.9258 3.80806 21.9155 5.68722 21.5862 7.55532C21.4833 8.15223 21.1232 8.59438 20.5676 8.64965C18.8389 8.81546 3.89862 8.81546 2.12884 8.64965C1.5732 8.59438 1.18221 8.15223 1.11018 7.55532C0.914679 5.68722 0.873521 3.80806 1.11018 1.93996C1.19249 1.34305 1.58349 0.94511 2.12884 0.845625Z" fill="#A5E602"/>
<path fill-rule="evenodd" clip-rule="evenodd" d="M2.17027 0.900812C3.90919 0.569196 18.8289 0.569196 20.5267 0.900812C21.072 1.01135 21.4322 1.39824 21.5351 1.97304C21.8643 3.81903 21.8643 5.66503 21.5351 7.51102C21.4322 8.09688 21.0823 8.53903 20.5267 8.5943C18.8289 8.76011 3.90919 8.76011 2.17027 8.5943C1.62493 8.53903 1.23393 8.10793 1.17219 7.51102C0.976691 5.66503 0.935533 3.81903 1.17219 1.97304C1.24422 1.38718 1.62493 1.0003 2.17027 0.900812Z" fill="#A1E302"/>
<path fill-rule="evenodd" clip-rule="evenodd" d="M2.21114 0.956254C3.91919 0.635692 18.8183 0.624638 20.4955 0.956254C21.0306 1.06679 21.3804 1.44262 21.4833 2.01742C21.8023 3.84131 21.8023 5.65415 21.4833 7.46698C21.3804 8.04178 21.0306 8.48393 20.4955 8.52815C18.8183 8.69396 3.91919 8.69396 2.21114 8.52815C1.6658 8.48393 1.28509 8.05283 1.22335 7.46698C1.02785 5.65415 0.996985 3.84131 1.22335 2.01742C1.29538 1.44262 1.67609 1.05574 2.21114 0.956254Z" fill="#9CE101"/>
<path fill-rule="evenodd" clip-rule="evenodd" d="M2.25283 1.01142C3.9403 0.690856 18.8086 0.690856 20.4549 1.01142C20.9797 1.12196 21.3295 1.49779 21.4221 2.06154C21.7514 3.85226 21.7411 5.64299 21.4221 7.43371C21.3295 7.99746 20.99 8.41751 20.4549 8.47278C18.8086 8.63859 3.9403 8.63859 2.25283 8.47278C1.71778 8.42856 1.33707 7.99746 1.27533 7.43371C1.09012 5.64299 1.04896 3.85226 1.27533 2.06154C1.34736 1.48673 1.72807 1.1109 2.25283 1.01142Z" fill="#98DE01"/>
<path fill-rule="evenodd" clip-rule="evenodd" d="M1.82051 0.392479C3.7858 0.0166477 18.9422 0.00559383 20.8766 0.392479C21.4837 0.514071 21.8953 0.956226 22.0085 1.6084C22.1834 2.55904 22.276 3.50967 22.2863 4.4603C18.6335 2.84644 2.96264 7.13534 0.493164 4.43819C0.503454 3.49861 0.56519 2.55904 0.678375 1.6084C0.76069 0.945172 1.20314 0.503018 1.82051 0.392479Z" fill="white" fill-opacity="0.290196"/>
<path fill-rule="evenodd" clip-rule="evenodd" d="M1.92306 0.80127C2.49927 0.80127 2.97259 1.29869 2.97259 1.92876C2.97259 2.54778 2.49927 3.0452 1.92306 3.0452C1.34685 3.0452 0.873535 2.54778 0.873535 1.92876C0.873535 1.29869 1.34685 0.80127 1.92306 0.80127Z" fill="white"/>
<path fill-rule="evenodd" clip-rule="evenodd" d="M3.51789 0.513916C3.806 0.513916 4.04265 0.757101 4.04265 1.06661C4.04265 1.37612 3.806 1.63036 3.51789 1.63036C3.24008 1.63036 3.00342 1.37612 3.00342 1.06661C3.00342 0.757101 3.24008 0.513916 3.51789 0.513916Z" fill="white"/>
<path fill-rule="evenodd" clip-rule="evenodd" d="M21.0412 7.5C21.3911 7.5 21.6792 7.79845 21.6792 8.17429C21.6792 8.55012 21.3911 8.85963 21.0412 8.85963C20.7017 8.85963 20.4136 8.55012 20.4136 8.17429C20.4136 7.79845 20.7017 7.5 21.0412 7.5Z" fill="white"/>
</svg>
