<svg width="171" height="166" fill="none" xmlns="http://www.w3.org/2000/svg"><path fill-rule="evenodd" clip-rule="evenodd" d="M8.276 27.538h155.782c3.562 0 6.47 3.514 6.47 7.818v122.689c0 4.304-2.908 7.818-6.47 7.818H8.276c-3.562 0-6.469-3.514-6.469-7.818V35.356c0-4.304 2.907-7.818 6.47-7.818Z" fill="#000" fill-opacity=".102"/><path fill-rule="evenodd" clip-rule="evenodd" d="M6.47 25.07h155.807c3.536 0 6.47 3.513 6.47 7.818v122.688c0 4.305-2.934 7.818-6.47 7.818H6.469c-3.562 0-6.469-3.513-6.469-7.818V32.888c0-4.305 2.907-7.819 6.47-7.819Z" fill="#E6E6E6"/><path fill-rule="evenodd" clip-rule="evenodd" d="M6.47 23.455h155.807c3.536 0 6.47 3.514 6.47 7.818v122.689c0 4.304-2.934 7.818-6.47 7.818H6.469c-3.562 0-6.469-3.514-6.469-7.818V31.273c0-4.304 2.907-7.818 6.47-7.818Z" fill="#fff"/><path fill-rule="evenodd" clip-rule="evenodd" d="M10.529 28.678h148.527c3.353 0 6.103 3.323 6.103 7.375v113.73c0 4.052-2.75 7.375-6.103 7.375H10.529c-3.353 0-6.103-3.323-6.103-7.375V36.053c0-4.052 2.75-7.375 6.103-7.375Z" fill="#E6E6E6"/><path fill-rule="evenodd" clip-rule="evenodd" d="M9.114 27.729h148.764c3.326 0 6.05 3.291 6.05 7.311V147.79c0 4.02-2.724 7.312-6.05 7.312H9.115c-3.327 0-6.05-3.292-6.05-7.312V35.04c0-4.02 2.723-7.311 6.05-7.311Z" fill="#F1C383"/><path fill-rule="evenodd" clip-rule="evenodd" d="M9.036 25.797h147.558c3.274 0 5.972 3.229 5.972 7.217v110.534c0 3.988-2.698 7.217-5.972 7.217H9.036c-3.274 0-5.972-3.229-5.972-7.217V33.014c0-3.988 2.698-7.217 5.972-7.217Z" fill="#FAEECC"/><path fill-rule="evenodd" clip-rule="evenodd" d="M10.005 26.747h145.62c3.248 0 5.893 3.229 5.893 7.122v108.824c0 3.925-2.645 7.122-5.893 7.122H10.005c-3.248 0-5.893-3.197-5.893-7.122V33.869c0-3.925 2.645-7.122 5.893-7.122Z" fill="#FAEDC9"/><path fill-rule="evenodd" clip-rule="evenodd" d="M10.948 27.729h143.734c3.195 0 5.814 3.165 5.814 7.026v107.052c0 3.893-2.619 7.059-5.814 7.059H10.948c-3.196 0-5.815-3.166-5.815-7.059V34.756c0-3.862 2.62-7.027 5.815-7.027Z" fill="#F9ECC6"/><path fill-rule="evenodd" clip-rule="evenodd" d="M11.916 28.678h141.797c3.143 0 5.736 3.133 5.736 6.932v105.342c0 3.798-2.593 6.932-5.736 6.932H11.916c-3.169 0-5.735-3.134-5.735-6.932V35.61c0-3.799 2.566-6.932 5.735-6.932Z" fill="#F9EBC2"/><path fill-rule="evenodd" clip-rule="evenodd" d="M12.886 29.627h139.858c3.116 0 5.683 3.103 5.683 6.87v103.569c0 3.766-2.567 6.869-5.683 6.869H12.886c-3.117 0-5.684-3.103-5.684-6.869V36.496c0-3.767 2.567-6.869 5.684-6.869Z" fill="#F8EABF"/><path fill-rule="evenodd" clip-rule="evenodd" d="M13.855 30.609h137.92c3.09 0 5.605 3.039 5.605 6.742v101.86c0 3.704-2.515 6.774-5.605 6.774H13.855c-3.09 0-5.605-3.07-5.605-6.774V37.351c0-3.703 2.514-6.742 5.605-6.742Z" fill="#F8E9BC"/><path fill-rule="evenodd" clip-rule="evenodd" d="M14.798 31.559h136.008c3.064 0 5.552 3.007 5.552 6.678v100.088c0 3.672-2.488 6.679-5.552 6.679H14.798c-3.038 0-5.527-3.007-5.527-6.679V38.237c0-3.671 2.489-6.678 5.527-6.678Z" fill="#F7E8B9"/><path fill-rule="evenodd" clip-rule="evenodd" d="M15.767 32.508h134.096c2.986 0 5.448 2.975 5.448 6.584v98.378c0 3.609-2.462 6.584-5.448 6.584H15.767c-2.986 0-5.448-2.975-5.448-6.584V39.092c0-3.609 2.462-6.584 5.447-6.584Z" fill="#F7E7B6"/><path fill-rule="evenodd" clip-rule="evenodd" d="M16.736 33.458h132.158c2.959 0 5.395 2.943 5.395 6.52v96.606c0 3.577-2.436 6.521-5.395 6.521H16.736c-2.96 0-5.396-2.944-5.396-6.521V39.978c0-3.577 2.436-6.52 5.396-6.52Z" fill="#F6E6B3"/><path fill-rule="evenodd" clip-rule="evenodd" d="M17.705 34.439h130.22c2.933 0 5.317 2.88 5.317 6.426v94.864c0 3.514-2.384 6.394-5.317 6.394H17.705c-2.933 0-5.317-2.88-5.317-6.394V40.865c0-3.546 2.383-6.426 5.317-6.426Z" fill="#F6E5AF"/><path fill-rule="evenodd" clip-rule="evenodd" d="M18.674 35.388h128.282c2.881 0 5.238 2.849 5.238 6.33v93.125c0 3.482-2.357 6.33-5.238 6.33H18.674c-2.881 0-5.239-2.848-5.239-6.33V41.719c0-3.482 2.358-6.33 5.239-6.33Z" fill="#F5E4AC"/><path fill-rule="evenodd" clip-rule="evenodd" d="M19.617 36.338h126.396c2.828 0 5.159 2.817 5.159 6.267v91.352c0 3.45-2.331 6.267-5.159 6.267H19.617c-2.829 0-5.16-2.817-5.16-6.267V42.605c0-3.45 2.331-6.267 5.16-6.267Z" fill="#F5E3A9"/><path fill-rule="evenodd" clip-rule="evenodd" d="M157.616 140.382c1.833 0 3.3 1.773 3.3 3.957 0 2.216-1.467 3.988-3.3 3.988-1.808 0-3.274-1.772-3.274-3.988 0-2.184 1.466-3.957 3.274-3.957ZM152.613 144.434c.969 0 1.755.981 1.755 2.152 0 1.172-.786 2.121-1.755 2.121-.995 0-1.781-.949-1.781-2.121 0-1.171.786-2.152 1.781-2.152ZM9.48 27.602c2.803 0 5.082 2.753 5.082 6.14 0 3.387-2.279 6.141-5.081 6.141-2.803 0-5.081-2.754-5.081-6.14 0-3.388 2.278-6.141 5.08-6.141ZM17.312 26.873c1.545 0 2.803 1.52 2.803 3.387 0 1.9-1.258 3.419-2.803 3.419s-2.802-1.52-2.802-3.419c0-1.867 1.257-3.387 2.802-3.387Z" fill="#fff"/><path fill-rule="evenodd" clip-rule="evenodd" d="M10.843 41.782h142.896c2.436 0 4.427 2.406 4.427 5.35v90.401c0 2.944-1.991 5.35-4.427 5.35H10.843c-2.436 0-4.452-2.406-4.452-5.35V47.132c0-2.944 2.016-5.35 4.452-5.35Z" fill="#EFB469"/><path fill-rule="evenodd" clip-rule="evenodd" d="M12.545 44.346h139.466c2.357 0 4.295 2.343 4.295 5.191v87.237c0 2.849-1.938 5.191-4.295 5.191H12.545c-2.357 0-4.269-2.342-4.269-5.191V49.537c0-2.849 1.912-5.19 4.27-5.19Z" fill="#F1C383"/><path fill-rule="evenodd" clip-rule="evenodd" d="M12.755 45.327h139.046c2.331 0 4.243 2.31 4.243 5.128v86.255c0 2.817-1.912 5.128-4.243 5.128H12.755c-2.33 0-4.243-2.311-4.243-5.128V50.455c0-2.817 1.912-5.128 4.243-5.128Z" fill="#F1C585"/><path fill-rule="evenodd" clip-rule="evenodd" d="M12.964 46.34h138.654c2.305 0 4.19 2.279 4.19 5.064v85.274c0 2.786-1.885 5.065-4.19 5.065H12.964c-2.304 0-4.19-2.279-4.19-5.065V51.404c0-2.785 1.886-5.064 4.19-5.064Z" fill="#F1C786"/><path fill-rule="evenodd" clip-rule="evenodd" d="M13.148 47.321h138.261c2.278 0 4.138 2.248 4.138 5.002v84.292c0 2.754-1.86 5.033-4.138 5.033H13.148c-2.279 0-4.138-2.279-4.138-5.033V52.322c0-2.753 1.86-5 4.138-5Z" fill="#F2CA88"/><path fill-rule="evenodd" clip-rule="evenodd" d="M13.358 48.303h137.868c2.252 0 4.085 2.247 4.085 4.97v83.311c0 2.722-1.833 4.938-4.085 4.938H13.358c-2.253 0-4.086-2.216-4.086-4.938V53.272c0-2.722 1.833-4.97 4.086-4.97Z" fill="#F2CC8A"/><path fill-rule="evenodd" clip-rule="evenodd" d="M13.567 49.315h137.449c2.226 0 4.033 2.184 4.033 4.875v82.33c0 2.691-1.807 4.907-4.033 4.907H13.566c-2.225 0-4.059-2.216-4.059-4.907V54.19c0-2.69 1.834-4.875 4.06-4.875Z" fill="#F2CE8B"/><path fill-rule="evenodd" clip-rule="evenodd" d="M13.75 50.297h137.056c2.2 0 4.008 2.184 4.008 4.843v81.349c0 2.659-1.808 4.843-4.008 4.843H13.75c-2.2 0-3.98-2.184-3.98-4.843v-81.35c0-2.658 1.78-4.842 3.98-4.842Z" fill="#F2D08D"/><path fill-rule="evenodd" clip-rule="evenodd" d="M13.96 51.278h136.663c2.174 0 3.928 2.152 3.928 4.78v80.367c0 2.627-1.754 4.78-3.928 4.78H13.96c-2.174 0-3.955-2.153-3.955-4.78V56.057c0-2.627 1.78-4.78 3.955-4.78Z" fill="#F2D28E"/><path fill-rule="evenodd" clip-rule="evenodd" d="M14.17 52.291h136.243c2.148 0 3.903 2.12 3.903 4.685v79.418c0 2.595-1.755 4.716-3.903 4.716H14.169c-2.147 0-3.902-2.121-3.902-4.716V56.976c0-2.564 1.755-4.685 3.902-4.685Z" fill="#F2D490"/><path fill-rule="evenodd" clip-rule="evenodd" d="M14.353 53.272h135.851c2.121 0 3.85 2.09 3.85 4.653v78.405c0 2.564-1.729 4.653-3.85 4.653H14.353c-2.121 0-3.85-2.089-3.85-4.653V57.925c0-2.564 1.729-4.653 3.85-4.653Z" fill="#F3D792"/><path fill-rule="evenodd" clip-rule="evenodd" d="M14.562 54.253h135.459c2.095 0 3.797 2.09 3.797 4.59V136.3c0 2.532-1.702 4.589-3.797 4.589H14.562c-2.095 0-3.797-2.057-3.797-4.589V58.843c0-2.5 1.702-4.59 3.797-4.59Z" fill="#F3D993"/><path fill-rule="evenodd" clip-rule="evenodd" d="M14.745 55.267h135.066c2.069 0 3.771 2.025 3.771 4.526v76.443c0 2.5-1.702 4.558-3.771 4.558H14.745c-2.043 0-3.745-2.058-3.745-4.558V59.793c0-2.5 1.702-4.526 3.745-4.526Z" fill="#F3DB95"/><path fill-rule="evenodd" clip-rule="evenodd" d="M41.015 45.359c0 .127-.026.253-.026.38v.063c-.026.095-.026.19-.053.253 0 .064-.026.095-.026.127-.026.063-.026.127-.052.19-.026.032-.053.063-.053.095-.026.063-.052.095-.078.158 0 .032-.026.063-.052.095-.027.032-.053.095-.08.127-.025.031-.051.063-.078.063-.026.063-.078.095-.104.127-.027.031-.053.031-.105.063-.026.032-.079.063-.105.095-.026.032-.079.032-.105.063-.052.032-.078.032-.13.064-.053 0-.08.031-.132.031-.052.032-.078.063-.13.063-.053 0-.08.032-.132.032-.052 0-.104.032-.183.032-.026 0-.078.032-.105.032-.078 0-.13 0-.21.031h-.864c-.078-.032-.157-.032-.235-.032l-.157-.031c-.079 0-.184 0-.262-.032H37.4c-.105-.032-.21-.032-.289-.063l-.157-.032c-.104 0-.21-.031-.314-.063l-.157-.032c-.105 0-.21-.031-.314-.063l-.184-.032c-.104-.031-.235-.063-.366-.095l-.105-.031-.42-.095-.104-.032c-3.274-.855-7.569-2.406-12.048-3.102v-.032c-.733-.095-1.44-.19-2.174-.253h-.026c-.235-.032-.471-.032-.707-.063h-.026c-.236 0-.471-.032-.707-.032h-.026c-4.872-.19-9.69 1.076-13.41 5.635l-.105.126v.032c-.183.19-.34.411-.497.633 2.488-12.725 7.15-16.555 13.069-20.195l-.21-.222-.733-.76h131.477l-.733.76-.21.222c5.893 3.64 10.581 7.47 13.069 20.195-.157-.222-.34-.443-.497-.633v-.032l-.105-.127h-.026c-3.719-4.558-8.512-5.824-13.384-5.634h-.026c-.235 0-.497.032-.733.032-.236.032-.472.032-.707.063h-.026a46.14 46.14 0 0 0-2.174.253l-.026.032c-4.479.696-8.774 2.247-12.048 3.102l-.105.032-.419.095-.105.031c-.104.032-.235.064-.34.095l-.184.032a1.1 1.1 0 0 1-.314.063l-.157.032c-.105.032-.209.063-.314.063l-.157.032c-.105.032-.184.032-.288.063h-.158c-.078.032-.183.032-.262.032l-.157.032c-.078 0-.157 0-.262.031h-.838c-.078-.032-.131-.032-.209-.032-.053 0-.079-.031-.131-.031-.053 0-.105-.032-.157-.032-.053 0-.079-.032-.131-.032-.053 0-.105-.031-.157-.063-.027 0-.079-.031-.105-.031-.053-.032-.079-.032-.131-.064-.026-.031-.079-.031-.105-.063-.052-.032-.078-.063-.131-.095-.026-.032-.052-.032-.078-.063a.228.228 0 0 1-.105-.127c-.026 0-.053-.032-.079-.063-.026-.032-.052-.095-.078-.127l-.079-.095c-.026-.063-.026-.095-.052-.158-.026-.032-.026-.063-.053-.095-.026-.063-.026-.127-.052-.19 0-.032-.026-.063-.026-.127-.026-.063-.026-.158-.053-.253v-.063c-.026-.127-.026-.253-.026-.38v-9.053h-.026l-.262-.063h-.131l-.026-.032h-.079l-.654-.126h-.079l-.55-.095h-.026a87.52 87.52 0 0 0-1.074-.19h-.052l-.524-.095h-.105l-.55-.095h-.209l-.629-.095h-.052l-.027-.032c-.366-.031-.733-.095-1.1-.126h-.052l-.629-.095-.916-.095-.629-.095h-.078c-.393-.032-.786-.095-1.205-.127h-.105l-.655-.095h-.183l-.629-.063h-.131l-.026-.032-.681-.063h-.078l-1.257-.095h-.027l-.026-.032h-.052l-.734-.063-.995-.063h-.026l-.707-.064h-.105l-1.283-.095h-.131l-.812-.063-.917-.063h-.026l-.917-.064h-.078l-1.284-.063h-.078l-.864-.063h-.053l-.943-.032-1.152-.063h-.183l-.027-.032-1.021-.031h-.105l-.838-.032-1.047-.032-1.127-.063-1.414-.032h-.026l-.838-.031-1.126-.032h-.943c-.446-.032-.89-.032-1.336-.032h-.21l-.89-.031H88.342l-1.1-.032H79.2l-1.414.032h-1.022l-.864.031h-.026l-1.31.032h-1.231l-1.047.032-.943.031-1.153.032h-.078l-.97.032h-.13l-.026.031h-.131l-1.048.032-.864.032-1.205.063h-.026l-1.31.063-.812.032-.969.063h-.026l-.917.032h-.104l-.027.032h-.104l-1.022.063h-.235l-.812.063-.917.063h-.183l-1.074.095h-.184l-.76.064-.994.063-.026.032-.681.031h-.053c-.445.064-.864.095-1.283.127h-.105l-.733.095h-.026l-.839.063h-.026l-.76.095h-.104c-.393.032-.76.095-1.126.127h-.079l-.707.095-.812.095h-.026l-.655.095h-.052c-.367.031-.734.095-1.1.126l-.026.032h-.053l-.628.095h-.027l-.76.095H44.526l-.027.031h-.026l-.471.064h-.079c-.34.063-.707.126-1.047.19h-.105l-.446.095h-.104l-.655.126h-.079l-.471.095v9.053Z" fill="#000" fill-opacity=".102"/><path fill-rule="evenodd" clip-rule="evenodd" d="M41.015 42.447c0 8.484-24.07-11.553-35.75 4.495 2.854-13.2 6.705-15.921 13.069-20.195l-9.69-10.034c9.768-5.096 27.159 7.059 32.37-4.558v30.292Z" fill="#E54149"/><path fill-rule="evenodd" clip-rule="evenodd" d="M5.867 46.15c-.21.254-.393.507-.602.792 2.488-12.724 7.15-16.554 13.069-20.195-3.85 6.078-9.665 8.515-12.467 19.404ZM9.9 18.012l-1.257-1.298c9.77-5.096 27.16 7.059 32.372-4.558v1.836c-5.002 11.142-21.188.443-31.115 4.02Z" fill="#FF6595"/><path fill-rule="evenodd" clip-rule="evenodd" d="M41.015 42.447c0 8.484-24.07-11.553-35.75 4.495 8.276-20.67 35.75.981 35.75-7.47v2.975Z" fill="#CF1922"/><path fill-rule="evenodd" clip-rule="evenodd" d="m31.534 8.452 9.48 1.076v32.92c-2.095-9.623-9.48-.444-9.48-5.16V8.452Z" fill="#E54149"/><path fill-rule="evenodd" clip-rule="evenodd" d="m31.534 8.452 9.48 1.013v32.982C39.68 31.97 31.9 41.371 32.11 35.705l-.576-27.253Z" fill="#AB0009"/><path fill-rule="evenodd" clip-rule="evenodd" d="M125.244 42.447c0 8.484 24.069-11.553 35.75 4.495-2.854-13.2-6.731-15.921-13.069-20.195l9.691-10.034c-9.769-5.096-27.16 7.059-32.372-4.558v30.292Z" fill="#E54149"/><path fill-rule="evenodd" clip-rule="evenodd" d="M125.244 42.447c0 8.483 24.069-11.553 35.75 4.495-2.854-13.2-6.731-15.921-13.069-20.195l.21-.221c-9.01.95-19.119 4.938-22.891-3.45v19.371Z" fill="url(#a)"/><path fill-rule="evenodd" clip-rule="evenodd" d="M160.366 46.15c.209.254.419.507.628.792-2.488-12.724-7.176-16.554-13.069-20.195 3.85 6.078 9.665 8.515 12.441 19.404Zm-4.007-28.139 1.257-1.298c-9.769-5.096-27.16 7.059-32.372-4.558v1.836c5.003 11.142 21.162.443 31.115 4.02Z" fill="#FF6595"/><path fill-rule="evenodd" clip-rule="evenodd" d="M125.244 42.447c0 8.484 24.069-11.553 35.75 4.495-8.302-20.67-35.75.981-35.75-7.47v2.975Z" fill="#CF1922"/><path fill-rule="evenodd" clip-rule="evenodd" d="m134.725 8.452-9.481 1.076v32.92c2.095-9.623 9.481-.444 9.481-5.16V8.452Z" fill="#E54149"/><path fill-rule="evenodd" clip-rule="evenodd" d="m134.725 8.452-9.481 1.013v32.982c1.336-10.477 9.114-1.076 8.905-6.742l.576-27.253Z" fill="#AB0009"/><path fill-rule="evenodd" clip-rule="evenodd" d="M31.534 8.451c1.571-11.268 101.62-11.268 103.217 0v28.647c-5.421-8.705-97.822-8.705-103.217 0V8.45Z" fill="#E54149"/><path fill-rule="evenodd" clip-rule="evenodd" d="M134.751 19.878v17.22c-5.421-8.705-97.822-8.705-103.217 0v-17.22c16.84-7.09 86.377-7.09 103.217 0Z" fill="#E01B25"/><path fill-rule="evenodd" clip-rule="evenodd" d="M31.56 8.388c2.043-11.174 101.122-11.174 103.165 0C122.049 0 44.236 0 31.56 8.388Z" fill="#FF6595"/><path fill-rule="evenodd" clip-rule="evenodd" d="M134.751 35.452v1.646c-5.421-8.705-97.822-8.705-103.217 0v-1.646c5.395-8.705 97.796-8.705 103.217 0Z" fill="#C20F18"/><path d="m41 17.917.985-2.709c1.257 1 2.208 1.5 2.888 1.5.272 0 .51-.083.713-.291.272-.167.374-.417.374-.709 0-.416-.442-.791-1.393-1.083-1.325-.417-2.242-1.292-2.684-2.583-.17-.459-.238-.834-.238-1.209 0-.791.306-1.458.986-2.083.543-.5 1.392-.75 2.48-.75.78 0 1.698.125 2.751.375L47.182 11c-.815-.458-1.46-.667-1.97-.667-.237 0-.475.084-.679.209a.682.682 0 0 0-.408.625c0 .25.17.5.544.791.238.167.713.459 1.427.792.577.292 1.019.583 1.29.833.374.417.578 1 .612 1.709.034 1.125-.407 2.166-1.325 3.125-.373.416-.95.583-1.698.583-.986 0-2.31-.333-3.975-1.083ZM50 11.9l2.223.43c.49-1.131 1.046-1.678 1.57-1.639.653.079 1.046.313 1.177.82 0 .039 0 .663.032 1.872-.588-.273-1.144-.43-1.7-.43-.425 0-.85.079-1.242.235-.85.351-1.275 1.131-1.275 2.38 0 .077 0 .233.032.467.131 1.522 1.57 2.34 4.381 2.458l.033.507 2.223-.195.066-3.51c.032-1.483-.066-2.81-.36-3.98C56.67 9.132 55.525 8 53.727 8c-.36 0-.752.078-1.111.156-1.145.312-1.995 1.56-2.616 3.745Zm5.068 3.004.065 1.795c-1.406-.352-2.092-.78-2.06-1.327.033-.39.36-.585.948-.585.295 0 .622.04 1.047.117ZM59 8.868l2.121-1.235 1.86 7.977L64.264 7l2.174.791-2.174 10.288-2.514-.064L59 8.868ZM70.732 14.592c.236.982.734 1.489 1.522 1.552.734.032 1.206-.443 1.469-1.394l2.256-.38c-.577 2.82-1.705 4.246-3.41 4.246-.525 0-1.103-.159-1.759-.444-1.207-.824-1.81-2.408-1.81-4.753 0-.221.026-.443.026-.697.131-2.692 1.207-4.277 3.28-4.72 1.994-.064 3.122 1.584 3.41 4.942l-4.984 1.648Zm.603-3.454c-.288.412-.446.95-.498 1.553l3.017-1.046c-.341-.76-.787-1.14-1.286-1.14a1.44 1.44 0 0 0-1.233.633ZM85 16.917l.985-2.709c1.257 1 2.208 1.5 2.888 1.5.272 0 .51-.083.713-.291.272-.167.374-.417.374-.709 0-.416-.442-.791-1.393-1.083-1.325-.417-2.242-1.292-2.684-2.583-.17-.459-.237-.834-.237-1.209 0-.791.305-1.458.985-2.083.543-.5 1.392-.75 2.48-.75.78 0 1.698.125 2.751.375L91.182 10c-.814-.458-1.46-.667-1.97-.667-.237 0-.475.084-.679.209a.682.682 0 0 0-.408.625c0 .25.17.5.544.791.238.167.713.459 1.427.792.577.292 1.019.583 1.29.833.374.417.578 1 .612 1.709.034 1.125-.407 2.166-1.325 3.125-.373.416-.95.583-1.698.583-.985 0-2.31-.333-3.975-1.083ZM98.985 13.337c-.131 1.172-.63 1.711-1.47 1.616-.865-.063-1.337-.76-1.416-2.091-.026-.159-.026-.285-.026-.38 0-1.11.34-1.933.997-2.471.236-.19.472-.286.682-.286.446 0 .84.412 1.18 1.236l2.152-.19c-.656-2.566-1.522-3.802-2.755-3.77-.97.031-1.626.126-1.941.221-.578.19-1.102.634-1.548 1.331-.368.539-.63 1.774-.788 3.707-.052.38-.052.697-.052.982 0 1.457.289 2.63.918 3.549.656.982 1.575 1.457 2.755 1.457.236 0 .499 0 .735-.032 1.443-.253 2.335-1.774 2.676-4.594l-2.099-.285ZM103.002 13.127c.052-1.566.341-2.927.918-4.085.682-1.361 1.574-2.042 2.703-2.042 1.207 0 2.046.408 2.597 1.157.42.613.761 1.736.997 3.336.105.647.158 1.226.158 1.804 0 1.192-.237 2.213-.683 2.996-.682 1.191-1.705 1.77-3.096 1.702-1.259-.069-2.177-.477-2.755-1.26-.603-.783-.865-1.974-.839-3.608Zm4.723-2.485c-.368-.476-.735-.68-1.05-.68-.42 0-.787.34-1.128 1.02-.315.613-.472 1.226-.472 1.805 0 .544.157 1.123.419 1.668.315.646.683.987 1.076.987.472 0 .918-.34 1.286-.953.367-.58.551-1.192.551-1.805 0-.68-.21-1.361-.682-2.042ZM112.877 18.244c0-4.044-.085-7.256-.226-9.713l2.066-.226-.057.907c1.019-.832 2.066-1.247 3.142-1.21l.198 2.42c-1.217 0-2.094.34-2.575 1.02-.34.49-.51 1.7-.51 3.628 0 .869.028 1.89.085 3.099l-2.123.075ZM120.732 14.83c.236 1.018.734 1.544 1.521 1.61.735.032 1.207-.46 1.47-1.445l2.256-.394c-.577 2.922-1.705 4.399-3.411 4.399-.524 0-1.102-.164-1.758-.46-1.207-.853-1.81-2.495-1.81-4.924 0-.23.026-.46.026-.723.131-2.79 1.207-4.432 3.28-4.891 1.994-.066 3.122 1.641 3.411 5.121l-4.985 1.708Zm.603-3.578c-.288.427-.446.985-.498 1.609l3.017-1.084c-.341-.788-.787-1.182-1.286-1.182-.524 0-.944.23-1.233.657Z" fill="#fff"/><defs><linearGradient id="a" x1="130.826" y1="35.241" x2="155.389" y2="34.202" gradientUnits="userSpaceOnUse"><stop stop-color="#AB0009"/><stop offset="1" stop-color="#E54149"/></linearGradient></defs></svg>