<svg width="455" height="61" viewBox="0 0 455 61" fill="none" xmlns="http://www.w3.org/2000/svg">
<path fill-rule="evenodd" clip-rule="evenodd" d="M9.76061 0H445.084C450.49 0 454.995 3.10362 454.995 6.85382V54.0546C454.995 57.8048 450.49 60.9084 445.084 60.9084H9.76061C4.35474 60.9084 0 57.8048 0 54.0546V6.85382C0 3.10362 4.35474 0 9.76061 0Z" fill="#EFB469"/>
<path fill-rule="evenodd" clip-rule="evenodd" d="M13.5157 3.23315H441.332C446.587 3.23315 450.942 6.33675 450.942 9.95762V53.02C450.942 56.7702 446.587 59.7445 441.332 59.7445H13.5157C8.26 59.7445 4.05542 56.7702 4.05542 53.02V9.95762C4.05542 6.33675 8.26 3.23315 13.5157 3.23315Z" fill="#F1C383"/>
<path fill-rule="evenodd" clip-rule="evenodd" d="M13.9662 7.11255C156.321 7.11255 298.676 7.11255 441.031 7.11255C446.136 7.11255 450.341 10.0868 450.341 13.7077C450.341 26.7686 450.341 39.9588 450.341 53.0197C450.341 56.6405 446.136 59.6148 441.031 59.6148C298.676 59.6148 156.321 59.6148 13.9662 59.6148C8.71043 59.6148 4.50586 56.6405 4.50586 53.0197C4.50586 39.9588 4.50586 26.7686 4.50586 13.7077C4.50586 10.0868 8.71043 7.11255 13.9662 7.11255Z" fill="#F1C585"/>
<path fill-rule="evenodd" clip-rule="evenodd" d="M14.4164 10.9919C156.471 10.9919 298.525 10.9919 440.58 10.9919C445.685 10.9919 449.89 13.8369 449.89 17.4578C449.89 29.3549 449.89 41.1227 449.89 52.8905C449.89 56.5113 445.685 59.4856 440.58 59.4856C298.525 59.4856 156.471 59.4856 14.4164 59.4856C9.31089 59.4856 5.10632 56.5113 5.10632 52.8905C5.10632 41.1227 5.10632 29.3549 5.10632 17.4578C5.10632 13.8369 9.31089 10.9919 14.4164 10.9919Z" fill="#F1C786"/>
<path fill-rule="evenodd" clip-rule="evenodd" d="M14.8669 14.7424C156.621 14.7424 298.375 14.7424 440.129 14.7424C445.235 14.7424 449.289 17.7167 449.289 21.2083C449.289 31.8122 449.289 42.2869 449.289 52.8908C449.289 56.3824 445.084 59.3567 440.129 59.3567C298.375 59.3567 156.621 59.3567 14.8669 59.3567C9.76133 59.3567 5.55676 56.3824 5.55676 52.8908C5.55676 42.2869 5.55676 31.8122 5.55676 21.2083C5.55676 17.7167 9.76133 14.7424 14.8669 14.7424Z" fill="#F2CA88"/>
<path fill-rule="evenodd" clip-rule="evenodd" d="M15.1673 18.6216C156.771 18.6216 298.225 18.6216 439.679 18.6216C444.634 18.6216 448.689 21.4665 448.689 24.9581C448.689 34.2688 448.689 43.5795 448.689 52.7609C448.689 56.3818 444.634 59.2267 439.679 59.2267C298.225 59.2267 156.771 59.2267 15.1673 59.2267C10.2119 59.2267 6.15747 56.3818 6.15747 52.7609C6.15747 43.5795 6.15747 34.2688 6.15747 24.9581C6.15747 21.4665 10.2119 18.6216 15.1673 18.6216Z" fill="#F2CC8A"/>
<path fill-rule="evenodd" clip-rule="evenodd" d="M15.6177 22.5012C156.921 22.5012 298.075 22.5012 439.228 22.5012C444.184 22.5012 448.238 25.3462 448.238 28.7085C448.238 36.7262 448.238 44.7439 448.238 52.7617C448.238 56.2533 444.184 59.0983 439.228 59.0983C298.075 59.0983 156.921 59.0983 15.6177 59.0983C10.6623 59.0983 6.60791 56.2533 6.60791 52.7617C6.60791 44.7439 6.60791 36.7262 6.60791 28.7085C6.60791 25.2169 10.6623 22.5012 15.6177 22.5012Z" fill="#F2CE8B"/>
<path fill-rule="evenodd" clip-rule="evenodd" d="M16.068 26.251C156.921 26.251 297.924 26.251 438.778 26.251C443.733 26.251 447.637 29.096 447.637 32.4583C447.637 39.1828 447.637 45.9074 447.637 52.7613C447.637 56.1236 443.733 58.9686 438.778 58.9686C297.924 58.9686 156.921 58.9686 16.068 58.9686C11.2628 58.9686 7.20837 56.1236 7.20837 52.7613C7.20837 45.9074 7.20837 39.1828 7.20837 32.4583C7.20837 29.096 11.2628 26.251 16.068 26.251Z" fill="#F2D08D"/>
<path fill-rule="evenodd" clip-rule="evenodd" d="M16.5187 30.1313C157.071 30.1313 297.774 30.1313 438.327 30.1313C443.283 30.1313 447.187 32.847 447.187 36.2092C447.187 41.7697 447.187 47.201 447.187 52.6322C447.187 55.9944 443.132 58.8394 438.327 58.8394C297.774 58.8394 157.071 58.8394 16.5187 58.8394C11.7134 58.8394 7.8092 55.9944 7.8092 52.6322C7.8092 47.201 7.8092 41.7697 7.8092 36.2092C7.8092 32.847 11.7134 30.1313 16.5187 30.1313Z" fill="#F2D28E"/>
<path fill-rule="evenodd" clip-rule="evenodd" d="M16.9694 34.0103C157.222 34.0103 297.625 34.0103 438.027 34.0103C442.682 34.0103 446.587 36.7259 446.587 40.0881C446.587 44.2262 446.587 48.3644 446.587 52.6318C446.587 55.8647 442.682 58.7097 438.027 58.7097C297.625 58.7097 157.222 58.7097 16.9694 58.7097C12.1641 58.7097 8.25989 55.8647 8.25989 52.6318C8.25989 48.3644 8.25989 44.2262 8.25989 40.0881C8.25989 36.7259 12.1641 34.0103 16.9694 34.0103Z" fill="#F2D490"/>
<path fill-rule="evenodd" clip-rule="evenodd" d="M17.4194 37.7605C157.372 37.7605 297.474 37.7605 437.577 37.7605C442.232 37.7605 446.136 40.4761 446.136 43.8384C446.136 46.6833 446.136 49.6576 446.136 52.5026C446.136 55.8648 442.232 58.5805 437.577 58.5805C297.474 58.5805 157.372 58.5805 17.4194 58.5805C12.6142 58.5805 8.86011 55.8648 8.86011 52.5026C8.86011 49.6576 8.86011 46.6833 8.86011 43.8384C8.86011 40.4761 12.6142 37.7605 17.4194 37.7605Z" fill="#F3D792"/>
<path fill-rule="evenodd" clip-rule="evenodd" d="M17.7202 41.6401C157.522 41.6401 297.324 41.6401 437.126 41.6401C441.781 41.6401 445.535 44.3558 445.535 47.5888C445.535 49.1406 445.535 50.8217 445.535 52.5029C445.535 55.7358 441.781 58.4515 437.126 58.4515C297.324 58.4515 157.522 58.4515 17.7202 58.4515C13.2153 58.4515 9.31104 55.7358 9.31104 52.5029C9.31104 50.8217 9.31104 49.1406 9.31104 47.5888C9.31104 44.2265 13.2153 41.6401 17.7202 41.6401Z" fill="#F3D993"/>
<path fill-rule="evenodd" clip-rule="evenodd" d="M18.1708 45.3901H436.676C441.331 45.3901 445.085 48.1058 445.085 51.3387V52.3732C445.085 55.6061 441.181 58.1924 436.676 58.1924H18.1708C13.6659 58.1924 9.91187 55.6061 9.91187 52.3732V51.3387C9.91187 48.1058 13.6659 45.3901 18.1708 45.3901Z" fill="#F3DB95"/>
</svg>
