<svg width="100" height="170" viewBox="0 0 100 170" fill="none" xmlns="http://www.w3.org/2000/svg">
<path fill-rule="evenodd" clip-rule="evenodd" d="M16.2114 22.1172H87.0732C89.9108 22.1172 92.2229 25.1656 92.2229 28.8491V162.694C92.2229 166.409 89.9108 169.426 87.0732 169.426H16.2114C13.4 169.426 11.0879 166.409 11.0879 162.694V28.8491C11.0879 25.1656 13.4 22.1172 16.2114 22.1172Z" fill="black" fill-opacity="0.101961"/>
<path fill-rule="evenodd" clip-rule="evenodd" d="M14.7924 20.021H85.6542C88.4919 20.021 90.804 23.0377 90.804 26.7212V160.597C90.804 164.281 88.4919 167.298 85.6542 167.298H14.7924C11.9811 167.298 9.66895 164.281 9.66895 160.597V26.7212C9.66895 23.0377 11.9811 20.021 14.7924 20.021Z" fill="#E6E6E6"/>
<path fill-rule="evenodd" clip-rule="evenodd" d="M14.7924 18.624H85.6542C88.4919 18.624 90.804 21.6407 90.804 25.3242V159.2C90.804 162.884 88.4919 165.901 85.6542 165.901H14.7924C11.9811 165.901 9.66895 162.884 9.66895 159.2V25.3242C9.66895 21.6407 11.9811 18.624 14.7924 18.624Z" fill="white"/>
<path fill-rule="evenodd" clip-rule="evenodd" d="M18.0243 23.1011H83.1058C85.7857 23.1011 87.9402 25.959 87.9402 29.4519V155.612C87.9402 159.073 85.7857 161.931 83.1058 161.931H18.0243C15.3443 161.931 13.1636 159.073 13.1636 155.612V29.4519C13.1636 25.959 15.3443 23.1011 18.0243 23.1011Z" fill="#E6E6E6"/>
<path fill-rule="evenodd" clip-rule="evenodd" d="M16.8946 22.2759H82.16C84.8137 22.2759 86.9682 25.102 86.9682 28.5632V153.866C86.9682 157.327 84.8137 160.185 82.16 160.185H16.8946C14.2672 160.185 12.0864 157.327 12.0864 153.866V28.5632C12.0864 25.102 14.2672 22.2759 16.8946 22.2759Z" fill="#F1C383"/>
<path fill-rule="evenodd" clip-rule="evenodd" d="M16.8421 20.6245H81.1616C83.7627 20.6245 85.8909 23.4189 85.8909 26.8484V150.246C85.8909 153.675 83.7627 156.438 81.1616 156.438H16.8421C14.2146 156.438 12.0864 153.675 12.0864 150.246V26.8484C12.0864 23.4189 14.2146 20.6245 16.8421 20.6245Z" fill="#FAEECC"/>
<path fill-rule="evenodd" clip-rule="evenodd" d="M17.6036 21.4502C38.5179 21.4502 59.4586 21.4502 80.3992 21.4502C82.9741 21.4502 85.076 24.2128 85.076 27.5788C85.076 68.2244 85.076 108.87 85.076 149.515C85.076 152.881 82.9741 155.612 80.3992 155.612C59.4586 155.612 38.5179 155.612 17.6036 155.612C15.0287 155.612 12.9268 152.881 12.9268 149.515C12.9268 108.87 12.9268 68.2244 12.9268 27.5788C12.9268 24.2128 15.0287 21.4502 17.6036 21.4502Z" fill="#FAEDC9"/>
<path fill-rule="evenodd" clip-rule="evenodd" d="M18.3655 22.2759C38.7806 22.2759 59.1957 22.2759 79.6371 22.2759C82.1595 22.2759 84.2352 25.0068 84.2352 28.341C84.2352 68.4784 84.2352 108.616 84.2352 148.753C84.2352 152.088 82.1595 154.787 79.6371 154.787C59.1957 154.787 38.7806 154.787 18.3655 154.787C15.8169 154.787 13.7412 152.088 13.7412 148.753C13.7412 108.616 13.7412 68.4784 13.7412 28.341C13.7412 25.0068 15.8169 22.2759 18.3655 22.2759Z" fill="#F9ECC6"/>
<path fill-rule="evenodd" clip-rule="evenodd" d="M19.1279 23.1016C39.0438 23.1016 58.9597 23.1016 78.8757 23.1016C81.3717 23.1016 83.4211 25.8007 83.4211 29.0714C83.4211 68.7325 83.4211 108.362 83.4211 147.991C83.4211 151.294 81.3717 153.961 78.8757 153.961C58.9597 153.961 39.0438 153.961 19.1279 153.961C16.6055 153.961 14.5562 151.294 14.5562 147.991C14.5562 108.362 14.5562 68.7325 14.5562 29.0714C14.5562 25.8007 16.6055 23.1016 19.1279 23.1016Z" fill="#F9EBC2"/>
<path fill-rule="evenodd" clip-rule="evenodd" d="M19.8894 23.9268C39.2798 23.9268 58.6965 23.9268 78.1132 23.9268C80.583 23.9268 82.6061 26.5941 82.6061 29.8331C82.6061 68.9862 82.6061 108.108 82.6061 147.261C82.6061 150.5 80.583 153.135 78.1132 153.135C58.6965 153.135 39.2798 153.135 19.8894 153.135C17.4196 153.135 15.3965 150.5 15.3965 147.261C15.3965 108.108 15.3965 68.9862 15.3965 29.8331C15.3965 26.5941 17.4196 23.9268 19.8894 23.9268Z" fill="#F8EABF"/>
<path fill-rule="evenodd" clip-rule="evenodd" d="M20.6513 24.7529C39.5425 24.7529 58.4337 24.7529 77.325 24.7529C79.7685 24.7529 81.7916 27.3885 81.7916 30.5957C81.7916 69.209 81.7916 107.854 81.7916 146.499C81.7916 149.706 79.7685 152.31 77.325 152.31C58.4337 152.31 39.5425 152.31 20.6513 152.31C18.2078 152.31 16.2109 149.706 16.2109 146.499C16.2109 107.854 16.2109 69.209 16.2109 30.5957C16.2109 27.3885 18.2078 24.7529 20.6513 24.7529Z" fill="#F8E9BC"/>
<path fill-rule="evenodd" clip-rule="evenodd" d="M21.4137 25.5781C39.8057 25.5781 58.1977 25.5781 76.5634 25.5781C78.9807 25.5781 80.9513 28.182 80.9513 31.3257C80.9513 69.4626 80.9513 107.6 80.9513 145.768C80.9513 148.912 78.9807 151.484 76.5634 151.484C58.1977 151.484 39.8057 151.484 21.4137 151.484C18.9965 151.484 17.0259 148.912 17.0259 145.768C17.0259 107.6 17.0259 69.4626 17.0259 31.3257C17.0259 28.182 18.9965 25.5781 21.4137 25.5781Z" fill="#F7E8B9"/>
<path fill-rule="evenodd" clip-rule="evenodd" d="M22.1751 26.4038C40.0679 26.4038 57.9344 26.4038 75.801 26.4038C78.1919 26.4038 80.1362 28.9759 80.1362 32.0878C80.1362 69.7167 80.1362 107.377 80.1362 145.006C80.1362 148.118 78.1919 150.659 75.801 150.659C57.9344 150.659 40.0679 150.659 22.1751 150.659C19.8104 150.659 17.8398 148.118 17.8398 145.006C17.8398 107.377 17.8398 69.7167 17.8398 32.0878C17.8398 28.9759 19.8104 26.4038 22.1751 26.4038Z" fill="#F7E7B6"/>
<path fill-rule="evenodd" clip-rule="evenodd" d="M22.9376 27.2295C40.3049 27.2295 57.6722 27.2295 75.0395 27.2295C77.4042 27.2295 79.3222 29.7698 79.3222 32.8183C79.3222 69.9709 79.3222 107.123 79.3222 144.244C79.3222 147.324 77.4042 149.865 75.0395 149.865C57.6722 149.865 40.3049 149.865 22.9376 149.865C20.5992 149.865 18.6812 147.324 18.6812 144.244C18.6812 107.123 18.6812 69.9709 18.6812 32.8183C18.6812 29.7698 20.5992 27.2295 22.9376 27.2295Z" fill="#F6E6B3"/>
<path fill-rule="evenodd" clip-rule="evenodd" d="M23.6995 28.0552C40.5676 28.0552 57.4357 28.0552 74.2775 28.0552C76.5896 28.0552 78.4814 30.532 78.4814 33.5804C78.4814 70.2249 78.4814 106.869 78.4814 143.514C78.4814 146.531 76.5896 149.039 74.2775 149.039C57.4357 149.039 40.5676 149.039 23.6995 149.039C21.3874 149.039 19.4956 146.531 19.4956 143.514C19.4956 106.869 19.4956 70.2249 19.4956 33.5804C19.4956 30.532 21.3874 28.0552 23.6995 28.0552Z" fill="#F6E5AF"/>
<path fill-rule="evenodd" clip-rule="evenodd" d="M24.4872 28.8804C40.8298 28.8804 57.1724 28.8804 73.515 28.8804C75.8009 28.8804 77.6664 31.3255 77.6664 34.3421C77.6664 70.4786 77.6664 106.615 77.6664 142.751C77.6664 145.736 75.8009 148.213 73.515 148.213C57.1724 148.213 40.8298 148.213 24.4872 148.213C22.2013 148.213 20.3096 145.736 20.3096 142.751C20.3096 106.615 20.3096 70.4786 20.3096 34.3421C20.3096 31.3255 22.175 28.8804 24.4872 28.8804Z" fill="#F5E4AC"/>
<path fill-rule="evenodd" clip-rule="evenodd" d="M25.2497 29.7061H72.7536C75.0132 29.7061 76.8524 32.1194 76.8524 35.0725V141.989C76.8524 144.943 75.0132 147.388 72.7536 147.388H25.2497C22.9901 147.388 21.1509 144.943 21.1509 141.989V35.0725C21.1509 32.1194 22.9901 29.7061 25.2497 29.7061Z" fill="#F5E3A9"/>
<path fill-rule="evenodd" clip-rule="evenodd" d="M81.8443 147.134C83.2894 147.134 84.4455 148.658 84.4455 150.532C84.4455 152.437 83.2894 153.961 81.8443 153.961C80.3992 153.961 79.2432 152.437 79.2432 150.532C79.2432 148.658 80.3992 147.134 81.8443 147.134Z" fill="white"/>
<path fill-rule="evenodd" clip-rule="evenodd" d="M77.8506 150.626C78.6388 150.626 79.2694 151.452 79.2694 152.468C79.2694 153.484 78.6388 154.278 77.8506 154.278C77.0886 154.278 76.458 153.484 76.458 152.468C76.458 151.452 77.0886 150.626 77.8506 150.626Z" fill="white"/>
<path fill-rule="evenodd" clip-rule="evenodd" d="M17.1835 22.2119C19.4168 22.2119 21.2298 24.5617 21.2298 27.4831C21.2298 30.4045 19.4168 32.7544 17.1835 32.7544C14.9765 32.7544 13.1636 30.4045 13.1636 27.4831C13.1636 24.5617 14.9765 22.2119 17.1835 22.2119Z" fill="white"/>
<path fill-rule="evenodd" clip-rule="evenodd" d="M23.4106 21.5771C24.6454 21.5771 25.6439 22.8791 25.6439 24.4668C25.6439 26.0863 24.6454 27.3882 23.4106 27.3882C22.1757 27.3882 21.1772 26.0863 21.1772 24.4668C21.1772 22.8791 22.1757 21.5771 23.4106 21.5771Z" fill="white"/>
<path fill-rule="evenodd" clip-rule="evenodd" d="M19.8381 31.6113H77.7729C80.1902 31.6113 82.1345 34.4057 82.1345 37.8669V143.482C82.1345 146.943 80.1902 149.769 77.7729 149.769H19.8381C17.4471 149.769 15.4766 146.943 15.4766 143.482V37.8669C15.4766 34.4057 17.4471 31.6113 19.8381 31.6113Z" fill="#EFB469"/>
<path fill-rule="evenodd" clip-rule="evenodd" d="M21.4671 34.5962H76.1439C78.456 34.5962 80.374 37.3271 80.374 40.6613V142.624C80.374 145.927 78.456 148.658 76.1439 148.658H21.4671C19.1549 148.658 17.2632 145.959 17.2632 142.624V40.6613C17.2632 37.3271 19.1549 34.5962 21.4671 34.5962Z" fill="#F1C383"/>
<path fill-rule="evenodd" clip-rule="evenodd" d="M21.6509 35.7715C39.7539 35.7715 57.8568 35.7715 75.9598 35.7715C78.2457 35.7715 80.1375 38.4706 80.1375 41.7413C80.1375 75.3691 80.1375 108.965 80.1375 142.561C80.1375 145.864 78.2457 148.531 75.9598 148.531C57.8568 148.531 39.7539 148.531 21.6509 148.531C19.365 148.531 17.4995 145.864 17.4995 142.561C17.4995 108.965 17.4995 75.3691 17.4995 41.7413C17.4995 38.4706 19.365 35.7715 21.6509 35.7715Z" fill="#F1C585"/>
<path fill-rule="evenodd" clip-rule="evenodd" d="M21.8351 36.915C39.833 36.915 57.8046 36.915 75.7763 36.915C78.0358 36.915 79.9013 39.5824 79.9013 42.8531C79.9013 76.0681 79.9013 109.283 79.9013 142.498C79.9013 145.769 78.0358 148.436 75.7763 148.436C57.8046 148.436 39.833 148.436 21.8351 148.436C19.5755 148.436 17.7363 145.769 17.7363 142.498C17.7363 109.283 17.7363 76.0681 17.7363 42.8531C17.7363 39.5824 19.5755 36.915 21.8351 36.915Z" fill="#F1C786"/>
<path fill-rule="evenodd" clip-rule="evenodd" d="M22.0452 38.0894C39.8854 38.0894 57.7257 38.0894 75.5922 38.0894C77.8255 38.0894 79.6647 40.725 79.6647 43.9322C79.6647 76.7661 79.6647 109.6 79.6647 142.434C79.6647 145.673 77.8255 148.309 75.5922 148.309C57.7257 148.309 39.8854 148.309 22.0452 148.309C19.7856 148.309 17.9727 145.673 17.9727 142.434C17.9727 109.6 17.9727 76.7661 17.9727 43.9322C17.9727 40.725 19.7856 38.0894 22.0452 38.0894Z" fill="#F2CA88"/>
<path fill-rule="evenodd" clip-rule="evenodd" d="M22.229 39.2329C39.9378 39.2329 57.673 39.2329 75.4081 39.2329C77.6152 39.2329 79.4281 41.8368 79.4281 45.0122C79.4281 77.4651 79.4281 109.95 79.4281 142.403C79.4281 145.578 77.6152 148.182 75.4081 148.182C57.673 148.182 39.9378 148.182 22.229 148.182C20.0219 148.182 18.209 145.578 18.209 142.403C18.209 109.95 18.209 77.4651 18.209 45.0122C18.209 41.8368 20.0219 39.2329 22.229 39.2329Z" fill="#F2CC8A"/>
<path fill-rule="evenodd" clip-rule="evenodd" d="M22.4127 40.4077C40.0165 40.4077 57.6203 40.4077 75.1978 40.4077C77.4049 40.4077 79.1915 42.9798 79.1915 46.1235C79.1915 78.1954 79.1915 110.267 79.1915 142.339C79.1915 145.483 77.4049 148.055 75.1978 148.055C57.6203 148.055 40.0165 148.055 22.4127 148.055C20.232 148.055 18.4453 145.483 18.4453 142.339C18.4453 110.267 18.4453 78.1954 18.4453 46.1235C18.4453 42.9798 20.232 40.4077 22.4127 40.4077Z" fill="#F2CE8B"/>
<path fill-rule="evenodd" clip-rule="evenodd" d="M22.597 41.5508C40.0694 41.5508 57.5418 41.5508 75.0142 41.5508C77.1687 41.5508 78.9554 44.0911 78.9554 47.2031C78.9554 78.8939 78.9554 110.585 78.9554 142.276C78.9554 145.387 77.1687 147.928 75.0142 147.928C57.5418 147.928 40.0694 147.928 22.597 147.928C20.4425 147.928 18.6821 145.387 18.6821 142.276C18.6821 110.585 18.6821 78.8939 18.6821 47.2031C18.6821 44.0911 20.4425 41.5508 22.597 41.5508Z" fill="#F2D08D"/>
<path fill-rule="evenodd" clip-rule="evenodd" d="M22.7803 42.7256C40.1476 42.7256 57.4886 42.7256 74.8297 42.7256C76.9579 42.7256 78.7183 45.2342 78.7183 48.2826C78.7183 79.5924 78.7183 110.902 78.7183 142.212C78.7183 145.292 76.9579 147.801 74.8297 147.801C57.4886 147.801 40.1476 147.801 22.7803 147.801C20.6521 147.801 18.918 145.292 18.918 142.212C18.918 110.902 18.918 79.5924 18.918 48.2826C18.918 45.2342 20.6521 42.7256 22.7803 42.7256Z" fill="#F2D28E"/>
<path fill-rule="evenodd" clip-rule="evenodd" d="M22.9908 43.8691C40.2005 43.8691 57.4102 43.8691 74.6461 43.8691C76.7481 43.8691 78.4822 46.346 78.4822 49.3944C78.4822 80.3231 78.4822 111.252 78.4822 142.181C78.4822 145.197 76.7481 147.674 74.6461 147.674C57.4102 147.674 40.2005 147.674 22.9908 147.674C20.8626 147.674 19.1548 145.197 19.1548 142.181C19.1548 111.252 19.1548 80.3231 19.1548 49.3944C19.1548 46.346 20.8626 43.8691 22.9908 43.8691Z" fill="#F2D490"/>
<path fill-rule="evenodd" clip-rule="evenodd" d="M23.1746 45.0439C40.2529 45.0439 57.3575 45.0439 74.4358 45.0439C76.5377 45.0439 78.2456 47.489 78.2456 50.4739C78.2456 81.0216 78.2456 111.569 78.2456 142.117C78.2456 145.102 76.5377 147.547 74.4358 147.547C57.3575 147.547 40.2529 147.547 23.1746 147.547C21.0989 147.547 19.3911 145.102 19.3911 142.117C19.3911 111.569 19.3911 81.0216 19.3911 50.4739C19.3911 47.489 21.0989 45.0439 23.1746 45.0439Z" fill="#F3D792"/>
<path fill-rule="evenodd" clip-rule="evenodd" d="M23.3589 46.187C40.3321 46.187 57.3053 46.187 74.2522 46.187C76.3279 46.187 78.0095 48.6003 78.0095 51.5852C78.0095 81.7201 78.0095 111.887 78.0095 142.053C78.0095 145.007 76.3016 147.42 74.2522 147.42C57.3053 147.42 40.3321 147.42 23.3589 147.42C21.3095 147.42 19.6279 145.007 19.6279 142.053C19.6279 111.887 19.6279 81.7201 19.6279 51.5852C19.6279 48.6003 21.3095 46.187 23.3589 46.187Z" fill="#F3D993"/>
<path fill-rule="evenodd" clip-rule="evenodd" d="M23.5427 47.3618H74.0681C76.0913 47.3618 77.7465 49.7434 77.7465 52.6648V141.99C77.7465 144.911 76.0913 147.324 74.0681 147.324H23.5427C21.5195 147.324 19.8643 144.911 19.8643 141.99V52.6648C19.8643 49.7434 21.5195 47.3618 23.5427 47.3618Z" fill="#F3DB95"/>
<path fill-rule="evenodd" clip-rule="evenodd" d="M22.9375 35.9935C22.9375 36.1205 22.9375 36.2158 22.9375 36.311V36.3428C22.9112 36.4381 22.9112 36.5016 22.9112 36.5651C22.8849 36.5968 22.8849 36.6286 22.8849 36.6603C22.8586 36.7238 22.8586 36.7556 22.8586 36.7873C22.8324 36.8191 22.8324 36.8509 22.8061 36.8826C22.8061 36.9461 22.7798 36.9779 22.7798 37.0096C22.7535 37.0414 22.7535 37.0731 22.7273 37.0731C22.701 37.1049 22.701 37.1684 22.6747 37.2002C22.6747 37.2002 22.6484 37.2319 22.6222 37.2637C22.5959 37.2637 22.5959 37.2954 22.5696 37.3272C22.5434 37.3589 22.5171 37.3589 22.5171 37.3907C22.4908 37.4224 22.4645 37.4542 22.4383 37.4542C22.412 37.4859 22.3857 37.4859 22.3594 37.5177C22.3332 37.5177 22.3069 37.5495 22.2806 37.5495C22.2543 37.5812 22.2281 37.5812 22.2018 37.613C22.1755 37.613 22.1492 37.613 22.0967 37.6447C22.0704 37.6447 22.0441 37.6447 22.0179 37.6765C21.9916 37.6765 21.9653 37.6765 21.9128 37.7082C21.8865 37.7082 21.8602 37.7082 21.8339 37.7082C21.8077 37.7082 21.7551 37.74 21.7026 37.74C21.6763 37.74 21.65 37.74 21.6238 37.74C21.5712 37.74 21.5449 37.74 21.4924 37.74C21.4661 37.74 21.4136 37.74 21.3873 37.74C21.3347 37.74 21.3085 37.74 21.2559 37.74H21.1508C21.0983 37.74 21.0457 37.7082 20.9932 37.7082H20.8881C20.8355 37.7082 20.783 37.6765 20.7304 37.6765L20.6253 37.6447C20.5728 37.6447 20.494 37.6447 20.4414 37.613L20.3363 37.5812C20.2838 37.5812 20.2049 37.5812 20.1524 37.5495L20.0473 37.5177C19.9685 37.5177 19.8896 37.4859 19.8371 37.4542L19.732 37.4224C19.6532 37.4224 19.5744 37.3907 19.4955 37.3589H19.4167L19.154 37.2637L19.1014 37.2319C16.9995 36.5333 14.2407 35.3267 11.3505 34.7551C10.8776 34.6598 10.4046 34.5963 9.95796 34.5328H9.93169C9.77404 34.5328 9.64267 34.501 9.48502 34.501C9.32738 34.501 9.16973 34.4693 9.01209 34.4693H8.98581C5.85917 34.3423 2.78508 35.3267 0.394115 38.9466L0.315292 39.0419V39.0737C0.210194 39.2324 0.105097 39.3912 0 39.5817C1.57646 29.4839 4.598 26.4355 8.3815 23.5458L8.25013 23.3553L7.77719 22.752H92.1965L91.7236 23.3553L91.5922 23.5458C95.3757 26.4355 98.3973 29.4839 100 39.5817C99.8949 39.3912 99.7898 39.2324 99.6847 39.0737L99.6584 39.0419L99.6059 38.9466H99.5796C97.2149 35.3267 94.1146 34.3423 90.9879 34.4693H90.9616C90.8303 34.4693 90.6726 34.501 90.515 34.501C90.3573 34.501 90.1997 34.5328 90.042 34.5328C89.5691 34.5963 89.0962 34.6598 88.6495 34.7551H88.6232C85.7593 35.3267 83.0005 36.5333 80.8986 37.2319L80.8198 37.2637L80.557 37.3589H80.4782C80.3994 37.3907 80.3205 37.4224 80.268 37.4224L80.1629 37.4542C80.0841 37.4859 80.0053 37.5177 79.9527 37.5177L79.8476 37.5495C79.7688 37.5812 79.7162 37.5812 79.6374 37.5812L79.5323 37.613C79.4798 37.6447 79.4272 37.6447 79.3484 37.6447L79.2433 37.6765C79.1907 37.6765 79.1382 37.7082 79.0857 37.7082H78.9806C78.928 37.7082 78.8755 37.74 78.8229 37.74H78.7441C78.6915 37.74 78.639 37.74 78.5864 37.74C78.5602 37.74 78.5339 37.74 78.4813 37.74C78.4551 37.74 78.4025 37.74 78.35 37.74C78.3237 37.74 78.2974 37.74 78.2711 37.74C78.2186 37.74 78.1923 37.7082 78.1398 37.7082C78.1135 37.7082 78.0872 37.7082 78.061 37.7082C78.0347 37.6765 77.9821 37.6765 77.9559 37.6765C77.9296 37.6447 77.9033 37.6447 77.877 37.6447C77.8508 37.613 77.8245 37.613 77.7719 37.613C77.7457 37.5812 77.7194 37.5812 77.6931 37.5495C77.6668 37.5495 77.6406 37.5177 77.6143 37.5177C77.588 37.4859 77.588 37.4859 77.5617 37.4542C77.5355 37.4542 77.5092 37.4224 77.4829 37.3907C77.4566 37.3589 77.4304 37.3589 77.4304 37.3272C77.4041 37.2954 77.3778 37.2637 77.3515 37.2637C77.3253 37.2319 77.3253 37.2002 77.299 37.2002C77.299 37.1684 77.2727 37.1049 77.2465 37.0731C77.2465 37.0731 77.2202 37.0414 77.2202 37.0096C77.1939 36.9779 77.1939 36.9461 77.1676 36.8826C77.1676 36.8509 77.1414 36.8191 77.1414 36.7873C77.1151 36.7556 77.1151 36.7238 77.1151 36.6603C77.0888 36.6286 77.0888 36.5968 77.0888 36.5651C77.0625 36.5016 77.0625 36.4381 77.0625 36.3428C77.0625 36.3428 77.0625 36.311 77.0363 36.311C77.0363 36.2158 77.0363 36.1205 77.0363 35.9935V33.6437V28.817H77.01L76.8523 28.7853H76.8261H76.7998V28.7535H76.7735H76.7472H76.721H76.6947L76.2743 28.6583H76.248L75.8802 28.563H75.8539C75.6437 28.5312 75.4072 28.4677 75.1708 28.436H75.1445V28.4042L74.8029 28.3407H74.7767H74.7504H74.7241L74.3826 28.2772H74.3563H74.33H74.3037H74.2775V28.2454H74.2512L73.8571 28.1819H73.8308H73.8045H73.7782C73.568 28.1502 73.3316 28.0867 73.0951 28.0549H73.0688H73.0426L72.6484 27.9914L72.0704 27.8961L71.65 27.8644V27.8326H71.6237H71.5975C71.361 27.8009 71.0983 27.7691 70.8355 27.7374H70.8092H70.783H70.7567L70.3363 27.6739H70.31H70.2838H70.2575H70.2312L69.8108 27.6104H69.7845H69.7583H69.732L69.2853 27.5469H69.2591H69.2328C68.97 27.5151 68.7073 27.4833 68.4183 27.4516H68.392H68.3657L67.8928 27.3881L67.2359 27.3246L66.763 27.2928H66.7367H66.7105C66.4477 27.2611 66.1587 27.2293 65.8697 27.1976H65.8434H65.8171L65.2654 27.1658L64.6873 27.1023H64.6611L64.083 27.0705H64.0568H64.0305L63.216 27.007H63.1897H63.1634L62.6117 26.9753H62.5854L61.9811 26.9118L61.2191 26.88H61.1929H61.1666H61.1403H61.114H61.0878L60.4309 26.8483H60.4046H60.3783L59.8266 26.8165L59.1697 26.7847L58.434 26.753L57.5407 26.7212H57.5144L56.9627 26.6895L56.2533 26.6577H55.649C55.36 26.6577 55.0709 26.626 54.7819 26.626H54.7556H54.7294H54.7031H54.6768H54.6506H54.0725L53.4157 26.5942H53.3894H53.3631H53.3368H52.6274H52.6012H52.5749H52.5486H52.5223H52.4961H51.7341H51.2086H51.1823L50.3941 26.5625H50.3678H49.5533L48.8439 26.5942H48.2396H47.4777H47.4514H46.5581L45.9275 26.626H45.3494H45.3232L44.4824 26.6577H43.6942L43.0373 26.6895L42.433 26.7212L41.671 26.753H41.6448H41.0142V26.7847H40.9879H40.9616H40.9354H40.9091H40.8828H40.8565H40.8303L40.1734 26.8165L39.5954 26.8483L38.8334 26.88H38.8071L37.9664 26.9435L37.4409 26.9753L36.8366 27.007H36.8103L36.2323 27.0388H36.206H36.1797H36.1534H36.1272H36.1009L36.0746 27.0705L35.4178 27.1023H35.3915H35.3652H35.3389H35.3127H35.2864H35.2601L34.7346 27.1658L34.1566 27.1976H34.1303H34.104H34.0778V27.2293H34.0515H34.0252L33.3421 27.2928H33.3158H33.2895H33.2633H33.237L32.7378 27.3246L32.1072 27.3881H32.0809L31.6343 27.4516H31.608C31.3452 27.4833 31.0562 27.5151 30.7935 27.5469H30.7672H30.7409H30.7147L30.2417 27.6104L29.7162 27.6739H29.69L29.1908 27.7374H29.1645H29.1382H29.1119C28.8755 27.7691 28.639 27.8009 28.4025 27.8326H28.3762H28.35L27.9033 27.9279L27.3778 27.9914L26.9312 28.0549H26.9049C26.6684 28.0867 26.4319 28.1502 26.1955 28.1819H26.1692H26.1429L25.7488 28.2454H25.7225L25.2496 28.3407H25.2233H25.1971V28.3725H25.1708L24.8555 28.4042V28.436H24.8292C24.5927 28.4677 24.3563 28.5312 24.1461 28.563H24.1198H24.0935L23.8045 28.6265H23.7782L23.752 28.6583H23.7257L23.3053 28.7535H23.279H23.2528L22.9375 28.817V33.6437V35.9935Z" fill="black" fill-opacity="0.101961"/>
<path fill-rule="evenodd" clip-rule="evenodd" d="M22.9375 33.708C22.9375 40.4399 7.48818 24.531 0 37.2645C1.8392 26.7855 4.30899 24.6262 8.3815 21.2285L2.15449 13.2582C8.43405 9.22538 19.6006 18.8787 22.9375 9.63818V33.708Z" fill="#E54149"/>
<path fill-rule="evenodd" clip-rule="evenodd" d="M0.394115 36.6294C0.262743 36.8199 0.131372 37.0422 0 37.2645C1.57646 27.1666 4.598 24.1182 8.3815 21.2285C5.91172 26.0552 2.18077 27.9922 0.394115 36.6294ZM2.969 14.3061L2.15449 13.2582C8.43405 9.22538 19.6006 18.8787 22.9375 9.63818V11.0989C19.732 19.9583 9.35365 11.4482 2.969 14.3061Z" fill="#FF6595"/>
<path fill-rule="evenodd" clip-rule="evenodd" d="M22.9375 33.7079C22.9375 40.4399 7.48818 24.5309 0 37.2644C5.30741 20.8474 22.9375 38.0265 22.9375 31.3264V33.7079Z" fill="#CF1922"/>
<path fill-rule="evenodd" clip-rule="evenodd" d="M16.8682 6.7168L22.9375 7.57416V33.708C21.5975 26.0552 16.8682 33.3269 16.8682 29.6117V6.7168Z" fill="#E54149"/>
<path fill-rule="evenodd" clip-rule="evenodd" d="M16.8682 6.7168L22.9375 7.51066V33.708C22.0968 25.3884 17.1046 32.8506 17.236 28.3415L16.8682 6.7168Z" fill="#AB0009"/>
<path fill-rule="evenodd" clip-rule="evenodd" d="M77.0361 33.708C77.0361 40.4399 92.4854 24.531 99.9999 37.2645C98.1607 26.7855 95.6646 24.6262 91.5921 21.2285L97.8191 13.2582C91.5396 9.22538 80.373 18.8787 77.0361 9.63818V33.708Z" fill="#E54149"/>
<path fill-rule="evenodd" clip-rule="evenodd" d="M99.5795 36.6294C99.7371 36.8199 99.8685 37.0422 99.9999 37.2645C98.3972 27.1666 95.3756 24.1182 91.5921 21.2285C94.0619 26.0552 97.8191 27.9922 99.5795 36.6294ZM97.0046 14.3061L97.8191 13.2582C91.5396 9.22538 80.373 18.8787 77.0361 9.63818V11.0989C80.2416 19.9583 90.62 11.4482 97.0046 14.3061Z" fill="#FF6595"/>
<path fill-rule="evenodd" clip-rule="evenodd" d="M77.0361 33.7079C77.0361 40.4399 92.4854 24.5309 99.9999 37.2644C94.6662 20.8474 77.0361 38.0265 77.0361 31.3264V33.7079Z" fill="#CF1922"/>
<path fill-rule="evenodd" clip-rule="evenodd" d="M83.1318 6.7168L77.0361 7.57416V33.708C78.3761 26.0552 83.1318 33.3269 83.1318 29.6117V6.7168Z" fill="#E54149"/>
<path fill-rule="evenodd" clip-rule="evenodd" d="M83.1318 6.7168L77.0361 7.51066V33.708C77.9032 25.3884 82.8953 32.8506 82.764 28.3415L83.1318 6.7168Z" fill="#AB0009"/>
<path fill-rule="evenodd" clip-rule="evenodd" d="M16.8682 6.71604C17.8666 -2.23868 82.1335 -2.23868 83.132 6.71604V29.4522C79.6637 22.5297 20.3364 22.5297 16.8682 29.4522V6.71604Z" fill="#E54149"/>
<path fill-rule="evenodd" clip-rule="evenodd" d="M83.132 15.7978V29.4522C79.6637 22.5297 20.3364 22.5297 16.8682 29.4522V15.7978C27.6669 10.1455 72.3069 10.1455 83.132 15.7978Z" fill="#E01B25"/>
<path fill-rule="evenodd" clip-rule="evenodd" d="M16.8682 6.6524C18.1819 -2.20705 81.8182 -2.20705 83.132 6.6524C74.9869 0.0157511 25.0132 0.0157511 16.8682 6.6524Z" fill="#FF6595"/>
<path fill-rule="evenodd" clip-rule="evenodd" d="M83.132 28.1187V29.4524C79.6637 22.5299 20.3364 22.5299 16.8682 29.4524V28.1187C20.3364 21.228 79.6637 21.228 83.132 28.1187Z" fill="#C20F18"/>
<path d="M31.543 15.5601C31.543 15.4116 31.6016 15.2827 31.7188 15.1733C31.8438 15.0562 31.9375 14.978 32 14.939C32.0703 14.8921 32.1172 14.8569 32.1406 14.8335C32.1797 15.5444 32.6602 15.8999 33.582 15.8999C34.3086 15.8999 35.1562 15.6733 36.125 15.2202C36.8125 14.9077 37.2734 14.5874 37.5078 14.2593C37.5859 14.1577 37.625 14.0757 37.625 14.0132C37.625 13.9429 37.6133 13.8882 37.5898 13.8491L32.7266 12.7593C32.5859 12.728 32.4492 12.6616 32.3164 12.5601C32.0742 12.3882 31.9531 12.2319 31.9531 12.0913C31.9531 11.5522 32.3359 11.064 33.1016 10.6265C33.9453 10.1499 35.0742 9.79053 36.4883 9.54834C36.8086 9.49365 37.0469 9.4624 37.2031 9.45459C37.25 9.47021 37.3203 9.48584 37.4141 9.50146C37.5156 9.50928 37.6172 9.5249 37.7188 9.54834C37.9609 9.60303 38.0625 9.70459 38.0234 9.85303C38.0234 10.1187 37.5156 10.3296 36.5 10.4858C35.1875 10.6812 34.3672 10.8452 34.0391 10.978C33.7188 11.1108 33.4844 11.2476 33.3359 11.3882C33.1953 11.5288 33.1211 11.6968 33.1133 11.8921C33.1133 11.9312 33.2031 11.9741 33.3828 12.021C33.5625 12.0679 33.7773 12.1265 34.0273 12.1968C34.2773 12.2593 34.6016 12.3452 35 12.4546C35.9688 12.7202 37.1562 13.0562 38.5625 13.4624C38.6406 13.6343 38.6797 13.7944 38.6797 13.9429C38.6797 14.3569 38.4375 14.7554 37.9531 15.1382C37.4062 15.5679 36.6484 15.9312 35.6797 16.228C34.875 16.4702 34.2344 16.5913 33.7578 16.5913C33.3594 16.5913 32.9805 16.521 32.6211 16.3804C32.2617 16.2397 31.9922 16.103 31.8125 15.9702C31.6328 15.8374 31.543 15.7007 31.543 15.5601ZM39.6172 14.6108C39.4297 14.189 39.3359 13.6929 39.3359 13.1226C39.3359 12.5522 39.4258 12.0483 39.6055 11.6108C39.793 11.1655 40.0469 10.7827 40.3672 10.4624C41.0469 9.79834 41.8984 9.46631 42.9219 9.46631C43.9922 9.46631 44.875 9.7124 45.5703 10.2046C46.3516 10.7671 46.7422 11.5718 46.7422 12.6187C46.7422 13.9155 46.4414 14.8726 45.8398 15.4897C45.2461 16.1069 44.3164 16.4155 43.0508 16.4155C41.293 16.4155 40.1484 15.814 39.6172 14.6108ZM40.2969 12.8882C40.2969 14.7319 41.2266 15.6538 43.0859 15.6538C44 15.6538 44.7422 15.3804 45.3125 14.8335C45.8828 14.2944 46.168 13.5874 46.168 12.7124C46.168 11.8921 45.8281 11.2671 45.1484 10.8374C44.5703 10.4624 43.8398 10.2749 42.957 10.2749C42.2539 10.2749 41.6328 10.5288 41.0938 11.0366C40.5625 11.5444 40.2969 12.1616 40.2969 12.8882ZM53.2812 16.3921C53.2812 16.5327 53.1602 16.603 52.918 16.603C52.8008 16.603 52.6914 16.5874 52.5898 16.5562C52.4961 16.5171 52.4375 16.4858 52.4141 16.4624L52.5312 14.9624C51.8125 15.5796 51.2891 15.9663 50.9609 16.1226C50.4453 16.3804 49.918 16.5093 49.3789 16.5093C49.2773 16.5093 49.1719 16.5054 49.0625 16.4976C47.9219 16.3726 47.3516 15.6421 47.3516 14.3062C47.3516 13.6968 47.5078 12.6616 47.8203 11.2007C47.9219 10.7476 47.9883 10.3335 48.0195 9.9585C48.043 9.95068 48.0938 9.94678 48.1719 9.94678C48.1719 9.94678 48.2188 9.94678 48.3125 9.94678C48.3516 9.93896 48.3867 9.93506 48.418 9.93506C48.668 9.93506 48.793 10.1226 48.793 10.4976C48.793 10.7554 48.7422 11.0757 48.6406 11.4585C48.3281 12.7163 48.1719 13.5874 48.1719 14.0718C48.1719 14.5796 48.3047 14.978 48.5703 15.2671C48.7422 15.4546 49.0117 15.5679 49.3789 15.6069C49.4258 15.6069 49.4727 15.6069 49.5195 15.6069C50.793 15.6069 51.6289 14.9937 52.0273 13.7671C52.2617 13.0483 52.3984 12.1812 52.4375 11.1655C52.4609 10.6968 52.4805 10.2319 52.4961 9.771C52.582 9.53662 52.6992 9.41943 52.8477 9.41943C52.9961 9.41943 53.1602 9.48584 53.3398 9.61865C53.3633 10.0718 53.375 10.5171 53.375 10.9546L53.2578 15.4312C53.2578 15.7515 53.2656 16.0718 53.2812 16.3921ZM60.9805 12.4429C60.9805 14.8179 60.8828 16.2085 60.6875 16.6147L59.832 16.5444C59.4023 15.8022 58.6797 14.7593 57.6641 13.4155C57.2656 12.8843 56.8672 12.3569 56.4688 11.8335C56.0781 11.3101 55.7188 10.7905 55.3906 10.2749C55.2344 10.9702 55.1562 12.3608 55.1562 14.4468C55.1562 15.2437 55.1406 15.9155 55.1094 16.4624C54.9609 16.603 54.7969 16.6733 54.6172 16.6733C54.4453 16.6733 54.3242 16.6538 54.2539 16.6147C54.1836 16.5835 54.1484 16.5288 54.1484 16.4507C54.1484 16.3647 54.1562 16.2358 54.1719 16.064C54.1953 15.8843 54.2188 15.5874 54.2422 15.1733C54.2734 14.7593 54.3008 14.3218 54.3242 13.8608C54.3867 12.6577 54.418 11.6226 54.418 10.7554C54.418 9.88037 54.4102 9.16162 54.3945 8.59912C54.5664 8.44287 54.6992 8.32959 54.793 8.25928C54.8867 8.18896 54.9922 8.19287 55.1094 8.271C55.2266 8.34131 55.375 8.50146 55.5547 8.75146C55.7422 8.99365 56.0039 9.35693 56.3398 9.84131C57.4883 11.4741 58.6172 13.0054 59.7266 14.4351L59.9492 8.59912C60.0352 8.44287 60.1211 8.3374 60.207 8.28271C60.293 8.22021 60.4062 8.18896 60.5469 8.18896C60.8203 8.18896 60.957 8.43896 60.957 8.93896L60.9453 9.37256L60.9805 12.4429ZM62.6094 9.38428C63.1875 9.18115 63.9531 9.07959 64.9062 9.07959C66.6484 9.07959 67.8398 9.50928 68.4805 10.3687C68.7305 10.6968 68.8555 11.1147 68.8555 11.6226C68.8633 11.6929 68.8672 11.7632 68.8672 11.8335C68.8672 12.6147 68.4102 13.4077 67.4961 14.2124C66.6602 14.9702 65.6289 15.5796 64.4023 16.0405C63.5898 16.353 62.918 16.5093 62.3867 16.5093C62.168 16.5093 61.9805 16.478 61.8242 16.4155V9.10303H61.9883C62.168 9.10303 62.3125 9.13428 62.4219 9.19678C62.5312 9.25146 62.5938 9.31396 62.6094 9.38428ZM68.0703 11.7163C68 11.021 67.6133 10.5054 66.9102 10.1694C66.3867 9.91943 65.7305 9.79443 64.9414 9.79443L64.7305 9.80615C63.9883 9.82178 63.3477 9.93896 62.8086 10.1577V15.7476C63.3555 15.7476 64.0391 15.5483 64.8594 15.1499C66.2812 14.4468 67.2578 13.6304 67.7891 12.7007C67.9766 12.3726 68.0703 12.0444 68.0703 11.7163Z" fill="white"/>
</svg>
