<svg width="100" height="170" fill="none" xmlns="http://www.w3.org/2000/svg"><path fill-rule="evenodd" clip-rule="evenodd" d="M16.211 22.117h70.862c2.838 0 5.15 3.049 5.15 6.732v133.845c0 3.715-2.312 6.732-5.15 6.732H16.211c-2.811 0-5.123-3.017-5.123-6.732V28.849c0-3.683 2.312-6.732 5.123-6.732Z" fill="#000" fill-opacity=".102"/><path fill-rule="evenodd" clip-rule="evenodd" d="M14.792 20.021h70.862c2.838 0 5.15 3.017 5.15 6.7v133.876c0 3.684-2.312 6.701-5.15 6.701H14.792c-2.81 0-5.123-3.017-5.123-6.701V26.721c0-3.683 2.312-6.7 5.123-6.7Z" fill="#E6E6E6"/><path fill-rule="evenodd" clip-rule="evenodd" d="M14.792 18.624h70.862c2.838 0 5.15 3.017 5.15 6.7V159.2c0 3.684-2.312 6.701-5.15 6.701H14.792c-2.81 0-5.123-3.017-5.123-6.701V25.324c0-3.683 2.312-6.7 5.123-6.7Z" fill="#fff"/><path fill-rule="evenodd" clip-rule="evenodd" d="M18.024 23.101h65.082c2.68 0 4.834 2.858 4.834 6.35v126.161c0 3.461-2.154 6.319-4.834 6.319H18.024c-2.68 0-4.86-2.858-4.86-6.319V29.452c0-3.493 2.18-6.35 4.86-6.35Z" fill="#E6E6E6"/><path fill-rule="evenodd" clip-rule="evenodd" d="M16.895 22.276H82.16c2.654 0 4.808 2.826 4.808 6.287v125.303c0 3.461-2.154 6.319-4.808 6.319H16.895c-2.628 0-4.809-2.858-4.809-6.319V28.563c0-3.461 2.181-6.287 4.809-6.287Z" fill="#F1C383"/><path fill-rule="evenodd" clip-rule="evenodd" d="M16.842 20.625h64.32c2.6 0 4.729 2.794 4.729 6.223v123.398c0 3.429-2.128 6.192-4.73 6.192H16.843c-2.627 0-4.756-2.763-4.756-6.192V26.848c0-3.43 2.129-6.223 4.756-6.223Z" fill="#FAEECC"/><path fill-rule="evenodd" clip-rule="evenodd" d="M17.604 21.45h62.795c2.575 0 4.677 2.763 4.677 6.129v121.936c0 3.366-2.102 6.097-4.677 6.097H17.604c-2.575 0-4.677-2.731-4.677-6.097V27.579c0-3.366 2.102-6.129 4.677-6.129Z" fill="#FAEDC9"/><path fill-rule="evenodd" clip-rule="evenodd" d="M18.366 22.276h61.271c2.522 0 4.598 2.73 4.598 6.065v120.412c0 3.335-2.076 6.034-4.598 6.034H18.365c-2.548 0-4.624-2.699-4.624-6.034V28.341c0-3.334 2.076-6.065 4.625-6.065Z" fill="#F9ECC6"/><path fill-rule="evenodd" clip-rule="evenodd" d="M19.128 23.102h59.748c2.496 0 4.545 2.699 4.545 5.97V147.99c0 3.303-2.05 5.97-4.545 5.97H19.128c-2.523 0-4.572-2.667-4.572-5.97V29.071c0-3.27 2.05-5.97 4.572-5.97Z" fill="#F9EBC2"/><path fill-rule="evenodd" clip-rule="evenodd" d="M19.89 23.927h58.223c2.47 0 4.493 2.667 4.493 5.906v117.428c0 3.239-2.023 5.874-4.493 5.874H19.89c-2.47 0-4.492-2.635-4.492-5.874V29.833c0-3.239 2.023-5.906 4.492-5.906Z" fill="#F8EABF"/><path fill-rule="evenodd" clip-rule="evenodd" d="M20.651 24.753h56.674c2.444 0 4.467 2.636 4.467 5.843v115.903c0 3.207-2.023 5.811-4.467 5.811H20.651c-2.443 0-4.44-2.604-4.44-5.811V30.596c0-3.207 1.997-5.843 4.44-5.843Z" fill="#F8E9BC"/><path fill-rule="evenodd" clip-rule="evenodd" d="M21.414 25.578h55.15c2.417 0 4.387 2.604 4.387 5.748v114.442c0 3.144-1.97 5.716-4.388 5.716h-55.15c-2.416 0-4.387-2.572-4.387-5.716V31.326c0-3.144 1.97-5.748 4.388-5.748Z" fill="#F7E8B9"/><path fill-rule="evenodd" clip-rule="evenodd" d="M22.175 26.404h53.626c2.39 0 4.335 2.572 4.335 5.684v112.918c0 3.112-1.944 5.653-4.335 5.653H22.175c-2.365 0-4.335-2.541-4.335-5.653V32.088c0-3.112 1.97-5.684 4.335-5.684Z" fill="#F7E7B6"/><path fill-rule="evenodd" clip-rule="evenodd" d="M22.938 27.23H75.04c2.364 0 4.282 2.54 4.282 5.588v111.426c0 3.08-1.918 5.621-4.282 5.621H22.938c-2.339 0-4.257-2.541-4.257-5.621V32.818c0-3.048 1.918-5.588 4.257-5.588Z" fill="#F6E6B3"/><path fill-rule="evenodd" clip-rule="evenodd" d="M23.7 28.055h50.578c2.312 0 4.203 2.477 4.203 5.525v109.934c0 3.017-1.891 5.525-4.203 5.525H23.699c-2.312 0-4.203-2.508-4.203-5.525V33.58c0-3.048 1.891-5.525 4.204-5.525Z" fill="#F6E5AF"/><path fill-rule="evenodd" clip-rule="evenodd" d="M24.487 28.88h49.028c2.286 0 4.151 2.446 4.151 5.462v108.409c0 2.985-1.865 5.462-4.151 5.462H24.487c-2.286 0-4.177-2.477-4.177-5.462V34.342c0-3.016 1.865-5.462 4.177-5.462Z" fill="#F5E4AC"/><path fill-rule="evenodd" clip-rule="evenodd" d="M25.25 29.706h47.504c2.26 0 4.098 2.413 4.098 5.366V141.99c0 2.954-1.839 5.399-4.098 5.399H25.25c-2.26 0-4.1-2.445-4.1-5.399V35.072c0-2.953 1.84-5.366 4.1-5.366Z" fill="#F5E3A9"/><path fill-rule="evenodd" clip-rule="evenodd" d="M81.844 147.134c1.445 0 2.602 1.524 2.602 3.398 0 1.905-1.157 3.429-2.602 3.429-1.445 0-2.6-1.524-2.6-3.429 0-1.874 1.155-3.398 2.6-3.398ZM77.85 150.626c.789 0 1.42.826 1.42 1.842s-.631 1.81-1.42 1.81c-.761 0-1.392-.794-1.392-1.81s.63-1.842 1.393-1.842ZM17.183 22.212c2.234 0 4.047 2.35 4.047 5.271s-1.813 5.271-4.047 5.271c-2.207 0-4.02-2.35-4.02-5.27 0-2.922 1.813-5.272 4.02-5.272ZM23.41 21.577c1.235 0 2.234 1.302 2.234 2.89 0 1.62-.999 2.921-2.233 2.921-1.235 0-2.234-1.302-2.234-2.921 0-1.588.999-2.89 2.234-2.89Z" fill="#fff"/><path fill-rule="evenodd" clip-rule="evenodd" d="M19.838 31.611h57.935c2.417 0 4.362 2.795 4.362 6.256v105.615c0 3.461-1.945 6.287-4.362 6.287H19.838c-2.39 0-4.361-2.826-4.361-6.287V37.867c0-3.461 1.97-6.256 4.361-6.256Z" fill="#EFB469"/><path fill-rule="evenodd" clip-rule="evenodd" d="M21.467 34.596h54.677c2.312 0 4.23 2.731 4.23 6.065v101.963c0 3.303-1.918 6.034-4.23 6.034H21.467c-2.312 0-4.204-2.699-4.204-6.034V40.661c0-3.334 1.892-6.065 4.204-6.065Z" fill="#F1C383"/><path fill-rule="evenodd" clip-rule="evenodd" d="M21.65 35.772h54.31c2.286 0 4.178 2.699 4.178 5.97V142.56c0 3.303-1.892 5.97-4.178 5.97H21.65c-2.285 0-4.15-2.667-4.15-5.97V41.741c0-3.27 1.865-5.97 4.15-5.97Z" fill="#F1C585"/><path fill-rule="evenodd" clip-rule="evenodd" d="M21.835 36.915h53.941c2.26 0 4.125 2.667 4.125 5.938v99.645c0 3.271-1.865 5.938-4.125 5.938h-53.94c-2.26 0-4.1-2.667-4.1-5.938V42.853c0-3.27 1.84-5.938 4.1-5.938Z" fill="#F1C786"/><path fill-rule="evenodd" clip-rule="evenodd" d="M22.045 38.09h53.547c2.234 0 4.073 2.635 4.073 5.842v98.502c0 3.239-1.84 5.875-4.073 5.875H22.045c-2.26 0-4.072-2.636-4.072-5.875V43.932c0-3.207 1.813-5.843 4.072-5.843Z" fill="#F2CA88"/><path fill-rule="evenodd" clip-rule="evenodd" d="M22.229 39.233h53.18c2.206 0 4.02 2.604 4.02 5.78v97.39c0 3.175-1.814 5.779-4.02 5.779h-53.18c-2.207 0-4.02-2.604-4.02-5.779v-97.39c0-3.176 1.813-5.78 4.02-5.78Z" fill="#F2CC8A"/><path fill-rule="evenodd" clip-rule="evenodd" d="M22.413 40.408h52.785c2.207 0 3.994 2.572 3.994 5.715v96.216c0 3.144-1.787 5.716-3.994 5.716H22.413c-2.181 0-3.968-2.572-3.968-5.716V46.124c0-3.144 1.787-5.716 3.968-5.716Z" fill="#F2CE8B"/><path fill-rule="evenodd" clip-rule="evenodd" d="M22.597 41.55h52.417c2.155 0 3.941 2.541 3.941 5.653v95.073c0 3.111-1.786 5.652-3.94 5.652H22.596c-2.155 0-3.915-2.541-3.915-5.652V47.203c0-3.112 1.76-5.652 3.915-5.652Z" fill="#F2D08D"/><path fill-rule="evenodd" clip-rule="evenodd" d="M22.78 42.726h52.05c2.128 0 3.888 2.508 3.888 5.557v93.929c0 3.08-1.76 5.589-3.888 5.589H22.78c-2.128 0-3.862-2.509-3.862-5.589v-93.93c0-3.048 1.734-5.556 3.862-5.556Z" fill="#F2D28E"/><path fill-rule="evenodd" clip-rule="evenodd" d="M22.99 43.87h51.656c2.102 0 3.836 2.476 3.836 5.524v92.787c0 3.016-1.734 5.493-3.836 5.493H22.991c-2.128 0-3.836-2.477-3.836-5.493V49.394c0-3.048 1.708-5.525 3.836-5.525Z" fill="#F2D490"/><path fill-rule="evenodd" clip-rule="evenodd" d="M23.175 45.044h51.26c2.103 0 3.81 2.445 3.81 5.43v91.643c0 2.985-1.707 5.43-3.81 5.43h-51.26c-2.076 0-3.784-2.445-3.784-5.43V50.474c0-2.985 1.708-5.43 3.784-5.43Z" fill="#F3D792"/><path fill-rule="evenodd" clip-rule="evenodd" d="M23.359 46.187h50.893c2.076 0 3.758 2.413 3.758 5.398v90.468c0 2.954-1.708 5.367-3.758 5.367H23.36c-2.05 0-3.731-2.413-3.731-5.367V51.585c0-2.985 1.681-5.398 3.73-5.398Z" fill="#F3D993"/><path fill-rule="evenodd" clip-rule="evenodd" d="M23.543 47.362h50.525c2.023 0 3.678 2.381 3.678 5.303v89.325c0 2.921-1.655 5.334-3.678 5.334H23.543c-2.023 0-3.679-2.413-3.679-5.334V52.665c0-2.922 1.655-5.303 3.679-5.303Z" fill="#F3DB95"/><path fill-rule="evenodd" clip-rule="evenodd" d="M22.938 35.993v.35c-.027.095-.027.159-.027.222-.026.032-.026.064-.026.095-.026.064-.026.096-.026.127-.027.032-.027.064-.053.096 0 .063-.026.095-.026.127-.027.031-.027.063-.053.063-.026.032-.026.095-.052.127l-.053.064c-.026 0-.026.031-.052.063-.027.032-.053.032-.053.064-.026.031-.052.063-.079.063-.026.032-.052.032-.079.064-.026 0-.052.032-.078.032-.027.031-.053.031-.08.063-.026 0-.052 0-.104.032-.027 0-.053 0-.08.031-.025 0-.052 0-.104.032h-.08c-.025 0-.078.032-.13.032h-.552c-.053 0-.105-.032-.158-.032h-.105c-.053 0-.105-.032-.158-.032l-.105-.031c-.052 0-.131 0-.184-.032l-.105-.032c-.052 0-.131 0-.184-.032l-.105-.031a.43.43 0 0 1-.21-.064l-.105-.032a.657.657 0 0 1-.236-.063h-.08l-.262-.095-.053-.032c-2.101-.699-4.86-1.905-7.75-2.477-.473-.095-.946-.159-1.393-.222h-.026c-.158 0-.29-.032-.447-.032-.158 0-.315-.032-.473-.032h-.026c-3.127-.127-6.2.858-8.592 4.478l-.079.095v.032a7.1 7.1 0 0 0-.315.508c1.576-10.098 4.598-13.146 8.382-16.036l-.132-.19-.473-.604h84.42l-.473.603-.132.19c3.784 2.89 6.805 5.939 8.408 16.037a7.1 7.1 0 0 0-.315-.508l-.027-.032-.052-.095h-.026c-2.365-3.62-5.465-4.605-8.592-4.478h-.026c-.132 0-.29.032-.447.032-.158 0-.315.032-.473.032-.473.063-.946.127-1.392.222h-.027c-2.864.572-5.623 1.778-7.724 2.477l-.08.032-.262.095h-.079a.699.699 0 0 1-.21.063l-.105.032c-.079.032-.158.064-.21.064l-.105.032c-.08.031-.132.031-.21.031l-.106.032c-.052.032-.105.032-.184.032l-.105.031c-.052 0-.105.032-.157.032h-.105c-.053 0-.105.032-.158.032H78.27c-.052 0-.079-.032-.131-.032h-.079c-.026-.032-.079-.032-.105-.032-.026-.031-.053-.031-.079-.031-.026-.032-.052-.032-.105-.032-.026-.032-.053-.032-.079-.063-.026 0-.052-.032-.079-.032l-.052-.064c-.026 0-.053-.032-.08-.063-.025-.032-.052-.032-.052-.064-.026-.032-.052-.063-.079-.063-.026-.032-.026-.064-.052-.064a.264.264 0 0 0-.053-.127s-.026-.032-.026-.063c-.026-.032-.026-.064-.052-.127 0-.032-.027-.064-.027-.096-.026-.031-.026-.063-.026-.127-.026-.031-.026-.063-.026-.095-.026-.063-.026-.127-.026-.222 0 0 0-.032-.027-.032v-7.494h-.026l-.158-.032H76.8v-.032h-.105l-.42-.095h-.027l-.368-.095h-.026c-.21-.032-.447-.095-.683-.127h-.027v-.032l-.341-.063h-.079l-.341-.064h-.105v-.032h-.027l-.394-.063h-.079c-.21-.032-.446-.095-.683-.127h-.052l-.395-.064-.578-.095-.42-.032v-.031h-.052a60.25 60.25 0 0 0-.763-.096h-.078l-.42-.063h-.106l-.42-.064h-.079l-.447-.063h-.052c-.263-.032-.526-.064-.815-.095h-.052l-.473-.064-.657-.063-.473-.032h-.052a80.926 80.926 0 0 0-.841-.095h-.053l-.552-.032-.578-.064h-.026l-.578-.032h-.052l-.815-.063h-.053l-.551-.032h-.027l-.604-.063-.762-.032h-.131l-.657-.032h-.053l-.551-.031-.657-.032-.736-.032-.893-.032h-.027l-.551-.032-.71-.031h-.604c-.289 0-.578-.032-.867-.032h-.71l-.656-.032h-2.234l-.788-.032h-.841l-.71.032h-2.285l-.63.032h-.605l-.84.032h-.789l-.657.031-.604.032-.762.032h-.656v.032h-.185l-.657.032-.578.031-.762.032h-.026l-.84.064-.526.031-.604.032h-.027l-.578.032h-.131l-.026.031-.657.032h-.158l-.525.064-.578.032h-.079v.031h-.053l-.683.064h-.105l-.5.032-.63.063h-.026l-.447.064h-.026c-.263.031-.552.063-.814.095h-.079l-.473.063-.526.064h-.026l-.5.063h-.078l-.71.096h-.052l-.447.095-.525.063-.447.064h-.026c-.237.032-.473.095-.71.127h-.052l-.394.063h-.026l-.473.096h-.053v.031h-.026l-.316.032v.032h-.026c-.236.032-.473.095-.683.127h-.053l-.288.064h-.027l-.026.031h-.026l-.42.095h-.053l-.316.064v7.177Z" fill="#000" fill-opacity=".102"/><path fill-rule="evenodd" clip-rule="evenodd" d="M22.938 33.708c0 6.732-15.45-9.177-22.938 3.556 1.84-10.479 4.309-12.638 8.382-16.036l-6.228-7.97c6.28-4.033 17.447 5.62 20.784-3.62v24.07Z" fill="#E54149"/><path fill-rule="evenodd" clip-rule="evenodd" d="M.394 36.63c-.131.19-.263.412-.394.634 1.576-10.097 4.598-13.146 8.382-16.036C5.912 26.056 2.18 27.992.394 36.63ZM2.97 14.305l-.815-1.048c6.28-4.033 17.447 5.62 20.784-3.62v1.46c-3.206 8.86-13.584.35-19.969 3.208Z" fill="#FF6595"/><path fill-rule="evenodd" clip-rule="evenodd" d="M22.938 33.708c0 6.732-15.45-9.177-22.938 3.556 5.307-16.417 22.938.762 22.938-5.938v2.382Z" fill="#CF1922"/><path fill-rule="evenodd" clip-rule="evenodd" d="m16.868 6.717 6.07.857v26.134c-1.34-7.653-6.07-.381-6.07-4.096V6.717Z" fill="#E54149"/><path fill-rule="evenodd" clip-rule="evenodd" d="m16.868 6.717 6.07.794v26.197c-.841-8.32-5.833-.857-5.702-5.366l-.368-21.625Z" fill="#AB0009"/><path fill-rule="evenodd" clip-rule="evenodd" d="M77.036 33.708c0 6.732 15.45-9.177 22.964 3.556-1.84-10.479-4.335-12.638-8.408-16.036l6.227-7.97c-6.28-4.033-17.446 5.62-20.783-3.62v24.07Z" fill="#E54149"/><path fill-rule="evenodd" clip-rule="evenodd" d="M99.58 36.63c.157.19.288.412.42.634-1.603-10.097-4.624-13.146-8.408-16.036 2.47 4.827 6.227 6.764 7.987 15.401Zm-2.575-22.324.814-1.048c-6.28-4.033-17.446 5.62-20.783-3.62v1.46c3.206 8.86 13.584.35 19.969 3.208Z" fill="#FF6595"/><path fill-rule="evenodd" clip-rule="evenodd" d="M77.036 33.708c0 6.732 15.45-9.177 22.964 3.556-5.334-16.417-22.964.762-22.964-5.938v2.382Z" fill="#CF1922"/><path fill-rule="evenodd" clip-rule="evenodd" d="m83.132 6.717-6.096.857v26.134c1.34-7.653 6.096-.381 6.096-4.096V6.717Z" fill="#E54149"/><path fill-rule="evenodd" clip-rule="evenodd" d="m83.132 6.717-6.096.794v26.197c.867-8.32 5.86-.857 5.728-5.366l.368-21.625Z" fill="#AB0009"/><path fill-rule="evenodd" clip-rule="evenodd" d="M16.868 6.716c.999-8.955 65.266-8.955 66.264 0v22.736c-3.468-6.922-62.796-6.922-66.264 0V6.716Z" fill="#E54149"/><path fill-rule="evenodd" clip-rule="evenodd" d="M83.132 15.798v13.654c-3.468-6.922-62.796-6.922-66.264 0V15.798c10.799-5.652 55.439-5.652 66.264 0Z" fill="#E01B25"/><path fill-rule="evenodd" clip-rule="evenodd" d="M16.868 6.652c1.314-8.86 64.95-8.86 66.264 0-8.145-6.636-58.119-6.636-66.264 0Z" fill="#FF6595"/><path fill-rule="evenodd" clip-rule="evenodd" d="M83.132 28.119v1.333c-3.468-6.922-62.796-6.922-66.264 0V28.12c3.468-6.891 62.796-6.891 66.264 0Z" fill="#C20F18"/><path d="m58 8.69.372 10.468 2.115.069V13.63c.657-1.279 1.2-1.9 1.657-1.9.23 0 .43.172.63.552.257.553.4 1.486.4 2.764 0 1.07-.086 2.349-.258 3.869l2.344-.104c.057-1.243.086-2.383.086-3.42 0-2.832-.229-4.905-.743-6.148-.315-.83-.8-1.244-1.487-1.244-.743 0-1.657.484-2.8 1.45l-.144-1.208L58 8.69ZM38.002 14.127c.052-1.566.34-2.927.918-4.085C39.602 8.681 40.494 8 41.623 8c1.207 0 2.046.408 2.597 1.157.42.613.761 1.736.997 3.336.105.647.158 1.226.158 1.804 0 1.192-.236 2.213-.683 2.996-.682 1.191-1.705 1.77-3.096 1.702-1.259-.069-2.177-.477-2.755-1.26-.603-.783-.866-1.974-.84-3.608Zm4.723-2.485c-.368-.476-.735-.68-1.05-.68-.42 0-.787.34-1.128 1.02-.315.613-.472 1.226-.472 1.805 0 .544.157 1.123.42 1.668.314.646.682.987 1.075.987.472 0 .919-.34 1.286-.953.367-.58.55-1.192.55-1.805 0-.68-.21-1.361-.681-2.042ZM55.432 18.759l.345-10.483h-2.606v6.483c-.652.965-1.15 1.448-1.572 1.448-.728 0-1.073-1.69-1.073-5.035 0-.896 0-1.965.077-3.172l-2.683.103c-.038 5.104.268 8.38.958 9.828.345.724.882 1.069 1.648 1.069.767 0 1.763-.38 2.99-1.103l.115 1 1.801-.138ZM67.36 20 67 7c3.6 1.182 5.55 2.686 5.85 4.584.09.68.15 1.325.15 1.97 0 1.002-.15 1.862-.45 2.542-.48 1.11-2.22 2.4-5.19 3.904Zm1.95-8.81.06 3.975c.93-.322 1.44-.93 1.5-1.826.06-.896-.45-1.612-1.56-2.149ZM28 17.917l1.126-2.709c1.436 1 2.523 1.5 3.3 1.5.31 0 .582-.083.815-.291a.75.75 0 0 0 .427-.709c0-.416-.504-.791-1.591-1.083-1.515-.417-2.563-1.292-3.068-2.583-.194-.459-.271-.834-.271-1.209 0-.791.35-1.458 1.126-2.083.62-.5 1.591-.75 2.834-.75.893 0 1.941.125 3.145.375L35.066 11c-.932-.458-1.67-.667-2.252-.667-.272 0-.543.084-.776.209-.31.125-.466.375-.466.625s.194.5.621.791c.272.167.815.459 1.63.792.66.292 1.166.583 1.476.833.427.417.66 1 .699 1.709.039 1.125-.466 2.166-1.514 3.125-.427.416-1.087.583-1.942.583-1.125 0-2.64-.333-4.542-1.083Z" fill="#fff"/></svg>