<svg width="127" height="142" fill="none" xmlns="http://www.w3.org/2000/svg"><path fill-rule="evenodd" clip-rule="evenodd" d="M21.92 14.183c28.48-5.47 56.72-5.47 84.603 0 8.855 1.654 14.719 8.015 16.394 17.428 5.505 30.023 5.385 60.045 0 89.94-1.675 9.541-7.419 16.665-16.394 17.556-27.882 2.671-56.123 2.671-84.604 0-9.095-.891-15.556-7.888-16.514-17.556-3.23-29.895-3.829-59.917 0-89.94 1.197-9.54 7.54-15.774 16.514-17.428Z" fill="#000" fill-opacity=".102"/><path fill-rule="evenodd" clip-rule="evenodd" d="M19.047 7.314c28.6-5.343 56.721-5.47 84.603 0 8.975 1.781 14.839 8.015 16.514 17.556 5.505 29.895 5.385 59.917 0 89.94-1.675 9.413-7.419 16.537-16.514 17.428-27.882 2.799-56.003 2.799-84.603 0-8.975-.763-15.437-7.887-16.395-17.428-3.23-30.023-3.829-60.045 0-89.94 1.197-9.541 7.54-15.902 16.395-17.556Z" fill="#E6E6E6"/><path fill-rule="evenodd" clip-rule="evenodd" d="M19.047 4.007c28.6-5.343 56.721-5.343 84.603 0 8.975 1.781 14.839 8.142 16.514 17.556 5.505 30.022 5.385 59.917 0 89.939-1.675 9.414-7.419 16.665-16.514 17.556-27.882 2.671-56.003 2.671-84.603 0-8.975-.891-15.437-8.015-16.395-17.556-3.23-30.022-3.829-59.917 0-89.94 1.197-9.54 7.54-15.774 16.395-17.555Z" fill="#fff"/><path fill-rule="evenodd" clip-rule="evenodd" d="M25.388 12.785c25.609-4.834 50.858-4.962 75.868 0 8.018 1.526 13.283 7.25 14.839 15.647 4.786 26.97 4.786 53.811 0 80.653-1.556 8.524-6.702 14.884-14.839 15.775-25.01 2.417-50.26 2.417-75.868 0-8.018-.764-13.881-7.124-14.719-15.775-2.872-26.842-3.47-53.684 0-80.653 1.077-8.523 6.701-14.12 14.72-15.647Z" fill="#E6E6E6"/><path fill-rule="evenodd" clip-rule="evenodd" d="M23.594 10.368c25.489-4.834 50.858-4.834 75.748 0 8.018 1.654 13.283 7.251 14.839 15.775 4.906 26.842 4.786 53.684 0 80.653-1.556 8.396-6.702 14.884-14.839 15.647-24.89 2.417-50.26 2.417-75.748 0-8.138-.763-13.881-7.124-14.839-15.647-2.872-26.97-3.47-53.811 0-80.653 1.077-8.65 6.821-14.248 14.839-15.775Z" fill="#00B0DC"/><path fill-rule="evenodd" clip-rule="evenodd" d="M23.594 4.897c25.489-4.834 50.858-4.834 75.748 0 8.018 1.654 13.283 7.251 14.839 15.775 4.906 26.841 4.786 53.684 0 80.653-1.556 8.396-6.702 14.884-14.839 15.647-24.89 2.417-50.26 2.417-75.748 0-8.138-.763-13.881-7.124-14.839-15.647-2.872-26.97-3.47-53.812 0-80.654 1.077-8.523 6.821-14.247 14.839-15.774Z" fill="#9FF"/><path fill-rule="evenodd" clip-rule="evenodd" d="M24.073 5.66c25.249-4.707 50.14-4.834 74.79 0 7.898 1.527 13.164 7.124 14.6 15.52 4.906 26.46 4.786 53.048 0 79.508-1.436 8.397-6.582 14.757-14.6 15.52-24.65 2.418-49.541 2.418-74.79 0-8.018-.763-13.642-6.996-14.6-15.52-2.752-26.46-3.35-53.047 0-79.508 1.077-8.396 6.702-13.993 14.6-15.52Z" fill="#8BFAFF"/><path fill-rule="evenodd" clip-rule="evenodd" d="M24.551 6.423c24.89-4.707 49.542-4.834 73.834 0 7.778 1.527 12.924 6.997 14.36 15.266 4.787 26.206 4.787 52.284 0 78.49-1.436 8.269-6.462 14.503-14.36 15.266-24.292 2.417-48.943 2.417-73.834 0-7.897-.636-13.522-6.869-14.36-15.266-2.752-26.206-3.35-52.284 0-78.49 1.077-8.269 6.582-13.866 14.36-15.266Z" fill="#7DF6FF"/><path fill-rule="evenodd" clip-rule="evenodd" d="M25.03 7.186c24.652-4.707 48.944-4.707 72.877 0 7.659 1.4 12.685 6.87 14.24 15.011 4.667 25.824 4.548 51.649 0 77.473-1.436 8.142-6.461 14.248-14.24 15.011-23.933 2.417-48.225 2.417-72.876 0-7.778-.636-13.283-6.742-14.12-15.011-2.753-25.824-3.351-51.649 0-77.473 1.076-8.141 6.461-13.612 14.12-15.011Z" fill="#6FF1FF"/><path fill-rule="evenodd" clip-rule="evenodd" d="M25.627 7.822c24.173-4.58 48.106-4.58 71.8 0 7.538 1.527 12.564 6.87 14 14.884 4.667 25.443 4.548 50.886 0 76.456-1.436 8.014-6.342 14.12-14 14.884-23.694 2.289-47.627 2.162-71.8 0-7.659-.764-13.163-6.87-14-14.884-2.753-25.57-3.232-51.013 0-76.456.957-8.141 6.341-13.357 14-14.884Z" fill="#61ECFF"/><path fill-rule="evenodd" clip-rule="evenodd" d="M26.106 8.585c23.813-4.452 47.507-4.58 70.842 0 7.419 1.4 12.326 6.743 13.762 14.63 4.547 25.188 4.547 50.25 0 75.31-1.436 8.015-6.223 13.994-13.762 14.757-23.335 2.29-47.028 2.163-70.842 0-7.539-.763-12.924-6.742-13.762-14.757-2.752-25.06-3.23-50.122 0-75.31.958-8.014 6.223-13.23 13.762-14.63Z" fill="#53E8FF"/><path fill-rule="evenodd" clip-rule="evenodd" d="M26.585 9.35c23.574-4.453 46.789-4.58 69.884 0 7.3 1.399 12.206 6.614 13.523 14.374 4.547 24.807 4.427 49.486 0 74.293-1.317 7.76-6.103 13.739-13.523 14.502-23.095 2.163-46.31 2.163-69.884 0-7.42-.763-12.685-6.615-13.523-14.502-2.632-24.807-3.23-49.486 0-74.293.958-7.887 6.223-12.976 13.523-14.375Z" fill="#46E3FF"/><path fill-rule="evenodd" clip-rule="evenodd" d="M27.065 9.985c23.215-4.326 46.19-4.326 68.927 0 7.18 1.526 11.967 6.615 13.403 14.375 4.428 24.297 4.308 48.722 0 73.147-1.436 7.633-6.103 13.485-13.403 14.248-22.736 2.163-45.712 2.163-68.927 0-7.3-.763-12.565-6.488-13.403-14.248-2.513-24.425-3.11-48.85 0-73.147 1.077-7.887 6.223-12.976 13.403-14.375Z" fill="#38DFFF"/><path fill-rule="evenodd" clip-rule="evenodd" d="M27.662 10.748c22.856-4.325 45.472-4.325 67.85 0 7.06 1.4 11.727 6.488 13.163 14.121 4.308 24.043 4.308 47.96 0 72.003-1.316 7.633-5.983 13.357-13.163 14.12-22.377 2.163-44.994 2.163-67.85 0-7.3-.763-12.446-6.36-13.283-14.12-2.513-24.044-2.992-47.96 0-72.003.957-7.76 6.103-12.721 13.283-14.12Z" fill="#2ADAFF"/><path fill-rule="evenodd" clip-rule="evenodd" d="M28.14 11.51c22.498-4.197 44.755-4.324 66.774 0 7.06 1.4 11.727 6.362 13.043 13.867 4.308 23.662 4.308 47.324 0 70.985-1.316 7.506-5.863 13.103-13.043 13.866-22.019 2.163-44.276 2.163-66.773 0-7.18-.636-12.206-6.233-13.044-13.866-2.513-23.661-2.992-47.323 0-70.985.957-7.633 5.983-12.594 13.043-13.866Z" fill="#1CD5FF"/><path fill-rule="evenodd" clip-rule="evenodd" d="M28.62 12.274c22.257-4.197 44.156-4.325 65.816 0 6.94 1.273 11.487 6.234 12.804 13.612 4.308 23.28 4.188 46.688 0 69.968-1.317 7.378-5.744 12.975-12.804 13.612-21.66 2.162-43.559 2.035-65.817 0-6.94-.637-11.966-6.234-12.804-13.612-2.513-23.408-2.992-46.688 0-69.968.958-7.505 5.864-12.34 12.804-13.611Z" fill="#0ED1FF"/><path fill-rule="evenodd" clip-rule="evenodd" d="M29.218 12.912c21.779-4.07 43.438-4.07 64.739 0 6.821 1.4 11.368 6.233 12.684 13.485 4.189 22.898 4.069 45.924 0 68.95-1.316 7.25-5.743 12.721-12.684 13.357-21.3 2.035-42.96 2.035-64.74 0-6.94-.636-11.966-6.107-12.684-13.358-2.393-23.025-2.872-46.051 0-68.95.958-7.378 5.744-12.085 12.685-13.484Z" fill="#0CF"/><path fill-rule="evenodd" clip-rule="evenodd" d="M23.595 4.897c25.488-4.834 50.858-4.834 75.748 0 8.018 1.654 13.283 7.251 14.839 15.775a234.354 234.354 0 0 1 3.59 36.51c-47.388-20.609-79.339 34.347-111.41-.255.12-12.085.838-24.17 2.394-36.255 1.077-8.524 6.821-14.248 14.839-15.775Z" fill="#fff" fill-opacity=".29"/><path fill-rule="evenodd" clip-rule="evenodd" d="M22.755 8.587c5.505 0 9.932 4.835 9.932 10.686 0 5.852-4.427 10.559-9.932 10.559-5.624 0-10.052-4.707-10.052-10.559 0-5.851 4.428-10.686 10.052-10.686ZM37.954 4.135c2.752 0 5.026 2.29 5.026 5.216 0 2.925-2.274 5.342-5.026 5.342-2.753 0-4.907-2.417-4.907-5.342 0-2.926 2.154-5.216 4.907-5.216ZM101.736 101.834c3.231 0 5.983 2.799 5.983 6.233 0 3.562-2.752 6.361-5.983 6.361-3.35 0-5.983-2.799-5.983-6.361 0-3.434 2.633-6.233 5.983-6.233Z" fill="#fff"/><path d="m39.437 74.865 15.915-1.78.958 11.83-29.318 1.781-.36-12.212C39.917 65.07 46.259 57.946 45.78 53.239c-.598-4.834-2.752-7.378-6.701-7.887-.36-.127-.838-.127-1.317-.127-3.35 0-6.581 1.654-9.573 4.961L24 38.228c6.94-2.671 12.804-4.07 17.471-4.07 7.898 0 12.565 3.816 14.12 11.448.36 1.781.599 3.69.599 5.47 0 9.669-5.624 17.556-16.753 23.79Z" stroke="#00B0DC" stroke-width=".755" stroke-linecap="round" stroke-linejoin="round"/><path d="m39.926 74.708 15.916-1.78.957 11.83L27.48 86.54l-.36-12.212c13.284-9.414 19.626-16.538 19.147-21.245-.598-4.834-2.752-7.378-6.7-7.887-.36-.127-.839-.127-1.317-.127-3.35 0-6.582 1.653-9.573 4.96l-4.189-11.957C31.43 35.399 37.294 34 41.96 34c7.898 0 12.565 3.816 14.12 11.45.36 1.78.6 3.688.6 5.47 0 9.668-5.625 17.555-16.754 23.788Z" fill="#fff"/><path fill-rule="evenodd" clip-rule="evenodd" d="m73.391 32.752 11.604 14.715 11.603-14.715c.816-1.003 2.175-1.003 3.082 0l6.708 8.027c.816 1.003.816 2.675 0 3.678l-11.875 15.05 11.875 14.938c.816 1.114.816 2.786 0 3.79L99.68 86.26c-.907 1.003-2.266 1.003-3.082-.112L84.995 71.546 73.39 86.15c-.816 1.115-2.175 1.115-2.991.112l-6.708-8.026c-.907-1.004-.907-2.676-.091-3.79l11.875-14.938-11.875-15.05c-.816-1.003-.816-2.675.09-3.678l6.709-8.027c.816-1.003 2.175-1.003 2.991 0Z" fill="#fff"/><path fill-rule="evenodd" clip-rule="evenodd" d="M78.24 57.629 64.028 40l-.29.35c-.967 1.051-.967 2.802-.097 3.853l12.665 15.76 1.934-2.334ZM84.458 68 72.083 83.294c-.87 1.167-2.32 1.167-3.19.117l-6.865-8.056-.387.35c-.87 1.168-.87 2.919.097 3.97l7.154 8.405v.117l1.45.7c.677 0 1.257-.35 1.74-.933L84.459 72.67l12.375 15.294c.484.583 1.16.933 1.74.933l1.451-.7c0-.117 0-.117.096-.117l7.155-8.405c.87-1.051.87-2.802 0-3.97l-.29-.35-6.865 8.055c-.966 1.051-2.417 1.051-3.287-.116L84.458 68ZM92 57.629l1.837 2.335 12.665-15.761c.871-1.05.871-2.802 0-3.853l-.29-.35L92 57.629Z" fill="#000" fill-opacity=".102"/></svg>