<svg width="127" height="141" fill="none" xmlns="http://www.w3.org/2000/svg"><path fill-rule="evenodd" clip-rule="evenodd" d="M21.91 14.104c28.43-5.387 56.725-5.387 84.619 0 8.809 1.7 14.682 8.08 16.417 17.576 5.472 29.908 5.338 59.816 0 89.866-1.735 9.355-7.475 16.584-16.417 17.434-27.894 2.693-56.19 2.693-84.618 0-9.076-.85-15.482-7.937-16.55-17.434-3.203-30.05-3.737-59.958 0-89.866 1.201-9.639 7.608-15.875 16.55-17.576Z" fill="#000" fill-opacity=".102"/><path fill-rule="evenodd" clip-rule="evenodd" d="M19.109 7.299c28.562-5.386 56.723-5.386 84.618 0 8.942 1.7 14.681 8.08 16.416 17.576 5.473 29.908 5.473 59.816 0 89.866-1.601 9.355-7.474 16.584-16.416 17.435-27.895 2.693-56.056 2.693-84.618 0-9.076-.851-15.483-7.938-16.55-17.435-3.07-30.05-3.737-59.958 0-89.866C3.759 15.237 10.166 9 19.109 7.3Z" fill="#E6E6E6"/><path fill-rule="evenodd" clip-rule="evenodd" d="M19.109 4.04c28.562-5.387 56.723-5.387 84.618 0 8.942 1.7 14.681 8.08 16.416 17.576 5.473 29.908 5.473 59.816 0 89.866-1.601 9.355-7.474 16.584-16.416 17.434-27.895 2.693-56.056 2.693-84.618 0-9.076-.85-15.483-7.937-16.55-17.434-3.07-30.05-3.737-59.958 0-89.866 1.2-9.639 7.607-15.875 16.55-17.576Z" fill="#fff"/><path fill-rule="evenodd" clip-rule="evenodd" d="M25.383 12.687c25.625-4.82 50.85-4.82 75.943 0 7.874 1.559 13.213 7.229 14.681 15.733 4.938 26.932 4.805 53.721 0 80.653-1.468 8.363-6.673 14.883-14.681 15.592-25.092 2.551-50.317 2.409-75.943 0-8.142-.709-13.88-7.088-14.815-15.592-2.803-26.932-3.337-53.721 0-80.653 1.201-8.504 6.807-14.174 14.815-15.733Z" fill="#E6E6E6"/><path fill-rule="evenodd" clip-rule="evenodd" d="M23.513 10.418c25.625-4.82 50.85-4.961 75.943 0 8.008 1.559 13.213 7.229 14.681 15.733 4.938 26.79 4.805 53.721 0 80.511-1.468 8.505-6.673 14.883-14.681 15.734-25.092 2.409-50.318 2.409-75.943 0-8.142-.851-13.881-7.088-14.815-15.734-2.803-26.79-3.337-53.721 0-80.51 1.201-8.647 6.807-14.317 14.815-15.734Z" fill="#6DC300"/><path fill-rule="evenodd" clip-rule="evenodd" d="M23.513 4.89c25.625-4.819 50.85-4.819 75.943 0 8.008 1.56 13.213 7.23 14.681 15.734 4.938 26.931 4.805 53.721 0 80.652-1.468 8.363-6.673 14.884-14.681 15.592-25.092 2.552-50.318 2.41-75.943 0-8.142-.708-13.881-7.087-14.815-15.592-2.803-26.931-3.337-53.72 0-80.652C9.899 12.119 15.505 6.45 23.513 4.89Z" fill="#C9FB06"/><path fill-rule="evenodd" clip-rule="evenodd" d="M24.048 5.599C49.273.921 74.23.921 98.923 5.599c7.874 1.56 13.08 7.229 14.548 15.592 4.805 26.506 4.805 53.012 0 79.518-1.468 8.363-6.54 14.742-14.548 15.45-24.692 2.41-49.65 2.41-74.875 0-8.008-.708-13.748-7.087-14.548-15.45-2.803-26.506-3.47-53.012 0-79.518 1.067-8.505 6.673-14.033 14.548-15.592Z" fill="#C5F806"/><path fill-rule="evenodd" clip-rule="evenodd" d="M24.582 6.45c24.825-4.677 49.516-4.82 73.808 0 7.874 1.418 12.946 6.946 14.414 15.167 4.805 26.223 4.671 52.303 0 78.526-1.468 8.221-6.54 14.458-14.415 15.308-24.29 2.268-48.982 2.268-73.807 0-7.875-.85-13.48-6.945-14.415-15.308-2.802-26.223-3.336-52.303 0-78.526 1.068-8.221 6.54-13.75 14.415-15.167Z" fill="#C0F605"/><path fill-rule="evenodd" clip-rule="evenodd" d="M25.116 7.159c24.558-4.678 48.85-4.678 72.873 0 7.608 1.417 12.68 6.945 14.148 15.024 4.671 25.798 4.671 51.595 0 77.393-1.468 8.079-6.407 14.316-14.148 15.025-24.024 2.409-48.315 2.409-72.873 0-7.874-.709-13.347-6.804-14.28-15.025-2.67-25.798-3.204-51.595 0-77.393 1.067-8.22 6.54-13.607 14.28-15.024Z" fill="#BCF305"/><path fill-rule="evenodd" clip-rule="evenodd" d="M25.516 7.866c24.29-4.536 48.182-4.678 71.939 0 7.607 1.417 12.546 6.804 14.014 14.883 4.538 25.372 4.538 50.886 0 76.258-1.468 8.08-6.407 14.175-14.014 14.884-23.757 2.267-47.648 2.267-71.94 0-7.607-.709-13.079-6.662-13.88-14.884-2.803-25.372-3.336-50.886 0-76.258.934-8.08 6.407-13.466 13.88-14.883Z" fill="#B7F004"/><path fill-rule="evenodd" clip-rule="evenodd" d="M26.05 8.575c23.89-4.536 47.514-4.536 70.871 0 7.474 1.418 12.413 6.804 13.881 14.6 4.538 25.089 4.404 50.177 0 75.266-1.468 7.938-6.273 14.033-13.88 14.741-23.358 2.268-46.981 2.268-70.872 0-7.474-.708-12.946-6.662-13.747-14.741-2.67-25.089-3.203-50.177 0-75.266 1.068-7.938 6.273-13.182 13.747-14.6Z" fill="#B3EE04"/><path fill-rule="evenodd" clip-rule="evenodd" d="M26.584 9.283c23.624-4.394 46.847-4.394 69.804 0 7.474 1.418 12.279 6.662 13.613 14.458 4.538 24.806 4.538 49.469 0 74.133-1.334 7.937-6.139 13.749-13.613 14.457-22.957 2.268-46.18 2.268-69.804 0-7.474-.708-12.813-6.52-13.613-14.457-2.536-24.664-3.07-49.327 0-74.133 1.067-7.796 6.273-13.04 13.613-14.458Z" fill="#AEEB03"/><path fill-rule="evenodd" clip-rule="evenodd" d="M27.116 9.993c23.224-4.252 46.18-4.394 68.87 0 7.207 1.418 12.012 6.662 13.346 14.316 4.405 24.38 4.405 48.76 0 73.14-1.334 7.654-6.006 13.466-13.346 14.175-22.69 2.268-45.646 2.268-68.87 0-7.34-.709-12.546-6.379-13.48-14.175-2.536-24.38-3.07-48.76 0-73.14 1.068-7.796 6.273-12.899 13.48-14.316Z" fill="#AAE903"/><path fill-rule="evenodd" clip-rule="evenodd" d="M27.652 10.702c22.823-4.252 45.512-4.252 67.801 0 7.207 1.418 11.879 6.52 13.213 14.175 4.405 23.955 4.271 47.91 0 72.006-1.334 7.512-6.006 13.324-13.213 14.033-22.289 2.126-44.978 2.126-67.801 0-7.208-.709-12.413-6.379-13.214-14.033-2.536-24.097-3.07-48.051 0-72.006.935-7.654 6.006-12.757 13.214-14.175Z" fill="#A5E602"/><path fill-rule="evenodd" clip-rule="evenodd" d="M28.184 11.553c22.423-4.253 44.712-4.394 66.734 0 7.074 1.275 11.745 6.378 13.08 13.749 4.271 23.671 4.271 47.342 0 71.014-1.335 7.512-5.873 13.182-13.08 13.891-22.022 2.126-44.311 1.984-66.734 0-7.207-.709-12.279-6.379-13.08-13.891-2.535-23.672-3.07-47.343 0-71.014.935-7.513 6.006-12.474 13.08-13.75Z" fill="#A1E302"/><path fill-rule="evenodd" clip-rule="evenodd" d="M28.584 12.261c22.29-4.252 44.178-4.252 65.933 0 6.941 1.276 11.479 6.237 12.813 13.608 4.138 23.246 4.138 46.634 0 69.88-1.334 7.37-5.872 12.899-12.813 13.607-21.755 2.126-43.643 2.126-65.932 0-6.94-.567-12.013-6.095-12.813-13.607-2.403-23.246-2.937-46.634 0-69.88.934-7.37 5.872-12.332 12.812-13.607Z" fill="#9CE101"/><path fill-rule="evenodd" clip-rule="evenodd" d="M29.118 12.97c21.889-4.11 43.51-4.11 64.865 0 6.807 1.276 11.345 6.095 12.68 13.466 4.137 22.82 4.004 45.783 0 68.746-1.335 7.229-5.739 12.757-12.68 13.465-21.354 2.127-42.976 1.985-64.865 0-6.94-.708-11.878-6.095-12.546-13.465-2.535-22.963-2.936-45.925 0-68.746.935-7.37 5.74-12.19 12.546-13.466Z" fill="#98DE01"/><path fill-rule="evenodd" clip-rule="evenodd" d="M23.512 4.89C49.138.071 74.363.071 99.455 4.89c8.008 1.56 13.213 7.23 14.681 15.734 2.269 12.19 3.471 24.38 3.604 36.428C70.36 36.5 38.327 91.496 6.428 56.91c0-12.048.801-24.238 2.27-36.286 1.2-8.505 6.806-14.174 14.814-15.734Z" fill="#fff" fill-opacity=".29"/><path fill-rule="evenodd" clip-rule="evenodd" d="M22.712 8.576c5.472 0 10.01 4.82 10.01 10.631 0 5.953-4.538 10.63-10.01 10.63-5.472 0-10.01-4.677-10.01-10.63 0-5.812 4.538-10.63 10.01-10.63ZM38.062 4.04C40.73 4.04 43 6.448 43 9.424c0 2.835-2.27 5.245-4.938 5.245-2.803 0-5.072-2.41-5.072-5.245 0-2.976 2.269-5.386 5.072-5.386ZM101.724 101.702c3.337 0 6.006 2.835 6.006 6.378 0 3.402-2.669 6.237-6.006 6.237-3.336 0-6.006-2.835-6.006-6.237 0-3.543 2.67-6.378 6.006-6.378Z" fill="#fff"/><path d="m39.926 74.708 15.916-1.78.957 11.83L27.48 86.54l-.36-12.212c13.284-9.414 19.626-16.538 19.147-21.245-.598-4.834-2.752-7.378-6.7-7.887-.36-.127-.839-.127-1.317-.127-3.35 0-6.582 1.653-9.573 4.96l-4.189-11.957C31.43 35.399 37.294 34 41.96 34c7.898 0 12.565 3.816 14.12 11.45.36 1.78.6 3.688.6 5.47 0 9.668-5.625 17.555-16.754 23.788Z" fill="#fff"/><path fill-rule="evenodd" clip-rule="evenodd" d="m72.391 33.752 11.604 14.715 11.603-14.715c.816-1.003 2.175-1.003 3.082 0l6.708 8.027c.816 1.003.816 2.675 0 3.678l-11.875 15.05 11.875 14.938c.816 1.114.816 2.786 0 3.79L98.68 87.26c-.907 1.003-2.266 1.003-3.082-.112L83.995 72.546 72.39 87.15c-.816 1.115-2.175 1.115-2.991.112l-6.708-8.026c-.907-1.004-.907-2.676-.091-3.79l11.875-14.938-11.875-15.05c-.816-1.003-.816-2.675.09-3.678l6.709-8.027c.816-1.003 2.175-1.003 2.991 0Z" fill="#fff"/><path fill-rule="evenodd" clip-rule="evenodd" d="M77.24 59.629 63.028 42l-.29.35c-.967 1.051-.967 2.802-.097 3.853l12.665 15.76 1.934-2.334ZM84.458 68 72.083 83.294c-.87 1.167-2.32 1.167-3.19.117l-6.865-8.056-.387.35c-.87 1.168-.87 2.919.097 3.97l7.154 8.405v.117l1.45.7c.677 0 1.257-.35 1.74-.933L84.459 72.67l12.375 15.294c.484.583 1.16.933 1.74.933l1.451-.7c0-.117 0-.117.096-.117l7.155-8.405c.87-1.051.87-2.802 0-3.97l-.29-.35-6.865 8.055c-.966 1.051-2.417 1.051-3.287-.116L84.458 68ZM91 58.629l1.837 2.335 12.665-15.761c.871-1.05.871-2.802 0-3.853l-.29-.35L91 58.629Z" fill="#000" fill-opacity=".102"/></svg>