<svg width="119" height="57" fill="none" xmlns="http://www.w3.org/2000/svg"><path opacity=".4" d="M34.631 53.19a163.35 163.35 0 0 1-16.1-2c-2.933-.533-5.833-1.1-8.7-1.7-1.466-.333-2.9-.667-4.3-1-.7-.2-1.5-.3-2.1-.6-.7-.2-3.3-.8-3.3-1.2.1-.7 1.2-1.7 1.7-2.1.9-.5 1.9-.9 2.9-1.2a42.556 42.556 0 0 1 4.9-1.7c.2-.067.367-.1.5-.1 4.1-1 8.2-1.4 12.3-2.1 9.1-1.4 18.3-2 27.4-2.8 10.7-.9 25-5.5 35.7-4.7 10.8.8 18.9 6.2 28.5 11.2 1.4.8 4.6 2.7 4.2 4.3-.2 1.2-3.1 3.1-4.3 3.5-10.9 4.3-23 4.8-34.6 5.2-11.5.3-23.1-.9-34.5-2.1-3.4-.333-6.8-.633-10.2-.9Z" fill="#62627C"/><path d="M67.931 13.79c1 1.3 2 2.7 3.3 3.7 1.4 1.2 3.2 1.9 4.8 2.7 3.9 1.8 7.5 3.9 10.9 6.4 3.6 2.6 7.2 6.4 6.6 10.8-6 .4-12.1.8-17.7 3-3.9 1.6-7.4 4-11.2 5.8-8.2 3.8-19.3 5-28.1 3 3.1-11.5 8.6-23 13.2-34.1 1.4-3.3 3.2-12.1 7.7-12 4.3.1 8.3 7.7 10.5 10.7Z" fill="#2C2C4F"/><path d="M91.431 30.79c1.5 1.9 2.5 4.2 2.1 6.6-6 .4-12.1.8-17.7 3-3.9 1.6-7.4 4-11.2 5.8-8.2 3.8-19.3 5-28.1 3 1.9-7.1 4.8-14.3 7.8-21.4 2.6-5.2 4.7-11.2 8.4-15.7.5-.7 1.1-1.3 1.9-1.3.9 0 1.6.9 2 1.7 2.3 5 .6 10.8-1.5 15.9s-4.6 10.4-3.6 15.8c0 .3.1.7.4.9.2.2.5.2.8.2 4.4.1 8.2-2.8 11.3-5.9 1.4-1.4 2.8-2.9 4.6-4 3.6-2.3 8.3-2.5 12.6-2.9 1-.067 1.934-.167 2.8-.3 1.9-.3 5-.4 7.4-1.4Z" fill="#07073D"/><path d="M64.431 8.69c1.4 1.9 2.6 3.9 3.5 5.1 1 1.3 2 2.7 3.3 3.7-.8.9-1.3 2-1.9 3a632.8 632.8 0 0 1-4.9 9.4V8.69Z" fill="#07073D"/><path d="M53.231 20.39c-1.3 5.4-2.6 10.7-4.6 16-1.7 4.6-4.3 9.1-5.1 13.9-3.5-.5-7.5-.1-11.1-.3-3.933-.267-7.833-.6-11.7-1a432.42 432.42 0 0 1-20.6-2.3c-.2-.6-.2-1.5.2-2.2.7-1.4 2.7-3.3 3.8-4.2 2.2-1.9 4.8-3.4 6.9-5.5 4.2-4 6.9-9.5 10.9-13.8 2-2.1 4.5-3.6 6.7-5.5.2-.2.4-.4.7-.4.3 0 .6.3.8.6.7.8 1.8 1.1 2.8 1.3l7 1.8c.8.2 1.6.4 2.5.5 1.1.1 2.2 0 3.4 0 2.5 0 5 .4 7.4 1.1Z" fill="#62627C"/><path d="M20.031 23.19c-.1 2.1.2 4.4.5 6.4.6 3.3 1.4 6.7 1.6 10-3.1-.1-7.8-1.6-12.1-3.9.334-.267.667-.567 1-.9 3.5-3.4 6-7.7 9-11.6ZM43.531 50.29c-1-.133-2.033-.2-3.1-.2.734-6.733 1.8-13.367 3.2-19.9.7-3.1 1.4-6.5 0-9.3-.333-.6-.7-1.133-1.1-1.6 1.1.1 2.2 0 3.3 0 2.5 0 5 .4 7.4 1.1-1.3 5.4-2.6 10.7-4.6 16-1.7 4.6-4.3 9.1-5.1 13.9Z" fill="#494968"/><path d="M46.531 23.99c-.8-.2 0-1.4.2-1.8l1-2.4c.667-1.533 1.334-3.1 2-4.7 1.4-3.3 3.2-12.1 7.7-12 .7 0 1.3.2 2 .6-.1 3-.1 5.9-.4 8.9-.1 1.3-.4 2.6-.7 3.8-.6 2.3-1.9 4.5-3.7 6-.6.5-1.3 1.1-2.1 1.4-.9.3-1.9.4-2.9.4s-2.033-.067-3.1-.2Z" fill="#A6A6BC"/><path d="M53.231 20.39c-1.3 5.4-2.6 10.7-4.6 16-1.7 4.6-4.3 9.1-5.1 13.9-.333 0-.633-.033-.9-.1 2.1-10.3 8.4-20.3 6.8-30.6 1.334.2 2.6.467 3.8.8Z" fill="#7E7E9E"/><path d="m24.431 18.79 4.2-3.3c.2-.2.4-.4.7-.4.3 0 .6.3.8.6.7.8 1.8 1.1 2.8 1.3l7 1.8c.8.2 1.6.4 2.5.5 1.1.1 2.2 0 3.4 0 2.5 0 5 .4 7.4 1.1-.1.5-.6 2.8-.7 3.4-9.8 1.2-18.5-1.8-28.1-5Z" fill="#A6A6BC"/><path d="M56.731 11.79c-.5 2.8-1.1 7.4-4 8.8-1.4.6-3 .7-4.5.7-7.7.2-15.5-.4-22.5-3.5 2.4-2.7 6.5-4.7 9.9-5.9 2.9-1 5.8-1.8 8.5-3.3 2.4-1.3 4.7-3 7.2-4.2 1.6-.7 4.8-1.6 6.7-1.2 1.7.3-.4 3.2-.8 4.3-.3.7-.3 1.7-.3 2.6 0 .6-.1 1.2-.2 1.7Z" fill="#8B8BA3"/><path d="M49.431 21.99v-.1c.1-.2.3-.4.5-.5.2-.2.4-.2.7-.2 1.5-.2 2.6.1 3.7 1.3v.1c0 .067-.033.133-.1.2-.133.067-.3.167-.5.3-.4.3-.9.6-1.5.8-.9.3-2.2.1-3.2.1h-.4c-.3-.3.6-1.7.8-2Z" fill="#BCBCD3"/><path opacity=".5" d="M40.032 14.99a36.449 36.449 0 0 0-6.5-1.4c-2-.3.1-1.6.8-2 2.4-1.3 5.2-1 7.8-1 4.4-.1 8.9.3 13.3.9 1.9.3 3.8.6 5.6 1.3 4.8 1.9 8.5 6.2 9.9 11.2 1.4 4.9.7 10.4-1.5 15-.6 1.4-1.5 2.8-2.5 3.9-2 2.1-4.9 3.4-7.8 3.9-3 .6-6.1.4-9.1.6-2.8.2-4.1 0-5.3-2.9-.4-1.1-.8-2.2-.6-3.4.2-1.1.8-2 1.4-2.9 1.5-2.3 2.4-5.2 5.5-5.7.4-.1.9-.1 1.3-.2.8-.3 1.1-1.1 1.3-1.8.2-.7.5-1.7 1.1-2l.9-.3c1.2-.6 1.3-1.8 1.4-3 .1-1.3.3-4.9-1.7-4.5-.7.1-1.5.1-2.3.1-1.134.133-2.3.2-3.5.2-1.3 0-3.2-.1-4.1-1.2-.6-.6-.8-1.5-1.1-2.2-.8-1.4-2-1.7-3.4-2.3a7.103 7.103 0 0 1-.9-.3Z" fill="#07073D"/><path d="M41.031 14.49c-2.6-1-5.2-1.5-8-1.3-1.4.1-.3-1.3.1-1.6.9-.6 1.6-1.2 2.7-1.4 1.1-.2 2.3-.1 3.1-.9l.6-.6c.3-.3.7-.6 1.1-.8 2.7-1.6 6-.8 8.3-3.1.9-.9 1.6-2.1 2.5-3 1.4-1.3 3.4-2.2 5.3-1.6 1.8.5 2.5 2.1 3.6 3.4 1.4 1.6 3.1 3 4.9 4.1 1.6 1 3.4 1.7 5 2.6 1.6 1 3.1 2.4 3.7 4.1.8 2.2 1.2 3.9 3.7 4.6 1.4.4 3.1 1.4 4.1 2.4 1.4 1.2 2.1 3.1 3.7 4.2 1.3 1 2.9 1.5 4.4 2.2 2.3 1.1 4.3 2.7 5.8 4.8.5.6 1 1.4.9 2.3-.1.9-.9 1.6-1.7 2-3.4 1.9-6.7.8-10.2 1.4-3.5.5-6.8 2.9-9.8 4.6-6.5 3.7-13.5 6.4-20.8 7.9-3.5.8-7.7 1.8-11.2 1.4-1.6-.2-2.9-1.3-4.5-1.7-1.8-.5-3.7-.6-5.6-.3-1 .2-2 .4-3 .4-1-.1-1.8-.4-2.7-.7-2.5-.7-5.1-.7-7.7-.4-1.7.1-9.9.6-5.9-2.5 2.7-2.2 6.4-3.1 9.8-2.3 1.4.2 2.8.7 4 .1.5-.4 1-.9 1.5-1.4 1.1-1.1 2.5-1.3 4-1.2 1.1 0 3.2.7 3.8-.4.2-.3.2-.6.4-.9.3-.4.9-.6 1.5-.7.5 0 1.1 0 1.6-.3 2.6-1.2 1.6-5.3 5.1-6 .8-.2 1.8.3 2.6-.1.3-.2.5-.6.9-.8 1.1-.7 2.7.4 3.9-.1 1.8-.6 1.8-3.7 3.7-3.9.4-.1 1 .1 1.4-.2.3-.2.3-.6.4-1 .1-1.8.9-7.7-1.2-8.7-.5-.1-.9-.1-1.4-.1-2.133.267-4.266.5-6.4.7-1.2.1-2.5.2-3.5-.4-.4-.2-.7-.5-.9-.9-.2-.3-.2-.6-.3-1a3.917 3.917 0 0 0-.5-.9c-.6-.9-1.7-1.6-2.8-2Z" fill="#75A000"/><path d="m32.931 11.79.2-.2c.9-.6 1.6-1.2 2.7-1.4 1.1-.2 2.3-.1 3.1-.9l.6-.6c.3-.3.7-.6 1.1-.8 2.7-1.6 6-.8 8.3-3.1.9-.9 1.6-2.1 2.5-3 1.4-1.3 3.4-2.2 5.3-1.6 1.8.5 2.5 2.1 3.6 3.4 1.4 1.6 3.1 3 4.9 4.1 1.6 1 3.4 1.7 5 2.6.134.133.267.233.4.3-.2.133-.4.233-.6.3-.5.1-.9.2-1.4.3-1.1.2-2 1-2.4 2.1-.2.4-.2.8-.5 1.1-.6.7-1.7.5-2.5.7-1.5.4-2.7 2.1-4.2 1.9-1.4-.1-2.3-1.7-3.6-1.7-1.1-.1-2.9 1.1-3.8 1.8-1.1.9-3.5 1.1-3.9-.5-.2-.5-.2-1-.2-1.4-.1-.9-.3-1.6-1.6-2-.9-.3-2-.1-3-.1s-2.1-.3-2.6-1.2c-.1-.3-.2-.5-.4-.7-.2-.1-.5-.1-.7-.1-1.8.067-3.566.267-5.3.6-.333 0-.666.033-1 .1Z" fill="#A5C62C"/><path d="M56.731 19.09c-.4-.1-.9-.1-1.3-.1-2.133.267-4.266.5-6.4.7-1.2.1-2.5.2-3.5-.4-.4-.2-.7-.5-.9-.9-.2-.3-.2-.6-.3-1a3.913 3.913 0 0 0-.5-.9c-.6-.9-1.7-1.6-2.8-2-2.6-1-5.2-1.5-8-1.3-.8.1-.8-.4-.5-.8.4 0 .8.033 1.2.1 3.7.2 7.3 1.2 10.7 2.7.2.1.5.3.7.5.3.3.4.9.6 1.3.6 1.6 2.8 1.7 4.5 1.4.6 0 1.6-.3 2.6-.5 1.5-.1 3 .2 3.9 1.2ZM94.831 36.89c-3.4 1.9-6.7.8-10.2 1.4-3.5.5-6.8 2.9-9.8 4.6-6.5 3.7-13.5 6.4-20.8 7.9-3.5.8-7.7 1.8-11.2 1.4-1.6-.2-2.9-1.3-4.5-1.7-1.8-.5-3.7-.6-5.6-.3-1 .2-2 .4-3 .4-1-.1-1.8-.4-2.7-.7-2.5-.7-5.1-.7-7.7-.4-1.6.1-8.6.5-6.7-1.8 1.8.3 3.6.2 5.2-.5 1-.5 1.9-1.1 3-1.1.7 0 1.4.2 2.1.4 2.8.9 5.7 1.4 8.6 1.5 2.6 0 3.9-1 5.6-2.8.9-1 2.2-1.7 3.5-1.9 1.3-.2 2.8-.2 3.4-1.3.4-.7.2-1.6.1-2.4-.2-.8-.1-1.8.6-2.2.8-.4 2.1.2 2.5-.6.3-.4.1-1.1.3-1.5.5-.7 1.5-.3 2.3-.5.8-.2 1.1-.9 1.3-1.8.5 0 1 .1 1.4-.1 1.8-.6 1.8-3.7 3.7-3.9.4-.1 1 .1 1.4-.2.3-.2.3-.6.4-1 .1-1.4.6-5.7-.3-7.7.2-.4.6-.8 1-.9 1.2-.4 2 .1 3.1-.7.9-.6 1.4-1.5 2.5-2 .2-.133.467-.233.8-.3.5-.1 1 0 1.5-.1 2.6-.5 2.1-3.8 4.1-4.4.4-.133.767-.2 1.1-.2.9.8 1.7 1.8 2.1 2.9.8 2.2 1.2 3.9 3.7 4.6 1.4.4 3.1 1.4 4.1 2.4 1.4 1.2 2.1 3.1 3.7 4.2 1.3 1 2.9 1.5 4.4 2.2 2.3 1.1 4.3 2.7 5.8 4.8.5.6 1 1.4.9 2.3-.1.9-.9 1.6-1.7 2Z" fill="#587F03"/><path opacity=".4" d="M96.531 34.89c-.1.9-.9 1.6-1.7 2-3.4 1.9-6.7.8-10.2 1.4-3.5.5-6.8 2.9-9.8 4.6-6.5 3.7-13.5 6.4-20.8 7.9-3.5.8-7.7 1.8-11.2 1.4-1.6-.2-2.9-1.3-4.5-1.7-1.8-.5-3.7-.6-5.6-.3-1 .2-2 .4-3 .4-.2-.067-.4-.1-.6-.1.9-.3 1.9-.7 2.9-1 2.3-.6 4.8-.5 7.2-.4.7 0 1.4 0 2 .1.8.2 1.9.7 2.6.3 1.2-.6.5-1.8 1-2.7.4-.6 1.2-.7 1.9-.6 1.1.2 1.8.5 2.7-.1 1-.6 1.3-1.7 2.6-1.9.3-.1.7-.1 1 .1.3.3.5.7.4 1-.1.1-.2.2-.3.4-.2.5.5.9 1.1.8.5-.2.8-.7 1.1-1.2.6-.8 1.3-1.4 2.1-2 .2-.1.5-.2.7-.1.2.1.2.3.3.4.4.3.8-.3.9-.7.1-1-.3-2.1-.4-3.1-.1-1 .4-2.3 1.4-2.5.2 0 .4 0 .6-.2.1-.1.2-.3.2-.5.1-.9-.4-1.8-.2-2.6.3-.8 1.2-1.2 2-1.1 1.3.2 2.1 1.7 3.6 1.5 2.5-.4.8-4.3 3.5-4.3.8 0 1.7.4 2.1-.2.2-.2.2-.4.4-.7.4-1 1.9-1 3-.9 1.2.2 2.7 0 2.9-1.1.2-.4-.2-.8-.7-1.2-1.1-.9-3-1.6-2.1-2.2.1-.2.4-.2.6-.4.2-.1.2-.4.2-.7-.1-1.4-1.6-2.1-2.9-2-1.5.1-2.2 1.3-3.5 1.8-1.3.4-3-.6-4.1.3-.6.5-.7 1.5-1.3 2.1-.6.5-1.4.4-2.2.4-.3 0-.7-.1-.8-.4-.2-.5.5-.8 1.1-.8-.3-1.1.8-2.2 1.9-2.3.4 0 .8 0 1-.3.1-.2.2-.3.2-.5.2-1.1.3-2.2 1.3-2.8.9-.6 2-.8 3.1-1.2.3-.1.6-.3.8-.5.4-.7 0-1.5 0-2.2 0-.9.7-1.6 1.4-2.2.7.7 1.2 1.4 1.5 2.3.8 2.2 1.2 3.9 3.7 4.6 1.4.4 3.1 1.4 4.1 2.4 1.4 1.2 2.1 3.1 3.7 4.2 1.3 1 2.9 1.5 4.4 2.2 2.3 1.1 4.3 2.7 5.8 4.8.5.6 1 1.4.9 2.3Z" fill="#375416"/><path d="M84.632 38.29c-3.5.5-6.8 2.9-9.8 4.6-6.5 3.7-13.5 6.4-20.8 7.9-3.1.7-6.7 1.5-9.9 1.5.1-.7.8-1.1 1.5-1.1s1.4.2 2.2.2c.5 0 1.4-.1 1.7-.6.2-.3-.2-1.9.1-2 .8-.4 1.9-.8 2.7-.3.2.1.4.3.7.4.8.4 1.6-.7 2.5-.7.8-.1 1.5.4 2.2-.2.6-.5.5-1.5 1.2-2.1.6-.4 1.5-.6 2.2-.3.4.1.8.3 1.2.2.2-.1.3-.3.5-.5.3-.5.5-1.3.3-2 0-.3-.2-.6-.2-1-.1-.4.1-.8.4-.9.7-.4 1.4.6 2.1.4.5-.1.8-.6 1-1.1.1-.2.2-.4.1-.7 0-.3-.2-.6-.4-.9-.6-1.3.6-2.5 1.9-2.8 1.9-.5 2.5 1.1 3.7 2.1.6.5 1.7.7 2.1 0 .1-.3.1-.6.2-.9.4-1 1.7-1.2 2.7-.9 1.1.4 2 1 3.1 1 1 0 2.2-1.1 1.6-2 .1.1-2.5-.1-2.8-.2-.8-.2-1.5-.5-1.2-1.5.3-.3 1 0 1.1-.4.1-.1 0-.3-.1-.5-.4-.6-1.4-1.7-1-2.5.4-.9 1.7-.7 2.4-.3.9.4 1.6 1.1 2.5 1.4.9.3 2.2-.2 2.2-1.2 0-.7-.7-1-.9-1.6-.4-1.1.3-.7.3-1.5 0-.3-.3-.5-.6-.5-1.9-.5-1.8-.6-1.3-2.4.2-.8-.6-1.5-1.4-1.6-2.5-.5-3-.3-4.4-2.4-.8-1.1-.7-2.1-2.4-1.8-.4 0-.8.1-1.2-.1-.7-.5-.3-1.6.3-2.2.4-.5.9-.9 1.2-1.4.7 1.9 1.2 3.4 3.5 4.1 1.4.4 3.1 1.4 4.1 2.4 1.4 1.2 2.1 3.1 3.7 4.2 1.3 1 2.9 1.5 4.4 2.2 2.3 1.1 4.3 2.7 5.8 4.8.5.6 1 1.4.9 2.3-.1.9-.9 1.6-1.7 2-3.4 1.9-6.7.8-10.2 1.4Z" fill="#375416"/><path opacity=".6" d="M65.331 11.29c-.3.6-1.1.9-1.8 1-2.1.4-1.9 1.6-3.7 2.5-.133.133-.3.233-.5.3-1.4.5-2.4-.4-3.7-1-.3-.2-.7-.2-1-.2-1.5 0-4.3.7-5.7.1-.7-.3-1-1.1-1.4-1.6-1.1-1.2-4.5-.1-4.9-2.1-.3-1.6 1.5-1.9 2.7-2.3 1.2-.4 2.2-1.1 2.4-2.3.4-.2.8-.5 1.2-.9.9-.9 1.6-2.1 2.5-3 1.4-1.3 3.4-2.2 5.3-1.6.534.133.967.367 1.3.7.2.3.3.6.3 1 .6 2.4.8 3.9 3.1 5.1 1.3.7 4.8 2.3 3.9 4.3Z" fill="#D4E05F"/><path d="M47.731 7.69c.4-.1.7-.3 1-.2.5.2.4.9 0 1.3-2.2 2.2-4.6.5-1-1.1ZM57.532 13.49c.1-1.2 3.3-2.3 3.3-1.6-.1.7-.6 1.3-1.2 1.7-.7.4-2.1.9-2.1-.1ZM54.031 1.29c.6-.2 2.2.1 2.3.9.1 1.2-2 1.1-2.6 1.4-1.4.8-1.6 2.5-3.4 2.8 0-1.8 1.4-3.2 2.7-4.4.2-.2.4-.367.6-.5l.4-.2Z" fill="#E3E86B"/></svg>