<svg width="483" height="150" viewBox="0 0 483 150" fill="none" xmlns="http://www.w3.org/2000/svg">
<path fill-rule="evenodd" clip-rule="evenodd" d="M42.2127 11.2783H456.739C462.336 11.2783 467 19.0855 467 28.6275V131.855C467 141.571 462.336 149.378 456.739 149.378H42.2127C36.6157 149.378 31.9515 141.571 31.9515 131.855V28.6275C31.9515 19.0855 36.6157 11.2783 42.2127 11.2783Z" fill="black" fill-opacity="0.101961"/>
<path fill-rule="evenodd" clip-rule="evenodd" d="M39.4143 5.72656H453.94C459.537 5.72656 464.202 13.5337 464.202 23.2492V126.477C464.202 136.019 459.537 143.826 453.94 143.826H39.4143C33.7007 143.826 29.1532 136.019 29.1532 126.477V23.2492C29.1532 13.5337 33.7007 5.72656 39.4143 5.72656Z" fill="#E6E6E6"/>
<path fill-rule="evenodd" clip-rule="evenodd" d="M39.4143 2.08398H453.94C459.537 2.08398 464.202 9.89108 464.202 19.6066V122.834C464.202 132.376 459.537 140.183 453.94 140.183H39.4143C33.7007 140.183 29.1532 132.376 29.1532 122.834V19.6066C29.1532 9.89108 33.7007 2.08398 39.4143 2.08398Z" fill="white"/>
<path fill-rule="evenodd" clip-rule="evenodd" d="M22.6632 14H472.337C478.189 14 483 22.3433 483 32.4328V125.567C483 135.657 478.189 144 472.337 144H22.6632C16.8114 144 12 135.657 12 125.567V32.4328C12 22.3433 16.8114 14 22.6632 14Z" fill="#E6E6E6"/>
<path fill-rule="evenodd" clip-rule="evenodd" d="M20.5302 12H470.34C476.32 12 481 20.3374 481 30.226V120.774C481 130.856 476.19 139 470.34 139H20.5302C14.6801 139 10 130.856 10 120.774V30.226C10 20.3374 14.6801 12 20.5302 12Z" fill="#F1C383"/>
<path fill-rule="evenodd" clip-rule="evenodd" d="M20.3856 7H467.485C473.326 7 478 15.1312 478 25.0048V109.995C478 119.869 473.326 128 467.485 128H20.3856C14.6735 128 10 119.869 10 109.995V25.0048C10 15.1312 14.6735 7 20.3856 7Z" fill="#FAEECC"/>
<path fill-rule="evenodd" clip-rule="evenodd" d="M22.2477 10C170.126 10 317.874 10 465.623 10C471.33 10 476 17.9399 476 27.6227C476 54.5409 476 81.4591 476 108.377C476 118.06 471.33 126 465.623 126C317.874 126 170.126 126 22.2477 126C16.5401 126 12 118.06 12 108.377C12 81.4591 12 54.5409 12 27.6227C12 17.9399 16.5401 10 22.2477 10Z" fill="#FAEDC9"/>
<path fill-rule="evenodd" clip-rule="evenodd" d="M23.1538 12C170.385 12 317.615 12 464.716 12C470.444 12 475 19.9148 475 29.567C475 54.8557 475 80.1443 475 105.626C475 115.085 470.314 123 464.716 123C317.615 123 170.385 123 23.1538 123C17.5562 123 13 115.085 13 105.626C13 80.1443 13 54.8557 13 29.567C13 19.9148 17.5562 12 23.1538 12Z" fill="#F9ECC6"/>
<path fill-rule="evenodd" clip-rule="evenodd" d="M25.0159 14C170.962 14 316.908 14 462.854 14C468.447 14 473 21.9619 473 31.4773C473 55.5572 473 79.4428 473 103.523C473 113.038 468.447 121 462.854 121C316.908 121 170.962 121 25.0159 121C19.5527 121 15 113.038 15 103.523C15 79.4428 15 55.5572 15 31.4773C15 21.9619 19.5527 14 25.0159 14Z" fill="#F9EBC2"/>
<path fill-rule="evenodd" clip-rule="evenodd" d="M26.878 17C171.669 17 316.331 17 460.992 17C466.451 17 471 24.6952 471 33.9295C471 56.2457 471 78.7543 471 101.07C471 110.497 466.451 118 460.992 118C316.331 118 171.669 118 26.878 118C21.4191 118 17 110.497 17 101.07C17 78.7543 17 56.2457 17 33.9295C17 24.6952 21.4191 17 26.878 17Z" fill="#F8EABF"/>
<path fill-rule="evenodd" clip-rule="evenodd" d="M28.7403 19C172.247 19 315.753 19 459.13 19C464.584 19 469 26.5509 469 35.8443C469 56.9481 469 78.0519 469 99.1557C469 108.449 464.584 116 459.13 116C315.753 116 172.247 116 28.7403 116C23.4156 116 19 108.449 19 99.1557C19 78.0519 19 56.9481 19 35.8443C19 26.5509 23.4156 19 28.7403 19Z" fill="#F8E9BC"/>
<path fill-rule="evenodd" clip-rule="evenodd" d="M30.6026 22C172.824 22 315.046 22 457.268 22C462.588 22 467 29.3445 467 38.6218C467 58.1429 467 77.6639 467 97.3782C467 106.462 462.588 114 457.268 114C315.046 114 172.824 114 30.6026 114C25.2822 114 21 106.462 21 97.3782C21 77.6639 21 58.1429 21 38.6218C21 29.3445 25.2822 22 30.6026 22Z" fill="#F7E8B9"/>
<path fill-rule="evenodd" clip-rule="evenodd" d="M31.5078 24C173.213 24 314.787 24 456.362 24C461.702 24 466 31.3304 466 40.3969C466 58.5299 466 76.663 466 94.6031C466 103.67 461.702 111 456.362 111C314.787 111 173.213 111 31.5078 111C26.298 111 22 103.67 22 94.6031C22 76.663 22 58.5299 22 40.3969C22 31.3304 26.298 24 31.5078 24Z" fill="#F7E7B6"/>
<path fill-rule="evenodd" clip-rule="evenodd" d="M33.37 26C173.79 26 314.21 26 454.5 26C459.705 26 464 33.3864 464 42.3279C464 59.0445 464 75.9555 464 92.6721C464 101.614 459.705 109 454.5 109C314.21 109 173.79 109 33.37 109C28.1644 109 24 101.614 24 92.6721C24 75.9555 24 59.0445 24 42.3279C24 33.3864 28.1644 26 33.37 26Z" fill="#F6E6B3"/>
<path fill-rule="evenodd" clip-rule="evenodd" d="M57.138 26.7207C181.787 26.7207 306.553 26.7207 431.319 26.7207C435.984 26.7207 439.715 33.1399 439.715 40.947C439.715 54.6528 439.715 68.3587 439.715 82.0645C439.715 89.8716 435.867 96.4643 431.319 96.4643C306.553 96.4643 181.787 96.4643 57.138 96.4643C52.4739 96.4643 48.7426 89.8716 48.7426 82.0645C48.7426 68.3587 48.7426 54.6528 48.7426 40.947C48.7426 33.1399 52.4739 26.7207 57.138 26.7207Z" fill="#F6E5AF"/>
<path fill-rule="evenodd" clip-rule="evenodd" d="M58.6537 28.8018C182.37 28.8018 306.087 28.8018 429.803 28.8018C434.351 28.8018 438.082 35.2209 438.082 42.8545C438.082 55.3459 438.082 67.6637 438.082 80.155C438.082 87.7886 434.351 94.2078 429.803 94.2078C306.087 94.2078 182.37 94.2078 58.6537 94.2078C54.1062 94.2078 50.3749 87.9621 50.3749 80.155C50.3749 67.6637 50.3749 55.3459 50.3749 42.8545C50.3749 35.2209 54.1062 28.8018 58.6537 28.8018Z" fill="#F5E4AC"/>
<path fill-rule="evenodd" clip-rule="evenodd" d="M60.1695 30.8838H428.288C432.718 30.8838 436.45 37.303 436.45 44.9366V78.2469C436.45 85.8805 432.718 92.1262 428.288 92.1262H60.1695C55.6219 92.1262 52.0072 85.8805 52.0072 78.2469V44.9366C52.0072 37.1295 55.6219 30.8838 60.1695 30.8838Z" fill="#F5E3A9"/>
<path fill-rule="evenodd" clip-rule="evenodd" d="M446.012 94.7285C448.811 94.7285 451.143 98.5453 451.143 103.577C451.143 108.434 448.811 112.425 446.012 112.425C443.097 112.425 440.765 108.434 440.765 103.577C440.765 98.5453 443.097 94.7285 446.012 94.7285Z" fill="white"/>
<path fill-rule="evenodd" clip-rule="evenodd" d="M438.082 103.751C439.598 103.751 440.764 105.833 440.764 108.435C440.764 111.037 439.598 113.293 438.082 113.293C436.45 113.293 435.284 111.037 435.284 108.435C435.284 105.833 436.45 103.751 438.082 103.751Z" fill="white"/>
<path fill-rule="evenodd" clip-rule="evenodd" d="M44.0784 11.4512C48.5095 11.4512 52.1243 17.5234 52.1243 25.157C52.1243 32.6172 48.5095 38.8629 44.0784 38.8629C39.6473 38.8629 36.149 32.6172 36.149 25.157C36.149 17.5234 39.6473 11.4512 44.0784 11.4512Z" fill="white"/>
<path fill-rule="evenodd" clip-rule="evenodd" d="M56.4382 9.7168C58.887 9.7168 60.8693 13.1867 60.8693 17.3505C60.8693 21.5144 58.887 24.9842 56.4382 24.9842C53.9895 24.9842 52.0072 21.5144 52.0072 17.3505C52.0072 13.1867 53.9895 9.7168 56.4382 9.7168Z" fill="white"/>
<path fill-rule="evenodd" clip-rule="evenodd" d="M83.9484 21.209H460.574C465.253 21.209 469.151 25.8497 469.151 31.6507V102.035C469.151 107.836 465.253 112.477 460.574 112.477H83.9484C79.2698 112.477 75.371 107.836 75.371 102.035V31.6507C75.371 25.8497 79.2698 21.209 83.9484 21.209Z" fill="#EFB469"/>
<path fill-rule="evenodd" clip-rule="evenodd" d="M87.0671 26.2363H457.456C462.004 26.2363 465.643 30.6838 465.643 36.2914V100.683C465.643 106.097 461.874 110.738 457.456 110.738H87.0671C82.6484 110.738 78.8795 106.097 78.8795 100.683V36.2914C78.8795 30.6838 82.5184 26.2363 87.0671 26.2363Z" fill="#F1C383"/>
<path fill-rule="evenodd" clip-rule="evenodd" d="M87.4572 32.0361C210.66 32.0361 333.863 32.0361 457.065 32.0361C461.484 32.0361 465.253 36.4836 465.253 41.8978C465.253 61.4278 465.253 80.9579 465.253 100.488C465.253 105.902 461.484 110.543 457.065 110.543C333.863 110.543 210.66 110.543 87.4572 110.543C83.0385 110.543 79.2697 106.096 79.2697 100.488C79.2697 80.9579 79.2697 61.4278 79.2697 41.8978C79.2697 36.4836 83.0385 32.0361 87.4572 32.0361Z" fill="#F1C585"/>
<path fill-rule="evenodd" clip-rule="evenodd" d="M87.847 37.6445C210.79 37.6445 333.733 37.6445 456.676 37.6445C461.094 37.6445 464.733 42.0919 464.733 47.5061C464.733 65.1023 464.733 82.8919 464.733 100.488C464.733 105.902 461.094 110.35 456.676 110.35C333.733 110.35 210.79 110.35 87.847 110.35C83.4283 110.35 79.7894 105.902 79.7894 100.488C79.7894 82.8919 79.7894 65.1023 79.7894 47.5061C79.7894 42.0919 83.4283 37.6445 87.847 37.6445Z" fill="#F1C786"/>
<path fill-rule="evenodd" clip-rule="evenodd" d="M88.2366 43.4453C210.919 43.4453 333.602 43.4453 456.285 43.4453C460.704 43.4453 464.213 47.6993 464.213 53.1135C464.213 68.776 464.213 84.6319 464.213 100.488C464.213 105.709 460.704 109.963 456.285 109.963C333.602 109.963 210.919 109.963 88.2366 109.963C83.8179 109.963 80.309 105.709 80.309 100.488C80.309 84.6319 80.309 68.776 80.309 53.1135C80.309 47.6993 83.8179 43.4453 88.2366 43.4453Z" fill="#F2CA88"/>
<path d="M17.3906 26.8997C15.6287 47.8776 16.6565 62.4898 22.0889 74.4978C27.3744 86.2165 37.2115 96.3437 53.0682 108.352C68.9249 96.3437 78.9088 86.2165 84.1943 74.4978C89.6267 62.4898 90.6545 47.8776 88.7458 26.8997C76.4128 24.5849 64.8139 23.2828 53.0682 23.2828C41.4693 23.1382 29.8704 24.4402 17.3906 26.8997ZM6.81942 81.0082C-0.374828 65.0939 -1.40258 46.4308 1.53385 19.3766L2.12114 13.5896L7.84717 12.2875C23.5571 8.67067 38.2392 6.93457 53.0682 6.93457C67.8971 6.93457 82.5793 8.81534 98.2892 12.2875L104.015 13.5896L104.603 19.3766C107.539 46.4308 106.511 65.0939 99.3169 81.0082C92.1227 97.0671 79.2024 109.798 58.0601 125.134L53.0682 128.606L48.2231 125.134C27.0808 109.798 14.0137 97.0671 6.81942 81.0082Z" fill="black" fill-opacity="0.101961"/>
<path d="M17.3906 19.9819C15.6287 40.9583 16.6565 55.5695 22.0889 67.432C27.3744 79.2946 37.2115 89.4211 53.0682 101.284C68.9249 89.4211 78.9088 79.2946 84.1943 67.432C89.6267 55.5695 90.6545 40.9583 88.7458 19.9819C76.4128 17.5226 64.8139 16.2206 53.0682 16.2206C41.4693 16.2206 29.8704 17.3779 17.3906 19.9819ZM6.81942 74.0866C-0.374828 58.0288 -1.40258 39.5117 1.53385 12.4593L2.12114 6.6727L7.84717 5.37071C23.5571 1.60942 38.2392 -0.126562 53.0682 0.0181035C67.8971 0.0181035 82.5793 1.75408 98.2892 5.37071L104.015 6.6727L104.603 12.4593C107.539 39.5117 106.511 58.0288 99.3169 74.0866C92.1227 90.1444 79.2024 102.73 58.0601 118.065L53.0682 121.681L48.2231 118.065C27.0808 102.73 14.0137 90.1444 6.81942 74.0866Z" fill="white"/>
<path fill-rule="evenodd" clip-rule="evenodd" d="M10.1683 10.0827C4.79151 61.7064 13.6559 79.7383 53.0369 108.822C92.5633 79.7383 101.428 61.7064 95.9056 10.0827C66.1155 3.39338 40.1037 3.10254 10.1683 10.0827Z" fill="#E6E6E6"/>
<path fill-rule="evenodd" clip-rule="evenodd" d="M53.6926 108.822C92.6348 79.728 101.368 61.6896 95.9277 10.0475C81.3244 6.7017 67.4369 4.95605 53.6926 4.95605V108.822Z" fill="#CCCCCC"/>
<path fill-rule="evenodd" clip-rule="evenodd" d="M53.0051 98.0811C41.819 89.9524 33.1026 82.5496 26.5652 75.1467C14.798 61.9376 9.56812 48.2931 8.84175 28.6973C7.53428 66.5826 18.7204 83.5656 53.0051 108.823C87.4352 83.5656 98.476 66.5826 97.3138 28.6973C96.5875 48.2931 91.3576 61.9376 79.5904 75.1467C72.9077 82.5496 64.1913 89.9524 53.0051 98.0811Z" fill="white"/>
<path fill-rule="evenodd" clip-rule="evenodd" d="M8.7406 35.4318C8.88594 68.8822 20.6582 85.1748 53.0681 108.821C85.4781 85.1748 97.2503 68.8822 97.3957 35.4318C97.3957 33.8458 97.3957 32.404 97.3957 30.6738C96.669 50.1384 91.4369 63.6916 79.6647 76.8122C72.9792 84.1655 64.259 91.5188 53.0681 99.7372C41.8773 91.5188 33.1571 84.1655 26.617 76.8122C14.8447 63.6916 9.61262 50.1384 8.88594 30.6738C8.7406 32.404 8.7406 33.99 8.7406 35.4318Z" fill="#999999"/>
<path fill-rule="evenodd" clip-rule="evenodd" d="M51.1951 3.96582L56.1897 4.97803L53.1495 47.4906L51.1951 3.96582Z" fill="white"/>
<path fill-rule="evenodd" clip-rule="evenodd" d="M52.9957 115.435L48.1539 111.803C27.0259 96.4039 13.9676 83.7647 6.77826 67.6388C2.3766 57.7598 0.322491 46.8639 0.029047 33.6436C-0.264397 49.7695 1.64299 62.4087 6.77826 73.8857C13.9676 90.0117 27.0259 102.651 48.1539 118.05L52.9957 121.682L57.9842 118.05C79.1122 102.651 92.0237 90.0117 99.2131 73.8857C104.348 62.4087 106.402 49.7695 106.109 33.6436C105.816 46.8639 103.615 57.7598 99.2131 67.6388C92.0237 83.7647 79.1122 96.4039 57.9842 111.803L52.9957 115.435Z" fill="#E6E6E6"/>
</svg>
